<svg width="199" height="55" viewBox="0 0 199 55" fill="none" xmlns="http://www.w3.org/2000/svg">
<rect x="0.5" y="0.5" width="198" height="54" rx="27" fill="#1F1F1F"/>
<path d="M57 23.791H21V18.1456C21 15.0809 23.6422 12.5001 26.7798 12.5001H51.2202C54.3578 12.5001 57 15.0809 57 18.1456V23.791Z" fill="#34A853"/>
<path d="M57 29H21V23C21 19.7429 23.6422 17 26.7798 17H51.2202C54.3578 17 57 19.7429 57 23V29Z" fill="#FBBC04"/>
<path d="M57 34H21V28C21 24.7429 23.6422 22 26.7798 22H51.2202C54.3578 22 57 24.7429 57 28V34Z" fill="#EA4335"/>
<path d="M21 25.2409L43.8493 30.4025C46.4795 31.0477 49.4384 30.4025 51.5753 28.7895L57 24.9183V37.0157C57 40.0804 54.3699 42.4999 51.2466 42.4999H26.7534C23.6301 42.4999 21 40.0804 21 37.0157V25.2409Z" fill="url(#paint0_linear_1819_23921)"/>
<path d="M78.568 21.565L78.685 20.499C79.179 20.499 79.5257 20.4513 79.725 20.356C79.9243 20.2607 80.037 20.096 80.063 19.862C80.0977 19.6193 80.1063 19.277 80.089 18.835L79.842 12.218H80.895L81.155 18.718C81.181 19.3333 81.1377 19.8533 81.025 20.278C80.921 20.7027 80.6783 21.0233 80.297 21.24C79.9243 21.4567 79.348 21.565 78.568 21.565ZM69.39 21.513C69.39 21.201 69.4333 20.8543 69.52 20.473C69.6067 20.0917 69.7453 19.6713 69.936 19.212L70.872 19.576C70.7333 19.94 70.6293 20.2737 70.56 20.577C70.4907 20.8803 70.456 21.162 70.456 21.422C70.456 21.9073 70.5947 22.2973 70.872 22.592C71.158 22.8953 71.5307 23.1163 71.99 23.255C72.458 23.3937 72.9693 23.463 73.524 23.463C74.1913 23.463 74.798 23.385 75.344 23.229C75.8987 23.0817 76.3407 22.878 76.67 22.618C76.9993 22.358 77.164 22.072 77.164 21.76C77.164 21.5347 76.9907 21.3397 76.644 21.175C76.2973 21.0103 75.812 20.8413 75.188 20.668L75.435 19.589C76.3277 19.9443 77.0253 20.187 77.528 20.317C78.0393 20.4383 78.4293 20.499 78.698 20.499C78.88 20.499 79.01 20.551 79.088 20.655C79.1747 20.7503 79.218 20.8673 79.218 21.006C79.218 21.1447 79.1573 21.2747 79.036 21.396C78.9147 21.5087 78.7587 21.565 78.568 21.565H78.087C78.0957 21.643 78.1043 21.7037 78.113 21.747C78.1303 21.799 78.139 21.864 78.139 21.942C78.139 22.3667 77.944 22.774 77.554 23.164C77.164 23.5627 76.6007 23.8877 75.864 24.139C75.136 24.3903 74.2607 24.516 73.238 24.516C72.5447 24.516 71.9077 24.4077 71.327 24.191C70.7463 23.9743 70.2783 23.6407 69.923 23.19C69.5677 22.748 69.39 22.189 69.39 21.513ZM83.1452 21.5L82.8852 12.218H83.9382L84.1982 21.5H83.1452ZM82.7942 25.439L82.6382 24.737C82.7682 24.711 82.8809 24.685 82.9762 24.659C83.0716 24.633 83.1626 24.6113 83.2492 24.594C83.0846 24.4813 82.9416 24.334 82.8202 24.152C82.6989 23.97 82.6382 23.7707 82.6382 23.554C82.6382 23.164 82.7726 22.8693 83.0412 22.67C83.3186 22.4707 83.6306 22.371 83.9772 22.371C84.1766 22.371 84.3802 22.4057 84.5882 22.475L84.4842 23.125C84.3976 23.1077 84.3109 23.0903 84.2242 23.073C84.1462 23.0557 84.0639 23.047 83.9772 23.047C83.5526 23.047 83.3402 23.203 83.3402 23.515C83.3402 23.7403 83.4226 23.9267 83.5872 24.074C83.7606 24.2213 83.9296 24.3167 84.0942 24.36C84.4236 24.2647 84.7139 24.1693 84.9652 24.074L85.1732 24.737C84.9652 24.815 84.7182 24.8973 84.4322 24.984C84.1549 25.0707 83.8689 25.153 83.5742 25.231C83.2882 25.3177 83.0282 25.387 82.7942 25.439ZM94.3991 21.565C93.8357 21.565 93.3504 21.4697 92.9431 21.279C92.5444 21.0883 92.2627 20.7373 92.0981 20.226C91.6301 20.3387 91.1794 20.3863 90.7461 20.369C90.3214 20.343 89.9357 20.2607 89.5891 20.122C89.2424 19.9747 88.9694 19.7753 88.7701 19.524C88.5707 19.264 88.4711 18.9563 88.4711 18.601C88.4711 18.133 88.6184 17.7083 88.9131 17.327C89.2077 16.937 89.6064 16.6077 90.1091 16.339C90.6117 16.0703 91.1664 15.884 91.7731 15.78L91.7341 14.792H92.7871L92.9951 19.082C93.0124 19.4893 93.0817 19.797 93.2031 20.005C93.3331 20.2043 93.5064 20.3387 93.7231 20.408C93.9484 20.4687 94.2171 20.499 94.5291 20.499C94.7111 20.499 94.8411 20.551 94.9191 20.655C95.0057 20.7503 95.0491 20.8673 95.0491 21.006C95.0491 21.1447 94.9884 21.2747 94.8671 21.396C94.7457 21.5087 94.5897 21.565 94.3991 21.565ZM89.4981 18.432C89.4981 18.6313 89.5761 18.796 89.7321 18.926C89.8967 19.056 90.1047 19.1513 90.3561 19.212C90.6074 19.2727 90.8717 19.303 91.1491 19.303C91.4351 19.303 91.6994 19.2813 91.9421 19.238L91.8251 16.859C91.3311 16.911 90.9107 17.0237 90.5641 17.197C90.2174 17.3617 89.9531 17.5567 89.7711 17.782C89.5891 17.9987 89.4981 18.2153 89.4981 18.432ZM92.1631 13.297C91.9811 13.297 91.8251 13.2363 91.6951 13.115C91.5737 12.985 91.5131 12.8333 91.5131 12.66C91.5131 12.4867 91.5737 12.335 91.6951 12.205C91.8251 12.075 91.9811 12.01 92.1631 12.01C92.3364 12.01 92.4837 12.075 92.6051 12.205C92.7351 12.335 92.8001 12.4867 92.8001 12.66C92.8001 12.8333 92.7351 12.985 92.6051 13.115C92.4837 13.2363 92.3364 13.297 92.1631 13.297ZM90.3821 13.297C90.2001 13.297 90.0441 13.2363 89.9141 13.115C89.7927 12.985 89.7321 12.8333 89.7321 12.66C89.7321 12.4867 89.7927 12.335 89.9141 12.205C90.0441 12.075 90.2001 12.01 90.3821 12.01C90.5554 12.01 90.7027 12.075 90.8241 12.205C90.9541 12.335 91.0191 12.4867 91.0191 12.66C91.0191 12.8333 90.9541 12.985 90.8241 13.115C90.7027 13.2363 90.5554 13.297 90.3821 13.297ZM94.4033 21.565L94.5333 20.499C94.8193 20.499 95.1443 20.499 95.5083 20.499C95.881 20.4903 96.2407 20.473 96.5873 20.447C96.934 20.4123 97.207 20.3603 97.4063 20.291C97.6837 20.1957 97.9047 20.0743 98.0693 19.927C98.2427 19.771 98.3727 19.5717 98.4593 19.329C98.3033 19.381 98.1343 19.42 97.9523 19.446C97.779 19.4633 97.6057 19.472 97.4323 19.472C96.765 19.472 96.2537 19.316 95.8983 19.004C95.543 18.692 95.3653 18.2977 95.3653 17.821C95.3653 17.4917 95.4173 17.1623 95.5213 16.833C95.6253 16.495 95.7727 16.1873 95.9633 15.91C96.154 15.6327 96.3837 15.4117 96.6523 15.247C96.921 15.0737 97.22 14.987 97.5493 14.987C98.0173 14.987 98.403 15.143 98.7063 15.455C99.0183 15.7583 99.248 16.1527 99.3953 16.638C99.5513 17.1233 99.6293 17.639 99.6293 18.185C99.6293 18.835 99.5167 19.394 99.2913 19.862C99.0747 20.3213 98.7107 20.7027 98.1993 21.006C97.9307 21.162 97.5927 21.2833 97.1853 21.37C96.7867 21.448 96.349 21.5 95.8723 21.526C95.3957 21.552 94.906 21.565 94.4033 21.565ZM96.3923 17.561C96.3923 17.8297 96.479 18.0463 96.6523 18.211C96.8257 18.367 97.1247 18.445 97.5493 18.445C97.922 18.445 98.2773 18.393 98.6153 18.289C98.6153 18.237 98.6153 18.1763 98.6153 18.107C98.6153 17.7517 98.5677 17.418 98.4723 17.106C98.377 16.7853 98.2427 16.5297 98.0693 16.339C97.896 16.1483 97.688 16.053 97.4453 16.053C97.2373 16.053 97.0553 16.131 96.8993 16.287C96.7433 16.4343 96.6177 16.625 96.5223 16.859C96.4357 17.093 96.3923 17.327 96.3923 17.561ZM97.3023 13.648C97.1203 13.648 96.9643 13.5873 96.8343 13.466C96.713 13.336 96.6523 13.1843 96.6523 13.011C96.6523 12.8377 96.713 12.686 96.8343 12.556C96.9643 12.426 97.1203 12.361 97.3023 12.361C97.4757 12.361 97.623 12.426 97.7443 12.556C97.8743 12.686 97.9393 12.8377 97.9393 13.011C97.9393 13.1843 97.8743 13.336 97.7443 13.466C97.623 13.5873 97.4757 13.648 97.3023 13.648ZM104.001 21.565C103.299 21.565 102.766 21.487 102.402 21.331C102.038 21.175 101.786 20.9323 101.648 20.603C101.509 20.2737 101.431 19.849 101.414 19.329L101.154 12.218H102.22L102.48 18.913C102.497 19.3377 102.536 19.667 102.597 19.901C102.666 20.1263 102.813 20.2823 103.039 20.369C103.273 20.4557 103.637 20.499 104.131 20.499C104.313 20.499 104.443 20.551 104.521 20.655C104.607 20.7503 104.651 20.8673 104.651 21.006C104.651 21.1447 104.59 21.2747 104.469 21.396C104.347 21.5087 104.191 21.565 104.001 21.565ZM110.293 21.734C109.366 21.734 108.616 21.6907 108.044 21.604C107.481 21.526 107.052 21.4047 106.757 21.24C106.462 21.0667 106.259 20.85 106.146 20.59C105.938 20.8933 105.717 21.1143 105.483 21.253C105.258 21.383 105.019 21.4653 104.768 21.5C104.525 21.5433 104.27 21.565 104.001 21.565L104.131 20.499C104.538 20.499 104.85 20.421 105.067 20.265C105.284 20.1003 105.453 19.8317 105.574 19.459C105.704 19.0863 105.847 18.575 106.003 17.925L106.952 18.172C106.865 18.4753 106.796 18.7527 106.744 19.004C106.701 19.2467 106.679 19.4243 106.679 19.537C106.679 19.7797 106.744 19.9833 106.874 20.148C107.013 20.304 107.294 20.421 107.719 20.499C107.996 20.0657 108.326 19.628 108.707 19.186C109.088 18.7353 109.504 18.3237 109.955 17.951C110.406 17.5783 110.874 17.2793 111.359 17.054C111.853 16.82 112.351 16.703 112.854 16.703C113.331 16.703 113.738 16.8027 114.076 17.002C114.423 17.1927 114.687 17.4527 114.869 17.782C115.06 18.1113 115.155 18.484 115.155 18.9C115.155 19.4113 115.003 19.8837 114.7 20.317C114.397 20.7417 113.89 21.084 113.179 21.344C112.477 21.604 111.515 21.734 110.293 21.734ZM112.776 17.769C112.386 17.769 111.992 17.8687 111.593 18.068C111.203 18.2587 110.83 18.5057 110.475 18.809C110.12 19.1123 109.799 19.4287 109.513 19.758C109.227 20.0787 108.989 20.369 108.798 20.629C109.257 20.655 109.834 20.668 110.527 20.668C111.671 20.668 112.559 20.5293 113.192 20.252C113.833 19.966 114.154 19.55 114.154 19.004C114.154 18.8133 114.106 18.627 114.011 18.445C113.916 18.2543 113.764 18.094 113.556 17.964C113.357 17.834 113.097 17.769 112.776 17.769ZM112.477 15.364C112.295 15.364 112.139 15.3033 112.009 15.182C111.888 15.052 111.827 14.9003 111.827 14.727C111.827 14.5537 111.888 14.402 112.009 14.272C112.139 14.142 112.295 14.077 112.477 14.077C112.65 14.077 112.798 14.142 112.919 14.272C113.049 14.402 113.114 14.5537 113.114 14.727C113.114 14.9003 113.049 15.052 112.919 15.182C112.798 15.3033 112.65 15.364 112.477 15.364ZM120.853 14.532C120.853 14.3413 120.84 14.1117 120.814 13.843C120.788 13.5743 120.758 13.3057 120.723 13.037C120.688 12.7683 120.654 12.5387 120.619 12.348L121.737 12.218C121.763 12.3913 121.789 12.621 121.815 12.907C121.841 13.1843 121.863 13.466 121.88 13.752C121.906 14.0293 121.919 14.2547 121.919 14.428C121.919 14.974 121.867 15.507 121.763 16.027C121.668 16.5383 121.507 17.0367 121.282 17.522C121.689 17.9467 121.988 18.3367 122.179 18.692C122.37 19.0473 122.465 19.3983 122.465 19.745C122.465 19.9963 122.404 20.2607 122.283 20.538C122.162 20.8067 121.941 21.0363 121.62 21.227C121.299 21.409 120.836 21.5 120.229 21.5H117.239V20.447C118.539 19.5197 119.466 18.5967 120.021 17.678C119.536 17.2447 118.964 16.781 118.305 16.287C117.655 15.793 116.975 15.2903 116.264 14.779L116.875 13.921C117.646 14.493 118.331 15.013 118.929 15.481C119.527 15.9403 120.043 16.365 120.476 16.755C120.606 16.4083 120.701 16.053 120.762 15.689C120.823 15.3163 120.853 14.9307 120.853 14.532ZM118.786 20.434H120.424C120.866 20.434 121.156 20.356 121.295 20.2C121.434 20.0353 121.503 19.849 121.503 19.641C121.503 19.485 121.438 19.303 121.308 19.095C121.187 18.887 121.013 18.6617 120.788 18.419C120.545 18.783 120.255 19.134 119.917 19.472C119.588 19.81 119.211 20.1307 118.786 20.434ZM117.005 25.439L116.849 24.737C116.979 24.711 117.092 24.685 117.187 24.659C117.282 24.633 117.373 24.6113 117.46 24.594C117.295 24.4813 117.152 24.334 117.031 24.152C116.91 23.97 116.849 23.7707 116.849 23.554C116.849 23.164 116.983 22.8693 117.252 22.67C117.529 22.4707 117.841 22.371 118.188 22.371C118.387 22.371 118.591 22.4057 118.799 22.475L118.695 23.125C118.608 23.1077 118.522 23.0903 118.435 23.073C118.357 23.0557 118.275 23.047 118.188 23.047C117.763 23.047 117.551 23.203 117.551 23.515C117.551 23.7403 117.633 23.9267 117.798 24.074C117.971 24.2213 118.14 24.3167 118.305 24.36C118.634 24.2647 118.925 24.1693 119.176 24.074L119.384 24.737C119.176 24.815 118.929 24.8973 118.643 24.984C118.366 25.0707 118.08 25.153 117.785 25.231C117.499 25.3177 117.239 25.387 117.005 25.439ZM124.507 21.5L124.247 12.218H125.3L125.56 21.5H124.507Z" fill="white"/>
<path d="M76.14 41.772C75.2673 41.772 74.4457 41.6133 73.675 41.296C72.9157 40.9787 72.2413 40.5367 71.652 39.97C71.0627 39.392 70.598 38.7177 70.258 37.947C69.9293 37.165 69.765 36.3207 69.765 35.414C69.765 34.5073 69.9293 33.6687 70.258 32.898C70.598 32.116 71.057 31.4417 71.635 30.875C72.2243 30.297 72.9043 29.8493 73.675 29.532C74.4457 29.2147 75.2673 29.056 76.14 29.056C77.0693 29.056 77.925 29.2203 78.707 29.549C79.5003 29.8777 80.1633 30.3367 80.696 30.926L79.404 32.201C79.0073 31.759 78.5313 31.419 77.976 31.181C77.432 30.943 76.82 30.824 76.14 30.824C75.3353 30.824 74.593 31.0167 73.913 31.402C73.233 31.776 72.6833 32.3087 72.264 33C71.856 33.68 71.652 34.4847 71.652 35.414C71.652 36.3433 71.8617 37.1537 72.281 37.845C72.7003 38.525 73.25 39.0577 73.93 39.443C74.61 39.817 75.3523 40.004 76.157 40.004C76.8937 40.004 77.5623 39.868 78.163 39.596C78.7637 39.3127 79.2453 38.916 79.608 38.406C79.982 37.896 80.2087 37.284 80.288 36.57H76.123V34.921H82.039C82.107 35.227 82.141 35.55 82.141 35.89V35.907C82.141 37.0857 81.8803 38.117 81.359 39.001C80.849 39.8737 80.1407 40.5537 79.234 41.041C78.3273 41.5283 77.296 41.772 76.14 41.772ZM87.6149 41.772C86.7195 41.772 85.9319 41.568 85.2519 41.16C84.5719 40.752 84.0392 40.2023 83.6539 39.511C83.2685 38.8197 83.0759 38.0377 83.0759 37.165C83.0759 36.3037 83.2685 35.5273 83.6539 34.836C84.0392 34.1333 84.5719 33.578 85.2519 33.17C85.9319 32.762 86.7195 32.558 87.6149 32.558C88.4989 32.558 89.2809 32.762 89.9609 33.17C90.6409 33.578 91.1735 34.1333 91.5589 34.836C91.9442 35.5273 92.1369 36.3037 92.1369 37.165C92.1369 38.0377 91.9442 38.8197 91.5589 39.511C91.1735 40.2023 90.6409 40.752 89.9609 41.16C89.2809 41.568 88.4989 41.772 87.6149 41.772ZM87.6149 40.089C88.0909 40.089 88.5329 39.9757 88.9409 39.749C89.3489 39.511 89.6775 39.1767 89.9269 38.746C90.1875 38.304 90.3179 37.777 90.3179 37.165C90.3179 36.553 90.1875 36.0317 89.9269 35.601C89.6775 35.159 89.3489 34.8247 88.9409 34.598C88.5329 34.36 88.0909 34.241 87.6149 34.241C87.1389 34.241 86.6912 34.36 86.2719 34.598C85.8639 34.8247 85.5295 35.159 85.2689 35.601C85.0195 36.0317 84.8949 36.553 84.8949 37.165C84.8949 37.777 85.0195 38.304 85.2689 38.746C85.5295 39.1767 85.8639 39.511 86.2719 39.749C86.6912 39.9757 87.1389 40.089 87.6149 40.089ZM97.9078 41.772C97.0125 41.772 96.2248 41.568 95.5448 41.16C94.8648 40.752 94.3322 40.2023 93.9468 39.511C93.5615 38.8197 93.3688 38.0377 93.3688 37.165C93.3688 36.3037 93.5615 35.5273 93.9468 34.836C94.3322 34.1333 94.8648 33.578 95.5448 33.17C96.2248 32.762 97.0125 32.558 97.9078 32.558C98.7918 32.558 99.5738 32.762 100.254 33.17C100.934 33.578 101.467 34.1333 101.852 34.836C102.237 35.5273 102.43 36.3037 102.43 37.165C102.43 38.0377 102.237 38.8197 101.852 39.511C101.467 40.2023 100.934 40.752 100.254 41.16C99.5738 41.568 98.7918 41.772 97.9078 41.772ZM97.9078 40.089C98.3838 40.089 98.8258 39.9757 99.2338 39.749C99.6418 39.511 99.9705 39.1767 100.22 38.746C100.481 38.304 100.611 37.777 100.611 37.165C100.611 36.553 100.481 36.0317 100.22 35.601C99.9705 35.159 99.6418 34.8247 99.2338 34.598C98.8258 34.36 98.3838 34.241 97.9078 34.241C97.4318 34.241 96.9842 34.36 96.5648 34.598C96.1568 34.8247 95.8225 35.159 95.5618 35.601C95.3125 36.0317 95.1878 36.553 95.1878 37.165C95.1878 37.777 95.3125 38.304 95.5618 38.746C95.8225 39.1767 96.1568 39.511 96.5648 39.749C96.9842 39.9757 97.4318 40.089 97.9078 40.089ZM108.031 45.444C107.271 45.444 106.614 45.3193 106.059 45.07C105.515 44.832 105.073 44.5203 104.733 44.135C104.393 43.761 104.149 43.3757 104.002 42.979L105.702 42.265C105.883 42.7183 106.172 43.0867 106.569 43.37C106.977 43.6647 107.464 43.812 108.031 43.812C108.824 43.812 109.447 43.574 109.901 43.098C110.365 42.622 110.598 41.9477 110.598 41.075V40.242H110.496C110.224 40.65 109.844 40.9787 109.357 41.228C108.881 41.466 108.337 41.585 107.725 41.585C106.988 41.585 106.314 41.398 105.702 41.024C105.09 40.65 104.597 40.1287 104.223 39.46C103.849 38.78 103.662 37.9867 103.662 37.08C103.662 36.162 103.849 35.3687 104.223 34.7C104.597 34.02 105.09 33.493 105.702 33.119C106.314 32.745 106.988 32.558 107.725 32.558C108.337 32.558 108.881 32.6827 109.357 32.932C109.844 33.1813 110.224 33.51 110.496 33.918H110.598V32.83H112.349V41.041C112.349 41.9817 112.162 42.7807 111.788 43.438C111.425 44.0953 110.921 44.594 110.275 44.934C109.629 45.274 108.881 45.444 108.031 45.444ZM108.048 39.919C108.501 39.919 108.92 39.8113 109.306 39.596C109.691 39.3693 110.003 39.0463 110.241 38.627C110.479 38.1963 110.598 37.6807 110.598 37.08C110.598 36.4567 110.479 35.9353 110.241 35.516C110.003 35.0853 109.691 34.7623 109.306 34.547C108.92 34.3317 108.501 34.224 108.048 34.224C107.594 34.224 107.169 34.3373 106.773 34.564C106.387 34.7793 106.076 35.0967 105.838 35.516C105.6 35.9353 105.481 36.4567 105.481 37.08C105.481 37.692 105.6 38.2133 105.838 38.644C106.076 39.0633 106.387 39.3807 106.773 39.596C107.169 39.8113 107.594 39.919 108.048 39.919ZM114.514 41.5V29.328H116.35V41.5H114.514ZM122.392 41.772C121.542 41.772 120.783 41.5737 120.114 41.177C119.446 40.7803 118.919 40.2363 118.533 39.545C118.159 38.8537 117.972 38.066 117.972 37.182C117.972 36.3547 118.154 35.5897 118.516 34.887C118.879 34.1843 119.383 33.6233 120.029 33.204C120.687 32.7733 121.44 32.558 122.29 32.558C123.186 32.558 123.945 32.7507 124.568 33.136C125.203 33.5213 125.685 34.0483 126.013 34.717C126.342 35.3857 126.506 36.1393 126.506 36.978C126.506 37.1027 126.501 37.216 126.489 37.318C126.489 37.42 126.484 37.4993 126.472 37.556H119.774C119.865 38.4173 120.165 39.0633 120.675 39.494C121.197 39.9247 121.786 40.14 122.443 40.14C123.033 40.14 123.52 40.0097 123.905 39.749C124.291 39.477 124.597 39.1427 124.823 38.746L126.336 39.477C125.962 40.157 125.452 40.7123 124.806 41.143C124.16 41.5623 123.356 41.772 122.392 41.772ZM122.307 34.122C121.695 34.122 121.174 34.309 120.743 34.683C120.313 35.057 120.024 35.5557 119.876 36.179H124.687C124.665 35.8843 124.568 35.5783 124.398 35.261C124.228 34.9437 123.968 34.6773 123.616 34.462C123.276 34.2353 122.84 34.122 122.307 34.122ZM139.368 41.585C138.632 41.585 137.997 41.4603 137.464 41.211C136.943 40.9617 136.575 40.5027 136.359 39.834C135.747 39.9813 135.158 40.0437 134.591 40.021C134.036 39.987 133.532 39.8793 133.078 39.698C132.625 39.5053 132.268 39.2447 132.007 38.916C131.747 38.576 131.616 38.1737 131.616 37.709C131.616 37.097 131.809 36.5417 132.194 36.043C132.58 35.533 133.101 35.1023 133.758 34.751C134.416 34.3997 135.141 34.156 135.934 34.02L135.883 32.728H137.26L137.532 38.338C137.555 38.8707 137.646 39.273 137.804 39.545C137.974 39.8057 138.201 39.9813 138.484 40.072C138.779 40.1513 139.13 40.191 139.538 40.191C139.776 40.191 139.946 40.259 140.048 40.395C140.162 40.5197 140.218 40.6727 140.218 40.854C140.218 41.0353 140.139 41.2053 139.98 41.364C139.822 41.5113 139.618 41.585 139.368 41.585ZM132.959 37.488C132.959 37.7487 133.061 37.964 133.265 38.134C133.481 38.304 133.753 38.4287 134.081 38.508C134.41 38.5873 134.756 38.627 135.118 38.627C135.492 38.627 135.838 38.5987 136.155 38.542L136.002 35.431C135.356 35.499 134.807 35.6463 134.353 35.873C133.9 36.0883 133.554 36.3433 133.316 36.638C133.078 36.9213 132.959 37.2047 132.959 37.488ZM136.444 30.773C136.206 30.773 136.002 30.6937 135.832 30.535C135.674 30.365 135.594 30.1667 135.594 29.94C135.594 29.7133 135.674 29.515 135.832 29.345C136.002 29.175 136.206 29.09 136.444 29.09C136.671 29.09 136.864 29.175 137.022 29.345C137.192 29.515 137.277 29.7133 137.277 29.94C137.277 30.1667 137.192 30.365 137.022 30.535C136.864 30.6937 136.671 30.773 136.444 30.773ZM134.115 30.773C133.877 30.773 133.673 30.6937 133.503 30.535C133.345 30.365 133.265 30.1667 133.265 29.94C133.265 29.7133 133.345 29.515 133.503 29.345C133.673 29.175 133.877 29.09 134.115 29.09C134.342 29.09 134.535 29.175 134.693 29.345C134.863 29.515 134.948 29.7133 134.948 29.94C134.948 30.1667 134.863 30.365 134.693 30.535C134.535 30.6937 134.342 30.773 134.115 30.773ZM139.374 41.585L139.544 40.191H140.394C140.575 39.9077 140.768 39.63 140.972 39.358L140.649 29.362H142.026L142.332 37.76C143.023 37.0573 143.777 36.4623 144.593 35.975C145.42 35.4763 146.259 35.227 147.109 35.227C147.732 35.227 148.265 35.3573 148.707 35.618C149.16 35.8673 149.506 36.2073 149.744 36.638C149.993 37.0687 150.118 37.556 150.118 38.1C150.118 38.6327 149.925 39.171 149.54 39.715C149.155 40.2477 148.492 40.667 147.551 40.973C146.826 41.211 145.953 41.3753 144.933 41.466C143.913 41.5453 142.655 41.585 141.159 41.585H139.374ZM147.007 36.621C146.52 36.621 146.027 36.74 145.528 36.978C145.041 37.216 144.57 37.522 144.117 37.896C143.664 38.2587 143.25 38.6497 142.876 39.069C142.502 39.477 142.19 39.851 141.941 40.191H143.097C145.069 40.191 146.514 40.021 147.432 39.681C148.35 39.341 148.809 38.8083 148.809 38.083C148.809 37.8903 148.747 37.6807 148.622 37.454C148.497 37.2273 148.299 37.0347 148.027 36.876C147.766 36.706 147.426 36.621 147.007 36.621ZM151.444 41.585C151.149 41.585 150.775 41.5567 150.322 41.5C149.88 41.432 149.427 41.3187 148.962 41.16C148.509 41.0013 148.123 40.7803 147.806 40.497L149.2 39.8C149.597 39.9587 150.005 40.0663 150.424 40.123C150.855 40.1683 151.251 40.191 151.614 40.191C151.852 40.191 152.022 40.259 152.124 40.395C152.237 40.5197 152.294 40.6727 152.294 40.854C152.294 41.0353 152.215 41.2053 152.056 41.364C151.897 41.5113 151.693 41.585 151.444 41.585ZM146.276 33.476C146.038 33.476 145.834 33.3967 145.664 33.238C145.505 33.068 145.426 32.8697 145.426 32.643C145.426 32.4163 145.505 32.218 145.664 32.048C145.834 31.878 146.038 31.793 146.276 31.793C146.503 31.793 146.695 31.878 146.854 32.048C147.024 32.218 147.109 32.4163 147.109 32.643C147.109 32.8697 147.024 33.068 146.854 33.238C146.695 33.3967 146.503 33.476 146.276 33.476ZM151.443 41.585L151.613 40.191C151.999 40.191 152.395 40.1853 152.803 40.174C153.223 40.1627 153.625 40.1343 154.01 40.089C153.738 39.8397 153.472 39.5167 153.211 39.12C152.951 38.7233 152.82 38.2417 152.82 37.675C152.82 37.0743 152.962 36.5303 153.245 36.043C153.529 35.5443 153.891 35.1533 154.333 34.87C154.787 34.5867 155.274 34.445 155.795 34.445C156.351 34.445 156.838 34.598 157.257 34.904C157.677 35.21 158 35.601 158.226 36.077C158.464 36.5417 158.583 37.029 158.583 37.539C158.583 38.0717 158.476 38.5477 158.26 38.967C158.045 39.3863 157.756 39.7547 157.393 40.072C157.847 40.106 158.311 40.1343 158.787 40.157C159.263 40.1797 159.677 40.191 160.028 40.191C160.266 40.191 160.436 40.259 160.538 40.395C160.652 40.5197 160.708 40.6727 160.708 40.854C160.708 41.0353 160.629 41.2053 160.47 41.364C160.312 41.5113 160.108 41.585 159.858 41.585C159.167 41.585 158.447 41.534 157.699 41.432C156.951 41.3187 156.294 41.1827 155.727 41.024C155.546 41.092 155.359 41.1543 155.166 41.211C154.645 41.3583 154.05 41.4547 153.381 41.5C152.713 41.5567 152.067 41.585 151.443 41.585ZM154.214 37.709C154.214 38.151 154.35 38.542 154.622 38.882C154.894 39.2107 155.2 39.477 155.54 39.681C156.005 39.477 156.396 39.205 156.713 38.865C157.031 38.525 157.189 38.117 157.189 37.641C157.189 37.3803 157.127 37.114 157.002 36.842C156.878 36.5587 156.708 36.3207 156.492 36.128C156.277 35.9353 156.028 35.839 155.744 35.839C155.472 35.839 155.217 35.9353 154.979 36.128C154.753 36.3093 154.566 36.5417 154.418 36.825C154.282 37.1083 154.214 37.403 154.214 37.709ZM155.642 32.694C155.404 32.694 155.2 32.6147 155.03 32.456C154.872 32.286 154.792 32.0877 154.792 31.861C154.792 31.6343 154.872 31.436 155.03 31.266C155.2 31.096 155.404 31.011 155.642 31.011C155.869 31.011 156.062 31.096 156.22 31.266C156.39 31.436 156.475 31.6343 156.475 31.861C156.475 32.0877 156.39 32.286 156.22 32.456C156.062 32.6147 155.869 32.694 155.642 32.694ZM159.86 41.585L160.013 40.191C161.181 40.191 162.314 40.021 163.413 39.681C164.513 39.3297 165.516 38.8367 166.422 38.202C165.98 37.8167 165.436 37.505 164.79 37.267C164.156 37.029 163.453 36.91 162.682 36.91C162.399 36.91 162.15 36.927 161.934 36.961C161.719 36.9837 161.458 37.029 161.152 37.097L160.88 35.805C161.515 35.6123 162.116 35.516 162.682 35.516C163.272 35.516 163.804 35.5897 164.28 35.737C164.756 35.873 165.187 36.043 165.572 36.247C165.969 36.451 166.337 36.655 166.677 36.859C167.029 37.063 167.369 37.2387 167.697 37.386C168.026 37.522 168.366 37.59 168.717 37.59H169.074L169.193 38.814C168.842 38.814 168.502 38.8537 168.173 38.933C168.389 39.443 168.695 39.783 169.091 39.953C169.488 40.1117 170.077 40.191 170.859 40.191C171.097 40.191 171.267 40.259 171.369 40.395C171.483 40.5197 171.539 40.6727 171.539 40.854C171.539 41.0353 171.46 41.2053 171.301 41.364C171.143 41.5113 170.939 41.585 170.689 41.585C170.077 41.585 169.528 41.534 169.04 41.432C168.564 41.3187 168.156 41.1033 167.816 40.786C167.476 40.4573 167.227 39.97 167.068 39.324C166.638 39.528 166.196 39.7603 165.742 40.021C165.3 40.2703 164.807 40.514 164.263 40.752C163.719 40.99 163.09 41.1883 162.376 41.347C161.662 41.5057 160.824 41.585 159.86 41.585ZM170.685 41.585L170.855 40.191C171.172 40.191 171.438 40.123 171.654 39.987C171.869 39.851 172.079 39.63 172.283 39.324C172.487 39.0067 172.708 38.576 172.946 38.032C173.274 37.3067 173.597 36.757 173.915 36.383C174.243 36.009 174.566 35.754 174.884 35.618C175.212 35.482 175.535 35.414 175.853 35.414C176.238 35.414 176.595 35.516 176.924 35.72C177.252 35.9127 177.541 36.1733 177.791 36.502C178.04 36.8307 178.233 37.1933 178.369 37.59C178.516 37.9753 178.59 38.3607 178.59 38.746C178.59 39.426 178.471 39.97 178.233 40.378C177.995 40.7747 177.689 41.0637 177.315 41.245C176.952 41.415 176.572 41.5 176.176 41.5C175.847 41.5 175.428 41.4433 174.918 41.33C174.419 41.2167 173.79 40.922 173.031 40.446C172.668 40.9673 172.305 41.2903 171.943 41.415C171.58 41.5283 171.161 41.585 170.685 41.585ZM173.864 38.933C173.796 39.0803 173.733 39.222 173.677 39.358C174.164 39.6413 174.606 39.8397 175.003 39.953C175.411 40.055 175.751 40.106 176.023 40.106C176.51 40.106 176.856 39.9983 177.06 39.783C177.264 39.5677 177.366 39.2843 177.366 38.933C177.366 38.6043 177.286 38.2757 177.128 37.947C176.969 37.6183 176.765 37.3463 176.516 37.131C176.278 36.9157 176.023 36.808 175.751 36.808C175.547 36.808 175.348 36.8647 175.156 36.978C174.963 37.0913 174.765 37.301 174.561 37.607C174.357 37.913 174.124 38.355 173.864 38.933Z" fill="white"/>
<rect x="0.5" y="0.5" width="198" height="54" rx="27" stroke="#747775"/>
<defs>
<linearGradient id="paint0_linear_1819_23921" x1="37.2843" y1="34.0448" x2="18.7823" y2="55.7227" gradientUnits="userSpaceOnUse">
<stop stop-color="#4285F4"/>
<stop offset="1" stop-color="#1B74E8"/>
</linearGradient>
</defs>
</svg>
