<svg width="180" height="55" viewBox="0 0 180 55" fill="none" xmlns="http://www.w3.org/2000/svg">
<rect x="0.5" y="0.5" width="179" height="54" rx="27" fill="#1F1F1F"/>
<path d="M57 23.791H21V18.1456C21 15.0809 23.6422 12.5001 26.7798 12.5001H51.2202C54.3578 12.5001 57 15.0809 57 18.1456V23.791Z" fill="#34A853"/>
<path d="M57 29H21V23C21 19.7429 23.6422 17 26.7798 17H51.2202C54.3578 17 57 19.7429 57 23V29Z" fill="#FBBC04"/>
<path d="M57 34H21V28C21 24.7429 23.6422 22 26.7798 22H51.2202C54.3578 22 57 24.7429 57 28V34Z" fill="#EA4335"/>
<path d="M21 25.2409L43.8493 30.4025C46.4795 31.0477 49.4384 30.4025 51.5753 28.7895L57 24.9183V37.0157C57 40.0804 54.3699 42.4999 51.2466 42.4999H26.7534C23.6301 42.4999 21 40.0804 21 37.0157V25.2409Z" fill="url(#paint0_linear_1819_24795)"/>
<path d="M74.46 21.708C73.7927 21.708 73.1643 21.5867 72.575 21.344C71.9943 21.1013 71.4787 20.7633 71.028 20.33C70.5773 19.888 70.222 19.3723 69.962 18.783C69.7107 18.185 69.585 17.5393 69.585 16.846C69.585 16.1527 69.7107 15.5113 69.962 14.922C70.222 14.324 70.573 13.8083 71.015 13.375C71.4657 12.933 71.9857 12.5907 72.575 12.348C73.1643 12.1053 73.7927 11.984 74.46 11.984C75.1707 11.984 75.825 12.1097 76.423 12.361C77.0297 12.6123 77.5367 12.9633 77.944 13.414L76.956 14.389C76.6527 14.051 76.2887 13.791 75.864 13.609C75.448 13.427 74.98 13.336 74.46 13.336C73.8447 13.336 73.277 13.4833 72.757 13.778C72.237 14.064 71.8167 14.4713 71.496 15C71.184 15.52 71.028 16.1353 71.028 16.846C71.028 17.5567 71.1883 18.1763 71.509 18.705C71.8297 19.225 72.25 19.6323 72.77 19.927C73.29 20.213 73.8577 20.356 74.473 20.356C75.0363 20.356 75.5477 20.252 76.007 20.044C76.4663 19.8273 76.8347 19.524 77.112 19.134C77.398 18.744 77.5713 18.276 77.632 17.73H74.447V16.469H78.971C79.023 16.703 79.049 16.95 79.049 17.21V17.223C79.049 18.1243 78.8497 18.913 78.451 19.589C78.061 20.2563 77.5193 20.7763 76.826 21.149C76.1327 21.5217 75.344 21.708 74.46 21.708ZM83.2349 21.708C82.5502 21.708 81.9479 21.552 81.4279 21.24C80.9079 20.928 80.5006 20.5077 80.2059 19.979C79.9112 19.4503 79.7639 18.8523 79.7639 18.185C79.7639 17.5263 79.9112 16.9327 80.2059 16.404C80.5006 15.8667 80.9079 15.442 81.4279 15.13C81.9479 14.818 82.5502 14.662 83.2349 14.662C83.9109 14.662 84.5089 14.818 85.0289 15.13C85.5489 15.442 85.9562 15.8667 86.2509 16.404C86.5456 16.9327 86.6929 17.5263 86.6929 18.185C86.6929 18.8523 86.5456 19.4503 86.2509 19.979C85.9562 20.5077 85.5489 20.928 85.0289 21.24C84.5089 21.552 83.9109 21.708 83.2349 21.708ZM83.2349 20.421C83.5989 20.421 83.9369 20.3343 84.2489 20.161C84.5609 19.979 84.8122 19.7233 85.0029 19.394C85.2022 19.056 85.3019 18.653 85.3019 18.185C85.3019 17.717 85.2022 17.3183 85.0029 16.989C84.8122 16.651 84.5609 16.3953 84.2489 16.222C83.9369 16.04 83.5989 15.949 83.2349 15.949C82.8709 15.949 82.5286 16.04 82.2079 16.222C81.8959 16.3953 81.6402 16.651 81.4409 16.989C81.2502 17.3183 81.1549 17.717 81.1549 18.185C81.1549 18.653 81.2502 19.056 81.4409 19.394C81.6402 19.7233 81.8959 19.979 82.2079 20.161C82.5286 20.3343 82.8709 20.421 83.2349 20.421ZM91.106 21.708C90.4213 21.708 89.819 21.552 89.299 21.24C88.779 20.928 88.3717 20.5077 88.077 19.979C87.7823 19.4503 87.635 18.8523 87.635 18.185C87.635 17.5263 87.7823 16.9327 88.077 16.404C88.3717 15.8667 88.779 15.442 89.299 15.13C89.819 14.818 90.4213 14.662 91.106 14.662C91.782 14.662 92.38 14.818 92.9 15.13C93.42 15.442 93.8273 15.8667 94.122 16.404C94.4167 16.9327 94.564 17.5263 94.564 18.185C94.564 18.8523 94.4167 19.4503 94.122 19.979C93.8273 20.5077 93.42 20.928 92.9 21.24C92.38 21.552 91.782 21.708 91.106 21.708ZM91.106 20.421C91.47 20.421 91.808 20.3343 92.12 20.161C92.432 19.979 92.6833 19.7233 92.874 19.394C93.0733 19.056 93.173 18.653 93.173 18.185C93.173 17.717 93.0733 17.3183 92.874 16.989C92.6833 16.651 92.432 16.3953 92.12 16.222C91.808 16.04 91.47 15.949 91.106 15.949C90.742 15.949 90.3997 16.04 90.079 16.222C89.767 16.3953 89.5113 16.651 89.312 16.989C89.1213 17.3183 89.026 17.717 89.026 18.185C89.026 18.653 89.1213 19.056 89.312 19.394C89.5113 19.7233 89.767 19.979 90.079 20.161C90.3997 20.3343 90.742 20.421 91.106 20.421ZM98.8471 24.516C98.2664 24.516 97.7638 24.4207 97.3391 24.23C96.9231 24.048 96.5851 23.8097 96.3251 23.515C96.0651 23.229 95.8788 22.9343 95.7661 22.631L97.0661 22.085C97.2048 22.4317 97.4258 22.7133 97.7291 22.93C98.0411 23.1553 98.4138 23.268 98.8471 23.268C99.4538 23.268 99.9304 23.086 100.277 22.722C100.632 22.358 100.81 21.8423 100.81 21.175V20.538H100.732C100.524 20.85 100.234 21.1013 99.8611 21.292C99.4971 21.474 99.0811 21.565 98.6131 21.565C98.0498 21.565 97.5341 21.422 97.0661 21.136C96.5981 20.85 96.2211 20.4513 95.9351 19.94C95.6491 19.42 95.5061 18.8133 95.5061 18.12C95.5061 17.418 95.6491 16.8113 95.9351 16.3C96.2211 15.78 96.5981 15.377 97.0661 15.091C97.5341 14.805 98.0498 14.662 98.6131 14.662C99.0811 14.662 99.4971 14.7573 99.8611 14.948C100.234 15.1387 100.524 15.39 100.732 15.702H100.81V14.87H102.149V21.149C102.149 21.8683 102.006 22.4793 101.72 22.982C101.443 23.4847 101.057 23.866 100.563 24.126C100.069 24.386 99.4971 24.516 98.8471 24.516ZM98.8601 20.291C99.2068 20.291 99.5274 20.2087 99.8221 20.044C100.117 19.8707 100.355 19.6237 100.537 19.303C100.719 18.9737 100.81 18.5793 100.81 18.12C100.81 17.6433 100.719 17.2447 100.537 16.924C100.355 16.5947 100.117 16.3477 99.8221 16.183C99.5274 16.0183 99.2068 15.936 98.8601 15.936C98.5134 15.936 98.1884 16.0227 97.8851 16.196C97.5904 16.3607 97.3521 16.6033 97.1701 16.924C96.9881 17.2447 96.8971 17.6433 96.8971 18.12C96.8971 18.588 96.9881 18.9867 97.1701 19.316C97.3521 19.6367 97.5904 19.8793 97.8851 20.044C98.1884 20.2087 98.5134 20.291 98.8601 20.291ZM103.805 21.5V12.192H105.209V21.5H103.805ZM109.829 21.708C109.179 21.708 108.599 21.5563 108.087 21.253C107.576 20.9497 107.173 20.5337 106.878 20.005C106.592 19.4763 106.449 18.874 106.449 18.198C106.449 17.5653 106.588 16.9803 106.865 16.443C107.143 15.9057 107.528 15.4767 108.022 15.156C108.525 14.8267 109.101 14.662 109.751 14.662C110.436 14.662 111.017 14.8093 111.493 15.104C111.979 15.3987 112.347 15.8017 112.598 16.313C112.85 16.8243 112.975 17.4007 112.975 18.042C112.975 18.1373 112.971 18.224 112.962 18.302C112.962 18.38 112.958 18.4407 112.949 18.484H107.827C107.897 19.1427 108.126 19.6367 108.516 19.966C108.915 20.2953 109.366 20.46 109.868 20.46C110.319 20.46 110.692 20.3603 110.986 20.161C111.281 19.953 111.515 19.6973 111.688 19.394L112.845 19.953C112.559 20.473 112.169 20.8977 111.675 21.227C111.181 21.5477 110.566 21.708 109.829 21.708ZM109.764 15.858C109.296 15.858 108.898 16.001 108.568 16.287C108.239 16.573 108.018 16.9543 107.905 17.431H111.584C111.567 17.2057 111.493 16.9717 111.363 16.729C111.233 16.4863 111.034 16.2827 110.765 16.118C110.505 15.9447 110.172 15.858 109.764 15.858ZM117.546 21.5V12.192H120.744C121.307 12.192 121.819 12.3133 122.278 12.556C122.737 12.7987 123.101 13.1323 123.37 13.557C123.647 13.9817 123.786 14.4757 123.786 15.039C123.786 15.6023 123.647 16.1007 123.37 16.534C123.101 16.9587 122.737 17.2923 122.278 17.535C121.819 17.769 121.307 17.886 120.744 17.886H118.976V21.5H117.546ZM120.783 13.544H118.976V16.534H120.783C121.121 16.534 121.407 16.4647 121.641 16.326C121.875 16.1787 122.053 15.9923 122.174 15.767C122.304 15.533 122.369 15.2903 122.369 15.039C122.369 14.7877 122.304 14.5493 122.174 14.324C122.053 14.0987 121.875 13.9123 121.641 13.765C121.407 13.6177 121.121 13.544 120.783 13.544ZM127.296 21.708C126.482 21.708 125.866 21.4653 125.45 20.98C125.043 20.486 124.839 19.8187 124.839 18.978V14.87H126.243V18.783C126.243 19.3463 126.373 19.7623 126.633 20.031C126.902 20.291 127.236 20.421 127.634 20.421C127.99 20.421 128.297 20.33 128.557 20.148C128.826 19.9573 129.03 19.7147 129.168 19.42C129.316 19.1167 129.389 18.7873 129.389 18.432V14.87H130.78V21.5H129.467V20.603H129.389C129.199 20.915 128.913 21.1793 128.531 21.396C128.159 21.604 127.747 21.708 127.296 21.708ZM132.445 21.5V12.192H133.849V21.5H132.445ZM140.407 24.308V21.539L140.485 20.616H140.407C140.234 20.902 139.961 21.1577 139.588 21.383C139.224 21.5997 138.786 21.708 138.275 21.708C137.677 21.708 137.135 21.5607 136.65 21.266C136.173 20.9627 135.792 20.5467 135.506 20.018C135.229 19.4807 135.09 18.8697 135.09 18.185C135.09 17.5003 135.229 16.8937 135.506 16.365C135.792 15.8363 136.173 15.4203 136.65 15.117C137.135 14.8137 137.677 14.662 138.275 14.662C138.786 14.662 139.224 14.7747 139.588 15C139.961 15.2253 140.234 15.481 140.407 15.767H140.485V14.87H141.798V24.308H140.407ZM138.483 20.421C138.83 20.421 139.155 20.33 139.458 20.148C139.77 19.966 140.017 19.7103 140.199 19.381C140.39 19.043 140.485 18.6443 140.485 18.185C140.485 17.7257 140.39 17.3313 140.199 17.002C140.017 16.664 139.77 16.404 139.458 16.222C139.155 16.04 138.83 15.949 138.483 15.949C138.136 15.949 137.811 16.04 137.508 16.222C137.205 16.404 136.958 16.664 136.767 17.002C136.576 17.3313 136.481 17.7257 136.481 18.185C136.481 18.6443 136.576 19.043 136.767 19.381C136.958 19.7103 137.205 19.966 137.508 20.148C137.811 20.33 138.136 20.421 138.483 20.421ZM145.443 21.708C144.966 21.708 144.542 21.617 144.169 21.435C143.796 21.2443 143.506 20.98 143.298 20.642C143.09 20.304 142.986 19.9183 142.986 19.485C142.986 19.017 143.107 18.6183 143.35 18.289C143.601 17.951 143.935 17.6953 144.351 17.522C144.767 17.3487 145.226 17.262 145.729 17.262C146.145 17.262 146.509 17.301 146.821 17.379C147.142 17.457 147.384 17.5393 147.549 17.626V17.275C147.549 16.8417 147.393 16.495 147.081 16.235C146.769 15.975 146.366 15.845 145.872 15.845C145.534 15.845 145.213 15.923 144.91 16.079C144.607 16.2263 144.364 16.43 144.182 16.69L143.22 15.949C143.506 15.5503 143.883 15.2383 144.351 15.013C144.828 14.779 145.348 14.662 145.911 14.662C146.873 14.662 147.614 14.9003 148.134 15.377C148.654 15.845 148.914 16.5037 148.914 17.353V21.5H147.549V20.681H147.471C147.298 20.9497 147.038 21.188 146.691 21.396C146.344 21.604 145.928 21.708 145.443 21.708ZM145.69 20.564C146.054 20.564 146.375 20.4773 146.652 20.304C146.929 20.1307 147.146 19.9053 147.302 19.628C147.467 19.342 147.549 19.0343 147.549 18.705C147.35 18.5923 147.116 18.5013 146.847 18.432C146.578 18.354 146.292 18.315 145.989 18.315C145.417 18.315 145.01 18.432 144.767 18.666C144.524 18.8913 144.403 19.1687 144.403 19.498C144.403 19.81 144.52 20.0657 144.754 20.265C144.988 20.4643 145.3 20.564 145.69 20.564ZM153.996 21.708C153.484 21.708 153.042 21.5997 152.67 21.383C152.306 21.1577 152.037 20.902 151.864 20.616H151.786V21.5H150.46V12.192H151.864V14.844L151.786 15.767H151.864C152.037 15.481 152.306 15.2253 152.67 15C153.042 14.7747 153.484 14.662 153.996 14.662C154.602 14.662 155.144 14.8137 155.621 15.117C156.097 15.4203 156.474 15.8363 156.752 16.365C157.038 16.8937 157.181 17.5003 157.181 18.185C157.181 18.8697 157.038 19.4807 156.752 20.018C156.474 20.5467 156.097 20.9627 155.621 21.266C155.144 21.5607 154.602 21.708 153.996 21.708ZM153.788 20.421C154.134 20.421 154.459 20.33 154.763 20.148C155.066 19.966 155.313 19.7103 155.504 19.381C155.694 19.043 155.79 18.6443 155.79 18.185C155.79 17.7257 155.694 17.3313 155.504 17.002C155.313 16.664 155.066 16.404 154.763 16.222C154.459 16.04 154.134 15.949 153.788 15.949C153.441 15.949 153.116 16.04 152.813 16.222C152.509 16.404 152.262 16.664 152.072 17.002C151.881 17.3313 151.786 17.7257 151.786 18.185C151.786 18.6443 151.881 19.043 152.072 19.381C152.262 19.7103 152.509 19.966 152.813 20.148C153.116 20.33 153.441 20.421 153.788 20.421ZM158.511 21.5V14.87H159.915V21.5H158.511Z" fill="white"/>
<path d="M78.163 37.148C78.163 37.9753 77.9817 38.7403 77.619 39.443C77.2563 40.1457 76.7463 40.7123 76.089 41.143C75.443 41.5623 74.6893 41.772 73.828 41.772C72.9327 41.772 72.1733 41.5793 71.55 41.194C70.9267 40.8087 70.445 40.2817 70.105 39.613C69.7763 38.9443 69.612 38.1907 69.612 37.352C69.612 37.2273 69.6177 37.114 69.629 37.012C69.6403 36.91 69.6517 36.8307 69.663 36.774H76.361C76.3043 36.1847 76.1457 35.703 75.885 35.329C75.6243 34.9437 75.2957 34.6603 74.899 34.479C74.5137 34.2863 74.1113 34.19 73.692 34.19C73.1027 34.19 72.6153 34.326 72.23 34.598C71.8447 34.8587 71.5387 35.1873 71.312 35.584L69.799 34.853C70.173 34.173 70.683 33.6233 71.329 33.204C71.975 32.7733 72.774 32.558 73.726 32.558C74.5873 32.558 75.3523 32.7563 76.021 33.153C76.6897 33.5497 77.211 34.0937 77.585 34.785C77.9703 35.4763 78.163 36.264 78.163 37.148ZM73.828 40.208C74.3833 40.208 74.8877 40.0323 75.341 39.681C75.7943 39.3297 76.106 38.8197 76.276 38.151H71.448C71.4707 38.4457 71.567 38.7517 71.737 39.069C71.907 39.3863 72.162 39.6583 72.502 39.885C72.8533 40.1003 73.2953 40.208 73.828 40.208ZM79.7833 41.5V29.328H81.6193V41.5H79.7833ZM86.4209 41.772C85.7975 41.772 85.2422 41.653 84.7549 41.415C84.2675 41.1657 83.8879 40.82 83.6159 40.378C83.3439 39.936 83.2079 39.4317 83.2079 38.865C83.2079 38.253 83.3665 37.7317 83.6839 37.301C84.0125 36.859 84.4489 36.5247 84.9929 36.298C85.5369 36.0713 86.1375 35.958 86.7949 35.958C87.3389 35.958 87.8149 36.009 88.2229 36.111C88.6422 36.213 88.9595 36.3207 89.1749 36.434V35.975C89.1749 35.4083 88.9709 34.955 88.5629 34.615C88.1549 34.275 87.6279 34.105 86.9819 34.105C86.5399 34.105 86.1205 34.207 85.7239 34.411C85.3272 34.6037 85.0099 34.87 84.7719 35.21L83.5139 34.241C83.8879 33.7197 84.3809 33.3117 84.9929 33.017C85.6162 32.711 86.2962 32.558 87.0329 32.558C88.2909 32.558 89.2599 32.8697 89.9399 33.493C90.6199 34.105 90.9599 34.9663 90.9599 36.077V41.5H89.1749V40.429H89.0729C88.8462 40.7803 88.5062 41.092 88.0529 41.364C87.5995 41.636 87.0555 41.772 86.4209 41.772ZM86.7439 40.276C87.2199 40.276 87.6392 40.1627 88.0019 39.936C88.3645 39.7093 88.6479 39.4147 88.8519 39.052C89.0672 38.678 89.1749 38.2757 89.1749 37.845C88.9142 37.6977 88.6082 37.5787 88.2569 37.488C87.9055 37.386 87.5315 37.335 87.1349 37.335C86.3869 37.335 85.8542 37.488 85.5369 37.794C85.2195 38.0887 85.0609 38.4513 85.0609 38.882C85.0609 39.29 85.2139 39.6243 85.5199 39.885C85.8259 40.1457 86.2339 40.276 86.7439 40.276ZM95.4501 41.5L91.8631 32.83H93.9031L96.3341 39.137H96.4191L98.9011 32.83H100.907L97.2861 41.5H95.4501ZM109.938 37.148C109.938 37.9753 109.757 38.7403 109.394 39.443C109.032 40.1457 108.522 40.7123 107.864 41.143C107.218 41.5623 106.465 41.772 105.603 41.772C104.708 41.772 103.949 41.5793 103.325 41.194C102.702 40.8087 102.22 40.2817 101.88 39.613C101.552 38.9443 101.387 38.1907 101.387 37.352C101.387 37.2273 101.393 37.114 101.404 37.012C101.416 36.91 101.427 36.8307 101.438 36.774H108.136C108.08 36.1847 107.921 35.703 107.66 35.329C107.4 34.9437 107.071 34.6603 106.674 34.479C106.289 34.2863 105.887 34.19 105.467 34.19C104.878 34.19 104.391 34.326 104.005 34.598C103.62 34.8587 103.314 35.1873 103.087 35.584L101.574 34.853C101.948 34.173 102.458 33.6233 103.104 33.204C103.75 32.7733 104.549 32.558 105.501 32.558C106.363 32.558 107.128 32.7563 107.796 33.153C108.465 33.5497 108.986 34.0937 109.36 34.785C109.746 35.4763 109.938 36.264 109.938 37.148ZM105.603 40.208C106.159 40.208 106.663 40.0323 107.116 39.681C107.57 39.3297 107.881 38.8197 108.051 38.151H103.223C103.246 38.4457 103.342 38.7517 103.512 39.069C103.682 39.3863 103.937 39.6583 104.277 39.885C104.629 40.1003 105.071 40.208 105.603 40.208ZM119.553 41.772C118.703 41.772 117.944 41.5737 117.275 41.177C116.607 40.7803 116.08 40.2363 115.694 39.545C115.32 38.8537 115.133 38.066 115.133 37.182C115.133 36.3547 115.315 35.5897 115.677 34.887C116.04 34.1843 116.544 33.6233 117.19 33.204C117.848 32.7733 118.601 32.558 119.451 32.558C120.347 32.558 121.106 32.7507 121.729 33.136C122.364 33.5213 122.846 34.0483 123.174 34.717C123.503 35.3857 123.667 36.1393 123.667 36.978C123.667 37.1027 123.662 37.216 123.65 37.318C123.65 37.42 123.645 37.4993 123.633 37.556H116.935C117.026 38.4173 117.326 39.0633 117.836 39.494C118.358 39.9247 118.947 40.14 119.604 40.14C120.194 40.14 120.681 40.0097 121.066 39.749C121.452 39.477 121.758 39.1427 121.984 38.746L123.497 39.477C123.123 40.157 122.613 40.7123 121.967 41.143C121.321 41.5623 120.517 41.772 119.553 41.772ZM119.468 34.122C118.856 34.122 118.335 34.309 117.904 34.683C117.474 35.057 117.185 35.5557 117.037 36.179H121.848C121.826 35.8843 121.729 35.5783 121.559 35.261C121.389 34.9437 121.129 34.6773 120.777 34.462C120.437 34.2353 120.001 34.122 119.468 34.122ZM129.16 41.772C128.378 41.772 127.669 41.5793 127.035 41.194C126.411 40.7973 125.913 40.2533 125.539 39.562C125.176 38.8593 124.995 38.0603 124.995 37.165C124.995 36.2697 125.176 35.4763 125.539 34.785C125.913 34.0937 126.411 33.5497 127.035 33.153C127.669 32.7563 128.378 32.558 129.16 32.558C129.828 32.558 130.401 32.7053 130.877 33C131.364 33.2947 131.721 33.629 131.948 34.003H132.05L131.948 32.796V29.328H133.767V41.5H132.05V40.344H131.948C131.721 40.718 131.364 41.0523 130.877 41.347C130.401 41.6303 129.828 41.772 129.16 41.772ZM129.432 40.089C129.885 40.089 130.31 39.97 130.707 39.732C131.115 39.494 131.438 39.1597 131.676 38.729C131.925 38.287 132.05 37.7657 132.05 37.165C132.05 36.5643 131.925 36.0487 131.676 35.618C131.438 35.176 131.115 34.836 130.707 34.598C130.31 34.36 129.885 34.241 129.432 34.241C128.978 34.241 128.553 34.36 128.157 34.598C127.76 34.836 127.437 35.176 127.188 35.618C126.938 36.0487 126.814 36.5643 126.814 37.165C126.814 37.7657 126.938 38.287 127.188 38.729C127.437 39.1597 127.76 39.494 128.157 39.732C128.553 39.97 128.978 40.089 129.432 40.089ZM136.983 31.555C136.643 31.555 136.349 31.436 136.099 31.198C135.861 30.9487 135.742 30.654 135.742 30.314C135.742 29.974 135.861 29.685 136.099 29.447C136.349 29.209 136.643 29.09 136.983 29.09C137.323 29.09 137.612 29.209 137.85 29.447C138.1 29.685 138.224 29.974 138.224 30.314C138.224 30.654 138.1 30.9487 137.85 31.198C137.612 31.436 137.323 31.555 136.983 31.555ZM136.065 41.5V32.83H137.901V41.5H136.065ZM140.179 41.5V32.83H141.913V34.02H142.015C142.265 33.6007 142.633 33.255 143.12 32.983C143.619 32.6997 144.163 32.558 144.752 32.558C145.818 32.558 146.617 32.8753 147.149 33.51C147.682 34.1447 147.948 34.9833 147.948 36.026V41.5H146.129V36.264C146.129 35.5613 145.954 35.0513 145.602 34.734C145.251 34.4053 144.792 34.241 144.225 34.241C143.783 34.241 143.398 34.3657 143.069 34.615C142.741 34.853 142.48 35.1703 142.287 35.567C142.106 35.9637 142.015 36.3887 142.015 36.842V41.5H140.179Z" fill="white"/>
<rect x="0.5" y="0.5" width="179" height="54" rx="27" stroke="#747775"/>
<defs>
<linearGradient id="paint0_linear_1819_24795" x1="37.2843" y1="34.0448" x2="18.7823" y2="55.7227" gradientUnits="userSpaceOnUse">
<stop stop-color="#4285F4"/>
<stop offset="1" stop-color="#1B74E8"/>
</linearGradient>
</defs>
</svg>
