<svg width="199" height="55" viewBox="0 0 199 55" fill="none" xmlns="http://www.w3.org/2000/svg">
<rect x="0.5" y="0.5" width="198" height="54" rx="27" fill="#1F1F1F"/>
<path d="M57 23.791H21V18.1456C21 15.0809 23.6422 12.5001 26.7798 12.5001H51.2202C54.3578 12.5001 57 15.0809 57 18.1456V23.791Z" fill="#34A853"/>
<path d="M57 29H21V23C21 19.7429 23.6422 17 26.7798 17H51.2202C54.3578 17 57 19.7429 57 23V29Z" fill="#FBBC04"/>
<path d="M57 34H21V28C21 24.7429 23.6422 22 26.7798 22H51.2202C54.3578 22 57 24.7429 57 28V34Z" fill="#EA4335"/>
<path d="M21 25.2409L43.8493 30.4025C46.4795 31.0477 49.4384 30.4025 51.5753 28.7895L57 24.9183V37.0157C57 40.0804 54.3699 42.4999 51.2466 42.4999H26.7534C23.6301 42.4999 21 40.0804 21 37.0157V25.2409Z" fill="url(#paint0_linear_1819_23959)"/>
<path d="M69.481 23.476V20.148H70.3C70.4993 19.8187 70.6597 19.394 70.781 18.874C70.911 18.3453 71.002 17.7647 71.054 17.132C71.1147 16.4993 71.145 15.8623 71.145 15.221V12.192H77.112V20.148H78.204V23.476H76.813V21.5H70.872V23.476H69.481ZM71.86 20.148H75.682V13.544H72.536V15.429C72.536 16.3737 72.4753 17.2447 72.354 18.042C72.2413 18.8393 72.0767 19.5153 71.86 20.07V20.148ZM82.4859 21.708C81.8012 21.708 81.1989 21.552 80.6789 21.24C80.1589 20.928 79.7515 20.5077 79.4569 19.979C79.1622 19.4503 79.0149 18.8523 79.0149 18.185C79.0149 17.5263 79.1622 16.9327 79.4569 16.404C79.7515 15.8667 80.1589 15.442 80.6789 15.13C81.1989 14.818 81.8012 14.662 82.4859 14.662C83.1619 14.662 83.7599 14.818 84.2799 15.13C84.7999 15.442 85.2072 15.8667 85.5019 16.404C85.7965 16.9327 85.9439 17.5263 85.9439 18.185C85.9439 18.8523 85.7965 19.4503 85.5019 19.979C85.2072 20.5077 84.7999 20.928 84.2799 21.24C83.7599 21.552 83.1619 21.708 82.4859 21.708ZM82.4859 20.421C82.8499 20.421 83.1879 20.3343 83.4999 20.161C83.8119 19.979 84.0632 19.7233 84.2539 19.394C84.4532 19.056 84.5529 18.653 84.5529 18.185C84.5529 17.717 84.4532 17.3183 84.2539 16.989C84.0632 16.651 83.8119 16.3953 83.4999 16.222C83.1879 16.04 82.8499 15.949 82.4859 15.949C82.1219 15.949 81.7795 16.04 81.4589 16.222C81.1469 16.3953 80.8912 16.651 80.6919 16.989C80.5012 17.3183 80.4059 17.717 80.4059 18.185C80.4059 18.653 80.5012 19.056 80.6919 19.394C80.8912 19.7233 81.1469 19.979 81.4589 20.161C81.7795 20.3343 82.1219 20.421 82.4859 20.421ZM90.383 21.708C89.733 21.708 89.1566 21.5607 88.654 21.266C88.16 20.9627 87.77 20.5077 87.484 19.901C87.198 19.2857 87.055 18.5143 87.055 17.587C87.055 16.6423 87.1503 15.8623 87.341 15.247C87.5316 14.623 87.848 14.1203 88.29 13.739C88.5673 13.505 88.9096 13.31 89.317 13.154C89.733 12.998 90.2486 12.8723 90.864 12.777C91.1846 12.725 91.4186 12.673 91.566 12.621C91.7133 12.569 91.8043 12.5083 91.839 12.439C91.8823 12.3697 91.904 12.2873 91.904 12.192H93.178C93.178 12.582 93.1173 12.894 92.996 13.128C92.8833 13.3533 92.6753 13.5267 92.372 13.648C92.0773 13.7693 91.657 13.869 91.111 13.947C90.539 14.0337 90.1013 14.1377 89.798 14.259C89.5033 14.3803 89.2606 14.519 89.07 14.675C88.6453 15.0217 88.3853 15.5157 88.29 16.157H88.368C88.5673 15.8537 88.862 15.6023 89.252 15.403C89.6506 15.195 90.11 15.091 90.63 15.091C91.2453 15.091 91.787 15.234 92.255 15.52C92.723 15.7973 93.087 16.1787 93.347 16.664C93.6156 17.1493 93.75 17.6997 93.75 18.315C93.75 18.9563 93.607 19.537 93.321 20.057C93.0436 20.5683 92.6493 20.9713 92.138 21.266C91.6353 21.5607 91.0503 21.708 90.383 21.708ZM90.396 20.447C90.9506 20.447 91.4143 20.2563 91.787 19.875C92.1596 19.4937 92.346 18.965 92.346 18.289C92.346 17.6737 92.1596 17.1927 91.787 16.846C91.4143 16.4993 90.9506 16.326 90.396 16.326C89.8586 16.326 89.3993 16.4993 89.018 16.846C88.6453 17.1927 88.459 17.6737 88.459 18.289C88.459 18.965 88.641 19.4937 89.005 19.875C89.3776 20.2563 89.8413 20.447 90.396 20.447ZM97.1119 21.708C96.6352 21.708 96.2106 21.617 95.8379 21.435C95.4652 21.2443 95.1749 20.98 94.9669 20.642C94.7589 20.304 94.6549 19.9183 94.6549 19.485C94.6549 19.017 94.7762 18.6183 95.0189 18.289C95.2702 17.951 95.6039 17.6953 96.0199 17.522C96.4359 17.3487 96.8952 17.262 97.3979 17.262C97.8139 17.262 98.1779 17.301 98.4899 17.379C98.8106 17.457 99.0532 17.5393 99.2179 17.626V17.275C99.2179 16.8417 99.0619 16.495 98.7499 16.235C98.4379 15.975 98.0349 15.845 97.5409 15.845C97.2029 15.845 96.8822 15.923 96.5789 16.079C96.2756 16.2263 96.0329 16.43 95.8509 16.69L94.8889 15.949C95.1749 15.5503 95.5519 15.2383 96.0199 15.013C96.4966 14.779 97.0166 14.662 97.5799 14.662C98.5419 14.662 99.2829 14.9003 99.8029 15.377C100.323 15.845 100.583 16.5037 100.583 17.353V21.5H99.2179V20.681H99.1399C98.9666 20.9497 98.7066 21.188 98.3599 21.396C98.0132 21.604 97.5972 21.708 97.1119 21.708ZM97.3589 20.564C97.7229 20.564 98.0436 20.4773 98.3209 20.304C98.5982 20.1307 98.8149 19.9053 98.9709 19.628C99.1356 19.342 99.2179 19.0343 99.2179 18.705C99.0186 18.5923 98.7846 18.5013 98.5159 18.432C98.2472 18.354 97.9612 18.315 97.6579 18.315C97.0859 18.315 96.6786 18.432 96.4359 18.666C96.1932 18.8913 96.0719 19.1687 96.0719 19.498C96.0719 19.81 96.1889 20.0657 96.4229 20.265C96.6569 20.4643 96.9689 20.564 97.3589 20.564ZM102.129 21.5V14.87H105.418C105.808 14.87 106.154 14.948 106.458 15.104C106.77 15.2513 107.012 15.455 107.186 15.715C107.368 15.975 107.459 16.2653 107.459 16.586C107.459 16.9327 107.381 17.2317 107.225 17.483C107.077 17.7343 106.882 17.9207 106.64 18.042V18.12C106.969 18.25 107.229 18.445 107.42 18.705C107.619 18.965 107.719 19.264 107.719 19.602C107.719 19.992 107.615 20.33 107.407 20.616C107.207 20.902 106.947 21.123 106.627 21.279C106.306 21.4263 105.964 21.5 105.6 21.5H102.129ZM103.533 16.014V17.574H105.249C105.483 17.574 105.678 17.5003 105.834 17.353C105.99 17.2057 106.068 17.0193 106.068 16.794C106.068 16.56 105.99 16.3737 105.834 16.235C105.678 16.0877 105.483 16.014 105.249 16.014H103.533ZM103.533 20.33H105.457C105.708 20.33 105.916 20.252 106.081 20.096C106.254 19.9313 106.341 19.7233 106.341 19.472C106.341 19.2293 106.254 19.0257 106.081 18.861C105.916 18.6963 105.708 18.614 105.457 18.614H103.533V20.33ZM108.555 21.5V21.422L110.323 19.121L110.297 19.043C109.881 18.8783 109.543 18.6227 109.283 18.276C109.023 17.9293 108.893 17.5307 108.893 17.08C108.893 16.6553 108.997 16.2783 109.205 15.949C109.413 15.6197 109.695 15.3597 110.05 15.169C110.414 14.9697 110.821 14.87 111.272 14.87H114.119V21.5H112.715V19.251H111.792L110.128 21.5H108.555ZM111.376 18.133H112.715V16.04H111.376C111.073 16.04 110.813 16.1397 110.596 16.339C110.388 16.5383 110.284 16.7853 110.284 17.08C110.284 17.3833 110.388 17.6347 110.596 17.834C110.813 18.0333 111.073 18.133 111.376 18.133ZM115.763 21.5V14.87H117.167V17.535H120.313V14.87H121.717V21.5H120.313V18.757H117.167V21.5H115.763ZM126.321 21.708C125.671 21.708 125.09 21.5563 124.579 21.253C124.067 20.9497 123.664 20.5337 123.37 20.005C123.084 19.4763 122.941 18.874 122.941 18.198C122.941 17.5653 123.079 16.9803 123.357 16.443C123.634 15.9057 124.02 15.4767 124.514 15.156C125.016 14.8267 125.593 14.662 126.243 14.662C126.927 14.662 127.508 14.8093 127.985 15.104C128.47 15.3987 128.838 15.8017 129.09 16.313C129.341 16.8243 129.467 17.4007 129.467 18.042C129.467 18.1373 129.462 18.224 129.454 18.302C129.454 18.38 129.449 18.4407 129.441 18.484H124.319C124.388 19.1427 124.618 19.6367 125.008 19.966C125.406 20.2953 125.857 20.46 126.36 20.46C126.81 20.46 127.183 20.3603 127.478 20.161C127.772 19.953 128.006 19.6973 128.18 19.394L129.337 19.953C129.051 20.473 128.661 20.8977 128.167 21.227C127.673 21.5477 127.057 21.708 126.321 21.708ZM126.256 15.858C125.788 15.858 125.389 16.001 125.06 16.287C124.73 16.573 124.509 16.9543 124.397 17.431H128.076C128.058 17.2057 127.985 16.9717 127.855 16.729C127.725 16.4863 127.525 16.2827 127.257 16.118C126.997 15.9447 126.663 15.858 126.256 15.858ZM133.803 21.5V14.87H135.207V17.808H135.285L137.885 14.87H139.497V14.948L136.728 17.977L139.601 21.422V21.5H137.937L135.285 18.237H135.207V21.5H133.803ZM143.159 14.87V17.08H144.563C145.014 17.08 145.417 17.1753 145.772 17.366C146.128 17.5567 146.409 17.821 146.617 18.159C146.825 18.4883 146.929 18.8653 146.929 19.29C146.929 19.7147 146.825 20.0917 146.617 20.421C146.409 20.7503 146.128 21.0147 145.772 21.214C145.417 21.4047 145.014 21.5 144.563 21.5H141.768V16.092H139.974V14.87H143.159ZM143.159 20.33H144.446C144.758 20.33 145.018 20.2303 145.226 20.031C145.434 19.8317 145.538 19.5847 145.538 19.29C145.538 18.9953 145.434 18.7483 145.226 18.549C145.018 18.341 144.758 18.237 144.446 18.237H143.159V20.33ZM148.098 21.5V14.87H149.762L151.803 18.926H151.868L153.922 14.87H155.547V21.5H154.208V18.276L154.273 17.002H154.195L152.284 20.655H151.361L149.45 17.002H149.372L149.437 18.276V21.5H148.098Z" fill="white"/>
<path d="M76.14 41.772C75.2673 41.772 74.4457 41.6133 73.675 41.296C72.9157 40.9787 72.2413 40.5367 71.652 39.97C71.0627 39.392 70.598 38.7177 70.258 37.947C69.9293 37.165 69.765 36.3207 69.765 35.414C69.765 34.5073 69.9293 33.6687 70.258 32.898C70.598 32.116 71.057 31.4417 71.635 30.875C72.2243 30.297 72.9043 29.8493 73.675 29.532C74.4457 29.2147 75.2673 29.056 76.14 29.056C77.0693 29.056 77.925 29.2203 78.707 29.549C79.5003 29.8777 80.1633 30.3367 80.696 30.926L79.404 32.201C79.0073 31.759 78.5313 31.419 77.976 31.181C77.432 30.943 76.82 30.824 76.14 30.824C75.3353 30.824 74.593 31.0167 73.913 31.402C73.233 31.776 72.6833 32.3087 72.264 33C71.856 33.68 71.652 34.4847 71.652 35.414C71.652 36.3433 71.8617 37.1537 72.281 37.845C72.7003 38.525 73.25 39.0577 73.93 39.443C74.61 39.817 75.3523 40.004 76.157 40.004C76.8937 40.004 77.5623 39.868 78.163 39.596C78.7637 39.3127 79.2453 38.916 79.608 38.406C79.982 37.896 80.2087 37.284 80.288 36.57H76.123V34.921H82.039C82.107 35.227 82.141 35.55 82.141 35.89V35.907C82.141 37.0857 81.8803 38.117 81.359 39.001C80.849 39.8737 80.1407 40.5537 79.234 41.041C78.3273 41.5283 77.296 41.772 76.14 41.772ZM87.6149 41.772C86.7195 41.772 85.9319 41.568 85.2519 41.16C84.5719 40.752 84.0392 40.2023 83.6539 39.511C83.2685 38.8197 83.0759 38.0377 83.0759 37.165C83.0759 36.3037 83.2685 35.5273 83.6539 34.836C84.0392 34.1333 84.5719 33.578 85.2519 33.17C85.9319 32.762 86.7195 32.558 87.6149 32.558C88.4989 32.558 89.2809 32.762 89.9609 33.17C90.6409 33.578 91.1735 34.1333 91.5589 34.836C91.9442 35.5273 92.1369 36.3037 92.1369 37.165C92.1369 38.0377 91.9442 38.8197 91.5589 39.511C91.1735 40.2023 90.6409 40.752 89.9609 41.16C89.2809 41.568 88.4989 41.772 87.6149 41.772ZM87.6149 40.089C88.0909 40.089 88.5329 39.9757 88.9409 39.749C89.3489 39.511 89.6775 39.1767 89.9269 38.746C90.1875 38.304 90.3179 37.777 90.3179 37.165C90.3179 36.553 90.1875 36.0317 89.9269 35.601C89.6775 35.159 89.3489 34.8247 88.9409 34.598C88.5329 34.36 88.0909 34.241 87.6149 34.241C87.1389 34.241 86.6912 34.36 86.2719 34.598C85.8639 34.8247 85.5295 35.159 85.2689 35.601C85.0195 36.0317 84.8949 36.553 84.8949 37.165C84.8949 37.777 85.0195 38.304 85.2689 38.746C85.5295 39.1767 85.8639 39.511 86.2719 39.749C86.6912 39.9757 87.1389 40.089 87.6149 40.089ZM97.9078 41.772C97.0125 41.772 96.2248 41.568 95.5448 41.16C94.8648 40.752 94.3322 40.2023 93.9468 39.511C93.5615 38.8197 93.3688 38.0377 93.3688 37.165C93.3688 36.3037 93.5615 35.5273 93.9468 34.836C94.3322 34.1333 94.8648 33.578 95.5448 33.17C96.2248 32.762 97.0125 32.558 97.9078 32.558C98.7918 32.558 99.5738 32.762 100.254 33.17C100.934 33.578 101.467 34.1333 101.852 34.836C102.237 35.5273 102.43 36.3037 102.43 37.165C102.43 38.0377 102.237 38.8197 101.852 39.511C101.467 40.2023 100.934 40.752 100.254 41.16C99.5738 41.568 98.7918 41.772 97.9078 41.772ZM97.9078 40.089C98.3838 40.089 98.8258 39.9757 99.2338 39.749C99.6418 39.511 99.9705 39.1767 100.22 38.746C100.481 38.304 100.611 37.777 100.611 37.165C100.611 36.553 100.481 36.0317 100.22 35.601C99.9705 35.159 99.6418 34.8247 99.2338 34.598C98.8258 34.36 98.3838 34.241 97.9078 34.241C97.4318 34.241 96.9842 34.36 96.5648 34.598C96.1568 34.8247 95.8225 35.159 95.5618 35.601C95.3125 36.0317 95.1878 36.553 95.1878 37.165C95.1878 37.777 95.3125 38.304 95.5618 38.746C95.8225 39.1767 96.1568 39.511 96.5648 39.749C96.9842 39.9757 97.4318 40.089 97.9078 40.089ZM108.031 45.444C107.271 45.444 106.614 45.3193 106.059 45.07C105.515 44.832 105.073 44.5203 104.733 44.135C104.393 43.761 104.149 43.3757 104.002 42.979L105.702 42.265C105.883 42.7183 106.172 43.0867 106.569 43.37C106.977 43.6647 107.464 43.812 108.031 43.812C108.824 43.812 109.447 43.574 109.901 43.098C110.365 42.622 110.598 41.9477 110.598 41.075V40.242H110.496C110.224 40.65 109.844 40.9787 109.357 41.228C108.881 41.466 108.337 41.585 107.725 41.585C106.988 41.585 106.314 41.398 105.702 41.024C105.09 40.65 104.597 40.1287 104.223 39.46C103.849 38.78 103.662 37.9867 103.662 37.08C103.662 36.162 103.849 35.3687 104.223 34.7C104.597 34.02 105.09 33.493 105.702 33.119C106.314 32.745 106.988 32.558 107.725 32.558C108.337 32.558 108.881 32.6827 109.357 32.932C109.844 33.1813 110.224 33.51 110.496 33.918H110.598V32.83H112.349V41.041C112.349 41.9817 112.162 42.7807 111.788 43.438C111.425 44.0953 110.921 44.594 110.275 44.934C109.629 45.274 108.881 45.444 108.031 45.444ZM108.048 39.919C108.501 39.919 108.92 39.8113 109.306 39.596C109.691 39.3693 110.003 39.0463 110.241 38.627C110.479 38.1963 110.598 37.6807 110.598 37.08C110.598 36.4567 110.479 35.9353 110.241 35.516C110.003 35.0853 109.691 34.7623 109.306 34.547C108.92 34.3317 108.501 34.224 108.048 34.224C107.594 34.224 107.169 34.3373 106.773 34.564C106.387 34.7793 106.076 35.0967 105.838 35.516C105.6 35.9353 105.481 36.4567 105.481 37.08C105.481 37.692 105.6 38.2133 105.838 38.644C106.076 39.0633 106.387 39.3807 106.773 39.596C107.169 39.8113 107.594 39.919 108.048 39.919ZM114.514 41.5V29.328H116.35V41.5H114.514ZM122.392 41.772C121.542 41.772 120.783 41.5737 120.114 41.177C119.446 40.7803 118.919 40.2363 118.533 39.545C118.159 38.8537 117.972 38.066 117.972 37.182C117.972 36.3547 118.154 35.5897 118.516 34.887C118.879 34.1843 119.383 33.6233 120.029 33.204C120.687 32.7733 121.44 32.558 122.29 32.558C123.186 32.558 123.945 32.7507 124.568 33.136C125.203 33.5213 125.685 34.0483 126.013 34.717C126.342 35.3857 126.506 36.1393 126.506 36.978C126.506 37.1027 126.501 37.216 126.489 37.318C126.489 37.42 126.484 37.4993 126.472 37.556H119.774C119.865 38.4173 120.165 39.0633 120.675 39.494C121.197 39.9247 121.786 40.14 122.443 40.14C123.033 40.14 123.52 40.0097 123.905 39.749C124.291 39.477 124.597 39.1427 124.823 38.746L126.336 39.477C125.962 40.157 125.452 40.7123 124.806 41.143C124.16 41.5623 123.356 41.772 122.392 41.772ZM122.307 34.122C121.695 34.122 121.174 34.309 120.743 34.683C120.313 35.057 120.024 35.5557 119.876 36.179H124.687C124.665 35.8843 124.568 35.5783 124.398 35.261C124.228 34.9437 123.968 34.6773 123.616 34.462C123.276 34.2353 122.84 34.122 122.307 34.122ZM133.979 41.5L130.715 29.328H132.789L134.727 37.233L134.931 38.287H135.033L135.288 37.233L137.736 29.328H139.606L141.952 37.233L142.207 38.27H142.309L142.513 37.233L144.451 29.328H146.508L143.295 41.5H141.323L138.994 33.425L138.722 32.286H138.62L138.331 33.425L135.9 41.5H133.979ZM149.922 41.772C149.299 41.772 148.743 41.653 148.256 41.415C147.769 41.1657 147.389 40.82 147.117 40.378C146.845 39.936 146.709 39.4317 146.709 38.865C146.709 38.253 146.868 37.7317 147.185 37.301C147.514 36.859 147.95 36.5247 148.494 36.298C149.038 36.0713 149.639 35.958 150.296 35.958C150.84 35.958 151.316 36.009 151.724 36.111C152.143 36.213 152.461 36.3207 152.676 36.434V35.975C152.676 35.4083 152.472 34.955 152.064 34.615C151.656 34.275 151.129 34.105 150.483 34.105C150.041 34.105 149.622 34.207 149.225 34.411C148.828 34.6037 148.511 34.87 148.273 35.21L147.015 34.241C147.389 33.7197 147.882 33.3117 148.494 33.017C149.117 32.711 149.797 32.558 150.534 32.558C151.792 32.558 152.761 32.8697 153.441 33.493C154.121 34.105 154.461 34.9663 154.461 36.077V41.5H152.676V40.429H152.574C152.347 40.7803 152.007 41.092 151.554 41.364C151.101 41.636 150.557 41.772 149.922 41.772ZM150.245 40.276C150.721 40.276 151.14 40.1627 151.503 39.936C151.866 39.7093 152.149 39.4147 152.353 39.052C152.568 38.678 152.676 38.2757 152.676 37.845C152.415 37.6977 152.109 37.5787 151.758 37.488C151.407 37.386 151.033 37.335 150.636 37.335C149.888 37.335 149.355 37.488 149.038 37.794C148.721 38.0887 148.562 38.4513 148.562 38.882C148.562 39.29 148.715 39.6243 149.021 39.885C149.327 40.1457 149.735 40.276 150.245 40.276ZM156.499 41.5V29.328H158.335V41.5H156.499ZM160.517 41.5V29.328H162.353V41.5H160.517ZM168.395 41.772C167.545 41.772 166.786 41.5737 166.117 41.177C165.449 40.7803 164.922 40.2363 164.536 39.545C164.162 38.8537 163.975 38.066 163.975 37.182C163.975 36.3547 164.157 35.5897 164.519 34.887C164.882 34.1843 165.386 33.6233 166.032 33.204C166.69 32.7733 167.443 32.558 168.293 32.558C169.189 32.558 169.948 32.7507 170.571 33.136C171.206 33.5213 171.688 34.0483 172.016 34.717C172.345 35.3857 172.509 36.1393 172.509 36.978C172.509 37.1027 172.504 37.216 172.492 37.318C172.492 37.42 172.487 37.4993 172.475 37.556H165.777C165.868 38.4173 166.168 39.0633 166.678 39.494C167.2 39.9247 167.789 40.14 168.446 40.14C169.036 40.14 169.523 40.0097 169.908 39.749C170.294 39.477 170.6 39.1427 170.826 38.746L172.339 39.477C171.965 40.157 171.455 40.7123 170.809 41.143C170.163 41.5623 169.359 41.772 168.395 41.772ZM168.31 34.122C167.698 34.122 167.177 34.309 166.746 34.683C166.316 35.057 166.027 35.5557 165.879 36.179H170.69C170.668 35.8843 170.571 35.5783 170.401 35.261C170.231 34.9437 169.971 34.6773 169.619 34.462C169.279 34.2353 168.843 34.122 168.31 34.122ZM174.882 38.984V34.428H173.369V32.83H174.882V30.382H176.718V32.83H178.843V34.428H176.718V38.593C176.718 39.0237 176.803 39.3523 176.973 39.579C177.154 39.8057 177.454 39.919 177.874 39.919C178.089 39.919 178.27 39.8907 178.418 39.834C178.576 39.7773 178.735 39.698 178.894 39.596V41.381C178.701 41.4603 178.497 41.5227 178.282 41.568C178.066 41.6133 177.811 41.636 177.517 41.636C176.712 41.636 176.072 41.4037 175.596 40.939C175.12 40.463 174.882 39.8113 174.882 38.984Z" fill="white"/>
<rect x="0.5" y="0.5" width="198" height="54" rx="27" stroke="#747775"/>
<defs>
<linearGradient id="paint0_linear_1819_23959" x1="37.2843" y1="34.0448" x2="18.7823" y2="55.7227" gradientUnits="userSpaceOnUse">
<stop stop-color="#4285F4"/>
<stop offset="1" stop-color="#1B74E8"/>
</linearGradient>
</defs>
</svg>
