<svg width="240" height="55" viewBox="0 0 240 55" fill="none" xmlns="http://www.w3.org/2000/svg">
<rect x="0.5" y="0.5" width="239" height="54" rx="27" fill="#1F1F1F"/>
<path d="M57 23.791H21V18.1456C21 15.0809 23.6422 12.5001 26.7798 12.5001H51.2202C54.3578 12.5001 57 15.0809 57 18.1456V23.791Z" fill="#34A853"/>
<path d="M57 29H21V23C21 19.7429 23.6422 17 26.7798 17H51.2202C54.3578 17 57 19.7429 57 23V29Z" fill="#FBBC04"/>
<path d="M57 34H21V28C21 24.7429 23.6422 22 26.7798 22H51.2202C54.3578 22 57 24.7429 57 28V34Z" fill="#EA4335"/>
<path d="M21 25.2409L43.8493 30.4025C46.4795 31.0477 49.4384 30.4025 51.5753 28.7895L57 24.9183V37.0157C57 40.0804 54.3699 42.4999 51.2466 42.4999H26.7534C23.6301 42.4999 21 40.0804 21 37.0157V25.2409Z" fill="url(#paint0_linear_1819_24567)"/>
<path d="M69.195 21.5L72.705 12.192H74.33L77.853 21.5H76.28L75.422 19.108H71.626L70.768 21.5H69.195ZM73.134 14.935L72.107 17.782H74.941L73.914 14.935L73.563 13.869H73.485L73.134 14.935ZM81.5143 21.708C80.9163 21.708 80.3747 21.5607 79.8893 21.266C79.4127 20.9627 79.0313 20.5467 78.7453 20.018C78.468 19.4807 78.3293 18.8697 78.3293 18.185C78.3293 17.5003 78.468 16.8937 78.7453 16.365C79.0313 15.8363 79.4127 15.4203 79.8893 15.117C80.3747 14.8137 80.9163 14.662 81.5143 14.662C82.0257 14.662 82.4633 14.7747 82.8273 15C83.2 15.2253 83.473 15.481 83.6463 15.767H83.7243L83.6463 14.844V12.192H85.0373V21.5H83.7243V20.616H83.6463C83.473 20.902 83.2 21.1577 82.8273 21.383C82.4633 21.5997 82.0257 21.708 81.5143 21.708ZM81.7223 20.421C82.069 20.421 82.394 20.33 82.6973 20.148C83.0093 19.966 83.2563 19.7103 83.4383 19.381C83.629 19.043 83.7243 18.6443 83.7243 18.185C83.7243 17.7257 83.629 17.3313 83.4383 17.002C83.2563 16.664 83.0093 16.404 82.6973 16.222C82.394 16.04 82.069 15.949 81.7223 15.949C81.3757 15.949 81.0507 16.04 80.7473 16.222C80.444 16.404 80.197 16.664 80.0063 17.002C79.8157 17.3313 79.7203 17.7257 79.7203 18.185C79.7203 18.6443 79.8157 19.043 80.0063 19.381C80.197 19.7103 80.444 19.966 80.7473 20.148C81.0507 20.33 81.3757 20.421 81.7223 20.421ZM87.4971 13.895C87.2371 13.895 87.0117 13.804 86.8211 13.622C86.6391 13.4313 86.5481 13.206 86.5481 12.946C86.5481 12.686 86.6391 12.465 86.8211 12.283C87.0117 12.101 87.2371 12.01 87.4971 12.01C87.7571 12.01 87.9781 12.101 88.1601 12.283C88.3507 12.465 88.4461 12.686 88.4461 12.946C88.4461 13.206 88.3507 13.4313 88.1601 13.622C87.9781 13.804 87.7571 13.895 87.4971 13.895ZM86.7951 21.5V14.87H88.1991V21.5H86.7951ZM92.9456 21.708C92.2783 21.708 91.6889 21.5563 91.1776 21.253C90.6663 20.9497 90.2633 20.5337 89.9686 20.005C89.6739 19.4677 89.5266 18.861 89.5266 18.185C89.5266 17.509 89.6739 16.9067 89.9686 16.378C90.2633 15.8407 90.6663 15.4203 91.1776 15.117C91.6889 14.8137 92.2783 14.662 92.9456 14.662C93.6823 14.662 94.3019 14.8267 94.8046 15.156C95.3159 15.4853 95.6799 15.9317 95.8966 16.495L94.6226 17.015C94.3193 16.3043 93.7516 15.949 92.9196 15.949C92.5556 15.949 92.2219 16.0443 91.9186 16.235C91.6153 16.417 91.3726 16.677 91.1906 17.015C91.0086 17.3443 90.9176 17.7343 90.9176 18.185C90.9176 18.6357 91.0086 19.03 91.1906 19.368C91.3726 19.706 91.6153 19.966 91.9186 20.148C92.2219 20.33 92.5556 20.421 92.9196 20.421C93.3443 20.421 93.7039 20.3257 93.9986 20.135C94.2933 19.9357 94.5229 19.667 94.6876 19.329L95.9356 19.875C95.7016 20.4037 95.3289 20.8413 94.8176 21.188C94.3063 21.5347 93.6823 21.708 92.9456 21.708ZM97.9453 13.895C97.6853 13.895 97.46 13.804 97.2693 13.622C97.0873 13.4313 96.9963 13.206 96.9963 12.946C96.9963 12.686 97.0873 12.465 97.2693 12.283C97.46 12.101 97.6853 12.01 97.9453 12.01C98.2053 12.01 98.4263 12.101 98.6083 12.283C98.799 12.465 98.8943 12.686 98.8943 12.946C98.8943 13.206 98.799 13.4313 98.6083 13.622C98.4263 13.804 98.2053 13.895 97.9453 13.895ZM97.2433 21.5V14.87H98.6473V21.5H97.2433ZM103.446 21.708C102.761 21.708 102.159 21.552 101.639 21.24C101.119 20.928 100.712 20.5077 100.417 19.979C100.122 19.4503 99.9748 18.8523 99.9748 18.185C99.9748 17.5263 100.122 16.9327 100.417 16.404C100.712 15.8667 101.119 15.442 101.639 15.13C102.159 14.818 102.761 14.662 103.446 14.662C104.122 14.662 104.72 14.818 105.24 15.13C105.76 15.442 106.167 15.8667 106.462 16.404C106.757 16.9327 106.904 17.5263 106.904 18.185C106.904 18.8523 106.757 19.4503 106.462 19.979C106.167 20.5077 105.76 20.928 105.24 21.24C104.72 21.552 104.122 21.708 103.446 21.708ZM103.446 20.421C103.81 20.421 104.148 20.3343 104.46 20.161C104.772 19.979 105.023 19.7233 105.214 19.394C105.413 19.056 105.513 18.653 105.513 18.185C105.513 17.717 105.413 17.3183 105.214 16.989C105.023 16.651 104.772 16.3953 104.46 16.222C104.148 16.04 103.81 15.949 103.446 15.949C103.082 15.949 102.74 16.04 102.419 16.222C102.107 16.3953 101.851 16.651 101.652 16.989C101.461 17.3183 101.366 17.717 101.366 18.185C101.366 18.653 101.461 19.056 101.652 19.394C101.851 19.7233 102.107 19.979 102.419 20.161C102.74 20.3343 103.082 20.421 103.446 20.421ZM108.07 21.5V14.87H109.396V15.78H109.474C109.665 15.4593 109.946 15.195 110.319 14.987C110.7 14.7703 111.116 14.662 111.567 14.662C112.382 14.662 112.993 14.9047 113.4 15.39C113.807 15.8753 114.011 16.5167 114.011 17.314V21.5H112.62V17.496C112.62 16.9587 112.486 16.5687 112.217 16.326C111.948 16.0747 111.597 15.949 111.164 15.949C110.826 15.949 110.531 16.0443 110.28 16.235C110.029 16.417 109.829 16.6597 109.682 16.963C109.543 17.2663 109.474 17.5913 109.474 17.938V21.5H108.07ZM117.628 21.708C117.151 21.708 116.726 21.617 116.354 21.435C115.981 21.2443 115.691 20.98 115.483 20.642C115.275 20.304 115.171 19.9183 115.171 19.485C115.171 19.017 115.292 18.6183 115.535 18.289C115.786 17.951 116.12 17.6953 116.536 17.522C116.952 17.3487 117.411 17.262 117.914 17.262C118.33 17.262 118.694 17.301 119.006 17.379C119.326 17.457 119.569 17.5393 119.734 17.626V17.275C119.734 16.8417 119.578 16.495 119.266 16.235C118.954 15.975 118.551 15.845 118.057 15.845C117.719 15.845 117.398 15.923 117.095 16.079C116.791 16.2263 116.549 16.43 116.367 16.69L115.405 15.949C115.691 15.5503 116.068 15.2383 116.536 15.013C117.012 14.779 117.532 14.662 118.096 14.662C119.058 14.662 119.799 14.9003 120.319 15.377C120.839 15.845 121.099 16.5037 121.099 17.353V21.5H119.734V20.681H119.656C119.482 20.9497 119.222 21.188 118.876 21.396C118.529 21.604 118.113 21.708 117.628 21.708ZM117.875 20.564C118.239 20.564 118.559 20.4773 118.837 20.304C119.114 20.1307 119.331 19.9053 119.487 19.628C119.651 19.342 119.734 19.0343 119.734 18.705C119.534 18.5923 119.3 18.5013 119.032 18.432C118.763 18.354 118.477 18.315 118.174 18.315C117.602 18.315 117.194 18.432 116.952 18.666C116.709 18.8913 116.588 19.1687 116.588 19.498C116.588 19.81 116.705 20.0657 116.939 20.265C117.173 20.4643 117.485 20.564 117.875 20.564ZM122.644 21.5V14.87H123.97V15.845H124.048C124.196 15.507 124.447 15.2297 124.802 15.013C125.166 14.7877 125.556 14.675 125.972 14.675C126.154 14.675 126.306 14.688 126.427 14.714C126.557 14.74 126.674 14.7703 126.778 14.805V16.261C126.614 16.1917 126.445 16.1353 126.271 16.092C126.107 16.0487 125.933 16.027 125.751 16.027C125.422 16.027 125.127 16.118 124.867 16.3C124.616 16.4733 124.417 16.7117 124.269 17.015C124.122 17.3097 124.048 17.6347 124.048 17.99V21.5H122.644ZM132.976 21.708C132.499 21.708 132.075 21.617 131.702 21.435C131.329 21.2443 131.039 20.98 130.831 20.642C130.623 20.304 130.519 19.9183 130.519 19.485C130.519 19.017 130.64 18.6183 130.883 18.289C131.134 17.951 131.468 17.6953 131.884 17.522C132.3 17.3487 132.759 17.262 133.262 17.262C133.678 17.262 134.042 17.301 134.354 17.379C134.675 17.457 134.917 17.5393 135.082 17.626V17.275C135.082 16.8417 134.926 16.495 134.614 16.235C134.302 15.975 133.899 15.845 133.405 15.845C133.067 15.845 132.746 15.923 132.443 16.079C132.14 16.2263 131.897 16.43 131.715 16.69L130.753 15.949C131.039 15.5503 131.416 15.2383 131.884 15.013C132.361 14.779 132.881 14.662 133.444 14.662C134.406 14.662 135.147 14.9003 135.667 15.377C136.187 15.845 136.447 16.5037 136.447 17.353V21.5H135.082V20.681H135.004C134.831 20.9497 134.571 21.188 134.224 21.396C133.877 21.604 133.461 21.708 132.976 21.708ZM133.223 20.564C133.587 20.564 133.908 20.4773 134.185 20.304C134.462 20.1307 134.679 19.9053 134.835 19.628C135 19.342 135.082 19.0343 135.082 18.705C134.883 18.5923 134.649 18.5013 134.38 18.432C134.111 18.354 133.825 18.315 133.522 18.315C132.95 18.315 132.543 18.432 132.3 18.666C132.057 18.8913 131.936 19.1687 131.936 19.498C131.936 19.81 132.053 20.0657 132.287 20.265C132.521 20.4643 132.833 20.564 133.223 20.564Z" fill="white"/>
<path d="M76.106 41.772C75.2107 41.772 74.3777 41.6133 73.607 41.296C72.8363 40.9673 72.162 40.514 71.584 39.936C71.0173 39.358 70.5697 38.6837 70.241 37.913C69.9237 37.1423 69.765 36.3093 69.765 35.414C69.765 34.5187 69.9237 33.6857 70.241 32.915C70.5697 32.1443 71.0173 31.47 71.584 30.892C72.162 30.314 72.8363 29.8663 73.607 29.549C74.3777 29.2203 75.2107 29.056 76.106 29.056C77.058 29.056 77.908 29.2317 78.656 29.583C79.404 29.923 80.0557 30.4103 80.611 31.045L79.302 32.32C78.894 31.8327 78.4293 31.4643 77.908 31.215C77.398 30.9543 76.803 30.824 76.123 30.824C75.307 30.824 74.559 31.0167 73.879 31.402C73.199 31.776 72.655 32.3087 72.247 33C71.8503 33.68 71.652 34.4847 71.652 35.414C71.652 36.3433 71.8503 37.1537 72.247 37.845C72.655 38.525 73.199 39.0577 73.879 39.443C74.559 39.817 75.307 40.004 76.123 40.004C76.8597 40.004 77.5113 39.851 78.078 39.545C78.656 39.239 79.166 38.8197 79.608 38.287L80.951 39.579C80.3843 40.2477 79.6873 40.7803 78.86 41.177C78.044 41.5737 77.126 41.772 76.106 41.772ZM85.126 41.772C84.5026 41.772 83.9473 41.653 83.46 41.415C82.9726 41.1657 82.593 40.82 82.321 40.378C82.049 39.936 81.913 39.4317 81.913 38.865C81.913 38.253 82.0716 37.7317 82.389 37.301C82.7176 36.859 83.154 36.5247 83.698 36.298C84.242 36.0713 84.8426 35.958 85.5 35.958C86.044 35.958 86.52 36.009 86.928 36.111C87.3473 36.213 87.6646 36.3207 87.88 36.434V35.975C87.88 35.4083 87.676 34.955 87.268 34.615C86.86 34.275 86.333 34.105 85.687 34.105C85.245 34.105 84.8256 34.207 84.429 34.411C84.0323 34.6037 83.715 34.87 83.477 35.21L82.219 34.241C82.593 33.7197 83.086 33.3117 83.698 33.017C84.3213 32.711 85.0013 32.558 85.738 32.558C86.996 32.558 87.965 32.8697 88.645 33.493C89.325 34.105 89.665 34.9663 89.665 36.077V41.5H87.88V40.429H87.778C87.5513 40.7803 87.2113 41.092 86.758 41.364C86.3046 41.636 85.7606 41.772 85.126 41.772ZM85.449 40.276C85.925 40.276 86.3443 40.1627 86.707 39.936C87.0696 39.7093 87.353 39.4147 87.557 39.052C87.7723 38.678 87.88 38.2757 87.88 37.845C87.6193 37.6977 87.3133 37.5787 86.962 37.488C86.6106 37.386 86.2366 37.335 85.84 37.335C85.092 37.335 84.5593 37.488 84.242 37.794C83.9246 38.0887 83.766 38.4513 83.766 38.882C83.766 39.29 83.919 39.6243 84.225 39.885C84.531 40.1457 84.939 40.276 85.449 40.276ZM99.4892 38.984V34.428H97.9762V32.83H99.4892V30.382H101.325V32.83H103.45V34.428H101.325V38.593C101.325 39.0237 101.41 39.3523 101.58 39.579C101.762 39.8057 102.062 39.919 102.481 39.919C102.697 39.919 102.878 39.8907 103.025 39.834C103.184 39.7773 103.343 39.698 103.501 39.596V41.381C103.309 41.4603 103.105 41.5227 102.889 41.568C102.674 41.6133 102.425 41.636 102.141 41.636C101.325 41.636 100.679 41.4037 100.203 40.939C99.7272 40.463 99.4892 39.8113 99.4892 38.984ZM91.6862 41.5V32.83H93.4202V34.105H93.5222C93.7489 33.629 94.1002 33.2607 94.5762 33C95.0522 32.728 95.5679 32.592 96.1232 32.592C96.4406 32.592 96.6786 32.6147 96.8372 32.66V34.496C96.5879 34.4167 96.2819 34.377 95.9192 34.377C95.1939 34.377 94.6102 34.6093 94.1682 35.074C93.7376 35.5387 93.5222 36.1677 93.5222 36.961V41.5H91.6862ZM108.862 41.772C108.012 41.772 107.253 41.5737 106.584 41.177C105.915 40.7803 105.388 40.2363 105.003 39.545C104.629 38.8537 104.442 38.066 104.442 37.182C104.442 36.3547 104.623 35.5897 104.986 34.887C105.349 34.1843 105.853 33.6233 106.499 33.204C107.156 32.7733 107.91 32.558 108.76 32.558C109.655 32.558 110.415 32.7507 111.038 33.136C111.673 33.5213 112.154 34.0483 112.483 34.717C112.812 35.3857 112.976 36.1393 112.976 36.978C112.976 37.1027 112.97 37.216 112.959 37.318C112.959 37.42 112.953 37.4993 112.942 37.556H106.244C106.335 38.4173 106.635 39.0633 107.145 39.494C107.666 39.9247 108.256 40.14 108.913 40.14C109.502 40.14 109.99 40.0097 110.375 39.749C110.76 39.477 111.066 39.1427 111.293 38.746L112.806 39.477C112.432 40.157 111.922 40.7123 111.276 41.143C110.63 41.5623 109.825 41.772 108.862 41.772ZM108.777 34.122C108.165 34.122 107.644 34.309 107.213 34.683C106.782 35.057 106.493 35.5557 106.346 36.179H111.157C111.134 35.8843 111.038 35.5783 110.868 35.261C110.698 34.9437 110.437 34.6773 110.086 34.462C109.746 34.2353 109.31 34.122 108.777 34.122ZM115.733 31.555C115.393 31.555 115.099 31.436 114.849 31.198C114.611 30.9487 114.492 30.654 114.492 30.314C114.492 29.974 114.611 29.685 114.849 29.447C115.099 29.209 115.393 29.09 115.733 29.09C116.073 29.09 116.362 29.209 116.6 29.447C116.85 29.685 116.974 29.974 116.974 30.314C116.974 30.654 116.85 30.9487 116.6 31.198C116.362 31.436 116.073 31.555 115.733 31.555ZM114.815 41.5V32.83H116.651V41.5H114.815ZM118.929 41.5V32.83H120.663V34.105H120.765C120.958 33.663 121.287 33.3003 121.751 33.017C122.227 32.7223 122.737 32.575 123.281 32.575C123.519 32.575 123.718 32.592 123.876 32.626C124.046 32.66 124.199 32.6997 124.335 32.745V34.649C124.12 34.5583 123.899 34.4847 123.672 34.428C123.457 34.3713 123.23 34.343 122.992 34.343C122.562 34.343 122.176 34.462 121.836 34.7C121.508 34.9267 121.247 35.2383 121.054 35.635C120.862 36.0203 120.765 36.4453 120.765 36.91V41.5H118.929ZM128.174 41.772C127.55 41.772 126.995 41.653 126.508 41.415C126.02 41.1657 125.641 40.82 125.369 40.378C125.097 39.936 124.961 39.4317 124.961 38.865C124.961 38.253 125.119 37.7317 125.437 37.301C125.765 36.859 126.202 36.5247 126.746 36.298C127.29 36.0713 127.89 35.958 128.548 35.958C129.092 35.958 129.568 36.009 129.976 36.111C130.395 36.213 130.712 36.3207 130.928 36.434V35.975C130.928 35.4083 130.724 34.955 130.316 34.615C129.908 34.275 129.381 34.105 128.735 34.105C128.293 34.105 127.873 34.207 127.477 34.411C127.08 34.6037 126.763 34.87 126.525 35.21L125.267 34.241C125.641 33.7197 126.134 33.3117 126.746 33.017C127.369 32.711 128.049 32.558 128.786 32.558C130.044 32.558 131.013 32.8697 131.693 33.493C132.373 34.105 132.713 34.9663 132.713 36.077V41.5H130.928V40.429H130.826C130.599 40.7803 130.259 41.092 129.806 41.364C129.352 41.636 128.808 41.772 128.174 41.772ZM128.497 40.276C128.973 40.276 129.392 40.1627 129.755 39.936C130.117 39.7093 130.401 39.4147 130.605 39.052C130.82 38.678 130.928 38.2757 130.928 37.845C130.667 37.6977 130.361 37.5787 130.01 37.488C129.658 37.386 129.284 37.335 128.888 37.335C128.14 37.335 127.607 37.488 127.29 37.794C126.972 38.0887 126.814 38.4513 126.814 38.882C126.814 39.29 126.967 39.6243 127.273 39.885C127.579 40.1457 127.987 40.276 128.497 40.276ZM142.408 41.772C141.626 41.772 140.918 41.5793 140.283 41.194C139.66 40.7973 139.161 40.2533 138.787 39.562C138.424 38.8593 138.243 38.0603 138.243 37.165C138.243 36.2697 138.424 35.4763 138.787 34.785C139.161 34.0937 139.66 33.5497 140.283 33.153C140.918 32.7563 141.626 32.558 142.408 32.558C143.077 32.558 143.649 32.7053 144.125 33C144.612 33.2947 144.969 33.629 145.196 34.003H145.298L145.196 32.796V29.328H147.015V41.5H145.298V40.344H145.196C144.969 40.718 144.612 41.0523 144.125 41.347C143.649 41.6303 143.077 41.772 142.408 41.772ZM142.68 40.089C143.133 40.089 143.558 39.97 143.955 39.732C144.363 39.494 144.686 39.1597 144.924 38.729C145.173 38.287 145.298 37.7657 145.298 37.165C145.298 36.5643 145.173 36.0487 144.924 35.618C144.686 35.176 144.363 34.836 143.955 34.598C143.558 34.36 143.133 34.241 142.68 34.241C142.227 34.241 141.802 34.36 141.405 34.598C141.008 34.836 140.685 35.176 140.436 35.618C140.187 36.0487 140.062 36.5643 140.062 37.165C140.062 37.7657 140.187 38.287 140.436 38.729C140.685 39.1597 141.008 39.494 141.405 39.732C141.802 39.97 142.227 40.089 142.68 40.089ZM153.174 41.772C152.279 41.772 151.491 41.568 150.811 41.16C150.131 40.752 149.599 40.2023 149.213 39.511C148.828 38.8197 148.635 38.0377 148.635 37.165C148.635 36.3037 148.828 35.5273 149.213 34.836C149.599 34.1333 150.131 33.578 150.811 33.17C151.491 32.762 152.279 32.558 153.174 32.558C154.058 32.558 154.84 32.762 155.52 33.17C156.2 33.578 156.733 34.1333 157.118 34.836C157.504 35.5273 157.696 36.3037 157.696 37.165C157.696 38.0377 157.504 38.8197 157.118 39.511C156.733 40.2023 156.2 40.752 155.52 41.16C154.84 41.568 154.058 41.772 153.174 41.772ZM153.174 40.089C153.65 40.089 154.092 39.9757 154.5 39.749C154.908 39.511 155.237 39.1767 155.486 38.746C155.747 38.304 155.877 37.777 155.877 37.165C155.877 36.553 155.747 36.0317 155.486 35.601C155.237 35.159 154.908 34.8247 154.5 34.598C154.092 34.36 153.65 34.241 153.174 34.241C152.698 34.241 152.251 34.36 151.831 34.598C151.423 34.8247 151.089 35.159 150.828 35.601C150.579 36.0317 150.454 36.553 150.454 37.165C150.454 37.777 150.579 38.304 150.828 38.746C151.089 39.1767 151.423 39.511 151.831 39.749C152.251 39.9757 152.698 40.089 153.174 40.089ZM169.092 41.772C168.219 41.772 167.398 41.6133 166.627 41.296C165.868 40.9787 165.193 40.5367 164.604 39.97C164.015 39.392 163.55 38.7177 163.21 37.947C162.881 37.165 162.717 36.3207 162.717 35.414C162.717 34.5073 162.881 33.6687 163.21 32.898C163.55 32.116 164.009 31.4417 164.587 30.875C165.176 30.297 165.856 29.8493 166.627 29.532C167.398 29.2147 168.219 29.056 169.092 29.056C170.021 29.056 170.877 29.2203 171.659 29.549C172.452 29.8777 173.115 30.3367 173.648 30.926L172.356 32.201C171.959 31.759 171.483 31.419 170.928 31.181C170.384 30.943 169.772 30.824 169.092 30.824C168.287 30.824 167.545 31.0167 166.865 31.402C166.185 31.776 165.635 32.3087 165.216 33C164.808 33.68 164.604 34.4847 164.604 35.414C164.604 36.3433 164.814 37.1537 165.233 37.845C165.652 38.525 166.202 39.0577 166.882 39.443C167.562 39.817 168.304 40.004 169.109 40.004C169.846 40.004 170.514 39.868 171.115 39.596C171.716 39.3127 172.197 38.916 172.56 38.406C172.934 37.896 173.161 37.284 173.24 36.57H169.075V34.921H174.991C175.059 35.227 175.093 35.55 175.093 35.89V35.907C175.093 37.0857 174.832 38.117 174.311 39.001C173.801 39.8737 173.093 40.5537 172.186 41.041C171.279 41.5283 170.248 41.772 169.092 41.772ZM180.567 41.772C179.672 41.772 178.884 41.568 178.204 41.16C177.524 40.752 176.991 40.2023 176.606 39.511C176.221 38.8197 176.028 38.0377 176.028 37.165C176.028 36.3037 176.221 35.5273 176.606 34.836C176.991 34.1333 177.524 33.578 178.204 33.17C178.884 32.762 179.672 32.558 180.567 32.558C181.451 32.558 182.233 32.762 182.913 33.17C183.593 33.578 184.126 34.1333 184.511 34.836C184.896 35.5273 185.089 36.3037 185.089 37.165C185.089 38.0377 184.896 38.8197 184.511 39.511C184.126 40.2023 183.593 40.752 182.913 41.16C182.233 41.568 181.451 41.772 180.567 41.772ZM180.567 40.089C181.043 40.089 181.485 39.9757 181.893 39.749C182.301 39.511 182.63 39.1767 182.879 38.746C183.14 38.304 183.27 37.777 183.27 37.165C183.27 36.553 183.14 36.0317 182.879 35.601C182.63 35.159 182.301 34.8247 181.893 34.598C181.485 34.36 181.043 34.241 180.567 34.241C180.091 34.241 179.643 34.36 179.224 34.598C178.816 34.8247 178.482 35.159 178.221 35.601C177.972 36.0317 177.847 36.553 177.847 37.165C177.847 37.777 177.972 38.304 178.221 38.746C178.482 39.1767 178.816 39.511 179.224 39.749C179.643 39.9757 180.091 40.089 180.567 40.089ZM190.86 41.772C189.965 41.772 189.177 41.568 188.497 41.16C187.817 40.752 187.284 40.2023 186.899 39.511C186.514 38.8197 186.321 38.0377 186.321 37.165C186.321 36.3037 186.514 35.5273 186.899 34.836C187.284 34.1333 187.817 33.578 188.497 33.17C189.177 32.762 189.965 32.558 190.86 32.558C191.744 32.558 192.526 32.762 193.206 33.17C193.886 33.578 194.419 34.1333 194.804 34.836C195.189 35.5273 195.382 36.3037 195.382 37.165C195.382 38.0377 195.189 38.8197 194.804 39.511C194.419 40.2023 193.886 40.752 193.206 41.16C192.526 41.568 191.744 41.772 190.86 41.772ZM190.86 40.089C191.336 40.089 191.778 39.9757 192.186 39.749C192.594 39.511 192.923 39.1767 193.172 38.746C193.433 38.304 193.563 37.777 193.563 37.165C193.563 36.553 193.433 36.0317 193.172 35.601C192.923 35.159 192.594 34.8247 192.186 34.598C191.778 34.36 191.336 34.241 190.86 34.241C190.384 34.241 189.936 34.36 189.517 34.598C189.109 34.8247 188.775 35.159 188.514 35.601C188.265 36.0317 188.14 36.553 188.14 37.165C188.14 37.777 188.265 38.304 188.514 38.746C188.775 39.1767 189.109 39.511 189.517 39.749C189.936 39.9757 190.384 40.089 190.86 40.089ZM200.983 45.444C200.224 45.444 199.566 45.3193 199.011 45.07C198.467 44.832 198.025 44.5203 197.685 44.135C197.345 43.761 197.101 43.3757 196.954 42.979L198.654 42.265C198.835 42.7183 199.124 43.0867 199.521 43.37C199.929 43.6647 200.416 43.812 200.983 43.812C201.776 43.812 202.4 43.574 202.853 43.098C203.318 42.622 203.55 41.9477 203.55 41.075V40.242H203.448C203.176 40.65 202.796 40.9787 202.309 41.228C201.833 41.466 201.289 41.585 200.677 41.585C199.94 41.585 199.266 41.398 198.654 41.024C198.042 40.65 197.549 40.1287 197.175 39.46C196.801 38.78 196.614 37.9867 196.614 37.08C196.614 36.162 196.801 35.3687 197.175 34.7C197.549 34.02 198.042 33.493 198.654 33.119C199.266 32.745 199.94 32.558 200.677 32.558C201.289 32.558 201.833 32.6827 202.309 32.932C202.796 33.1813 203.176 33.51 203.448 33.918H203.55V32.83H205.301V41.041C205.301 41.9817 205.114 42.7807 204.74 43.438C204.377 44.0953 203.873 44.594 203.227 44.934C202.581 45.274 201.833 45.444 200.983 45.444ZM201 39.919C201.453 39.919 201.873 39.8113 202.258 39.596C202.643 39.3693 202.955 39.0463 203.193 38.627C203.431 38.1963 203.55 37.6807 203.55 37.08C203.55 36.4567 203.431 35.9353 203.193 35.516C202.955 35.0853 202.643 34.7623 202.258 34.547C201.873 34.3317 201.453 34.224 201 34.224C200.547 34.224 200.122 34.3373 199.725 34.564C199.34 34.7793 199.028 35.0967 198.79 35.516C198.552 35.9353 198.433 36.4567 198.433 37.08C198.433 37.692 198.552 38.2133 198.79 38.644C199.028 39.0633 199.34 39.3807 199.725 39.596C200.122 39.8113 200.547 39.919 201 39.919ZM207.466 41.5V29.328H209.302V41.5H207.466ZM215.345 41.772C214.495 41.772 213.735 41.5737 213.067 41.177C212.398 40.7803 211.871 40.2363 211.486 39.545C211.112 38.8537 210.925 38.066 210.925 37.182C210.925 36.3547 211.106 35.5897 211.469 34.887C211.831 34.1843 212.336 33.6233 212.982 33.204C213.639 32.7733 214.393 32.558 215.243 32.558C216.138 32.558 216.897 32.7507 217.521 33.136C218.155 33.5213 218.637 34.0483 218.966 34.717C219.294 35.3857 219.459 36.1393 219.459 36.978C219.459 37.1027 219.453 37.216 219.442 37.318C219.442 37.42 219.436 37.4993 219.425 37.556H212.727C212.817 38.4173 213.118 39.0633 213.628 39.494C214.149 39.9247 214.738 40.14 215.396 40.14C215.985 40.14 216.472 40.0097 216.858 39.749C217.243 39.477 217.549 39.1427 217.776 38.746L219.288 39.477C218.915 40.157 218.405 40.7123 217.759 41.143C217.113 41.5623 216.308 41.772 215.345 41.772ZM215.26 34.122C214.648 34.122 214.126 34.309 213.696 34.683C213.265 35.057 212.976 35.5557 212.829 36.179H217.64C217.617 35.8843 217.521 35.5783 217.351 35.261C217.181 34.9437 216.92 34.6773 216.569 34.462C216.229 34.2353 215.792 34.122 215.26 34.122Z" fill="white"/>
<rect x="0.5" y="0.5" width="239" height="54" rx="27" stroke="#747775"/>
<defs>
<linearGradient id="paint0_linear_1819_24567" x1="37.2843" y1="34.0448" x2="18.7823" y2="55.7227" gradientUnits="userSpaceOnUse">
<stop stop-color="#4285F4"/>
<stop offset="1" stop-color="#1B74E8"/>
</linearGradient>
</defs>
</svg>
