<svg width="222" height="55" viewBox="0 0 222 55" fill="none" xmlns="http://www.w3.org/2000/svg">
<rect x="0.5" y="0.5" width="221" height="54" rx="27" fill="#1F1F1F"/>
<path d="M57 23.791H21V18.1456C21 15.0809 23.6422 12.5001 26.7798 12.5001H51.2202C54.3578 12.5001 57 15.0809 57 18.1456V23.791Z" fill="#34A853"/>
<path d="M57 29H21V23C21 19.7429 23.6422 17 26.7798 17H51.2202C54.3578 17 57 19.7429 57 23V29Z" fill="#FBBC04"/>
<path d="M57 34H21V28C21 24.7429 23.6422 22 26.7798 22H51.2202C54.3578 22 57 24.7429 57 28V34Z" fill="#EA4335"/>
<path d="M21 25.2409L43.8493 30.4025C46.4795 31.0477 49.4384 30.4025 51.5753 28.7895L57 24.9183V37.0157C57 40.0804 54.3699 42.4999 51.2466 42.4999H26.7534C23.6301 42.4999 21 40.0804 21 37.0157V25.2409Z" fill="url(#paint0_linear_1819_23940)"/>
<path d="M69.481 23.476V20.148H70.3C70.4993 19.8187 70.6597 19.394 70.781 18.874C70.911 18.3453 71.002 17.7647 71.054 17.132C71.1147 16.4993 71.145 15.8623 71.145 15.221V12.192H77.112V20.148H78.204V23.476H76.813V21.5H70.872V23.476H69.481ZM71.86 20.148H75.682V13.544H72.536V15.429C72.536 16.3737 72.4753 17.2447 72.354 18.042C72.2413 18.8393 72.0767 19.5153 71.86 20.07V20.148ZM82.4859 21.708C81.8012 21.708 81.1989 21.552 80.6789 21.24C80.1589 20.928 79.7515 20.5077 79.4569 19.979C79.1622 19.4503 79.0149 18.8523 79.0149 18.185C79.0149 17.5263 79.1622 16.9327 79.4569 16.404C79.7515 15.8667 80.1589 15.442 80.6789 15.13C81.1989 14.818 81.8012 14.662 82.4859 14.662C83.1619 14.662 83.7599 14.818 84.2799 15.13C84.7999 15.442 85.2072 15.8667 85.5019 16.404C85.7965 16.9327 85.9439 17.5263 85.9439 18.185C85.9439 18.8523 85.7965 19.4503 85.5019 19.979C85.2072 20.5077 84.7999 20.928 84.2799 21.24C83.7599 21.552 83.1619 21.708 82.4859 21.708ZM82.4859 20.421C82.8499 20.421 83.1879 20.3343 83.4999 20.161C83.8119 19.979 84.0632 19.7233 84.2539 19.394C84.4532 19.056 84.5529 18.653 84.5529 18.185C84.5529 17.717 84.4532 17.3183 84.2539 16.989C84.0632 16.651 83.8119 16.3953 83.4999 16.222C83.1879 16.04 82.8499 15.949 82.4859 15.949C82.1219 15.949 81.7795 16.04 81.4589 16.222C81.1469 16.3953 80.8912 16.651 80.6919 16.989C80.5012 17.3183 80.4059 17.717 80.4059 18.185C80.4059 18.653 80.5012 19.056 80.6919 19.394C80.8912 19.7233 81.1469 19.979 81.4589 20.161C81.7795 20.3343 82.1219 20.421 82.4859 20.421ZM90.383 21.708C89.733 21.708 89.1566 21.5607 88.654 21.266C88.16 20.9627 87.77 20.5077 87.484 19.901C87.198 19.2857 87.055 18.5143 87.055 17.587C87.055 16.6423 87.1503 15.8623 87.341 15.247C87.5316 14.623 87.848 14.1203 88.29 13.739C88.5673 13.505 88.9096 13.31 89.317 13.154C89.733 12.998 90.2486 12.8723 90.864 12.777C91.1846 12.725 91.4186 12.673 91.566 12.621C91.7133 12.569 91.8043 12.5083 91.839 12.439C91.8823 12.3697 91.904 12.2873 91.904 12.192H93.178C93.178 12.582 93.1173 12.894 92.996 13.128C92.8833 13.3533 92.6753 13.5267 92.372 13.648C92.0773 13.7693 91.657 13.869 91.111 13.947C90.539 14.0337 90.1013 14.1377 89.798 14.259C89.5033 14.3803 89.2606 14.519 89.07 14.675C88.6453 15.0217 88.3853 15.5157 88.29 16.157H88.368C88.5673 15.8537 88.862 15.6023 89.252 15.403C89.6506 15.195 90.11 15.091 90.63 15.091C91.2453 15.091 91.787 15.234 92.255 15.52C92.723 15.7973 93.087 16.1787 93.347 16.664C93.6156 17.1493 93.75 17.6997 93.75 18.315C93.75 18.9563 93.607 19.537 93.321 20.057C93.0436 20.5683 92.6493 20.9713 92.138 21.266C91.6353 21.5607 91.0503 21.708 90.383 21.708ZM90.396 20.447C90.9506 20.447 91.4143 20.2563 91.787 19.875C92.1596 19.4937 92.346 18.965 92.346 18.289C92.346 17.6737 92.1596 17.1927 91.787 16.846C91.4143 16.4993 90.9506 16.326 90.396 16.326C89.8586 16.326 89.3993 16.4993 89.018 16.846C88.6453 17.1927 88.459 17.6737 88.459 18.289C88.459 18.965 88.641 19.4937 89.005 19.875C89.3776 20.2563 89.8413 20.447 90.396 20.447ZM97.1119 21.708C96.6352 21.708 96.2106 21.617 95.8379 21.435C95.4652 21.2443 95.1749 20.98 94.9669 20.642C94.7589 20.304 94.6549 19.9183 94.6549 19.485C94.6549 19.017 94.7762 18.6183 95.0189 18.289C95.2702 17.951 95.6039 17.6953 96.0199 17.522C96.4359 17.3487 96.8952 17.262 97.3979 17.262C97.8139 17.262 98.1779 17.301 98.4899 17.379C98.8106 17.457 99.0532 17.5393 99.2179 17.626V17.275C99.2179 16.8417 99.0619 16.495 98.7499 16.235C98.4379 15.975 98.0349 15.845 97.5409 15.845C97.2029 15.845 96.8822 15.923 96.5789 16.079C96.2756 16.2263 96.0329 16.43 95.8509 16.69L94.8889 15.949C95.1749 15.5503 95.5519 15.2383 96.0199 15.013C96.4966 14.779 97.0166 14.662 97.5799 14.662C98.5419 14.662 99.2829 14.9003 99.8029 15.377C100.323 15.845 100.583 16.5037 100.583 17.353V21.5H99.2179V20.681H99.1399C98.9666 20.9497 98.7066 21.188 98.3599 21.396C98.0132 21.604 97.5972 21.708 97.1119 21.708ZM97.3589 20.564C97.7229 20.564 98.0436 20.4773 98.3209 20.304C98.5982 20.1307 98.8149 19.9053 98.9709 19.628C99.1356 19.342 99.2179 19.0343 99.2179 18.705C99.0186 18.5923 98.7846 18.5013 98.5159 18.432C98.2472 18.354 97.9612 18.315 97.6579 18.315C97.0859 18.315 96.6786 18.432 96.4359 18.666C96.1932 18.8913 96.0719 19.1687 96.0719 19.498C96.0719 19.81 96.1889 20.0657 96.4229 20.265C96.6569 20.4643 96.9689 20.564 97.3589 20.564ZM102.129 21.5V14.87H105.418C105.808 14.87 106.154 14.948 106.458 15.104C106.77 15.2513 107.012 15.455 107.186 15.715C107.368 15.975 107.459 16.2653 107.459 16.586C107.459 16.9327 107.381 17.2317 107.225 17.483C107.077 17.7343 106.882 17.9207 106.64 18.042V18.12C106.969 18.25 107.229 18.445 107.42 18.705C107.619 18.965 107.719 19.264 107.719 19.602C107.719 19.992 107.615 20.33 107.407 20.616C107.207 20.902 106.947 21.123 106.627 21.279C106.306 21.4263 105.964 21.5 105.6 21.5H102.129ZM103.533 16.014V17.574H105.249C105.483 17.574 105.678 17.5003 105.834 17.353C105.99 17.2057 106.068 17.0193 106.068 16.794C106.068 16.56 105.99 16.3737 105.834 16.235C105.678 16.0877 105.483 16.014 105.249 16.014H103.533ZM103.533 20.33H105.457C105.708 20.33 105.916 20.252 106.081 20.096C106.254 19.9313 106.341 19.7233 106.341 19.472C106.341 19.2293 106.254 19.0257 106.081 18.861C105.916 18.6963 105.708 18.614 105.457 18.614H103.533V20.33ZM109.022 21.5V14.87H110.426V18.263L110.348 19.511H110.426L113.741 14.87H115.132V21.5H113.741V18.12L113.819 16.872H113.741L110.426 21.5H109.022ZM118.469 21.5V16.092H116.285V14.87H122.044V16.092H119.86V21.5H118.469ZM124.594 14.87V17.08H126.115C126.566 17.08 126.969 17.1753 127.324 17.366C127.688 17.5567 127.974 17.821 128.182 18.159C128.39 18.4883 128.494 18.8653 128.494 19.29C128.494 19.7147 128.39 20.0917 128.182 20.421C127.974 20.7503 127.688 21.0147 127.324 21.214C126.969 21.4047 126.566 21.5 126.115 21.5H123.19V14.87H124.594ZM124.594 20.33H125.998C126.31 20.33 126.57 20.2303 126.778 20.031C126.986 19.8317 127.09 19.5847 127.09 19.29C127.09 18.9953 126.986 18.7483 126.778 18.549C126.57 18.341 126.31 18.237 125.998 18.237H124.594V20.33ZM132.699 21.5V14.87H135.988C136.378 14.87 136.725 14.948 137.028 15.104C137.34 15.2513 137.583 15.455 137.756 15.715C137.938 15.975 138.029 16.2653 138.029 16.586C138.029 16.9327 137.951 17.2317 137.795 17.483C137.648 17.7343 137.453 17.9207 137.21 18.042V18.12C137.539 18.25 137.799 18.445 137.99 18.705C138.189 18.965 138.289 19.264 138.289 19.602C138.289 19.992 138.185 20.33 137.977 20.616C137.778 20.902 137.518 21.123 137.197 21.279C136.876 21.4263 136.534 21.5 136.17 21.5H132.699ZM134.103 16.014V17.574H135.819C136.053 17.574 136.248 17.5003 136.404 17.353C136.56 17.2057 136.638 17.0193 136.638 16.794C136.638 16.56 136.56 16.3737 136.404 16.235C136.248 16.0877 136.053 16.014 135.819 16.014H134.103ZM134.103 20.33H136.027C136.278 20.33 136.486 20.252 136.651 20.096C136.824 19.9313 136.911 19.7233 136.911 19.472C136.911 19.2293 136.824 19.0257 136.651 18.861C136.486 18.6963 136.278 18.614 136.027 18.614H134.103V20.33Z" fill="white"/>
<path d="M76.14 41.772C75.2673 41.772 74.4457 41.6133 73.675 41.296C72.9157 40.9787 72.2413 40.5367 71.652 39.97C71.0627 39.392 70.598 38.7177 70.258 37.947C69.9293 37.165 69.765 36.3207 69.765 35.414C69.765 34.5073 69.9293 33.6687 70.258 32.898C70.598 32.116 71.057 31.4417 71.635 30.875C72.2243 30.297 72.9043 29.8493 73.675 29.532C74.4457 29.2147 75.2673 29.056 76.14 29.056C77.0693 29.056 77.925 29.2203 78.707 29.549C79.5003 29.8777 80.1633 30.3367 80.696 30.926L79.404 32.201C79.0073 31.759 78.5313 31.419 77.976 31.181C77.432 30.943 76.82 30.824 76.14 30.824C75.3353 30.824 74.593 31.0167 73.913 31.402C73.233 31.776 72.6833 32.3087 72.264 33C71.856 33.68 71.652 34.4847 71.652 35.414C71.652 36.3433 71.8617 37.1537 72.281 37.845C72.7003 38.525 73.25 39.0577 73.93 39.443C74.61 39.817 75.3523 40.004 76.157 40.004C76.8937 40.004 77.5623 39.868 78.163 39.596C78.7637 39.3127 79.2453 38.916 79.608 38.406C79.982 37.896 80.2087 37.284 80.288 36.57H76.123V34.921H82.039C82.107 35.227 82.141 35.55 82.141 35.89V35.907C82.141 37.0857 81.8803 38.117 81.359 39.001C80.849 39.8737 80.1407 40.5537 79.234 41.041C78.3273 41.5283 77.296 41.772 76.14 41.772ZM87.6149 41.772C86.7195 41.772 85.9319 41.568 85.2519 41.16C84.5719 40.752 84.0392 40.2023 83.6539 39.511C83.2685 38.8197 83.0759 38.0377 83.0759 37.165C83.0759 36.3037 83.2685 35.5273 83.6539 34.836C84.0392 34.1333 84.5719 33.578 85.2519 33.17C85.9319 32.762 86.7195 32.558 87.6149 32.558C88.4989 32.558 89.2809 32.762 89.9609 33.17C90.6409 33.578 91.1735 34.1333 91.5589 34.836C91.9442 35.5273 92.1369 36.3037 92.1369 37.165C92.1369 38.0377 91.9442 38.8197 91.5589 39.511C91.1735 40.2023 90.6409 40.752 89.9609 41.16C89.2809 41.568 88.4989 41.772 87.6149 41.772ZM87.6149 40.089C88.0909 40.089 88.5329 39.9757 88.9409 39.749C89.3489 39.511 89.6775 39.1767 89.9269 38.746C90.1875 38.304 90.3179 37.777 90.3179 37.165C90.3179 36.553 90.1875 36.0317 89.9269 35.601C89.6775 35.159 89.3489 34.8247 88.9409 34.598C88.5329 34.36 88.0909 34.241 87.6149 34.241C87.1389 34.241 86.6912 34.36 86.2719 34.598C85.8639 34.8247 85.5295 35.159 85.2689 35.601C85.0195 36.0317 84.8949 36.553 84.8949 37.165C84.8949 37.777 85.0195 38.304 85.2689 38.746C85.5295 39.1767 85.8639 39.511 86.2719 39.749C86.6912 39.9757 87.1389 40.089 87.6149 40.089ZM97.9078 41.772C97.0125 41.772 96.2248 41.568 95.5448 41.16C94.8648 40.752 94.3322 40.2023 93.9468 39.511C93.5615 38.8197 93.3688 38.0377 93.3688 37.165C93.3688 36.3037 93.5615 35.5273 93.9468 34.836C94.3322 34.1333 94.8648 33.578 95.5448 33.17C96.2248 32.762 97.0125 32.558 97.9078 32.558C98.7918 32.558 99.5738 32.762 100.254 33.17C100.934 33.578 101.467 34.1333 101.852 34.836C102.237 35.5273 102.43 36.3037 102.43 37.165C102.43 38.0377 102.237 38.8197 101.852 39.511C101.467 40.2023 100.934 40.752 100.254 41.16C99.5738 41.568 98.7918 41.772 97.9078 41.772ZM97.9078 40.089C98.3838 40.089 98.8258 39.9757 99.2338 39.749C99.6418 39.511 99.9705 39.1767 100.22 38.746C100.481 38.304 100.611 37.777 100.611 37.165C100.611 36.553 100.481 36.0317 100.22 35.601C99.9705 35.159 99.6418 34.8247 99.2338 34.598C98.8258 34.36 98.3838 34.241 97.9078 34.241C97.4318 34.241 96.9842 34.36 96.5648 34.598C96.1568 34.8247 95.8225 35.159 95.5618 35.601C95.3125 36.0317 95.1878 36.553 95.1878 37.165C95.1878 37.777 95.3125 38.304 95.5618 38.746C95.8225 39.1767 96.1568 39.511 96.5648 39.749C96.9842 39.9757 97.4318 40.089 97.9078 40.089ZM108.031 45.444C107.271 45.444 106.614 45.3193 106.059 45.07C105.515 44.832 105.073 44.5203 104.733 44.135C104.393 43.761 104.149 43.3757 104.002 42.979L105.702 42.265C105.883 42.7183 106.172 43.0867 106.569 43.37C106.977 43.6647 107.464 43.812 108.031 43.812C108.824 43.812 109.447 43.574 109.901 43.098C110.365 42.622 110.598 41.9477 110.598 41.075V40.242H110.496C110.224 40.65 109.844 40.9787 109.357 41.228C108.881 41.466 108.337 41.585 107.725 41.585C106.988 41.585 106.314 41.398 105.702 41.024C105.09 40.65 104.597 40.1287 104.223 39.46C103.849 38.78 103.662 37.9867 103.662 37.08C103.662 36.162 103.849 35.3687 104.223 34.7C104.597 34.02 105.09 33.493 105.702 33.119C106.314 32.745 106.988 32.558 107.725 32.558C108.337 32.558 108.881 32.6827 109.357 32.932C109.844 33.1813 110.224 33.51 110.496 33.918H110.598V32.83H112.349V41.041C112.349 41.9817 112.162 42.7807 111.788 43.438C111.425 44.0953 110.921 44.594 110.275 44.934C109.629 45.274 108.881 45.444 108.031 45.444ZM108.048 39.919C108.501 39.919 108.92 39.8113 109.306 39.596C109.691 39.3693 110.003 39.0463 110.241 38.627C110.479 38.1963 110.598 37.6807 110.598 37.08C110.598 36.4567 110.479 35.9353 110.241 35.516C110.003 35.0853 109.691 34.7623 109.306 34.547C108.92 34.3317 108.501 34.224 108.048 34.224C107.594 34.224 107.169 34.3373 106.773 34.564C106.387 34.7793 106.076 35.0967 105.838 35.516C105.6 35.9353 105.481 36.4567 105.481 37.08C105.481 37.692 105.6 38.2133 105.838 38.644C106.076 39.0633 106.387 39.3807 106.773 39.596C107.169 39.8113 107.594 39.919 108.048 39.919ZM114.514 41.5V29.328H116.35V41.5H114.514ZM122.392 41.772C121.542 41.772 120.783 41.5737 120.114 41.177C119.446 40.7803 118.919 40.2363 118.533 39.545C118.159 38.8537 117.972 38.066 117.972 37.182C117.972 36.3547 118.154 35.5897 118.516 34.887C118.879 34.1843 119.383 33.6233 120.029 33.204C120.687 32.7733 121.44 32.558 122.29 32.558C123.186 32.558 123.945 32.7507 124.568 33.136C125.203 33.5213 125.685 34.0483 126.013 34.717C126.342 35.3857 126.506 36.1393 126.506 36.978C126.506 37.1027 126.501 37.216 126.489 37.318C126.489 37.42 126.484 37.4993 126.472 37.556H119.774C119.865 38.4173 120.165 39.0633 120.675 39.494C121.197 39.9247 121.786 40.14 122.443 40.14C123.033 40.14 123.52 40.0097 123.905 39.749C124.291 39.477 124.597 39.1427 124.823 38.746L126.336 39.477C125.962 40.157 125.452 40.7123 124.806 41.143C124.16 41.5623 123.356 41.772 122.392 41.772ZM122.307 34.122C121.695 34.122 121.174 34.309 120.743 34.683C120.313 35.057 120.024 35.5557 119.876 36.179H124.687C124.665 35.8843 124.568 35.5783 124.398 35.261C124.228 34.9437 123.968 34.6773 123.616 34.462C123.276 34.2353 122.84 34.122 122.307 34.122ZM132.483 41.5V29.328H134.353V35.227H134.455L139.3 29.328H141.646V29.43L136.512 35.516L141.918 41.398V41.5H139.47L134.455 35.924H134.353V41.5H132.483ZM146.584 41.772C145.688 41.772 144.901 41.568 144.221 41.16C143.541 40.752 143.008 40.2023 142.623 39.511C142.237 38.8197 142.045 38.0377 142.045 37.165C142.045 36.3037 142.237 35.5273 142.623 34.836C143.008 34.1333 143.541 33.578 144.221 33.17C144.901 32.762 145.688 32.558 146.584 32.558C147.468 32.558 148.25 32.762 148.93 33.17C149.61 33.578 150.142 34.1333 150.528 34.836C150.913 35.5273 151.106 36.3037 151.106 37.165C151.106 38.0377 150.913 38.8197 150.528 39.511C150.142 40.2023 149.61 40.752 148.93 41.16C148.25 41.568 147.468 41.772 146.584 41.772ZM146.584 40.089C147.06 40.089 147.502 39.9757 147.91 39.749C148.318 39.511 148.646 39.1767 148.896 38.746C149.156 38.304 149.287 37.777 149.287 37.165C149.287 36.553 149.156 36.0317 148.896 35.601C148.646 35.159 148.318 34.8247 147.91 34.598C147.502 34.36 147.06 34.241 146.584 34.241C146.108 34.241 145.66 34.36 145.241 34.598C144.833 34.8247 144.498 35.159 144.238 35.601C143.988 36.0317 143.864 36.553 143.864 37.165C143.864 37.777 143.988 38.304 144.238 38.746C144.498 39.1767 144.833 39.511 145.241 39.749C145.66 39.9757 146.108 40.089 146.584 40.089ZM152.631 41.5V32.83H154.45V39.902H157.306V32.83H159.125V39.902H161.981V32.83H163.8V41.5H152.631ZM169.84 41.772C168.99 41.772 168.23 41.5737 167.562 41.177C166.893 40.7803 166.366 40.2363 165.981 39.545C165.607 38.8537 165.42 38.066 165.42 37.182C165.42 36.3547 165.601 35.5897 165.964 34.887C166.326 34.1843 166.831 33.6233 167.477 33.204C168.134 32.7733 168.888 32.558 169.738 32.558C170.633 32.558 171.392 32.7507 172.016 33.136C172.65 33.5213 173.132 34.0483 173.461 34.717C173.789 35.3857 173.954 36.1393 173.954 36.978C173.954 37.1027 173.948 37.216 173.937 37.318C173.937 37.42 173.931 37.4993 173.92 37.556H167.222C167.312 38.4173 167.613 39.0633 168.123 39.494C168.644 39.9247 169.233 40.14 169.891 40.14C170.48 40.14 170.967 40.0097 171.353 39.749C171.738 39.477 172.044 39.1427 172.271 38.746L173.784 39.477C173.41 40.157 172.9 40.7123 172.254 41.143C171.608 41.5623 170.803 41.772 169.84 41.772ZM169.755 34.122C169.143 34.122 168.621 34.309 168.191 34.683C167.76 35.057 167.471 35.5557 167.324 36.179H172.135C172.112 35.8843 172.016 35.5783 171.846 35.261C171.676 34.9437 171.415 34.6773 171.064 34.462C170.724 34.2353 170.287 34.122 169.755 34.122ZM175.627 41.636C175.366 41.636 175.117 41.6077 174.879 41.551V39.851C175.038 39.9303 175.213 39.97 175.406 39.97C175.791 39.97 176.063 39.8227 176.222 39.528C176.381 39.222 176.477 38.8367 176.511 38.372C176.545 37.9073 176.562 37.4257 176.562 36.927V32.83H183.192V41.5H181.373V34.428H178.296V37.216C178.296 37.8053 178.256 38.3663 178.177 38.899C178.109 39.4203 177.979 39.8907 177.786 40.31C177.593 40.718 177.321 41.041 176.97 41.279C176.63 41.517 176.182 41.636 175.627 41.636ZM189.23 41.772C188.38 41.772 187.621 41.5737 186.952 41.177C186.284 40.7803 185.757 40.2363 185.371 39.545C184.997 38.8537 184.81 38.066 184.81 37.182C184.81 36.3547 184.992 35.5897 185.354 34.887C185.717 34.1843 186.221 33.6233 186.867 33.204C187.525 32.7733 188.278 32.558 189.128 32.558C190.024 32.558 190.783 32.7507 191.406 33.136C192.041 33.5213 192.523 34.0483 192.851 34.717C193.18 35.3857 193.344 36.1393 193.344 36.978C193.344 37.1027 193.339 37.216 193.327 37.318C193.327 37.42 193.322 37.4993 193.31 37.556H186.612C186.703 38.4173 187.003 39.0633 187.513 39.494C188.035 39.9247 188.624 40.14 189.281 40.14C189.871 40.14 190.358 40.0097 190.743 39.749C191.129 39.477 191.435 39.1427 191.661 38.746L193.174 39.477C192.8 40.157 192.29 40.7123 191.644 41.143C190.998 41.5623 190.194 41.772 189.23 41.772ZM189.145 34.122C188.533 34.122 188.012 34.309 187.581 34.683C187.151 35.057 186.862 35.5557 186.714 36.179H191.525C191.503 35.8843 191.406 35.5783 191.236 35.261C191.066 34.9437 190.806 34.6773 190.454 34.462C190.114 34.2353 189.678 34.122 189.145 34.122ZM195.048 41.5V32.83H196.884V36.672H196.986L200.386 32.83H202.494V32.932L198.873 36.893L202.63 41.398V41.5H200.454L196.986 37.233H196.884V41.5H195.048Z" fill="white"/>
<rect x="0.5" y="0.5" width="221" height="54" rx="27" stroke="#747775"/>
<defs>
<linearGradient id="paint0_linear_1819_23940" x1="37.2843" y1="34.0448" x2="18.7823" y2="55.7227" gradientUnits="userSpaceOnUse">
<stop stop-color="#4285F4"/>
<stop offset="1" stop-color="#1B74E8"/>
</linearGradient>
</defs>
</svg>
