<svg width="199" height="55" viewBox="0 0 199 55" fill="none" xmlns="http://www.w3.org/2000/svg">
<rect x="0.5" y="0.5" width="198" height="54" rx="27" fill="#1F1F1F"/>
<path d="M57 23.791H21V18.1456C21 15.0809 23.6422 12.5001 26.7798 12.5001H51.2202C54.3578 12.5001 57 15.0809 57 18.1456V23.791Z" fill="#34A853"/>
<path d="M57 29H21V23C21 19.7429 23.6422 17 26.7798 17H51.2202C54.3578 17 57 19.7429 57 23V29Z" fill="#FBBC04"/>
<path d="M57 34H21V28C21 24.7429 23.6422 22 26.7798 22H51.2202C54.3578 22 57 24.7429 57 28V34Z" fill="#EA4335"/>
<path d="M21 25.2409L43.8493 30.4025C46.4795 31.0477 49.4384 30.4025 51.5753 28.7895L57 24.9183V37.0157C57 40.0804 54.3699 42.4999 51.2466 42.4999H26.7534C23.6301 42.4999 21 40.0804 21 37.0157V25.2409Z" fill="url(#paint0_linear_1819_23978)"/>
<path d="M69.195 21.5L72.705 12.192H74.33L77.853 21.5H76.28L75.422 19.108H71.626L70.768 21.5H69.195ZM73.134 14.935L72.107 17.782H74.941L73.914 14.935L73.563 13.869H73.485L73.134 14.935ZM79.1677 21.5V16.092H77.9587V14.87H79.1677V14.324C79.1677 13.856 79.2674 13.4573 79.4667 13.128C79.6661 12.79 79.9347 12.5343 80.2727 12.361C80.6194 12.179 81.0094 12.088 81.4427 12.088C81.6767 12.088 81.8761 12.1053 82.0407 12.14C82.2141 12.166 82.3571 12.2007 82.4697 12.244V13.609C82.3571 13.5657 82.2271 13.5223 82.0797 13.479C81.9411 13.427 81.7677 13.401 81.5597 13.401C81.2911 13.401 81.0571 13.492 80.8577 13.674C80.6584 13.8473 80.5587 14.103 80.5587 14.441V14.87H82.2227V16.092H80.5587V21.5H79.1677ZM86.1908 21.708C85.5408 21.708 84.9601 21.5563 84.4488 21.253C83.9374 20.9497 83.5344 20.5337 83.2398 20.005C82.9538 19.4763 82.8108 18.874 82.8108 18.198C82.8108 17.5653 82.9494 16.9803 83.2268 16.443C83.5041 15.9057 83.8898 15.4767 84.3838 15.156C84.8864 14.8267 85.4628 14.662 86.1128 14.662C86.7974 14.662 87.3781 14.8093 87.8548 15.104C88.3401 15.3987 88.7084 15.8017 88.9598 16.313C89.2111 16.8243 89.3368 17.4007 89.3368 18.042C89.3368 18.1373 89.3324 18.224 89.3238 18.302C89.3238 18.38 89.3194 18.4407 89.3108 18.484H84.1888C84.2581 19.1427 84.4878 19.6367 84.8778 19.966C85.2764 20.2953 85.7271 20.46 86.2298 20.46C86.6804 20.46 87.0531 20.3603 87.3478 20.161C87.6424 19.953 87.8764 19.6973 88.0498 19.394L89.2068 19.953C88.9208 20.473 88.5308 20.8977 88.0368 21.227C87.5428 21.5477 86.9274 21.708 86.1908 21.708ZM86.1258 15.858C85.6578 15.858 85.2591 16.001 84.9298 16.287C84.6004 16.573 84.3794 16.9543 84.2668 17.431H87.9458C87.9284 17.2057 87.8548 16.9717 87.7248 16.729C87.5948 16.4863 87.3954 16.2827 87.1268 16.118C86.8668 15.9447 86.5331 15.858 86.1258 15.858ZM93.6928 24.516C93.1121 24.516 92.6095 24.4207 92.1848 24.23C91.7688 24.048 91.4308 23.8097 91.1708 23.515C90.9108 23.229 90.7245 22.9343 90.6118 22.631L91.9118 22.085C92.0505 22.4317 92.2715 22.7133 92.5748 22.93C92.8868 23.1553 93.2595 23.268 93.6928 23.268C94.2995 23.268 94.7761 23.086 95.1228 22.722C95.4781 22.358 95.6558 21.8423 95.6558 21.175V20.538H95.5778C95.3698 20.85 95.0795 21.1013 94.7068 21.292C94.3428 21.474 93.9268 21.565 93.4588 21.565C92.8955 21.565 92.3798 21.422 91.9118 21.136C91.4438 20.85 91.0668 20.4513 90.7808 19.94C90.4948 19.42 90.3518 18.8133 90.3518 18.12C90.3518 17.418 90.4948 16.8113 90.7808 16.3C91.0668 15.78 91.4438 15.377 91.9118 15.091C92.3798 14.805 92.8955 14.662 93.4588 14.662C93.9268 14.662 94.3428 14.7573 94.7068 14.948C95.0795 15.1387 95.3698 15.39 95.5778 15.702H95.6558V14.87H96.9948V21.149C96.9948 21.8683 96.8518 22.4793 96.5658 22.982C96.2885 23.4847 95.9028 23.866 95.4088 24.126C94.9148 24.386 94.3428 24.516 93.6928 24.516ZM93.7058 20.291C94.0525 20.291 94.3731 20.2087 94.6678 20.044C94.9625 19.8707 95.2008 19.6237 95.3828 19.303C95.5648 18.9737 95.6558 18.5793 95.6558 18.12C95.6558 17.6433 95.5648 17.2447 95.3828 16.924C95.2008 16.5947 94.9625 16.3477 94.6678 16.183C94.3731 16.0183 94.0525 15.936 93.7058 15.936C93.3591 15.936 93.0341 16.0227 92.7308 16.196C92.4361 16.3607 92.1978 16.6033 92.0158 16.924C91.8338 17.2447 91.7428 17.6433 91.7428 18.12C91.7428 18.588 91.8338 18.9867 92.0158 19.316C92.1978 19.6367 92.4361 19.8793 92.7308 20.044C93.0341 20.2087 93.3591 20.291 93.7058 20.291ZM101.603 21.708C100.953 21.708 100.372 21.5563 99.8609 21.253C99.3495 20.9497 98.9465 20.5337 98.6519 20.005C98.3659 19.4763 98.2229 18.874 98.2229 18.198C98.2229 17.5653 98.3615 16.9803 98.6389 16.443C98.9162 15.9057 99.3019 15.4767 99.7959 15.156C100.299 14.8267 100.875 14.662 101.525 14.662C102.21 14.662 102.79 14.8093 103.267 15.104C103.752 15.3987 104.121 15.8017 104.372 16.313C104.623 16.8243 104.749 17.4007 104.749 18.042C104.749 18.1373 104.745 18.224 104.736 18.302C104.736 18.38 104.732 18.4407 104.723 18.484H99.6009C99.6702 19.1427 99.8999 19.6367 100.29 19.966C100.689 20.2953 101.139 20.46 101.642 20.46C102.093 20.46 102.465 20.3603 102.76 20.161C103.055 19.953 103.289 19.6973 103.462 19.394L104.619 19.953C104.333 20.473 103.943 20.8977 103.449 21.227C102.955 21.5477 102.34 21.708 101.603 21.708ZM101.538 15.858C101.07 15.858 100.671 16.001 100.342 16.287C100.013 16.573 99.7915 16.9543 99.6789 17.431H103.358C103.341 17.2057 103.267 16.9717 103.137 16.729C103.007 16.4863 102.808 16.2827 102.539 16.118C102.279 15.9447 101.945 15.858 101.538 15.858ZM106.857 13.895C106.597 13.895 106.372 13.804 106.181 13.622C105.999 13.4313 105.908 13.206 105.908 12.946C105.908 12.686 105.999 12.465 106.181 12.283C106.372 12.101 106.597 12.01 106.857 12.01C107.117 12.01 107.338 12.101 107.52 12.283C107.711 12.465 107.806 12.686 107.806 12.946C107.806 13.206 107.711 13.4313 107.52 13.622C107.338 13.804 107.117 13.895 106.857 13.895ZM106.155 21.5V14.87H107.559V21.5H106.155ZM108.651 21.5L110.978 18.133L108.69 14.87H110.315L111.823 17.08L113.253 14.87H114.943L112.616 18.133L114.956 21.5H113.318L111.797 19.225L110.302 21.5H108.651ZM121.055 21.708C120.579 21.708 120.154 21.617 119.781 21.435C119.409 21.2443 119.118 20.98 118.91 20.642C118.702 20.304 118.598 19.9183 118.598 19.485C118.598 19.017 118.72 18.6183 118.962 18.289C119.214 17.951 119.547 17.6953 119.963 17.522C120.379 17.3487 120.839 17.262 121.341 17.262C121.757 17.262 122.121 17.301 122.433 17.379C122.754 17.457 122.997 17.5393 123.161 17.626V17.275C123.161 16.8417 123.005 16.495 122.693 16.235C122.381 15.975 121.978 15.845 121.484 15.845C121.146 15.845 120.826 15.923 120.522 16.079C120.219 16.2263 119.976 16.43 119.794 16.69L118.832 15.949C119.118 15.5503 119.495 15.2383 119.963 15.013C120.44 14.779 120.96 14.662 121.523 14.662C122.485 14.662 123.226 14.9003 123.746 15.377C124.266 15.845 124.526 16.5037 124.526 17.353V21.5H123.161V20.681H123.083C122.91 20.9497 122.65 21.188 122.303 21.396C121.957 21.604 121.541 21.708 121.055 21.708ZM121.302 20.564C121.666 20.564 121.987 20.4773 122.264 20.304C122.542 20.1307 122.758 19.9053 122.914 19.628C123.079 19.342 123.161 19.0343 123.161 18.705C122.962 18.5923 122.728 18.5013 122.459 18.432C122.191 18.354 121.905 18.315 121.601 18.315C121.029 18.315 120.622 18.432 120.379 18.666C120.137 18.8913 120.015 19.1687 120.015 19.498C120.015 19.81 120.132 20.0657 120.366 20.265C120.6 20.4643 120.912 20.564 121.302 20.564Z" fill="white"/>
<path d="M76.14 41.772C75.2673 41.772 74.4457 41.6133 73.675 41.296C72.9157 40.9787 72.2413 40.5367 71.652 39.97C71.0627 39.392 70.598 38.7177 70.258 37.947C69.9293 37.165 69.765 36.3207 69.765 35.414C69.765 34.5073 69.9293 33.6687 70.258 32.898C70.598 32.116 71.057 31.4417 71.635 30.875C72.2243 30.297 72.9043 29.8493 73.675 29.532C74.4457 29.2147 75.2673 29.056 76.14 29.056C77.0693 29.056 77.925 29.2203 78.707 29.549C79.5003 29.8777 80.1633 30.3367 80.696 30.926L79.404 32.201C79.0073 31.759 78.5313 31.419 77.976 31.181C77.432 30.943 76.82 30.824 76.14 30.824C75.3353 30.824 74.593 31.0167 73.913 31.402C73.233 31.776 72.6833 32.3087 72.264 33C71.856 33.68 71.652 34.4847 71.652 35.414C71.652 36.3433 71.8617 37.1537 72.281 37.845C72.7003 38.525 73.25 39.0577 73.93 39.443C74.61 39.817 75.3523 40.004 76.157 40.004C76.8937 40.004 77.5623 39.868 78.163 39.596C78.7637 39.3127 79.2453 38.916 79.608 38.406C79.982 37.896 80.2087 37.284 80.288 36.57H76.123V34.921H82.039C82.107 35.227 82.141 35.55 82.141 35.89V35.907C82.141 37.0857 81.8803 38.117 81.359 39.001C80.849 39.8737 80.1407 40.5537 79.234 41.041C78.3273 41.5283 77.296 41.772 76.14 41.772ZM87.6149 41.772C86.7195 41.772 85.9319 41.568 85.2519 41.16C84.5719 40.752 84.0392 40.2023 83.6539 39.511C83.2685 38.8197 83.0759 38.0377 83.0759 37.165C83.0759 36.3037 83.2685 35.5273 83.6539 34.836C84.0392 34.1333 84.5719 33.578 85.2519 33.17C85.9319 32.762 86.7195 32.558 87.6149 32.558C88.4989 32.558 89.2809 32.762 89.9609 33.17C90.6409 33.578 91.1735 34.1333 91.5589 34.836C91.9442 35.5273 92.1369 36.3037 92.1369 37.165C92.1369 38.0377 91.9442 38.8197 91.5589 39.511C91.1735 40.2023 90.6409 40.752 89.9609 41.16C89.2809 41.568 88.4989 41.772 87.6149 41.772ZM87.6149 40.089C88.0909 40.089 88.5329 39.9757 88.9409 39.749C89.3489 39.511 89.6775 39.1767 89.9269 38.746C90.1875 38.304 90.3179 37.777 90.3179 37.165C90.3179 36.553 90.1875 36.0317 89.9269 35.601C89.6775 35.159 89.3489 34.8247 88.9409 34.598C88.5329 34.36 88.0909 34.241 87.6149 34.241C87.1389 34.241 86.6912 34.36 86.2719 34.598C85.8639 34.8247 85.5295 35.159 85.2689 35.601C85.0195 36.0317 84.8949 36.553 84.8949 37.165C84.8949 37.777 85.0195 38.304 85.2689 38.746C85.5295 39.1767 85.8639 39.511 86.2719 39.749C86.6912 39.9757 87.1389 40.089 87.6149 40.089ZM97.9078 41.772C97.0125 41.772 96.2248 41.568 95.5448 41.16C94.8648 40.752 94.3322 40.2023 93.9468 39.511C93.5615 38.8197 93.3688 38.0377 93.3688 37.165C93.3688 36.3037 93.5615 35.5273 93.9468 34.836C94.3322 34.1333 94.8648 33.578 95.5448 33.17C96.2248 32.762 97.0125 32.558 97.9078 32.558C98.7918 32.558 99.5738 32.762 100.254 33.17C100.934 33.578 101.467 34.1333 101.852 34.836C102.237 35.5273 102.43 36.3037 102.43 37.165C102.43 38.0377 102.237 38.8197 101.852 39.511C101.467 40.2023 100.934 40.752 100.254 41.16C99.5738 41.568 98.7918 41.772 97.9078 41.772ZM97.9078 40.089C98.3838 40.089 98.8258 39.9757 99.2338 39.749C99.6418 39.511 99.9705 39.1767 100.22 38.746C100.481 38.304 100.611 37.777 100.611 37.165C100.611 36.553 100.481 36.0317 100.22 35.601C99.9705 35.159 99.6418 34.8247 99.2338 34.598C98.8258 34.36 98.3838 34.241 97.9078 34.241C97.4318 34.241 96.9842 34.36 96.5648 34.598C96.1568 34.8247 95.8225 35.159 95.5618 35.601C95.3125 36.0317 95.1878 36.553 95.1878 37.165C95.1878 37.777 95.3125 38.304 95.5618 38.746C95.8225 39.1767 96.1568 39.511 96.5648 39.749C96.9842 39.9757 97.4318 40.089 97.9078 40.089ZM108.031 45.444C107.271 45.444 106.614 45.3193 106.059 45.07C105.515 44.832 105.073 44.5203 104.733 44.135C104.393 43.761 104.149 43.3757 104.002 42.979L105.702 42.265C105.883 42.7183 106.172 43.0867 106.569 43.37C106.977 43.6647 107.464 43.812 108.031 43.812C108.824 43.812 109.447 43.574 109.901 43.098C110.365 42.622 110.598 41.9477 110.598 41.075V40.242H110.496C110.224 40.65 109.844 40.9787 109.357 41.228C108.881 41.466 108.337 41.585 107.725 41.585C106.988 41.585 106.314 41.398 105.702 41.024C105.09 40.65 104.597 40.1287 104.223 39.46C103.849 38.78 103.662 37.9867 103.662 37.08C103.662 36.162 103.849 35.3687 104.223 34.7C104.597 34.02 105.09 33.493 105.702 33.119C106.314 32.745 106.988 32.558 107.725 32.558C108.337 32.558 108.881 32.6827 109.357 32.932C109.844 33.1813 110.224 33.51 110.496 33.918H110.598V32.83H112.349V41.041C112.349 41.9817 112.162 42.7807 111.788 43.438C111.425 44.0953 110.921 44.594 110.275 44.934C109.629 45.274 108.881 45.444 108.031 45.444ZM108.048 39.919C108.501 39.919 108.92 39.8113 109.306 39.596C109.691 39.3693 110.003 39.0463 110.241 38.627C110.479 38.1963 110.598 37.6807 110.598 37.08C110.598 36.4567 110.479 35.9353 110.241 35.516C110.003 35.0853 109.691 34.7623 109.306 34.547C108.92 34.3317 108.501 34.224 108.048 34.224C107.594 34.224 107.169 34.3373 106.773 34.564C106.387 34.7793 106.076 35.0967 105.838 35.516C105.6 35.9353 105.481 36.4567 105.481 37.08C105.481 37.692 105.6 38.2133 105.838 38.644C106.076 39.0633 106.387 39.3807 106.773 39.596C107.169 39.8113 107.594 39.919 108.048 39.919ZM114.514 41.5V29.328H116.35V41.5H114.514ZM122.392 41.772C121.542 41.772 120.783 41.5737 120.114 41.177C119.446 40.7803 118.919 40.2363 118.533 39.545C118.159 38.8537 117.972 38.066 117.972 37.182C117.972 36.3547 118.154 35.5897 118.516 34.887C118.879 34.1843 119.383 33.6233 120.029 33.204C120.687 32.7733 121.44 32.558 122.29 32.558C123.186 32.558 123.945 32.7507 124.568 33.136C125.203 33.5213 125.685 34.0483 126.013 34.717C126.342 35.3857 126.506 36.1393 126.506 36.978C126.506 37.1027 126.501 37.216 126.489 37.318C126.489 37.42 126.484 37.4993 126.472 37.556H119.774C119.865 38.4173 120.165 39.0633 120.675 39.494C121.197 39.9247 121.786 40.14 122.443 40.14C123.033 40.14 123.52 40.0097 123.905 39.749C124.291 39.477 124.597 39.1427 124.823 38.746L126.336 39.477C125.962 40.157 125.452 40.7123 124.806 41.143C124.16 41.5623 123.356 41.772 122.392 41.772ZM122.307 34.122C121.695 34.122 121.174 34.309 120.743 34.683C120.313 35.057 120.024 35.5557 119.876 36.179H124.687C124.665 35.8843 124.568 35.5783 124.398 35.261C124.228 34.9437 123.968 34.6773 123.616 34.462C123.276 34.2353 122.84 34.122 122.307 34.122ZM133.979 41.5L130.715 29.328H132.789L134.727 37.233L134.931 38.287H135.033L135.288 37.233L137.736 29.328H139.606L141.952 37.233L142.207 38.27H142.309L142.513 37.233L144.451 29.328H146.508L143.295 41.5H141.323L138.994 33.425L138.722 32.286H138.62L138.331 33.425L135.9 41.5H133.979ZM149.922 41.772C149.299 41.772 148.743 41.653 148.256 41.415C147.769 41.1657 147.389 40.82 147.117 40.378C146.845 39.936 146.709 39.4317 146.709 38.865C146.709 38.253 146.868 37.7317 147.185 37.301C147.514 36.859 147.95 36.5247 148.494 36.298C149.038 36.0713 149.639 35.958 150.296 35.958C150.84 35.958 151.316 36.009 151.724 36.111C152.143 36.213 152.461 36.3207 152.676 36.434V35.975C152.676 35.4083 152.472 34.955 152.064 34.615C151.656 34.275 151.129 34.105 150.483 34.105C150.041 34.105 149.622 34.207 149.225 34.411C148.828 34.6037 148.511 34.87 148.273 35.21L147.015 34.241C147.389 33.7197 147.882 33.3117 148.494 33.017C149.117 32.711 149.797 32.558 150.534 32.558C151.792 32.558 152.761 32.8697 153.441 33.493C154.121 34.105 154.461 34.9663 154.461 36.077V41.5H152.676V40.429H152.574C152.347 40.7803 152.007 41.092 151.554 41.364C151.101 41.636 150.557 41.772 149.922 41.772ZM150.245 40.276C150.721 40.276 151.14 40.1627 151.503 39.936C151.866 39.7093 152.149 39.4147 152.353 39.052C152.568 38.678 152.676 38.2757 152.676 37.845C152.415 37.6977 152.109 37.5787 151.758 37.488C151.407 37.386 151.033 37.335 150.636 37.335C149.888 37.335 149.355 37.488 149.038 37.794C148.721 38.0887 148.562 38.4513 148.562 38.882C148.562 39.29 148.715 39.6243 149.021 39.885C149.327 40.1457 149.735 40.276 150.245 40.276ZM156.499 41.5V29.328H158.335V41.5H156.499ZM160.517 41.5V29.328H162.353V41.5H160.517ZM168.395 41.772C167.545 41.772 166.786 41.5737 166.117 41.177C165.449 40.7803 164.922 40.2363 164.536 39.545C164.162 38.8537 163.975 38.066 163.975 37.182C163.975 36.3547 164.157 35.5897 164.519 34.887C164.882 34.1843 165.386 33.6233 166.032 33.204C166.69 32.7733 167.443 32.558 168.293 32.558C169.189 32.558 169.948 32.7507 170.571 33.136C171.206 33.5213 171.688 34.0483 172.016 34.717C172.345 35.3857 172.509 36.1393 172.509 36.978C172.509 37.1027 172.504 37.216 172.492 37.318C172.492 37.42 172.487 37.4993 172.475 37.556H165.777C165.868 38.4173 166.168 39.0633 166.678 39.494C167.2 39.9247 167.789 40.14 168.446 40.14C169.036 40.14 169.523 40.0097 169.908 39.749C170.294 39.477 170.6 39.1427 170.826 38.746L172.339 39.477C171.965 40.157 171.455 40.7123 170.809 41.143C170.163 41.5623 169.359 41.772 168.395 41.772ZM168.31 34.122C167.698 34.122 167.177 34.309 166.746 34.683C166.316 35.057 166.027 35.5557 165.879 36.179H170.69C170.668 35.8843 170.571 35.5783 170.401 35.261C170.231 34.9437 169.971 34.6773 169.619 34.462C169.279 34.2353 168.843 34.122 168.31 34.122ZM174.882 38.984V34.428H173.369V32.83H174.882V30.382H176.718V32.83H178.843V34.428H176.718V38.593C176.718 39.0237 176.803 39.3523 176.973 39.579C177.154 39.8057 177.454 39.919 177.874 39.919C178.089 39.919 178.27 39.8907 178.418 39.834C178.576 39.7773 178.735 39.698 178.894 39.596V41.381C178.701 41.4603 178.497 41.5227 178.282 41.568C178.066 41.6133 177.811 41.636 177.517 41.636C176.712 41.636 176.072 41.4037 175.596 40.939C175.12 40.463 174.882 39.8113 174.882 38.984Z" fill="white"/>
<rect x="0.5" y="0.5" width="198" height="54" rx="27" stroke="#747775"/>
<defs>
<linearGradient id="paint0_linear_1819_23978" x1="37.2843" y1="34.0448" x2="18.7823" y2="55.7227" gradientUnits="userSpaceOnUse">
<stop stop-color="#4285F4"/>
<stop offset="1" stop-color="#1B74E8"/>
</linearGradient>
</defs>
</svg>
