<svg width="235" height="55" viewBox="0 0 235 55" fill="none" xmlns="http://www.w3.org/2000/svg">
<rect x="0.5" y="0.5" width="234" height="54" rx="27" fill="#1F1F1F"/>
<path d="M57 23.791H21V18.1456C21 15.0809 23.6422 12.5001 26.7798 12.5001H51.2202C54.3578 12.5001 57 15.0809 57 18.1456V23.791Z" fill="#34A853"/>
<path d="M57 29H21V23C21 19.7429 23.6422 17 26.7798 17H51.2202C54.3578 17 57 19.7429 57 23V29Z" fill="#FBBC04"/>
<path d="M57 34H21V28C21 24.7429 23.6422 22 26.7798 22H51.2202C54.3578 22 57 24.7429 57 28V34Z" fill="#EA4335"/>
<path d="M21 25.2409L43.8493 30.4025C46.4795 31.0477 49.4384 30.4025 51.5753 28.7895L57 24.9183V37.0157C57 40.0804 54.3699 42.4999 51.2466 42.4999H26.7534C23.6301 42.4999 21 40.0804 21 37.0157V25.2409Z" fill="url(#paint0_linear_1819_24054)"/>
<path d="M70.053 21.5V12.192H73.251C73.8143 12.192 74.3257 12.3133 74.785 12.556C75.2443 12.7987 75.6083 13.1323 75.877 13.557C76.1543 13.9817 76.293 14.4757 76.293 15.039C76.293 15.6023 76.1543 16.1007 75.877 16.534C75.6083 16.9587 75.2443 17.2923 74.785 17.535C74.3257 17.769 73.8143 17.886 73.251 17.886H71.483V21.5H70.053ZM73.29 13.544H71.483V16.534H73.29C73.628 16.534 73.914 16.4647 74.148 16.326C74.382 16.1787 74.5597 15.9923 74.681 15.767C74.811 15.533 74.876 15.2903 74.876 15.039C74.876 14.7877 74.811 14.5493 74.681 14.324C74.5597 14.0987 74.382 13.9123 74.148 13.765C73.914 13.6177 73.628 13.544 73.29 13.544ZM77.5251 21.5V14.87H78.8511V15.845H78.9291C79.0764 15.507 79.3277 15.2297 79.6831 15.013C80.0471 14.7877 80.4371 14.675 80.8531 14.675C81.0351 14.675 81.1867 14.688 81.3081 14.714C81.4381 14.74 81.5551 14.7703 81.6591 14.805V16.261C81.4944 16.1917 81.3254 16.1353 81.1521 16.092C80.9874 16.0487 80.8141 16.027 80.6321 16.027C80.3027 16.027 80.0081 16.118 79.7481 16.3C79.4967 16.4733 79.2974 16.7117 79.1501 17.015C79.0027 17.3097 78.9291 17.6347 78.9291 17.99V21.5H77.5251ZM78.9291 13.596L77.5381 12.023V11.932H78.8771L79.4751 12.738H79.6051L80.2161 11.932H81.5681V12.023L80.1641 13.596H78.9291ZM83.5488 13.895C83.2888 13.895 83.0635 13.804 82.8728 13.622C82.6908 13.4313 82.5998 13.206 82.5998 12.946C82.5998 12.686 82.6908 12.465 82.8728 12.283C83.0635 12.101 83.2888 12.01 83.5488 12.01C83.8088 12.01 84.0298 12.101 84.2118 12.283C84.4025 12.465 84.4978 12.686 84.4978 12.946C84.4978 13.206 84.4025 13.4313 84.2118 13.622C84.0298 13.804 83.8088 13.895 83.5488 13.895ZM82.8468 21.5V14.87H84.2508V21.5H82.8468ZM88.7634 21.708C88.1654 21.708 87.6237 21.5607 87.1384 21.266C86.6617 20.9627 86.2804 20.5467 85.9944 20.018C85.717 19.4807 85.5784 18.8697 85.5784 18.185C85.5784 17.5003 85.717 16.8937 85.9944 16.365C86.2804 15.8363 86.6617 15.4203 87.1384 15.117C87.6237 14.8137 88.1654 14.662 88.7634 14.662C89.2747 14.662 89.7124 14.7747 90.0764 15C90.449 15.2253 90.722 15.481 90.8954 15.767H90.9734L90.8954 14.844V12.192H92.2864V21.5H90.9734V20.616H90.8954C90.722 20.902 90.449 21.1577 90.0764 21.383C89.7124 21.5997 89.2747 21.708 88.7634 21.708ZM88.9714 20.421C89.318 20.421 89.643 20.33 89.9464 20.148C90.2584 19.966 90.5054 19.7103 90.6874 19.381C90.878 19.043 90.9734 18.6443 90.9734 18.185C90.9734 17.7257 90.878 17.3313 90.6874 17.002C90.5054 16.664 90.2584 16.404 89.9464 16.222C89.643 16.04 89.318 15.949 88.9714 15.949C88.6247 15.949 88.2997 16.04 87.9964 16.222C87.693 16.404 87.446 16.664 87.2554 17.002C87.0647 17.3313 86.9694 17.7257 86.9694 18.185C86.9694 18.6443 87.0647 19.043 87.2554 19.381C87.446 19.7103 87.693 19.966 87.9964 20.148C88.2997 20.33 88.6247 20.421 88.9714 20.421ZM95.9566 21.708C95.48 21.708 95.0553 21.617 94.6826 21.435C94.31 21.2443 94.0196 20.98 93.8116 20.642C93.6036 20.304 93.4996 19.9183 93.4996 19.485C93.4996 19.017 93.621 18.6183 93.8636 18.289C94.115 17.951 94.4486 17.6953 94.8646 17.522C95.2806 17.3487 95.74 17.262 96.2426 17.262C96.6586 17.262 97.0226 17.301 97.3346 17.379C97.6553 17.457 97.898 17.5393 98.0626 17.626V17.275C98.0626 16.8417 97.9066 16.495 97.5946 16.235C97.2826 15.975 96.8796 15.845 96.3856 15.845C96.0476 15.845 95.727 15.923 95.4236 16.079C95.1203 16.2263 94.8776 16.43 94.6956 16.69L93.7336 15.949C94.0196 15.5503 94.3966 15.2383 94.8646 15.013C95.3413 14.779 95.8613 14.662 96.4246 14.662C97.3866 14.662 98.1276 14.9003 98.6476 15.377C99.1676 15.845 99.4276 16.5037 99.4276 17.353V21.5H98.0626V20.681H97.9846C97.8113 20.9497 97.5513 21.188 97.2046 21.396C96.858 21.604 96.442 21.708 95.9566 21.708ZM96.2036 20.564C96.5676 20.564 96.8883 20.4773 97.1656 20.304C97.443 20.1307 97.6596 19.9053 97.8156 19.628C97.9803 19.342 98.0626 19.0343 98.0626 18.705C97.8633 18.5923 97.6293 18.5013 97.3606 18.432C97.092 18.354 96.806 18.315 96.5026 18.315C95.9306 18.315 95.5233 18.432 95.2806 18.666C95.038 18.8913 94.9166 19.1687 94.9166 19.498C94.9166 19.81 95.0336 20.0657 95.2676 20.265C95.5016 20.4643 95.8136 20.564 96.2036 20.564ZM101.548 19.576V16.092H100.391V14.87H101.548V12.998H102.952V14.87H104.577V16.092H102.952V19.277C102.952 19.6063 103.017 19.8577 103.147 20.031C103.286 20.2043 103.516 20.291 103.836 20.291C104.001 20.291 104.14 20.2693 104.252 20.226C104.374 20.1827 104.495 20.122 104.616 20.044V21.409C104.469 21.4697 104.313 21.5173 104.148 21.552C103.984 21.5867 103.789 21.604 103.563 21.604C102.948 21.604 102.458 21.4263 102.094 21.071C101.73 20.707 101.548 20.2087 101.548 19.576ZM111.793 21.708C111.195 21.708 110.653 21.5607 110.168 21.266C109.691 20.9627 109.31 20.5467 109.024 20.018C108.746 19.4807 108.608 18.8697 108.608 18.185C108.608 17.5003 108.746 16.8937 109.024 16.365C109.31 15.8363 109.691 15.4203 110.168 15.117C110.653 14.8137 111.195 14.662 111.793 14.662C112.304 14.662 112.742 14.7747 113.106 15C113.478 15.2253 113.751 15.481 113.925 15.767H114.003L113.925 14.844V12.192H115.316V21.5H114.003V20.616H113.925C113.751 20.902 113.478 21.1577 113.106 21.383C112.742 21.5997 112.304 21.708 111.793 21.708ZM112.001 20.421C112.347 20.421 112.672 20.33 112.976 20.148C113.288 19.966 113.535 19.7103 113.717 19.381C113.907 19.043 114.003 18.6443 114.003 18.185C114.003 17.7257 113.907 17.3313 113.717 17.002C113.535 16.664 113.288 16.404 112.976 16.222C112.672 16.04 112.347 15.949 112.001 15.949C111.654 15.949 111.329 16.04 111.026 16.222C110.722 16.404 110.475 16.664 110.285 17.002C110.094 17.3313 109.999 17.7257 109.999 18.185C109.999 18.6443 110.094 19.043 110.285 19.381C110.475 19.7103 110.722 19.966 111.026 20.148C111.329 20.33 111.654 20.421 112.001 20.421ZM120.026 21.708C119.341 21.708 118.739 21.552 118.219 21.24C117.699 20.928 117.292 20.5077 116.997 19.979C116.702 19.4503 116.555 18.8523 116.555 18.185C116.555 17.5263 116.702 16.9327 116.997 16.404C117.292 15.8667 117.699 15.442 118.219 15.13C118.739 14.818 119.341 14.662 120.026 14.662C120.702 14.662 121.3 14.818 121.82 15.13C122.34 15.442 122.747 15.8667 123.042 16.404C123.337 16.9327 123.484 17.5263 123.484 18.185C123.484 18.8523 123.337 19.4503 123.042 19.979C122.747 20.5077 122.34 20.928 121.82 21.24C121.3 21.552 120.702 21.708 120.026 21.708ZM120.026 20.421C120.39 20.421 120.728 20.3343 121.04 20.161C121.352 19.979 121.603 19.7233 121.794 19.394C121.993 19.056 122.093 18.653 122.093 18.185C122.093 17.717 121.993 17.3183 121.794 16.989C121.603 16.651 121.352 16.3953 121.04 16.222C120.728 16.04 120.39 15.949 120.026 15.949C119.662 15.949 119.32 16.04 118.999 16.222C118.687 16.3953 118.431 16.651 118.232 16.989C118.041 17.3183 117.946 17.717 117.946 18.185C117.946 18.653 118.041 19.056 118.232 19.394C118.431 19.7233 118.687 19.979 118.999 20.161C119.32 20.3343 119.662 20.421 120.026 20.421Z" fill="white"/>
<path d="M70.377 41.5V29.328H74.559C75.2957 29.328 75.9643 29.4867 76.565 29.804C77.1657 30.1213 77.6417 30.5577 77.993 31.113C78.3557 31.6683 78.537 32.3143 78.537 33.051C78.537 33.7877 78.3557 34.4393 77.993 35.006C77.6417 35.5613 77.1657 35.9977 76.565 36.315C75.9643 36.621 75.2957 36.774 74.559 36.774H72.247V41.5H70.377ZM74.61 31.096H72.247V35.006H74.61C75.052 35.006 75.426 34.9153 75.732 34.734C76.038 34.5413 76.2703 34.2977 76.429 34.003C76.599 33.697 76.684 33.3797 76.684 33.051C76.684 32.7223 76.599 32.4107 76.429 32.116C76.2703 31.8213 76.038 31.5777 75.732 31.385C75.426 31.1923 75.052 31.096 74.61 31.096ZM83.5115 41.772C82.6615 41.772 81.9022 41.5737 81.2335 41.177C80.5648 40.7803 80.0378 40.2363 79.6525 39.545C79.2785 38.8537 79.0915 38.066 79.0915 37.182C79.0915 36.3547 79.2728 35.5897 79.6355 34.887C79.9982 34.1843 80.5025 33.6233 81.1485 33.204C81.8058 32.7733 82.5595 32.558 83.4095 32.558C84.3048 32.558 85.0642 32.7507 85.6875 33.136C86.3222 33.5213 86.8038 34.0483 87.1325 34.717C87.4612 35.3857 87.6255 36.1393 87.6255 36.978C87.6255 37.1027 87.6198 37.216 87.6085 37.318C87.6085 37.42 87.6028 37.4993 87.5915 37.556H80.8935C80.9842 38.4173 81.2845 39.0633 81.7945 39.494C82.3158 39.9247 82.9052 40.14 83.5625 40.14C84.1518 40.14 84.6392 40.0097 85.0245 39.749C85.4098 39.477 85.7158 39.1427 85.9425 38.746L87.4555 39.477C87.0815 40.157 86.5715 40.7123 85.9255 41.143C85.2795 41.5623 84.4748 41.772 83.5115 41.772ZM83.4265 34.122C82.8145 34.122 82.2932 34.309 81.8625 34.683C81.4318 35.057 81.1428 35.5557 80.9955 36.179H85.8065C85.7838 35.8843 85.6875 35.5783 85.5175 35.261C85.3475 34.9437 85.0868 34.6773 84.7355 34.462C84.3955 34.2353 83.9592 34.122 83.4265 34.122ZM89.3288 41.5V32.83H91.0628V34.02H91.1648C91.4141 33.6007 91.7825 33.255 92.2698 32.983C92.7685 32.6997 93.3125 32.558 93.9018 32.558C94.9671 32.558 95.7661 32.8753 96.2988 33.51C96.8315 34.1447 97.0978 34.9833 97.0978 36.026V41.5H95.2788V36.264C95.2788 35.5613 95.1031 35.0513 94.7518 34.734C94.4005 34.4053 93.9415 34.241 93.3748 34.241C92.9328 34.241 92.5475 34.3657 92.2188 34.615C91.8901 34.853 91.6295 35.1703 91.4368 35.567C91.2555 35.9637 91.1648 36.3887 91.1648 36.842V41.5H89.3288ZM103.151 41.772C102.301 41.772 101.542 41.5737 100.873 41.177C100.204 40.7803 99.6775 40.2363 99.2921 39.545C98.9181 38.8537 98.7311 38.066 98.7311 37.182C98.7311 36.3547 98.9125 35.5897 99.2751 34.887C99.6378 34.1843 100.142 33.6233 100.788 33.204C101.445 32.7733 102.199 32.558 103.049 32.558C103.944 32.558 104.704 32.7507 105.327 33.136C105.962 33.5213 106.443 34.0483 106.772 34.717C107.101 35.3857 107.265 36.1393 107.265 36.978C107.265 37.1027 107.259 37.216 107.248 37.318C107.248 37.42 107.242 37.4993 107.231 37.556H100.533C100.624 38.4173 100.924 39.0633 101.434 39.494C101.955 39.9247 102.545 40.14 103.202 40.14C103.791 40.14 104.279 40.0097 104.664 39.749C105.049 39.477 105.355 39.1427 105.582 38.746L107.095 39.477C106.721 40.157 106.211 40.7123 105.565 41.143C104.919 41.5623 104.114 41.772 103.151 41.772ZM103.066 34.122C102.454 34.122 101.933 34.309 101.502 34.683C101.071 35.057 100.782 35.5557 100.635 36.179H105.446C105.423 35.8843 105.327 35.5783 105.157 35.261C104.987 34.9437 104.726 34.6773 104.375 34.462C104.035 34.2353 103.599 34.122 103.066 34.122ZM102.25 31.164L100.431 29.107V28.988H102.182L102.964 30.042H103.134L103.933 28.988H105.701V29.107L103.865 31.164H102.25ZM108.443 41.5V39.97L113.271 34.428H108.596V32.83H115.515V34.36L110.704 39.902H115.651V41.5H108.443ZM111.265 31.164L109.446 29.107V28.988H111.197L111.979 30.042H112.149L112.948 28.988H114.716V29.107L112.88 31.164H111.265ZM121.164 41.772C120.314 41.772 119.555 41.5737 118.886 41.177C118.217 40.7803 117.69 40.2363 117.305 39.545C116.931 38.8537 116.744 38.066 116.744 37.182C116.744 36.3547 116.925 35.5897 117.288 34.887C117.651 34.1843 118.155 33.6233 118.801 33.204C119.458 32.7733 120.212 32.558 121.062 32.558C121.957 32.558 122.717 32.7507 123.34 33.136C123.975 33.5213 124.456 34.0483 124.785 34.717C125.114 35.3857 125.278 36.1393 125.278 36.978C125.278 37.1027 125.272 37.216 125.261 37.318C125.261 37.42 125.255 37.4993 125.244 37.556H118.546C118.637 38.4173 118.937 39.0633 119.447 39.494C119.968 39.9247 120.558 40.14 121.215 40.14C121.804 40.14 122.292 40.0097 122.677 39.749C123.062 39.477 123.368 39.1427 123.595 38.746L125.108 39.477C124.734 40.157 124.224 40.7123 123.578 41.143C122.932 41.5623 122.127 41.772 121.164 41.772ZM121.079 34.122C120.467 34.122 119.946 34.309 119.515 34.683C119.084 35.057 118.795 35.5557 118.648 36.179H123.459C123.436 35.8843 123.34 35.5783 123.17 35.261C123 34.9437 122.739 34.6773 122.388 34.462C122.048 34.2353 121.612 34.122 121.079 34.122ZM126.981 41.5V32.83H128.715V34.02H128.817C129.066 33.6007 129.435 33.255 129.922 32.983C130.421 32.6997 130.965 32.558 131.554 32.558C132.619 32.558 133.418 32.8753 133.951 33.51C134.484 34.1447 134.75 34.9833 134.75 36.026V41.5H132.931V36.264C132.931 35.5613 132.755 35.0513 132.404 34.734C132.053 34.4053 131.594 34.241 131.027 34.241C130.585 34.241 130.2 34.3657 129.871 34.615C129.542 34.853 129.282 35.1703 129.089 35.567C128.908 35.9637 128.817 36.3887 128.817 36.842V41.5H126.981ZM136.842 41.5V29.328H138.678V36.502L142.35 32.83H144.628V32.932L141.279 36.247L144.747 41.398V41.5H142.571L139.987 37.522L138.678 38.814V41.5H136.842ZM148.848 44.747C148.814 44.8377 148.775 44.9227 148.729 45.002C148.695 45.0813 148.673 45.138 148.661 45.172H146.706C146.763 45.0473 146.842 44.866 146.944 44.628C147.058 44.4013 147.165 44.1803 147.267 43.965C147.369 43.7497 147.477 43.506 147.59 43.234C147.715 42.962 147.84 42.6957 147.964 42.435L148.61 41.024L144.989 32.83H147.029L149.511 38.746H149.596L151.993 32.83H154.016L149.528 43.166C149.404 43.4607 149.268 43.7667 149.12 44.084C148.984 44.4127 148.894 44.6337 148.848 44.747ZM164.942 41.772C164.069 41.772 163.247 41.6133 162.477 41.296C161.717 40.9787 161.043 40.5367 160.454 39.97C159.864 39.392 159.4 38.7177 159.06 37.947C158.731 37.165 158.567 36.3207 158.567 35.414C158.567 34.5073 158.731 33.6687 159.06 32.898C159.4 32.116 159.859 31.4417 160.437 30.875C161.026 30.297 161.706 29.8493 162.477 29.532C163.247 29.2147 164.069 29.056 164.942 29.056C165.871 29.056 166.727 29.2203 167.509 29.549C168.302 29.8777 168.965 30.3367 169.498 30.926L168.206 32.201C167.809 31.759 167.333 31.419 166.778 31.181C166.234 30.943 165.622 30.824 164.942 30.824C164.137 30.824 163.395 31.0167 162.715 31.402C162.035 31.776 161.485 32.3087 161.066 33C160.658 33.68 160.454 34.4847 160.454 35.414C160.454 36.3433 160.663 37.1537 161.083 37.845C161.502 38.525 162.052 39.0577 162.732 39.443C163.412 39.817 164.154 40.004 164.959 40.004C165.695 40.004 166.364 39.868 166.965 39.596C167.565 39.3127 168.047 38.916 168.41 38.406C168.784 37.896 169.01 37.284 169.09 36.57H164.925V34.921H170.841C170.909 35.227 170.943 35.55 170.943 35.89V35.907C170.943 37.0857 170.682 38.117 170.161 39.001C169.651 39.8737 168.942 40.5537 168.036 41.041C167.129 41.5283 166.098 41.772 164.942 41.772ZM176.417 41.772C175.521 41.772 174.734 41.568 174.054 41.16C173.374 40.752 172.841 40.2023 172.456 39.511C172.07 38.8197 171.878 38.0377 171.878 37.165C171.878 36.3037 172.07 35.5273 172.456 34.836C172.841 34.1333 173.374 33.578 174.054 33.17C174.734 32.762 175.521 32.558 176.417 32.558C177.301 32.558 178.083 32.762 178.763 33.17C179.443 33.578 179.975 34.1333 180.361 34.836C180.746 35.5273 180.939 36.3037 180.939 37.165C180.939 38.0377 180.746 38.8197 180.361 39.511C179.975 40.2023 179.443 40.752 178.763 41.16C178.083 41.568 177.301 41.772 176.417 41.772ZM176.417 40.089C176.893 40.089 177.335 39.9757 177.743 39.749C178.151 39.511 178.479 39.1767 178.729 38.746C178.989 38.304 179.12 37.777 179.12 37.165C179.12 36.553 178.989 36.0317 178.729 35.601C178.479 35.159 178.151 34.8247 177.743 34.598C177.335 34.36 176.893 34.241 176.417 34.241C175.941 34.241 175.493 34.36 175.074 34.598C174.666 34.8247 174.331 35.159 174.071 35.601C173.821 36.0317 173.697 36.553 173.697 37.165C173.697 37.777 173.821 38.304 174.071 38.746C174.331 39.1767 174.666 39.511 175.074 39.749C175.493 39.9757 175.941 40.089 176.417 40.089ZM186.71 41.772C185.814 41.772 185.027 41.568 184.347 41.16C183.667 40.752 183.134 40.2023 182.749 39.511C182.363 38.8197 182.171 38.0377 182.171 37.165C182.171 36.3037 182.363 35.5273 182.749 34.836C183.134 34.1333 183.667 33.578 184.347 33.17C185.027 32.762 185.814 32.558 186.71 32.558C187.594 32.558 188.376 32.762 189.056 33.17C189.736 33.578 190.268 34.1333 190.654 34.836C191.039 35.5273 191.232 36.3037 191.232 37.165C191.232 38.0377 191.039 38.8197 190.654 39.511C190.268 40.2023 189.736 40.752 189.056 41.16C188.376 41.568 187.594 41.772 186.71 41.772ZM186.71 40.089C187.186 40.089 187.628 39.9757 188.036 39.749C188.444 39.511 188.772 39.1767 189.022 38.746C189.282 38.304 189.413 37.777 189.413 37.165C189.413 36.553 189.282 36.0317 189.022 35.601C188.772 35.159 188.444 34.8247 188.036 34.598C187.628 34.36 187.186 34.241 186.71 34.241C186.234 34.241 185.786 34.36 185.367 34.598C184.959 34.8247 184.624 35.159 184.364 35.601C184.114 36.0317 183.99 36.553 183.99 37.165C183.99 37.777 184.114 38.304 184.364 38.746C184.624 39.1767 184.959 39.511 185.367 39.749C185.786 39.9757 186.234 40.089 186.71 40.089ZM196.833 45.444C196.073 45.444 195.416 45.3193 194.861 45.07C194.317 44.832 193.875 44.5203 193.535 44.135C193.195 43.761 192.951 43.3757 192.804 42.979L194.504 42.265C194.685 42.7183 194.974 43.0867 195.371 43.37C195.779 43.6647 196.266 43.812 196.833 43.812C197.626 43.812 198.249 43.574 198.703 43.098C199.167 42.622 199.4 41.9477 199.4 41.075V40.242H199.298C199.026 40.65 198.646 40.9787 198.159 41.228C197.683 41.466 197.139 41.585 196.527 41.585C195.79 41.585 195.116 41.398 194.504 41.024C193.892 40.65 193.399 40.1287 193.025 39.46C192.651 38.78 192.464 37.9867 192.464 37.08C192.464 36.162 192.651 35.3687 193.025 34.7C193.399 34.02 193.892 33.493 194.504 33.119C195.116 32.745 195.79 32.558 196.527 32.558C197.139 32.558 197.683 32.6827 198.159 32.932C198.646 33.1813 199.026 33.51 199.298 33.918H199.4V32.83H201.151V41.041C201.151 41.9817 200.964 42.7807 200.59 43.438C200.227 44.0953 199.723 44.594 199.077 44.934C198.431 45.274 197.683 45.444 196.833 45.444ZM196.85 39.919C197.303 39.919 197.722 39.8113 198.108 39.596C198.493 39.3693 198.805 39.0463 199.043 38.627C199.281 38.1963 199.4 37.6807 199.4 37.08C199.4 36.4567 199.281 35.9353 199.043 35.516C198.805 35.0853 198.493 34.7623 198.108 34.547C197.722 34.3317 197.303 34.224 196.85 34.224C196.396 34.224 195.971 34.3373 195.575 34.564C195.189 34.7793 194.878 35.0967 194.64 35.516C194.402 35.9353 194.283 36.4567 194.283 37.08C194.283 37.692 194.402 38.2133 194.64 38.644C194.878 39.0633 195.189 39.3807 195.575 39.596C195.971 39.8113 196.396 39.919 196.85 39.919ZM203.316 41.5V29.328H205.152V41.5H203.316ZM211.194 41.772C210.344 41.772 209.585 41.5737 208.916 41.177C208.247 40.7803 207.72 40.2363 207.335 39.545C206.961 38.8537 206.774 38.066 206.774 37.182C206.774 36.3547 206.955 35.5897 207.318 34.887C207.681 34.1843 208.185 33.6233 208.831 33.204C209.488 32.7733 210.242 32.558 211.092 32.558C211.987 32.558 212.747 32.7507 213.37 33.136C214.005 33.5213 214.486 34.0483 214.815 34.717C215.144 35.3857 215.308 36.1393 215.308 36.978C215.308 37.1027 215.302 37.216 215.291 37.318C215.291 37.42 215.285 37.4993 215.274 37.556H208.576C208.667 38.4173 208.967 39.0633 209.477 39.494C209.998 39.9247 210.588 40.14 211.245 40.14C211.834 40.14 212.322 40.0097 212.707 39.749C213.092 39.477 213.398 39.1427 213.625 38.746L215.138 39.477C214.764 40.157 214.254 40.7123 213.608 41.143C212.962 41.5623 212.157 41.772 211.194 41.772ZM211.109 34.122C210.497 34.122 209.976 34.309 209.545 34.683C209.114 35.057 208.825 35.5557 208.678 36.179H213.489C213.466 35.8843 213.37 35.5783 213.2 35.261C213.03 34.9437 212.769 34.6773 212.418 34.462C212.078 34.2353 211.642 34.122 211.109 34.122Z" fill="white"/>
<rect x="0.5" y="0.5" width="234" height="54" rx="27" stroke="#747775"/>
<defs>
<linearGradient id="paint0_linear_1819_24054" x1="37.2843" y1="34.0448" x2="18.7823" y2="55.7227" gradientUnits="userSpaceOnUse">
<stop stop-color="#4285F4"/>
<stop offset="1" stop-color="#1B74E8"/>
</linearGradient>
</defs>
</svg>
