<svg width="199" height="55" viewBox="0 0 199 55" fill="none" xmlns="http://www.w3.org/2000/svg">
<rect x="0.5" y="0.5" width="198" height="54" rx="27" fill="#1F1F1F"/>
<path d="M57 23.791H21V18.1456C21 15.0809 23.6422 12.5001 26.7798 12.5001H51.2202C54.3578 12.5001 57 15.0809 57 18.1456V23.791Z" fill="#34A853"/>
<path d="M57 29H21V23C21 19.7429 23.6422 17 26.7798 17H51.2202C54.3578 17 57 19.7429 57 23V29Z" fill="#FBBC04"/>
<path d="M57 34H21V28C21 24.7429 23.6422 22 26.7798 22H51.2202C54.3578 22 57 24.7429 57 28V34Z" fill="#EA4335"/>
<path d="M21 25.2409L43.8493 30.4025C46.4795 31.0477 49.4384 30.4025 51.5753 28.7895L57 24.9183V37.0157C57 40.0804 54.3699 42.4999 51.2466 42.4999H26.7534C23.6301 42.4999 21 40.0804 21 37.0157V25.2409Z" fill="url(#paint0_linear_1819_24700)"/>
<path d="M69.195 21.5L72.705 12.192H74.33L77.853 21.5H76.28L75.422 19.108H71.626L70.768 21.5H69.195ZM73.134 14.935L72.107 17.782H74.941L73.914 14.935L73.563 13.869H73.485L73.134 14.935ZM78.8708 21.5V14.87H80.1968V15.78H80.2748C80.4654 15.4593 80.7471 15.195 81.1198 14.987C81.5011 14.7703 81.9171 14.662 82.3678 14.662C83.1824 14.662 83.7934 14.9047 84.2008 15.39C84.6081 15.8753 84.8118 16.5167 84.8118 17.314V21.5H83.4208V17.496C83.4208 16.9587 83.2864 16.5687 83.0178 16.326C82.7491 16.0747 82.3981 15.949 81.9648 15.949C81.6268 15.949 81.3321 16.0443 81.0808 16.235C80.8294 16.417 80.6301 16.6597 80.4828 16.963C80.3441 17.2663 80.2748 17.5913 80.2748 17.938V21.5H78.8708ZM82.7708 13.518C82.5801 13.518 82.3938 13.479 82.2118 13.401C82.0298 13.323 81.8651 13.2407 81.7178 13.154C81.6224 13.0933 81.5314 13.0413 81.4448 12.998C81.3668 12.9547 81.2888 12.933 81.2108 12.933C80.9681 12.933 80.8338 13.076 80.8078 13.362H79.7678C79.7678 13.0067 79.8371 12.7163 79.9758 12.491C80.1231 12.2657 80.3051 12.101 80.5218 11.997C80.7471 11.893 80.9768 11.841 81.2108 11.841C81.4188 11.841 81.6094 11.8843 81.7828 11.971C81.9648 12.049 82.1294 12.1313 82.2768 12.218C82.3721 12.27 82.4588 12.3177 82.5368 12.361C82.6234 12.4043 82.6971 12.426 82.7578 12.426C83.0091 12.426 83.1478 12.283 83.1738 11.997H84.2268C84.2268 12.3523 84.1531 12.6427 84.0058 12.868C83.8671 13.0933 83.6851 13.258 83.4598 13.362C83.2344 13.466 83.0048 13.518 82.7708 13.518ZM88.4283 21.708C87.9516 21.708 87.527 21.617 87.1543 21.435C86.7816 21.2443 86.4913 20.98 86.2833 20.642C86.0753 20.304 85.9713 19.9183 85.9713 19.485C85.9713 19.017 86.0926 18.6183 86.3353 18.289C86.5866 17.951 86.9203 17.6953 87.3363 17.522C87.7523 17.3487 88.2116 17.262 88.7143 17.262C89.1303 17.262 89.4943 17.301 89.8063 17.379C90.127 17.457 90.3696 17.5393 90.5343 17.626V17.275C90.5343 16.8417 90.3783 16.495 90.0663 16.235C89.7543 15.975 89.3513 15.845 88.8573 15.845C88.5193 15.845 88.1986 15.923 87.8953 16.079C87.592 16.2263 87.3493 16.43 87.1673 16.69L86.2053 15.949C86.4913 15.5503 86.8683 15.2383 87.3363 15.013C87.813 14.779 88.333 14.662 88.8963 14.662C89.8583 14.662 90.5993 14.9003 91.1193 15.377C91.6393 15.845 91.8993 16.5037 91.8993 17.353V21.5H90.5343V20.681H90.4563C90.283 20.9497 90.023 21.188 89.6763 21.396C89.3296 21.604 88.9136 21.708 88.4283 21.708ZM88.6753 20.564C89.0393 20.564 89.36 20.4773 89.6373 20.304C89.9146 20.1307 90.1313 19.9053 90.2873 19.628C90.452 19.342 90.5343 19.0343 90.5343 18.705C90.335 18.5923 90.101 18.5013 89.8323 18.432C89.5636 18.354 89.2776 18.315 88.9743 18.315C88.4023 18.315 87.995 18.432 87.7523 18.666C87.5096 18.8913 87.3883 19.1687 87.3883 19.498C87.3883 19.81 87.5053 20.0657 87.7393 20.265C87.9733 20.4643 88.2853 20.564 88.6753 20.564ZM96.2155 21.708C95.6175 21.708 95.0758 21.5607 94.5905 21.266C94.1138 20.9627 93.7325 20.5467 93.4465 20.018C93.1692 19.4807 93.0305 18.8697 93.0305 18.185C93.0305 17.5003 93.1692 16.8937 93.4465 16.365C93.7325 15.8363 94.1138 15.4203 94.5905 15.117C95.0758 14.8137 95.6175 14.662 96.2155 14.662C96.7268 14.662 97.1645 14.7747 97.5285 15C97.9012 15.2253 98.1742 15.481 98.3475 15.767H98.4255L98.3475 14.844V12.192H99.7385V21.5H98.4255V20.616H98.3475C98.1742 20.902 97.9012 21.1577 97.5285 21.383C97.1645 21.5997 96.7268 21.708 96.2155 21.708ZM96.4235 20.421C96.7702 20.421 97.0952 20.33 97.3985 20.148C97.7105 19.966 97.9575 19.7103 98.1395 19.381C98.3302 19.043 98.4255 18.6443 98.4255 18.185C98.4255 17.7257 98.3302 17.3313 98.1395 17.002C97.9575 16.664 97.7105 16.404 97.3985 16.222C97.0952 16.04 96.7702 15.949 96.4235 15.949C96.0768 15.949 95.7518 16.04 95.4485 16.222C95.1452 16.404 94.8982 16.664 94.7075 17.002C94.5168 17.3313 94.4215 17.7257 94.4215 18.185C94.4215 18.6443 94.5168 19.043 94.7075 19.381C94.8982 19.7103 95.1452 19.966 95.4485 20.148C95.7518 20.33 96.0768 20.421 96.4235 20.421ZM102.198 13.895C101.938 13.895 101.713 13.804 101.522 13.622C101.34 13.4313 101.249 13.206 101.249 12.946C101.249 12.686 101.34 12.465 101.522 12.283C101.713 12.101 101.938 12.01 102.198 12.01C102.458 12.01 102.679 12.101 102.861 12.283C103.052 12.465 103.147 12.686 103.147 12.946C103.147 13.206 103.052 13.4313 102.861 13.622C102.679 13.804 102.458 13.895 102.198 13.895ZM101.496 21.5V14.87H102.9V21.5H101.496ZM104.642 21.5V14.87H105.968V15.845H106.046C106.194 15.507 106.445 15.2297 106.8 15.013C107.164 14.7877 107.554 14.675 107.97 14.675C108.152 14.675 108.304 14.688 108.425 14.714C108.555 14.74 108.672 14.7703 108.776 14.805V16.261C108.612 16.1917 108.443 16.1353 108.269 16.092C108.105 16.0487 107.931 16.027 107.749 16.027C107.42 16.027 107.125 16.118 106.865 16.3C106.614 16.4733 106.415 16.7117 106.267 17.015C106.12 17.3097 106.046 17.6347 106.046 17.99V21.5H104.642ZM114.974 21.708C114.498 21.708 114.073 21.617 113.7 21.435C113.328 21.2443 113.037 20.98 112.829 20.642C112.621 20.304 112.517 19.9183 112.517 19.485C112.517 19.017 112.639 18.6183 112.881 18.289C113.133 17.951 113.466 17.6953 113.882 17.522C114.298 17.3487 114.758 17.262 115.26 17.262C115.676 17.262 116.04 17.301 116.352 17.379C116.673 17.457 116.916 17.5393 117.08 17.626V17.275C117.08 16.8417 116.924 16.495 116.612 16.235C116.3 15.975 115.897 15.845 115.403 15.845C115.065 15.845 114.745 15.923 114.441 16.079C114.138 16.2263 113.895 16.43 113.713 16.69L112.751 15.949C113.037 15.5503 113.414 15.2383 113.882 15.013C114.359 14.779 114.879 14.662 115.442 14.662C116.404 14.662 117.145 14.9003 117.665 15.377C118.185 15.845 118.445 16.5037 118.445 17.353V21.5H117.08V20.681H117.002C116.829 20.9497 116.569 21.188 116.222 21.396C115.876 21.604 115.46 21.708 114.974 21.708ZM115.221 20.564C115.585 20.564 115.906 20.4773 116.183 20.304C116.461 20.1307 116.677 19.9053 116.833 19.628C116.998 19.342 117.08 19.0343 117.08 18.705C116.881 18.5923 116.647 18.5013 116.378 18.432C116.11 18.354 115.824 18.315 115.52 18.315C114.948 18.315 114.541 18.432 114.298 18.666C114.056 18.8913 113.934 19.1687 113.934 19.498C113.934 19.81 114.051 20.0657 114.285 20.265C114.519 20.4643 114.831 20.564 115.221 20.564Z" fill="white"/>
<path d="M76.14 41.772C75.2673 41.772 74.4457 41.6133 73.675 41.296C72.9157 40.9787 72.2413 40.5367 71.652 39.97C71.0627 39.392 70.598 38.7177 70.258 37.947C69.9293 37.165 69.765 36.3207 69.765 35.414C69.765 34.5073 69.9293 33.6687 70.258 32.898C70.598 32.116 71.057 31.4417 71.635 30.875C72.2243 30.297 72.9043 29.8493 73.675 29.532C74.4457 29.2147 75.2673 29.056 76.14 29.056C77.0693 29.056 77.925 29.2203 78.707 29.549C79.5003 29.8777 80.1633 30.3367 80.696 30.926L79.404 32.201C79.0073 31.759 78.5313 31.419 77.976 31.181C77.432 30.943 76.82 30.824 76.14 30.824C75.3353 30.824 74.593 31.0167 73.913 31.402C73.233 31.776 72.6833 32.3087 72.264 33C71.856 33.68 71.652 34.4847 71.652 35.414C71.652 36.3433 71.8617 37.1537 72.281 37.845C72.7003 38.525 73.25 39.0577 73.93 39.443C74.61 39.817 75.3523 40.004 76.157 40.004C76.8937 40.004 77.5623 39.868 78.163 39.596C78.7637 39.3127 79.2453 38.916 79.608 38.406C79.982 37.896 80.2087 37.284 80.288 36.57H76.123V34.921H82.039C82.107 35.227 82.141 35.55 82.141 35.89V35.907C82.141 37.0857 81.8803 38.117 81.359 39.001C80.849 39.8737 80.1407 40.5537 79.234 41.041C78.3273 41.5283 77.296 41.772 76.14 41.772ZM87.6149 41.772C86.7195 41.772 85.9319 41.568 85.2519 41.16C84.5719 40.752 84.0392 40.2023 83.6539 39.511C83.2685 38.8197 83.0759 38.0377 83.0759 37.165C83.0759 36.3037 83.2685 35.5273 83.6539 34.836C84.0392 34.1333 84.5719 33.578 85.2519 33.17C85.9319 32.762 86.7195 32.558 87.6149 32.558C88.4989 32.558 89.2809 32.762 89.9609 33.17C90.6409 33.578 91.1735 34.1333 91.5589 34.836C91.9442 35.5273 92.1369 36.3037 92.1369 37.165C92.1369 38.0377 91.9442 38.8197 91.5589 39.511C91.1735 40.2023 90.6409 40.752 89.9609 41.16C89.2809 41.568 88.4989 41.772 87.6149 41.772ZM87.6149 40.089C88.0909 40.089 88.5329 39.9757 88.9409 39.749C89.3489 39.511 89.6775 39.1767 89.9269 38.746C90.1875 38.304 90.3179 37.777 90.3179 37.165C90.3179 36.553 90.1875 36.0317 89.9269 35.601C89.6775 35.159 89.3489 34.8247 88.9409 34.598C88.5329 34.36 88.0909 34.241 87.6149 34.241C87.1389 34.241 86.6912 34.36 86.2719 34.598C85.8639 34.8247 85.5295 35.159 85.2689 35.601C85.0195 36.0317 84.8949 36.553 84.8949 37.165C84.8949 37.777 85.0195 38.304 85.2689 38.746C85.5295 39.1767 85.8639 39.511 86.2719 39.749C86.6912 39.9757 87.1389 40.089 87.6149 40.089ZM97.9078 41.772C97.0125 41.772 96.2248 41.568 95.5448 41.16C94.8648 40.752 94.3322 40.2023 93.9468 39.511C93.5615 38.8197 93.3688 38.0377 93.3688 37.165C93.3688 36.3037 93.5615 35.5273 93.9468 34.836C94.3322 34.1333 94.8648 33.578 95.5448 33.17C96.2248 32.762 97.0125 32.558 97.9078 32.558C98.7918 32.558 99.5738 32.762 100.254 33.17C100.934 33.578 101.467 34.1333 101.852 34.836C102.237 35.5273 102.43 36.3037 102.43 37.165C102.43 38.0377 102.237 38.8197 101.852 39.511C101.467 40.2023 100.934 40.752 100.254 41.16C99.5738 41.568 98.7918 41.772 97.9078 41.772ZM97.9078 40.089C98.3838 40.089 98.8258 39.9757 99.2338 39.749C99.6418 39.511 99.9705 39.1767 100.22 38.746C100.481 38.304 100.611 37.777 100.611 37.165C100.611 36.553 100.481 36.0317 100.22 35.601C99.9705 35.159 99.6418 34.8247 99.2338 34.598C98.8258 34.36 98.3838 34.241 97.9078 34.241C97.4318 34.241 96.9842 34.36 96.5648 34.598C96.1568 34.8247 95.8225 35.159 95.5618 35.601C95.3125 36.0317 95.1878 36.553 95.1878 37.165C95.1878 37.777 95.3125 38.304 95.5618 38.746C95.8225 39.1767 96.1568 39.511 96.5648 39.749C96.9842 39.9757 97.4318 40.089 97.9078 40.089ZM108.031 45.444C107.271 45.444 106.614 45.3193 106.059 45.07C105.515 44.832 105.073 44.5203 104.733 44.135C104.393 43.761 104.149 43.3757 104.002 42.979L105.702 42.265C105.883 42.7183 106.172 43.0867 106.569 43.37C106.977 43.6647 107.464 43.812 108.031 43.812C108.824 43.812 109.447 43.574 109.901 43.098C110.365 42.622 110.598 41.9477 110.598 41.075V40.242H110.496C110.224 40.65 109.844 40.9787 109.357 41.228C108.881 41.466 108.337 41.585 107.725 41.585C106.988 41.585 106.314 41.398 105.702 41.024C105.09 40.65 104.597 40.1287 104.223 39.46C103.849 38.78 103.662 37.9867 103.662 37.08C103.662 36.162 103.849 35.3687 104.223 34.7C104.597 34.02 105.09 33.493 105.702 33.119C106.314 32.745 106.988 32.558 107.725 32.558C108.337 32.558 108.881 32.6827 109.357 32.932C109.844 33.1813 110.224 33.51 110.496 33.918H110.598V32.83H112.349V41.041C112.349 41.9817 112.162 42.7807 111.788 43.438C111.425 44.0953 110.921 44.594 110.275 44.934C109.629 45.274 108.881 45.444 108.031 45.444ZM108.048 39.919C108.501 39.919 108.92 39.8113 109.306 39.596C109.691 39.3693 110.003 39.0463 110.241 38.627C110.479 38.1963 110.598 37.6807 110.598 37.08C110.598 36.4567 110.479 35.9353 110.241 35.516C110.003 35.0853 109.691 34.7623 109.306 34.547C108.92 34.3317 108.501 34.224 108.048 34.224C107.594 34.224 107.169 34.3373 106.773 34.564C106.387 34.7793 106.076 35.0967 105.838 35.516C105.6 35.9353 105.481 36.4567 105.481 37.08C105.481 37.692 105.6 38.2133 105.838 38.644C106.076 39.0633 106.387 39.3807 106.773 39.596C107.169 39.8113 107.594 39.919 108.048 39.919ZM114.514 41.5V29.328H116.35V41.5H114.514ZM122.392 41.772C121.542 41.772 120.783 41.5737 120.114 41.177C119.446 40.7803 118.919 40.2363 118.533 39.545C118.159 38.8537 117.972 38.066 117.972 37.182C117.972 36.3547 118.154 35.5897 118.516 34.887C118.879 34.1843 119.383 33.6233 120.029 33.204C120.687 32.7733 121.44 32.558 122.29 32.558C123.186 32.558 123.945 32.7507 124.568 33.136C125.203 33.5213 125.685 34.0483 126.013 34.717C126.342 35.3857 126.506 36.1393 126.506 36.978C126.506 37.1027 126.501 37.216 126.489 37.318C126.489 37.42 126.484 37.4993 126.472 37.556H119.774C119.865 38.4173 120.165 39.0633 120.675 39.494C121.197 39.9247 121.786 40.14 122.443 40.14C123.033 40.14 123.52 40.0097 123.905 39.749C124.291 39.477 124.597 39.1427 124.823 38.746L126.336 39.477C125.962 40.157 125.452 40.7123 124.806 41.143C124.16 41.5623 123.356 41.772 122.392 41.772ZM122.307 34.122C121.695 34.122 121.174 34.309 120.743 34.683C120.313 35.057 120.024 35.5557 119.876 36.179H124.687C124.665 35.8843 124.568 35.5783 124.398 35.261C124.228 34.9437 123.968 34.6773 123.616 34.462C123.276 34.2353 122.84 34.122 122.307 34.122ZM133.979 41.5L130.715 29.328H132.789L134.727 37.233L134.931 38.287H135.033L135.288 37.233L137.736 29.328H139.606L141.952 37.233L142.207 38.27H142.309L142.513 37.233L144.451 29.328H146.508L143.295 41.5H141.323L138.994 33.425L138.722 32.286H138.62L138.331 33.425L135.9 41.5H133.979ZM149.922 41.772C149.299 41.772 148.743 41.653 148.256 41.415C147.769 41.1657 147.389 40.82 147.117 40.378C146.845 39.936 146.709 39.4317 146.709 38.865C146.709 38.253 146.868 37.7317 147.185 37.301C147.514 36.859 147.95 36.5247 148.494 36.298C149.038 36.0713 149.639 35.958 150.296 35.958C150.84 35.958 151.316 36.009 151.724 36.111C152.143 36.213 152.461 36.3207 152.676 36.434V35.975C152.676 35.4083 152.472 34.955 152.064 34.615C151.656 34.275 151.129 34.105 150.483 34.105C150.041 34.105 149.622 34.207 149.225 34.411C148.828 34.6037 148.511 34.87 148.273 35.21L147.015 34.241C147.389 33.7197 147.882 33.3117 148.494 33.017C149.117 32.711 149.797 32.558 150.534 32.558C151.792 32.558 152.761 32.8697 153.441 33.493C154.121 34.105 154.461 34.9663 154.461 36.077V41.5H152.676V40.429H152.574C152.347 40.7803 152.007 41.092 151.554 41.364C151.101 41.636 150.557 41.772 149.922 41.772ZM150.245 40.276C150.721 40.276 151.14 40.1627 151.503 39.936C151.866 39.7093 152.149 39.4147 152.353 39.052C152.568 38.678 152.676 38.2757 152.676 37.845C152.415 37.6977 152.109 37.5787 151.758 37.488C151.407 37.386 151.033 37.335 150.636 37.335C149.888 37.335 149.355 37.488 149.038 37.794C148.721 38.0887 148.562 38.4513 148.562 38.882C148.562 39.29 148.715 39.6243 149.021 39.885C149.327 40.1457 149.735 40.276 150.245 40.276ZM156.499 41.5V29.328H158.335V41.5H156.499ZM160.517 41.5V29.328H162.353V41.5H160.517ZM168.395 41.772C167.545 41.772 166.786 41.5737 166.117 41.177C165.449 40.7803 164.922 40.2363 164.536 39.545C164.162 38.8537 163.975 38.066 163.975 37.182C163.975 36.3547 164.157 35.5897 164.519 34.887C164.882 34.1843 165.386 33.6233 166.032 33.204C166.69 32.7733 167.443 32.558 168.293 32.558C169.189 32.558 169.948 32.7507 170.571 33.136C171.206 33.5213 171.688 34.0483 172.016 34.717C172.345 35.3857 172.509 36.1393 172.509 36.978C172.509 37.1027 172.504 37.216 172.492 37.318C172.492 37.42 172.487 37.4993 172.475 37.556H165.777C165.868 38.4173 166.168 39.0633 166.678 39.494C167.2 39.9247 167.789 40.14 168.446 40.14C169.036 40.14 169.523 40.0097 169.908 39.749C170.294 39.477 170.6 39.1427 170.826 38.746L172.339 39.477C171.965 40.157 171.455 40.7123 170.809 41.143C170.163 41.5623 169.359 41.772 168.395 41.772ZM168.31 34.122C167.698 34.122 167.177 34.309 166.746 34.683C166.316 35.057 166.027 35.5557 165.879 36.179H170.69C170.668 35.8843 170.571 35.5783 170.401 35.261C170.231 34.9437 169.971 34.6773 169.619 34.462C169.279 34.2353 168.843 34.122 168.31 34.122ZM174.882 38.984V34.428H173.369V32.83H174.882V30.382H176.718V32.83H178.843V34.428H176.718V38.593C176.718 39.0237 176.803 39.3523 176.973 39.579C177.154 39.8057 177.454 39.919 177.874 39.919C178.089 39.919 178.27 39.8907 178.418 39.834C178.576 39.7773 178.735 39.698 178.894 39.596V41.381C178.701 41.4603 178.497 41.5227 178.282 41.568C178.066 41.6133 177.811 41.636 177.517 41.636C176.712 41.636 176.072 41.4037 175.596 40.939C175.12 40.463 174.882 39.8113 174.882 38.984Z" fill="white"/>
<rect x="0.5" y="0.5" width="198" height="54" rx="27" stroke="#747775"/>
<defs>
<linearGradient id="paint0_linear_1819_24700" x1="37.2843" y1="34.0448" x2="18.7823" y2="55.7227" gradientUnits="userSpaceOnUse">
<stop stop-color="#4285F4"/>
<stop offset="1" stop-color="#1B74E8"/>
</linearGradient>
</defs>
</svg>
