<svg width="239" height="55" viewBox="0 0 239 55" fill="none" xmlns="http://www.w3.org/2000/svg">
<rect x="0.5" y="0.5" width="238" height="54" rx="27" fill="#1F1F1F"/>
<path d="M57 23.791H21V18.1456C21 15.0809 23.6422 12.5001 26.7798 12.5001H51.2202C54.3578 12.5001 57 15.0809 57 18.1456V23.791Z" fill="#34A853"/>
<path d="M57 29H21V23C21 19.7429 23.6422 17 26.7798 17H51.2202C54.3578 17 57 19.7429 57 23V29Z" fill="#FBBC04"/>
<path d="M57 34H21V28C21 24.7429 23.6422 22 26.7798 22H51.2202C54.3578 22 57 24.7429 57 28V34Z" fill="#EA4335"/>
<path d="M21 25.2409L43.8493 30.4025C46.4795 31.0477 49.4384 30.4025 51.5753 28.7895L57 24.9183V37.0157C57 40.0804 54.3699 42.4999 51.2466 42.4999H26.7534C23.6301 42.4999 21 40.0804 21 37.0157V25.2409Z" fill="url(#paint0_linear_1819_24719)"/>
<path d="M69.195 21.5L72.705 12.192H74.33L77.853 21.5H76.28L75.422 19.108H71.626L70.768 21.5H69.195ZM73.134 14.935L72.107 17.782H74.941L73.914 14.935L73.563 13.869H73.485L73.134 14.935ZM81.7338 24.516C81.1531 24.516 80.6505 24.4207 80.2258 24.23C79.8098 24.048 79.4718 23.8097 79.2118 23.515C78.9518 23.229 78.7655 22.9343 78.6528 22.631L79.9528 22.085C80.0915 22.4317 80.3125 22.7133 80.6158 22.93C80.9278 23.1553 81.3005 23.268 81.7338 23.268C82.3405 23.268 82.8171 23.086 83.1638 22.722C83.5191 22.358 83.6968 21.8423 83.6968 21.175V20.538H83.6188C83.4108 20.85 83.1205 21.1013 82.7478 21.292C82.3838 21.474 81.9678 21.565 81.4998 21.565C80.9365 21.565 80.4208 21.422 79.9528 21.136C79.4848 20.85 79.1078 20.4513 78.8218 19.94C78.5358 19.42 78.3928 18.8133 78.3928 18.12C78.3928 17.418 78.5358 16.8113 78.8218 16.3C79.1078 15.78 79.4848 15.377 79.9528 15.091C80.4208 14.805 80.9365 14.662 81.4998 14.662C81.9678 14.662 82.3838 14.7573 82.7478 14.948C83.1205 15.1387 83.4108 15.39 83.6188 15.702H83.6968V14.87H85.0358V21.149C85.0358 21.8683 84.8928 22.4793 84.6068 22.982C84.3295 23.4847 83.9438 23.866 83.4498 24.126C82.9558 24.386 82.3838 24.516 81.7338 24.516ZM81.7468 20.291C82.0935 20.291 82.4141 20.2087 82.7088 20.044C83.0035 19.8707 83.2418 19.6237 83.4238 19.303C83.6058 18.9737 83.6968 18.5793 83.6968 18.12C83.6968 17.6433 83.6058 17.2447 83.4238 16.924C83.2418 16.5947 83.0035 16.3477 82.7088 16.183C82.4141 16.0183 82.0935 15.936 81.7468 15.936C81.4001 15.936 81.0751 16.0227 80.7718 16.196C80.4771 16.3607 80.2388 16.6033 80.0568 16.924C79.8748 17.2447 79.7838 17.6433 79.7838 18.12C79.7838 18.588 79.8748 18.9867 80.0568 19.316C80.2388 19.6367 80.4771 19.8793 80.7718 20.044C81.0751 20.2087 81.4001 20.291 81.7468 20.291ZM86.6784 21.5V14.87H88.0044V15.845H88.0824C88.2297 15.507 88.481 15.2297 88.8364 15.013C89.2004 14.7877 89.5904 14.675 90.0064 14.675C90.1884 14.675 90.34 14.688 90.4614 14.714C90.5914 14.74 90.7084 14.7703 90.8124 14.805V16.261C90.6477 16.1917 90.4787 16.1353 90.3054 16.092C90.1407 16.0487 89.9674 16.027 89.7854 16.027C89.456 16.027 89.1614 16.118 88.9014 16.3C88.65 16.4733 88.4507 16.7117 88.3034 17.015C88.156 17.3097 88.0824 17.6347 88.0824 17.99V21.5H86.6784ZM94.5316 21.708C93.8816 21.708 93.3009 21.5563 92.7896 21.253C92.2783 20.9497 91.8753 20.5337 91.5806 20.005C91.2946 19.4763 91.1516 18.874 91.1516 18.198C91.1516 17.5653 91.2903 16.9803 91.5676 16.443C91.8449 15.9057 92.2306 15.4767 92.7246 15.156C93.2273 14.8267 93.8036 14.662 94.4536 14.662C95.1383 14.662 95.7189 14.8093 96.1956 15.104C96.6809 15.3987 97.0493 15.8017 97.3006 16.313C97.5519 16.8243 97.6776 17.4007 97.6776 18.042C97.6776 18.1373 97.6733 18.224 97.6646 18.302C97.6646 18.38 97.6603 18.4407 97.6516 18.484H92.5296C92.5989 19.1427 92.8286 19.6367 93.2186 19.966C93.6173 20.2953 94.0679 20.46 94.5706 20.46C95.0213 20.46 95.3939 20.3603 95.6886 20.161C95.9833 19.953 96.2173 19.6973 96.3906 19.394L97.5476 19.953C97.2616 20.473 96.8716 20.8977 96.3776 21.227C95.8836 21.5477 95.2683 21.708 94.5316 21.708ZM94.4666 15.858C93.9986 15.858 93.5999 16.001 93.2706 16.287C92.9413 16.573 92.7203 16.9543 92.6076 17.431H96.2866C96.2693 17.2057 96.1956 16.9717 96.0656 16.729C95.9356 16.4863 95.7363 16.2827 95.4676 16.118C95.2076 15.9447 94.8739 15.858 94.4666 15.858ZM102.034 24.516C101.453 24.516 100.95 24.4207 100.526 24.23C100.11 24.048 99.7716 23.8097 99.5116 23.515C99.2516 23.229 99.0653 22.9343 98.9526 22.631L100.253 22.085C100.391 22.4317 100.612 22.7133 100.916 22.93C101.228 23.1553 101.6 23.268 102.034 23.268C102.64 23.268 103.117 23.086 103.464 22.722C103.819 22.358 103.997 21.8423 103.997 21.175V20.538H103.919C103.711 20.85 103.42 21.1013 103.048 21.292C102.684 21.474 102.268 21.565 101.8 21.565C101.236 21.565 100.721 21.422 100.253 21.136C99.7846 20.85 99.4076 20.4513 99.1216 19.94C98.8356 19.42 98.6926 18.8133 98.6926 18.12C98.6926 17.418 98.8356 16.8113 99.1216 16.3C99.4076 15.78 99.7846 15.377 100.253 15.091C100.721 14.805 101.236 14.662 101.8 14.662C102.268 14.662 102.684 14.7573 103.048 14.948C103.42 15.1387 103.711 15.39 103.919 15.702H103.997V14.87H105.336V21.149C105.336 21.8683 105.193 22.4793 104.907 22.982C104.629 23.4847 104.244 23.866 103.75 24.126C103.256 24.386 102.684 24.516 102.034 24.516ZM102.047 20.291C102.393 20.291 102.714 20.2087 103.009 20.044C103.303 19.8707 103.542 19.6237 103.724 19.303C103.906 18.9737 103.997 18.5793 103.997 18.12C103.997 17.6433 103.906 17.2447 103.724 16.924C103.542 16.5947 103.303 16.3477 103.009 16.183C102.714 16.0183 102.393 15.936 102.047 15.936C101.7 15.936 101.375 16.0227 101.072 16.196C100.777 16.3607 100.539 16.6033 100.357 16.924C100.175 17.2447 100.084 17.6433 100.084 18.12C100.084 18.588 100.175 18.9867 100.357 19.316C100.539 19.6367 100.777 19.8793 101.072 20.044C101.375 20.2087 101.7 20.291 102.047 20.291ZM108.995 21.708C108.518 21.708 108.093 21.617 107.721 21.435C107.348 21.2443 107.058 20.98 106.85 20.642C106.642 20.304 106.538 19.9183 106.538 19.485C106.538 19.017 106.659 18.6183 106.902 18.289C107.153 17.951 107.487 17.6953 107.903 17.522C108.319 17.3487 108.778 17.262 109.281 17.262C109.697 17.262 110.061 17.301 110.373 17.379C110.693 17.457 110.936 17.5393 111.101 17.626V17.275C111.101 16.8417 110.945 16.495 110.633 16.235C110.321 15.975 109.918 15.845 109.424 15.845C109.086 15.845 108.765 15.923 108.462 16.079C108.158 16.2263 107.916 16.43 107.734 16.69L106.772 15.949C107.058 15.5503 107.435 15.2383 107.903 15.013C108.379 14.779 108.899 14.662 109.463 14.662C110.425 14.662 111.166 14.9003 111.686 15.377C112.206 15.845 112.466 16.5037 112.466 17.353V21.5H111.101V20.681H111.023C110.849 20.9497 110.589 21.188 110.243 21.396C109.896 21.604 109.48 21.708 108.995 21.708ZM109.242 20.564C109.606 20.564 109.926 20.4773 110.204 20.304C110.481 20.1307 110.698 19.9053 110.854 19.628C111.018 19.342 111.101 19.0343 111.101 18.705C110.901 18.5923 110.667 18.5013 110.399 18.432C110.13 18.354 109.844 18.315 109.541 18.315C108.969 18.315 108.561 18.432 108.319 18.666C108.076 18.8913 107.955 19.1687 107.955 19.498C107.955 19.81 108.072 20.0657 108.306 20.265C108.54 20.4643 108.852 20.564 109.242 20.564ZM114.011 21.5V14.87H115.337V15.845H115.415C115.563 15.507 115.814 15.2297 116.169 15.013C116.533 14.7877 116.923 14.675 117.339 14.675C117.521 14.675 117.673 14.688 117.794 14.714C117.924 14.74 118.041 14.7703 118.145 14.805V16.261C117.981 16.1917 117.812 16.1353 117.638 16.092C117.474 16.0487 117.3 16.027 117.118 16.027C116.789 16.027 116.494 16.118 116.234 16.3C115.983 16.4733 115.784 16.7117 115.636 17.015C115.489 17.3097 115.415 17.6347 115.415 17.99V21.5H114.011ZM124.343 21.708C123.867 21.708 123.442 21.617 123.069 21.435C122.697 21.2443 122.406 20.98 122.198 20.642C121.99 20.304 121.886 19.9183 121.886 19.485C121.886 19.017 122.008 18.6183 122.25 18.289C122.502 17.951 122.835 17.6953 123.251 17.522C123.667 17.3487 124.127 17.262 124.629 17.262C125.045 17.262 125.409 17.301 125.721 17.379C126.042 17.457 126.285 17.5393 126.449 17.626V17.275C126.449 16.8417 126.293 16.495 125.981 16.235C125.669 15.975 125.266 15.845 124.772 15.845C124.434 15.845 124.114 15.923 123.81 16.079C123.507 16.2263 123.264 16.43 123.082 16.69L122.12 15.949C122.406 15.5503 122.783 15.2383 123.251 15.013C123.728 14.779 124.248 14.662 124.811 14.662C125.773 14.662 126.514 14.9003 127.034 15.377C127.554 15.845 127.814 16.5037 127.814 17.353V21.5H126.449V20.681H126.371C126.198 20.9497 125.938 21.188 125.591 21.396C125.245 21.604 124.829 21.708 124.343 21.708ZM124.59 20.564C124.954 20.564 125.275 20.4773 125.552 20.304C125.83 20.1307 126.046 19.9053 126.202 19.628C126.367 19.342 126.449 19.0343 126.449 18.705C126.25 18.5923 126.016 18.5013 125.747 18.432C125.479 18.354 125.193 18.315 124.889 18.315C124.317 18.315 123.91 18.432 123.667 18.666C123.425 18.8913 123.303 19.1687 123.303 19.498C123.303 19.81 123.42 20.0657 123.654 20.265C123.888 20.4643 124.2 20.564 124.59 20.564ZM132.407 21.5V12.192H133.811V21.5H132.407ZM137.483 21.708C137.006 21.708 136.582 21.617 136.209 21.435C135.836 21.2443 135.546 20.98 135.338 20.642C135.13 20.304 135.026 19.9183 135.026 19.485C135.026 19.017 135.147 18.6183 135.39 18.289C135.641 17.951 135.975 17.6953 136.391 17.522C136.807 17.3487 137.266 17.262 137.769 17.262C138.185 17.262 138.549 17.301 138.861 17.379C139.182 17.457 139.424 17.5393 139.589 17.626V17.275C139.589 16.8417 139.433 16.495 139.121 16.235C138.809 15.975 138.406 15.845 137.912 15.845C137.574 15.845 137.253 15.923 136.95 16.079C136.647 16.2263 136.404 16.43 136.222 16.69L135.26 15.949C135.546 15.5503 135.923 15.2383 136.391 15.013C136.868 14.779 137.388 14.662 137.951 14.662C138.913 14.662 139.654 14.9003 140.174 15.377C140.694 15.845 140.954 16.5037 140.954 17.353V21.5H139.589V20.681H139.511C139.338 20.9497 139.078 21.188 138.731 21.396C138.384 21.604 137.968 21.708 137.483 21.708ZM137.73 20.564C138.094 20.564 138.415 20.4773 138.692 20.304C138.969 20.1307 139.186 19.9053 139.342 19.628C139.507 19.342 139.589 19.0343 139.589 18.705C139.39 18.5923 139.156 18.5013 138.887 18.432C138.618 18.354 138.332 18.315 138.029 18.315C137.457 18.315 137.05 18.432 136.807 18.666C136.564 18.8913 136.443 19.1687 136.443 19.498C136.443 19.81 136.56 20.0657 136.794 20.265C137.028 20.4643 137.34 20.564 137.73 20.564Z" fill="white"/>
<path d="M70.377 41.5V29.328H74.933C75.5903 29.328 76.191 29.4697 76.735 29.753C77.2903 30.0363 77.7267 30.4217 78.044 30.909C78.3727 31.3963 78.537 31.946 78.537 32.558C78.537 33.1813 78.3783 33.714 78.061 34.156C77.755 34.598 77.364 34.9323 76.888 35.159V35.244C77.5 35.4593 77.9987 35.8163 78.384 36.315C78.7693 36.8023 78.962 37.3917 78.962 38.083C78.962 38.763 78.7863 39.3637 78.435 39.885C78.095 40.395 77.6303 40.7917 77.041 41.075C76.463 41.3583 75.8283 41.5 75.137 41.5H70.377ZM74.916 31.045H72.247V34.445H74.848C75.4373 34.445 75.8963 34.2693 76.225 33.918C76.5537 33.5553 76.718 33.1587 76.718 32.728C76.718 32.3087 76.5593 31.9233 76.242 31.572C75.9247 31.2207 75.4827 31.045 74.916 31.045ZM72.247 39.766H75.137C75.749 39.766 76.225 39.5847 76.565 39.222C76.9163 38.848 77.092 38.423 77.092 37.947C77.092 37.471 76.9163 37.046 76.565 36.672C76.2137 36.298 75.715 36.111 75.069 36.111H72.247V39.766ZM81.7666 31.555C81.4266 31.555 81.1319 31.436 80.8826 31.198C80.6446 30.9487 80.5256 30.654 80.5256 30.314C80.5256 29.974 80.6446 29.685 80.8826 29.447C81.1319 29.209 81.4266 29.09 81.7666 29.09C82.1066 29.09 82.3956 29.209 82.6336 29.447C82.8829 29.685 83.0076 29.974 83.0076 30.314C83.0076 30.654 82.8829 30.9487 82.6336 31.198C82.3956 31.436 82.1066 31.555 81.7666 31.555ZM80.8486 41.5V32.83H82.6846V41.5H80.8486ZM84.9796 41.5V29.328H86.8156V41.5H84.9796ZM88.9972 41.5V29.328H90.8332V41.5H88.9972ZM96.8758 41.772C96.0258 41.772 95.2664 41.5737 94.5978 41.177C93.9291 40.7803 93.4021 40.2363 93.0168 39.545C92.6428 38.8537 92.4558 38.066 92.4558 37.182C92.4558 36.3547 92.6371 35.5897 92.9998 34.887C93.3624 34.1843 93.8668 33.6233 94.5128 33.204C95.1701 32.7733 95.9238 32.558 96.7738 32.558C97.6691 32.558 98.4284 32.7507 99.0518 33.136C99.6864 33.5213 100.168 34.0483 100.497 34.717C100.825 35.3857 100.99 36.1393 100.99 36.978C100.99 37.1027 100.984 37.216 100.973 37.318C100.973 37.42 100.967 37.4993 100.956 37.556H94.2578C94.3484 38.4173 94.6488 39.0633 95.1588 39.494C95.6801 39.9247 96.2694 40.14 96.9268 40.14C97.5161 40.14 98.0034 40.0097 98.3888 39.749C98.7741 39.477 99.0801 39.1427 99.3068 38.746L100.82 39.477C100.446 40.157 99.9358 40.7123 99.2898 41.143C98.6438 41.5623 97.8391 41.772 96.8758 41.772ZM96.7908 34.122C96.1788 34.122 95.6574 34.309 95.2268 34.683C94.7961 35.057 94.5071 35.5557 94.3598 36.179H99.1708C99.1481 35.8843 99.0518 35.5783 98.8818 35.261C98.7118 34.9437 98.4511 34.6773 98.0998 34.462C97.7598 34.2353 97.3234 34.122 96.7908 34.122ZM103.362 38.984V34.428H101.849V32.83H103.362V30.382H105.198V32.83H107.323V34.428H105.198V38.593C105.198 39.0237 105.283 39.3523 105.453 39.579C105.634 39.8057 105.935 39.919 106.354 39.919C106.569 39.919 106.751 39.8907 106.898 39.834C107.057 39.7773 107.215 39.698 107.374 39.596V41.381C107.181 41.4603 106.977 41.5227 106.762 41.568C106.547 41.6133 106.292 41.636 105.997 41.636C105.192 41.636 104.552 41.4037 104.076 40.939C103.6 40.463 103.362 39.8113 103.362 38.984ZM112.714 41.772C111.864 41.772 111.104 41.5737 110.436 41.177C109.767 40.7803 109.24 40.2363 108.855 39.545C108.481 38.8537 108.294 38.066 108.294 37.182C108.294 36.3547 108.475 35.5897 108.838 34.887C109.2 34.1843 109.705 33.6233 110.351 33.204C111.008 32.7733 111.762 32.558 112.612 32.558C113.507 32.558 114.266 32.7507 114.89 33.136C115.524 33.5213 116.006 34.0483 116.335 34.717C116.663 35.3857 116.828 36.1393 116.828 36.978C116.828 37.1027 116.822 37.216 116.811 37.318C116.811 37.42 116.805 37.4993 116.794 37.556H110.096C110.186 38.4173 110.487 39.0633 110.997 39.494C111.518 39.9247 112.107 40.14 112.765 40.14C113.354 40.14 113.841 40.0097 114.227 39.749C114.612 39.477 114.918 39.1427 115.145 38.746L116.658 39.477C116.284 40.157 115.774 40.7123 115.128 41.143C114.482 41.5623 113.677 41.772 112.714 41.772ZM112.629 34.122C112.017 34.122 111.495 34.309 111.065 34.683C110.634 35.057 110.345 35.5557 110.198 36.179H115.009C114.986 35.8843 114.89 35.5783 114.72 35.261C114.55 34.9437 114.289 34.6773 113.938 34.462C113.598 34.2353 113.161 34.122 112.629 34.122ZM118.531 41.5V32.83H120.265V34.105H120.367C120.56 33.663 120.888 33.3003 121.353 33.017C121.829 32.7223 122.339 32.575 122.883 32.575C123.121 32.575 123.319 32.592 123.478 32.626C123.648 32.66 123.801 32.6997 123.937 32.745V34.649C123.722 34.5583 123.501 34.4847 123.274 34.428C123.059 34.3713 122.832 34.343 122.594 34.343C122.163 34.343 121.778 34.462 121.438 34.7C121.109 34.9267 120.849 35.2383 120.656 35.635C120.463 36.0203 120.367 36.4453 120.367 36.91V41.5H118.531ZM127.775 41.772C127.152 41.772 126.597 41.653 126.109 41.415C125.622 41.1657 125.242 40.82 124.97 40.378C124.698 39.936 124.562 39.4317 124.562 38.865C124.562 38.253 124.721 37.7317 125.038 37.301C125.367 36.859 125.803 36.5247 126.347 36.298C126.891 36.0713 127.492 35.958 128.149 35.958C128.693 35.958 129.169 36.009 129.577 36.111C129.997 36.213 130.314 36.3207 130.529 36.434V35.975C130.529 35.4083 130.325 34.955 129.917 34.615C129.509 34.275 128.982 34.105 128.336 34.105C127.894 34.105 127.475 34.207 127.078 34.411C126.682 34.6037 126.364 34.87 126.126 35.21L124.868 34.241C125.242 33.7197 125.735 33.3117 126.347 33.017C126.971 32.711 127.651 32.558 128.387 32.558C129.645 32.558 130.614 32.8697 131.294 33.493C131.974 34.105 132.314 34.9663 132.314 36.077V41.5H130.529V40.429H130.427C130.201 40.7803 129.861 41.092 129.407 41.364C128.954 41.636 128.41 41.772 127.775 41.772ZM128.098 40.276C128.574 40.276 128.994 40.1627 129.356 39.936C129.719 39.7093 130.002 39.4147 130.206 39.052C130.422 38.678 130.529 38.2757 130.529 37.845C130.269 37.6977 129.963 37.5787 129.611 37.488C129.26 37.386 128.886 37.335 128.489 37.335C127.741 37.335 127.209 37.488 126.891 37.794C126.574 38.0887 126.415 38.4513 126.415 38.882C126.415 39.29 126.568 39.6243 126.874 39.885C127.18 40.1457 127.588 40.276 128.098 40.276ZM142.009 41.772C141.227 41.772 140.519 41.5793 139.884 41.194C139.261 40.7973 138.762 40.2533 138.388 39.562C138.026 38.8593 137.844 38.0603 137.844 37.165C137.844 36.2697 138.026 35.4763 138.388 34.785C138.762 34.0937 139.261 33.5497 139.884 33.153C140.519 32.7563 141.227 32.558 142.009 32.558C142.678 32.558 143.25 32.7053 143.726 33C144.214 33.2947 144.571 33.629 144.797 34.003H144.899L144.797 32.796V29.328H146.616V41.5H144.899V40.344H144.797C144.571 40.718 144.214 41.0523 143.726 41.347C143.25 41.6303 142.678 41.772 142.009 41.772ZM142.281 40.089C142.735 40.089 143.16 39.97 143.556 39.732C143.964 39.494 144.287 39.1597 144.525 38.729C144.775 38.287 144.899 37.7657 144.899 37.165C144.899 36.5643 144.775 36.0487 144.525 35.618C144.287 35.176 143.964 34.836 143.556 34.598C143.16 34.36 142.735 34.241 142.281 34.241C141.828 34.241 141.403 34.36 141.006 34.598C140.61 34.836 140.287 35.176 140.037 35.618C139.788 36.0487 139.663 36.5643 139.663 37.165C139.663 37.7657 139.788 38.287 140.037 38.729C140.287 39.1597 140.61 39.494 141.006 39.732C141.403 39.97 141.828 40.089 142.281 40.089ZM152.657 41.772C151.807 41.772 151.048 41.5737 150.379 41.177C149.71 40.7803 149.183 40.2363 148.798 39.545C148.424 38.8537 148.237 38.066 148.237 37.182C148.237 36.3547 148.418 35.5897 148.781 34.887C149.144 34.1843 149.648 33.6233 150.294 33.204C150.951 32.7733 151.705 32.558 152.555 32.558C153.45 32.558 154.21 32.7507 154.833 33.136C155.468 33.5213 155.949 34.0483 156.278 34.717C156.607 35.3857 156.771 36.1393 156.771 36.978C156.771 37.1027 156.765 37.216 156.754 37.318C156.754 37.42 156.748 37.4993 156.737 37.556H150.039C150.13 38.4173 150.43 39.0633 150.94 39.494C151.461 39.9247 152.051 40.14 152.708 40.14C153.297 40.14 153.785 40.0097 154.17 39.749C154.555 39.477 154.861 39.1427 155.088 38.746L156.601 39.477C156.227 40.157 155.717 40.7123 155.071 41.143C154.425 41.5623 153.62 41.772 152.657 41.772ZM152.572 34.122C151.96 34.122 151.439 34.309 151.008 34.683C150.577 35.057 150.288 35.5557 150.141 36.179H154.952C154.929 35.8843 154.833 35.5783 154.663 35.261C154.493 34.9437 154.232 34.6773 153.881 34.462C153.541 34.2353 153.105 34.122 152.572 34.122ZM168.179 41.772C167.306 41.772 166.485 41.6133 165.714 41.296C164.955 40.9787 164.28 40.5367 163.691 39.97C163.102 39.392 162.637 38.7177 162.297 37.947C161.968 37.165 161.804 36.3207 161.804 35.414C161.804 34.5073 161.968 33.6687 162.297 32.898C162.637 32.116 163.096 31.4417 163.674 30.875C164.263 30.297 164.943 29.8493 165.714 29.532C166.485 29.2147 167.306 29.056 168.179 29.056C169.108 29.056 169.964 29.2203 170.746 29.549C171.539 29.8777 172.202 30.3367 172.735 30.926L171.443 32.201C171.046 31.759 170.57 31.419 170.015 31.181C169.471 30.943 168.859 30.824 168.179 30.824C167.374 30.824 166.632 31.0167 165.952 31.402C165.272 31.776 164.722 32.3087 164.303 33C163.895 33.68 163.691 34.4847 163.691 35.414C163.691 36.3433 163.901 37.1537 164.32 37.845C164.739 38.525 165.289 39.0577 165.969 39.443C166.649 39.817 167.391 40.004 168.196 40.004C168.933 40.004 169.601 39.868 170.202 39.596C170.803 39.3127 171.284 38.916 171.647 38.406C172.021 37.896 172.248 37.284 172.327 36.57H168.162V34.921H174.078C174.146 35.227 174.18 35.55 174.18 35.89V35.907C174.18 37.0857 173.919 38.117 173.398 39.001C172.888 39.8737 172.18 40.5537 171.273 41.041C170.366 41.5283 169.335 41.772 168.179 41.772ZM179.654 41.772C178.759 41.772 177.971 41.568 177.291 41.16C176.611 40.752 176.078 40.2023 175.693 39.511C175.308 38.8197 175.115 38.0377 175.115 37.165C175.115 36.3037 175.308 35.5273 175.693 34.836C176.078 34.1333 176.611 33.578 177.291 33.17C177.971 32.762 178.759 32.558 179.654 32.558C180.538 32.558 181.32 32.762 182 33.17C182.68 33.578 183.213 34.1333 183.598 34.836C183.983 35.5273 184.176 36.3037 184.176 37.165C184.176 38.0377 183.983 38.8197 183.598 39.511C183.213 40.2023 182.68 40.752 182 41.16C181.32 41.568 180.538 41.772 179.654 41.772ZM179.654 40.089C180.13 40.089 180.572 39.9757 180.98 39.749C181.388 39.511 181.717 39.1767 181.966 38.746C182.227 38.304 182.357 37.777 182.357 37.165C182.357 36.553 182.227 36.0317 181.966 35.601C181.717 35.159 181.388 34.8247 180.98 34.598C180.572 34.36 180.13 34.241 179.654 34.241C179.178 34.241 178.73 34.36 178.311 34.598C177.903 34.8247 177.569 35.159 177.308 35.601C177.059 36.0317 176.934 36.553 176.934 37.165C176.934 37.777 177.059 38.304 177.308 38.746C177.569 39.1767 177.903 39.511 178.311 39.749C178.73 39.9757 179.178 40.089 179.654 40.089ZM189.947 41.772C189.052 41.772 188.264 41.568 187.584 41.16C186.904 40.752 186.371 40.2023 185.986 39.511C185.601 38.8197 185.408 38.0377 185.408 37.165C185.408 36.3037 185.601 35.5273 185.986 34.836C186.371 34.1333 186.904 33.578 187.584 33.17C188.264 32.762 189.052 32.558 189.947 32.558C190.831 32.558 191.613 32.762 192.293 33.17C192.973 33.578 193.506 34.1333 193.891 34.836C194.276 35.5273 194.469 36.3037 194.469 37.165C194.469 38.0377 194.276 38.8197 193.891 39.511C193.506 40.2023 192.973 40.752 192.293 41.16C191.613 41.568 190.831 41.772 189.947 41.772ZM189.947 40.089C190.423 40.089 190.865 39.9757 191.273 39.749C191.681 39.511 192.01 39.1767 192.259 38.746C192.52 38.304 192.65 37.777 192.65 37.165C192.65 36.553 192.52 36.0317 192.259 35.601C192.01 35.159 191.681 34.8247 191.273 34.598C190.865 34.36 190.423 34.241 189.947 34.241C189.471 34.241 189.023 34.36 188.604 34.598C188.196 34.8247 187.862 35.159 187.601 35.601C187.352 36.0317 187.227 36.553 187.227 37.165C187.227 37.777 187.352 38.304 187.601 38.746C187.862 39.1767 188.196 39.511 188.604 39.749C189.023 39.9757 189.471 40.089 189.947 40.089ZM200.07 45.444C199.311 45.444 198.653 45.3193 198.098 45.07C197.554 44.832 197.112 44.5203 196.772 44.135C196.432 43.761 196.188 43.3757 196.041 42.979L197.741 42.265C197.922 42.7183 198.211 43.0867 198.608 43.37C199.016 43.6647 199.503 43.812 200.07 43.812C200.863 43.812 201.487 43.574 201.94 43.098C202.405 42.622 202.637 41.9477 202.637 41.075V40.242H202.535C202.263 40.65 201.883 40.9787 201.396 41.228C200.92 41.466 200.376 41.585 199.764 41.585C199.027 41.585 198.353 41.398 197.741 41.024C197.129 40.65 196.636 40.1287 196.262 39.46C195.888 38.78 195.701 37.9867 195.701 37.08C195.701 36.162 195.888 35.3687 196.262 34.7C196.636 34.02 197.129 33.493 197.741 33.119C198.353 32.745 199.027 32.558 199.764 32.558C200.376 32.558 200.92 32.6827 201.396 32.932C201.883 33.1813 202.263 33.51 202.535 33.918H202.637V32.83H204.388V41.041C204.388 41.9817 204.201 42.7807 203.827 43.438C203.464 44.0953 202.96 44.594 202.314 44.934C201.668 45.274 200.92 45.444 200.07 45.444ZM200.087 39.919C200.54 39.919 200.96 39.8113 201.345 39.596C201.73 39.3693 202.042 39.0463 202.28 38.627C202.518 38.1963 202.637 37.6807 202.637 37.08C202.637 36.4567 202.518 35.9353 202.28 35.516C202.042 35.0853 201.73 34.7623 201.345 34.547C200.96 34.3317 200.54 34.224 200.087 34.224C199.634 34.224 199.209 34.3373 198.812 34.564C198.427 34.7793 198.115 35.0967 197.877 35.516C197.639 35.9353 197.52 36.4567 197.52 37.08C197.52 37.692 197.639 38.2133 197.877 38.644C198.115 39.0633 198.427 39.3807 198.812 39.596C199.209 39.8113 199.634 39.919 200.087 39.919ZM206.553 41.5V29.328H208.389V41.5H206.553ZM214.431 41.772C213.581 41.772 212.822 41.5737 212.153 41.177C211.485 40.7803 210.958 40.2363 210.572 39.545C210.198 38.8537 210.011 38.066 210.011 37.182C210.011 36.3547 210.193 35.5897 210.555 34.887C210.918 34.1843 211.422 33.6233 212.068 33.204C212.726 32.7733 213.479 32.558 214.329 32.558C215.225 32.558 215.984 32.7507 216.607 33.136C217.242 33.5213 217.724 34.0483 218.052 34.717C218.381 35.3857 218.545 36.1393 218.545 36.978C218.545 37.1027 218.54 37.216 218.528 37.318C218.528 37.42 218.523 37.4993 218.511 37.556H211.813C211.904 38.4173 212.204 39.0633 212.714 39.494C213.236 39.9247 213.825 40.14 214.482 40.14C215.072 40.14 215.559 40.0097 215.944 39.749C216.33 39.477 216.636 39.1427 216.862 38.746L218.375 39.477C218.001 40.157 217.491 40.7123 216.845 41.143C216.199 41.5623 215.395 41.772 214.431 41.772ZM214.346 34.122C213.734 34.122 213.213 34.309 212.782 34.683C212.352 35.057 212.063 35.5557 211.915 36.179H216.726C216.704 35.8843 216.607 35.5783 216.437 35.261C216.267 34.9437 216.007 34.6773 215.655 34.462C215.315 34.2353 214.879 34.122 214.346 34.122Z" fill="white"/>
<rect x="0.5" y="0.5" width="238" height="54" rx="27" stroke="#747775"/>
<defs>
<linearGradient id="paint0_linear_1819_24719" x1="37.2843" y1="34.0448" x2="18.7823" y2="55.7227" gradientUnits="userSpaceOnUse">
<stop stop-color="#4285F4"/>
<stop offset="1" stop-color="#1B74E8"/>
</linearGradient>
</defs>
</svg>
