<svg width="200" height="55" viewBox="0 0 200 55" fill="none" xmlns="http://www.w3.org/2000/svg">
<rect x="0.5" y="0.5" width="199" height="54" rx="27" fill="#1F1F1F"/>
<path d="M57 23.791H21V18.1456C21 15.0809 23.6422 12.5001 26.7798 12.5001H51.2202C54.3578 12.5001 57 15.0809 57 18.1456V23.791Z" fill="#34A853"/>
<path d="M57 29H21V23C21 19.7429 23.6422 17 26.7798 17H51.2202C54.3578 17 57 19.7429 57 23V29Z" fill="#FBBC04"/>
<path d="M57 34H21V28C21 24.7429 23.6422 22 26.7798 22H51.2202C54.3578 22 57 24.7429 57 28V34Z" fill="#EA4335"/>
<path d="M21 25.2409L43.8493 30.4025C46.4795 31.0477 49.4384 30.4025 51.5753 28.7895L57 24.9183V37.0157C57 40.0804 54.3699 42.4999 51.2466 42.4999H26.7534C23.6301 42.4999 21 40.0804 21 37.0157V25.2409Z" fill="url(#paint0_linear_1819_24244)"/>
<path d="M70.053 21.5V12.192H71.483V20.148H75.487V21.5H70.053ZM77.5186 13.895C77.2586 13.895 77.0332 13.804 76.8426 13.622C76.6606 13.4313 76.5696 13.206 76.5696 12.946C76.5696 12.686 76.6606 12.465 76.8426 12.283C77.0332 12.101 77.2586 12.01 77.5186 12.01C77.7786 12.01 77.9996 12.101 78.1816 12.283C78.3722 12.465 78.4676 12.686 78.4676 12.946C78.4676 13.206 78.3722 13.4313 78.1816 13.622C77.9996 13.804 77.7786 13.895 77.5186 13.895ZM76.8166 21.5V14.87H78.2206V21.5H76.8166ZM82.3806 21.708C81.5832 21.708 80.9462 21.5347 80.4696 21.188C79.9929 20.8327 79.6636 20.4123 79.4816 19.927L80.7426 19.381C80.8986 19.7363 81.1239 20.0093 81.4186 20.2C81.7132 20.382 82.0469 20.473 82.4196 20.473C82.7662 20.473 83.0652 20.4123 83.3166 20.291C83.5679 20.161 83.6936 19.953 83.6936 19.667C83.6936 19.3897 83.5679 19.186 83.3166 19.056C83.0652 18.926 82.7532 18.8133 82.3806 18.718L81.5876 18.536C81.2669 18.458 80.9679 18.3367 80.6906 18.172C80.4132 18.0073 80.1879 17.795 80.0146 17.535C79.8412 17.2663 79.7546 16.9543 79.7546 16.599C79.7546 16.209 79.8716 15.871 80.1056 15.585C80.3396 15.2903 80.6472 15.065 81.0286 14.909C81.4186 14.7443 81.8389 14.662 82.2896 14.662C82.9049 14.662 83.4422 14.7833 83.9016 15.026C84.3696 15.26 84.7119 15.6153 84.9286 16.092L83.7196 16.638C83.5636 16.3433 83.3599 16.1397 83.1086 16.027C82.8659 15.9057 82.5972 15.845 82.3026 15.845C81.9732 15.845 81.6959 15.9143 81.4706 16.053C81.2539 16.1917 81.1456 16.365 81.1456 16.573C81.1456 16.7983 81.2409 16.976 81.4316 17.106C81.6309 17.236 81.8736 17.34 82.1596 17.418L83.1216 17.652C83.7802 17.8167 84.2742 18.068 84.6036 18.406C84.9329 18.7353 85.0976 19.1383 85.0976 19.615C85.0976 20.0397 84.9762 20.4123 84.7336 20.733C84.4909 21.045 84.1616 21.2877 83.7456 21.461C83.3382 21.6257 82.8832 21.708 82.3806 21.708ZM88.4664 21.708C87.9897 21.708 87.565 21.617 87.1924 21.435C86.8197 21.2443 86.5294 20.98 86.3214 20.642C86.1134 20.304 86.0094 19.9183 86.0094 19.485C86.0094 19.017 86.1307 18.6183 86.3734 18.289C86.6247 17.951 86.9584 17.6953 87.3744 17.522C87.7904 17.3487 88.2497 17.262 88.7524 17.262C89.1684 17.262 89.5324 17.301 89.8444 17.379C90.165 17.457 90.4077 17.5393 90.5724 17.626V17.275C90.5724 16.8417 90.4164 16.495 90.1044 16.235C89.7924 15.975 89.3894 15.845 88.8954 15.845C88.5574 15.845 88.2367 15.923 87.9334 16.079C87.63 16.2263 87.3874 16.43 87.2054 16.69L86.2434 15.949C86.5294 15.5503 86.9064 15.2383 87.3744 15.013C87.851 14.779 88.371 14.662 88.9344 14.662C89.8964 14.662 90.6374 14.9003 91.1574 15.377C91.6774 15.845 91.9374 16.5037 91.9374 17.353V21.5H90.5724V20.681H90.4944C90.321 20.9497 90.061 21.188 89.7144 21.396C89.3677 21.604 88.9517 21.708 88.4664 21.708ZM88.7134 20.564C89.0774 20.564 89.398 20.4773 89.6754 20.304C89.9527 20.1307 90.1694 19.9053 90.3254 19.628C90.49 19.342 90.5724 19.0343 90.5724 18.705C90.373 18.5923 90.139 18.5013 89.8704 18.432C89.6017 18.354 89.3157 18.315 89.0124 18.315C88.4404 18.315 88.033 18.432 87.7904 18.666C87.5477 18.8913 87.4264 19.1687 87.4264 19.498C87.4264 19.81 87.5434 20.0657 87.7774 20.265C88.0114 20.4643 88.3234 20.564 88.7134 20.564ZM93.4831 21.5V14.87H94.8091V15.78H94.8871C95.0777 15.4593 95.3551 15.195 95.7191 14.987C96.0831 14.7703 96.4861 14.662 96.9281 14.662C97.4221 14.662 97.8424 14.779 98.1891 15.013C98.5357 15.247 98.7827 15.5417 98.9301 15.897C99.1467 15.5503 99.4414 15.26 99.8141 15.026C100.187 14.7833 100.642 14.662 101.179 14.662C101.959 14.662 102.54 14.9003 102.921 15.377C103.302 15.845 103.493 16.469 103.493 17.249V21.5H102.102V17.483C102.102 16.9543 101.985 16.5687 101.751 16.326C101.526 16.0747 101.209 15.949 100.802 15.949C100.481 15.949 100.2 16.04 99.9571 16.222C99.7144 16.3953 99.5237 16.6337 99.3851 16.937C99.2551 17.2403 99.1901 17.5783 99.1901 17.951V21.5H97.7991V17.483C97.7991 16.9543 97.6821 16.5687 97.4481 16.326C97.2141 16.0747 96.8847 15.949 96.4601 15.949C96.1481 15.949 95.8751 16.04 95.6411 16.222C95.4071 16.404 95.2207 16.6467 95.0821 16.95C94.9521 17.2533 94.8871 17.5913 94.8871 17.964V21.5H93.4831ZM105.88 13.895C105.62 13.895 105.395 13.804 105.204 13.622C105.022 13.4313 104.931 13.206 104.931 12.946C104.931 12.686 105.022 12.465 105.204 12.283C105.395 12.101 105.62 12.01 105.88 12.01C106.14 12.01 106.361 12.101 106.543 12.283C106.734 12.465 106.829 12.686 106.829 12.946C106.829 13.206 106.734 13.4313 106.543 13.622C106.361 13.804 106.14 13.895 105.88 13.895ZM105.178 21.5V14.87H106.582V21.5H105.178ZM108.324 21.5V14.87H109.65V15.78H109.728C109.919 15.4593 110.2 15.195 110.573 14.987C110.954 14.7703 111.37 14.662 111.821 14.662C112.636 14.662 113.247 14.9047 113.654 15.39C114.061 15.8753 114.265 16.5167 114.265 17.314V21.5H112.874V17.496C112.874 16.9587 112.74 16.5687 112.471 16.326C112.202 16.0747 111.851 15.949 111.418 15.949C111.08 15.949 110.785 16.0443 110.534 16.235C110.283 16.417 110.083 16.6597 109.936 16.963C109.797 17.2663 109.728 17.5913 109.728 17.938V21.5H108.324ZM118.894 21.708C118.244 21.708 117.663 21.5563 117.152 21.253C116.641 20.9497 116.238 20.5337 115.943 20.005C115.657 19.4763 115.514 18.874 115.514 18.198C115.514 17.5653 115.653 16.9803 115.93 16.443C116.207 15.9057 116.593 15.4767 117.087 15.156C117.59 14.8267 118.166 14.662 118.816 14.662C119.501 14.662 120.081 14.8093 120.558 15.104C121.043 15.3987 121.412 15.8017 121.663 16.313C121.914 16.8243 122.04 17.4007 122.04 18.042C122.04 18.1373 122.036 18.224 122.027 18.302C122.027 18.38 122.023 18.4407 122.014 18.484H116.892C116.961 19.1427 117.191 19.6367 117.581 19.966C117.98 20.2953 118.43 20.46 118.933 20.46C119.384 20.46 119.756 20.3603 120.051 20.161C120.346 19.953 120.58 19.6973 120.753 19.394L121.91 19.953C121.624 20.473 121.234 20.8977 120.74 21.227C120.246 21.5477 119.631 21.708 118.894 21.708ZM118.829 15.858C118.361 15.858 117.962 16.001 117.633 16.287C117.304 16.573 117.083 16.9543 116.97 17.431H120.649C120.632 17.2057 120.558 16.9717 120.428 16.729C120.298 16.4863 120.099 16.2827 119.83 16.118C119.57 15.9447 119.236 15.858 118.829 15.858ZM128.457 21.708C127.98 21.708 127.555 21.617 127.183 21.435C126.81 21.2443 126.52 20.98 126.312 20.642C126.104 20.304 126 19.9183 126 19.485C126 19.017 126.121 18.6183 126.364 18.289C126.615 17.951 126.949 17.6953 127.365 17.522C127.781 17.3487 128.24 17.262 128.743 17.262C129.159 17.262 129.523 17.301 129.835 17.379C130.155 17.457 130.398 17.5393 130.563 17.626V17.275C130.563 16.8417 130.407 16.495 130.095 16.235C129.783 15.975 129.38 15.845 128.886 15.845C128.548 15.845 128.227 15.923 127.924 16.079C127.62 16.2263 127.378 16.43 127.196 16.69L126.234 15.949C126.52 15.5503 126.897 15.2383 127.365 15.013C127.841 14.779 128.361 14.662 128.925 14.662C129.887 14.662 130.628 14.9003 131.148 15.377C131.668 15.845 131.928 16.5037 131.928 17.353V21.5H130.563V20.681H130.485C130.311 20.9497 130.051 21.188 129.705 21.396C129.358 21.604 128.942 21.708 128.457 21.708ZM128.704 20.564C129.068 20.564 129.388 20.4773 129.666 20.304C129.943 20.1307 130.16 19.9053 130.316 19.628C130.48 19.342 130.563 19.0343 130.563 18.705C130.363 18.5923 130.129 18.5013 129.861 18.432C129.592 18.354 129.306 18.315 129.003 18.315C128.431 18.315 128.023 18.432 127.781 18.666C127.538 18.8913 127.417 19.1687 127.417 19.498C127.417 19.81 127.534 20.0657 127.768 20.265C128.002 20.4643 128.314 20.564 128.704 20.564ZM135.828 21.708C135.03 21.708 134.393 21.5347 133.917 21.188C133.44 20.8327 133.111 20.4123 132.929 19.927L134.19 19.381C134.346 19.7363 134.571 20.0093 134.866 20.2C135.16 20.382 135.494 20.473 135.867 20.473C136.213 20.473 136.512 20.4123 136.764 20.291C137.015 20.161 137.141 19.953 137.141 19.667C137.141 19.3897 137.015 19.186 136.764 19.056C136.512 18.926 136.2 18.8133 135.828 18.718L135.035 18.536C134.714 18.458 134.415 18.3367 134.138 18.172C133.86 18.0073 133.635 17.795 133.462 17.535C133.288 17.2663 133.202 16.9543 133.202 16.599C133.202 16.209 133.319 15.871 133.553 15.585C133.787 15.2903 134.094 15.065 134.476 14.909C134.866 14.7443 135.286 14.662 135.737 14.662C136.352 14.662 136.889 14.7833 137.349 15.026C137.817 15.26 138.159 15.6153 138.376 16.092L137.167 16.638C137.011 16.3433 136.807 16.1397 136.556 16.027C136.313 15.9057 136.044 15.845 135.75 15.845C135.42 15.845 135.143 15.9143 134.918 16.053C134.701 16.1917 134.593 16.365 134.593 16.573C134.593 16.7983 134.688 16.976 134.879 17.106C135.078 17.236 135.321 17.34 135.607 17.418L136.569 17.652C137.227 17.8167 137.721 18.068 138.051 18.406C138.38 18.7353 138.545 19.1383 138.545 19.615C138.545 20.0397 138.423 20.4123 138.181 20.733C137.938 21.045 137.609 21.2877 137.193 21.461C136.785 21.6257 136.33 21.708 135.828 21.708ZM142.175 21.708C141.361 21.708 140.745 21.4653 140.329 20.98C139.922 20.486 139.718 19.8187 139.718 18.978V14.87H141.122V18.783C141.122 19.3463 141.252 19.7623 141.512 20.031C141.781 20.291 142.115 20.421 142.513 20.421C142.869 20.421 143.176 20.33 143.436 20.148C143.705 19.9573 143.909 19.7147 144.047 19.42C144.195 19.1167 144.268 18.7873 144.268 18.432V14.87H145.659V21.5H144.346V20.603H144.268C144.078 20.915 143.792 21.1793 143.41 21.396C143.038 21.604 142.626 21.708 142.175 21.708ZM147.311 21.5V12.192H148.715V17.678L151.523 14.87H153.265V14.948L150.704 17.483L153.356 21.422V21.5H151.692L149.716 18.458L148.715 19.446V21.5H147.311ZM157.16 21.708C156.475 21.708 155.873 21.552 155.353 21.24C154.833 20.928 154.425 20.5077 154.131 19.979C153.836 19.4503 153.689 18.8523 153.689 18.185C153.689 17.5263 153.836 16.9327 154.131 16.404C154.425 15.8667 154.833 15.442 155.353 15.13C155.873 14.818 156.475 14.662 157.16 14.662C157.836 14.662 158.434 14.818 158.954 15.13C159.474 15.442 159.881 15.8667 160.176 16.404C160.47 16.9327 160.618 17.5263 160.618 18.185C160.618 18.8523 160.47 19.4503 160.176 19.979C159.881 20.5077 159.474 20.928 158.954 21.24C158.434 21.552 157.836 21.708 157.16 21.708ZM157.16 20.421C157.524 20.421 157.862 20.3343 158.174 20.161C158.486 19.979 158.737 19.7233 158.928 19.394C159.127 19.056 159.227 18.653 159.227 18.185C159.227 17.717 159.127 17.3183 158.928 16.989C158.737 16.651 158.486 16.3953 158.174 16.222C157.862 16.04 157.524 15.949 157.16 15.949C156.796 15.949 156.453 16.04 156.133 16.222C155.821 16.3953 155.565 16.651 155.366 16.989C155.175 17.3183 155.08 17.717 155.08 18.185C155.08 18.653 155.175 19.056 155.366 19.394C155.565 19.7233 155.821 19.979 156.133 20.161C156.453 20.3343 156.796 20.421 157.16 20.421ZM161.847 21.5V12.192H163.251V14.74L163.173 15.78H163.251C163.433 15.4593 163.711 15.195 164.083 14.987C164.465 14.7703 164.885 14.662 165.344 14.662C166.168 14.662 166.787 14.909 167.203 15.403C167.619 15.8883 167.827 16.5253 167.827 17.314V21.5H166.436V17.496C166.436 16.9587 166.293 16.5687 166.007 16.326C165.73 16.0747 165.388 15.949 164.98 15.949C164.642 15.949 164.343 16.0443 164.083 16.235C163.823 16.4257 163.62 16.677 163.472 16.989C163.325 17.2923 163.251 17.6173 163.251 17.964V21.5H161.847ZM169.798 19.576V16.092H168.641V14.87H169.798V12.998H171.202V14.87H172.827V16.092H171.202V19.277C171.202 19.6063 171.267 19.8577 171.397 20.031C171.536 20.2043 171.766 20.291 172.086 20.291C172.251 20.291 172.39 20.2693 172.502 20.226C172.624 20.1827 172.745 20.122 172.866 20.044V21.409C172.719 21.4697 172.563 21.5173 172.398 21.552C172.234 21.5867 172.039 21.604 171.813 21.604C171.198 21.604 170.708 21.4263 170.344 21.071C169.98 20.707 169.798 20.2087 169.798 19.576ZM176.128 21.708C175.651 21.708 175.226 21.617 174.854 21.435C174.481 21.2443 174.191 20.98 173.983 20.642C173.775 20.304 173.671 19.9183 173.671 19.485C173.671 19.017 173.792 18.6183 174.035 18.289C174.286 17.951 174.62 17.6953 175.036 17.522C175.452 17.3487 175.911 17.262 176.414 17.262C176.83 17.262 177.194 17.301 177.506 17.379C177.826 17.457 178.069 17.5393 178.234 17.626V17.275C178.234 16.8417 178.078 16.495 177.766 16.235C177.454 15.975 177.051 15.845 176.557 15.845C176.219 15.845 175.898 15.923 175.595 16.079C175.291 16.2263 175.049 16.43 174.867 16.69L173.905 15.949C174.191 15.5503 174.568 15.2383 175.036 15.013C175.512 14.779 176.032 14.662 176.596 14.662C177.558 14.662 178.299 14.9003 178.819 15.377C179.339 15.845 179.599 16.5037 179.599 17.353V21.5H178.234V20.681H178.156C177.982 20.9497 177.722 21.188 177.376 21.396C177.029 21.604 176.613 21.708 176.128 21.708ZM176.375 20.564C176.739 20.564 177.059 20.4773 177.337 20.304C177.614 20.1307 177.831 19.9053 177.987 19.628C178.151 19.342 178.234 19.0343 178.234 18.705C178.034 18.5923 177.8 18.5013 177.532 18.432C177.263 18.354 176.977 18.315 176.674 18.315C176.102 18.315 175.694 18.432 175.452 18.666C175.209 18.8913 175.088 19.1687 175.088 19.498C175.088 19.81 175.205 20.0657 175.439 20.265C175.673 20.4643 175.985 20.564 176.375 20.564Z" fill="white"/>
<path d="M76.14 41.772C75.2673 41.772 74.4457 41.6133 73.675 41.296C72.9157 40.9787 72.2413 40.5367 71.652 39.97C71.0627 39.392 70.598 38.7177 70.258 37.947C69.9293 37.165 69.765 36.3207 69.765 35.414C69.765 34.5073 69.9293 33.6687 70.258 32.898C70.598 32.116 71.057 31.4417 71.635 30.875C72.2243 30.297 72.9043 29.8493 73.675 29.532C74.4457 29.2147 75.2673 29.056 76.14 29.056C77.0693 29.056 77.925 29.2203 78.707 29.549C79.5003 29.8777 80.1633 30.3367 80.696 30.926L79.404 32.201C79.0073 31.759 78.5313 31.419 77.976 31.181C77.432 30.943 76.82 30.824 76.14 30.824C75.3353 30.824 74.593 31.0167 73.913 31.402C73.233 31.776 72.6833 32.3087 72.264 33C71.856 33.68 71.652 34.4847 71.652 35.414C71.652 36.3433 71.8617 37.1537 72.281 37.845C72.7003 38.525 73.25 39.0577 73.93 39.443C74.61 39.817 75.3523 40.004 76.157 40.004C76.8937 40.004 77.5623 39.868 78.163 39.596C78.7637 39.3127 79.2453 38.916 79.608 38.406C79.982 37.896 80.2087 37.284 80.288 36.57H76.123V34.921H82.039C82.107 35.227 82.141 35.55 82.141 35.89V35.907C82.141 37.0857 81.8803 38.117 81.359 39.001C80.849 39.8737 80.1407 40.5537 79.234 41.041C78.3273 41.5283 77.296 41.772 76.14 41.772ZM87.6149 41.772C86.7195 41.772 85.9319 41.568 85.2519 41.16C84.5719 40.752 84.0392 40.2023 83.6539 39.511C83.2685 38.8197 83.0759 38.0377 83.0759 37.165C83.0759 36.3037 83.2685 35.5273 83.6539 34.836C84.0392 34.1333 84.5719 33.578 85.2519 33.17C85.9319 32.762 86.7195 32.558 87.6149 32.558C88.4989 32.558 89.2809 32.762 89.9609 33.17C90.6409 33.578 91.1735 34.1333 91.5589 34.836C91.9442 35.5273 92.1369 36.3037 92.1369 37.165C92.1369 38.0377 91.9442 38.8197 91.5589 39.511C91.1735 40.2023 90.6409 40.752 89.9609 41.16C89.2809 41.568 88.4989 41.772 87.6149 41.772ZM87.6149 40.089C88.0909 40.089 88.5329 39.9757 88.9409 39.749C89.3489 39.511 89.6775 39.1767 89.9269 38.746C90.1875 38.304 90.3179 37.777 90.3179 37.165C90.3179 36.553 90.1875 36.0317 89.9269 35.601C89.6775 35.159 89.3489 34.8247 88.9409 34.598C88.5329 34.36 88.0909 34.241 87.6149 34.241C87.1389 34.241 86.6912 34.36 86.2719 34.598C85.8639 34.8247 85.5295 35.159 85.2689 35.601C85.0195 36.0317 84.8949 36.553 84.8949 37.165C84.8949 37.777 85.0195 38.304 85.2689 38.746C85.5295 39.1767 85.8639 39.511 86.2719 39.749C86.6912 39.9757 87.1389 40.089 87.6149 40.089ZM97.9078 41.772C97.0125 41.772 96.2248 41.568 95.5448 41.16C94.8648 40.752 94.3322 40.2023 93.9468 39.511C93.5615 38.8197 93.3688 38.0377 93.3688 37.165C93.3688 36.3037 93.5615 35.5273 93.9468 34.836C94.3322 34.1333 94.8648 33.578 95.5448 33.17C96.2248 32.762 97.0125 32.558 97.9078 32.558C98.7918 32.558 99.5738 32.762 100.254 33.17C100.934 33.578 101.467 34.1333 101.852 34.836C102.237 35.5273 102.43 36.3037 102.43 37.165C102.43 38.0377 102.237 38.8197 101.852 39.511C101.467 40.2023 100.934 40.752 100.254 41.16C99.5738 41.568 98.7918 41.772 97.9078 41.772ZM97.9078 40.089C98.3838 40.089 98.8258 39.9757 99.2338 39.749C99.6418 39.511 99.9705 39.1767 100.22 38.746C100.481 38.304 100.611 37.777 100.611 37.165C100.611 36.553 100.481 36.0317 100.22 35.601C99.9705 35.159 99.6418 34.8247 99.2338 34.598C98.8258 34.36 98.3838 34.241 97.9078 34.241C97.4318 34.241 96.9842 34.36 96.5648 34.598C96.1568 34.8247 95.8225 35.159 95.5618 35.601C95.3125 36.0317 95.1878 36.553 95.1878 37.165C95.1878 37.777 95.3125 38.304 95.5618 38.746C95.8225 39.1767 96.1568 39.511 96.5648 39.749C96.9842 39.9757 97.4318 40.089 97.9078 40.089ZM108.031 45.444C107.271 45.444 106.614 45.3193 106.059 45.07C105.515 44.832 105.073 44.5203 104.733 44.135C104.393 43.761 104.149 43.3757 104.002 42.979L105.702 42.265C105.883 42.7183 106.172 43.0867 106.569 43.37C106.977 43.6647 107.464 43.812 108.031 43.812C108.824 43.812 109.447 43.574 109.901 43.098C110.365 42.622 110.598 41.9477 110.598 41.075V40.242H110.496C110.224 40.65 109.844 40.9787 109.357 41.228C108.881 41.466 108.337 41.585 107.725 41.585C106.988 41.585 106.314 41.398 105.702 41.024C105.09 40.65 104.597 40.1287 104.223 39.46C103.849 38.78 103.662 37.9867 103.662 37.08C103.662 36.162 103.849 35.3687 104.223 34.7C104.597 34.02 105.09 33.493 105.702 33.119C106.314 32.745 106.988 32.558 107.725 32.558C108.337 32.558 108.881 32.6827 109.357 32.932C109.844 33.1813 110.224 33.51 110.496 33.918H110.598V32.83H112.349V41.041C112.349 41.9817 112.162 42.7807 111.788 43.438C111.425 44.0953 110.921 44.594 110.275 44.934C109.629 45.274 108.881 45.444 108.031 45.444ZM108.048 39.919C108.501 39.919 108.92 39.8113 109.306 39.596C109.691 39.3693 110.003 39.0463 110.241 38.627C110.479 38.1963 110.598 37.6807 110.598 37.08C110.598 36.4567 110.479 35.9353 110.241 35.516C110.003 35.0853 109.691 34.7623 109.306 34.547C108.92 34.3317 108.501 34.224 108.048 34.224C107.594 34.224 107.169 34.3373 106.773 34.564C106.387 34.7793 106.076 35.0967 105.838 35.516C105.6 35.9353 105.481 36.4567 105.481 37.08C105.481 37.692 105.6 38.2133 105.838 38.644C106.076 39.0633 106.387 39.3807 106.773 39.596C107.169 39.8113 107.594 39.919 108.048 39.919ZM114.514 41.5V29.328H116.35V41.5H114.514ZM122.392 41.772C121.542 41.772 120.783 41.5737 120.114 41.177C119.446 40.7803 118.919 40.2363 118.533 39.545C118.159 38.8537 117.972 38.066 117.972 37.182C117.972 36.3547 118.154 35.5897 118.516 34.887C118.879 34.1843 119.383 33.6233 120.029 33.204C120.687 32.7733 121.44 32.558 122.29 32.558C123.186 32.558 123.945 32.7507 124.568 33.136C125.203 33.5213 125.685 34.0483 126.013 34.717C126.342 35.3857 126.506 36.1393 126.506 36.978C126.506 37.1027 126.501 37.216 126.489 37.318C126.489 37.42 126.484 37.4993 126.472 37.556H119.774C119.865 38.4173 120.165 39.0633 120.675 39.494C121.197 39.9247 121.786 40.14 122.443 40.14C123.033 40.14 123.52 40.0097 123.905 39.749C124.291 39.477 124.597 39.1427 124.823 38.746L126.336 39.477C125.962 40.157 125.452 40.7123 124.806 41.143C124.16 41.5623 123.356 41.772 122.392 41.772ZM122.307 34.122C121.695 34.122 121.174 34.309 120.743 34.683C120.313 35.057 120.024 35.5557 119.876 36.179H124.687C124.665 35.8843 124.568 35.5783 124.398 35.261C124.228 34.9437 123.968 34.6773 123.616 34.462C123.276 34.2353 122.84 34.122 122.307 34.122ZM133.979 41.5L130.715 29.328H132.789L134.727 37.233L134.931 38.287H135.033L135.288 37.233L137.736 29.328H139.606L141.952 37.233L142.207 38.27H142.309L142.513 37.233L144.451 29.328H146.508L143.295 41.5H141.323L138.994 33.425L138.722 32.286H138.62L138.331 33.425L135.9 41.5H133.979ZM149.922 41.772C149.299 41.772 148.743 41.653 148.256 41.415C147.769 41.1657 147.389 40.82 147.117 40.378C146.845 39.936 146.709 39.4317 146.709 38.865C146.709 38.253 146.868 37.7317 147.185 37.301C147.514 36.859 147.95 36.5247 148.494 36.298C149.038 36.0713 149.639 35.958 150.296 35.958C150.84 35.958 151.316 36.009 151.724 36.111C152.143 36.213 152.461 36.3207 152.676 36.434V35.975C152.676 35.4083 152.472 34.955 152.064 34.615C151.656 34.275 151.129 34.105 150.483 34.105C150.041 34.105 149.622 34.207 149.225 34.411C148.828 34.6037 148.511 34.87 148.273 35.21L147.015 34.241C147.389 33.7197 147.882 33.3117 148.494 33.017C149.117 32.711 149.797 32.558 150.534 32.558C151.792 32.558 152.761 32.8697 153.441 33.493C154.121 34.105 154.461 34.9663 154.461 36.077V41.5H152.676V40.429H152.574C152.347 40.7803 152.007 41.092 151.554 41.364C151.101 41.636 150.557 41.772 149.922 41.772ZM150.245 40.276C150.721 40.276 151.14 40.1627 151.503 39.936C151.866 39.7093 152.149 39.4147 152.353 39.052C152.568 38.678 152.676 38.2757 152.676 37.845C152.415 37.6977 152.109 37.5787 151.758 37.488C151.407 37.386 151.033 37.335 150.636 37.335C149.888 37.335 149.355 37.488 149.038 37.794C148.721 38.0887 148.562 38.4513 148.562 38.882C148.562 39.29 148.715 39.6243 149.021 39.885C149.327 40.1457 149.735 40.276 150.245 40.276ZM156.499 41.5V29.328H158.335V41.5H156.499ZM160.517 41.5V29.328H162.353V41.5H160.517ZM168.395 41.772C167.545 41.772 166.786 41.5737 166.117 41.177C165.449 40.7803 164.922 40.2363 164.536 39.545C164.162 38.8537 163.975 38.066 163.975 37.182C163.975 36.3547 164.157 35.5897 164.519 34.887C164.882 34.1843 165.386 33.6233 166.032 33.204C166.69 32.7733 167.443 32.558 168.293 32.558C169.189 32.558 169.948 32.7507 170.571 33.136C171.206 33.5213 171.688 34.0483 172.016 34.717C172.345 35.3857 172.509 36.1393 172.509 36.978C172.509 37.1027 172.504 37.216 172.492 37.318C172.492 37.42 172.487 37.4993 172.475 37.556H165.777C165.868 38.4173 166.168 39.0633 166.678 39.494C167.2 39.9247 167.789 40.14 168.446 40.14C169.036 40.14 169.523 40.0097 169.908 39.749C170.294 39.477 170.6 39.1427 170.826 38.746L172.339 39.477C171.965 40.157 171.455 40.7123 170.809 41.143C170.163 41.5623 169.359 41.772 168.395 41.772ZM168.31 34.122C167.698 34.122 167.177 34.309 166.746 34.683C166.316 35.057 166.027 35.5557 165.879 36.179H170.69C170.668 35.8843 170.571 35.5783 170.401 35.261C170.231 34.9437 169.971 34.6773 169.619 34.462C169.279 34.2353 168.843 34.122 168.31 34.122ZM174.882 38.984V34.428H173.369V32.83H174.882V30.382H176.718V32.83H178.843V34.428H176.718V38.593C176.718 39.0237 176.803 39.3523 176.973 39.579C177.154 39.8057 177.454 39.919 177.874 39.919C178.089 39.919 178.27 39.8907 178.418 39.834C178.576 39.7773 178.735 39.698 178.894 39.596V41.381C178.701 41.4603 178.497 41.5227 178.282 41.568C178.066 41.6133 177.811 41.636 177.517 41.636C176.712 41.636 176.072 41.4037 175.596 40.939C175.12 40.463 174.882 39.8113 174.882 38.984Z" fill="white"/>
<rect x="0.5" y="0.5" width="199" height="54" rx="27" stroke="#747775"/>
<defs>
<linearGradient id="paint0_linear_1819_24244" x1="37.2843" y1="34.0448" x2="18.7823" y2="55.7227" gradientUnits="userSpaceOnUse">
<stop stop-color="#4285F4"/>
<stop offset="1" stop-color="#1B74E8"/>
</linearGradient>
</defs>
</svg>
