<svg width="199" height="55" viewBox="0 0 199 55" fill="none" xmlns="http://www.w3.org/2000/svg">
<rect x="0.5" y="0.5" width="198" height="54" rx="27" fill="#1F1F1F"/>
<path d="M57 23.791H21V18.1456C21 15.0809 23.6422 12.5001 26.7798 12.5001H51.2202C54.3578 12.5001 57 15.0809 57 18.1456V23.791Z" fill="#34A853"/>
<path d="M57 29H21V23C21 19.7429 23.6422 17 26.7798 17H51.2202C54.3578 17 57 19.7429 57 23V29Z" fill="#FBBC04"/>
<path d="M57 34H21V28C21 24.7429 23.6422 22 26.7798 22H51.2202C54.3578 22 57 24.7429 57 28V34Z" fill="#EA4335"/>
<path d="M21 25.2409L43.8493 30.4025C46.4795 31.0477 49.4384 30.4025 51.5753 28.7895L57 24.9183V37.0157C57 40.0804 54.3699 42.4999 51.2466 42.4999H26.7534C23.6301 42.4999 21 40.0804 21 37.0157V25.2409Z" fill="url(#paint0_linear_1819_24263)"/>
<path d="M70.053 21.5V12.192H71.483V20.148H75.487V21.5H70.053ZM77.5186 13.895C77.2586 13.895 77.0332 13.804 76.8426 13.622C76.6606 13.4313 76.5696 13.206 76.5696 12.946C76.5696 12.686 76.6606 12.465 76.8426 12.283C77.0332 12.101 77.2586 12.01 77.5186 12.01C77.7786 12.01 77.9996 12.101 78.1816 12.283C78.3722 12.465 78.4676 12.686 78.4676 12.946C78.4676 13.206 78.3722 13.4313 78.1816 13.622C77.9996 13.804 77.7786 13.895 77.5186 13.895ZM76.8166 21.5V14.87H78.2206V21.5H76.8166ZM82.3806 21.708C81.5832 21.708 80.9462 21.5347 80.4696 21.188C79.9929 20.8327 79.6636 20.4123 79.4816 19.927L80.7426 19.381C80.8986 19.7363 81.1239 20.0093 81.4186 20.2C81.7132 20.382 82.0469 20.473 82.4196 20.473C82.7662 20.473 83.0652 20.4123 83.3166 20.291C83.5679 20.161 83.6936 19.953 83.6936 19.667C83.6936 19.3897 83.5679 19.186 83.3166 19.056C83.0652 18.926 82.7532 18.8133 82.3806 18.718L81.5876 18.536C81.2669 18.458 80.9679 18.3367 80.6906 18.172C80.4132 18.0073 80.1879 17.795 80.0146 17.535C79.8412 17.2663 79.7546 16.9543 79.7546 16.599C79.7546 16.209 79.8716 15.871 80.1056 15.585C80.3396 15.2903 80.6472 15.065 81.0286 14.909C81.4186 14.7443 81.8389 14.662 82.2896 14.662C82.9049 14.662 83.4422 14.7833 83.9016 15.026C84.3696 15.26 84.7119 15.6153 84.9286 16.092L83.7196 16.638C83.5636 16.3433 83.3599 16.1397 83.1086 16.027C82.8659 15.9057 82.5972 15.845 82.3026 15.845C81.9732 15.845 81.6959 15.9143 81.4706 16.053C81.2539 16.1917 81.1456 16.365 81.1456 16.573C81.1456 16.7983 81.2409 16.976 81.4316 17.106C81.6309 17.236 81.8736 17.34 82.1596 17.418L83.1216 17.652C83.7802 17.8167 84.2742 18.068 84.6036 18.406C84.9329 18.7353 85.0976 19.1383 85.0976 19.615C85.0976 20.0397 84.9762 20.4123 84.7336 20.733C84.4909 21.045 84.1616 21.2877 83.7456 21.461C83.3382 21.6257 82.8832 21.708 82.3806 21.708ZM88.4664 21.708C87.9897 21.708 87.565 21.617 87.1924 21.435C86.8197 21.2443 86.5294 20.98 86.3214 20.642C86.1134 20.304 86.0094 19.9183 86.0094 19.485C86.0094 19.017 86.1307 18.6183 86.3734 18.289C86.6247 17.951 86.9584 17.6953 87.3744 17.522C87.7904 17.3487 88.2497 17.262 88.7524 17.262C89.1684 17.262 89.5324 17.301 89.8444 17.379C90.165 17.457 90.4077 17.5393 90.5724 17.626V17.275C90.5724 16.8417 90.4164 16.495 90.1044 16.235C89.7924 15.975 89.3894 15.845 88.8954 15.845C88.5574 15.845 88.2367 15.923 87.9334 16.079C87.63 16.2263 87.3874 16.43 87.2054 16.69L86.2434 15.949C86.5294 15.5503 86.9064 15.2383 87.3744 15.013C87.851 14.779 88.371 14.662 88.9344 14.662C89.8964 14.662 90.6374 14.9003 91.1574 15.377C91.6774 15.845 91.9374 16.5037 91.9374 17.353V21.5H90.5724V20.681H90.4944C90.321 20.9497 90.061 21.188 89.7144 21.396C89.3677 21.604 88.9517 21.708 88.4664 21.708ZM88.7134 20.564C89.0774 20.564 89.398 20.4773 89.6754 20.304C89.9527 20.1307 90.1694 19.9053 90.3254 19.628C90.49 19.342 90.5724 19.0343 90.5724 18.705C90.373 18.5923 90.139 18.5013 89.8704 18.432C89.6017 18.354 89.3157 18.315 89.0124 18.315C88.4404 18.315 88.033 18.432 87.7904 18.666C87.5477 18.8913 87.4264 19.1687 87.4264 19.498C87.4264 19.81 87.5434 20.0657 87.7774 20.265C88.0114 20.4643 88.3234 20.564 88.7134 20.564ZM90.1434 13.518C89.9267 13.518 89.736 13.44 89.5714 13.284C89.4154 13.1193 89.3374 12.9243 89.3374 12.699C89.3374 12.4737 89.4154 12.2873 89.5714 12.14C89.736 11.984 89.9267 11.906 90.1434 11.906C90.3774 11.906 90.5724 11.984 90.7284 12.14C90.8844 12.2873 90.9624 12.4737 90.9624 12.699C90.9624 12.9243 90.8844 13.1193 90.7284 13.284C90.5724 13.44 90.3774 13.518 90.1434 13.518ZM87.8424 13.518C87.6257 13.518 87.435 13.44 87.2704 13.284C87.1144 13.1193 87.0364 12.9243 87.0364 12.699C87.0364 12.4737 87.1144 12.2873 87.2704 12.14C87.435 11.984 87.6257 11.906 87.8424 11.906C88.0764 11.906 88.267 11.984 88.4144 12.14C88.5704 12.2873 88.6484 12.4737 88.6484 12.699C88.6484 12.9243 88.5704 13.1193 88.4144 13.284C88.267 13.44 88.0764 13.518 87.8424 13.518ZM95.4996 21.708C95.0229 21.708 94.5983 21.617 94.2256 21.435C93.8529 21.2443 93.5626 20.98 93.3546 20.642C93.1466 20.304 93.0426 19.9183 93.0426 19.485C93.0426 19.017 93.1639 18.6183 93.4066 18.289C93.6579 17.951 93.9916 17.6953 94.4076 17.522C94.8236 17.3487 95.2829 17.262 95.7856 17.262C96.2016 17.262 96.5656 17.301 96.8776 17.379C97.1983 17.457 97.4409 17.5393 97.6056 17.626V17.275C97.6056 16.8417 97.4496 16.495 97.1376 16.235C96.8256 15.975 96.4226 15.845 95.9286 15.845C95.5906 15.845 95.2699 15.923 94.9666 16.079C94.6633 16.2263 94.4206 16.43 94.2386 16.69L93.2766 15.949C93.5626 15.5503 93.9396 15.2383 94.4076 15.013C94.8843 14.779 95.4043 14.662 95.9676 14.662C96.9296 14.662 97.6706 14.9003 98.1906 15.377C98.7106 15.845 98.9706 16.5037 98.9706 17.353V21.5H97.6056V20.681H97.5276C97.3543 20.9497 97.0943 21.188 96.7476 21.396C96.4009 21.604 95.9849 21.708 95.4996 21.708ZM95.7466 20.564C96.1106 20.564 96.4313 20.4773 96.7086 20.304C96.9859 20.1307 97.2026 19.9053 97.3586 19.628C97.5233 19.342 97.6056 19.0343 97.6056 18.705C97.4063 18.5923 97.1723 18.5013 96.9036 18.432C96.6349 18.354 96.3489 18.315 96.0456 18.315C95.4736 18.315 95.0663 18.432 94.8236 18.666C94.5809 18.8913 94.4596 19.1687 94.4596 19.498C94.4596 19.81 94.5766 20.0657 94.8106 20.265C95.0446 20.4643 95.3566 20.564 95.7466 20.564ZM97.1766 13.518C96.9599 13.518 96.7693 13.44 96.6046 13.284C96.4486 13.1193 96.3706 12.9243 96.3706 12.699C96.3706 12.4737 96.4486 12.2873 96.6046 12.14C96.7693 11.984 96.9599 11.906 97.1766 11.906C97.4106 11.906 97.6056 11.984 97.7616 12.14C97.9176 12.2873 97.9956 12.4737 97.9956 12.699C97.9956 12.9243 97.9176 13.1193 97.7616 13.284C97.6056 13.44 97.4106 13.518 97.1766 13.518ZM94.8756 13.518C94.6589 13.518 94.4683 13.44 94.3036 13.284C94.1476 13.1193 94.0696 12.9243 94.0696 12.699C94.0696 12.4737 94.1476 12.2873 94.3036 12.14C94.4683 11.984 94.6589 11.906 94.8756 11.906C95.1096 11.906 95.3003 11.984 95.4476 12.14C95.6036 12.2873 95.6816 12.4737 95.6816 12.699C95.6816 12.9243 95.6036 13.1193 95.4476 13.284C95.3003 13.44 95.1096 13.518 94.8756 13.518ZM103.537 24.308V14.87H104.85V15.767H104.928C105.102 15.481 105.37 15.2253 105.734 15C106.107 14.7747 106.549 14.662 107.06 14.662C107.667 14.662 108.209 14.8137 108.685 15.117C109.162 15.4203 109.539 15.8363 109.816 16.365C110.102 16.8937 110.245 17.5003 110.245 18.185C110.245 18.8697 110.102 19.4807 109.816 20.018C109.539 20.5467 109.162 20.9627 108.685 21.266C108.209 21.5607 107.667 21.708 107.06 21.708C106.549 21.708 106.107 21.5997 105.734 21.383C105.37 21.1577 105.102 20.902 104.928 20.616H104.85L104.928 21.539V24.308H103.537ZM106.852 20.421C107.199 20.421 107.524 20.33 107.827 20.148C108.131 19.966 108.378 19.7103 108.568 19.381C108.759 19.043 108.854 18.6443 108.854 18.185C108.854 17.7257 108.759 17.3313 108.568 17.002C108.378 16.664 108.131 16.404 107.827 16.222C107.524 16.04 107.199 15.949 106.852 15.949C106.506 15.949 106.181 16.04 105.877 16.222C105.574 16.404 105.327 16.664 105.136 17.002C104.946 17.3313 104.85 17.7257 104.85 18.185C104.85 18.6443 104.946 19.043 105.136 19.381C105.327 19.7103 105.574 19.966 105.877 20.148C106.181 20.33 106.506 20.421 106.852 20.421ZM113.616 21.708C113.139 21.708 112.714 21.617 112.342 21.435C111.969 21.2443 111.679 20.98 111.471 20.642C111.263 20.304 111.159 19.9183 111.159 19.485C111.159 19.017 111.28 18.6183 111.523 18.289C111.774 17.951 112.108 17.6953 112.524 17.522C112.94 17.3487 113.399 17.262 113.902 17.262C114.318 17.262 114.682 17.301 114.994 17.379C115.314 17.457 115.557 17.5393 115.722 17.626V17.275C115.722 16.8417 115.566 16.495 115.254 16.235C114.942 15.975 114.539 15.845 114.045 15.845C113.707 15.845 113.386 15.923 113.083 16.079C112.779 16.2263 112.537 16.43 112.355 16.69L111.393 15.949C111.679 15.5503 112.056 15.2383 112.524 15.013C113 14.779 113.52 14.662 114.084 14.662C115.046 14.662 115.787 14.9003 116.307 15.377C116.827 15.845 117.087 16.5037 117.087 17.353V21.5H115.722V20.681H115.644C115.47 20.9497 115.21 21.188 114.864 21.396C114.517 21.604 114.101 21.708 113.616 21.708ZM113.863 20.564C114.227 20.564 114.547 20.4773 114.825 20.304C115.102 20.1307 115.319 19.9053 115.475 19.628C115.639 19.342 115.722 19.0343 115.722 18.705C115.522 18.5923 115.288 18.5013 115.02 18.432C114.751 18.354 114.465 18.315 114.162 18.315C113.59 18.315 113.182 18.432 112.94 18.666C112.697 18.8913 112.576 19.1687 112.576 19.498C112.576 19.81 112.693 20.0657 112.927 20.265C113.161 20.4643 113.473 20.564 113.863 20.564ZM118.645 21.5V12.192H120.049V21.5H118.645ZM123.72 21.5L120.977 14.87H122.537L124.396 19.693H124.461L126.359 14.87H127.893L125.124 21.5H123.72ZM131.64 21.708C130.99 21.708 130.409 21.5563 129.898 21.253C129.387 20.9497 128.984 20.5337 128.689 20.005C128.403 19.4763 128.26 18.874 128.26 18.198C128.26 17.5653 128.399 16.9803 128.676 16.443C128.953 15.9057 129.339 15.4767 129.833 15.156C130.336 14.8267 130.912 14.662 131.562 14.662C132.247 14.662 132.827 14.8093 133.304 15.104C133.789 15.3987 134.158 15.8017 134.409 16.313C134.66 16.8243 134.786 17.4007 134.786 18.042C134.786 18.1373 134.782 18.224 134.773 18.302C134.773 18.38 134.769 18.4407 134.76 18.484H129.638C129.707 19.1427 129.937 19.6367 130.327 19.966C130.726 20.2953 131.176 20.46 131.679 20.46C132.13 20.46 132.502 20.3603 132.797 20.161C133.092 19.953 133.326 19.6973 133.499 19.394L134.656 19.953C134.37 20.473 133.98 20.8977 133.486 21.227C132.992 21.5477 132.377 21.708 131.64 21.708ZM131.575 15.858C131.107 15.858 130.708 16.001 130.379 16.287C130.05 16.573 129.829 16.9543 129.716 17.431H133.395C133.378 17.2057 133.304 16.9717 133.174 16.729C133.044 16.4863 132.845 16.2827 132.576 16.118C132.316 15.9447 131.982 15.858 131.575 15.858ZM136.102 21.5V12.192H137.506V21.5H136.102ZM141.566 21.708C140.751 21.708 140.136 21.4653 139.72 20.98C139.312 20.486 139.109 19.8187 139.109 18.978V14.87H140.513V18.783C140.513 19.3463 140.643 19.7623 140.903 20.031C141.171 20.291 141.505 20.421 141.904 20.421C142.259 20.421 142.567 20.33 142.827 20.148C143.095 19.9573 143.299 19.7147 143.438 19.42C143.585 19.1167 143.659 18.7873 143.659 18.432V14.87H145.05V21.5H143.737V20.603H143.659C143.468 20.915 143.182 21.1793 142.801 21.396C142.428 21.604 142.016 21.708 141.566 21.708ZM149.107 21.708C148.292 21.708 147.677 21.4653 147.261 20.98C146.853 20.486 146.65 19.8187 146.65 18.978V14.87H148.054V18.783C148.054 19.3463 148.184 19.7623 148.444 20.031C148.712 20.291 149.046 20.421 149.445 20.421C149.8 20.421 150.108 20.33 150.368 20.148C150.636 19.9573 150.84 19.7147 150.979 19.42C151.126 19.1167 151.2 18.7873 151.2 18.432V14.87H152.591V21.5H151.278V20.603H151.2C151.009 20.915 150.723 21.1793 150.342 21.396C149.969 21.604 149.557 21.708 149.107 21.708ZM154.243 21.5V14.87H155.569V15.78H155.647C155.837 15.4593 156.119 15.195 156.492 14.987C156.873 14.7703 157.289 14.662 157.74 14.662C158.554 14.662 159.165 14.9047 159.573 15.39C159.98 15.8753 160.184 16.5167 160.184 17.314V21.5H158.793V17.496C158.793 16.9587 158.658 16.5687 158.39 16.326C158.121 16.0747 157.77 15.949 157.337 15.949C156.999 15.949 156.704 16.0443 156.453 16.235C156.201 16.417 156.002 16.6597 155.855 16.963C155.716 17.2663 155.647 17.5913 155.647 17.938V21.5H154.243Z" fill="white"/>
<path d="M76.14 41.772C75.2673 41.772 74.4457 41.6133 73.675 41.296C72.9157 40.9787 72.2413 40.5367 71.652 39.97C71.0627 39.392 70.598 38.7177 70.258 37.947C69.9293 37.165 69.765 36.3207 69.765 35.414C69.765 34.5073 69.9293 33.6687 70.258 32.898C70.598 32.116 71.057 31.4417 71.635 30.875C72.2243 30.297 72.9043 29.8493 73.675 29.532C74.4457 29.2147 75.2673 29.056 76.14 29.056C77.0693 29.056 77.925 29.2203 78.707 29.549C79.5003 29.8777 80.1633 30.3367 80.696 30.926L79.404 32.201C79.0073 31.759 78.5313 31.419 77.976 31.181C77.432 30.943 76.82 30.824 76.14 30.824C75.3353 30.824 74.593 31.0167 73.913 31.402C73.233 31.776 72.6833 32.3087 72.264 33C71.856 33.68 71.652 34.4847 71.652 35.414C71.652 36.3433 71.8617 37.1537 72.281 37.845C72.7003 38.525 73.25 39.0577 73.93 39.443C74.61 39.817 75.3523 40.004 76.157 40.004C76.8937 40.004 77.5623 39.868 78.163 39.596C78.7637 39.3127 79.2453 38.916 79.608 38.406C79.982 37.896 80.2087 37.284 80.288 36.57H76.123V34.921H82.039C82.107 35.227 82.141 35.55 82.141 35.89V35.907C82.141 37.0857 81.8803 38.117 81.359 39.001C80.849 39.8737 80.1407 40.5537 79.234 41.041C78.3273 41.5283 77.296 41.772 76.14 41.772ZM87.6149 41.772C86.7195 41.772 85.9319 41.568 85.2519 41.16C84.5719 40.752 84.0392 40.2023 83.6539 39.511C83.2685 38.8197 83.0759 38.0377 83.0759 37.165C83.0759 36.3037 83.2685 35.5273 83.6539 34.836C84.0392 34.1333 84.5719 33.578 85.2519 33.17C85.9319 32.762 86.7195 32.558 87.6149 32.558C88.4989 32.558 89.2809 32.762 89.9609 33.17C90.6409 33.578 91.1735 34.1333 91.5589 34.836C91.9442 35.5273 92.1369 36.3037 92.1369 37.165C92.1369 38.0377 91.9442 38.8197 91.5589 39.511C91.1735 40.2023 90.6409 40.752 89.9609 41.16C89.2809 41.568 88.4989 41.772 87.6149 41.772ZM87.6149 40.089C88.0909 40.089 88.5329 39.9757 88.9409 39.749C89.3489 39.511 89.6775 39.1767 89.9269 38.746C90.1875 38.304 90.3179 37.777 90.3179 37.165C90.3179 36.553 90.1875 36.0317 89.9269 35.601C89.6775 35.159 89.3489 34.8247 88.9409 34.598C88.5329 34.36 88.0909 34.241 87.6149 34.241C87.1389 34.241 86.6912 34.36 86.2719 34.598C85.8639 34.8247 85.5295 35.159 85.2689 35.601C85.0195 36.0317 84.8949 36.553 84.8949 37.165C84.8949 37.777 85.0195 38.304 85.2689 38.746C85.5295 39.1767 85.8639 39.511 86.2719 39.749C86.6912 39.9757 87.1389 40.089 87.6149 40.089ZM97.9078 41.772C97.0125 41.772 96.2248 41.568 95.5448 41.16C94.8648 40.752 94.3322 40.2023 93.9468 39.511C93.5615 38.8197 93.3688 38.0377 93.3688 37.165C93.3688 36.3037 93.5615 35.5273 93.9468 34.836C94.3322 34.1333 94.8648 33.578 95.5448 33.17C96.2248 32.762 97.0125 32.558 97.9078 32.558C98.7918 32.558 99.5738 32.762 100.254 33.17C100.934 33.578 101.467 34.1333 101.852 34.836C102.237 35.5273 102.43 36.3037 102.43 37.165C102.43 38.0377 102.237 38.8197 101.852 39.511C101.467 40.2023 100.934 40.752 100.254 41.16C99.5738 41.568 98.7918 41.772 97.9078 41.772ZM97.9078 40.089C98.3838 40.089 98.8258 39.9757 99.2338 39.749C99.6418 39.511 99.9705 39.1767 100.22 38.746C100.481 38.304 100.611 37.777 100.611 37.165C100.611 36.553 100.481 36.0317 100.22 35.601C99.9705 35.159 99.6418 34.8247 99.2338 34.598C98.8258 34.36 98.3838 34.241 97.9078 34.241C97.4318 34.241 96.9842 34.36 96.5648 34.598C96.1568 34.8247 95.8225 35.159 95.5618 35.601C95.3125 36.0317 95.1878 36.553 95.1878 37.165C95.1878 37.777 95.3125 38.304 95.5618 38.746C95.8225 39.1767 96.1568 39.511 96.5648 39.749C96.9842 39.9757 97.4318 40.089 97.9078 40.089ZM108.031 45.444C107.271 45.444 106.614 45.3193 106.059 45.07C105.515 44.832 105.073 44.5203 104.733 44.135C104.393 43.761 104.149 43.3757 104.002 42.979L105.702 42.265C105.883 42.7183 106.172 43.0867 106.569 43.37C106.977 43.6647 107.464 43.812 108.031 43.812C108.824 43.812 109.447 43.574 109.901 43.098C110.365 42.622 110.598 41.9477 110.598 41.075V40.242H110.496C110.224 40.65 109.844 40.9787 109.357 41.228C108.881 41.466 108.337 41.585 107.725 41.585C106.988 41.585 106.314 41.398 105.702 41.024C105.09 40.65 104.597 40.1287 104.223 39.46C103.849 38.78 103.662 37.9867 103.662 37.08C103.662 36.162 103.849 35.3687 104.223 34.7C104.597 34.02 105.09 33.493 105.702 33.119C106.314 32.745 106.988 32.558 107.725 32.558C108.337 32.558 108.881 32.6827 109.357 32.932C109.844 33.1813 110.224 33.51 110.496 33.918H110.598V32.83H112.349V41.041C112.349 41.9817 112.162 42.7807 111.788 43.438C111.425 44.0953 110.921 44.594 110.275 44.934C109.629 45.274 108.881 45.444 108.031 45.444ZM108.048 39.919C108.501 39.919 108.92 39.8113 109.306 39.596C109.691 39.3693 110.003 39.0463 110.241 38.627C110.479 38.1963 110.598 37.6807 110.598 37.08C110.598 36.4567 110.479 35.9353 110.241 35.516C110.003 35.0853 109.691 34.7623 109.306 34.547C108.92 34.3317 108.501 34.224 108.048 34.224C107.594 34.224 107.169 34.3373 106.773 34.564C106.387 34.7793 106.076 35.0967 105.838 35.516C105.6 35.9353 105.481 36.4567 105.481 37.08C105.481 37.692 105.6 38.2133 105.838 38.644C106.076 39.0633 106.387 39.3807 106.773 39.596C107.169 39.8113 107.594 39.919 108.048 39.919ZM114.514 41.5V29.328H116.35V41.5H114.514ZM122.392 41.772C121.542 41.772 120.783 41.5737 120.114 41.177C119.446 40.7803 118.919 40.2363 118.533 39.545C118.159 38.8537 117.972 38.066 117.972 37.182C117.972 36.3547 118.154 35.5897 118.516 34.887C118.879 34.1843 119.383 33.6233 120.029 33.204C120.687 32.7733 121.44 32.558 122.29 32.558C123.186 32.558 123.945 32.7507 124.568 33.136C125.203 33.5213 125.685 34.0483 126.013 34.717C126.342 35.3857 126.506 36.1393 126.506 36.978C126.506 37.1027 126.501 37.216 126.489 37.318C126.489 37.42 126.484 37.4993 126.472 37.556H119.774C119.865 38.4173 120.165 39.0633 120.675 39.494C121.197 39.9247 121.786 40.14 122.443 40.14C123.033 40.14 123.52 40.0097 123.905 39.749C124.291 39.477 124.597 39.1427 124.823 38.746L126.336 39.477C125.962 40.157 125.452 40.7123 124.806 41.143C124.16 41.5623 123.356 41.772 122.392 41.772ZM122.307 34.122C121.695 34.122 121.174 34.309 120.743 34.683C120.313 35.057 120.024 35.5557 119.876 36.179H124.687C124.665 35.8843 124.568 35.5783 124.398 35.261C124.228 34.9437 123.968 34.6773 123.616 34.462C123.276 34.2353 122.84 34.122 122.307 34.122ZM133.979 41.5L130.715 29.328H132.789L134.727 37.233L134.931 38.287H135.033L135.288 37.233L137.736 29.328H139.606L141.952 37.233L142.207 38.27H142.309L142.513 37.233L144.451 29.328H146.508L143.295 41.5H141.323L138.994 33.425L138.722 32.286H138.62L138.331 33.425L135.9 41.5H133.979ZM149.922 41.772C149.299 41.772 148.743 41.653 148.256 41.415C147.769 41.1657 147.389 40.82 147.117 40.378C146.845 39.936 146.709 39.4317 146.709 38.865C146.709 38.253 146.868 37.7317 147.185 37.301C147.514 36.859 147.95 36.5247 148.494 36.298C149.038 36.0713 149.639 35.958 150.296 35.958C150.84 35.958 151.316 36.009 151.724 36.111C152.143 36.213 152.461 36.3207 152.676 36.434V35.975C152.676 35.4083 152.472 34.955 152.064 34.615C151.656 34.275 151.129 34.105 150.483 34.105C150.041 34.105 149.622 34.207 149.225 34.411C148.828 34.6037 148.511 34.87 148.273 35.21L147.015 34.241C147.389 33.7197 147.882 33.3117 148.494 33.017C149.117 32.711 149.797 32.558 150.534 32.558C151.792 32.558 152.761 32.8697 153.441 33.493C154.121 34.105 154.461 34.9663 154.461 36.077V41.5H152.676V40.429H152.574C152.347 40.7803 152.007 41.092 151.554 41.364C151.101 41.636 150.557 41.772 149.922 41.772ZM150.245 40.276C150.721 40.276 151.14 40.1627 151.503 39.936C151.866 39.7093 152.149 39.4147 152.353 39.052C152.568 38.678 152.676 38.2757 152.676 37.845C152.415 37.6977 152.109 37.5787 151.758 37.488C151.407 37.386 151.033 37.335 150.636 37.335C149.888 37.335 149.355 37.488 149.038 37.794C148.721 38.0887 148.562 38.4513 148.562 38.882C148.562 39.29 148.715 39.6243 149.021 39.885C149.327 40.1457 149.735 40.276 150.245 40.276ZM156.499 41.5V29.328H158.335V41.5H156.499ZM160.517 41.5V29.328H162.353V41.5H160.517ZM168.395 41.772C167.545 41.772 166.786 41.5737 166.117 41.177C165.449 40.7803 164.922 40.2363 164.536 39.545C164.162 38.8537 163.975 38.066 163.975 37.182C163.975 36.3547 164.157 35.5897 164.519 34.887C164.882 34.1843 165.386 33.6233 166.032 33.204C166.69 32.7733 167.443 32.558 168.293 32.558C169.189 32.558 169.948 32.7507 170.571 33.136C171.206 33.5213 171.688 34.0483 172.016 34.717C172.345 35.3857 172.509 36.1393 172.509 36.978C172.509 37.1027 172.504 37.216 172.492 37.318C172.492 37.42 172.487 37.4993 172.475 37.556H165.777C165.868 38.4173 166.168 39.0633 166.678 39.494C167.2 39.9247 167.789 40.14 168.446 40.14C169.036 40.14 169.523 40.0097 169.908 39.749C170.294 39.477 170.6 39.1427 170.826 38.746L172.339 39.477C171.965 40.157 171.455 40.7123 170.809 41.143C170.163 41.5623 169.359 41.772 168.395 41.772ZM168.31 34.122C167.698 34.122 167.177 34.309 166.746 34.683C166.316 35.057 166.027 35.5557 165.879 36.179H170.69C170.668 35.8843 170.571 35.5783 170.401 35.261C170.231 34.9437 169.971 34.6773 169.619 34.462C169.279 34.2353 168.843 34.122 168.31 34.122ZM174.882 38.984V34.428H173.369V32.83H174.882V30.382H176.718V32.83H178.843V34.428H176.718V38.593C176.718 39.0237 176.803 39.3523 176.973 39.579C177.154 39.8057 177.454 39.919 177.874 39.919C178.089 39.919 178.27 39.8907 178.418 39.834C178.576 39.7773 178.735 39.698 178.894 39.596V41.381C178.701 41.4603 178.497 41.5227 178.282 41.568C178.066 41.6133 177.811 41.636 177.517 41.636C176.712 41.636 176.072 41.4037 175.596 40.939C175.12 40.463 174.882 39.8113 174.882 38.984Z" fill="white"/>
<rect x="0.5" y="0.5" width="198" height="54" rx="27" stroke="#747775"/>
<defs>
<linearGradient id="paint0_linear_1819_24263" x1="37.2843" y1="34.0448" x2="18.7823" y2="55.7227" gradientUnits="userSpaceOnUse">
<stop stop-color="#4285F4"/>
<stop offset="1" stop-color="#1B74E8"/>
</linearGradient>
</defs>
</svg>
