<svg width="199" height="55" viewBox="0 0 199 55" fill="none" xmlns="http://www.w3.org/2000/svg">
<rect x="0.5" y="0.5" width="198" height="54" rx="27" fill="#1F1F1F"/>
<path d="M57 23.791H21V18.1456C21 15.0809 23.6422 12.5001 26.7798 12.5001H51.2202C54.3578 12.5001 57 15.0809 57 18.1456V23.791Z" fill="#34A853"/>
<path d="M57 29H21V23C21 19.7429 23.6422 17 26.7798 17H51.2202C54.3578 17 57 19.7429 57 23V29Z" fill="#FBBC04"/>
<path d="M57 34H21V28C21 24.7429 23.6422 22 26.7798 22H51.2202C54.3578 22 57 24.7429 57 28V34Z" fill="#EA4335"/>
<path d="M21 25.2409L43.8493 30.4025C46.4795 31.0477 49.4384 30.4025 51.5753 28.7895L57 24.9183V37.0157C57 40.0804 54.3699 42.4999 51.2466 42.4999H26.7534C23.6301 42.4999 21 40.0804 21 37.0157V25.2409Z" fill="url(#paint0_linear_1819_24947)"/>
<path d="M70.053 21.5V12.192H71.483V21.5H70.053ZM76.068 21.708C75.47 21.708 74.9284 21.5607 74.443 21.266C73.9664 20.9627 73.585 20.5467 73.299 20.018C73.0217 19.4807 72.883 18.8697 72.883 18.185C72.883 17.5003 73.0217 16.8937 73.299 16.365C73.585 15.8363 73.9664 15.4203 74.443 15.117C74.9284 14.8137 75.47 14.662 76.068 14.662C76.5794 14.662 77.017 14.7747 77.381 15C77.7537 15.2253 78.0267 15.481 78.2 15.767H78.278L78.2 14.844V12.192H79.591V21.5H78.278V20.616H78.2C78.0267 20.902 77.7537 21.1577 77.381 21.383C77.017 21.5997 76.5794 21.708 76.068 21.708ZM76.276 20.421C76.6227 20.421 76.9477 20.33 77.251 20.148C77.563 19.966 77.81 19.7103 77.992 19.381C78.1827 19.043 78.278 18.6443 78.278 18.185C78.278 17.7257 78.1827 17.3313 77.992 17.002C77.81 16.664 77.563 16.404 77.251 16.222C76.9477 16.04 76.6227 15.949 76.276 15.949C75.9294 15.949 75.6044 16.04 75.301 16.222C74.9977 16.404 74.7507 16.664 74.56 17.002C74.3694 17.3313 74.274 17.7257 74.274 18.185C74.274 18.6443 74.3694 19.043 74.56 19.381C74.7507 19.7103 74.9977 19.966 75.301 20.148C75.6044 20.33 75.9294 20.421 76.276 20.421ZM83.2613 21.708C82.7846 21.708 82.36 21.617 81.9873 21.435C81.6146 21.2443 81.3243 20.98 81.1163 20.642C80.9083 20.304 80.8043 19.9183 80.8043 19.485C80.8043 19.017 80.9256 18.6183 81.1683 18.289C81.4196 17.951 81.7533 17.6953 82.1693 17.522C82.5853 17.3487 83.0446 17.262 83.5473 17.262C83.9633 17.262 84.3273 17.301 84.6393 17.379C84.96 17.457 85.2026 17.5393 85.3673 17.626V17.275C85.3673 16.8417 85.2113 16.495 84.8993 16.235C84.5873 15.975 84.1843 15.845 83.6903 15.845C83.3523 15.845 83.0316 15.923 82.7283 16.079C82.425 16.2263 82.1823 16.43 82.0003 16.69L81.0383 15.949C81.3243 15.5503 81.7013 15.2383 82.1693 15.013C82.646 14.779 83.166 14.662 83.7293 14.662C84.6913 14.662 85.4323 14.9003 85.9523 15.377C86.4723 15.845 86.7323 16.5037 86.7323 17.353V21.5H85.3673V20.681H85.2893C85.116 20.9497 84.856 21.188 84.5093 21.396C84.1626 21.604 83.7466 21.708 83.2613 21.708ZM83.5083 20.564C83.8723 20.564 84.193 20.4773 84.4703 20.304C84.7476 20.1307 84.9643 19.9053 85.1203 19.628C85.285 19.342 85.3673 19.0343 85.3673 18.705C85.168 18.5923 84.934 18.5013 84.6653 18.432C84.3966 18.354 84.1106 18.315 83.8073 18.315C83.2353 18.315 82.828 18.432 82.5853 18.666C82.3426 18.8913 82.2213 19.1687 82.2213 19.498C82.2213 19.81 82.3383 20.0657 82.5723 20.265C82.8063 20.4643 83.1183 20.564 83.5083 20.564ZM91.2045 24.516C90.6238 24.516 90.1212 24.4207 89.6965 24.23C89.2805 24.048 88.9425 23.8097 88.6825 23.515C88.4225 23.229 88.2362 22.9343 88.1235 22.631L89.4235 22.085C89.5622 22.4317 89.7832 22.7133 90.0865 22.93C90.3985 23.1553 90.7712 23.268 91.2045 23.268C91.8112 23.268 92.2878 23.086 92.6345 22.722C92.9898 22.358 93.1675 21.8423 93.1675 21.175V20.538H93.0895C92.8815 20.85 92.5912 21.1013 92.2185 21.292C91.8545 21.474 91.4385 21.565 90.9705 21.565C90.4072 21.565 89.8915 21.422 89.4235 21.136C88.9555 20.85 88.5785 20.4513 88.2925 19.94C88.0065 19.42 87.8635 18.8133 87.8635 18.12C87.8635 17.418 88.0065 16.8113 88.2925 16.3C88.5785 15.78 88.9555 15.377 89.4235 15.091C89.8915 14.805 90.4072 14.662 90.9705 14.662C91.4385 14.662 91.8545 14.7573 92.2185 14.948C92.5912 15.1387 92.8815 15.39 93.0895 15.702H93.1675V14.87H94.5065V21.149C94.5065 21.8683 94.3635 22.4793 94.0775 22.982C93.8002 23.4847 93.4145 23.866 92.9205 24.126C92.4265 24.386 91.8545 24.516 91.2045 24.516ZM91.2175 20.291C91.5642 20.291 91.8848 20.2087 92.1795 20.044C92.4742 19.8707 92.7125 19.6237 92.8945 19.303C93.0765 18.9737 93.1675 18.5793 93.1675 18.12C93.1675 17.6433 93.0765 17.2447 92.8945 16.924C92.7125 16.5947 92.4742 16.3477 92.1795 16.183C91.8848 16.0183 91.5642 15.936 91.2175 15.936C90.8708 15.936 90.5458 16.0227 90.2425 16.196C89.9478 16.3607 89.7095 16.6033 89.5275 16.924C89.3455 17.2447 89.2545 17.6433 89.2545 18.12C89.2545 18.588 89.3455 18.9867 89.5275 19.316C89.7095 19.6367 89.9478 19.8793 90.2425 20.044C90.5458 20.2087 90.8708 20.291 91.2175 20.291ZM98.9196 21.708C98.3216 21.708 97.7799 21.5607 97.2946 21.266C96.8179 20.9627 96.4366 20.5467 96.1506 20.018C95.8733 19.4807 95.7346 18.8697 95.7346 18.185C95.7346 17.5003 95.8733 16.8937 96.1506 16.365C96.4366 15.8363 96.8179 15.4203 97.2946 15.117C97.7799 14.8137 98.3216 14.662 98.9196 14.662C99.4309 14.662 99.8686 14.7747 100.233 15C100.605 15.2253 100.878 15.481 101.052 15.767H101.13L101.052 14.844V12.192H102.443V21.5H101.13V20.616H101.052C100.878 20.902 100.605 21.1577 100.233 21.383C99.8686 21.5997 99.4309 21.708 98.9196 21.708ZM99.1276 20.421C99.4743 20.421 99.7993 20.33 100.103 20.148C100.415 19.966 100.662 19.7103 100.844 19.381C101.034 19.043 101.13 18.6443 101.13 18.185C101.13 17.7257 101.034 17.3313 100.844 17.002C100.662 16.664 100.415 16.404 100.103 16.222C99.7993 16.04 99.4743 15.949 99.1276 15.949C98.7809 15.949 98.4559 16.04 98.1526 16.222C97.8493 16.404 97.6023 16.664 97.4116 17.002C97.2209 17.3313 97.1256 17.7257 97.1256 18.185C97.1256 18.6443 97.2209 19.043 97.4116 19.381C97.6023 19.7103 97.8493 19.966 98.1526 20.148C98.4559 20.33 98.7809 20.421 99.1276 20.421ZM106.113 21.708C105.636 21.708 105.212 21.617 104.839 21.435C104.466 21.2443 104.176 20.98 103.968 20.642C103.76 20.304 103.656 19.9183 103.656 19.485C103.656 19.017 103.777 18.6183 104.02 18.289C104.271 17.951 104.605 17.6953 105.021 17.522C105.437 17.3487 105.896 17.262 106.399 17.262C106.815 17.262 107.179 17.301 107.491 17.379C107.812 17.457 108.054 17.5393 108.219 17.626V17.275C108.219 16.8417 108.063 16.495 107.751 16.235C107.439 15.975 107.036 15.845 106.542 15.845C106.204 15.845 105.883 15.923 105.58 16.079C105.277 16.2263 105.034 16.43 104.852 16.69L103.89 15.949C104.176 15.5503 104.553 15.2383 105.021 15.013C105.498 14.779 106.018 14.662 106.581 14.662C107.543 14.662 108.284 14.9003 108.804 15.377C109.324 15.845 109.584 16.5037 109.584 17.353V21.5H108.219V20.681H108.141C107.968 20.9497 107.708 21.188 107.361 21.396C107.014 21.604 106.598 21.708 106.113 21.708ZM106.36 20.564C106.724 20.564 107.045 20.4773 107.322 20.304C107.599 20.1307 107.816 19.9053 107.972 19.628C108.137 19.342 108.219 19.0343 108.219 18.705C108.02 18.5923 107.786 18.5013 107.517 18.432C107.248 18.354 106.962 18.315 106.659 18.315C106.087 18.315 105.68 18.432 105.437 18.666C105.194 18.8913 105.073 19.1687 105.073 19.498C105.073 19.81 105.19 20.0657 105.424 20.265C105.658 20.4643 105.97 20.564 106.36 20.564ZM114.056 24.516C113.475 24.516 112.973 24.4207 112.548 24.23C112.132 24.048 111.794 23.8097 111.534 23.515C111.274 23.229 111.088 22.9343 110.975 22.631L112.275 22.085C112.414 22.4317 112.635 22.7133 112.938 22.93C113.25 23.1553 113.623 23.268 114.056 23.268C114.663 23.268 115.139 23.086 115.486 22.722C115.841 22.358 116.019 21.8423 116.019 21.175V20.538H115.941C115.733 20.85 115.443 21.1013 115.07 21.292C114.706 21.474 114.29 21.565 113.822 21.565C113.259 21.565 112.743 21.422 112.275 21.136C111.807 20.85 111.43 20.4513 111.144 19.94C110.858 19.42 110.715 18.8133 110.715 18.12C110.715 17.418 110.858 16.8113 111.144 16.3C111.43 15.78 111.807 15.377 112.275 15.091C112.743 14.805 113.259 14.662 113.822 14.662C114.29 14.662 114.706 14.7573 115.07 14.948C115.443 15.1387 115.733 15.39 115.941 15.702H116.019V14.87H117.358V21.149C117.358 21.8683 117.215 22.4793 116.929 22.982C116.652 23.4847 116.266 23.866 115.772 24.126C115.278 24.386 114.706 24.516 114.056 24.516ZM114.069 20.291C114.416 20.291 114.736 20.2087 115.031 20.044C115.326 19.8707 115.564 19.6237 115.746 19.303C115.928 18.9737 116.019 18.5793 116.019 18.12C116.019 17.6433 115.928 17.2447 115.746 16.924C115.564 16.5947 115.326 16.3477 115.031 16.183C114.736 16.0183 114.416 15.936 114.069 15.936C113.722 15.936 113.397 16.0227 113.094 16.196C112.799 16.3607 112.561 16.6033 112.379 16.924C112.197 17.2447 112.106 17.6433 112.106 18.12C112.106 18.588 112.197 18.9867 112.379 19.316C112.561 19.6367 112.799 19.8793 113.094 20.044C113.397 20.2087 113.722 20.291 114.069 20.291ZM124.453 21.708C123.655 21.708 123.018 21.5347 122.542 21.188C122.065 20.8327 121.736 20.4123 121.554 19.927L122.815 19.381C122.971 19.7363 123.196 20.0093 123.491 20.2C123.785 20.382 124.119 20.473 124.492 20.473C124.838 20.473 125.137 20.4123 125.389 20.291C125.64 20.161 125.766 19.953 125.766 19.667C125.766 19.3897 125.64 19.186 125.389 19.056C125.137 18.926 124.825 18.8133 124.453 18.718L123.66 18.536C123.339 18.458 123.04 18.3367 122.763 18.172C122.485 18.0073 122.26 17.795 122.087 17.535C121.913 17.2663 121.827 16.9543 121.827 16.599C121.827 16.209 121.944 15.871 122.178 15.585C122.412 15.2903 122.719 15.065 123.101 14.909C123.491 14.7443 123.911 14.662 124.362 14.662C124.977 14.662 125.514 14.7833 125.974 15.026C126.442 15.26 126.784 15.6153 127.001 16.092L125.792 16.638C125.636 16.3433 125.432 16.1397 125.181 16.027C124.938 15.9057 124.669 15.845 124.375 15.845C124.045 15.845 123.768 15.9143 123.543 16.053C123.326 16.1917 123.218 16.365 123.218 16.573C123.218 16.7983 123.313 16.976 123.504 17.106C123.703 17.236 123.946 17.34 124.232 17.418L125.194 17.652C125.852 17.8167 126.346 18.068 126.676 18.406C127.005 18.7353 127.17 19.1383 127.17 19.615C127.17 20.0397 127.048 20.4123 126.806 20.733C126.563 21.045 126.234 21.2877 125.818 21.461C125.41 21.6257 124.955 21.708 124.453 21.708ZM130.539 21.708C130.062 21.708 129.637 21.617 129.265 21.435C128.892 21.2443 128.602 20.98 128.394 20.642C128.186 20.304 128.082 19.9183 128.082 19.485C128.082 19.017 128.203 18.6183 128.446 18.289C128.697 17.951 129.031 17.6953 129.447 17.522C129.863 17.3487 130.322 17.262 130.825 17.262C131.241 17.262 131.605 17.301 131.917 17.379C132.237 17.457 132.48 17.5393 132.645 17.626V17.275C132.645 16.8417 132.489 16.495 132.177 16.235C131.865 15.975 131.462 15.845 130.968 15.845C130.63 15.845 130.309 15.923 130.006 16.079C129.702 16.2263 129.46 16.43 129.278 16.69L128.316 15.949C128.602 15.5503 128.979 15.2383 129.447 15.013C129.923 14.779 130.443 14.662 131.007 14.662C131.969 14.662 132.71 14.9003 133.23 15.377C133.75 15.845 134.01 16.5037 134.01 17.353V21.5H132.645V20.681H132.567C132.393 20.9497 132.133 21.188 131.787 21.396C131.44 21.604 131.024 21.708 130.539 21.708ZM130.786 20.564C131.15 20.564 131.47 20.4773 131.748 20.304C132.025 20.1307 132.242 19.9053 132.398 19.628C132.562 19.342 132.645 19.0343 132.645 18.705C132.445 18.5923 132.211 18.5013 131.943 18.432C131.674 18.354 131.388 18.315 131.085 18.315C130.513 18.315 130.105 18.432 129.863 18.666C129.62 18.8913 129.499 19.1687 129.499 19.498C129.499 19.81 129.616 20.0657 129.85 20.265C130.084 20.4643 130.396 20.564 130.786 20.564Z" fill="white"/>
<path d="M76.14 41.772C75.2673 41.772 74.4457 41.6133 73.675 41.296C72.9157 40.9787 72.2413 40.5367 71.652 39.97C71.0627 39.392 70.598 38.7177 70.258 37.947C69.9293 37.165 69.765 36.3207 69.765 35.414C69.765 34.5073 69.9293 33.6687 70.258 32.898C70.598 32.116 71.057 31.4417 71.635 30.875C72.2243 30.297 72.9043 29.8493 73.675 29.532C74.4457 29.2147 75.2673 29.056 76.14 29.056C77.0693 29.056 77.925 29.2203 78.707 29.549C79.5003 29.8777 80.1633 30.3367 80.696 30.926L79.404 32.201C79.0073 31.759 78.5313 31.419 77.976 31.181C77.432 30.943 76.82 30.824 76.14 30.824C75.3353 30.824 74.593 31.0167 73.913 31.402C73.233 31.776 72.6833 32.3087 72.264 33C71.856 33.68 71.652 34.4847 71.652 35.414C71.652 36.3433 71.8617 37.1537 72.281 37.845C72.7003 38.525 73.25 39.0577 73.93 39.443C74.61 39.817 75.3523 40.004 76.157 40.004C76.8937 40.004 77.5623 39.868 78.163 39.596C78.7637 39.3127 79.2453 38.916 79.608 38.406C79.982 37.896 80.2087 37.284 80.288 36.57H76.123V34.921H82.039C82.107 35.227 82.141 35.55 82.141 35.89V35.907C82.141 37.0857 81.8803 38.117 81.359 39.001C80.849 39.8737 80.1407 40.5537 79.234 41.041C78.3273 41.5283 77.296 41.772 76.14 41.772ZM87.6149 41.772C86.7195 41.772 85.9319 41.568 85.2519 41.16C84.5719 40.752 84.0392 40.2023 83.6539 39.511C83.2685 38.8197 83.0759 38.0377 83.0759 37.165C83.0759 36.3037 83.2685 35.5273 83.6539 34.836C84.0392 34.1333 84.5719 33.578 85.2519 33.17C85.9319 32.762 86.7195 32.558 87.6149 32.558C88.4989 32.558 89.2809 32.762 89.9609 33.17C90.6409 33.578 91.1735 34.1333 91.5589 34.836C91.9442 35.5273 92.1369 36.3037 92.1369 37.165C92.1369 38.0377 91.9442 38.8197 91.5589 39.511C91.1735 40.2023 90.6409 40.752 89.9609 41.16C89.2809 41.568 88.4989 41.772 87.6149 41.772ZM87.6149 40.089C88.0909 40.089 88.5329 39.9757 88.9409 39.749C89.3489 39.511 89.6775 39.1767 89.9269 38.746C90.1875 38.304 90.3179 37.777 90.3179 37.165C90.3179 36.553 90.1875 36.0317 89.9269 35.601C89.6775 35.159 89.3489 34.8247 88.9409 34.598C88.5329 34.36 88.0909 34.241 87.6149 34.241C87.1389 34.241 86.6912 34.36 86.2719 34.598C85.8639 34.8247 85.5295 35.159 85.2689 35.601C85.0195 36.0317 84.8949 36.553 84.8949 37.165C84.8949 37.777 85.0195 38.304 85.2689 38.746C85.5295 39.1767 85.8639 39.511 86.2719 39.749C86.6912 39.9757 87.1389 40.089 87.6149 40.089ZM97.9078 41.772C97.0125 41.772 96.2248 41.568 95.5448 41.16C94.8648 40.752 94.3322 40.2023 93.9468 39.511C93.5615 38.8197 93.3688 38.0377 93.3688 37.165C93.3688 36.3037 93.5615 35.5273 93.9468 34.836C94.3322 34.1333 94.8648 33.578 95.5448 33.17C96.2248 32.762 97.0125 32.558 97.9078 32.558C98.7918 32.558 99.5738 32.762 100.254 33.17C100.934 33.578 101.467 34.1333 101.852 34.836C102.237 35.5273 102.43 36.3037 102.43 37.165C102.43 38.0377 102.237 38.8197 101.852 39.511C101.467 40.2023 100.934 40.752 100.254 41.16C99.5738 41.568 98.7918 41.772 97.9078 41.772ZM97.9078 40.089C98.3838 40.089 98.8258 39.9757 99.2338 39.749C99.6418 39.511 99.9705 39.1767 100.22 38.746C100.481 38.304 100.611 37.777 100.611 37.165C100.611 36.553 100.481 36.0317 100.22 35.601C99.9705 35.159 99.6418 34.8247 99.2338 34.598C98.8258 34.36 98.3838 34.241 97.9078 34.241C97.4318 34.241 96.9842 34.36 96.5648 34.598C96.1568 34.8247 95.8225 35.159 95.5618 35.601C95.3125 36.0317 95.1878 36.553 95.1878 37.165C95.1878 37.777 95.3125 38.304 95.5618 38.746C95.8225 39.1767 96.1568 39.511 96.5648 39.749C96.9842 39.9757 97.4318 40.089 97.9078 40.089ZM108.031 45.444C107.271 45.444 106.614 45.3193 106.059 45.07C105.515 44.832 105.073 44.5203 104.733 44.135C104.393 43.761 104.149 43.3757 104.002 42.979L105.702 42.265C105.883 42.7183 106.172 43.0867 106.569 43.37C106.977 43.6647 107.464 43.812 108.031 43.812C108.824 43.812 109.447 43.574 109.901 43.098C110.365 42.622 110.598 41.9477 110.598 41.075V40.242H110.496C110.224 40.65 109.844 40.9787 109.357 41.228C108.881 41.466 108.337 41.585 107.725 41.585C106.988 41.585 106.314 41.398 105.702 41.024C105.09 40.65 104.597 40.1287 104.223 39.46C103.849 38.78 103.662 37.9867 103.662 37.08C103.662 36.162 103.849 35.3687 104.223 34.7C104.597 34.02 105.09 33.493 105.702 33.119C106.314 32.745 106.988 32.558 107.725 32.558C108.337 32.558 108.881 32.6827 109.357 32.932C109.844 33.1813 110.224 33.51 110.496 33.918H110.598V32.83H112.349V41.041C112.349 41.9817 112.162 42.7807 111.788 43.438C111.425 44.0953 110.921 44.594 110.275 44.934C109.629 45.274 108.881 45.444 108.031 45.444ZM108.048 39.919C108.501 39.919 108.92 39.8113 109.306 39.596C109.691 39.3693 110.003 39.0463 110.241 38.627C110.479 38.1963 110.598 37.6807 110.598 37.08C110.598 36.4567 110.479 35.9353 110.241 35.516C110.003 35.0853 109.691 34.7623 109.306 34.547C108.92 34.3317 108.501 34.224 108.048 34.224C107.594 34.224 107.169 34.3373 106.773 34.564C106.387 34.7793 106.076 35.0967 105.838 35.516C105.6 35.9353 105.481 36.4567 105.481 37.08C105.481 37.692 105.6 38.2133 105.838 38.644C106.076 39.0633 106.387 39.3807 106.773 39.596C107.169 39.8113 107.594 39.919 108.048 39.919ZM114.514 41.5V29.328H116.35V41.5H114.514ZM122.392 41.772C121.542 41.772 120.783 41.5737 120.114 41.177C119.446 40.7803 118.919 40.2363 118.533 39.545C118.159 38.8537 117.972 38.066 117.972 37.182C117.972 36.3547 118.154 35.5897 118.516 34.887C118.879 34.1843 119.383 33.6233 120.029 33.204C120.687 32.7733 121.44 32.558 122.29 32.558C123.186 32.558 123.945 32.7507 124.568 33.136C125.203 33.5213 125.685 34.0483 126.013 34.717C126.342 35.3857 126.506 36.1393 126.506 36.978C126.506 37.1027 126.501 37.216 126.489 37.318C126.489 37.42 126.484 37.4993 126.472 37.556H119.774C119.865 38.4173 120.165 39.0633 120.675 39.494C121.197 39.9247 121.786 40.14 122.443 40.14C123.033 40.14 123.52 40.0097 123.905 39.749C124.291 39.477 124.597 39.1427 124.823 38.746L126.336 39.477C125.962 40.157 125.452 40.7123 124.806 41.143C124.16 41.5623 123.356 41.772 122.392 41.772ZM122.307 34.122C121.695 34.122 121.174 34.309 120.743 34.683C120.313 35.057 120.024 35.5557 119.876 36.179H124.687C124.665 35.8843 124.568 35.5783 124.398 35.261C124.228 34.9437 123.968 34.6773 123.616 34.462C123.276 34.2353 122.84 34.122 122.307 34.122ZM133.979 41.5L130.715 29.328H132.789L134.727 37.233L134.931 38.287H135.033L135.288 37.233L137.736 29.328H139.606L141.952 37.233L142.207 38.27H142.309L142.513 37.233L144.451 29.328H146.508L143.295 41.5H141.323L138.994 33.425L138.722 32.286H138.62L138.331 33.425L135.9 41.5H133.979ZM149.922 41.772C149.299 41.772 148.743 41.653 148.256 41.415C147.769 41.1657 147.389 40.82 147.117 40.378C146.845 39.936 146.709 39.4317 146.709 38.865C146.709 38.253 146.868 37.7317 147.185 37.301C147.514 36.859 147.95 36.5247 148.494 36.298C149.038 36.0713 149.639 35.958 150.296 35.958C150.84 35.958 151.316 36.009 151.724 36.111C152.143 36.213 152.461 36.3207 152.676 36.434V35.975C152.676 35.4083 152.472 34.955 152.064 34.615C151.656 34.275 151.129 34.105 150.483 34.105C150.041 34.105 149.622 34.207 149.225 34.411C148.828 34.6037 148.511 34.87 148.273 35.21L147.015 34.241C147.389 33.7197 147.882 33.3117 148.494 33.017C149.117 32.711 149.797 32.558 150.534 32.558C151.792 32.558 152.761 32.8697 153.441 33.493C154.121 34.105 154.461 34.9663 154.461 36.077V41.5H152.676V40.429H152.574C152.347 40.7803 152.007 41.092 151.554 41.364C151.101 41.636 150.557 41.772 149.922 41.772ZM150.245 40.276C150.721 40.276 151.14 40.1627 151.503 39.936C151.866 39.7093 152.149 39.4147 152.353 39.052C152.568 38.678 152.676 38.2757 152.676 37.845C152.415 37.6977 152.109 37.5787 151.758 37.488C151.407 37.386 151.033 37.335 150.636 37.335C149.888 37.335 149.355 37.488 149.038 37.794C148.721 38.0887 148.562 38.4513 148.562 38.882C148.562 39.29 148.715 39.6243 149.021 39.885C149.327 40.1457 149.735 40.276 150.245 40.276ZM156.499 41.5V29.328H158.335V41.5H156.499ZM160.517 41.5V29.328H162.353V41.5H160.517ZM168.395 41.772C167.545 41.772 166.786 41.5737 166.117 41.177C165.449 40.7803 164.922 40.2363 164.536 39.545C164.162 38.8537 163.975 38.066 163.975 37.182C163.975 36.3547 164.157 35.5897 164.519 34.887C164.882 34.1843 165.386 33.6233 166.032 33.204C166.69 32.7733 167.443 32.558 168.293 32.558C169.189 32.558 169.948 32.7507 170.571 33.136C171.206 33.5213 171.688 34.0483 172.016 34.717C172.345 35.3857 172.509 36.1393 172.509 36.978C172.509 37.1027 172.504 37.216 172.492 37.318C172.492 37.42 172.487 37.4993 172.475 37.556H165.777C165.868 38.4173 166.168 39.0633 166.678 39.494C167.2 39.9247 167.789 40.14 168.446 40.14C169.036 40.14 169.523 40.0097 169.908 39.749C170.294 39.477 170.6 39.1427 170.826 38.746L172.339 39.477C171.965 40.157 171.455 40.7123 170.809 41.143C170.163 41.5623 169.359 41.772 168.395 41.772ZM168.31 34.122C167.698 34.122 167.177 34.309 166.746 34.683C166.316 35.057 166.027 35.5557 165.879 36.179H170.69C170.668 35.8843 170.571 35.5783 170.401 35.261C170.231 34.9437 169.971 34.6773 169.619 34.462C169.279 34.2353 168.843 34.122 168.31 34.122ZM174.882 38.984V34.428H173.369V32.83H174.882V30.382H176.718V32.83H178.843V34.428H176.718V38.593C176.718 39.0237 176.803 39.3523 176.973 39.579C177.154 39.8057 177.454 39.919 177.874 39.919C178.089 39.919 178.27 39.8907 178.418 39.834C178.576 39.7773 178.735 39.698 178.894 39.596V41.381C178.701 41.4603 178.497 41.5227 178.282 41.568C178.066 41.6133 177.811 41.636 177.517 41.636C176.712 41.636 176.072 41.4037 175.596 40.939C175.12 40.463 174.882 39.8113 174.882 38.984Z" fill="white"/>
<rect x="0.5" y="0.5" width="198" height="54" rx="27" stroke="#747775"/>
<defs>
<linearGradient id="paint0_linear_1819_24947" x1="37.2843" y1="34.0448" x2="18.7823" y2="55.7227" gradientUnits="userSpaceOnUse">
<stop stop-color="#4285F4"/>
<stop offset="1" stop-color="#1B74E8"/>
</linearGradient>
</defs>
</svg>
