<svg width="239" height="55" viewBox="0 0 239 55" fill="none" xmlns="http://www.w3.org/2000/svg">
<rect x="0.5" y="0.5" width="238" height="54" rx="27" fill="#1F1F1F"/>
<path d="M57 23.791H21V18.1456C21 15.0809 23.6422 12.5001 26.7798 12.5001H51.2202C54.3578 12.5001 57 15.0809 57 18.1456V23.791Z" fill="#34A853"/>
<path d="M57 29H21V23C21 19.7429 23.6422 17 26.7798 17H51.2202C54.3578 17 57 19.7429 57 23V29Z" fill="#FBBC04"/>
<path d="M57 34H21V28C21 24.7429 23.6422 22 26.7798 22H51.2202C54.3578 22 57 24.7429 57 28V34Z" fill="#EA4335"/>
<path d="M21 25.2409L43.8493 30.4025C46.4795 31.0477 49.4384 30.4025 51.5753 28.7895L57 24.9183V37.0157C57 40.0804 54.3699 42.4999 51.2466 42.4999H26.7534C23.6301 42.4999 21 40.0804 21 37.0157V25.2409Z" fill="url(#paint0_linear_1819_24339)"/>
<path d="M70.053 21.5V12.192H77.073V21.5H75.643V13.544H71.483V21.5H70.053ZM78.768 24.308V18.289C78.768 17.5523 78.911 16.9153 79.197 16.378C79.4916 15.832 79.8903 15.4117 80.393 15.117C80.9043 14.8137 81.4806 14.662 82.122 14.662C82.85 14.662 83.461 14.8267 83.955 15.156C84.4576 15.4767 84.839 15.91 85.099 16.456C85.359 16.9933 85.489 17.574 85.489 18.198C85.489 18.8827 85.346 19.4893 85.06 20.018C84.7826 20.5467 84.4056 20.9627 83.929 21.266C83.4523 21.5607 82.9236 21.708 82.343 21.708C81.823 21.708 81.3766 21.5997 81.004 21.383C80.64 21.1663 80.3626 20.9107 80.172 20.616H80.094L80.172 21.526V24.308H78.768ZM82.083 20.421C82.4383 20.421 82.7676 20.33 83.071 20.148C83.3743 19.9573 83.6213 19.6973 83.812 19.368C84.0026 19.0387 84.098 18.653 84.098 18.211C84.098 17.7343 83.9983 17.327 83.799 16.989C83.6083 16.651 83.3613 16.3953 83.058 16.222C82.7546 16.04 82.4296 15.949 82.083 15.949C81.7623 15.949 81.4503 16.0357 81.147 16.209C80.8436 16.3823 80.5923 16.638 80.393 16.976C80.1936 17.314 80.094 17.7343 80.094 18.237C80.094 18.653 80.185 19.03 80.367 19.368C80.549 19.6973 80.7916 19.9573 81.095 20.148C81.3983 20.33 81.7276 20.421 82.083 20.421ZM89.8999 21.708C89.2153 21.708 88.6129 21.552 88.0929 21.24C87.5729 20.928 87.1656 20.5077 86.8709 19.979C86.5763 19.4503 86.4289 18.8523 86.4289 18.185C86.4289 17.5263 86.5763 16.9327 86.8709 16.404C87.1656 15.8667 87.5729 15.442 88.0929 15.13C88.6129 14.818 89.2153 14.662 89.8999 14.662C90.5759 14.662 91.1739 14.818 91.6939 15.13C92.2139 15.442 92.6213 15.8667 92.9159 16.404C93.2106 16.9327 93.3579 17.5263 93.3579 18.185C93.3579 18.8523 93.2106 19.4503 92.9159 19.979C92.6213 20.5077 92.2139 20.928 91.6939 21.24C91.1739 21.552 90.5759 21.708 89.8999 21.708ZM89.8999 20.421C90.2639 20.421 90.6019 20.3343 90.9139 20.161C91.2259 19.979 91.4773 19.7233 91.6679 19.394C91.8673 19.056 91.9669 18.653 91.9669 18.185C91.9669 17.717 91.8673 17.3183 91.6679 16.989C91.4773 16.651 91.2259 16.3953 90.9139 16.222C90.6019 16.04 90.2639 15.949 89.8999 15.949C89.5359 15.949 89.1936 16.04 88.8729 16.222C88.5609 16.3953 88.3053 16.651 88.1059 16.989C87.9153 17.3183 87.8199 17.717 87.8199 18.185C87.8199 18.653 87.9153 19.056 88.1059 19.394C88.3053 19.7233 88.5609 19.979 88.8729 20.161C89.1936 20.3343 89.5359 20.421 89.8999 20.421ZM97.68 21.708C97.0127 21.708 96.4234 21.5607 95.912 21.266C95.4007 20.9627 95.002 20.5553 94.716 20.044C94.4387 19.524 94.3 18.939 94.3 18.289C94.3 17.6303 94.443 17.0453 94.729 16.534C95.015 16.0227 95.4224 15.6197 95.951 15.325C96.4884 15.0217 97.121 14.87 97.849 14.87H101.892V16.092H101.125L100.098 16.001V16.079C100.401 16.313 100.644 16.612 100.826 16.976C101.008 17.34 101.099 17.7647 101.099 18.25C101.099 18.9 100.956 19.485 100.67 20.005C100.384 20.525 99.981 20.941 99.461 21.253C98.9497 21.5563 98.356 21.708 97.68 21.708ZM97.693 20.421C98.0484 20.421 98.3777 20.3387 98.681 20.174C98.9844 20.0007 99.2314 19.7537 99.422 19.433C99.6127 19.1123 99.708 18.7267 99.708 18.276C99.708 17.808 99.6127 17.4137 99.422 17.093C99.2314 16.7637 98.9844 16.5123 98.681 16.339C98.3777 16.1657 98.0484 16.079 97.693 16.079C97.3464 16.079 97.017 16.1657 96.705 16.339C96.4017 16.5123 96.1547 16.7637 95.964 17.093C95.782 17.4137 95.691 17.808 95.691 18.276C95.691 18.7267 95.782 19.1123 95.964 19.433C96.1547 19.7537 96.4017 20.0007 96.705 20.174C97.017 20.3387 97.3464 20.421 97.693 20.421ZM106.187 21.708C105.511 21.708 104.918 21.5347 104.406 21.188C103.904 20.8327 103.509 20.2997 103.223 19.589C102.946 18.8697 102.807 17.9683 102.807 16.885C102.807 15.8103 102.946 14.9177 103.223 14.207C103.509 13.4963 103.904 12.9677 104.406 12.621C104.918 12.2657 105.511 12.088 106.187 12.088C106.863 12.088 107.453 12.2657 107.955 12.621C108.467 12.9677 108.865 13.4963 109.151 14.207C109.437 14.9177 109.58 15.8103 109.58 16.885C109.58 17.9683 109.437 18.8697 109.151 19.589C108.865 20.2997 108.467 20.8327 107.955 21.188C107.453 21.5347 106.863 21.708 106.187 21.708ZM106.187 13.375C105.858 13.375 105.55 13.4573 105.264 13.622C104.987 13.7867 104.753 14.077 104.562 14.493C104.372 14.909 104.255 15.494 104.211 16.248H108.163C108.129 15.494 108.016 14.909 107.825 14.493C107.635 14.077 107.396 13.7867 107.11 13.622C106.824 13.4573 106.517 13.375 106.187 13.375ZM106.187 20.421C106.517 20.421 106.82 20.33 107.097 20.148C107.383 19.966 107.617 19.6627 107.799 19.238C107.99 18.8047 108.111 18.2153 108.163 17.47H104.224C104.268 18.2153 104.38 18.8047 104.562 19.238C104.753 19.6713 104.987 19.979 105.264 20.161C105.55 20.3343 105.858 20.421 106.187 20.421ZM110.926 21.5V14.87H112.252V15.78H112.33C112.521 15.4593 112.803 15.195 113.175 14.987C113.557 14.7703 113.973 14.662 114.423 14.662C115.238 14.662 115.849 14.9047 116.256 15.39C116.664 15.8753 116.867 16.5167 116.867 17.314V24.308H115.476V17.496C115.476 16.9587 115.342 16.5687 115.073 16.326C114.805 16.0747 114.454 15.949 114.02 15.949C113.682 15.949 113.388 16.0443 113.136 16.235C112.885 16.417 112.686 16.6597 112.538 16.963C112.4 17.2663 112.33 17.5913 112.33 17.938V21.5H110.926ZM113.123 13.596L113.604 11.568H115.268L114.306 13.596H113.123ZM118.467 21.5V14.87H119.871V17.691L122.679 14.87H124.421V14.948L121.86 17.483L124.512 21.422V21.5H122.848L120.885 18.458L119.871 19.446V21.5H118.467ZM125.386 21.5V14.87H126.712V15.78H126.79C126.981 15.4593 127.263 15.195 127.635 14.987C128.017 14.7703 128.433 14.662 128.883 14.662C129.698 14.662 130.309 14.9047 130.716 15.39C131.124 15.8753 131.327 16.5167 131.327 17.314V24.308H129.936V17.496C129.936 16.9587 129.802 16.5687 129.533 16.326C129.265 16.0747 128.914 15.949 128.48 15.949C128.142 15.949 127.848 16.0443 127.596 16.235C127.345 16.417 127.146 16.6597 126.998 16.963C126.86 17.2663 126.79 17.5913 126.79 17.938V21.5H125.386ZM138.991 21.708C138.323 21.708 137.734 21.5607 137.223 21.266C136.711 20.9627 136.313 20.5553 136.027 20.044C135.749 19.524 135.611 18.939 135.611 18.289C135.611 17.6303 135.754 17.0453 136.04 16.534C136.326 16.0227 136.733 15.6197 137.262 15.325C137.799 15.0217 138.432 14.87 139.16 14.87H143.203V16.092H142.436L141.409 16.001V16.079C141.712 16.313 141.955 16.612 142.137 16.976C142.319 17.34 142.41 17.7647 142.41 18.25C142.41 18.9 142.267 19.485 141.981 20.005C141.695 20.525 141.292 20.941 140.772 21.253C140.26 21.5563 139.667 21.708 138.991 21.708ZM139.004 20.421C139.359 20.421 139.688 20.3387 139.992 20.174C140.295 20.0007 140.542 19.7537 140.733 19.433C140.923 19.1123 141.019 18.7267 141.019 18.276C141.019 17.808 140.923 17.4137 140.733 17.093C140.542 16.7637 140.295 16.5123 139.992 16.339C139.688 16.1657 139.359 16.079 139.004 16.079C138.657 16.079 138.328 16.1657 138.016 16.339C137.712 16.5123 137.465 16.7637 137.275 17.093C137.093 17.4137 137.002 17.808 137.002 18.276C137.002 18.7267 137.093 19.1123 137.275 19.433C137.465 19.7537 137.712 20.0007 138.016 20.174C138.328 20.3387 138.657 20.421 139.004 20.421ZM148.096 21.604C147.489 21.604 147 21.4307 146.627 21.084C146.254 20.7373 146.068 20.239 146.068 19.589V16.092H143.949V14.87H149.955V16.092H147.459V19.29C147.459 19.628 147.528 19.8793 147.667 20.044C147.814 20.2087 148.044 20.291 148.356 20.291C148.521 20.291 148.659 20.2693 148.772 20.226C148.893 20.174 149.01 20.1133 149.123 20.044V21.409C148.811 21.539 148.469 21.604 148.096 21.604ZM154.278 21.708C153.593 21.708 152.991 21.552 152.471 21.24C151.951 20.928 151.544 20.5077 151.249 19.979C150.954 19.4503 150.807 18.8523 150.807 18.185C150.807 17.5263 150.954 16.9327 151.249 16.404C151.544 15.8667 151.951 15.442 152.471 15.13C152.991 14.818 153.593 14.662 154.278 14.662C154.954 14.662 155.552 14.818 156.072 15.13C156.592 15.442 156.999 15.8667 157.294 16.404C157.589 16.9327 157.736 17.5263 157.736 18.185C157.736 18.8523 157.589 19.4503 157.294 19.979C156.999 20.5077 156.592 20.928 156.072 21.24C155.552 21.552 154.954 21.708 154.278 21.708ZM154.278 20.421C154.642 20.421 154.98 20.3343 155.292 20.161C155.604 19.979 155.855 19.7233 156.046 19.394C156.245 19.056 156.345 18.653 156.345 18.185C156.345 17.717 156.245 17.3183 156.046 16.989C155.855 16.651 155.604 16.3953 155.292 16.222C154.98 16.04 154.642 15.949 154.278 15.949C153.914 15.949 153.572 16.04 153.251 16.222C152.939 16.3953 152.683 16.651 152.484 16.989C152.293 17.3183 152.198 17.717 152.198 18.185C152.198 18.653 152.293 19.056 152.484 19.394C152.683 19.7233 152.939 19.979 153.251 20.161C153.572 20.3343 153.914 20.421 154.278 20.421Z" fill="white"/>
<path d="M70.377 41.5V29.328H79.557V41.5H77.687V31.096H72.247V41.5H70.377ZM85.9215 41.772C85.0262 41.772 84.2385 41.568 83.5585 41.16C82.8785 40.752 82.3458 40.2023 81.9605 39.511C81.5752 38.8197 81.3825 38.0377 81.3825 37.165C81.3825 36.3037 81.5752 35.5273 81.9605 34.836C82.3458 34.1333 82.8785 33.578 83.5585 33.17C84.2385 32.762 85.0262 32.558 85.9215 32.558C86.8055 32.558 87.5875 32.762 88.2675 33.17C88.9475 33.578 89.4802 34.1333 89.8655 34.836C90.2508 35.5273 90.4435 36.3037 90.4435 37.165C90.4435 38.0377 90.2508 38.8197 89.8655 39.511C89.4802 40.2023 88.9475 40.752 88.2675 41.16C87.5875 41.568 86.8055 41.772 85.9215 41.772ZM85.9215 40.089C86.3975 40.089 86.8395 39.9757 87.2475 39.749C87.6555 39.511 87.9842 39.1767 88.2335 38.746C88.4942 38.304 88.6245 37.777 88.6245 37.165C88.6245 36.553 88.4942 36.0317 88.2335 35.601C87.9842 35.159 87.6555 34.8247 87.2475 34.598C86.8395 34.36 86.3975 34.241 85.9215 34.241C85.4455 34.241 84.9978 34.36 84.5785 34.598C84.1705 34.8247 83.8362 35.159 83.5755 35.601C83.3262 36.0317 83.2015 36.553 83.2015 37.165C83.2015 37.777 83.3262 38.304 83.5755 38.746C83.8362 39.1767 84.1705 39.511 84.5785 39.749C84.9978 39.9757 85.4455 40.089 85.9215 40.089ZM91.9005 45.172V37.301C91.9005 36.3377 92.0875 35.5047 92.4615 34.802C92.8468 34.088 93.3681 33.5383 94.0255 33.153C94.6941 32.7563 95.4478 32.558 96.2865 32.558C97.2385 32.558 98.0375 32.7733 98.6835 33.204C99.3408 33.6233 99.8395 34.19 100.179 34.904C100.519 35.6067 100.689 36.366 100.689 37.182C100.689 38.0773 100.502 38.8707 100.128 39.562C99.7658 40.2533 99.2728 40.7973 98.6495 41.194C98.0261 41.5793 97.3348 41.772 96.5755 41.772C95.8955 41.772 95.3118 41.6303 94.8245 41.347C94.3485 41.0637 93.9858 40.7293 93.7365 40.344H93.6345L93.7365 41.534V45.172H91.9005ZM96.2355 40.089C96.7001 40.089 97.1308 39.97 97.5275 39.732C97.9241 39.4827 98.2471 39.1427 98.4965 38.712C98.7458 38.2813 98.8705 37.777 98.8705 37.199C98.8705 36.5757 98.7401 36.043 98.4795 35.601C98.2301 35.159 97.9071 34.8247 97.5105 34.598C97.1138 34.36 96.6888 34.241 96.2355 34.241C95.8161 34.241 95.4081 34.3543 95.0115 34.581C94.6148 34.8077 94.2861 35.142 94.0255 35.584C93.7648 36.026 93.6345 36.5757 93.6345 37.233C93.6345 37.777 93.7535 38.27 93.9915 38.712C94.2295 39.1427 94.5468 39.4827 94.9435 39.732C95.3401 39.97 95.7708 40.089 96.2355 40.089ZM107.04 41.636C106.246 41.636 105.606 41.4093 105.119 40.956C104.631 40.5027 104.388 39.851 104.388 39.001V34.428H101.617V32.83H109.471V34.428H106.207V38.61C106.207 39.052 106.297 39.3807 106.479 39.596C106.671 39.8113 106.972 39.919 107.38 39.919C107.595 39.919 107.776 39.8907 107.924 39.834C108.082 39.766 108.235 39.6867 108.383 39.596V41.381C107.975 41.551 107.527 41.636 107.04 41.636ZM115.124 41.772C114.228 41.772 113.441 41.568 112.761 41.16C112.081 40.752 111.548 40.2023 111.163 39.511C110.777 38.8197 110.585 38.0377 110.585 37.165C110.585 36.3037 110.777 35.5273 111.163 34.836C111.548 34.1333 112.081 33.578 112.761 33.17C113.441 32.762 114.228 32.558 115.124 32.558C116.008 32.558 116.79 32.762 117.47 33.17C118.15 33.578 118.682 34.1333 119.068 34.836C119.453 35.5273 119.646 36.3037 119.646 37.165C119.646 38.0377 119.453 38.8197 119.068 39.511C118.682 40.2023 118.15 40.752 117.47 41.16C116.79 41.568 116.008 41.772 115.124 41.772ZM115.124 40.089C115.6 40.089 116.042 39.9757 116.45 39.749C116.858 39.511 117.186 39.1767 117.436 38.746C117.696 38.304 117.827 37.777 117.827 37.165C117.827 36.553 117.696 36.0317 117.436 35.601C117.186 35.159 116.858 34.8247 116.45 34.598C116.042 34.36 115.6 34.241 115.124 34.241C114.648 34.241 114.2 34.36 113.781 34.598C113.373 34.8247 113.038 35.159 112.778 35.601C112.528 36.0317 112.404 36.553 112.404 37.165C112.404 37.777 112.528 38.304 112.778 38.746C113.038 39.1767 113.373 39.511 113.781 39.749C114.2 39.9757 114.648 40.089 115.124 40.089ZM120.878 37.165C120.878 36.349 121.042 35.6067 121.371 34.938C121.711 34.2693 122.232 33.7253 122.935 33.306C123.637 32.8753 124.538 32.609 125.638 32.507V30.382H127.474V32.507C128.573 32.609 129.468 32.8753 130.16 33.306C130.862 33.7253 131.378 34.2693 131.707 34.938C132.047 35.6067 132.217 36.349 132.217 37.165C132.217 37.947 132.047 38.6723 131.707 39.341C131.378 40.0097 130.862 40.565 130.16 41.007C129.457 41.449 128.562 41.721 127.474 41.823V45.172H125.638V41.823C124.538 41.721 123.637 41.449 122.935 41.007C122.232 40.565 121.711 40.0097 121.371 39.341C121.042 38.6723 120.878 37.947 120.878 37.165ZM130.398 37.165C130.398 36.3037 130.165 35.6067 129.701 35.074C129.247 34.53 128.505 34.2013 127.474 34.088V40.242C128.494 40.1173 129.236 39.7773 129.701 39.222C130.165 38.6553 130.398 37.9697 130.398 37.165ZM122.714 37.165C122.714 37.9583 122.94 38.6383 123.394 39.205C123.847 39.7603 124.595 40.106 125.638 40.242V34.088C124.606 34.2127 123.858 34.547 123.394 35.091C122.94 35.6237 122.714 36.315 122.714 37.165ZM137.984 41.772C137.089 41.772 136.301 41.568 135.621 41.16C134.941 40.752 134.408 40.2023 134.023 39.511C133.638 38.8197 133.445 38.0377 133.445 37.165C133.445 36.3037 133.638 35.5273 134.023 34.836C134.408 34.1333 134.941 33.578 135.621 33.17C136.301 32.762 137.089 32.558 137.984 32.558C138.868 32.558 139.65 32.762 140.33 33.17C141.01 33.578 141.543 34.1333 141.928 34.836C142.313 35.5273 142.506 36.3037 142.506 37.165C142.506 38.0377 142.313 38.8197 141.928 39.511C141.543 40.2023 141.01 40.752 140.33 41.16C139.65 41.568 138.868 41.772 137.984 41.772ZM137.984 40.089C138.46 40.089 138.902 39.9757 139.31 39.749C139.718 39.511 140.047 39.1767 140.296 38.746C140.557 38.304 140.687 37.777 140.687 37.165C140.687 36.553 140.557 36.0317 140.296 35.601C140.047 35.159 139.718 34.8247 139.31 34.598C138.902 34.36 138.46 34.241 137.984 34.241C137.508 34.241 137.06 34.36 136.641 34.598C136.233 34.8247 135.899 35.159 135.638 35.601C135.389 36.0317 135.264 36.553 135.264 37.165C135.264 37.777 135.389 38.304 135.638 38.746C135.899 39.1767 136.233 39.511 136.641 39.749C137.06 39.9757 137.508 40.089 137.984 40.089ZM137.202 31.164L137.831 28.512H140.007L138.749 31.164H137.202ZM142.93 41.5L146.534 33.374L145.905 32.031C145.701 31.589 145.503 31.2943 145.31 31.147C145.117 30.9883 144.874 30.909 144.579 30.909C144.307 30.909 144.046 30.9827 143.797 31.13V29.345C143.956 29.2997 144.126 29.2657 144.307 29.243C144.488 29.209 144.698 29.192 144.936 29.192C145.401 29.192 145.78 29.26 146.075 29.396C146.381 29.532 146.642 29.7643 146.857 30.093C147.084 30.4103 147.31 30.8353 147.537 31.368L151.94 41.5H149.934L147.537 35.584H147.452L144.97 41.5H142.93ZM155.563 41.636C154.747 41.636 154.101 41.4037 153.625 40.939C153.149 40.463 152.911 39.8113 152.911 38.984V32.83H154.747V38.593C154.747 39.0237 154.838 39.3523 155.019 39.579C155.201 39.8057 155.495 39.919 155.903 39.919C156.119 39.919 156.3 39.8907 156.447 39.834C156.606 39.7773 156.765 39.698 156.923 39.596V41.381C156.731 41.4603 156.527 41.5227 156.311 41.568C156.096 41.6133 155.847 41.636 155.563 41.636ZM168.196 41.772C167.323 41.772 166.501 41.6133 165.731 41.296C164.971 40.9787 164.297 40.5367 163.708 39.97C163.118 39.392 162.654 38.7177 162.314 37.947C161.985 37.165 161.821 36.3207 161.821 35.414C161.821 34.5073 161.985 33.6687 162.314 32.898C162.654 32.116 163.113 31.4417 163.691 30.875C164.28 30.297 164.96 29.8493 165.731 29.532C166.501 29.2147 167.323 29.056 168.196 29.056C169.125 29.056 169.981 29.2203 170.763 29.549C171.556 29.8777 172.219 30.3367 172.752 30.926L171.46 32.201C171.063 31.759 170.587 31.419 170.032 31.181C169.488 30.943 168.876 30.824 168.196 30.824C167.391 30.824 166.649 31.0167 165.969 31.402C165.289 31.776 164.739 32.3087 164.32 33C163.912 33.68 163.708 34.4847 163.708 35.414C163.708 36.3433 163.917 37.1537 164.337 37.845C164.756 38.525 165.306 39.0577 165.986 39.443C166.666 39.817 167.408 40.004 168.213 40.004C168.949 40.004 169.618 39.868 170.219 39.596C170.819 39.3127 171.301 38.916 171.664 38.406C172.038 37.896 172.264 37.284 172.344 36.57H168.179V34.921H174.095C174.163 35.227 174.197 35.55 174.197 35.89V35.907C174.197 37.0857 173.936 38.117 173.415 39.001C172.905 39.8737 172.196 40.5537 171.29 41.041C170.383 41.5283 169.352 41.772 168.196 41.772ZM179.671 41.772C178.775 41.772 177.988 41.568 177.308 41.16C176.628 40.752 176.095 40.2023 175.71 39.511C175.324 38.8197 175.132 38.0377 175.132 37.165C175.132 36.3037 175.324 35.5273 175.71 34.836C176.095 34.1333 176.628 33.578 177.308 33.17C177.988 32.762 178.775 32.558 179.671 32.558C180.555 32.558 181.337 32.762 182.017 33.17C182.697 33.578 183.229 34.1333 183.615 34.836C184 35.5273 184.193 36.3037 184.193 37.165C184.193 38.0377 184 38.8197 183.615 39.511C183.229 40.2023 182.697 40.752 182.017 41.16C181.337 41.568 180.555 41.772 179.671 41.772ZM179.671 40.089C180.147 40.089 180.589 39.9757 180.997 39.749C181.405 39.511 181.733 39.1767 181.983 38.746C182.243 38.304 182.374 37.777 182.374 37.165C182.374 36.553 182.243 36.0317 181.983 35.601C181.733 35.159 181.405 34.8247 180.997 34.598C180.589 34.36 180.147 34.241 179.671 34.241C179.195 34.241 178.747 34.36 178.328 34.598C177.92 34.8247 177.585 35.159 177.325 35.601C177.075 36.0317 176.951 36.553 176.951 37.165C176.951 37.777 177.075 38.304 177.325 38.746C177.585 39.1767 177.92 39.511 178.328 39.749C178.747 39.9757 179.195 40.089 179.671 40.089ZM189.964 41.772C189.068 41.772 188.281 41.568 187.601 41.16C186.921 40.752 186.388 40.2023 186.003 39.511C185.617 38.8197 185.425 38.0377 185.425 37.165C185.425 36.3037 185.617 35.5273 186.003 34.836C186.388 34.1333 186.921 33.578 187.601 33.17C188.281 32.762 189.068 32.558 189.964 32.558C190.848 32.558 191.63 32.762 192.31 33.17C192.99 33.578 193.522 34.1333 193.908 34.836C194.293 35.5273 194.486 36.3037 194.486 37.165C194.486 38.0377 194.293 38.8197 193.908 39.511C193.522 40.2023 192.99 40.752 192.31 41.16C191.63 41.568 190.848 41.772 189.964 41.772ZM189.964 40.089C190.44 40.089 190.882 39.9757 191.29 39.749C191.698 39.511 192.026 39.1767 192.276 38.746C192.536 38.304 192.667 37.777 192.667 37.165C192.667 36.553 192.536 36.0317 192.276 35.601C192.026 35.159 191.698 34.8247 191.29 34.598C190.882 34.36 190.44 34.241 189.964 34.241C189.488 34.241 189.04 34.36 188.621 34.598C188.213 34.8247 187.878 35.159 187.618 35.601C187.368 36.0317 187.244 36.553 187.244 37.165C187.244 37.777 187.368 38.304 187.618 38.746C187.878 39.1767 188.213 39.511 188.621 39.749C189.04 39.9757 189.488 40.089 189.964 40.089ZM200.086 45.444C199.327 45.444 198.67 45.3193 198.114 45.07C197.57 44.832 197.128 44.5203 196.788 44.135C196.448 43.761 196.205 43.3757 196.057 42.979L197.757 42.265C197.939 42.7183 198.228 43.0867 198.624 43.37C199.032 43.6647 199.52 43.812 200.086 43.812C200.88 43.812 201.503 43.574 201.956 43.098C202.421 42.622 202.653 41.9477 202.653 41.075V40.242H202.551C202.279 40.65 201.9 40.9787 201.412 41.228C200.936 41.466 200.392 41.585 199.78 41.585C199.044 41.585 198.369 41.398 197.757 41.024C197.145 40.65 196.652 40.1287 196.278 39.46C195.904 38.78 195.717 37.9867 195.717 37.08C195.717 36.162 195.904 35.3687 196.278 34.7C196.652 34.02 197.145 33.493 197.757 33.119C198.369 32.745 199.044 32.558 199.78 32.558C200.392 32.558 200.936 32.6827 201.412 32.932C201.9 33.1813 202.279 33.51 202.551 33.918H202.653V32.83H204.404V41.041C204.404 41.9817 204.217 42.7807 203.843 43.438C203.481 44.0953 202.976 44.594 202.33 44.934C201.684 45.274 200.936 45.444 200.086 45.444ZM200.103 39.919C200.557 39.919 200.976 39.8113 201.361 39.596C201.747 39.3693 202.058 39.0463 202.296 38.627C202.534 38.1963 202.653 37.6807 202.653 37.08C202.653 36.4567 202.534 35.9353 202.296 35.516C202.058 35.0853 201.747 34.7623 201.361 34.547C200.976 34.3317 200.557 34.224 200.103 34.224C199.65 34.224 199.225 34.3373 198.828 34.564C198.443 34.7793 198.131 35.0967 197.893 35.516C197.655 35.9353 197.536 36.4567 197.536 37.08C197.536 37.692 197.655 38.2133 197.893 38.644C198.131 39.0633 198.443 39.3807 198.828 39.596C199.225 39.8113 199.65 39.919 200.103 39.919ZM206.569 41.5V29.328H208.405V41.5H206.569ZM214.448 41.772C213.598 41.772 212.839 41.5737 212.17 41.177C211.501 40.7803 210.974 40.2363 210.589 39.545C210.215 38.8537 210.028 38.066 210.028 37.182C210.028 36.3547 210.209 35.5897 210.572 34.887C210.935 34.1843 211.439 33.6233 212.085 33.204C212.742 32.7733 213.496 32.558 214.346 32.558C215.241 32.558 216.001 32.7507 216.624 33.136C217.259 33.5213 217.74 34.0483 218.069 34.717C218.398 35.3857 218.562 36.1393 218.562 36.978C218.562 37.1027 218.556 37.216 218.545 37.318C218.545 37.42 218.539 37.4993 218.528 37.556H211.83C211.921 38.4173 212.221 39.0633 212.731 39.494C213.252 39.9247 213.842 40.14 214.499 40.14C215.088 40.14 215.576 40.0097 215.961 39.749C216.346 39.477 216.652 39.1427 216.879 38.746L218.392 39.477C218.018 40.157 217.508 40.7123 216.862 41.143C216.216 41.5623 215.411 41.772 214.448 41.772ZM214.363 34.122C213.751 34.122 213.23 34.309 212.799 34.683C212.368 35.057 212.079 35.5557 211.932 36.179H216.743C216.72 35.8843 216.624 35.5783 216.454 35.261C216.284 34.9437 216.023 34.6773 215.672 34.462C215.332 34.2353 214.896 34.122 214.363 34.122Z" fill="white"/>
<rect x="0.5" y="0.5" width="238" height="54" rx="27" stroke="#747775"/>
<defs>
<linearGradient id="paint0_linear_1819_24339" x1="37.2843" y1="34.0448" x2="18.7823" y2="55.7227" gradientUnits="userSpaceOnUse">
<stop stop-color="#4285F4"/>
<stop offset="1" stop-color="#1B74E8"/>
</linearGradient>
</defs>
</svg>
