<svg width="199" height="55" viewBox="0 0 199 55" fill="none" xmlns="http://www.w3.org/2000/svg">
<rect x="0.5" y="0.5" width="198" height="54" rx="27" fill="#1F1F1F"/>
<path d="M57 23.791H21V18.1456C21 15.0809 23.6422 12.5001 26.7798 12.5001H51.2202C54.3578 12.5001 57 15.0809 57 18.1456V23.791Z" fill="#34A853"/>
<path d="M57 29H21V23C21 19.7429 23.6422 17 26.7798 17H51.2202C54.3578 17 57 19.7429 57 23V29Z" fill="#FBBC04"/>
<path d="M57 34H21V28C21 24.7429 23.6422 22 26.7798 22H51.2202C54.3578 22 57 24.7429 57 28V34Z" fill="#EA4335"/>
<path d="M21 25.2409L43.8493 30.4025C46.4795 31.0477 49.4384 30.4025 51.5753 28.7895L57 24.9183V37.0157C57 40.0804 54.3699 42.4999 51.2466 42.4999H26.7534C23.6301 42.4999 21 40.0804 21 37.0157V25.2409Z" fill="url(#paint0_linear_1819_24035)"/>
<path d="M70.053 21.5V12.192H73.03C74.0093 12.192 74.85 12.3913 75.552 12.79C76.2627 13.18 76.8087 13.726 77.19 14.428C77.58 15.13 77.775 15.936 77.775 16.846C77.775 17.7647 77.58 18.575 77.19 19.277C76.8087 19.9703 76.2627 20.5163 75.552 20.915C74.85 21.305 74.0093 21.5 73.03 21.5H70.053ZM71.483 20.148H72.991C74.0483 20.148 74.8673 19.8533 75.448 19.264C76.0373 18.6747 76.332 17.8687 76.332 16.846C76.332 15.8233 76.0373 15.0173 75.448 14.428C74.8673 13.8387 74.0483 13.544 72.991 13.544H71.483V20.148ZM82.105 21.708C81.4203 21.708 80.818 21.552 80.298 21.24C79.778 20.928 79.3707 20.5077 79.076 19.979C78.7813 19.4503 78.634 18.8523 78.634 18.185C78.634 17.5263 78.7813 16.9327 79.076 16.404C79.3707 15.8667 79.778 15.442 80.298 15.13C80.818 14.818 81.4203 14.662 82.105 14.662C82.781 14.662 83.379 14.818 83.899 15.13C84.419 15.442 84.8263 15.8667 85.121 16.404C85.4157 16.9327 85.563 17.5263 85.563 18.185C85.563 18.8523 85.4157 19.4503 85.121 19.979C84.8263 20.5077 84.419 20.928 83.899 21.24C83.379 21.552 82.781 21.708 82.105 21.708ZM82.105 20.421C82.469 20.421 82.807 20.3343 83.119 20.161C83.431 19.979 83.6823 19.7233 83.873 19.394C84.0723 19.056 84.172 18.653 84.172 18.185C84.172 17.717 84.0723 17.3183 83.873 16.989C83.6823 16.651 83.431 16.3953 83.119 16.222C82.807 16.04 82.469 15.949 82.105 15.949C81.741 15.949 81.3987 16.04 81.078 16.222C80.766 16.3953 80.5103 16.651 80.311 16.989C80.1203 17.3183 80.025 17.717 80.025 18.185C80.025 18.653 80.1203 19.056 80.311 19.394C80.5103 19.7233 80.766 19.979 81.078 20.161C81.3987 20.3343 81.741 20.421 82.105 20.421ZM89.6901 21.708C89.0921 21.708 88.5504 21.5607 88.0651 21.266C87.5884 20.9627 87.2071 20.5467 86.9211 20.018C86.6438 19.4807 86.5051 18.8697 86.5051 18.185C86.5051 17.5003 86.6438 16.8937 86.9211 16.365C87.2071 15.8363 87.5884 15.4203 88.0651 15.117C88.5504 14.8137 89.0921 14.662 89.6901 14.662C90.2014 14.662 90.6391 14.7747 91.0031 15C91.3758 15.2253 91.6488 15.481 91.8221 15.767H91.9001L91.8221 14.844V12.192H93.2131V21.5H91.9001V20.616H91.8221C91.6488 20.902 91.3758 21.1577 91.0031 21.383C90.6391 21.5997 90.2014 21.708 89.6901 21.708ZM89.8981 20.421C90.2448 20.421 90.5698 20.33 90.8731 20.148C91.1851 19.966 91.4321 19.7103 91.6141 19.381C91.8048 19.043 91.9001 18.6443 91.9001 18.185C91.9001 17.7257 91.8048 17.3313 91.6141 17.002C91.4321 16.664 91.1851 16.404 90.8731 16.222C90.5698 16.04 90.2448 15.949 89.8981 15.949C89.5514 15.949 89.2264 16.04 88.9231 16.222C88.6198 16.404 88.3728 16.664 88.1821 17.002C87.9914 17.3313 87.8961 17.7257 87.8961 18.185C87.8961 18.6443 87.9914 19.043 88.1821 19.381C88.3728 19.7103 88.6198 19.966 88.9231 20.148C89.2264 20.33 89.5514 20.421 89.8981 20.421ZM96.8834 21.708C96.4067 21.708 95.982 21.617 95.6094 21.435C95.2367 21.2443 94.9464 20.98 94.7384 20.642C94.5304 20.304 94.4264 19.9183 94.4264 19.485C94.4264 19.017 94.5477 18.6183 94.7904 18.289C95.0417 17.951 95.3754 17.6953 95.7914 17.522C96.2074 17.3487 96.6667 17.262 97.1694 17.262C97.5854 17.262 97.9494 17.301 98.2614 17.379C98.582 17.457 98.8247 17.5393 98.9894 17.626V17.275C98.9894 16.8417 98.8334 16.495 98.5214 16.235C98.2094 15.975 97.8064 15.845 97.3124 15.845C96.9744 15.845 96.6537 15.923 96.3504 16.079C96.047 16.2263 95.8044 16.43 95.6224 16.69L94.6604 15.949C94.9464 15.5503 95.3234 15.2383 95.7914 15.013C96.268 14.779 96.788 14.662 97.3514 14.662C98.3134 14.662 99.0544 14.9003 99.5744 15.377C100.094 15.845 100.354 16.5037 100.354 17.353V21.5H98.9894V20.681H98.9114C98.738 20.9497 98.478 21.188 98.1314 21.396C97.7847 21.604 97.3687 21.708 96.8834 21.708ZM97.1304 20.564C97.4944 20.564 97.815 20.4773 98.0924 20.304C98.3697 20.1307 98.5864 19.9053 98.7424 19.628C98.907 19.342 98.9894 19.0343 98.9894 18.705C98.79 18.5923 98.556 18.5013 98.2874 18.432C98.0187 18.354 97.7327 18.315 97.4294 18.315C96.8574 18.315 96.45 18.432 96.2074 18.666C95.9647 18.8913 95.8434 19.1687 95.8434 19.498C95.8434 19.81 95.9604 20.0657 96.1944 20.265C96.4284 20.4643 96.7404 20.564 97.1304 20.564ZM102.706 13.895C102.446 13.895 102.221 13.804 102.03 13.622C101.848 13.4313 101.757 13.206 101.757 12.946C101.757 12.686 101.848 12.465 102.03 12.283C102.221 12.101 102.446 12.01 102.706 12.01C102.966 12.01 103.187 12.101 103.369 12.283C103.56 12.465 103.655 12.686 103.655 12.946C103.655 13.206 103.56 13.4313 103.369 13.622C103.187 13.804 102.966 13.895 102.706 13.895ZM101.445 24.438C101.176 24.438 100.934 24.4077 100.717 24.347V22.995C100.804 23.047 100.903 23.086 101.016 23.112C101.12 23.1467 101.224 23.164 101.328 23.164C101.579 23.164 101.753 23.086 101.848 22.93C101.952 22.7827 102.004 22.566 102.004 22.28V14.87H103.408V22.293C103.408 23.0557 103.222 23.6017 102.849 23.931C102.476 24.269 102.008 24.438 101.445 24.438ZM110.589 21.708C109.775 21.708 109.159 21.4653 108.743 20.98C108.336 20.486 108.132 19.8187 108.132 18.978V14.87H109.536V18.783C109.536 19.3463 109.666 19.7623 109.926 20.031C110.195 20.291 110.529 20.421 110.927 20.421C111.283 20.421 111.59 20.33 111.85 20.148C112.119 19.9573 112.323 19.7147 112.461 19.42C112.609 19.1167 112.682 18.7873 112.682 18.432V14.87H114.073V21.5H112.76V20.603H112.682C112.492 20.915 112.206 21.1793 111.824 21.396C111.452 21.604 111.04 21.708 110.589 21.708Z" fill="white"/>
<path d="M76.14 41.772C75.2673 41.772 74.4457 41.6133 73.675 41.296C72.9157 40.9787 72.2413 40.5367 71.652 39.97C71.0627 39.392 70.598 38.7177 70.258 37.947C69.9293 37.165 69.765 36.3207 69.765 35.414C69.765 34.5073 69.9293 33.6687 70.258 32.898C70.598 32.116 71.057 31.4417 71.635 30.875C72.2243 30.297 72.9043 29.8493 73.675 29.532C74.4457 29.2147 75.2673 29.056 76.14 29.056C77.0693 29.056 77.925 29.2203 78.707 29.549C79.5003 29.8777 80.1633 30.3367 80.696 30.926L79.404 32.201C79.0073 31.759 78.5313 31.419 77.976 31.181C77.432 30.943 76.82 30.824 76.14 30.824C75.3353 30.824 74.593 31.0167 73.913 31.402C73.233 31.776 72.6833 32.3087 72.264 33C71.856 33.68 71.652 34.4847 71.652 35.414C71.652 36.3433 71.8617 37.1537 72.281 37.845C72.7003 38.525 73.25 39.0577 73.93 39.443C74.61 39.817 75.3523 40.004 76.157 40.004C76.8937 40.004 77.5623 39.868 78.163 39.596C78.7637 39.3127 79.2453 38.916 79.608 38.406C79.982 37.896 80.2087 37.284 80.288 36.57H76.123V34.921H82.039C82.107 35.227 82.141 35.55 82.141 35.89V35.907C82.141 37.0857 81.8803 38.117 81.359 39.001C80.849 39.8737 80.1407 40.5537 79.234 41.041C78.3273 41.5283 77.296 41.772 76.14 41.772ZM87.6149 41.772C86.7195 41.772 85.9319 41.568 85.2519 41.16C84.5719 40.752 84.0392 40.2023 83.6539 39.511C83.2685 38.8197 83.0759 38.0377 83.0759 37.165C83.0759 36.3037 83.2685 35.5273 83.6539 34.836C84.0392 34.1333 84.5719 33.578 85.2519 33.17C85.9319 32.762 86.7195 32.558 87.6149 32.558C88.4989 32.558 89.2809 32.762 89.9609 33.17C90.6409 33.578 91.1735 34.1333 91.5589 34.836C91.9442 35.5273 92.1369 36.3037 92.1369 37.165C92.1369 38.0377 91.9442 38.8197 91.5589 39.511C91.1735 40.2023 90.6409 40.752 89.9609 41.16C89.2809 41.568 88.4989 41.772 87.6149 41.772ZM87.6149 40.089C88.0909 40.089 88.5329 39.9757 88.9409 39.749C89.3489 39.511 89.6775 39.1767 89.9269 38.746C90.1875 38.304 90.3179 37.777 90.3179 37.165C90.3179 36.553 90.1875 36.0317 89.9269 35.601C89.6775 35.159 89.3489 34.8247 88.9409 34.598C88.5329 34.36 88.0909 34.241 87.6149 34.241C87.1389 34.241 86.6912 34.36 86.2719 34.598C85.8639 34.8247 85.5295 35.159 85.2689 35.601C85.0195 36.0317 84.8949 36.553 84.8949 37.165C84.8949 37.777 85.0195 38.304 85.2689 38.746C85.5295 39.1767 85.8639 39.511 86.2719 39.749C86.6912 39.9757 87.1389 40.089 87.6149 40.089ZM97.9078 41.772C97.0125 41.772 96.2248 41.568 95.5448 41.16C94.8648 40.752 94.3322 40.2023 93.9468 39.511C93.5615 38.8197 93.3688 38.0377 93.3688 37.165C93.3688 36.3037 93.5615 35.5273 93.9468 34.836C94.3322 34.1333 94.8648 33.578 95.5448 33.17C96.2248 32.762 97.0125 32.558 97.9078 32.558C98.7918 32.558 99.5738 32.762 100.254 33.17C100.934 33.578 101.467 34.1333 101.852 34.836C102.237 35.5273 102.43 36.3037 102.43 37.165C102.43 38.0377 102.237 38.8197 101.852 39.511C101.467 40.2023 100.934 40.752 100.254 41.16C99.5738 41.568 98.7918 41.772 97.9078 41.772ZM97.9078 40.089C98.3838 40.089 98.8258 39.9757 99.2338 39.749C99.6418 39.511 99.9705 39.1767 100.22 38.746C100.481 38.304 100.611 37.777 100.611 37.165C100.611 36.553 100.481 36.0317 100.22 35.601C99.9705 35.159 99.6418 34.8247 99.2338 34.598C98.8258 34.36 98.3838 34.241 97.9078 34.241C97.4318 34.241 96.9842 34.36 96.5648 34.598C96.1568 34.8247 95.8225 35.159 95.5618 35.601C95.3125 36.0317 95.1878 36.553 95.1878 37.165C95.1878 37.777 95.3125 38.304 95.5618 38.746C95.8225 39.1767 96.1568 39.511 96.5648 39.749C96.9842 39.9757 97.4318 40.089 97.9078 40.089ZM108.031 45.444C107.271 45.444 106.614 45.3193 106.059 45.07C105.515 44.832 105.073 44.5203 104.733 44.135C104.393 43.761 104.149 43.3757 104.002 42.979L105.702 42.265C105.883 42.7183 106.172 43.0867 106.569 43.37C106.977 43.6647 107.464 43.812 108.031 43.812C108.824 43.812 109.447 43.574 109.901 43.098C110.365 42.622 110.598 41.9477 110.598 41.075V40.242H110.496C110.224 40.65 109.844 40.9787 109.357 41.228C108.881 41.466 108.337 41.585 107.725 41.585C106.988 41.585 106.314 41.398 105.702 41.024C105.09 40.65 104.597 40.1287 104.223 39.46C103.849 38.78 103.662 37.9867 103.662 37.08C103.662 36.162 103.849 35.3687 104.223 34.7C104.597 34.02 105.09 33.493 105.702 33.119C106.314 32.745 106.988 32.558 107.725 32.558C108.337 32.558 108.881 32.6827 109.357 32.932C109.844 33.1813 110.224 33.51 110.496 33.918H110.598V32.83H112.349V41.041C112.349 41.9817 112.162 42.7807 111.788 43.438C111.425 44.0953 110.921 44.594 110.275 44.934C109.629 45.274 108.881 45.444 108.031 45.444ZM108.048 39.919C108.501 39.919 108.92 39.8113 109.306 39.596C109.691 39.3693 110.003 39.0463 110.241 38.627C110.479 38.1963 110.598 37.6807 110.598 37.08C110.598 36.4567 110.479 35.9353 110.241 35.516C110.003 35.0853 109.691 34.7623 109.306 34.547C108.92 34.3317 108.501 34.224 108.048 34.224C107.594 34.224 107.169 34.3373 106.773 34.564C106.387 34.7793 106.076 35.0967 105.838 35.516C105.6 35.9353 105.481 36.4567 105.481 37.08C105.481 37.692 105.6 38.2133 105.838 38.644C106.076 39.0633 106.387 39.3807 106.773 39.596C107.169 39.8113 107.594 39.919 108.048 39.919ZM114.514 41.5V29.328H116.35V41.5H114.514ZM122.392 41.772C121.542 41.772 120.783 41.5737 120.114 41.177C119.446 40.7803 118.919 40.2363 118.533 39.545C118.159 38.8537 117.972 38.066 117.972 37.182C117.972 36.3547 118.154 35.5897 118.516 34.887C118.879 34.1843 119.383 33.6233 120.029 33.204C120.687 32.7733 121.44 32.558 122.29 32.558C123.186 32.558 123.945 32.7507 124.568 33.136C125.203 33.5213 125.685 34.0483 126.013 34.717C126.342 35.3857 126.506 36.1393 126.506 36.978C126.506 37.1027 126.501 37.216 126.489 37.318C126.489 37.42 126.484 37.4993 126.472 37.556H119.774C119.865 38.4173 120.165 39.0633 120.675 39.494C121.197 39.9247 121.786 40.14 122.443 40.14C123.033 40.14 123.52 40.0097 123.905 39.749C124.291 39.477 124.597 39.1427 124.823 38.746L126.336 39.477C125.962 40.157 125.452 40.7123 124.806 41.143C124.16 41.5623 123.356 41.772 122.392 41.772ZM122.307 34.122C121.695 34.122 121.174 34.309 120.743 34.683C120.313 35.057 120.024 35.5557 119.876 36.179H124.687C124.665 35.8843 124.568 35.5783 124.398 35.261C124.228 34.9437 123.968 34.6773 123.616 34.462C123.276 34.2353 122.84 34.122 122.307 34.122ZM133.979 41.5L130.715 29.328H132.789L134.727 37.233L134.931 38.287H135.033L135.288 37.233L137.736 29.328H139.606L141.952 37.233L142.207 38.27H142.309L142.513 37.233L144.451 29.328H146.508L143.295 41.5H141.323L138.994 33.425L138.722 32.286H138.62L138.331 33.425L135.9 41.5H133.979ZM149.922 41.772C149.299 41.772 148.743 41.653 148.256 41.415C147.769 41.1657 147.389 40.82 147.117 40.378C146.845 39.936 146.709 39.4317 146.709 38.865C146.709 38.253 146.868 37.7317 147.185 37.301C147.514 36.859 147.95 36.5247 148.494 36.298C149.038 36.0713 149.639 35.958 150.296 35.958C150.84 35.958 151.316 36.009 151.724 36.111C152.143 36.213 152.461 36.3207 152.676 36.434V35.975C152.676 35.4083 152.472 34.955 152.064 34.615C151.656 34.275 151.129 34.105 150.483 34.105C150.041 34.105 149.622 34.207 149.225 34.411C148.828 34.6037 148.511 34.87 148.273 35.21L147.015 34.241C147.389 33.7197 147.882 33.3117 148.494 33.017C149.117 32.711 149.797 32.558 150.534 32.558C151.792 32.558 152.761 32.8697 153.441 33.493C154.121 34.105 154.461 34.9663 154.461 36.077V41.5H152.676V40.429H152.574C152.347 40.7803 152.007 41.092 151.554 41.364C151.101 41.636 150.557 41.772 149.922 41.772ZM150.245 40.276C150.721 40.276 151.14 40.1627 151.503 39.936C151.866 39.7093 152.149 39.4147 152.353 39.052C152.568 38.678 152.676 38.2757 152.676 37.845C152.415 37.6977 152.109 37.5787 151.758 37.488C151.407 37.386 151.033 37.335 150.636 37.335C149.888 37.335 149.355 37.488 149.038 37.794C148.721 38.0887 148.562 38.4513 148.562 38.882C148.562 39.29 148.715 39.6243 149.021 39.885C149.327 40.1457 149.735 40.276 150.245 40.276ZM156.499 41.5V29.328H158.335V41.5H156.499ZM160.517 41.5V29.328H162.353V41.5H160.517ZM168.395 41.772C167.545 41.772 166.786 41.5737 166.117 41.177C165.449 40.7803 164.922 40.2363 164.536 39.545C164.162 38.8537 163.975 38.066 163.975 37.182C163.975 36.3547 164.157 35.5897 164.519 34.887C164.882 34.1843 165.386 33.6233 166.032 33.204C166.69 32.7733 167.443 32.558 168.293 32.558C169.189 32.558 169.948 32.7507 170.571 33.136C171.206 33.5213 171.688 34.0483 172.016 34.717C172.345 35.3857 172.509 36.1393 172.509 36.978C172.509 37.1027 172.504 37.216 172.492 37.318C172.492 37.42 172.487 37.4993 172.475 37.556H165.777C165.868 38.4173 166.168 39.0633 166.678 39.494C167.2 39.9247 167.789 40.14 168.446 40.14C169.036 40.14 169.523 40.0097 169.908 39.749C170.294 39.477 170.6 39.1427 170.826 38.746L172.339 39.477C171.965 40.157 171.455 40.7123 170.809 41.143C170.163 41.5623 169.359 41.772 168.395 41.772ZM168.31 34.122C167.698 34.122 167.177 34.309 166.746 34.683C166.316 35.057 166.027 35.5557 165.879 36.179H170.69C170.668 35.8843 170.571 35.5783 170.401 35.261C170.231 34.9437 169.971 34.6773 169.619 34.462C169.279 34.2353 168.843 34.122 168.31 34.122ZM174.882 38.984V34.428H173.369V32.83H174.882V30.382H176.718V32.83H178.843V34.428H176.718V38.593C176.718 39.0237 176.803 39.3523 176.973 39.579C177.154 39.8057 177.454 39.919 177.874 39.919C178.089 39.919 178.27 39.8907 178.418 39.834C178.576 39.7773 178.735 39.698 178.894 39.596V41.381C178.701 41.4603 178.497 41.5227 178.282 41.568C178.066 41.6133 177.811 41.636 177.517 41.636C176.712 41.636 176.072 41.4037 175.596 40.939C175.12 40.463 174.882 39.8113 174.882 38.984Z" fill="white"/>
<rect x="0.5" y="0.5" width="198" height="54" rx="27" stroke="#747775"/>
<defs>
<linearGradient id="paint0_linear_1819_24035" x1="37.2843" y1="34.0448" x2="18.7823" y2="55.7227" gradientUnits="userSpaceOnUse">
<stop stop-color="#4285F4"/>
<stop offset="1" stop-color="#1B74E8"/>
</linearGradient>
</defs>
</svg>
