<svg width="199" height="55" viewBox="0 0 199 55" fill="none" xmlns="http://www.w3.org/2000/svg">
<rect x="0.5" y="0.5" width="198" height="54" rx="27" fill="#1F1F1F"/>
<path d="M57 23.791H21V18.1456C21 15.0809 23.6422 12.5001 26.7798 12.5001H51.2202C54.3578 12.5001 57 15.0809 57 18.1456V23.791Z" fill="#34A853"/>
<path d="M57 29H21V23C21 19.7429 23.6422 17 26.7798 17H51.2202C54.3578 17 57 19.7429 57 23V29Z" fill="#FBBC04"/>
<path d="M57 34H21V28C21 24.7429 23.6422 22 26.7798 22H51.2202C54.3578 22 57 24.7429 57 28V34Z" fill="#EA4335"/>
<path d="M21 25.2409L43.8493 30.4025C46.4795 31.0477 49.4384 30.4025 51.5753 28.7895L57 24.9183V37.0157C57 40.0804 54.3699 42.4999 51.2466 42.4999H26.7534C23.6301 42.4999 21 40.0804 21 37.0157V25.2409Z" fill="url(#paint0_linear_1819_25004)"/>
<path d="M73.381 21.708C72.6877 21.708 72.0767 21.552 71.548 21.24C71.028 20.928 70.6207 20.4903 70.326 19.927C70.0313 19.3637 69.884 18.6963 69.884 17.925V12.192H71.301V18.003C71.301 18.679 71.4787 19.2423 71.834 19.693C72.1893 20.135 72.7137 20.356 73.407 20.356C74.057 20.356 74.5683 20.1523 74.941 19.745C75.3137 19.3377 75.5 18.757 75.5 18.003V12.192H76.917L76.93 17.886C76.93 18.5013 76.826 19.0603 76.618 19.563L78.217 20.59L77.515 21.682L75.929 20.668C75.617 20.9973 75.2443 21.253 74.811 21.435C74.3777 21.617 73.901 21.708 73.381 21.708ZM83.3908 24.581V21.539L83.4688 20.642H83.3908C83.2001 20.9453 82.9228 21.201 82.5588 21.409C82.1948 21.6083 81.7961 21.708 81.3628 21.708C80.5741 21.708 79.9805 21.4697 79.5818 20.993C79.1831 20.5077 78.9838 19.8577 78.9838 19.043V15.078H80.3878V18.848C80.3878 19.3853 80.5135 19.784 80.7648 20.044C81.0161 20.2953 81.3281 20.421 81.7008 20.421C82.0475 20.421 82.3465 20.3343 82.5978 20.161C82.8491 19.979 83.0441 19.745 83.1828 19.459C83.3215 19.1643 83.3908 18.8437 83.3908 18.497V12.192H84.7818V23.359H86.9268V24.581H83.3908ZM88.7756 21.708C88.013 21.708 87.4323 21.4697 87.0336 20.993C86.6436 20.5077 86.4486 19.8577 86.4486 19.043V12.192H87.8526V15.078H92.1556V16.3H87.8526V18.848C87.8526 19.3853 87.974 19.784 88.2166 20.044C88.4593 20.2953 88.7583 20.421 89.1136 20.421C89.4516 20.421 89.742 20.3343 89.9846 20.161C90.2273 19.979 90.4136 19.745 90.5436 19.459C90.6823 19.1643 90.7516 18.8437 90.7516 18.497V17.769H92.1426V21.5H90.8296V20.642H90.7516C90.5696 20.9453 90.301 21.201 89.9456 21.409C89.5903 21.6083 89.2003 21.708 88.7756 21.708ZM93.7878 24.581V15.078H95.1918V23.359H97.9218V24.581H93.7878ZM99.0078 21.708C98.2278 21.708 97.6471 21.474 97.2658 21.006C96.8844 20.5293 96.6938 19.901 96.6938 19.121V15.078H98.0848V18.887C98.0848 19.4157 98.1974 19.8057 98.4228 20.057C98.6568 20.2997 98.9774 20.421 99.3848 20.421C99.7054 20.421 99.9871 20.3343 100.23 20.161C100.472 19.979 100.659 19.7363 100.789 19.433C100.927 19.1297 100.997 18.7917 100.997 18.419V15.078H102.401V18.887C102.401 19.4157 102.513 19.8057 102.739 20.057C102.973 20.2997 103.302 20.421 103.727 20.421C104.039 20.421 104.312 20.33 104.546 20.148C104.788 19.966 104.975 19.7233 105.105 19.42C105.235 19.1167 105.3 18.7787 105.3 18.406V15.078H106.704V21.5H105.378V20.59H105.3C105.109 20.9107 104.832 21.1793 104.468 21.396C104.104 21.604 103.701 21.708 103.259 21.708C102.765 21.708 102.344 21.591 101.998 21.357C101.651 21.123 101.404 20.8283 101.257 20.473C101.049 20.8197 100.754 21.1143 100.373 21.357C100 21.591 99.5451 21.708 99.0078 21.708ZM111.172 24.789C110.609 24.789 110.119 24.698 109.703 24.516C109.296 24.334 108.962 24.1 108.702 23.814C108.451 23.5367 108.273 23.2507 108.169 22.956L109.469 22.41C109.599 22.7393 109.811 23.0123 110.106 23.229C110.409 23.4457 110.765 23.554 111.172 23.554C111.744 23.554 112.199 23.3763 112.537 23.021C112.884 22.6743 113.057 22.1803 113.057 21.539V20.694H112.979C112.771 20.9973 112.489 21.24 112.134 21.422C111.787 21.604 111.389 21.695 110.938 21.695C110.401 21.695 109.902 21.5563 109.443 21.279C108.984 20.993 108.615 20.5943 108.338 20.083C108.061 19.5717 107.922 18.9737 107.922 18.289C107.922 17.6043 108.061 17.0063 108.338 16.495C108.615 15.975 108.984 15.5763 109.443 15.299C109.902 15.013 110.401 14.87 110.938 14.87C111.389 14.87 111.787 14.9653 112.134 15.156C112.489 15.3467 112.767 15.5937 112.966 15.897H113.044V15.065H114.383V21.513C114.383 22.2063 114.249 22.7957 113.98 23.281C113.711 23.775 113.334 24.1477 112.849 24.399C112.364 24.659 111.805 24.789 111.172 24.789ZM111.185 20.434C111.514 20.434 111.818 20.3517 112.095 20.187C112.381 20.0137 112.611 19.7667 112.784 19.446C112.966 19.1253 113.057 18.7397 113.057 18.289C113.057 17.821 112.966 17.4267 112.784 17.106C112.611 16.7853 112.381 16.5427 112.095 16.378C111.818 16.2133 111.514 16.131 111.185 16.131C110.856 16.131 110.548 16.2177 110.262 16.391C109.976 16.5557 109.746 16.7983 109.573 17.119C109.4 17.4397 109.313 17.8297 109.313 18.289C109.313 18.7483 109.4 19.1383 109.573 19.459C109.746 19.771 109.976 20.0137 110.262 20.187C110.548 20.3517 110.856 20.434 111.185 20.434ZM118.344 21.708C117.556 21.708 116.962 21.4697 116.563 20.993C116.165 20.5077 115.965 19.8577 115.965 19.043V13.414H114.665V12.192H117.369V18.848C117.369 19.3853 117.495 19.784 117.746 20.044C117.998 20.2953 118.31 20.421 118.682 20.421C119.029 20.421 119.328 20.3343 119.579 20.161C119.831 19.979 120.026 19.745 120.164 19.459C120.303 19.1643 120.372 18.8437 120.372 18.497V15.078H121.763V21.5H120.45V20.642H120.372C120.182 20.9453 119.904 21.201 119.54 21.409C119.176 21.6083 118.778 21.708 118.344 21.708ZM125.694 21.708C124.931 21.708 124.35 21.4697 123.952 20.993C123.562 20.5077 123.367 19.8577 123.367 19.043V12.192H124.771V15.078H129.074V16.3H124.771V18.848C124.771 19.3853 124.892 19.784 125.135 20.044C125.377 20.2953 125.676 20.421 126.032 20.421C126.37 20.421 126.66 20.3343 126.903 20.161C127.145 19.979 127.332 19.745 127.462 19.459C127.6 19.1643 127.67 18.8437 127.67 18.497V17.769H129.061V21.5H127.748V20.642H127.67C127.488 20.9453 127.219 21.201 126.864 21.409C126.508 21.6083 126.118 21.708 125.694 21.708ZM130.706 24.581V15.078H132.11V23.359H133.93V24.581H130.706Z" fill="white"/>
<path d="M76.14 41.772C75.2673 41.772 74.4457 41.6133 73.675 41.296C72.9157 40.9787 72.2413 40.5367 71.652 39.97C71.0627 39.392 70.598 38.7177 70.258 37.947C69.9293 37.165 69.765 36.3207 69.765 35.414C69.765 34.5073 69.9293 33.6687 70.258 32.898C70.598 32.116 71.057 31.4417 71.635 30.875C72.2243 30.297 72.9043 29.8493 73.675 29.532C74.4457 29.2147 75.2673 29.056 76.14 29.056C77.0693 29.056 77.925 29.2203 78.707 29.549C79.5003 29.8777 80.1633 30.3367 80.696 30.926L79.404 32.201C79.0073 31.759 78.5313 31.419 77.976 31.181C77.432 30.943 76.82 30.824 76.14 30.824C75.3353 30.824 74.593 31.0167 73.913 31.402C73.233 31.776 72.6833 32.3087 72.264 33C71.856 33.68 71.652 34.4847 71.652 35.414C71.652 36.3433 71.8617 37.1537 72.281 37.845C72.7003 38.525 73.25 39.0577 73.93 39.443C74.61 39.817 75.3523 40.004 76.157 40.004C76.8937 40.004 77.5623 39.868 78.163 39.596C78.7637 39.3127 79.2453 38.916 79.608 38.406C79.982 37.896 80.2087 37.284 80.288 36.57H76.123V34.921H82.039C82.107 35.227 82.141 35.55 82.141 35.89V35.907C82.141 37.0857 81.8803 38.117 81.359 39.001C80.849 39.8737 80.1407 40.5537 79.234 41.041C78.3273 41.5283 77.296 41.772 76.14 41.772ZM87.6149 41.772C86.7195 41.772 85.9319 41.568 85.2519 41.16C84.5719 40.752 84.0392 40.2023 83.6539 39.511C83.2685 38.8197 83.0759 38.0377 83.0759 37.165C83.0759 36.3037 83.2685 35.5273 83.6539 34.836C84.0392 34.1333 84.5719 33.578 85.2519 33.17C85.9319 32.762 86.7195 32.558 87.6149 32.558C88.4989 32.558 89.2809 32.762 89.9609 33.17C90.6409 33.578 91.1735 34.1333 91.5589 34.836C91.9442 35.5273 92.1369 36.3037 92.1369 37.165C92.1369 38.0377 91.9442 38.8197 91.5589 39.511C91.1735 40.2023 90.6409 40.752 89.9609 41.16C89.2809 41.568 88.4989 41.772 87.6149 41.772ZM87.6149 40.089C88.0909 40.089 88.5329 39.9757 88.9409 39.749C89.3489 39.511 89.6775 39.1767 89.9269 38.746C90.1875 38.304 90.3179 37.777 90.3179 37.165C90.3179 36.553 90.1875 36.0317 89.9269 35.601C89.6775 35.159 89.3489 34.8247 88.9409 34.598C88.5329 34.36 88.0909 34.241 87.6149 34.241C87.1389 34.241 86.6912 34.36 86.2719 34.598C85.8639 34.8247 85.5295 35.159 85.2689 35.601C85.0195 36.0317 84.8949 36.553 84.8949 37.165C84.8949 37.777 85.0195 38.304 85.2689 38.746C85.5295 39.1767 85.8639 39.511 86.2719 39.749C86.6912 39.9757 87.1389 40.089 87.6149 40.089ZM97.9078 41.772C97.0125 41.772 96.2248 41.568 95.5448 41.16C94.8648 40.752 94.3322 40.2023 93.9468 39.511C93.5615 38.8197 93.3688 38.0377 93.3688 37.165C93.3688 36.3037 93.5615 35.5273 93.9468 34.836C94.3322 34.1333 94.8648 33.578 95.5448 33.17C96.2248 32.762 97.0125 32.558 97.9078 32.558C98.7918 32.558 99.5738 32.762 100.254 33.17C100.934 33.578 101.467 34.1333 101.852 34.836C102.237 35.5273 102.43 36.3037 102.43 37.165C102.43 38.0377 102.237 38.8197 101.852 39.511C101.467 40.2023 100.934 40.752 100.254 41.16C99.5738 41.568 98.7918 41.772 97.9078 41.772ZM97.9078 40.089C98.3838 40.089 98.8258 39.9757 99.2338 39.749C99.6418 39.511 99.9705 39.1767 100.22 38.746C100.481 38.304 100.611 37.777 100.611 37.165C100.611 36.553 100.481 36.0317 100.22 35.601C99.9705 35.159 99.6418 34.8247 99.2338 34.598C98.8258 34.36 98.3838 34.241 97.9078 34.241C97.4318 34.241 96.9842 34.36 96.5648 34.598C96.1568 34.8247 95.8225 35.159 95.5618 35.601C95.3125 36.0317 95.1878 36.553 95.1878 37.165C95.1878 37.777 95.3125 38.304 95.5618 38.746C95.8225 39.1767 96.1568 39.511 96.5648 39.749C96.9842 39.9757 97.4318 40.089 97.9078 40.089ZM108.031 45.444C107.271 45.444 106.614 45.3193 106.059 45.07C105.515 44.832 105.073 44.5203 104.733 44.135C104.393 43.761 104.149 43.3757 104.002 42.979L105.702 42.265C105.883 42.7183 106.172 43.0867 106.569 43.37C106.977 43.6647 107.464 43.812 108.031 43.812C108.824 43.812 109.447 43.574 109.901 43.098C110.365 42.622 110.598 41.9477 110.598 41.075V40.242H110.496C110.224 40.65 109.844 40.9787 109.357 41.228C108.881 41.466 108.337 41.585 107.725 41.585C106.988 41.585 106.314 41.398 105.702 41.024C105.09 40.65 104.597 40.1287 104.223 39.46C103.849 38.78 103.662 37.9867 103.662 37.08C103.662 36.162 103.849 35.3687 104.223 34.7C104.597 34.02 105.09 33.493 105.702 33.119C106.314 32.745 106.988 32.558 107.725 32.558C108.337 32.558 108.881 32.6827 109.357 32.932C109.844 33.1813 110.224 33.51 110.496 33.918H110.598V32.83H112.349V41.041C112.349 41.9817 112.162 42.7807 111.788 43.438C111.425 44.0953 110.921 44.594 110.275 44.934C109.629 45.274 108.881 45.444 108.031 45.444ZM108.048 39.919C108.501 39.919 108.92 39.8113 109.306 39.596C109.691 39.3693 110.003 39.0463 110.241 38.627C110.479 38.1963 110.598 37.6807 110.598 37.08C110.598 36.4567 110.479 35.9353 110.241 35.516C110.003 35.0853 109.691 34.7623 109.306 34.547C108.92 34.3317 108.501 34.224 108.048 34.224C107.594 34.224 107.169 34.3373 106.773 34.564C106.387 34.7793 106.076 35.0967 105.838 35.516C105.6 35.9353 105.481 36.4567 105.481 37.08C105.481 37.692 105.6 38.2133 105.838 38.644C106.076 39.0633 106.387 39.3807 106.773 39.596C107.169 39.8113 107.594 39.919 108.048 39.919ZM114.514 41.5V29.328H116.35V41.5H114.514ZM122.392 41.772C121.542 41.772 120.783 41.5737 120.114 41.177C119.446 40.7803 118.919 40.2363 118.533 39.545C118.159 38.8537 117.972 38.066 117.972 37.182C117.972 36.3547 118.154 35.5897 118.516 34.887C118.879 34.1843 119.383 33.6233 120.029 33.204C120.687 32.7733 121.44 32.558 122.29 32.558C123.186 32.558 123.945 32.7507 124.568 33.136C125.203 33.5213 125.685 34.0483 126.013 34.717C126.342 35.3857 126.506 36.1393 126.506 36.978C126.506 37.1027 126.501 37.216 126.489 37.318C126.489 37.42 126.484 37.4993 126.472 37.556H119.774C119.865 38.4173 120.165 39.0633 120.675 39.494C121.197 39.9247 121.786 40.14 122.443 40.14C123.033 40.14 123.52 40.0097 123.905 39.749C124.291 39.477 124.597 39.1427 124.823 38.746L126.336 39.477C125.962 40.157 125.452 40.7123 124.806 41.143C124.16 41.5623 123.356 41.772 122.392 41.772ZM122.307 34.122C121.695 34.122 121.174 34.309 120.743 34.683C120.313 35.057 120.024 35.5557 119.876 36.179H124.687C124.665 35.8843 124.568 35.5783 124.398 35.261C124.228 34.9437 123.968 34.6773 123.616 34.462C123.276 34.2353 122.84 34.122 122.307 34.122ZM133.979 41.5L130.715 29.328H132.789L134.727 37.233L134.931 38.287H135.033L135.288 37.233L137.736 29.328H139.606L141.952 37.233L142.207 38.27H142.309L142.513 37.233L144.451 29.328H146.508L143.295 41.5H141.323L138.994 33.425L138.722 32.286H138.62L138.331 33.425L135.9 41.5H133.979ZM149.922 41.772C149.299 41.772 148.743 41.653 148.256 41.415C147.769 41.1657 147.389 40.82 147.117 40.378C146.845 39.936 146.709 39.4317 146.709 38.865C146.709 38.253 146.868 37.7317 147.185 37.301C147.514 36.859 147.95 36.5247 148.494 36.298C149.038 36.0713 149.639 35.958 150.296 35.958C150.84 35.958 151.316 36.009 151.724 36.111C152.143 36.213 152.461 36.3207 152.676 36.434V35.975C152.676 35.4083 152.472 34.955 152.064 34.615C151.656 34.275 151.129 34.105 150.483 34.105C150.041 34.105 149.622 34.207 149.225 34.411C148.828 34.6037 148.511 34.87 148.273 35.21L147.015 34.241C147.389 33.7197 147.882 33.3117 148.494 33.017C149.117 32.711 149.797 32.558 150.534 32.558C151.792 32.558 152.761 32.8697 153.441 33.493C154.121 34.105 154.461 34.9663 154.461 36.077V41.5H152.676V40.429H152.574C152.347 40.7803 152.007 41.092 151.554 41.364C151.101 41.636 150.557 41.772 149.922 41.772ZM150.245 40.276C150.721 40.276 151.14 40.1627 151.503 39.936C151.866 39.7093 152.149 39.4147 152.353 39.052C152.568 38.678 152.676 38.2757 152.676 37.845C152.415 37.6977 152.109 37.5787 151.758 37.488C151.407 37.386 151.033 37.335 150.636 37.335C149.888 37.335 149.355 37.488 149.038 37.794C148.721 38.0887 148.562 38.4513 148.562 38.882C148.562 39.29 148.715 39.6243 149.021 39.885C149.327 40.1457 149.735 40.276 150.245 40.276ZM156.499 41.5V29.328H158.335V41.5H156.499ZM160.517 41.5V29.328H162.353V41.5H160.517ZM168.395 41.772C167.545 41.772 166.786 41.5737 166.117 41.177C165.449 40.7803 164.922 40.2363 164.536 39.545C164.162 38.8537 163.975 38.066 163.975 37.182C163.975 36.3547 164.157 35.5897 164.519 34.887C164.882 34.1843 165.386 33.6233 166.032 33.204C166.69 32.7733 167.443 32.558 168.293 32.558C169.189 32.558 169.948 32.7507 170.571 33.136C171.206 33.5213 171.688 34.0483 172.016 34.717C172.345 35.3857 172.509 36.1393 172.509 36.978C172.509 37.1027 172.504 37.216 172.492 37.318C172.492 37.42 172.487 37.4993 172.475 37.556H165.777C165.868 38.4173 166.168 39.0633 166.678 39.494C167.2 39.9247 167.789 40.14 168.446 40.14C169.036 40.14 169.523 40.0097 169.908 39.749C170.294 39.477 170.6 39.1427 170.826 38.746L172.339 39.477C171.965 40.157 171.455 40.7123 170.809 41.143C170.163 41.5623 169.359 41.772 168.395 41.772ZM168.31 34.122C167.698 34.122 167.177 34.309 166.746 34.683C166.316 35.057 166.027 35.5557 165.879 36.179H170.69C170.668 35.8843 170.571 35.5783 170.401 35.261C170.231 34.9437 169.971 34.6773 169.619 34.462C169.279 34.2353 168.843 34.122 168.31 34.122ZM174.882 38.984V34.428H173.369V32.83H174.882V30.382H176.718V32.83H178.843V34.428H176.718V38.593C176.718 39.0237 176.803 39.3523 176.973 39.579C177.154 39.8057 177.454 39.919 177.874 39.919C178.089 39.919 178.27 39.8907 178.418 39.834C178.576 39.7773 178.735 39.698 178.894 39.596V41.381C178.701 41.4603 178.497 41.5227 178.282 41.568C178.066 41.6133 177.811 41.636 177.517 41.636C176.712 41.636 176.072 41.4037 175.596 40.939C175.12 40.463 174.882 39.8113 174.882 38.984Z" fill="white"/>
<rect x="0.5" y="0.5" width="198" height="54" rx="27" stroke="#747775"/>
<defs>
<linearGradient id="paint0_linear_1819_25004" x1="37.2843" y1="34.0448" x2="18.7823" y2="55.7227" gradientUnits="userSpaceOnUse">
<stop stop-color="#4285F4"/>
<stop offset="1" stop-color="#1B74E8"/>
</linearGradient>
</defs>
</svg>
