<svg width="191" height="55" viewBox="0 0 191 55" fill="none" xmlns="http://www.w3.org/2000/svg">
<rect x="0.5" y="0.5" width="190" height="54" rx="27" fill="#1F1F1F"/>
<path d="M57 23.791H21V18.1456C21 15.0809 23.6422 12.5001 26.7798 12.5001H51.2202C54.3578 12.5001 57 15.0809 57 18.1456V23.791Z" fill="#34A853"/>
<path d="M57 29H21V23C21 19.7429 23.6422 17 26.7798 17H51.2202C54.3578 17 57 19.7429 57 23V29Z" fill="#FBBC04"/>
<path d="M57 34H21V28C21 24.7429 23.6422 22 26.7798 22H51.2202C54.3578 22 57 24.7429 57 28V34Z" fill="#EA4335"/>
<path d="M21 25.2409L43.8493 30.4025C46.4795 31.0477 49.4384 30.4025 51.5753 28.7895L57 24.9183V37.0157C57 40.0804 54.3699 42.4999 51.2466 42.4999H26.7534C23.6301 42.4999 21 40.0804 21 37.0157V25.2409Z" fill="url(#paint0_linear_1819_25023)"/>
<path d="M70.053 21.5V12.192H73.537C74.0397 12.192 74.499 12.3003 74.915 12.517C75.3397 12.7337 75.6733 13.0283 75.916 13.401C76.1673 13.7737 76.293 14.194 76.293 14.662C76.293 15.1387 76.1717 15.546 75.929 15.884C75.695 16.222 75.396 16.4777 75.032 16.651V16.716C75.5 16.8807 75.8813 17.1537 76.176 17.535C76.4707 17.9077 76.618 18.3583 76.618 18.887C76.618 19.407 76.4837 19.8663 76.215 20.265C75.955 20.655 75.5997 20.9583 75.149 21.175C74.707 21.3917 74.2217 21.5 73.693 21.5H70.053ZM73.524 13.505H71.483V16.105H73.472C73.9227 16.105 74.2737 15.9707 74.525 15.702C74.7763 15.4247 74.902 15.1213 74.902 14.792C74.902 14.4713 74.7807 14.1767 74.538 13.908C74.2953 13.6393 73.9573 13.505 73.524 13.505ZM71.483 20.174H73.693C74.161 20.174 74.525 20.0353 74.785 19.758C75.0537 19.472 75.188 19.147 75.188 18.783C75.188 18.419 75.0537 18.094 74.785 17.808C74.5163 17.522 74.135 17.379 73.641 17.379H71.483V20.174ZM80.1017 21.708C79.599 21.708 79.157 21.617 78.7757 21.435C78.403 21.2443 78.1084 20.98 77.8917 20.642C77.6837 20.304 77.5797 19.9183 77.5797 19.485C77.5797 19.017 77.701 18.6183 77.9437 18.289C78.195 17.951 78.5287 17.6953 78.9447 17.522C79.3607 17.3487 79.82 17.262 80.3227 17.262C80.7387 17.262 81.0984 17.301 81.4017 17.379C81.7137 17.457 81.9564 17.5437 82.1297 17.639V17.314C82.1297 16.8633 81.9824 16.508 81.6877 16.248C81.4017 15.9793 81.0117 15.845 80.5177 15.845C80.1797 15.845 79.8894 15.923 79.6467 16.079C79.404 16.235 79.222 16.4387 79.1007 16.69L77.9957 16.17C78.221 15.6847 78.5634 15.312 79.0227 15.052C79.482 14.792 79.9847 14.662 80.5307 14.662C81.1287 14.662 81.6314 14.766 82.0387 14.974C82.4547 15.1733 82.784 15.4593 83.0267 15.832C83.2954 15.468 83.629 15.1863 84.0277 14.987C84.435 14.779 84.89 14.675 85.3927 14.675C86.0774 14.675 86.658 14.8223 87.1347 15.117C87.62 15.4117 87.9884 15.8147 88.2397 16.326C88.491 16.8287 88.6167 17.4007 88.6167 18.042C88.6167 18.1373 88.6124 18.224 88.6037 18.302C88.6037 18.38 88.5994 18.4407 88.5907 18.484H83.4817C83.5337 18.9693 83.6594 19.355 83.8587 19.641C84.0667 19.927 84.318 20.135 84.6127 20.265C84.9074 20.395 85.2107 20.46 85.5227 20.46C85.9647 20.46 86.333 20.3603 86.6277 20.161C86.9224 19.953 87.1564 19.6973 87.3297 19.394L88.4867 19.953C88.2007 20.473 87.8107 20.8977 87.3167 21.227C86.8227 21.5477 86.2117 21.708 85.4837 21.708C84.8597 21.708 84.3137 21.565 83.8457 21.279C83.3777 20.993 83.0094 20.6247 82.7407 20.174C82.3854 20.7113 81.991 21.1013 81.5577 21.344C81.133 21.5867 80.6477 21.708 80.1017 21.708ZM85.4057 15.871C84.9984 15.871 84.6127 15.9923 84.2487 16.235C83.8847 16.4777 83.642 16.8763 83.5207 17.431H87.2127C87.1954 17.2057 87.1217 16.9717 86.9917 16.729C86.8704 16.4863 86.6754 16.2827 86.4067 16.118C86.1467 15.9533 85.813 15.871 85.4057 15.871ZM80.2837 20.564C80.6477 20.564 80.9684 20.4773 81.2457 20.304C81.523 20.1307 81.7397 19.9053 81.8957 19.628C82.0517 19.342 82.1297 19.0343 82.1297 18.705C81.679 18.445 81.1634 18.315 80.5827 18.315C80.0107 18.315 79.6034 18.432 79.3607 18.666C79.118 18.8913 78.9967 19.1687 78.9967 19.498C78.9967 19.81 79.1137 20.0657 79.3477 20.265C79.5817 20.4643 79.8937 20.564 80.2837 20.564ZM90.4273 19.576V16.092H89.2703V14.87H90.4273V12.998H91.8313V14.87H93.4563V16.092H91.8313V19.277C91.8313 19.6063 91.8963 19.8577 92.0263 20.031C92.1649 20.2043 92.3946 20.291 92.7153 20.291C92.8799 20.291 93.0186 20.2693 93.1313 20.226C93.2526 20.1827 93.3739 20.122 93.4953 20.044V21.409C93.3479 21.4697 93.1919 21.5173 93.0273 21.552C92.8626 21.5867 92.6676 21.604 92.4423 21.604C91.8269 21.604 91.3373 21.4263 90.9733 21.071C90.6093 20.707 90.4273 20.2087 90.4273 19.576ZM96.7564 21.708C96.2798 21.708 95.8551 21.617 95.4824 21.435C95.1098 21.2443 94.8194 20.98 94.6114 20.642C94.4034 20.304 94.2994 19.9183 94.2994 19.485C94.2994 19.017 94.4208 18.6183 94.6634 18.289C94.9148 17.951 95.2484 17.6953 95.6644 17.522C96.0804 17.3487 96.5398 17.262 97.0424 17.262C97.4584 17.262 97.8224 17.301 98.1344 17.379C98.4551 17.457 98.6978 17.5393 98.8624 17.626V17.275C98.8624 16.8417 98.7064 16.495 98.3944 16.235C98.0824 15.975 97.6794 15.845 97.1854 15.845C96.8474 15.845 96.5268 15.923 96.2234 16.079C95.9201 16.2263 95.6774 16.43 95.4954 16.69L94.5334 15.949C94.8194 15.5503 95.1964 15.2383 95.6644 15.013C96.1411 14.779 96.6611 14.662 97.2244 14.662C98.1864 14.662 98.9274 14.9003 99.4474 15.377C99.9674 15.845 100.227 16.5037 100.227 17.353V21.5H98.8624V20.681H98.7844C98.6111 20.9497 98.3511 21.188 98.0044 21.396C97.6578 21.604 97.2418 21.708 96.7564 21.708ZM97.0034 20.564C97.3674 20.564 97.6881 20.4773 97.9654 20.304C98.2428 20.1307 98.4594 19.9053 98.6154 19.628C98.7801 19.342 98.8624 19.0343 98.8624 18.705C98.6631 18.5923 98.4291 18.5013 98.1604 18.432C97.8918 18.354 97.6058 18.315 97.3024 18.315C96.7304 18.315 96.3231 18.432 96.0804 18.666C95.8378 18.8913 95.7164 19.1687 95.7164 19.498C95.7164 19.81 95.8334 20.0657 96.0674 20.265C96.3014 20.4643 96.6134 20.564 97.0034 20.564ZM106.822 21.5L104.079 14.87H105.639L107.498 19.693H107.563L109.461 14.87H110.995L108.226 21.5H106.822ZM112.71 13.895C112.45 13.895 112.225 13.804 112.034 13.622C111.852 13.4313 111.761 13.206 111.761 12.946C111.761 12.686 111.852 12.465 112.034 12.283C112.225 12.101 112.45 12.01 112.71 12.01C112.97 12.01 113.191 12.101 113.373 12.283C113.564 12.465 113.659 12.686 113.659 12.946C113.659 13.206 113.564 13.4313 113.373 13.622C113.191 13.804 112.97 13.895 112.71 13.895ZM112.008 21.5V14.87H113.412V21.5H112.008ZM118.157 21.708C117.559 21.708 117.017 21.5607 116.532 21.266C116.047 20.9627 115.657 20.5597 115.362 20.057C115.076 19.5543 114.933 18.9997 114.933 18.393C114.933 17.7603 115.08 17.197 115.375 16.703C115.67 16.209 116.051 15.8233 116.519 15.546C116.987 15.26 117.49 15.117 118.027 15.117C118.408 15.117 118.738 15.1863 119.015 15.325C119.292 15.455 119.5 15.5893 119.639 15.728L119.717 15.676C119.622 15.4073 119.466 15.1517 119.249 14.909C119.041 14.6577 118.794 14.428 118.508 14.22L116.935 14.922L116.545 13.999L117.481 13.583C117.013 13.349 116.567 13.193 116.142 13.115L116.584 12.01C116.974 12.0967 117.36 12.2223 117.741 12.387C118.131 12.543 118.499 12.7423 118.846 12.985L120.159 12.4L120.549 13.31L119.717 13.687C120.228 14.1897 120.644 14.8093 120.965 15.546C121.286 16.2827 121.446 17.145 121.446 18.133C121.446 18.8523 121.303 19.4807 121.017 20.018C120.74 20.5467 120.354 20.9627 119.86 21.266C119.366 21.5607 118.798 21.708 118.157 21.708ZM118.17 20.421C118.525 20.421 118.842 20.3387 119.119 20.174C119.396 20.0007 119.617 19.7623 119.782 19.459C119.955 19.1557 120.042 18.8003 120.042 18.393C120.042 18.003 119.955 17.6563 119.782 17.353C119.617 17.0497 119.396 16.8113 119.119 16.638C118.842 16.4647 118.53 16.378 118.183 16.378C117.836 16.378 117.52 16.4647 117.234 16.638C116.957 16.8027 116.731 17.0367 116.558 17.34C116.393 17.6433 116.311 17.9943 116.311 18.393C116.311 18.8003 116.393 19.1557 116.558 19.459C116.731 19.7623 116.957 20.0007 117.234 20.174C117.52 20.3387 117.832 20.421 118.17 20.421Z" fill="white"/>
<path d="M76.14 41.772C75.2673 41.772 74.4457 41.6133 73.675 41.296C72.9157 40.9787 72.2413 40.5367 71.652 39.97C71.0627 39.392 70.598 38.7177 70.258 37.947C69.9293 37.165 69.765 36.3207 69.765 35.414C69.765 34.5073 69.9293 33.6687 70.258 32.898C70.598 32.116 71.057 31.4417 71.635 30.875C72.2243 30.297 72.9043 29.8493 73.675 29.532C74.4457 29.2147 75.2673 29.056 76.14 29.056C77.0693 29.056 77.925 29.2203 78.707 29.549C79.5003 29.8777 80.1633 30.3367 80.696 30.926L79.404 32.201C79.0073 31.759 78.5313 31.419 77.976 31.181C77.432 30.943 76.82 30.824 76.14 30.824C75.3353 30.824 74.593 31.0167 73.913 31.402C73.233 31.776 72.6833 32.3087 72.264 33C71.856 33.68 71.652 34.4847 71.652 35.414C71.652 36.3433 71.8617 37.1537 72.281 37.845C72.7003 38.525 73.25 39.0577 73.93 39.443C74.61 39.817 75.3523 40.004 76.157 40.004C76.8937 40.004 77.5623 39.868 78.163 39.596C78.7637 39.3127 79.2453 38.916 79.608 38.406C79.982 37.896 80.2087 37.284 80.288 36.57H76.123V34.921H82.039C82.107 35.227 82.141 35.55 82.141 35.89V35.907C82.141 37.0857 81.8803 38.117 81.359 39.001C80.849 39.8737 80.1407 40.5537 79.234 41.041C78.3273 41.5283 77.296 41.772 76.14 41.772ZM87.6149 41.772C86.7195 41.772 85.9319 41.568 85.2519 41.16C84.5719 40.752 84.0392 40.2023 83.6539 39.511C83.2685 38.8197 83.0759 38.0377 83.0759 37.165C83.0759 36.3037 83.2685 35.5273 83.6539 34.836C84.0392 34.1333 84.5719 33.578 85.2519 33.17C85.9319 32.762 86.7195 32.558 87.6149 32.558C88.4989 32.558 89.2809 32.762 89.9609 33.17C90.6409 33.578 91.1735 34.1333 91.5589 34.836C91.9442 35.5273 92.1369 36.3037 92.1369 37.165C92.1369 38.0377 91.9442 38.8197 91.5589 39.511C91.1735 40.2023 90.6409 40.752 89.9609 41.16C89.2809 41.568 88.4989 41.772 87.6149 41.772ZM87.6149 40.089C88.0909 40.089 88.5329 39.9757 88.9409 39.749C89.3489 39.511 89.6775 39.1767 89.9269 38.746C90.1875 38.304 90.3179 37.777 90.3179 37.165C90.3179 36.553 90.1875 36.0317 89.9269 35.601C89.6775 35.159 89.3489 34.8247 88.9409 34.598C88.5329 34.36 88.0909 34.241 87.6149 34.241C87.1389 34.241 86.6912 34.36 86.2719 34.598C85.8639 34.8247 85.5295 35.159 85.2689 35.601C85.0195 36.0317 84.8949 36.553 84.8949 37.165C84.8949 37.777 85.0195 38.304 85.2689 38.746C85.5295 39.1767 85.8639 39.511 86.2719 39.749C86.6912 39.9757 87.1389 40.089 87.6149 40.089ZM97.9078 41.772C97.0125 41.772 96.2248 41.568 95.5448 41.16C94.8648 40.752 94.3322 40.2023 93.9468 39.511C93.5615 38.8197 93.3688 38.0377 93.3688 37.165C93.3688 36.3037 93.5615 35.5273 93.9468 34.836C94.3322 34.1333 94.8648 33.578 95.5448 33.17C96.2248 32.762 97.0125 32.558 97.9078 32.558C98.7918 32.558 99.5738 32.762 100.254 33.17C100.934 33.578 101.467 34.1333 101.852 34.836C102.237 35.5273 102.43 36.3037 102.43 37.165C102.43 38.0377 102.237 38.8197 101.852 39.511C101.467 40.2023 100.934 40.752 100.254 41.16C99.5738 41.568 98.7918 41.772 97.9078 41.772ZM97.9078 40.089C98.3838 40.089 98.8258 39.9757 99.2338 39.749C99.6418 39.511 99.9705 39.1767 100.22 38.746C100.481 38.304 100.611 37.777 100.611 37.165C100.611 36.553 100.481 36.0317 100.22 35.601C99.9705 35.159 99.6418 34.8247 99.2338 34.598C98.8258 34.36 98.3838 34.241 97.9078 34.241C97.4318 34.241 96.9842 34.36 96.5648 34.598C96.1568 34.8247 95.8225 35.159 95.5618 35.601C95.3125 36.0317 95.1878 36.553 95.1878 37.165C95.1878 37.777 95.3125 38.304 95.5618 38.746C95.8225 39.1767 96.1568 39.511 96.5648 39.749C96.9842 39.9757 97.4318 40.089 97.9078 40.089ZM108.031 45.444C107.271 45.444 106.614 45.3193 106.059 45.07C105.515 44.832 105.073 44.5203 104.733 44.135C104.393 43.761 104.149 43.3757 104.002 42.979L105.702 42.265C105.883 42.7183 106.172 43.0867 106.569 43.37C106.977 43.6647 107.464 43.812 108.031 43.812C108.824 43.812 109.447 43.574 109.901 43.098C110.365 42.622 110.598 41.9477 110.598 41.075V40.242H110.496C110.224 40.65 109.844 40.9787 109.357 41.228C108.881 41.466 108.337 41.585 107.725 41.585C106.988 41.585 106.314 41.398 105.702 41.024C105.09 40.65 104.597 40.1287 104.223 39.46C103.849 38.78 103.662 37.9867 103.662 37.08C103.662 36.162 103.849 35.3687 104.223 34.7C104.597 34.02 105.09 33.493 105.702 33.119C106.314 32.745 106.988 32.558 107.725 32.558C108.337 32.558 108.881 32.6827 109.357 32.932C109.844 33.1813 110.224 33.51 110.496 33.918H110.598V32.83H112.349V41.041C112.349 41.9817 112.162 42.7807 111.788 43.438C111.425 44.0953 110.921 44.594 110.275 44.934C109.629 45.274 108.881 45.444 108.031 45.444ZM108.048 39.919C108.501 39.919 108.92 39.8113 109.306 39.596C109.691 39.3693 110.003 39.0463 110.241 38.627C110.479 38.1963 110.598 37.6807 110.598 37.08C110.598 36.4567 110.479 35.9353 110.241 35.516C110.003 35.0853 109.691 34.7623 109.306 34.547C108.92 34.3317 108.501 34.224 108.048 34.224C107.594 34.224 107.169 34.3373 106.773 34.564C106.387 34.7793 106.076 35.0967 105.838 35.516C105.6 35.9353 105.481 36.4567 105.481 37.08C105.481 37.692 105.6 38.2133 105.838 38.644C106.076 39.0633 106.387 39.3807 106.773 39.596C107.169 39.8113 107.594 39.919 108.048 39.919ZM114.514 41.5V29.328H116.35V41.5H114.514ZM122.392 41.772C121.542 41.772 120.783 41.5737 120.114 41.177C119.446 40.7803 118.919 40.2363 118.533 39.545C118.159 38.8537 117.972 38.066 117.972 37.182C117.972 36.3547 118.154 35.5897 118.516 34.887C118.879 34.1843 119.383 33.6233 120.029 33.204C120.687 32.7733 121.44 32.558 122.29 32.558C123.186 32.558 123.945 32.7507 124.568 33.136C125.203 33.5213 125.685 34.0483 126.013 34.717C126.342 35.3857 126.506 36.1393 126.506 36.978C126.506 37.1027 126.501 37.216 126.489 37.318C126.489 37.42 126.484 37.4993 126.472 37.556H119.774C119.865 38.4173 120.165 39.0633 120.675 39.494C121.197 39.9247 121.786 40.14 122.443 40.14C123.033 40.14 123.52 40.0097 123.905 39.749C124.291 39.477 124.597 39.1427 124.823 38.746L126.336 39.477C125.962 40.157 125.452 40.7123 124.806 41.143C124.16 41.5623 123.356 41.772 122.392 41.772ZM122.307 34.122C121.695 34.122 121.174 34.309 120.743 34.683C120.313 35.057 120.024 35.5557 119.876 36.179H124.687C124.665 35.8843 124.568 35.5783 124.398 35.261C124.228 34.9437 123.968 34.6773 123.616 34.462C123.276 34.2353 122.84 34.122 122.307 34.122ZM134.812 41.5L131.225 32.83H133.265L135.696 39.137H135.781L138.263 32.83H140.269L136.648 41.5H134.812ZM145.17 41.772C144.32 41.772 143.56 41.5737 142.892 41.177C142.223 40.7803 141.696 40.2363 141.311 39.545C140.937 38.8537 140.75 38.066 140.75 37.182C140.75 36.3547 140.931 35.5897 141.294 34.887C141.656 34.1843 142.161 33.6233 142.807 33.204C143.464 32.7733 144.218 32.558 145.068 32.558C145.963 32.558 146.722 32.7507 147.346 33.136C147.98 33.5213 148.462 34.0483 148.791 34.717C149.119 35.3857 149.284 36.1393 149.284 36.978C149.284 37.1027 149.278 37.216 149.267 37.318C149.267 37.42 149.261 37.4993 149.25 37.556H142.552C142.642 38.4173 142.943 39.0633 143.453 39.494C143.974 39.9247 144.563 40.14 145.221 40.14C145.81 40.14 146.297 40.0097 146.683 39.749C147.068 39.477 147.374 39.1427 147.601 38.746L149.114 39.477C148.74 40.157 148.23 40.7123 147.584 41.143C146.938 41.5623 146.133 41.772 145.17 41.772ZM145.085 34.122C144.473 34.122 143.951 34.309 143.521 34.683C143.09 35.057 142.801 35.5557 142.654 36.179H147.465C147.442 35.8843 147.346 35.5783 147.176 35.261C147.006 34.9437 146.745 34.6773 146.394 34.462C146.054 34.2353 145.617 34.122 145.085 34.122ZM154.232 41.772C153.189 41.772 152.356 41.5453 151.733 41.092C151.11 40.6273 150.679 40.0777 150.441 39.443L152.09 38.729C152.294 39.1937 152.589 39.5507 152.974 39.8C153.359 40.038 153.796 40.157 154.283 40.157C154.736 40.157 155.127 40.0777 155.456 39.919C155.785 39.749 155.949 39.477 155.949 39.103C155.949 38.7403 155.785 38.474 155.456 38.304C155.127 38.134 154.719 37.9867 154.232 37.862L153.195 37.624C152.776 37.522 152.385 37.3633 152.022 37.148C151.659 36.9327 151.365 36.655 151.138 36.315C150.911 35.9637 150.798 35.5557 150.798 35.091C150.798 34.581 150.951 34.139 151.257 33.765C151.563 33.3797 151.965 33.085 152.464 32.881C152.974 32.6657 153.524 32.558 154.113 32.558C154.918 32.558 155.62 32.7167 156.221 33.034C156.833 33.34 157.281 33.8047 157.564 34.428L155.983 35.142C155.779 34.7567 155.513 34.4903 155.184 34.343C154.867 34.1843 154.515 34.105 154.13 34.105C153.699 34.105 153.337 34.1957 153.042 34.377C152.759 34.5583 152.617 34.785 152.617 35.057C152.617 35.3517 152.742 35.584 152.991 35.754C153.252 35.924 153.569 36.06 153.943 36.162L155.201 36.468C156.062 36.6833 156.708 37.012 157.139 37.454C157.57 37.8847 157.785 38.4117 157.785 39.035C157.785 39.5903 157.626 40.0777 157.309 40.497C156.992 40.905 156.561 41.2223 156.017 41.449C155.484 41.6643 154.889 41.772 154.232 41.772ZM159.387 41.5V29.328H161.223V36.502L164.895 32.83H167.173V32.932L163.824 36.247L167.292 41.398V41.5H165.116L162.532 37.522L161.223 38.814V41.5H159.387ZM169.489 31.555C169.149 31.555 168.855 31.436 168.605 31.198C168.367 30.9487 168.248 30.654 168.248 30.314C168.248 29.974 168.367 29.685 168.605 29.447C168.855 29.209 169.149 29.09 169.489 29.09C169.829 29.09 170.118 29.209 170.356 29.447C170.606 29.685 170.73 29.974 170.73 30.314C170.73 30.654 170.606 30.9487 170.356 31.198C170.118 31.436 169.829 31.555 169.489 31.555ZM168.571 41.5V32.83H170.407V41.5H168.571Z" fill="white"/>
<rect x="0.5" y="0.5" width="190" height="54" rx="27" stroke="#747775"/>
<defs>
<linearGradient id="paint0_linear_1819_25023" x1="37.2843" y1="34.0448" x2="18.7823" y2="55.7227" gradientUnits="userSpaceOnUse">
<stop stop-color="#4285F4"/>
<stop offset="1" stop-color="#1B74E8"/>
</linearGradient>
</defs>
</svg>
