<svg width="199" height="55" viewBox="0 0 199 55" fill="none" xmlns="http://www.w3.org/2000/svg">
<rect x="0.5" y="0.5" width="198" height="54" rx="27" fill="#1F1F1F"/>
<path d="M57 23.791H21V18.1456C21 15.0809 23.6422 12.5001 26.7798 12.5001H51.2202C54.3578 12.5001 57 15.0809 57 18.1456V23.791Z" fill="#34A853"/>
<path d="M57 29H21V23C21 19.7429 23.6422 17 26.7798 17H51.2202C54.3578 17 57 19.7429 57 23V29Z" fill="#FBBC04"/>
<path d="M57 34H21V28C21 24.7429 23.6422 22 26.7798 22H51.2202C54.3578 22 57 24.7429 57 28V34Z" fill="#EA4335"/>
<path d="M21 25.2409L43.8493 30.4025C46.4795 31.0477 49.4384 30.4025 51.5753 28.7895L57 24.9183V37.0157C57 40.0804 54.3699 42.4999 51.2466 42.4999H26.7534C23.6301 42.4999 21 40.0804 21 37.0157V25.2409Z" fill="url(#paint0_linear_1819_24415)"/>
<path d="M69.195 21.5L72.705 12.192H74.33L77.853 21.5H76.28L75.422 19.108H71.626L70.768 21.5H69.195ZM73.134 14.935L72.107 17.782H74.941L73.914 14.935L73.563 13.869H73.485L73.134 14.935ZM81.7338 24.516C81.1531 24.516 80.6505 24.4207 80.2258 24.23C79.8098 24.048 79.4718 23.8097 79.2118 23.515C78.9518 23.229 78.7655 22.9343 78.6528 22.631L79.9528 22.085C80.0915 22.4317 80.3125 22.7133 80.6158 22.93C80.9278 23.1553 81.3005 23.268 81.7338 23.268C82.3405 23.268 82.8171 23.086 83.1638 22.722C83.5191 22.358 83.6968 21.8423 83.6968 21.175V20.538H83.6188C83.4108 20.85 83.1205 21.1013 82.7478 21.292C82.3838 21.474 81.9678 21.565 81.4998 21.565C80.9365 21.565 80.4208 21.422 79.9528 21.136C79.4848 20.85 79.1078 20.4513 78.8218 19.94C78.5358 19.42 78.3928 18.8133 78.3928 18.12C78.3928 17.418 78.5358 16.8113 78.8218 16.3C79.1078 15.78 79.4848 15.377 79.9528 15.091C80.4208 14.805 80.9365 14.662 81.4998 14.662C81.9678 14.662 82.3838 14.7573 82.7478 14.948C83.1205 15.1387 83.4108 15.39 83.6188 15.702H83.6968V14.87H85.0358V21.149C85.0358 21.8683 84.8928 22.4793 84.6068 22.982C84.3295 23.4847 83.9438 23.866 83.4498 24.126C82.9558 24.386 82.3838 24.516 81.7338 24.516ZM81.7468 20.291C82.0935 20.291 82.4141 20.2087 82.7088 20.044C83.0035 19.8707 83.2418 19.6237 83.4238 19.303C83.6058 18.9737 83.6968 18.5793 83.6968 18.12C83.6968 17.6433 83.6058 17.2447 83.4238 16.924C83.2418 16.5947 83.0035 16.3477 82.7088 16.183C82.4141 16.0183 82.0935 15.936 81.7468 15.936C81.4001 15.936 81.0751 16.0227 80.7718 16.196C80.4771 16.3607 80.2388 16.6033 80.0568 16.924C79.8748 17.2447 79.7838 17.6433 79.7838 18.12C79.7838 18.588 79.8748 18.9867 80.0568 19.316C80.2388 19.6367 80.4771 19.8793 80.7718 20.044C81.0751 20.2087 81.4001 20.291 81.7468 20.291ZM89.6049 24.516C89.0242 24.516 88.5216 24.4207 88.0969 24.23C87.6809 24.048 87.3429 23.8097 87.0829 23.515C86.8229 23.229 86.6366 22.9343 86.5239 22.631L87.8239 22.085C87.9626 22.4317 88.1836 22.7133 88.4869 22.93C88.7989 23.1553 89.1716 23.268 89.6049 23.268C90.2116 23.268 90.6882 23.086 91.0349 22.722C91.3902 22.358 91.5679 21.8423 91.5679 21.175V20.538H91.4899C91.2819 20.85 90.9916 21.1013 90.6189 21.292C90.2549 21.474 89.8389 21.565 89.3709 21.565C88.8076 21.565 88.2919 21.422 87.8239 21.136C87.3559 20.85 86.9789 20.4513 86.6929 19.94C86.4069 19.42 86.2639 18.8133 86.2639 18.12C86.2639 17.418 86.4069 16.8113 86.6929 16.3C86.9789 15.78 87.3559 15.377 87.8239 15.091C88.2919 14.805 88.8076 14.662 89.3709 14.662C89.8389 14.662 90.2549 14.7573 90.6189 14.948C90.9916 15.1387 91.2819 15.39 91.4899 15.702H91.5679V14.87H92.9069V21.149C92.9069 21.8683 92.7639 22.4793 92.4779 22.982C92.2006 23.4847 91.8149 23.866 91.3209 24.126C90.8269 24.386 90.2549 24.516 89.6049 24.516ZM89.6179 20.291C89.9646 20.291 90.2852 20.2087 90.5799 20.044C90.8746 19.8707 91.1129 19.6237 91.2949 19.303C91.4769 18.9737 91.5679 18.5793 91.5679 18.12C91.5679 17.6433 91.4769 17.2447 91.2949 16.924C91.1129 16.5947 90.8746 16.3477 90.5799 16.183C90.2852 16.0183 89.9646 15.936 89.6179 15.936C89.2712 15.936 88.9462 16.0227 88.6429 16.196C88.3482 16.3607 88.1099 16.6033 87.9279 16.924C87.7459 17.2447 87.6549 17.6433 87.6549 18.12C87.6549 18.588 87.7459 18.9867 87.9279 19.316C88.1099 19.6367 88.3482 19.8793 88.6429 20.044C88.9462 20.2087 89.2712 20.291 89.6179 20.291ZM95.3555 13.895C95.0955 13.895 94.8701 13.804 94.6795 13.622C94.4975 13.4313 94.4065 13.206 94.4065 12.946C94.4065 12.686 94.4975 12.465 94.6795 12.283C94.8701 12.101 95.0955 12.01 95.3555 12.01C95.6155 12.01 95.8365 12.101 96.0185 12.283C96.2091 12.465 96.3045 12.686 96.3045 12.946C96.3045 13.206 96.2091 13.4313 96.0185 13.622C95.8365 13.804 95.6155 13.895 95.3555 13.895ZM94.6535 21.5V14.87H96.0575V21.5H94.6535ZM100.204 21.708C99.3898 21.708 98.7745 21.4653 98.3585 20.98C97.9511 20.486 97.7475 19.8187 97.7475 18.978V14.87H99.1515V18.783C99.1515 19.3463 99.2815 19.7623 99.5415 20.031C99.8101 20.291 100.144 20.421 100.542 20.421C100.898 20.421 101.205 20.33 101.465 20.148C101.734 19.9573 101.938 19.7147 102.076 19.42C102.224 19.1167 102.297 18.7873 102.297 18.432V14.87H103.688V21.5H102.375V20.603H102.297C102.107 20.915 101.821 21.1793 101.439 21.396C101.067 21.604 100.655 21.708 100.204 21.708ZM105.34 21.5V14.87H106.666V15.78H106.744C106.935 15.4593 107.217 15.195 107.589 14.987C107.971 14.7703 108.387 14.662 108.837 14.662C109.652 14.662 110.263 14.9047 110.67 15.39C111.078 15.8753 111.281 16.5167 111.281 17.314V21.5H109.89V17.496C109.89 16.9587 109.756 16.5687 109.487 16.326C109.219 16.0747 108.868 15.949 108.434 15.949C108.096 15.949 107.802 16.0443 107.55 16.235C107.299 16.417 107.1 16.6597 106.952 16.963C106.814 17.2663 106.744 17.5913 106.744 17.938V21.5H105.34ZM115.808 24.516C115.227 24.516 114.725 24.4207 114.3 24.23C113.884 24.048 113.546 23.8097 113.286 23.515C113.026 23.229 112.84 22.9343 112.727 22.631L114.027 22.085C114.166 22.4317 114.387 22.7133 114.69 22.93C115.002 23.1553 115.375 23.268 115.808 23.268C116.415 23.268 116.891 23.086 117.238 22.722C117.593 22.358 117.771 21.8423 117.771 21.175V20.538H117.693C117.485 20.85 117.195 21.1013 116.822 21.292C116.458 21.474 116.042 21.565 115.574 21.565C115.011 21.565 114.495 21.422 114.027 21.136C113.559 20.85 113.182 20.4513 112.896 19.94C112.61 19.42 112.467 18.8133 112.467 18.12C112.467 17.418 112.61 16.8113 112.896 16.3C113.182 15.78 113.559 15.377 114.027 15.091C114.495 14.805 115.011 14.662 115.574 14.662C116.042 14.662 116.458 14.7573 116.822 14.948C117.195 15.1387 117.485 15.39 117.693 15.702H117.771V14.87H119.11V21.149C119.11 21.8683 118.967 22.4793 118.681 22.982C118.404 23.4847 118.018 23.866 117.524 24.126C117.03 24.386 116.458 24.516 115.808 24.516ZM115.821 20.291C116.168 20.291 116.488 20.2087 116.783 20.044C117.078 19.8707 117.316 19.6237 117.498 19.303C117.68 18.9737 117.771 18.5793 117.771 18.12C117.771 17.6433 117.68 17.2447 117.498 16.924C117.316 16.5947 117.078 16.3477 116.783 16.183C116.488 16.0183 116.168 15.936 115.821 15.936C115.474 15.936 115.149 16.0227 114.846 16.196C114.551 16.3607 114.313 16.6033 114.131 16.924C113.949 17.2447 113.858 17.6433 113.858 18.12C113.858 18.588 113.949 18.9867 114.131 19.316C114.313 19.6367 114.551 19.8793 114.846 20.044C115.149 20.2087 115.474 20.291 115.821 20.291ZM121.559 13.895C121.299 13.895 121.073 13.804 120.883 13.622C120.701 13.4313 120.61 13.206 120.61 12.946C120.61 12.686 120.701 12.465 120.883 12.283C121.073 12.101 121.299 12.01 121.559 12.01C121.819 12.01 122.04 12.101 122.222 12.283C122.412 12.465 122.508 12.686 122.508 12.946C122.508 13.206 122.412 13.4313 122.222 13.622C122.04 13.804 121.819 13.895 121.559 13.895ZM120.857 21.5V14.87H122.261V21.5H120.857ZM129.117 21.708C128.64 21.708 128.215 21.617 127.843 21.435C127.47 21.2443 127.18 20.98 126.972 20.642C126.764 20.304 126.66 19.9183 126.66 19.485C126.66 19.017 126.781 18.6183 127.024 18.289C127.275 17.951 127.609 17.6953 128.025 17.522C128.441 17.3487 128.9 17.262 129.403 17.262C129.819 17.262 130.183 17.301 130.495 17.379C130.815 17.457 131.058 17.5393 131.223 17.626V17.275C131.223 16.8417 131.067 16.495 130.755 16.235C130.443 15.975 130.04 15.845 129.546 15.845C129.208 15.845 128.887 15.923 128.584 16.079C128.28 16.2263 128.038 16.43 127.856 16.69L126.894 15.949C127.18 15.5503 127.557 15.2383 128.025 15.013C128.501 14.779 129.021 14.662 129.585 14.662C130.547 14.662 131.288 14.9003 131.808 15.377C132.328 15.845 132.588 16.5037 132.588 17.353V21.5H131.223V20.681H131.145C130.971 20.9497 130.711 21.188 130.365 21.396C130.018 21.604 129.602 21.708 129.117 21.708ZM129.364 20.564C129.728 20.564 130.048 20.4773 130.326 20.304C130.603 20.1307 130.82 19.9053 130.976 19.628C131.14 19.342 131.223 19.0343 131.223 18.705C131.023 18.5923 130.789 18.5013 130.521 18.432C130.252 18.354 129.966 18.315 129.663 18.315C129.091 18.315 128.683 18.432 128.441 18.666C128.198 18.8913 128.077 19.1687 128.077 19.498C128.077 19.81 128.194 20.0657 128.428 20.265C128.662 20.4643 128.974 20.564 129.364 20.564Z" fill="white"/>
<path d="M76.14 41.772C75.2673 41.772 74.4457 41.6133 73.675 41.296C72.9157 40.9787 72.2413 40.5367 71.652 39.97C71.0627 39.392 70.598 38.7177 70.258 37.947C69.9293 37.165 69.765 36.3207 69.765 35.414C69.765 34.5073 69.9293 33.6687 70.258 32.898C70.598 32.116 71.057 31.4417 71.635 30.875C72.2243 30.297 72.9043 29.8493 73.675 29.532C74.4457 29.2147 75.2673 29.056 76.14 29.056C77.0693 29.056 77.925 29.2203 78.707 29.549C79.5003 29.8777 80.1633 30.3367 80.696 30.926L79.404 32.201C79.0073 31.759 78.5313 31.419 77.976 31.181C77.432 30.943 76.82 30.824 76.14 30.824C75.3353 30.824 74.593 31.0167 73.913 31.402C73.233 31.776 72.6833 32.3087 72.264 33C71.856 33.68 71.652 34.4847 71.652 35.414C71.652 36.3433 71.8617 37.1537 72.281 37.845C72.7003 38.525 73.25 39.0577 73.93 39.443C74.61 39.817 75.3523 40.004 76.157 40.004C76.8937 40.004 77.5623 39.868 78.163 39.596C78.7637 39.3127 79.2453 38.916 79.608 38.406C79.982 37.896 80.2087 37.284 80.288 36.57H76.123V34.921H82.039C82.107 35.227 82.141 35.55 82.141 35.89V35.907C82.141 37.0857 81.8803 38.117 81.359 39.001C80.849 39.8737 80.1407 40.5537 79.234 41.041C78.3273 41.5283 77.296 41.772 76.14 41.772ZM87.6149 41.772C86.7195 41.772 85.9319 41.568 85.2519 41.16C84.5719 40.752 84.0392 40.2023 83.6539 39.511C83.2685 38.8197 83.0759 38.0377 83.0759 37.165C83.0759 36.3037 83.2685 35.5273 83.6539 34.836C84.0392 34.1333 84.5719 33.578 85.2519 33.17C85.9319 32.762 86.7195 32.558 87.6149 32.558C88.4989 32.558 89.2809 32.762 89.9609 33.17C90.6409 33.578 91.1735 34.1333 91.5589 34.836C91.9442 35.5273 92.1369 36.3037 92.1369 37.165C92.1369 38.0377 91.9442 38.8197 91.5589 39.511C91.1735 40.2023 90.6409 40.752 89.9609 41.16C89.2809 41.568 88.4989 41.772 87.6149 41.772ZM87.6149 40.089C88.0909 40.089 88.5329 39.9757 88.9409 39.749C89.3489 39.511 89.6775 39.1767 89.9269 38.746C90.1875 38.304 90.3179 37.777 90.3179 37.165C90.3179 36.553 90.1875 36.0317 89.9269 35.601C89.6775 35.159 89.3489 34.8247 88.9409 34.598C88.5329 34.36 88.0909 34.241 87.6149 34.241C87.1389 34.241 86.6912 34.36 86.2719 34.598C85.8639 34.8247 85.5295 35.159 85.2689 35.601C85.0195 36.0317 84.8949 36.553 84.8949 37.165C84.8949 37.777 85.0195 38.304 85.2689 38.746C85.5295 39.1767 85.8639 39.511 86.2719 39.749C86.6912 39.9757 87.1389 40.089 87.6149 40.089ZM97.9078 41.772C97.0125 41.772 96.2248 41.568 95.5448 41.16C94.8648 40.752 94.3322 40.2023 93.9468 39.511C93.5615 38.8197 93.3688 38.0377 93.3688 37.165C93.3688 36.3037 93.5615 35.5273 93.9468 34.836C94.3322 34.1333 94.8648 33.578 95.5448 33.17C96.2248 32.762 97.0125 32.558 97.9078 32.558C98.7918 32.558 99.5738 32.762 100.254 33.17C100.934 33.578 101.467 34.1333 101.852 34.836C102.237 35.5273 102.43 36.3037 102.43 37.165C102.43 38.0377 102.237 38.8197 101.852 39.511C101.467 40.2023 100.934 40.752 100.254 41.16C99.5738 41.568 98.7918 41.772 97.9078 41.772ZM97.9078 40.089C98.3838 40.089 98.8258 39.9757 99.2338 39.749C99.6418 39.511 99.9705 39.1767 100.22 38.746C100.481 38.304 100.611 37.777 100.611 37.165C100.611 36.553 100.481 36.0317 100.22 35.601C99.9705 35.159 99.6418 34.8247 99.2338 34.598C98.8258 34.36 98.3838 34.241 97.9078 34.241C97.4318 34.241 96.9842 34.36 96.5648 34.598C96.1568 34.8247 95.8225 35.159 95.5618 35.601C95.3125 36.0317 95.1878 36.553 95.1878 37.165C95.1878 37.777 95.3125 38.304 95.5618 38.746C95.8225 39.1767 96.1568 39.511 96.5648 39.749C96.9842 39.9757 97.4318 40.089 97.9078 40.089ZM108.031 45.444C107.271 45.444 106.614 45.3193 106.059 45.07C105.515 44.832 105.073 44.5203 104.733 44.135C104.393 43.761 104.149 43.3757 104.002 42.979L105.702 42.265C105.883 42.7183 106.172 43.0867 106.569 43.37C106.977 43.6647 107.464 43.812 108.031 43.812C108.824 43.812 109.447 43.574 109.901 43.098C110.365 42.622 110.598 41.9477 110.598 41.075V40.242H110.496C110.224 40.65 109.844 40.9787 109.357 41.228C108.881 41.466 108.337 41.585 107.725 41.585C106.988 41.585 106.314 41.398 105.702 41.024C105.09 40.65 104.597 40.1287 104.223 39.46C103.849 38.78 103.662 37.9867 103.662 37.08C103.662 36.162 103.849 35.3687 104.223 34.7C104.597 34.02 105.09 33.493 105.702 33.119C106.314 32.745 106.988 32.558 107.725 32.558C108.337 32.558 108.881 32.6827 109.357 32.932C109.844 33.1813 110.224 33.51 110.496 33.918H110.598V32.83H112.349V41.041C112.349 41.9817 112.162 42.7807 111.788 43.438C111.425 44.0953 110.921 44.594 110.275 44.934C109.629 45.274 108.881 45.444 108.031 45.444ZM108.048 39.919C108.501 39.919 108.92 39.8113 109.306 39.596C109.691 39.3693 110.003 39.0463 110.241 38.627C110.479 38.1963 110.598 37.6807 110.598 37.08C110.598 36.4567 110.479 35.9353 110.241 35.516C110.003 35.0853 109.691 34.7623 109.306 34.547C108.92 34.3317 108.501 34.224 108.048 34.224C107.594 34.224 107.169 34.3373 106.773 34.564C106.387 34.7793 106.076 35.0967 105.838 35.516C105.6 35.9353 105.481 36.4567 105.481 37.08C105.481 37.692 105.6 38.2133 105.838 38.644C106.076 39.0633 106.387 39.3807 106.773 39.596C107.169 39.8113 107.594 39.919 108.048 39.919ZM114.514 41.5V29.328H116.35V41.5H114.514ZM122.392 41.772C121.542 41.772 120.783 41.5737 120.114 41.177C119.446 40.7803 118.919 40.2363 118.533 39.545C118.159 38.8537 117.972 38.066 117.972 37.182C117.972 36.3547 118.154 35.5897 118.516 34.887C118.879 34.1843 119.383 33.6233 120.029 33.204C120.687 32.7733 121.44 32.558 122.29 32.558C123.186 32.558 123.945 32.7507 124.568 33.136C125.203 33.5213 125.685 34.0483 126.013 34.717C126.342 35.3857 126.506 36.1393 126.506 36.978C126.506 37.1027 126.501 37.216 126.489 37.318C126.489 37.42 126.484 37.4993 126.472 37.556H119.774C119.865 38.4173 120.165 39.0633 120.675 39.494C121.197 39.9247 121.786 40.14 122.443 40.14C123.033 40.14 123.52 40.0097 123.905 39.749C124.291 39.477 124.597 39.1427 124.823 38.746L126.336 39.477C125.962 40.157 125.452 40.7123 124.806 41.143C124.16 41.5623 123.356 41.772 122.392 41.772ZM122.307 34.122C121.695 34.122 121.174 34.309 120.743 34.683C120.313 35.057 120.024 35.5557 119.876 36.179H124.687C124.665 35.8843 124.568 35.5783 124.398 35.261C124.228 34.9437 123.968 34.6773 123.616 34.462C123.276 34.2353 122.84 34.122 122.307 34.122ZM133.979 41.5L130.715 29.328H132.789L134.727 37.233L134.931 38.287H135.033L135.288 37.233L137.736 29.328H139.606L141.952 37.233L142.207 38.27H142.309L142.513 37.233L144.451 29.328H146.508L143.295 41.5H141.323L138.994 33.425L138.722 32.286H138.62L138.331 33.425L135.9 41.5H133.979ZM149.922 41.772C149.299 41.772 148.743 41.653 148.256 41.415C147.769 41.1657 147.389 40.82 147.117 40.378C146.845 39.936 146.709 39.4317 146.709 38.865C146.709 38.253 146.868 37.7317 147.185 37.301C147.514 36.859 147.95 36.5247 148.494 36.298C149.038 36.0713 149.639 35.958 150.296 35.958C150.84 35.958 151.316 36.009 151.724 36.111C152.143 36.213 152.461 36.3207 152.676 36.434V35.975C152.676 35.4083 152.472 34.955 152.064 34.615C151.656 34.275 151.129 34.105 150.483 34.105C150.041 34.105 149.622 34.207 149.225 34.411C148.828 34.6037 148.511 34.87 148.273 35.21L147.015 34.241C147.389 33.7197 147.882 33.3117 148.494 33.017C149.117 32.711 149.797 32.558 150.534 32.558C151.792 32.558 152.761 32.8697 153.441 33.493C154.121 34.105 154.461 34.9663 154.461 36.077V41.5H152.676V40.429H152.574C152.347 40.7803 152.007 41.092 151.554 41.364C151.101 41.636 150.557 41.772 149.922 41.772ZM150.245 40.276C150.721 40.276 151.14 40.1627 151.503 39.936C151.866 39.7093 152.149 39.4147 152.353 39.052C152.568 38.678 152.676 38.2757 152.676 37.845C152.415 37.6977 152.109 37.5787 151.758 37.488C151.407 37.386 151.033 37.335 150.636 37.335C149.888 37.335 149.355 37.488 149.038 37.794C148.721 38.0887 148.562 38.4513 148.562 38.882C148.562 39.29 148.715 39.6243 149.021 39.885C149.327 40.1457 149.735 40.276 150.245 40.276ZM156.499 41.5V29.328H158.335V41.5H156.499ZM160.517 41.5V29.328H162.353V41.5H160.517ZM168.395 41.772C167.545 41.772 166.786 41.5737 166.117 41.177C165.449 40.7803 164.922 40.2363 164.536 39.545C164.162 38.8537 163.975 38.066 163.975 37.182C163.975 36.3547 164.157 35.5897 164.519 34.887C164.882 34.1843 165.386 33.6233 166.032 33.204C166.69 32.7733 167.443 32.558 168.293 32.558C169.189 32.558 169.948 32.7507 170.571 33.136C171.206 33.5213 171.688 34.0483 172.016 34.717C172.345 35.3857 172.509 36.1393 172.509 36.978C172.509 37.1027 172.504 37.216 172.492 37.318C172.492 37.42 172.487 37.4993 172.475 37.556H165.777C165.868 38.4173 166.168 39.0633 166.678 39.494C167.2 39.9247 167.789 40.14 168.446 40.14C169.036 40.14 169.523 40.0097 169.908 39.749C170.294 39.477 170.6 39.1427 170.826 38.746L172.339 39.477C171.965 40.157 171.455 40.7123 170.809 41.143C170.163 41.5623 169.359 41.772 168.395 41.772ZM168.31 34.122C167.698 34.122 167.177 34.309 166.746 34.683C166.316 35.057 166.027 35.5557 165.879 36.179H170.69C170.668 35.8843 170.571 35.5783 170.401 35.261C170.231 34.9437 169.971 34.6773 169.619 34.462C169.279 34.2353 168.843 34.122 168.31 34.122ZM174.882 38.984V34.428H173.369V32.83H174.882V30.382H176.718V32.83H178.843V34.428H176.718V38.593C176.718 39.0237 176.803 39.3523 176.973 39.579C177.154 39.8057 177.454 39.919 177.874 39.919C178.089 39.919 178.27 39.8907 178.418 39.834C178.576 39.7773 178.735 39.698 178.894 39.596V41.381C178.701 41.4603 178.497 41.5227 178.282 41.568C178.066 41.6133 177.811 41.636 177.517 41.636C176.712 41.636 176.072 41.4037 175.596 40.939C175.12 40.463 174.882 39.8113 174.882 38.984Z" fill="white"/>
<rect x="0.5" y="0.5" width="198" height="54" rx="27" stroke="#747775"/>
<defs>
<linearGradient id="paint0_linear_1819_24415" x1="37.2843" y1="34.0448" x2="18.7823" y2="55.7227" gradientUnits="userSpaceOnUse">
<stop stop-color="#4285F4"/>
<stop offset="1" stop-color="#1B74E8"/>
</linearGradient>
</defs>
</svg>
