<svg width="204" height="55" viewBox="0 0 204 55" fill="none" xmlns="http://www.w3.org/2000/svg">
<rect x="0.5" y="0.5" width="203" height="54" rx="27" fill="#1F1F1F"/>
<path d="M57 23.791H21V18.1456C21 15.0809 23.6422 12.5001 26.7798 12.5001H51.2202C54.3578 12.5001 57 15.0809 57 18.1456V23.791Z" fill="#34A853"/>
<path d="M57 29H21V23C21 19.7429 23.6422 17 26.7798 17H51.2202C54.3578 17 57 19.7429 57 23V29Z" fill="#FBBC04"/>
<path d="M57 34H21V28C21 24.7429 23.6422 22 26.7798 22H51.2202C54.3578 22 57 24.7429 57 28V34Z" fill="#EA4335"/>
<path d="M21 25.2409L43.8493 30.4025C46.4795 31.0477 49.4384 30.4025 51.5753 28.7895L57 24.9183V37.0157C57 40.0804 54.3699 42.4999 51.2466 42.4999H26.7534C23.6301 42.4999 21 40.0804 21 37.0157V25.2409Z" fill="url(#paint0_linear_1819_24909)"/>
<path d="M74.46 21.708C73.7927 21.708 73.1643 21.5867 72.575 21.344C71.9943 21.1013 71.4787 20.7633 71.028 20.33C70.5773 19.888 70.222 19.3723 69.962 18.783C69.7107 18.185 69.585 17.5393 69.585 16.846C69.585 16.1527 69.7107 15.5113 69.962 14.922C70.222 14.324 70.573 13.8083 71.015 13.375C71.4657 12.933 71.9857 12.5907 72.575 12.348C73.1643 12.1053 73.7927 11.984 74.46 11.984C75.1707 11.984 75.825 12.1097 76.423 12.361C77.0297 12.6123 77.5367 12.9633 77.944 13.414L76.956 14.389C76.6527 14.051 76.2887 13.791 75.864 13.609C75.448 13.427 74.98 13.336 74.46 13.336C73.8447 13.336 73.277 13.4833 72.757 13.778C72.237 14.064 71.8167 14.4713 71.496 15C71.184 15.52 71.028 16.1353 71.028 16.846C71.028 17.5567 71.1883 18.1763 71.509 18.705C71.8297 19.225 72.25 19.6323 72.77 19.927C73.29 20.213 73.8577 20.356 74.473 20.356C75.0363 20.356 75.5477 20.252 76.007 20.044C76.4663 19.8273 76.8347 19.524 77.112 19.134C77.398 18.744 77.5713 18.276 77.632 17.73H74.447V16.469H78.971C79.023 16.703 79.049 16.95 79.049 17.21V17.223C79.049 18.1243 78.8497 18.913 78.451 19.589C78.061 20.2563 77.5193 20.7763 76.826 21.149C76.1327 21.5217 75.344 21.708 74.46 21.708ZM83.2349 21.708C82.5502 21.708 81.9479 21.552 81.4279 21.24C80.9079 20.928 80.5006 20.5077 80.2059 19.979C79.9112 19.4503 79.7639 18.8523 79.7639 18.185C79.7639 17.5263 79.9112 16.9327 80.2059 16.404C80.5006 15.8667 80.9079 15.442 81.4279 15.13C81.9479 14.818 82.5502 14.662 83.2349 14.662C83.9109 14.662 84.5089 14.818 85.0289 15.13C85.5489 15.442 85.9562 15.8667 86.2509 16.404C86.5456 16.9327 86.6929 17.5263 86.6929 18.185C86.6929 18.8523 86.5456 19.4503 86.2509 19.979C85.9562 20.5077 85.5489 20.928 85.0289 21.24C84.5089 21.552 83.9109 21.708 83.2349 21.708ZM83.2349 20.421C83.5989 20.421 83.9369 20.3343 84.2489 20.161C84.5609 19.979 84.8122 19.7233 85.0029 19.394C85.2022 19.056 85.3019 18.653 85.3019 18.185C85.3019 17.717 85.2022 17.3183 85.0029 16.989C84.8122 16.651 84.5609 16.3953 84.2489 16.222C83.9369 16.04 83.5989 15.949 83.2349 15.949C82.8709 15.949 82.5286 16.04 82.2079 16.222C81.8959 16.3953 81.6402 16.651 81.4409 16.989C81.2502 17.3183 81.1549 17.717 81.1549 18.185C81.1549 18.653 81.2502 19.056 81.4409 19.394C81.6402 19.7233 81.8959 19.979 82.2079 20.161C82.5286 20.3343 82.8709 20.421 83.2349 20.421ZM91.106 21.708C90.4213 21.708 89.819 21.552 89.299 21.24C88.779 20.928 88.3717 20.5077 88.077 19.979C87.7823 19.4503 87.635 18.8523 87.635 18.185C87.635 17.5263 87.7823 16.9327 88.077 16.404C88.3717 15.8667 88.779 15.442 89.299 15.13C89.819 14.818 90.4213 14.662 91.106 14.662C91.782 14.662 92.38 14.818 92.9 15.13C93.42 15.442 93.8273 15.8667 94.122 16.404C94.4167 16.9327 94.564 17.5263 94.564 18.185C94.564 18.8523 94.4167 19.4503 94.122 19.979C93.8273 20.5077 93.42 20.928 92.9 21.24C92.38 21.552 91.782 21.708 91.106 21.708ZM91.106 20.421C91.47 20.421 91.808 20.3343 92.12 20.161C92.432 19.979 92.6833 19.7233 92.874 19.394C93.0733 19.056 93.173 18.653 93.173 18.185C93.173 17.717 93.0733 17.3183 92.874 16.989C92.6833 16.651 92.432 16.3953 92.12 16.222C91.808 16.04 91.47 15.949 91.106 15.949C90.742 15.949 90.3997 16.04 90.079 16.222C89.767 16.3953 89.5113 16.651 89.312 16.989C89.1213 17.3183 89.026 17.717 89.026 18.185C89.026 18.653 89.1213 19.056 89.312 19.394C89.5113 19.7233 89.767 19.979 90.079 20.161C90.3997 20.3343 90.742 20.421 91.106 20.421ZM98.8471 24.516C98.2664 24.516 97.7638 24.4207 97.3391 24.23C96.9231 24.048 96.5851 23.8097 96.3251 23.515C96.0651 23.229 95.8788 22.9343 95.7661 22.631L97.0661 22.085C97.2048 22.4317 97.4258 22.7133 97.7291 22.93C98.0411 23.1553 98.4138 23.268 98.8471 23.268C99.4538 23.268 99.9304 23.086 100.277 22.722C100.632 22.358 100.81 21.8423 100.81 21.175V20.538H100.732C100.524 20.85 100.234 21.1013 99.8611 21.292C99.4971 21.474 99.0811 21.565 98.6131 21.565C98.0498 21.565 97.5341 21.422 97.0661 21.136C96.5981 20.85 96.2211 20.4513 95.9351 19.94C95.6491 19.42 95.5061 18.8133 95.5061 18.12C95.5061 17.418 95.6491 16.8113 95.9351 16.3C96.2211 15.78 96.5981 15.377 97.0661 15.091C97.5341 14.805 98.0498 14.662 98.6131 14.662C99.0811 14.662 99.4971 14.7573 99.8611 14.948C100.234 15.1387 100.524 15.39 100.732 15.702H100.81V14.87H102.149V21.149C102.149 21.8683 102.006 22.4793 101.72 22.982C101.443 23.4847 101.057 23.866 100.563 24.126C100.069 24.386 99.4971 24.516 98.8471 24.516ZM98.8601 20.291C99.2068 20.291 99.5274 20.2087 99.8221 20.044C100.117 19.8707 100.355 19.6237 100.537 19.303C100.719 18.9737 100.81 18.5793 100.81 18.12C100.81 17.6433 100.719 17.2447 100.537 16.924C100.355 16.5947 100.117 16.3477 99.8221 16.183C99.5274 16.0183 99.2068 15.936 98.8601 15.936C98.5134 15.936 98.1884 16.0227 97.8851 16.196C97.5904 16.3607 97.3521 16.6033 97.1701 16.924C96.9881 17.2447 96.8971 17.6433 96.8971 18.12C96.8971 18.588 96.9881 18.9867 97.1701 19.316C97.3521 19.6367 97.5904 19.8793 97.8851 20.044C98.1884 20.2087 98.5134 20.291 98.8601 20.291ZM103.805 21.5V12.192H105.209V21.5H103.805ZM109.829 21.708C109.179 21.708 108.599 21.5563 108.087 21.253C107.576 20.9497 107.173 20.5337 106.878 20.005C106.592 19.4763 106.449 18.874 106.449 18.198C106.449 17.5653 106.588 16.9803 106.865 16.443C107.143 15.9057 107.528 15.4767 108.022 15.156C108.525 14.8267 109.101 14.662 109.751 14.662C110.436 14.662 111.017 14.8093 111.493 15.104C111.979 15.3987 112.347 15.8017 112.598 16.313C112.85 16.8243 112.975 17.4007 112.975 18.042C112.975 18.1373 112.971 18.224 112.962 18.302C112.962 18.38 112.958 18.4407 112.949 18.484H107.827C107.897 19.1427 108.126 19.6367 108.516 19.966C108.915 20.2953 109.366 20.46 109.868 20.46C110.319 20.46 110.692 20.3603 110.986 20.161C111.281 19.953 111.515 19.6973 111.688 19.394L112.845 19.953C112.559 20.473 112.169 20.8977 111.675 21.227C111.181 21.5477 110.566 21.708 109.829 21.708ZM109.764 15.858C109.296 15.858 108.898 16.001 108.568 16.287C108.239 16.573 108.018 16.9543 107.905 17.431H111.584C111.567 17.2057 111.493 16.9717 111.363 16.729C111.233 16.4863 111.034 16.2827 110.765 16.118C110.505 15.9447 110.172 15.858 109.764 15.858ZM120.432 21.708C119.791 21.708 119.232 21.565 118.755 21.279C118.278 20.993 117.906 20.5987 117.637 20.096C117.368 19.5847 117.234 18.9997 117.234 18.341V12.192H118.638V18.367C118.638 18.991 118.811 19.4937 119.158 19.875C119.505 20.2477 119.925 20.434 120.419 20.434C120.783 20.434 121.104 20.356 121.381 20.2C121.658 20.044 121.875 19.836 122.031 19.576C122.187 19.316 122.265 19.0257 122.265 18.705C122.265 18.3237 122.148 17.9553 121.914 17.6L121.55 17.041C121.368 16.7723 121.229 16.495 121.134 16.209C121.039 15.923 120.995 15.585 121.004 15.195H122.408C122.399 15.4117 122.425 15.624 122.486 15.832C122.555 16.04 122.651 16.235 122.772 16.417L123.162 17.002C123.327 17.236 123.448 17.496 123.526 17.782C123.613 18.0593 123.656 18.3583 123.656 18.679C123.656 19.225 123.522 19.7277 123.253 20.187C122.993 20.6463 122.62 21.0147 122.135 21.292C121.65 21.5693 121.082 21.708 120.432 21.708ZM127.477 21.708C126.922 21.708 126.415 21.5953 125.956 21.37C125.505 21.1447 125.146 20.8327 124.877 20.434C124.617 20.0267 124.487 19.55 124.487 19.004C124.487 18.8653 124.496 18.7267 124.513 18.588C124.539 18.4407 124.574 18.302 124.617 18.172L125.943 18.38C125.908 18.5793 125.891 18.7527 125.891 18.9C125.891 19.394 126.043 19.7753 126.346 20.044C126.649 20.3127 127.022 20.447 127.464 20.447C127.923 20.447 128.3 20.317 128.595 20.057C128.898 19.7883 129.05 19.4417 129.05 19.017C129.05 18.7743 129.002 18.5663 128.907 18.393C128.82 18.211 128.712 18.0593 128.582 17.938C128.461 17.808 128.357 17.704 128.27 17.626L127.724 17.197C127.473 16.9977 127.247 16.742 127.048 16.43C126.857 16.1093 126.762 15.6977 126.762 15.195H128.166C128.166 15.4723 128.235 15.7063 128.374 15.897C128.521 16.0877 128.686 16.261 128.868 16.417L129.427 16.885C129.696 17.1103 129.93 17.3877 130.129 17.717C130.337 18.0377 130.441 18.4797 130.441 19.043C130.441 19.563 130.311 20.0223 130.051 20.421C129.791 20.8197 129.436 21.136 128.985 21.37C128.543 21.5953 128.04 21.708 127.477 21.708ZM137.299 24.516C136.589 24.516 135.956 24.412 135.401 24.204C134.855 23.996 134.431 23.6927 134.127 23.294C133.833 22.8953 133.707 22.4187 133.75 21.864L135.18 21.929C135.172 22.2237 135.263 22.4707 135.453 22.67C135.644 22.878 135.904 23.034 136.233 23.138C136.563 23.242 136.931 23.294 137.338 23.294C137.98 23.294 138.491 23.1467 138.872 22.852C139.254 22.5573 139.444 22.1933 139.444 21.76C139.444 21.3787 139.314 21.0623 139.054 20.811C138.803 20.5597 138.469 20.4297 138.053 20.421L137.884 20.408V19.16H138.261C138.686 19.16 139.024 19.0387 139.275 18.796C139.535 18.5447 139.665 18.1893 139.665 17.73C139.665 17.2533 139.548 16.8893 139.314 16.638C139.089 16.3867 138.79 16.261 138.417 16.261C138.053 16.261 137.759 16.3823 137.533 16.625C137.308 16.859 137.195 17.21 137.195 17.678V18.185C137.195 18.705 137.07 19.1773 136.818 19.602C136.576 20.018 136.233 20.3517 135.791 20.603C135.349 20.8457 134.842 20.967 134.27 20.967C133.69 20.967 133.178 20.8413 132.736 20.59C132.294 20.3387 131.948 19.9877 131.696 19.537C131.454 19.0863 131.332 18.5707 131.332 17.99C131.332 17.4093 131.454 16.8937 131.696 16.443C131.948 15.9837 132.29 15.6283 132.723 15.377C133.165 15.117 133.672 14.987 134.244 14.987C134.721 14.987 135.154 15.091 135.544 15.299C135.943 15.4983 136.238 15.78 136.428 16.144H136.467C136.641 15.78 136.901 15.4983 137.247 15.299C137.603 15.091 138.023 14.987 138.508 14.987C138.994 14.987 139.427 15.091 139.808 15.299C140.198 15.4983 140.506 15.793 140.731 16.183C140.957 16.5643 141.069 17.028 141.069 17.574C141.069 18.2153 140.926 18.7137 140.64 19.069C140.354 19.4243 140.016 19.667 139.626 19.797V19.875C140.016 20.0137 140.315 20.2563 140.523 20.603C140.731 20.941 140.835 21.3353 140.835 21.786C140.835 22.3147 140.692 22.7827 140.406 23.19C140.12 23.606 139.713 23.931 139.184 24.165C138.656 24.399 138.027 24.516 137.299 24.516ZM134.27 19.719C134.721 19.719 135.094 19.563 135.388 19.251C135.683 18.939 135.83 18.5187 135.83 17.99C135.83 17.4527 135.683 17.028 135.388 16.716C135.094 16.404 134.721 16.248 134.27 16.248C133.811 16.248 133.434 16.404 133.139 16.716C132.845 17.028 132.697 17.4527 132.697 17.99C132.697 18.5187 132.845 18.939 133.139 19.251C133.443 19.563 133.82 19.719 134.27 19.719ZM145.155 24.516C144.548 24.516 144.007 24.386 143.53 24.126C143.053 23.866 142.681 23.5063 142.412 23.047C142.143 22.5963 142.009 22.0807 142.009 21.5C142.009 21.0927 142.087 20.681 142.243 20.265L143.543 20.551C143.448 20.8543 143.4 21.149 143.4 21.435C143.4 21.929 143.552 22.3493 143.855 22.696C144.167 23.0513 144.6 23.229 145.155 23.229C145.658 23.229 146.082 23.06 146.429 22.722C146.776 22.384 146.949 21.9117 146.949 21.305V17.21C146.949 16.9153 146.867 16.6813 146.702 16.508C146.546 16.326 146.321 16.235 146.026 16.235C145.731 16.235 145.506 16.326 145.35 16.508C145.203 16.6813 145.129 16.9153 145.129 17.21V18.809H143.751V17.288C143.751 16.976 143.664 16.7463 143.491 16.599C143.326 16.4517 143.105 16.378 142.828 16.378H142.009V15.065H142.945C143.274 15.065 143.569 15.13 143.829 15.26C144.089 15.39 144.284 15.5893 144.414 15.858H144.492C144.639 15.5893 144.86 15.377 145.155 15.221C145.45 15.065 145.805 14.987 146.221 14.987C146.62 14.987 146.975 15.0737 147.287 15.247C147.608 15.4117 147.859 15.6543 148.041 15.975C148.232 16.2957 148.327 16.677 148.327 17.119V21.253C148.327 21.8943 148.193 22.4577 147.924 22.943C147.664 23.437 147.296 23.8227 146.819 24.1C146.342 24.3773 145.788 24.516 145.155 24.516ZM156.792 24.308C156.766 23.97 156.623 23.684 156.363 23.45C156.112 23.2247 155.778 23.0513 155.362 22.93C154.955 22.8087 154.5 22.748 153.997 22.748C153.599 22.748 153.191 22.7957 152.775 22.891C152.359 22.995 151.965 23.1423 151.592 23.333L151.072 22.397C151.462 22.1803 151.831 22.033 152.177 21.955V21.877C151.675 21.721 151.22 21.4827 150.812 21.162C150.414 20.8327 150.097 20.4167 149.863 19.914C149.629 19.4027 149.508 18.8047 149.499 18.12C149.491 17.4267 149.599 16.8503 149.824 16.391C150.058 15.923 150.362 15.572 150.734 15.338C151.116 15.104 151.532 14.987 151.982 14.987C152.32 14.987 152.663 15.078 153.009 15.26C153.365 15.4333 153.638 15.7367 153.828 16.17H153.906C154.071 15.754 154.309 15.455 154.621 15.273C154.942 15.0823 155.297 14.987 155.687 14.987C156.077 14.987 156.433 15.0823 156.753 15.273C157.074 15.455 157.312 15.754 157.468 16.17H157.546C157.728 15.754 157.984 15.455 158.313 15.273C158.643 15.0823 159.002 14.987 159.392 14.987C159.843 14.987 160.255 15.104 160.627 15.338C161.009 15.572 161.312 15.923 161.537 16.391C161.763 16.8503 161.875 17.4223 161.875 18.107C161.875 18.679 161.802 19.225 161.654 19.745C161.516 20.265 161.338 20.7243 161.121 21.123L159.795 20.824C160.012 20.3907 160.181 19.953 160.302 19.511C160.424 19.069 160.484 18.6097 160.484 18.133C160.484 17.5697 160.372 17.1233 160.146 16.794C159.93 16.456 159.644 16.287 159.288 16.287C158.95 16.287 158.677 16.4083 158.469 16.651C158.27 16.8937 158.17 17.275 158.17 17.795V19.641H156.792V17.665C156.792 17.2143 156.684 16.872 156.467 16.638C156.259 16.404 155.999 16.287 155.687 16.287C155.358 16.287 155.085 16.404 154.868 16.638C154.66 16.872 154.556 17.2143 154.556 17.665V19.641H153.165V17.795C153.165 17.2923 153.061 16.9153 152.853 16.664C152.654 16.4127 152.398 16.287 152.086 16.287C151.714 16.287 151.419 16.4473 151.202 16.768C150.994 17.0887 150.89 17.548 150.89 18.146C150.899 19.9227 151.909 20.9973 153.919 21.37L155.31 21.63C156.142 21.786 156.81 22.0937 157.312 22.553C157.815 23.0123 158.105 23.5973 158.183 24.308H156.792ZM165.924 24.516C165.317 24.516 164.775 24.386 164.299 24.126C163.822 23.866 163.449 23.5063 163.181 23.047C162.912 22.5963 162.778 22.0807 162.778 21.5C162.778 21.0927 162.856 20.681 163.012 20.265L164.312 20.551C164.216 20.8543 164.169 21.149 164.169 21.435C164.169 21.929 164.32 22.3493 164.624 22.696C164.936 23.0513 165.369 23.229 165.924 23.229C166.426 23.229 166.851 23.06 167.198 22.722C167.544 22.384 167.718 21.9117 167.718 21.305V17.951C167.718 17.431 167.557 17.0237 167.237 16.729C166.916 16.4257 166.509 16.274 166.015 16.274C165.729 16.274 165.456 16.3347 165.196 16.456C164.944 16.5773 164.741 16.7507 164.585 16.976C164.429 17.2013 164.351 17.4743 164.351 17.795C164.351 17.9683 164.372 18.146 164.416 18.328L163.064 18.497C163.003 18.2457 162.973 17.9813 162.973 17.704C162.973 17.158 163.107 16.6813 163.376 16.274C163.653 15.8667 164.021 15.5503 164.481 15.325C164.94 15.0997 165.451 14.987 166.015 14.987C166.621 14.987 167.154 15.1083 167.614 15.351C168.082 15.5937 168.446 15.9447 168.706 16.404C168.966 16.8547 169.096 17.392 169.096 18.016V21.253C169.096 21.8943 168.961 22.4577 168.693 22.943C168.424 23.437 168.051 23.8227 167.575 24.1C167.107 24.3773 166.556 24.516 165.924 24.516ZM173.623 21.708C172.956 21.708 172.375 21.5607 171.881 21.266C171.396 20.9627 171.019 20.5597 170.75 20.057C170.481 19.5543 170.347 19.004 170.347 18.406C170.347 17.7907 170.477 17.236 170.737 16.742C170.997 16.248 171.357 15.858 171.816 15.572C172.275 15.2773 172.8 15.13 173.389 15.13C173.857 15.13 174.256 15.234 174.585 15.442C174.923 15.65 175.192 15.8883 175.391 16.157H175.469L175.417 15.455V14.22C175.417 13.934 175.339 13.7 175.183 13.518C175.027 13.3273 174.793 13.232 174.481 13.232C174.186 13.232 173.961 13.3187 173.805 13.492C173.658 13.6567 173.584 13.8647 173.584 14.116V14.454H172.206V14.142C172.206 13.8387 172.119 13.6177 171.946 13.479C171.781 13.3403 171.56 13.271 171.283 13.271C171.075 13.271 170.897 13.2927 170.75 13.336C170.603 13.3707 170.473 13.4097 170.36 13.453V12.127C170.481 12.0923 170.629 12.062 170.802 12.036C170.975 12.0013 171.179 11.984 171.413 11.984C171.742 11.984 172.033 12.0577 172.284 12.205C172.544 12.3437 172.752 12.556 172.908 12.842H172.986C173.142 12.5733 173.363 12.3653 173.649 12.218C173.944 12.062 174.303 11.984 174.728 11.984C175.109 11.984 175.456 12.0707 175.768 12.244C176.08 12.4173 176.327 12.6643 176.509 12.985C176.7 13.3057 176.795 13.687 176.795 14.129V18.328C176.795 18.952 176.661 19.5197 176.392 20.031C176.123 20.5423 175.751 20.9497 175.274 21.253C174.797 21.5563 174.247 21.708 173.623 21.708ZM173.61 20.421C173.948 20.421 174.26 20.3387 174.546 20.174C174.832 20.0093 175.062 19.7753 175.235 19.472C175.408 19.1687 175.495 18.8133 175.495 18.406C175.495 17.9987 175.404 17.6477 175.222 17.353C175.049 17.0497 174.819 16.8157 174.533 16.651C174.256 16.4863 173.952 16.404 173.623 16.404C173.285 16.404 172.973 16.4863 172.687 16.651C172.401 16.8157 172.171 17.0497 171.998 17.353C171.825 17.6477 171.738 17.9987 171.738 18.406C171.738 18.8133 171.825 19.1687 171.998 19.472C172.171 19.7667 172.401 20.0007 172.687 20.174C172.973 20.3387 173.281 20.421 173.61 20.421ZM178.729 21.5C178.53 21.1013 178.352 20.629 178.196 20.083C178.04 19.5283 177.962 18.939 177.962 18.315C177.962 17.6477 178.092 17.067 178.352 16.573C178.621 16.0703 178.989 15.6803 179.457 15.403C179.934 15.1257 180.493 14.987 181.134 14.987C181.767 14.987 182.321 15.1257 182.798 15.403C183.283 15.6803 183.66 16.0703 183.929 16.573C184.198 17.067 184.332 17.6477 184.332 18.315C184.332 18.939 184.254 19.5283 184.098 20.083C183.942 20.629 183.764 21.1013 183.565 21.5H182.122C182.391 20.9713 182.594 20.4513 182.733 19.94C182.88 19.42 182.954 18.8827 182.954 18.328C182.954 17.6607 182.776 17.1493 182.421 16.794C182.066 16.4387 181.637 16.261 181.134 16.261C180.64 16.261 180.224 16.4387 179.886 16.794C179.548 17.1407 179.375 17.652 179.366 18.328C179.357 18.874 179.418 19.407 179.548 19.927C179.687 20.4383 179.895 20.9627 180.172 21.5H178.729Z" fill="white"/>
<path d="M77.534 45.172C77.4773 44.6393 77.194 44.22 76.684 43.914C76.174 43.6193 75.5677 43.472 74.865 43.472C74.355 43.472 73.879 43.5343 73.437 43.659C72.995 43.795 72.5417 43.9877 72.077 44.237L71.397 43.013C71.9297 42.7183 72.4397 42.5257 72.927 42.435V42.333C72.315 42.095 71.7597 41.7323 71.261 41.245C70.7737 40.7577 70.3827 40.174 70.088 39.494C69.7933 38.8027 69.646 38.0547 69.646 37.25C69.646 36.3433 69.799 35.5727 70.105 34.938C70.4223 34.292 70.8417 33.8047 71.363 33.476C71.8843 33.1473 72.4623 32.983 73.097 32.983C73.675 32.983 74.1963 33.1247 74.661 33.408C75.1257 33.68 75.477 34.0823 75.715 34.615H75.8C76.0833 34.0823 76.4857 33.68 77.007 33.408C77.5397 33.1247 78.146 32.983 78.826 32.983C79.5967 32.983 80.2767 33.1643 80.866 33.527C81.4553 33.8783 81.9143 34.3657 82.243 34.989C82.5717 35.601 82.736 36.3093 82.736 37.114C82.736 37.9187 82.5717 38.6327 82.243 39.256C81.9143 39.868 81.4497 40.3553 80.849 40.718C80.2597 41.0693 79.574 41.245 78.792 41.245C78.01 41.245 77.3187 41.0693 76.718 40.718C76.1173 40.3667 75.647 39.8907 75.307 39.29C74.967 38.678 74.797 37.9867 74.797 37.216V36.74C74.797 36.0487 74.6497 35.533 74.355 35.193C74.0603 34.8417 73.6863 34.666 73.233 34.666C72.7003 34.666 72.2697 34.887 71.941 35.329C71.6237 35.771 71.465 36.4113 71.465 37.25C71.465 38.4173 71.7993 39.3977 72.468 40.191C73.148 40.9843 74.0603 41.5283 75.205 41.823L76.31 42.112C77.2507 42.35 77.9703 42.7297 78.469 43.251C78.979 43.7723 79.2737 44.4127 79.353 45.172H77.534ZM78.775 39.579C79.3757 39.579 79.8857 39.3637 80.305 38.933C80.7357 38.491 80.951 37.8847 80.951 37.114C80.951 36.3433 80.7357 35.7427 80.305 35.312C79.8857 34.87 79.3757 34.649 78.775 34.649C78.1743 34.649 77.6587 34.87 77.228 35.312C76.7973 35.7427 76.582 36.3433 76.582 37.114C76.582 37.8847 76.7973 38.491 77.228 38.933C77.6587 39.3637 78.1743 39.579 78.775 39.579ZM87.7298 41.772C87.0044 41.772 86.3414 41.6247 85.7408 41.33C85.1514 41.0353 84.6811 40.6273 84.3298 40.106C83.9898 39.5733 83.8198 38.95 83.8198 38.236C83.8198 38.0547 83.8311 37.8733 83.8538 37.692C83.8878 37.4993 83.9331 37.318 83.9898 37.148L85.7238 37.42C85.6784 37.6807 85.6558 37.9073 85.6558 38.1C85.6558 38.746 85.8541 39.2447 86.2508 39.596C86.6474 39.9473 87.1348 40.123 87.7127 40.123C88.3134 40.123 88.8064 39.953 89.1918 39.613C89.5884 39.2617 89.7868 38.8083 89.7868 38.253C89.7868 37.9357 89.7244 37.6637 89.5998 37.437C89.4864 37.199 89.3448 37.0007 89.1748 36.842C89.0161 36.672 88.8801 36.536 88.7668 36.434L88.0528 35.873C87.7241 35.6123 87.4294 35.278 87.1688 34.87C86.9194 34.4507 86.7948 33.9123 86.7948 33.255H88.6308C88.6308 33.6177 88.7214 33.9237 88.9028 34.173C89.0954 34.4223 89.3108 34.649 89.5488 34.853L90.2798 35.465C90.6311 35.7597 90.9371 36.1223 91.1978 36.553C91.4698 36.9723 91.6058 37.5503 91.6058 38.287C91.6058 38.967 91.4358 39.5677 91.0958 40.089C90.7558 40.6103 90.2911 41.024 89.7018 41.33C89.1238 41.6247 88.4664 41.772 87.7298 41.772ZM97.1232 41.772C96.2505 41.772 95.4912 41.5737 94.8452 41.177C94.2105 40.7803 93.7175 40.2533 93.3662 39.596C93.0148 38.9273 92.8392 38.185 92.8392 37.369C92.8392 36.5417 93.0092 35.7993 93.3492 35.142C93.6892 34.4733 94.1595 33.9463 94.7602 33.561C95.3608 33.1757 96.0465 32.983 96.8172 32.983C97.4292 32.983 97.9505 33.119 98.3812 33.391C98.8118 33.663 99.1518 33.9747 99.4012 34.326H99.5032L99.4692 33.425V32.864C99.4692 32.184 99.2368 31.6513 98.7722 31.266C98.3188 30.8807 97.7692 30.688 97.1232 30.688C96.5225 30.688 96.0125 30.8353 95.5932 31.13C95.1852 31.4133 94.8905 31.7817 94.7092 32.235L93.0432 31.521C93.1792 31.1243 93.4228 30.739 93.7742 30.365C94.1368 29.9797 94.5958 29.668 95.1512 29.43C95.7065 29.1807 96.3638 29.056 97.1232 29.056C97.8825 29.056 98.5738 29.209 99.1972 29.515C99.8318 29.8097 100.336 30.2517 100.71 30.841C101.084 31.4303 101.271 32.1443 101.271 32.983V37.267C101.271 38.1057 101.096 38.8707 100.744 39.562C100.393 40.242 99.9055 40.7803 99.2822 41.177C98.6588 41.5737 97.9392 41.772 97.1232 41.772ZM97.1062 40.089C97.5482 40.089 97.9562 39.9757 98.3302 39.749C98.7042 39.5223 99.0045 39.205 99.2312 38.797C99.4578 38.389 99.5712 37.913 99.5712 37.369C99.5712 36.825 99.4522 36.349 99.2142 35.941C98.9875 35.533 98.6872 35.2213 98.3132 35.006C97.9505 34.7793 97.5538 34.666 97.1232 34.666C96.6812 34.666 96.2732 34.7793 95.8992 35.006C95.5252 35.2213 95.2248 35.533 94.9982 35.941C94.7715 36.349 94.6582 36.825 94.6582 37.369C94.6582 37.913 94.7715 38.389 94.9982 38.797C95.2248 39.205 95.5252 39.5223 95.8992 39.749C96.2732 39.9757 96.6755 40.089 97.1062 40.089ZM106.573 41.772C105.847 41.772 105.184 41.6247 104.584 41.33C103.994 41.0353 103.524 40.6273 103.173 40.106C102.833 39.5733 102.663 38.95 102.663 38.236C102.663 38.0547 102.674 37.8733 102.697 37.692C102.731 37.4993 102.776 37.318 102.833 37.148L104.567 37.42C104.521 37.6807 104.499 37.9073 104.499 38.1C104.499 38.746 104.697 39.2447 105.094 39.596C105.49 39.9473 105.978 40.123 106.556 40.123C107.156 40.123 107.649 39.953 108.035 39.613C108.431 39.2617 108.63 38.8083 108.63 38.253C108.63 37.9357 108.567 37.6637 108.443 37.437C108.329 37.199 108.188 37.0007 108.018 36.842C107.859 36.672 107.723 36.536 107.61 36.434L106.896 35.873C106.567 35.6123 106.272 35.278 106.012 34.87C105.762 34.4507 105.638 33.9123 105.638 33.255H107.474C107.474 33.6177 107.564 33.9237 107.746 34.173C107.938 34.4223 108.154 34.649 108.392 34.853L109.123 35.465C109.474 35.7597 109.78 36.1223 110.041 36.553C110.313 36.9723 110.449 37.5503 110.449 38.287C110.449 38.967 110.279 39.5677 109.939 40.089C109.599 40.6103 109.134 41.024 108.545 41.33C107.967 41.6247 107.309 41.772 106.573 41.772ZM117.615 45.444C116.754 45.444 115.949 45.2853 115.201 44.968C114.464 44.6507 113.818 44.203 113.263 43.625C112.708 43.0583 112.277 42.401 111.971 41.653C111.665 40.905 111.512 40.1003 111.512 39.239C111.512 38.185 111.733 37.2273 112.175 36.366C112.628 35.4933 113.246 34.7737 114.028 34.207C114.81 33.6403 115.705 33.2833 116.714 33.136V31.164H118.516V33.136C119.525 33.2833 120.42 33.6403 121.202 34.207C121.984 34.7737 122.602 35.4933 123.055 36.366C123.508 37.2273 123.735 38.185 123.735 39.239C123.735 40.1003 123.576 40.905 123.259 41.653C122.953 42.401 122.522 43.0583 121.967 43.625C121.423 44.203 120.777 44.6507 120.029 44.968C119.292 45.2853 118.488 45.444 117.615 45.444ZM116.714 39.375V36.077C116.714 35.601 116.748 35.1647 116.816 34.768C116.159 34.8927 115.564 35.1477 115.031 35.533C114.51 35.9183 114.096 36.4283 113.79 37.063C113.484 37.6863 113.331 38.4117 113.331 39.239C113.331 40.157 113.524 40.9503 113.909 41.619C114.294 42.299 114.81 42.826 115.456 43.2C116.113 43.574 116.833 43.761 117.615 43.761C118.397 43.761 119.111 43.574 119.757 43.2C120.414 42.826 120.936 42.299 121.321 41.619C121.718 40.9503 121.916 40.157 121.916 39.239C121.916 38.4117 121.757 37.6863 121.44 37.063C121.134 36.4283 120.715 35.9183 120.182 35.533C119.661 35.1477 119.071 34.8927 118.414 34.768C118.482 35.1533 118.516 35.5727 118.516 36.026V39.375H116.714ZM128.925 45.444C128.132 45.444 127.423 45.274 126.8 44.934C126.177 44.594 125.689 44.1237 125.338 43.523C124.987 42.9337 124.811 42.2593 124.811 41.5C124.811 40.9673 124.913 40.429 125.117 39.885L126.817 40.259C126.692 40.6557 126.63 41.041 126.63 41.415C126.63 42.061 126.828 42.6107 127.225 43.064C127.633 43.5287 128.2 43.761 128.925 43.761C129.582 43.761 130.138 43.54 130.591 43.098C131.044 42.656 131.271 42.0383 131.271 41.245V36.859C131.271 36.179 131.061 35.6463 130.642 35.261C130.223 34.8643 129.69 34.666 129.044 34.666C128.67 34.666 128.313 34.7453 127.973 34.904C127.644 35.0627 127.378 35.2893 127.174 35.584C126.97 35.8787 126.868 36.2357 126.868 36.655C126.868 36.8817 126.896 37.114 126.953 37.352L125.185 37.573C125.106 37.2443 125.066 36.8987 125.066 36.536C125.066 35.822 125.242 35.1987 125.593 34.666C125.956 34.1333 126.437 33.7197 127.038 33.425C127.639 33.1303 128.307 32.983 129.044 32.983C129.837 32.983 130.534 33.1417 131.135 33.459C131.747 33.7763 132.223 34.2353 132.563 34.836C132.903 35.4253 133.073 36.128 133.073 36.944V41.177C133.073 42.0157 132.897 42.7523 132.546 43.387C132.195 44.033 131.707 44.5373 131.084 44.9C130.472 45.2627 129.752 45.444 128.925 45.444ZM138.943 41.772C138.093 41.772 137.339 41.5793 136.682 41.194C136.024 40.7973 135.509 40.2703 135.135 39.613C134.772 38.9443 134.591 38.202 134.591 37.386C134.591 36.6267 134.744 35.941 135.05 35.329C135.356 34.7057 135.786 34.1957 136.342 33.799C136.897 33.4023 137.543 33.153 138.28 33.051V32.575C138.28 32.3257 138.257 32.1217 138.212 31.963C138.166 31.8043 138.03 31.6457 137.804 31.487L137.345 31.181C137.027 30.977 136.818 30.722 136.716 30.416C136.625 30.0987 136.585 29.736 136.597 29.328H138.416C138.416 29.5433 138.444 29.7247 138.501 29.872C138.569 30.008 138.716 30.161 138.943 30.331L139.385 30.637C139.679 30.841 139.872 31.079 139.963 31.351C140.053 31.623 140.099 31.946 140.099 32.32V33.153C140.745 33.3117 141.306 33.595 141.782 34.003C142.269 34.3997 142.643 34.887 142.904 35.465C143.164 36.043 143.295 36.6833 143.295 37.386C143.295 38.202 143.108 38.9443 142.734 39.613C142.371 40.2703 141.861 40.7973 141.204 41.194C140.558 41.5793 139.804 41.772 138.943 41.772ZM138.96 40.089C139.402 40.089 139.815 39.9813 140.201 39.766C140.586 39.5507 140.892 39.2447 141.119 38.848C141.357 38.44 141.476 37.9527 141.476 37.386C141.476 36.808 141.357 36.3207 141.119 35.924C140.892 35.516 140.586 35.2043 140.201 34.989C139.815 34.7737 139.402 34.666 138.96 34.666C138.506 34.666 138.087 34.7737 137.702 34.989C137.316 35.193 137.005 35.499 136.767 35.907C136.529 36.315 136.41 36.808 136.41 37.386C136.41 37.9527 136.529 38.44 136.767 38.848C137.005 39.2447 137.316 39.5507 137.702 39.766C138.087 39.9813 138.506 40.089 138.96 40.089ZM148.292 41.772C147.567 41.772 146.904 41.6247 146.303 41.33C145.714 41.0353 145.244 40.6273 144.892 40.106C144.552 39.5733 144.382 38.95 144.382 38.236C144.382 38.0547 144.394 37.8733 144.416 37.692C144.45 37.4993 144.496 37.318 144.552 37.148L146.286 37.42C146.241 37.6807 146.218 37.9073 146.218 38.1C146.218 38.746 146.417 39.2447 146.813 39.596C147.21 39.9473 147.697 40.123 148.275 40.123C148.876 40.123 149.369 39.953 149.754 39.613C150.151 39.2617 150.349 38.8083 150.349 38.253C150.349 37.9357 150.287 37.6637 150.162 37.437C150.049 37.199 149.907 37.0007 149.737 36.842C149.579 36.672 149.443 36.536 149.329 36.434L148.615 35.873C148.287 35.6123 147.992 35.278 147.731 34.87C147.482 34.4507 147.357 33.9123 147.357 33.255H149.193C149.193 33.6177 149.284 33.9237 149.465 34.173C149.658 34.4223 149.873 34.649 150.111 34.853L150.842 35.465C151.194 35.7597 151.5 36.1223 151.76 36.553C152.032 36.9723 152.168 37.5503 152.168 38.287C152.168 38.967 151.998 39.5677 151.658 40.089C151.318 40.6103 150.854 41.024 150.264 41.33C149.686 41.6247 149.029 41.772 148.292 41.772Z" fill="white"/>
<rect x="0.5" y="0.5" width="203" height="54" rx="27" stroke="#747775"/>
<defs>
<linearGradient id="paint0_linear_1819_24909" x1="37.2843" y1="34.0448" x2="18.7823" y2="55.7227" gradientUnits="userSpaceOnUse">
<stop stop-color="#4285F4"/>
<stop offset="1" stop-color="#1B74E8"/>
</linearGradient>
</defs>
</svg>
