<svg width="173" height="55" viewBox="0 0 173 55" fill="none" xmlns="http://www.w3.org/2000/svg">
<rect x="0.5" y="0.5" width="172" height="54" rx="27" fill="#1F1F1F"/>
<path d="M57 23.791H21V18.1456C21 15.0809 23.6422 12.5001 26.7798 12.5001H51.2202C54.3578 12.5001 57 15.0809 57 18.1456V23.791Z" fill="#34A853"/>
<path d="M57 29H21V23C21 19.7429 23.6422 17 26.7798 17H51.2202C54.3578 17 57 19.7429 57 23V29Z" fill="#FBBC04"/>
<path d="M57 34H21V28C21 24.7429 23.6422 22 26.7798 22H51.2202C54.3578 22 57 24.7429 57 28V34Z" fill="#EA4335"/>
<path d="M21 25.2409L43.8493 30.4025C46.4795 31.0477 49.4384 30.4025 51.5753 28.7895L57 24.9183V37.0157C57 40.0804 54.3699 42.4999 51.2466 42.4999H26.7534C23.6301 42.4999 21 40.0804 21 37.0157V25.2409Z" fill="url(#paint0_linear_1819_24453)"/>
<path d="M74.46 21.708C73.7927 21.708 73.1643 21.5867 72.575 21.344C71.9943 21.1013 71.4787 20.7633 71.028 20.33C70.5773 19.888 70.222 19.3723 69.962 18.783C69.7107 18.185 69.585 17.5393 69.585 16.846C69.585 16.1527 69.7107 15.5113 69.962 14.922C70.222 14.324 70.573 13.8083 71.015 13.375C71.4657 12.933 71.9857 12.5907 72.575 12.348C73.1643 12.1053 73.7927 11.984 74.46 11.984C75.1707 11.984 75.825 12.1097 76.423 12.361C77.0297 12.6123 77.5367 12.9633 77.944 13.414L76.956 14.389C76.6527 14.051 76.2887 13.791 75.864 13.609C75.448 13.427 74.98 13.336 74.46 13.336C73.8447 13.336 73.277 13.4833 72.757 13.778C72.237 14.064 71.8167 14.4713 71.496 15C71.184 15.52 71.028 16.1353 71.028 16.846C71.028 17.5567 71.1883 18.1763 71.509 18.705C71.8297 19.225 72.25 19.6323 72.77 19.927C73.29 20.213 73.8577 20.356 74.473 20.356C75.0363 20.356 75.5477 20.252 76.007 20.044C76.4663 19.8273 76.8347 19.524 77.112 19.134C77.398 18.744 77.5713 18.276 77.632 17.73H74.447V16.469H78.971C79.023 16.703 79.049 16.95 79.049 17.21V17.223C79.049 18.1243 78.8497 18.913 78.451 19.589C78.061 20.2563 77.5193 20.7763 76.826 21.149C76.1327 21.5217 75.344 21.708 74.46 21.708ZM83.2349 21.708C82.5502 21.708 81.9479 21.552 81.4279 21.24C80.9079 20.928 80.5006 20.5077 80.2059 19.979C79.9112 19.4503 79.7639 18.8523 79.7639 18.185C79.7639 17.5263 79.9112 16.9327 80.2059 16.404C80.5006 15.8667 80.9079 15.442 81.4279 15.13C81.9479 14.818 82.5502 14.662 83.2349 14.662C83.9109 14.662 84.5089 14.818 85.0289 15.13C85.5489 15.442 85.9562 15.8667 86.2509 16.404C86.5456 16.9327 86.6929 17.5263 86.6929 18.185C86.6929 18.8523 86.5456 19.4503 86.2509 19.979C85.9562 20.5077 85.5489 20.928 85.0289 21.24C84.5089 21.552 83.9109 21.708 83.2349 21.708ZM83.2349 20.421C83.5989 20.421 83.9369 20.3343 84.2489 20.161C84.5609 19.979 84.8122 19.7233 85.0029 19.394C85.2022 19.056 85.3019 18.653 85.3019 18.185C85.3019 17.717 85.2022 17.3183 85.0029 16.989C84.8122 16.651 84.5609 16.3953 84.2489 16.222C83.9369 16.04 83.5989 15.949 83.2349 15.949C82.8709 15.949 82.5286 16.04 82.2079 16.222C81.8959 16.3953 81.6402 16.651 81.4409 16.989C81.2502 17.3183 81.1549 17.717 81.1549 18.185C81.1549 18.653 81.2502 19.056 81.4409 19.394C81.6402 19.7233 81.8959 19.979 82.2079 20.161C82.5286 20.3343 82.8709 20.421 83.2349 20.421ZM91.106 21.708C90.4213 21.708 89.819 21.552 89.299 21.24C88.779 20.928 88.3717 20.5077 88.077 19.979C87.7823 19.4503 87.635 18.8523 87.635 18.185C87.635 17.5263 87.7823 16.9327 88.077 16.404C88.3717 15.8667 88.779 15.442 89.299 15.13C89.819 14.818 90.4213 14.662 91.106 14.662C91.782 14.662 92.38 14.818 92.9 15.13C93.42 15.442 93.8273 15.8667 94.122 16.404C94.4167 16.9327 94.564 17.5263 94.564 18.185C94.564 18.8523 94.4167 19.4503 94.122 19.979C93.8273 20.5077 93.42 20.928 92.9 21.24C92.38 21.552 91.782 21.708 91.106 21.708ZM91.106 20.421C91.47 20.421 91.808 20.3343 92.12 20.161C92.432 19.979 92.6833 19.7233 92.874 19.394C93.0733 19.056 93.173 18.653 93.173 18.185C93.173 17.717 93.0733 17.3183 92.874 16.989C92.6833 16.651 92.432 16.3953 92.12 16.222C91.808 16.04 91.47 15.949 91.106 15.949C90.742 15.949 90.3997 16.04 90.079 16.222C89.767 16.3953 89.5113 16.651 89.312 16.989C89.1213 17.3183 89.026 17.717 89.026 18.185C89.026 18.653 89.1213 19.056 89.312 19.394C89.5113 19.7233 89.767 19.979 90.079 20.161C90.3997 20.3343 90.742 20.421 91.106 20.421ZM98.8471 24.516C98.2664 24.516 97.7638 24.4207 97.3391 24.23C96.9231 24.048 96.5851 23.8097 96.3251 23.515C96.0651 23.229 95.8788 22.9343 95.7661 22.631L97.0661 22.085C97.2048 22.4317 97.4258 22.7133 97.7291 22.93C98.0411 23.1553 98.4138 23.268 98.8471 23.268C99.4538 23.268 99.9304 23.086 100.277 22.722C100.632 22.358 100.81 21.8423 100.81 21.175V20.538H100.732C100.524 20.85 100.234 21.1013 99.8611 21.292C99.4971 21.474 99.0811 21.565 98.6131 21.565C98.0498 21.565 97.5341 21.422 97.0661 21.136C96.5981 20.85 96.2211 20.4513 95.9351 19.94C95.6491 19.42 95.5061 18.8133 95.5061 18.12C95.5061 17.418 95.6491 16.8113 95.9351 16.3C96.2211 15.78 96.5981 15.377 97.0661 15.091C97.5341 14.805 98.0498 14.662 98.6131 14.662C99.0811 14.662 99.4971 14.7573 99.8611 14.948C100.234 15.1387 100.524 15.39 100.732 15.702H100.81V14.87H102.149V21.149C102.149 21.8683 102.006 22.4793 101.72 22.982C101.443 23.4847 101.057 23.866 100.563 24.126C100.069 24.386 99.4971 24.516 98.8471 24.516ZM98.8601 20.291C99.2068 20.291 99.5274 20.2087 99.8221 20.044C100.117 19.8707 100.355 19.6237 100.537 19.303C100.719 18.9737 100.81 18.5793 100.81 18.12C100.81 17.6433 100.719 17.2447 100.537 16.924C100.355 16.5947 100.117 16.3477 99.8221 16.183C99.5274 16.0183 99.2068 15.936 98.8601 15.936C98.5134 15.936 98.1884 16.0227 97.8851 16.196C97.5904 16.3607 97.3521 16.6033 97.1701 16.924C96.9881 17.2447 96.8971 17.6433 96.8971 18.12C96.8971 18.588 96.9881 18.9867 97.1701 19.316C97.3521 19.6367 97.5904 19.8793 97.8851 20.044C98.1884 20.2087 98.5134 20.291 98.8601 20.291ZM103.805 21.5V12.192H105.209V21.5H103.805ZM109.829 21.708C109.179 21.708 108.599 21.5563 108.087 21.253C107.576 20.9497 107.173 20.5337 106.878 20.005C106.592 19.4763 106.449 18.874 106.449 18.198C106.449 17.5653 106.588 16.9803 106.865 16.443C107.143 15.9057 107.528 15.4767 108.022 15.156C108.525 14.8267 109.101 14.662 109.751 14.662C110.436 14.662 111.017 14.8093 111.493 15.104C111.979 15.3987 112.347 15.8017 112.598 16.313C112.85 16.8243 112.975 17.4007 112.975 18.042C112.975 18.1373 112.971 18.224 112.962 18.302C112.962 18.38 112.958 18.4407 112.949 18.484H107.827C107.897 19.1427 108.126 19.6367 108.516 19.966C108.915 20.2953 109.366 20.46 109.868 20.46C110.319 20.46 110.692 20.3603 110.986 20.161C111.281 19.953 111.515 19.6973 111.688 19.394L112.845 19.953C112.559 20.473 112.169 20.8977 111.675 21.227C111.181 21.5477 110.566 21.708 109.829 21.708ZM109.764 15.858C109.296 15.858 108.898 16.001 108.568 16.287C108.239 16.573 108.018 16.9543 107.905 17.431H111.584C111.567 17.2057 111.493 16.9717 111.363 16.729C111.233 16.4863 111.034 16.2827 110.765 16.118C110.505 15.9447 110.172 15.858 109.764 15.858ZM118.69 21.5L116.194 12.192H117.78L119.262 18.237L119.418 19.043H119.496L119.691 18.237L121.563 12.192H122.993L124.787 18.237L124.982 19.03H125.06L125.216 18.237L126.698 12.192H128.271L125.814 21.5H124.306L122.525 15.325L122.317 14.454H122.239L122.018 15.325L120.159 21.5H118.69ZM130.881 21.708C130.405 21.708 129.98 21.617 129.607 21.435C129.235 21.2443 128.944 20.98 128.736 20.642C128.528 20.304 128.424 19.9183 128.424 19.485C128.424 19.017 128.546 18.6183 128.788 18.289C129.04 17.951 129.373 17.6953 129.789 17.522C130.205 17.3487 130.665 17.262 131.167 17.262C131.583 17.262 131.947 17.301 132.259 17.379C132.58 17.457 132.823 17.5393 132.987 17.626V17.275C132.987 16.8417 132.831 16.495 132.519 16.235C132.207 15.975 131.804 15.845 131.31 15.845C130.972 15.845 130.652 15.923 130.348 16.079C130.045 16.2263 129.802 16.43 129.62 16.69L128.658 15.949C128.944 15.5503 129.321 15.2383 129.789 15.013C130.266 14.779 130.786 14.662 131.349 14.662C132.311 14.662 133.052 14.9003 133.572 15.377C134.092 15.845 134.352 16.5037 134.352 17.353V21.5H132.987V20.681H132.909C132.736 20.9497 132.476 21.188 132.129 21.396C131.783 21.604 131.367 21.708 130.881 21.708ZM131.128 20.564C131.492 20.564 131.813 20.4773 132.09 20.304C132.368 20.1307 132.584 19.9053 132.74 19.628C132.905 19.342 132.987 19.0343 132.987 18.705C132.788 18.5923 132.554 18.5013 132.285 18.432C132.017 18.354 131.731 18.315 131.427 18.315C130.855 18.315 130.448 18.432 130.205 18.666C129.963 18.8913 129.841 19.1687 129.841 19.498C129.841 19.81 129.958 20.0657 130.192 20.265C130.426 20.4643 130.738 20.564 131.128 20.564ZM135.911 21.5V12.192H137.315V21.5H135.911ZM138.983 21.5V12.192H140.387V21.5H138.983ZM145.008 21.708C144.358 21.708 143.777 21.5563 143.266 21.253C142.755 20.9497 142.352 20.5337 142.057 20.005C141.771 19.4763 141.628 18.874 141.628 18.198C141.628 17.5653 141.767 16.9803 142.044 16.443C142.321 15.9057 142.707 15.4767 143.201 15.156C143.704 14.8267 144.28 14.662 144.93 14.662C145.615 14.662 146.195 14.8093 146.672 15.104C147.157 15.3987 147.526 15.8017 147.777 16.313C148.028 16.8243 148.154 17.4007 148.154 18.042C148.154 18.1373 148.15 18.224 148.141 18.302C148.141 18.38 148.137 18.4407 148.128 18.484H143.006C143.075 19.1427 143.305 19.6367 143.695 19.966C144.094 20.2953 144.544 20.46 145.047 20.46C145.498 20.46 145.87 20.3603 146.165 20.161C146.46 19.953 146.694 19.6973 146.867 19.394L148.024 19.953C147.738 20.473 147.348 20.8977 146.854 21.227C146.36 21.5477 145.745 21.708 145.008 21.708ZM144.943 15.858C144.475 15.858 144.076 16.001 143.747 16.287C143.418 16.573 143.197 16.9543 143.084 17.431H146.763C146.746 17.2057 146.672 16.9717 146.542 16.729C146.412 16.4863 146.213 16.2827 145.944 16.118C145.684 15.9447 145.35 15.858 144.943 15.858ZM149.968 19.576V16.092H148.811V14.87H149.968V12.998H151.372V14.87H152.997V16.092H151.372V19.277C151.372 19.6063 151.437 19.8577 151.567 20.031C151.706 20.2043 151.936 20.291 152.256 20.291C152.421 20.291 152.56 20.2693 152.672 20.226C152.794 20.1827 152.915 20.122 153.036 20.044V21.409C152.889 21.4697 152.733 21.5173 152.568 21.552C152.404 21.5867 152.209 21.604 151.983 21.604C151.368 21.604 150.878 21.4263 150.514 21.071C150.15 20.707 149.968 20.2087 149.968 19.576Z" fill="white"/>
<path d="M71.125 31.555C70.785 31.555 70.4903 31.436 70.241 31.198C70.003 30.9487 69.884 30.654 69.884 30.314C69.884 29.974 70.003 29.685 70.241 29.447C70.4903 29.209 70.785 29.09 71.125 29.09C71.465 29.09 71.754 29.209 71.992 29.447C72.2413 29.685 72.366 29.974 72.366 30.314C72.366 30.654 72.2413 30.9487 71.992 31.198C71.754 31.436 71.465 31.555 71.125 31.555ZM70.207 41.5V32.83H72.043V41.5H70.207ZM74.321 41.5V32.83H76.14V39.902H78.996V32.83H80.815V39.902H83.671V32.83H85.49V41.5H74.321ZM88.7061 31.555C88.3661 31.555 88.0714 31.436 87.8221 31.198C87.5841 30.9487 87.4651 30.654 87.4651 30.314C87.4651 29.974 87.5841 29.685 87.8221 29.447C88.0714 29.209 88.3661 29.09 88.7061 29.09C89.0461 29.09 89.3351 29.209 89.5731 29.447C89.8224 29.685 89.9471 29.974 89.9471 30.314C89.9471 30.654 89.8224 30.9487 89.5731 31.198C89.3351 31.436 89.0461 31.555 88.7061 31.555ZM87.7881 41.5V32.83H89.6241V41.5H87.7881ZM91.9021 41.5V32.83H93.7381V36.315H97.8521V32.83H99.6881V41.5H97.8521V37.913H93.7381V41.5H91.9021ZM105.708 41.772C104.858 41.772 104.098 41.5737 103.43 41.177C102.761 40.7803 102.234 40.2363 101.849 39.545C101.475 38.8537 101.288 38.066 101.288 37.182C101.288 36.3547 101.469 35.5897 101.832 34.887C102.194 34.1843 102.699 33.6233 103.345 33.204C104.002 32.7733 104.756 32.558 105.606 32.558C106.501 32.558 107.26 32.7507 107.884 33.136C108.518 33.5213 109 34.0483 109.329 34.717C109.657 35.3857 109.822 36.1393 109.822 36.978C109.822 37.1027 109.816 37.216 109.805 37.318C109.805 37.42 109.799 37.4993 109.788 37.556H103.09C103.18 38.4173 103.481 39.0633 103.991 39.494C104.512 39.9247 105.101 40.14 105.759 40.14C106.348 40.14 106.835 40.0097 107.221 39.749C107.606 39.477 107.912 39.1427 108.139 38.746L109.652 39.477C109.278 40.157 108.768 40.7123 108.122 41.143C107.476 41.5623 106.671 41.772 105.708 41.772ZM105.623 34.122C105.011 34.122 104.489 34.309 104.059 34.683C103.628 35.057 103.339 35.5557 103.192 36.179H108.003C107.98 35.8843 107.884 35.5783 107.714 35.261C107.544 34.9437 107.283 34.6773 106.932 34.462C106.592 34.2353 106.155 34.122 105.623 34.122ZM115.493 41.5V32.83H117.329V36.672H117.431L120.831 32.83H122.939V32.932L119.318 36.893L123.075 41.398V41.5H120.899L117.431 37.233H117.329V41.5H115.493ZM121.647 44.084V41.5H121.069V39.851H123.347V44.084H121.647ZM128.488 41.772C127.593 41.772 126.805 41.568 126.125 41.16C125.445 40.752 124.912 40.2023 124.527 39.511C124.142 38.8197 123.949 38.0377 123.949 37.165C123.949 36.3037 124.142 35.5273 124.527 34.836C124.912 34.1333 125.445 33.578 126.125 33.17C126.805 32.762 127.593 32.558 128.488 32.558C129.372 32.558 130.154 32.762 130.834 33.17C131.514 33.578 132.047 34.1333 132.432 34.836C132.817 35.5273 133.01 36.3037 133.01 37.165C133.01 38.0377 132.817 38.8197 132.432 39.511C132.047 40.2023 131.514 40.752 130.834 41.16C130.154 41.568 129.372 41.772 128.488 41.772ZM128.488 40.089C128.964 40.089 129.406 39.9757 129.814 39.749C130.222 39.511 130.551 39.1767 130.8 38.746C131.061 38.304 131.191 37.777 131.191 37.165C131.191 36.553 131.061 36.0317 130.8 35.601C130.551 35.159 130.222 34.8247 129.814 34.598C129.406 34.36 128.964 34.241 128.488 34.241C128.012 34.241 127.564 34.36 127.145 34.598C126.737 34.8247 126.403 35.159 126.142 35.601C125.893 36.0317 125.768 36.553 125.768 37.165C125.768 37.777 125.893 38.304 126.142 38.746C126.403 39.1767 126.737 39.511 127.145 39.749C127.564 39.9757 128.012 40.089 128.488 40.089ZM138.713 41.772C137.84 41.772 137.07 41.5737 136.401 41.177C135.732 40.7803 135.205 40.2363 134.82 39.545C134.435 38.8423 134.242 38.049 134.242 37.165C134.242 36.281 134.435 35.4933 134.82 34.802C135.205 34.0993 135.732 33.5497 136.401 33.153C137.07 32.7563 137.84 32.558 138.713 32.558C139.676 32.558 140.487 32.7733 141.144 33.204C141.813 33.6347 142.289 34.2183 142.572 34.955L140.906 35.635C140.509 34.7057 139.767 34.241 138.679 34.241C138.203 34.241 137.767 34.3657 137.37 34.615C136.973 34.853 136.656 35.193 136.418 35.635C136.18 36.0657 136.061 36.5757 136.061 37.165C136.061 37.7543 136.18 38.27 136.418 38.712C136.656 39.154 136.973 39.494 137.37 39.732C137.767 39.97 138.203 40.089 138.679 40.089C139.234 40.089 139.705 39.9643 140.09 39.715C140.475 39.4543 140.776 39.103 140.991 38.661L142.623 39.375C142.317 40.0663 141.83 40.6387 141.161 41.092C140.492 41.5453 139.676 41.772 138.713 41.772ZM147.155 44.747C147.121 44.8377 147.081 44.9227 147.036 45.002C147.002 45.0813 146.979 45.138 146.968 45.172H145.013C145.07 45.0473 145.149 44.866 145.251 44.628C145.364 44.4013 145.472 44.1803 145.574 43.965C145.676 43.7497 145.784 43.506 145.897 43.234C146.022 42.962 146.146 42.6957 146.271 42.435L146.917 41.024L143.296 32.83H145.336L147.818 38.746H147.903L150.3 32.83H152.323L147.835 43.166C147.71 43.4607 147.574 43.7667 147.427 44.084C147.291 44.4127 147.2 44.6337 147.155 44.747Z" fill="white"/>
<rect x="0.5" y="0.5" width="172" height="54" rx="27" stroke="#747775"/>
<defs>
<linearGradient id="paint0_linear_1819_24453" x1="37.2843" y1="34.0448" x2="18.7823" y2="55.7227" gradientUnits="userSpaceOnUse">
<stop stop-color="#4285F4"/>
<stop offset="1" stop-color="#1B74E8"/>
</linearGradient>
</defs>
</svg>
