<svg width="218" height="55" viewBox="0 0 218 55" fill="none" xmlns="http://www.w3.org/2000/svg">
<rect x="0.5" y="0.5" width="217" height="54" rx="27" fill="#1F1F1F"/>
<path d="M57 23.791H21V18.1456C21 15.0809 23.6422 12.5001 26.7798 12.5001H51.2202C54.3578 12.5001 57 15.0809 57 18.1456V23.791Z" fill="#34A853"/>
<path d="M57 29H21V23C21 19.7429 23.6422 17 26.7798 17H51.2202C54.3578 17 57 19.7429 57 23V29Z" fill="#FBBC04"/>
<path d="M57 34H21V28C21 24.7429 23.6422 22 26.7798 22H51.2202C54.3578 22 57 24.7429 57 28V34Z" fill="#EA4335"/>
<path d="M21 25.2409L43.8493 30.4025C46.4795 31.0477 49.4384 30.4025 51.5753 28.7895L57 24.9183V37.0157C57 40.0804 54.3699 42.4999 51.2466 42.4999H26.7534C23.6301 42.4999 21 40.0804 21 37.0157V25.2409Z" fill="url(#paint0_linear_1819_24852)"/>
<path d="M71.951 21.5V13.544H69.338V12.192H75.968V13.544H73.368V21.5H71.951ZM79.1978 21.708C78.5131 21.708 77.9108 21.552 77.3908 21.24C76.8708 20.928 76.4635 20.5077 76.1688 19.979C75.8741 19.4503 75.7268 18.8523 75.7268 18.185C75.7268 17.5263 75.8741 16.9327 76.1688 16.404C76.4635 15.8667 76.8708 15.442 77.3908 15.13C77.9108 14.818 78.5131 14.662 79.1978 14.662C79.8738 14.662 80.4718 14.818 80.9918 15.13C81.5118 15.442 81.9191 15.8667 82.2138 16.404C82.5085 16.9327 82.6558 17.5263 82.6558 18.185C82.6558 18.8523 82.5085 19.4503 82.2138 19.979C81.9191 20.5077 81.5118 20.928 80.9918 21.24C80.4718 21.552 79.8738 21.708 79.1978 21.708ZM79.1978 20.46C79.5618 20.46 79.9041 20.3733 80.2248 20.2C80.5455 20.018 80.8055 19.758 81.0048 19.42C81.2041 19.082 81.3038 18.6703 81.3038 18.185C81.3038 17.7083 81.2041 17.301 81.0048 16.963C80.8141 16.625 80.5585 16.365 80.2378 16.183C79.9171 16.001 79.5705 15.91 79.1978 15.91C78.8251 15.91 78.4741 16.001 78.1448 16.183C77.8241 16.365 77.5641 16.625 77.3648 16.963C77.1741 17.301 77.0788 17.7083 77.0788 18.185C77.0788 18.6617 77.1741 19.069 77.3648 19.407C77.5641 19.745 77.8241 20.005 78.1448 20.187C78.4741 20.369 78.8251 20.46 79.1978 20.46ZM76.4028 18.718V17.613H81.9278V18.718H76.4028ZM83.8219 21.5V14.87H85.4859L87.5269 18.926H87.5919L89.6459 14.87H91.2709V21.5H89.9319V18.276L89.9969 17.002H89.9189L88.0079 20.655H87.0849L85.1739 17.002H85.0959L85.1609 18.276V21.5H83.8219ZM95.9683 21.708C95.2836 21.708 94.6813 21.552 94.1613 21.24C93.6413 20.928 93.234 20.5077 92.9393 19.979C92.6446 19.4503 92.4973 18.8523 92.4973 18.185C92.4973 17.5263 92.6446 16.9327 92.9393 16.404C93.234 15.8667 93.6413 15.442 94.1613 15.13C94.6813 14.818 95.2836 14.662 95.9683 14.662C96.6443 14.662 97.2423 14.818 97.7623 15.13C98.2823 15.442 98.6896 15.8667 98.9843 16.404C99.279 16.9327 99.4263 17.5263 99.4263 18.185C99.4263 18.8523 99.279 19.4503 98.9843 19.979C98.6896 20.5077 98.2823 20.928 97.7623 21.24C97.2423 21.552 96.6443 21.708 95.9683 21.708ZM95.9683 20.46C96.3323 20.46 96.6746 20.3733 96.9953 20.2C97.316 20.018 97.576 19.758 97.7753 19.42C97.9746 19.082 98.0743 18.6703 98.0743 18.185C98.0743 17.7083 97.9746 17.301 97.7753 16.963C97.5846 16.625 97.329 16.365 97.0083 16.183C96.6876 16.001 96.341 15.91 95.9683 15.91C95.5956 15.91 95.2446 16.001 94.9153 16.183C94.5946 16.365 94.3346 16.625 94.1353 16.963C93.9446 17.301 93.8493 17.7083 93.8493 18.185C93.8493 18.6617 93.9446 19.069 94.1353 19.407C94.3346 19.745 94.5946 20.005 94.9153 20.187C95.2446 20.369 95.5956 20.46 95.9683 20.46ZM93.1733 18.718V17.613H98.6983V18.718H93.1733ZM100.592 21.5V14.87H101.996V17.535H105.142V14.87H106.546V21.5H105.142V18.757H101.996V21.5H100.592ZM108.184 21.5V14.87H109.588V17.808H109.666L112.266 14.87H113.878V14.948L111.109 17.977L113.982 21.422V21.5H112.318L109.666 18.237H109.588V21.5H108.184ZM116.926 24.308V21.5L114.248 14.87H115.795L117.641 19.823H117.654L119.526 14.87H121.047L118.33 21.5V24.308H116.926ZM121.669 21.604C121.47 21.604 121.279 21.5823 121.097 21.539V20.239C121.218 20.2997 121.353 20.33 121.5 20.33C121.795 20.33 122.003 20.2173 122.124 19.992C122.245 19.758 122.319 19.4633 122.345 19.108C122.371 18.7527 122.384 18.3843 122.384 18.003V14.87H127.454V21.5H126.063V16.092H123.71V18.224C123.71 18.6747 123.68 19.1037 123.619 19.511C123.567 19.9097 123.467 20.2693 123.32 20.59C123.173 20.902 122.965 21.149 122.696 21.331C122.436 21.513 122.094 21.604 121.669 21.604ZM132.163 21.708C131.478 21.708 130.876 21.552 130.356 21.24C129.836 20.928 129.428 20.5077 129.134 19.979C128.839 19.4503 128.692 18.8523 128.692 18.185C128.692 17.5263 128.839 16.9327 129.134 16.404C129.428 15.8667 129.836 15.442 130.356 15.13C130.876 14.818 131.478 14.662 132.163 14.662C132.839 14.662 133.437 14.818 133.957 15.13C134.477 15.442 134.884 15.8667 135.179 16.404C135.473 16.9327 135.621 17.5263 135.621 18.185C135.621 18.8523 135.473 19.4503 135.179 19.979C134.884 20.5077 134.477 20.928 133.957 21.24C133.437 21.552 132.839 21.708 132.163 21.708ZM132.163 20.46C132.527 20.46 132.869 20.3733 133.19 20.2C133.51 20.018 133.77 19.758 133.97 19.42C134.169 19.082 134.269 18.6703 134.269 18.185C134.269 17.7083 134.169 17.301 133.97 16.963C133.779 16.625 133.523 16.365 133.203 16.183C132.882 16.001 132.535 15.91 132.163 15.91C131.79 15.91 131.439 16.001 131.11 16.183C130.789 16.365 130.529 16.625 130.33 16.963C130.139 17.301 130.044 17.7083 130.044 18.185C130.044 18.6617 130.139 19.069 130.33 19.407C130.529 19.745 130.789 20.005 131.11 20.187C131.439 20.369 131.79 20.46 132.163 20.46ZM129.368 18.718V17.613H134.893V18.718H129.368ZM136.837 24.308V14.87H138.15V15.767H138.228C138.402 15.481 138.67 15.2253 139.034 15C139.407 14.7747 139.849 14.662 140.36 14.662C140.967 14.662 141.509 14.8137 141.985 15.117C142.462 15.4203 142.839 15.8363 143.116 16.365C143.402 16.8937 143.545 17.5003 143.545 18.185C143.545 18.8697 143.402 19.4807 143.116 20.018C142.839 20.5467 142.462 20.9627 141.985 21.266C141.509 21.5607 140.967 21.708 140.36 21.708C139.849 21.708 139.407 21.5997 139.034 21.383C138.67 21.1577 138.402 20.902 138.228 20.616H138.15L138.228 21.539V24.308H136.837ZM140.152 20.421C140.499 20.421 140.824 20.33 141.127 20.148C141.431 19.966 141.678 19.7103 141.868 19.381C142.059 19.043 142.154 18.6443 142.154 18.185C142.154 17.7257 142.059 17.3313 141.868 17.002C141.678 16.664 141.431 16.404 141.127 16.222C140.824 16.04 140.499 15.949 140.152 15.949C139.806 15.949 139.481 16.04 139.177 16.222C138.874 16.404 138.627 16.664 138.436 17.002C138.246 17.3313 138.15 17.7257 138.15 18.185C138.15 18.6443 138.246 19.043 138.436 19.381C138.627 19.7103 138.874 19.966 139.177 20.148C139.481 20.33 139.806 20.421 140.152 20.421ZM144.747 21.5V14.87H149.089V16.092H146.151V21.5H144.747ZM152.97 21.708C152.286 21.708 151.683 21.552 151.163 21.24C150.643 20.928 150.236 20.5077 149.941 19.979C149.647 19.4503 149.499 18.8523 149.499 18.185C149.499 17.5263 149.647 16.9327 149.941 16.404C150.236 15.8667 150.643 15.442 151.163 15.13C151.683 14.818 152.286 14.662 152.97 14.662C153.646 14.662 154.244 14.818 154.764 15.13C155.284 15.442 155.692 15.8667 155.986 16.404C156.281 16.9327 156.428 17.5263 156.428 18.185C156.428 18.8523 156.281 19.4503 155.986 19.979C155.692 20.5077 155.284 20.928 154.764 21.24C154.244 21.552 153.646 21.708 152.97 21.708ZM152.97 20.46C153.334 20.46 153.677 20.3733 153.997 20.2C154.318 20.018 154.578 19.758 154.777 19.42C154.977 19.082 155.076 18.6703 155.076 18.185C155.076 17.7083 154.977 17.301 154.777 16.963C154.587 16.625 154.331 16.365 154.01 16.183C153.69 16.001 153.343 15.91 152.97 15.91C152.598 15.91 152.247 16.001 151.917 16.183C151.597 16.365 151.337 16.625 151.137 16.963C150.947 17.301 150.851 17.7083 150.851 18.185C150.851 18.6617 150.947 19.069 151.137 19.407C151.337 19.745 151.597 20.005 151.917 20.187C152.247 20.369 152.598 20.46 152.97 20.46ZM150.175 18.718V17.613H155.7V18.718H150.175ZM160.756 21.5V14.87H162.16V17.808H162.238L164.838 14.87H166.45V14.948L163.681 17.977L166.554 21.422V21.5H164.89L162.238 18.237H162.16V21.5H160.756ZM170.414 21.708C169.729 21.708 169.127 21.552 168.607 21.24C168.087 20.928 167.679 20.5077 167.385 19.979C167.09 19.4503 166.943 18.8523 166.943 18.185C166.943 17.5263 167.09 16.9327 167.385 16.404C167.679 15.8667 168.087 15.442 168.607 15.13C169.127 14.818 169.729 14.662 170.414 14.662C171.09 14.662 171.688 14.818 172.208 15.13C172.728 15.442 173.135 15.8667 173.43 16.404C173.724 16.9327 173.872 17.5263 173.872 18.185C173.872 18.8523 173.724 19.4503 173.43 19.979C173.135 20.5077 172.728 20.928 172.208 21.24C171.688 21.552 171.09 21.708 170.414 21.708ZM170.414 20.421C170.778 20.421 171.116 20.3343 171.428 20.161C171.74 19.979 171.991 19.7233 172.182 19.394C172.381 19.056 172.481 18.653 172.481 18.185C172.481 17.717 172.381 17.3183 172.182 16.989C171.991 16.651 171.74 16.3953 171.428 16.222C171.116 16.04 170.778 15.949 170.414 15.949C170.05 15.949 169.707 16.04 169.387 16.222C169.075 16.3953 168.819 16.651 168.62 16.989C168.429 17.3183 168.334 17.717 168.334 18.185C168.334 18.653 168.429 19.056 168.62 19.394C168.819 19.7233 169.075 19.979 169.387 20.161C169.707 20.3343 170.05 20.421 170.414 20.421ZM175.038 21.5V14.87H176.429V20.278H178.613V14.87H180.004V20.278H182.188V14.87H183.579V21.5H175.038ZM187.494 23.983C187.468 24.0523 187.438 24.1173 187.403 24.178C187.377 24.2387 187.36 24.282 187.351 24.308H185.856C185.899 24.2127 185.96 24.074 186.038 23.892C186.125 23.7187 186.207 23.5497 186.285 23.385C186.363 23.2203 186.445 23.034 186.532 22.826C186.627 22.618 186.723 22.4143 186.818 22.215L187.312 21.136L184.543 14.87H186.103L188.001 19.394H188.066L189.899 14.87H191.446L188.014 22.774C187.919 22.9993 187.815 23.2333 187.702 23.476C187.598 23.7273 187.529 23.8963 187.494 23.983ZM194.718 23.983C194.692 24.0523 194.661 24.1173 194.627 24.178C194.601 24.2387 194.583 24.282 194.575 24.308H193.08C193.123 24.2127 193.184 24.074 193.262 23.892C193.348 23.7187 193.431 23.5497 193.509 23.385C193.587 23.2203 193.669 23.034 193.756 22.826C193.851 22.618 193.946 22.4143 194.042 22.215L194.536 21.136L191.767 14.87H193.327L195.225 19.394H195.29L197.123 14.87H198.67L195.238 22.774C195.142 22.9993 195.038 23.2333 194.926 23.476C194.822 23.7273 194.752 23.8963 194.718 23.983Z" fill="white"/>
<path d="M76.14 41.772C75.2673 41.772 74.4457 41.6133 73.675 41.296C72.9157 40.9787 72.2413 40.5367 71.652 39.97C71.0627 39.392 70.598 38.7177 70.258 37.947C69.9293 37.165 69.765 36.3207 69.765 35.414C69.765 34.5073 69.9293 33.6687 70.258 32.898C70.598 32.116 71.057 31.4417 71.635 30.875C72.2243 30.297 72.9043 29.8493 73.675 29.532C74.4457 29.2147 75.2673 29.056 76.14 29.056C77.0693 29.056 77.925 29.2203 78.707 29.549C79.5003 29.8777 80.1633 30.3367 80.696 30.926L79.404 32.201C79.0073 31.759 78.5313 31.419 77.976 31.181C77.432 30.943 76.82 30.824 76.14 30.824C75.3353 30.824 74.593 31.0167 73.913 31.402C73.233 31.776 72.6833 32.3087 72.264 33C71.856 33.68 71.652 34.4847 71.652 35.414C71.652 36.3433 71.8617 37.1537 72.281 37.845C72.7003 38.525 73.25 39.0577 73.93 39.443C74.61 39.817 75.3523 40.004 76.157 40.004C76.8937 40.004 77.5623 39.868 78.163 39.596C78.7637 39.3127 79.2453 38.916 79.608 38.406C79.982 37.896 80.2087 37.284 80.288 36.57H76.123V34.921H82.039C82.107 35.227 82.141 35.55 82.141 35.89V35.907C82.141 37.0857 81.8803 38.117 81.359 39.001C80.849 39.8737 80.1407 40.5537 79.234 41.041C78.3273 41.5283 77.296 41.772 76.14 41.772ZM87.6149 41.772C86.7195 41.772 85.9319 41.568 85.2519 41.16C84.5719 40.752 84.0392 40.2023 83.6539 39.511C83.2685 38.8197 83.0759 38.0377 83.0759 37.165C83.0759 36.3037 83.2685 35.5273 83.6539 34.836C84.0392 34.1333 84.5719 33.578 85.2519 33.17C85.9319 32.762 86.7195 32.558 87.6149 32.558C88.4989 32.558 89.2809 32.762 89.9609 33.17C90.6409 33.578 91.1735 34.1333 91.5589 34.836C91.9442 35.5273 92.1369 36.3037 92.1369 37.165C92.1369 38.0377 91.9442 38.8197 91.5589 39.511C91.1735 40.2023 90.6409 40.752 89.9609 41.16C89.2809 41.568 88.4989 41.772 87.6149 41.772ZM87.6149 40.089C88.0909 40.089 88.5329 39.9757 88.9409 39.749C89.3489 39.511 89.6775 39.1767 89.9269 38.746C90.1875 38.304 90.3179 37.777 90.3179 37.165C90.3179 36.553 90.1875 36.0317 89.9269 35.601C89.6775 35.159 89.3489 34.8247 88.9409 34.598C88.5329 34.36 88.0909 34.241 87.6149 34.241C87.1389 34.241 86.6912 34.36 86.2719 34.598C85.8639 34.8247 85.5295 35.159 85.2689 35.601C85.0195 36.0317 84.8949 36.553 84.8949 37.165C84.8949 37.777 85.0195 38.304 85.2689 38.746C85.5295 39.1767 85.8639 39.511 86.2719 39.749C86.6912 39.9757 87.1389 40.089 87.6149 40.089ZM97.9078 41.772C97.0125 41.772 96.2248 41.568 95.5448 41.16C94.8648 40.752 94.3322 40.2023 93.9468 39.511C93.5615 38.8197 93.3688 38.0377 93.3688 37.165C93.3688 36.3037 93.5615 35.5273 93.9468 34.836C94.3322 34.1333 94.8648 33.578 95.5448 33.17C96.2248 32.762 97.0125 32.558 97.9078 32.558C98.7918 32.558 99.5738 32.762 100.254 33.17C100.934 33.578 101.467 34.1333 101.852 34.836C102.237 35.5273 102.43 36.3037 102.43 37.165C102.43 38.0377 102.237 38.8197 101.852 39.511C101.467 40.2023 100.934 40.752 100.254 41.16C99.5738 41.568 98.7918 41.772 97.9078 41.772ZM97.9078 40.089C98.3838 40.089 98.8258 39.9757 99.2338 39.749C99.6418 39.511 99.9705 39.1767 100.22 38.746C100.481 38.304 100.611 37.777 100.611 37.165C100.611 36.553 100.481 36.0317 100.22 35.601C99.9705 35.159 99.6418 34.8247 99.2338 34.598C98.8258 34.36 98.3838 34.241 97.9078 34.241C97.4318 34.241 96.9842 34.36 96.5648 34.598C96.1568 34.8247 95.8225 35.159 95.5618 35.601C95.3125 36.0317 95.1878 36.553 95.1878 37.165C95.1878 37.777 95.3125 38.304 95.5618 38.746C95.8225 39.1767 96.1568 39.511 96.5648 39.749C96.9842 39.9757 97.4318 40.089 97.9078 40.089ZM108.031 45.444C107.271 45.444 106.614 45.3193 106.059 45.07C105.515 44.832 105.073 44.5203 104.733 44.135C104.393 43.761 104.149 43.3757 104.002 42.979L105.702 42.265C105.883 42.7183 106.172 43.0867 106.569 43.37C106.977 43.6647 107.464 43.812 108.031 43.812C108.824 43.812 109.447 43.574 109.901 43.098C110.365 42.622 110.598 41.9477 110.598 41.075V40.242H110.496C110.224 40.65 109.844 40.9787 109.357 41.228C108.881 41.466 108.337 41.585 107.725 41.585C106.988 41.585 106.314 41.398 105.702 41.024C105.09 40.65 104.597 40.1287 104.223 39.46C103.849 38.78 103.662 37.9867 103.662 37.08C103.662 36.162 103.849 35.3687 104.223 34.7C104.597 34.02 105.09 33.493 105.702 33.119C106.314 32.745 106.988 32.558 107.725 32.558C108.337 32.558 108.881 32.6827 109.357 32.932C109.844 33.1813 110.224 33.51 110.496 33.918H110.598V32.83H112.349V41.041C112.349 41.9817 112.162 42.7807 111.788 43.438C111.425 44.0953 110.921 44.594 110.275 44.934C109.629 45.274 108.881 45.444 108.031 45.444ZM108.048 39.919C108.501 39.919 108.92 39.8113 109.306 39.596C109.691 39.3693 110.003 39.0463 110.241 38.627C110.479 38.1963 110.598 37.6807 110.598 37.08C110.598 36.4567 110.479 35.9353 110.241 35.516C110.003 35.0853 109.691 34.7623 109.306 34.547C108.92 34.3317 108.501 34.224 108.048 34.224C107.594 34.224 107.169 34.3373 106.773 34.564C106.387 34.7793 106.076 35.0967 105.838 35.516C105.6 35.9353 105.481 36.4567 105.481 37.08C105.481 37.692 105.6 38.2133 105.838 38.644C106.076 39.0633 106.387 39.3807 106.773 39.596C107.169 39.8113 107.594 39.919 108.048 39.919ZM114.514 41.5V29.328H116.35V41.5H114.514ZM122.392 41.772C121.542 41.772 120.783 41.5737 120.114 41.177C119.446 40.7803 118.919 40.2363 118.533 39.545C118.159 38.8537 117.972 38.066 117.972 37.182C117.972 36.3547 118.154 35.5897 118.516 34.887C118.879 34.1843 119.383 33.6233 120.029 33.204C120.687 32.7733 121.44 32.558 122.29 32.558C123.186 32.558 123.945 32.7507 124.568 33.136C125.203 33.5213 125.685 34.0483 126.013 34.717C126.342 35.3857 126.506 36.1393 126.506 36.978C126.506 37.1027 126.501 37.216 126.489 37.318C126.489 37.42 126.484 37.4993 126.472 37.556H119.774C119.865 38.4173 120.165 39.0633 120.675 39.494C121.197 39.9247 121.786 40.14 122.443 40.14C123.033 40.14 123.52 40.0097 123.905 39.749C124.291 39.477 124.597 39.1427 124.823 38.746L126.336 39.477C125.962 40.157 125.452 40.7123 124.806 41.143C124.16 41.5623 123.356 41.772 122.392 41.772ZM122.307 34.122C121.695 34.122 121.174 34.309 120.743 34.683C120.313 35.057 120.024 35.5557 119.876 36.179H124.687C124.665 35.8843 124.568 35.5783 124.398 35.261C124.228 34.9437 123.968 34.6773 123.616 34.462C123.276 34.2353 122.84 34.122 122.307 34.122ZM133.979 41.5L130.715 29.328H132.789L134.727 37.233L134.931 38.287H135.033L135.288 37.233L137.736 29.328H139.606L141.952 37.233L142.207 38.27H142.309L142.513 37.233L144.451 29.328H146.508L143.295 41.5H141.323L138.994 33.425L138.722 32.286H138.62L138.331 33.425L135.9 41.5H133.979ZM149.922 41.772C149.299 41.772 148.743 41.653 148.256 41.415C147.769 41.1657 147.389 40.82 147.117 40.378C146.845 39.936 146.709 39.4317 146.709 38.865C146.709 38.253 146.868 37.7317 147.185 37.301C147.514 36.859 147.95 36.5247 148.494 36.298C149.038 36.0713 149.639 35.958 150.296 35.958C150.84 35.958 151.316 36.009 151.724 36.111C152.143 36.213 152.461 36.3207 152.676 36.434V35.975C152.676 35.4083 152.472 34.955 152.064 34.615C151.656 34.275 151.129 34.105 150.483 34.105C150.041 34.105 149.622 34.207 149.225 34.411C148.828 34.6037 148.511 34.87 148.273 35.21L147.015 34.241C147.389 33.7197 147.882 33.3117 148.494 33.017C149.117 32.711 149.797 32.558 150.534 32.558C151.792 32.558 152.761 32.8697 153.441 33.493C154.121 34.105 154.461 34.9663 154.461 36.077V41.5H152.676V40.429H152.574C152.347 40.7803 152.007 41.092 151.554 41.364C151.101 41.636 150.557 41.772 149.922 41.772ZM150.245 40.276C150.721 40.276 151.14 40.1627 151.503 39.936C151.866 39.7093 152.149 39.4147 152.353 39.052C152.568 38.678 152.676 38.2757 152.676 37.845C152.415 37.6977 152.109 37.5787 151.758 37.488C151.407 37.386 151.033 37.335 150.636 37.335C149.888 37.335 149.355 37.488 149.038 37.794C148.721 38.0887 148.562 38.4513 148.562 38.882C148.562 39.29 148.715 39.6243 149.021 39.885C149.327 40.1457 149.735 40.276 150.245 40.276ZM156.499 41.5V29.328H158.335V41.5H156.499ZM160.517 41.5V29.328H162.353V41.5H160.517ZM168.395 41.772C167.545 41.772 166.786 41.5737 166.117 41.177C165.449 40.7803 164.922 40.2363 164.536 39.545C164.162 38.8537 163.975 38.066 163.975 37.182C163.975 36.3547 164.157 35.5897 164.519 34.887C164.882 34.1843 165.386 33.6233 166.032 33.204C166.69 32.7733 167.443 32.558 168.293 32.558C169.189 32.558 169.948 32.7507 170.571 33.136C171.206 33.5213 171.688 34.0483 172.016 34.717C172.345 35.3857 172.509 36.1393 172.509 36.978C172.509 37.1027 172.504 37.216 172.492 37.318C172.492 37.42 172.487 37.4993 172.475 37.556H165.777C165.868 38.4173 166.168 39.0633 166.678 39.494C167.2 39.9247 167.789 40.14 168.446 40.14C169.036 40.14 169.523 40.0097 169.908 39.749C170.294 39.477 170.6 39.1427 170.826 38.746L172.339 39.477C171.965 40.157 171.455 40.7123 170.809 41.143C170.163 41.5623 169.359 41.772 168.395 41.772ZM168.31 34.122C167.698 34.122 167.177 34.309 166.746 34.683C166.316 35.057 166.027 35.5557 165.879 36.179H170.69C170.668 35.8843 170.571 35.5783 170.401 35.261C170.231 34.9437 169.971 34.6773 169.619 34.462C169.279 34.2353 168.843 34.122 168.31 34.122ZM174.882 38.984V34.428H173.369V32.83H174.882V30.382H176.718V32.83H178.843V34.428H176.718V38.593C176.718 39.0237 176.803 39.3523 176.973 39.579C177.154 39.8057 177.454 39.919 177.874 39.919C178.089 39.919 178.27 39.8907 178.418 39.834C178.576 39.7773 178.735 39.698 178.894 39.596V41.381C178.701 41.4603 178.497 41.5227 178.282 41.568C178.066 41.6133 177.811 41.636 177.517 41.636C176.712 41.636 176.072 41.4037 175.596 40.939C175.12 40.463 174.882 39.8113 174.882 38.984Z" fill="white"/>
<rect x="0.5" y="0.5" width="217" height="54" rx="27" stroke="#747775"/>
<defs>
<linearGradient id="paint0_linear_1819_24852" x1="37.2843" y1="34.0448" x2="18.7823" y2="55.7227" gradientUnits="userSpaceOnUse">
<stop stop-color="#4285F4"/>
<stop offset="1" stop-color="#1B74E8"/>
</linearGradient>
</defs>
</svg>
