<svg width="213" height="55" viewBox="0 0 213 55" fill="none" xmlns="http://www.w3.org/2000/svg">
<rect x="0.5" y="0.5" width="212" height="54" rx="27" fill="#1F1F1F"/>
<path d="M57 23.791H21V18.1456C21 15.0809 23.6422 12.5001 26.7798 12.5001H51.2202C54.3578 12.5001 57 15.0809 57 18.1456V23.791Z" fill="#34A853"/>
<path d="M57 29H21V23C21 19.7429 23.6422 17 26.7798 17H51.2202C54.3578 17 57 19.7429 57 23V29Z" fill="#FBBC04"/>
<path d="M57 34H21V28C21 24.7429 23.6422 22 26.7798 22H51.2202C54.3578 22 57 24.7429 57 28V34Z" fill="#EA4335"/>
<path d="M21 25.2409L43.8493 30.4025C46.4795 31.0477 49.4384 30.4025 51.5753 28.7895L57 24.9183V37.0157C57 40.0804 54.3699 42.4999 51.2466 42.4999H26.7534C23.6301 42.4999 21 40.0804 21 37.0157V25.2409Z" fill="url(#paint0_linear_1819_24491)"/>
<path d="M70.053 21.5V12.192H73.251C73.8143 12.192 74.3257 12.3133 74.785 12.556C75.2443 12.7987 75.6083 13.1323 75.877 13.557C76.1543 13.9817 76.293 14.4757 76.293 15.039C76.293 15.6023 76.1543 16.1007 75.877 16.534C75.6083 16.9587 75.2443 17.2923 74.785 17.535C74.3257 17.769 73.8143 17.886 73.251 17.886H71.483V21.5H70.053ZM73.29 13.544H71.483V16.534H73.29C73.628 16.534 73.914 16.4647 74.148 16.326C74.382 16.1787 74.5597 15.9923 74.681 15.767C74.811 15.533 74.876 15.2903 74.876 15.039C74.876 14.7877 74.811 14.5493 74.681 14.324C74.5597 14.0987 74.382 13.9123 74.148 13.765C73.914 13.6177 73.628 13.544 73.29 13.544ZM77.5251 21.5V14.87H78.8511V15.845H78.9291C79.0764 15.507 79.3277 15.2297 79.6831 15.013C80.0471 14.7877 80.4371 14.675 80.8531 14.675C81.0351 14.675 81.1867 14.688 81.3081 14.714C81.4381 14.74 81.5551 14.7703 81.6591 14.805V16.261C81.4944 16.1917 81.3254 16.1353 81.1521 16.092C80.9874 16.0487 80.8141 16.027 80.6321 16.027C80.3027 16.027 80.0081 16.118 79.7481 16.3C79.4967 16.4733 79.2974 16.7117 79.1501 17.015C79.0027 17.3097 78.9291 17.6347 78.9291 17.99V21.5H77.5251ZM83.5488 13.895C83.2888 13.895 83.0635 13.804 82.8728 13.622C82.6908 13.4313 82.5998 13.206 82.5998 12.946C82.5998 12.686 82.6908 12.465 82.8728 12.283C83.0635 12.101 83.2888 12.01 83.5488 12.01C83.8088 12.01 84.0298 12.101 84.2118 12.283C84.4025 12.465 84.4978 12.686 84.4978 12.946C84.4978 13.206 84.4025 13.4313 84.2118 13.622C84.0298 13.804 83.8088 13.895 83.5488 13.895ZM82.8468 21.5V14.87H84.2508V21.5H82.8468ZM88.7634 21.708C88.1654 21.708 87.6237 21.5607 87.1384 21.266C86.6617 20.9627 86.2804 20.5467 85.9944 20.018C85.717 19.4807 85.5784 18.8697 85.5784 18.185C85.5784 17.5003 85.717 16.8937 85.9944 16.365C86.2804 15.8363 86.6617 15.4203 87.1384 15.117C87.6237 14.8137 88.1654 14.662 88.7634 14.662C89.2747 14.662 89.7124 14.7747 90.0764 15C90.449 15.2253 90.722 15.481 90.8954 15.767H90.9734L90.8954 14.844V12.192H92.2864V21.5H90.9734V20.616H90.8954C90.722 20.902 90.449 21.1577 90.0764 21.383C89.7124 21.5997 89.2747 21.708 88.7634 21.708ZM88.9714 20.421C89.318 20.421 89.643 20.33 89.9464 20.148C90.2584 19.966 90.5054 19.7103 90.6874 19.381C90.878 19.043 90.9734 18.6443 90.9734 18.185C90.9734 17.7257 90.878 17.3313 90.6874 17.002C90.5054 16.664 90.2584 16.404 89.9464 16.222C89.643 16.04 89.318 15.949 88.9714 15.949C88.6247 15.949 88.2997 16.04 87.9964 16.222C87.693 16.404 87.446 16.664 87.2554 17.002C87.0647 17.3313 86.9694 17.7257 86.9694 18.185C86.9694 18.6443 87.0647 19.043 87.2554 19.381C87.446 19.7103 87.693 19.966 87.9964 20.148C88.2997 20.33 88.6247 20.421 88.9714 20.421ZM96.9056 21.708C96.2556 21.708 95.675 21.5563 95.1636 21.253C94.6523 20.9497 94.2493 20.5337 93.9546 20.005C93.6686 19.4763 93.5256 18.874 93.5256 18.198C93.5256 17.5653 93.6643 16.9803 93.9416 16.443C94.219 15.9057 94.6046 15.4767 95.0986 15.156C95.6013 14.8267 96.1776 14.662 96.8276 14.662C97.5123 14.662 98.093 14.8093 98.5696 15.104C99.055 15.3987 99.4233 15.8017 99.6746 16.313C99.926 16.8243 100.052 17.4007 100.052 18.042C100.052 18.1373 100.047 18.224 100.039 18.302C100.039 18.38 100.034 18.4407 100.026 18.484H94.9036C94.973 19.1427 95.2026 19.6367 95.5926 19.966C95.9913 20.2953 96.442 20.46 96.9446 20.46C97.3953 20.46 97.768 20.3603 98.0626 20.161C98.3573 19.953 98.5913 19.6973 98.7646 19.394L99.9216 19.953C99.6356 20.473 99.2456 20.8977 98.7516 21.227C98.2576 21.5477 97.6423 21.708 96.9056 21.708ZM96.8406 15.858C96.3726 15.858 95.974 16.001 95.6446 16.287C95.3153 16.573 95.0943 16.9543 94.9816 17.431H98.6606C98.6433 17.2057 98.5696 16.9717 98.4396 16.729C98.3096 16.4863 98.1103 16.2827 97.8416 16.118C97.5816 15.9447 97.248 15.858 96.8406 15.858ZM96.8276 13.57C96.6023 13.57 96.4073 13.4877 96.2426 13.323C96.078 13.1583 95.9956 12.959 95.9956 12.725C95.9956 12.491 96.078 12.296 96.2426 12.14C96.4073 11.9753 96.6023 11.893 96.8276 11.893C97.0703 11.893 97.2696 11.9753 97.4256 12.14C97.5816 12.296 97.6596 12.491 97.6596 12.725C97.6596 12.959 97.5816 13.1583 97.4256 13.323C97.2696 13.4877 97.0703 13.57 96.8276 13.57ZM101.866 19.576V16.092H100.709V14.87H101.866V12.998H103.27V14.87H104.895V16.092H103.27V19.277C103.27 19.6063 103.335 19.8577 103.465 20.031C103.603 20.2043 103.833 20.291 104.154 20.291C104.318 20.291 104.457 20.2693 104.57 20.226C104.691 20.1827 104.812 20.122 104.934 20.044V21.409C104.786 21.4697 104.63 21.5173 104.466 21.552C104.301 21.5867 104.106 21.604 103.881 21.604C103.265 21.604 102.776 21.4263 102.412 21.071C102.048 20.707 101.866 20.2087 101.866 19.576ZM107.111 13.895C106.851 13.895 106.626 13.804 106.435 13.622C106.253 13.4313 106.162 13.206 106.162 12.946C106.162 12.686 106.253 12.465 106.435 12.283C106.626 12.101 106.851 12.01 107.111 12.01C107.371 12.01 107.592 12.101 107.774 12.283C107.965 12.465 108.06 12.686 108.06 12.946C108.06 13.206 107.965 13.4313 107.774 13.622C107.592 13.804 107.371 13.895 107.111 13.895ZM106.409 21.5V14.87H107.813V21.5H106.409ZM112.577 24.308V14.87H113.89V15.767H113.968C114.141 15.481 114.41 15.2253 114.774 15C115.146 14.7747 115.588 14.662 116.1 14.662C116.706 14.662 117.248 14.8137 117.725 15.117C118.201 15.4203 118.578 15.8363 118.856 16.365C119.142 16.8937 119.285 17.5003 119.285 18.185C119.285 18.8697 119.142 19.4807 118.856 20.018C118.578 20.5467 118.201 20.9627 117.725 21.266C117.248 21.5607 116.706 21.708 116.1 21.708C115.588 21.708 115.146 21.5997 114.774 21.383C114.41 21.1577 114.141 20.902 113.968 20.616H113.89L113.968 21.539V24.308H112.577ZM115.892 20.421C116.238 20.421 116.563 20.33 116.867 20.148C117.17 19.966 117.417 19.7103 117.608 19.381C117.798 19.043 117.894 18.6443 117.894 18.185C117.894 17.7257 117.798 17.3313 117.608 17.002C117.417 16.664 117.17 16.404 116.867 16.222C116.563 16.04 116.238 15.949 115.892 15.949C115.545 15.949 115.22 16.04 114.917 16.222C114.613 16.404 114.366 16.664 114.176 17.002C113.985 17.3313 113.89 17.7257 113.89 18.185C113.89 18.6443 113.985 19.043 114.176 19.381C114.366 19.7103 114.613 19.966 114.917 20.148C115.22 20.33 115.545 20.421 115.892 20.421ZM120.511 21.5V14.87H121.837V15.845H121.915C122.063 15.507 122.314 15.2297 122.669 15.013C123.033 14.7877 123.423 14.675 123.839 14.675C124.021 14.675 124.173 14.688 124.294 14.714C124.424 14.74 124.541 14.7703 124.645 14.805V16.261C124.481 16.1917 124.312 16.1353 124.138 16.092C123.974 16.0487 123.8 16.027 123.618 16.027C123.289 16.027 122.994 16.118 122.734 16.3C122.483 16.4733 122.284 16.7117 122.136 17.015C121.989 17.3097 121.915 17.6347 121.915 17.99V21.5H120.511ZM126.535 13.895C126.275 13.895 126.05 13.804 125.859 13.622C125.677 13.4313 125.586 13.206 125.586 12.946C125.586 12.686 125.677 12.465 125.859 12.283C126.05 12.101 126.275 12.01 126.535 12.01C126.795 12.01 127.016 12.101 127.198 12.283C127.389 12.465 127.484 12.686 127.484 12.946C127.484 13.206 127.389 13.4313 127.198 13.622C127.016 13.804 126.795 13.895 126.535 13.895ZM125.833 21.5V14.87H127.237V21.5H125.833ZM131.945 21.708C131.295 21.708 130.714 21.5563 130.203 21.253C129.691 20.9497 129.288 20.5337 128.994 20.005C128.708 19.4763 128.565 18.874 128.565 18.198C128.565 17.5653 128.703 16.9803 128.981 16.443C129.258 15.9057 129.644 15.4767 130.138 15.156C130.64 14.8267 131.217 14.662 131.867 14.662C132.551 14.662 133.132 14.8093 133.609 15.104C134.094 15.3987 134.462 15.8017 134.714 16.313C134.965 16.8243 135.091 17.4007 135.091 18.042C135.091 18.1373 135.086 18.224 135.078 18.302C135.078 18.38 135.073 18.4407 135.065 18.484H129.943C130.012 19.1427 130.242 19.6367 130.632 19.966C131.03 20.2953 131.481 20.46 131.984 20.46C132.434 20.46 132.807 20.3603 133.102 20.161C133.396 19.953 133.63 19.6973 133.804 19.394L134.961 19.953C134.675 20.473 134.285 20.8977 133.791 21.227C133.297 21.5477 132.681 21.708 131.945 21.708ZM131.88 15.858C131.412 15.858 131.013 16.001 130.684 16.287C130.354 16.573 130.133 16.9543 130.021 17.431H133.7C133.682 17.2057 133.609 16.9717 133.479 16.729C133.349 16.4863 133.149 16.2827 132.881 16.118C132.621 15.9447 132.287 15.858 131.88 15.858Z" fill="white"/>
<path d="M76.14 41.772C75.2673 41.772 74.4457 41.6133 73.675 41.296C72.9157 40.9787 72.2413 40.5367 71.652 39.97C71.0627 39.392 70.598 38.7177 70.258 37.947C69.9293 37.165 69.765 36.3207 69.765 35.414C69.765 34.5073 69.9293 33.6687 70.258 32.898C70.598 32.116 71.057 31.4417 71.635 30.875C72.2243 30.297 72.9043 29.8493 73.675 29.532C74.4457 29.2147 75.2673 29.056 76.14 29.056C77.0693 29.056 77.925 29.2203 78.707 29.549C79.5003 29.8777 80.1633 30.3367 80.696 30.926L79.404 32.201C79.0073 31.759 78.5313 31.419 77.976 31.181C77.432 30.943 76.82 30.824 76.14 30.824C75.3353 30.824 74.593 31.0167 73.913 31.402C73.233 31.776 72.6833 32.3087 72.264 33C71.856 33.68 71.652 34.4847 71.652 35.414C71.652 36.3433 71.8617 37.1537 72.281 37.845C72.7003 38.525 73.25 39.0577 73.93 39.443C74.61 39.817 75.3523 40.004 76.157 40.004C76.8937 40.004 77.5623 39.868 78.163 39.596C78.7637 39.3127 79.2453 38.916 79.608 38.406C79.982 37.896 80.2087 37.284 80.288 36.57H76.123V34.921H82.039C82.107 35.227 82.141 35.55 82.141 35.89V35.907C82.141 37.0857 81.8803 38.117 81.359 39.001C80.849 39.8737 80.1407 40.5537 79.234 41.041C78.3273 41.5283 77.296 41.772 76.14 41.772ZM87.6149 41.772C86.7195 41.772 85.9319 41.568 85.2519 41.16C84.5719 40.752 84.0392 40.2023 83.6539 39.511C83.2685 38.8197 83.0759 38.0377 83.0759 37.165C83.0759 36.3037 83.2685 35.5273 83.6539 34.836C84.0392 34.1333 84.5719 33.578 85.2519 33.17C85.9319 32.762 86.7195 32.558 87.6149 32.558C88.4989 32.558 89.2809 32.762 89.9609 33.17C90.6409 33.578 91.1735 34.1333 91.5589 34.836C91.9442 35.5273 92.1369 36.3037 92.1369 37.165C92.1369 38.0377 91.9442 38.8197 91.5589 39.511C91.1735 40.2023 90.6409 40.752 89.9609 41.16C89.2809 41.568 88.4989 41.772 87.6149 41.772ZM87.6149 40.089C88.0909 40.089 88.5329 39.9757 88.9409 39.749C89.3489 39.511 89.6775 39.1767 89.9269 38.746C90.1875 38.304 90.3179 37.777 90.3179 37.165C90.3179 36.553 90.1875 36.0317 89.9269 35.601C89.6775 35.159 89.3489 34.8247 88.9409 34.598C88.5329 34.36 88.0909 34.241 87.6149 34.241C87.1389 34.241 86.6912 34.36 86.2719 34.598C85.8639 34.8247 85.5295 35.159 85.2689 35.601C85.0195 36.0317 84.8949 36.553 84.8949 37.165C84.8949 37.777 85.0195 38.304 85.2689 38.746C85.5295 39.1767 85.8639 39.511 86.2719 39.749C86.6912 39.9757 87.1389 40.089 87.6149 40.089ZM97.9078 41.772C97.0125 41.772 96.2248 41.568 95.5448 41.16C94.8648 40.752 94.3322 40.2023 93.9468 39.511C93.5615 38.8197 93.3688 38.0377 93.3688 37.165C93.3688 36.3037 93.5615 35.5273 93.9468 34.836C94.3322 34.1333 94.8648 33.578 95.5448 33.17C96.2248 32.762 97.0125 32.558 97.9078 32.558C98.7918 32.558 99.5738 32.762 100.254 33.17C100.934 33.578 101.467 34.1333 101.852 34.836C102.237 35.5273 102.43 36.3037 102.43 37.165C102.43 38.0377 102.237 38.8197 101.852 39.511C101.467 40.2023 100.934 40.752 100.254 41.16C99.5738 41.568 98.7918 41.772 97.9078 41.772ZM97.9078 40.089C98.3838 40.089 98.8258 39.9757 99.2338 39.749C99.6418 39.511 99.9705 39.1767 100.22 38.746C100.481 38.304 100.611 37.777 100.611 37.165C100.611 36.553 100.481 36.0317 100.22 35.601C99.9705 35.159 99.6418 34.8247 99.2338 34.598C98.8258 34.36 98.3838 34.241 97.9078 34.241C97.4318 34.241 96.9842 34.36 96.5648 34.598C96.1568 34.8247 95.8225 35.159 95.5618 35.601C95.3125 36.0317 95.1878 36.553 95.1878 37.165C95.1878 37.777 95.3125 38.304 95.5618 38.746C95.8225 39.1767 96.1568 39.511 96.5648 39.749C96.9842 39.9757 97.4318 40.089 97.9078 40.089ZM108.031 45.444C107.271 45.444 106.614 45.3193 106.059 45.07C105.515 44.832 105.073 44.5203 104.733 44.135C104.393 43.761 104.149 43.3757 104.002 42.979L105.702 42.265C105.883 42.7183 106.172 43.0867 106.569 43.37C106.977 43.6647 107.464 43.812 108.031 43.812C108.824 43.812 109.447 43.574 109.901 43.098C110.365 42.622 110.598 41.9477 110.598 41.075V40.242H110.496C110.224 40.65 109.844 40.9787 109.357 41.228C108.881 41.466 108.337 41.585 107.725 41.585C106.988 41.585 106.314 41.398 105.702 41.024C105.09 40.65 104.597 40.1287 104.223 39.46C103.849 38.78 103.662 37.9867 103.662 37.08C103.662 36.162 103.849 35.3687 104.223 34.7C104.597 34.02 105.09 33.493 105.702 33.119C106.314 32.745 106.988 32.558 107.725 32.558C108.337 32.558 108.881 32.6827 109.357 32.932C109.844 33.1813 110.224 33.51 110.496 33.918H110.598V32.83H112.349V41.041C112.349 41.9817 112.162 42.7807 111.788 43.438C111.425 44.0953 110.921 44.594 110.275 44.934C109.629 45.274 108.881 45.444 108.031 45.444ZM108.048 39.919C108.501 39.919 108.92 39.8113 109.306 39.596C109.691 39.3693 110.003 39.0463 110.241 38.627C110.479 38.1963 110.598 37.6807 110.598 37.08C110.598 36.4567 110.479 35.9353 110.241 35.516C110.003 35.0853 109.691 34.7623 109.306 34.547C108.92 34.3317 108.501 34.224 108.048 34.224C107.594 34.224 107.169 34.3373 106.773 34.564C106.387 34.7793 106.076 35.0967 105.838 35.516C105.6 35.9353 105.481 36.4567 105.481 37.08C105.481 37.692 105.6 38.2133 105.838 38.644C106.076 39.0633 106.387 39.3807 106.773 39.596C107.169 39.8113 107.594 39.919 108.048 39.919ZM114.514 41.5V29.328H116.35V41.5H114.514ZM122.392 41.772C121.542 41.772 120.783 41.5737 120.114 41.177C119.446 40.7803 118.919 40.2363 118.533 39.545C118.159 38.8537 117.972 38.066 117.972 37.182C117.972 36.3547 118.154 35.5897 118.516 34.887C118.879 34.1843 119.383 33.6233 120.029 33.204C120.687 32.7733 121.44 32.558 122.29 32.558C123.186 32.558 123.945 32.7507 124.568 33.136C125.203 33.5213 125.685 34.0483 126.013 34.717C126.342 35.3857 126.506 36.1393 126.506 36.978C126.506 37.1027 126.501 37.216 126.489 37.318C126.489 37.42 126.484 37.4993 126.472 37.556H119.774C119.865 38.4173 120.165 39.0633 120.675 39.494C121.197 39.9247 121.786 40.14 122.443 40.14C123.033 40.14 123.52 40.0097 123.905 39.749C124.291 39.477 124.597 39.1427 124.823 38.746L126.336 39.477C125.962 40.157 125.452 40.7123 124.806 41.143C124.16 41.5623 123.356 41.772 122.392 41.772ZM122.307 34.122C121.695 34.122 121.174 34.309 120.743 34.683C120.313 35.057 120.024 35.5557 119.876 36.179H124.687C124.665 35.8843 124.568 35.5783 124.398 35.261C124.228 34.9437 123.968 34.6773 123.616 34.462C123.276 34.2353 122.84 34.122 122.307 34.122ZM132.483 41.5V29.328H136.665C137.402 29.328 138.071 29.4867 138.671 29.804C139.272 30.1213 139.748 30.5577 140.099 31.113C140.462 31.6683 140.643 32.3143 140.643 33.051C140.643 33.7877 140.462 34.4393 140.099 35.006C139.748 35.5613 139.272 35.9977 138.671 36.315C138.071 36.621 137.402 36.774 136.665 36.774H134.353V41.5H132.483ZM136.716 31.096H134.353V35.006H136.716C137.158 35.006 137.532 34.9153 137.838 34.734C138.144 34.5413 138.377 34.2977 138.535 34.003C138.705 33.697 138.79 33.3797 138.79 33.051C138.79 32.7223 138.705 32.4107 138.535 32.116C138.377 31.8213 138.144 31.5777 137.838 31.385C137.532 31.1923 137.158 31.096 136.716 31.096ZM143.309 31.555C142.969 31.555 142.674 31.436 142.425 31.198C142.187 30.9487 142.068 30.654 142.068 30.314C142.068 29.974 142.187 29.685 142.425 29.447C142.674 29.209 142.969 29.09 143.309 29.09C143.649 29.09 143.938 29.209 144.176 29.447C144.425 29.685 144.55 29.974 144.55 30.314C144.55 30.654 144.425 30.9487 144.176 31.198C143.938 31.436 143.649 31.555 143.309 31.555ZM142.391 41.5V32.83H144.227V41.5H142.391ZM146.505 41.5V32.83H148.239V34.02H148.341C148.59 33.6007 148.958 33.255 149.446 32.983C149.944 32.6997 150.488 32.558 151.078 32.558C152.143 32.558 152.942 32.8753 153.475 33.51C154.007 34.1447 154.274 34.9833 154.274 36.026V41.5H152.455V36.264C152.455 35.5613 152.279 35.0513 151.928 34.734C151.576 34.4053 151.117 34.241 150.551 34.241C150.109 34.241 149.723 34.3657 149.395 34.615C149.066 34.853 148.805 35.1703 148.613 35.567C148.431 35.9637 148.341 36.3887 148.341 36.842V41.5H146.505ZM157.42 31.555C157.08 31.555 156.785 31.436 156.536 31.198C156.298 30.9487 156.179 30.654 156.179 30.314C156.179 29.974 156.298 29.685 156.536 29.447C156.785 29.209 157.08 29.09 157.42 29.09C157.76 29.09 158.049 29.209 158.287 29.447C158.536 29.685 158.661 29.974 158.661 30.314C158.661 30.654 158.536 30.9487 158.287 31.198C158.049 31.436 157.76 31.555 157.42 31.555ZM156.502 41.5V32.83H158.338V41.5H156.502ZM164.443 45.444C163.684 45.444 163.026 45.3193 162.471 45.07C161.927 44.832 161.485 44.5203 161.145 44.135C160.805 43.761 160.561 43.3757 160.414 42.979L162.114 42.265C162.295 42.7183 162.584 43.0867 162.981 43.37C163.389 43.6647 163.876 43.812 164.443 43.812C165.236 43.812 165.86 43.574 166.313 43.098C166.778 42.622 167.01 41.9477 167.01 41.075V40.242H166.908C166.636 40.65 166.256 40.9787 165.769 41.228C165.293 41.466 164.749 41.585 164.137 41.585C163.4 41.585 162.726 41.398 162.114 41.024C161.502 40.65 161.009 40.1287 160.635 39.46C160.261 38.78 160.074 37.9867 160.074 37.08C160.074 36.162 160.261 35.3687 160.635 34.7C161.009 34.02 161.502 33.493 162.114 33.119C162.726 32.745 163.4 32.558 164.137 32.558C164.749 32.558 165.293 32.6827 165.769 32.932C166.256 33.1813 166.636 33.51 166.908 33.918H167.01V32.83H168.761V41.041C168.761 41.9817 168.574 42.7807 168.2 43.438C167.837 44.0953 167.333 44.594 166.687 44.934C166.041 45.274 165.293 45.444 164.443 45.444ZM164.46 39.919C164.913 39.919 165.333 39.8113 165.718 39.596C166.103 39.3693 166.415 39.0463 166.653 38.627C166.891 38.1963 167.01 37.6807 167.01 37.08C167.01 36.4567 166.891 35.9353 166.653 35.516C166.415 35.0853 166.103 34.7623 165.718 34.547C165.333 34.3317 164.913 34.224 164.46 34.224C164.007 34.224 163.582 34.3373 163.185 34.564C162.8 34.7793 162.488 35.0967 162.25 35.516C162.012 35.9353 161.893 36.4567 161.893 37.08C161.893 37.692 162.012 38.2133 162.25 38.644C162.488 39.0633 162.8 39.3807 163.185 39.596C163.582 39.8113 164.007 39.919 164.46 39.919ZM171.963 31.555C171.623 31.555 171.328 31.436 171.079 31.198C170.841 30.9487 170.722 30.654 170.722 30.314C170.722 29.974 170.841 29.685 171.079 29.447C171.328 29.209 171.623 29.09 171.963 29.09C172.303 29.09 172.592 29.209 172.83 29.447C173.079 29.685 173.204 29.974 173.204 30.314C173.204 30.654 173.079 30.9487 172.83 31.198C172.592 31.436 172.303 31.555 171.963 31.555ZM171.045 41.5V32.83H172.881V41.5H171.045ZM175.159 41.5V32.83H176.893V34.02H176.995C177.244 33.6007 177.613 33.255 178.1 32.983C178.599 32.6997 179.143 32.558 179.732 32.558C180.797 32.558 181.596 32.8753 182.129 33.51C182.662 34.1447 182.928 34.9833 182.928 36.026V41.5H181.109V36.264C181.109 35.5613 180.933 35.0513 180.582 34.734C180.231 34.4053 179.772 34.241 179.205 34.241C178.763 34.241 178.378 34.3657 178.049 34.615C177.72 34.853 177.46 35.1703 177.267 35.567C177.086 35.9637 176.995 36.3887 176.995 36.842V41.5H175.159ZM188.981 41.772C188.131 41.772 187.372 41.5737 186.703 41.177C186.035 40.7803 185.508 40.2363 185.122 39.545C184.748 38.8537 184.561 38.066 184.561 37.182C184.561 36.3547 184.743 35.5897 185.105 34.887C185.468 34.1843 185.972 33.6233 186.618 33.204C187.276 32.7733 188.029 32.558 188.879 32.558C189.775 32.558 190.534 32.7507 191.157 33.136C191.792 33.5213 192.274 34.0483 192.602 34.717C192.931 35.3857 193.095 36.1393 193.095 36.978C193.095 37.1027 193.09 37.216 193.078 37.318C193.078 37.42 193.073 37.4993 193.061 37.556H186.363C186.454 38.4173 186.754 39.0633 187.264 39.494C187.786 39.9247 188.375 40.14 189.032 40.14C189.622 40.14 190.109 40.0097 190.494 39.749C190.88 39.477 191.186 39.1427 191.412 38.746L192.925 39.477C192.551 40.157 192.041 40.7123 191.395 41.143C190.749 41.5623 189.945 41.772 188.981 41.772ZM188.896 34.122C188.284 34.122 187.763 34.309 187.332 34.683C186.902 35.057 186.613 35.5557 186.465 36.179H191.276C191.254 35.8843 191.157 35.5783 190.987 35.261C190.817 34.9437 190.557 34.6773 190.205 34.462C189.865 34.2353 189.429 34.122 188.896 34.122ZM188.879 31.13C188.585 31.13 188.33 31.0223 188.114 30.807C187.899 30.5917 187.791 30.331 187.791 30.025C187.791 29.719 187.899 29.464 188.114 29.26C188.33 29.0447 188.585 28.937 188.879 28.937C189.197 28.937 189.457 29.0447 189.661 29.26C189.865 29.464 189.967 29.719 189.967 30.025C189.967 30.331 189.865 30.5917 189.661 30.807C189.457 31.0223 189.197 31.13 188.879 31.13Z" fill="white"/>
<rect x="0.5" y="0.5" width="212" height="54" rx="27" stroke="#747775"/>
<defs>
<linearGradient id="paint0_linear_1819_24491" x1="37.2843" y1="34.0448" x2="18.7823" y2="55.7227" gradientUnits="userSpaceOnUse">
<stop stop-color="#4285F4"/>
<stop offset="1" stop-color="#1B74E8"/>
</linearGradient>
</defs>
</svg>
