<svg width="199" height="55" viewBox="0 0 199 55" fill="none" xmlns="http://www.w3.org/2000/svg">
<rect x="0.5" y="0.5" width="198" height="54" rx="27" fill="#1F1F1F"/>
<path d="M57 23.791H21V18.1456C21 15.0809 23.6422 12.5001 26.7798 12.5001H51.2202C54.3578 12.5001 57 15.0809 57 18.1456V23.791Z" fill="#34A853"/>
<path d="M57 29H21V23C21 19.7429 23.6422 17 26.7798 17H51.2202C54.3578 17 57 19.7429 57 23V29Z" fill="#FBBC04"/>
<path d="M57 34H21V28C21 24.7429 23.6422 22 26.7798 22H51.2202C54.3578 22 57 24.7429 57 28V34Z" fill="#EA4335"/>
<path d="M21 25.2409L43.8493 30.4025C46.4795 31.0477 49.4384 30.4025 51.5753 28.7895L57 24.9183V37.0157C57 40.0804 54.3699 42.4999 51.2466 42.4999H26.7534C23.6301 42.4999 21 40.0804 21 37.0157V25.2409Z" fill="url(#paint0_linear_1819_24472)"/>
<path d="M70.053 21.5V12.192H73.251C73.8143 12.192 74.3257 12.3133 74.785 12.556C75.2443 12.7987 75.6083 13.1323 75.877 13.557C76.1543 13.9817 76.293 14.4757 76.293 15.039C76.293 15.6023 76.1543 16.1007 75.877 16.534C75.6083 16.9587 75.2443 17.2923 74.785 17.535C74.3257 17.769 73.8143 17.886 73.251 17.886H71.483V21.5H70.053ZM73.29 13.544H71.483V16.534H73.29C73.628 16.534 73.914 16.4647 74.148 16.326C74.382 16.1787 74.5597 15.9923 74.681 15.767C74.811 15.533 74.876 15.2903 74.876 15.039C74.876 14.7877 74.811 14.5493 74.681 14.324C74.5597 14.0987 74.382 13.9123 74.148 13.765C73.914 13.6177 73.628 13.544 73.29 13.544ZM78.3311 13.895C78.0711 13.895 77.8457 13.804 77.6551 13.622C77.4731 13.4313 77.3821 13.206 77.3821 12.946C77.3821 12.686 77.4731 12.465 77.6551 12.283C77.8457 12.101 78.0711 12.01 78.3311 12.01C78.5911 12.01 78.8121 12.101 78.9941 12.283C79.1847 12.465 79.2801 12.686 79.2801 12.946C79.2801 13.206 79.1847 13.4313 78.9941 13.622C78.8121 13.804 78.5911 13.895 78.3311 13.895ZM77.6291 21.5V14.87H79.0331V21.5H77.6291ZM83.7406 21.708C83.0906 21.708 82.5099 21.5563 81.9986 21.253C81.4872 20.9497 81.0842 20.5337 80.7896 20.005C80.5036 19.4763 80.3606 18.874 80.3606 18.198C80.3606 17.5653 80.4992 16.9803 80.7766 16.443C81.0539 15.9057 81.4396 15.4767 81.9336 15.156C82.4362 14.8267 83.0126 14.662 83.6626 14.662C84.3472 14.662 84.9279 14.8093 85.4046 15.104C85.8899 15.3987 86.2582 15.8017 86.5096 16.313C86.7609 16.8243 86.8866 17.4007 86.8866 18.042C86.8866 18.1373 86.8822 18.224 86.8736 18.302C86.8736 18.38 86.8692 18.4407 86.8606 18.484H81.7386C81.8079 19.1427 82.0376 19.6367 82.4276 19.966C82.8262 20.2953 83.2769 20.46 83.7796 20.46C84.2302 20.46 84.6029 20.3603 84.8976 20.161C85.1922 19.953 85.4262 19.6973 85.5996 19.394L86.7566 19.953C86.4706 20.473 86.0806 20.8977 85.5866 21.227C85.0926 21.5477 84.4772 21.708 83.7406 21.708ZM83.6756 15.858C83.2076 15.858 82.8089 16.001 82.4796 16.287C82.1502 16.573 81.9292 16.9543 81.8166 17.431H85.4956C85.4782 17.2057 85.4046 16.9717 85.2746 16.729C85.1446 16.4863 84.9452 16.2827 84.6766 16.118C84.4166 15.9447 84.0829 15.858 83.6756 15.858ZM90.0772 21.5L87.3342 14.87H88.8942L90.7532 19.693H90.8182L92.7162 14.87H94.2502L91.4812 21.5H90.0772ZM95.9648 13.895C95.7048 13.895 95.4795 13.804 95.2888 13.622C95.1068 13.4313 95.0158 13.206 95.0158 12.946C95.0158 12.686 95.1068 12.465 95.2888 12.283C95.4795 12.101 95.7048 12.01 95.9648 12.01C96.2248 12.01 96.4458 12.101 96.6278 12.283C96.8185 12.465 96.9138 12.686 96.9138 12.946C96.9138 13.206 96.8185 13.4313 96.6278 13.622C96.4458 13.804 96.2248 13.895 95.9648 13.895ZM95.2628 21.5V14.87H96.6668V21.5H95.2628ZM101.374 21.708C100.724 21.708 100.144 21.5563 99.6324 21.253C99.121 20.9497 98.718 20.5337 98.4234 20.005C98.1374 19.4763 97.9944 18.874 97.9944 18.198C97.9944 17.5653 98.133 16.9803 98.4104 16.443C98.6877 15.9057 99.0734 15.4767 99.5674 15.156C100.07 14.8267 100.646 14.662 101.296 14.662C101.981 14.662 102.562 14.8093 103.038 15.104C103.524 15.3987 103.892 15.8017 104.143 16.313C104.395 16.8243 104.52 17.4007 104.52 18.042C104.52 18.1373 104.516 18.224 104.507 18.302C104.507 18.38 104.503 18.4407 104.494 18.484H99.3724C99.4417 19.1427 99.6714 19.6367 100.061 19.966C100.46 20.2953 100.911 20.46 101.413 20.46C101.864 20.46 102.237 20.3603 102.531 20.161C102.826 19.953 103.06 19.6973 103.233 19.394L104.39 19.953C104.104 20.473 103.714 20.8977 103.22 21.227C102.726 21.5477 102.111 21.708 101.374 21.708ZM101.309 15.858C100.841 15.858 100.443 16.001 100.113 16.287C99.784 16.573 99.563 16.9543 99.4504 17.431H103.129C103.112 17.2057 103.038 16.9717 102.908 16.729C102.778 16.4863 102.579 16.2827 102.31 16.118C102.05 15.9447 101.717 15.858 101.309 15.858ZM105.823 21.5V14.87H107.149V15.78H107.227C107.418 15.4593 107.699 15.195 108.072 14.987C108.453 14.7703 108.869 14.662 109.32 14.662C110.135 14.662 110.746 14.9047 111.153 15.39C111.56 15.8753 111.764 16.5167 111.764 17.314V21.5H110.373V17.496C110.373 16.9587 110.239 16.5687 109.97 16.326C109.701 16.0747 109.35 15.949 108.917 15.949C108.579 15.949 108.284 16.0443 108.033 16.235C107.782 16.417 107.582 16.6597 107.435 16.963C107.296 17.2663 107.227 17.5913 107.227 17.938V21.5H105.823ZM116.484 21.708C115.799 21.708 115.197 21.552 114.677 21.24C114.157 20.928 113.75 20.5077 113.455 19.979C113.16 19.4503 113.013 18.8523 113.013 18.185C113.013 17.5263 113.16 16.9327 113.455 16.404C113.75 15.8667 114.157 15.442 114.677 15.13C115.197 14.818 115.799 14.662 116.484 14.662C117.16 14.662 117.758 14.818 118.278 15.13C118.798 15.442 119.205 15.8667 119.5 16.404C119.795 16.9327 119.942 17.5263 119.942 18.185C119.942 18.8523 119.795 19.4503 119.5 19.979C119.205 20.5077 118.798 20.928 118.278 21.24C117.758 21.552 117.16 21.708 116.484 21.708ZM116.484 20.421C116.848 20.421 117.186 20.3343 117.498 20.161C117.81 19.979 118.061 19.7233 118.252 19.394C118.451 19.056 118.551 18.653 118.551 18.185C118.551 17.717 118.451 17.3183 118.252 16.989C118.061 16.651 117.81 16.3953 117.498 16.222C117.186 16.04 116.848 15.949 116.484 15.949C116.12 15.949 115.778 16.04 115.457 16.222C115.145 16.3953 114.889 16.651 114.69 16.989C114.499 17.3183 114.404 17.717 114.404 18.185C114.404 18.653 114.499 19.056 114.69 19.394C114.889 19.7233 115.145 19.979 115.457 20.161C115.778 20.3343 116.12 20.421 116.484 20.421ZM121.747 19.576V16.092H120.59V14.87H121.747V12.998H123.151V14.87H124.776V16.092H123.151V19.277C123.151 19.6063 123.216 19.8577 123.346 20.031C123.484 20.2043 123.714 20.291 124.035 20.291C124.199 20.291 124.338 20.2693 124.451 20.226C124.572 20.1827 124.693 20.122 124.815 20.044V21.409C124.667 21.4697 124.511 21.5173 124.347 21.552C124.182 21.5867 123.987 21.604 123.762 21.604C123.146 21.604 122.657 21.4263 122.293 21.071C121.929 20.707 121.747 20.2087 121.747 19.576ZM129.17 21.5V12.192H130.574V21.5H129.17ZM133.035 13.895C132.775 13.895 132.55 13.804 132.359 13.622C132.177 13.4313 132.086 13.206 132.086 12.946C132.086 12.686 132.177 12.465 132.359 12.283C132.55 12.101 132.775 12.01 133.035 12.01C133.295 12.01 133.516 12.101 133.698 12.283C133.889 12.465 133.984 12.686 133.984 12.946C133.984 13.206 133.889 13.4313 133.698 13.622C133.516 13.804 133.295 13.895 133.035 13.895ZM132.333 21.5V14.87H133.737V21.5H132.333ZM138.445 21.708C137.795 21.708 137.214 21.5563 136.703 21.253C136.191 20.9497 135.788 20.5337 135.494 20.005C135.208 19.4763 135.065 18.874 135.065 18.198C135.065 17.5653 135.203 16.9803 135.481 16.443C135.758 15.9057 136.144 15.4767 136.638 15.156C137.14 14.8267 137.717 14.662 138.367 14.662C139.051 14.662 139.632 14.8093 140.109 15.104C140.594 15.3987 140.962 15.8017 141.214 16.313C141.465 16.8243 141.591 17.4007 141.591 18.042C141.591 18.1373 141.586 18.224 141.578 18.302C141.578 18.38 141.573 18.4407 141.565 18.484H136.443C136.512 19.1427 136.742 19.6367 137.132 19.966C137.53 20.2953 137.981 20.46 138.484 20.46C138.934 20.46 139.307 20.3603 139.602 20.161C139.896 19.953 140.13 19.6973 140.304 19.394L141.461 19.953C141.175 20.473 140.785 20.8977 140.291 21.227C139.797 21.5477 139.181 21.708 138.445 21.708ZM138.38 15.858C137.912 15.858 137.513 16.001 137.184 16.287C136.854 16.573 136.633 16.9543 136.521 17.431H140.2C140.182 17.2057 140.109 16.9717 139.979 16.729C139.849 16.4863 139.649 16.2827 139.381 16.118C139.121 15.9447 138.787 15.858 138.38 15.858ZM143.405 19.576V16.092H142.248V14.87H143.405V12.998H144.809V14.87H146.434V16.092H144.809V19.277C144.809 19.6063 144.874 19.8577 145.004 20.031C145.142 20.2043 145.372 20.291 145.693 20.291C145.857 20.291 145.996 20.2693 146.109 20.226C146.23 20.1827 146.351 20.122 146.473 20.044V21.409C146.325 21.4697 146.169 21.5173 146.005 21.552C145.84 21.5867 145.645 21.604 145.42 21.604C144.804 21.604 144.315 21.4263 143.951 21.071C143.587 20.707 143.405 20.2087 143.405 19.576ZM150.647 21.708C149.962 21.708 149.36 21.552 148.84 21.24C148.32 20.928 147.913 20.5077 147.618 19.979C147.323 19.4503 147.176 18.8523 147.176 18.185C147.176 17.5263 147.323 16.9327 147.618 16.404C147.913 15.8667 148.32 15.442 148.84 15.13C149.36 14.818 149.962 14.662 150.647 14.662C151.323 14.662 151.921 14.818 152.441 15.13C152.961 15.442 153.368 15.8667 153.663 16.404C153.958 16.9327 154.105 17.5263 154.105 18.185C154.105 18.8523 153.958 19.4503 153.663 19.979C153.368 20.5077 152.961 20.928 152.441 21.24C151.921 21.552 151.323 21.708 150.647 21.708ZM150.647 20.421C151.011 20.421 151.349 20.3343 151.661 20.161C151.973 19.979 152.224 19.7233 152.415 19.394C152.614 19.056 152.714 18.653 152.714 18.185C152.714 17.717 152.614 17.3183 152.415 16.989C152.224 16.651 151.973 16.3953 151.661 16.222C151.349 16.04 151.011 15.949 150.647 15.949C150.283 15.949 149.941 16.04 149.62 16.222C149.308 16.3953 149.052 16.651 148.853 16.989C148.662 17.3183 148.567 17.717 148.567 18.185C148.567 18.653 148.662 19.056 148.853 19.394C149.052 19.7233 149.308 19.979 149.62 20.161C149.941 20.3343 150.283 20.421 150.647 20.421ZM155.91 19.576V16.092H154.753V14.87H155.91V12.998H157.314V14.87H158.939V16.092H157.314V19.277C157.314 19.6063 157.379 19.8577 157.509 20.031C157.647 20.2043 157.877 20.291 158.198 20.291C158.362 20.291 158.501 20.2693 158.614 20.226C158.735 20.1827 158.856 20.122 158.978 20.044V21.409C158.83 21.4697 158.674 21.5173 158.51 21.552C158.345 21.5867 158.15 21.604 157.925 21.604C157.309 21.604 156.82 21.4263 156.456 21.071C156.092 20.707 155.91 20.2087 155.91 19.576ZM160.349 21.5V14.87H161.675V15.78H161.753C161.944 15.4593 162.226 15.195 162.598 14.987C162.98 14.7703 163.396 14.662 163.846 14.662C164.661 14.662 165.272 14.9047 165.679 15.39C166.087 15.8753 166.29 16.5167 166.29 17.314V21.5H164.899V17.496C164.899 16.9587 164.765 16.5687 164.496 16.326C164.228 16.0747 163.877 15.949 163.443 15.949C163.105 15.949 162.811 16.0443 162.559 16.235C162.308 16.417 162.109 16.6597 161.961 16.963C161.823 17.2663 161.753 17.5913 161.753 17.938V21.5H160.349ZM170.919 21.708C170.269 21.708 169.689 21.5563 169.177 21.253C168.666 20.9497 168.263 20.5337 167.968 20.005C167.682 19.4763 167.539 18.874 167.539 18.198C167.539 17.5653 167.678 16.9803 167.955 16.443C168.233 15.9057 168.618 15.4767 169.112 15.156C169.615 14.8267 170.191 14.662 170.841 14.662C171.526 14.662 172.107 14.8093 172.583 15.104C173.069 15.3987 173.437 15.8017 173.688 16.313C173.94 16.8243 174.065 17.4007 174.065 18.042C174.065 18.1373 174.061 18.224 174.052 18.302C174.052 18.38 174.048 18.4407 174.039 18.484H168.917C168.987 19.1427 169.216 19.6367 169.606 19.966C170.005 20.2953 170.456 20.46 170.958 20.46C171.409 20.46 171.782 20.3603 172.076 20.161C172.371 19.953 172.605 19.6973 172.778 19.394L173.935 19.953C173.649 20.473 173.259 20.8977 172.765 21.227C172.271 21.5477 171.656 21.708 170.919 21.708ZM170.854 15.858C170.386 15.858 169.988 16.001 169.658 16.287C169.329 16.573 169.108 16.9543 168.995 17.431H172.674C172.657 17.2057 172.583 16.9717 172.453 16.729C172.323 16.4863 172.124 16.2827 171.855 16.118C171.595 15.9447 171.262 15.858 170.854 15.858ZM176.174 13.895C175.914 13.895 175.688 13.804 175.498 13.622C175.316 13.4313 175.225 13.206 175.225 12.946C175.225 12.686 175.316 12.465 175.498 12.283C175.688 12.101 175.914 12.01 176.174 12.01C176.434 12.01 176.655 12.101 176.837 12.283C177.027 12.465 177.123 12.686 177.123 12.946C177.123 13.206 177.027 13.4313 176.837 13.622C176.655 13.804 176.434 13.895 176.174 13.895ZM175.472 21.5V14.87H176.876V21.5H175.472Z" fill="white"/>
<path d="M76.14 41.772C75.2673 41.772 74.4457 41.6133 73.675 41.296C72.9157 40.9787 72.2413 40.5367 71.652 39.97C71.0627 39.392 70.598 38.7177 70.258 37.947C69.9293 37.165 69.765 36.3207 69.765 35.414C69.765 34.5073 69.9293 33.6687 70.258 32.898C70.598 32.116 71.057 31.4417 71.635 30.875C72.2243 30.297 72.9043 29.8493 73.675 29.532C74.4457 29.2147 75.2673 29.056 76.14 29.056C77.0693 29.056 77.925 29.2203 78.707 29.549C79.5003 29.8777 80.1633 30.3367 80.696 30.926L79.404 32.201C79.0073 31.759 78.5313 31.419 77.976 31.181C77.432 30.943 76.82 30.824 76.14 30.824C75.3353 30.824 74.593 31.0167 73.913 31.402C73.233 31.776 72.6833 32.3087 72.264 33C71.856 33.68 71.652 34.4847 71.652 35.414C71.652 36.3433 71.8617 37.1537 72.281 37.845C72.7003 38.525 73.25 39.0577 73.93 39.443C74.61 39.817 75.3523 40.004 76.157 40.004C76.8937 40.004 77.5623 39.868 78.163 39.596C78.7637 39.3127 79.2453 38.916 79.608 38.406C79.982 37.896 80.2087 37.284 80.288 36.57H76.123V34.921H82.039C82.107 35.227 82.141 35.55 82.141 35.89V35.907C82.141 37.0857 81.8803 38.117 81.359 39.001C80.849 39.8737 80.1407 40.5537 79.234 41.041C78.3273 41.5283 77.296 41.772 76.14 41.772ZM87.6149 41.772C86.7195 41.772 85.9319 41.568 85.2519 41.16C84.5719 40.752 84.0392 40.2023 83.6539 39.511C83.2685 38.8197 83.0759 38.0377 83.0759 37.165C83.0759 36.3037 83.2685 35.5273 83.6539 34.836C84.0392 34.1333 84.5719 33.578 85.2519 33.17C85.9319 32.762 86.7195 32.558 87.6149 32.558C88.4989 32.558 89.2809 32.762 89.9609 33.17C90.6409 33.578 91.1735 34.1333 91.5589 34.836C91.9442 35.5273 92.1369 36.3037 92.1369 37.165C92.1369 38.0377 91.9442 38.8197 91.5589 39.511C91.1735 40.2023 90.6409 40.752 89.9609 41.16C89.2809 41.568 88.4989 41.772 87.6149 41.772ZM87.6149 40.089C88.0909 40.089 88.5329 39.9757 88.9409 39.749C89.3489 39.511 89.6775 39.1767 89.9269 38.746C90.1875 38.304 90.3179 37.777 90.3179 37.165C90.3179 36.553 90.1875 36.0317 89.9269 35.601C89.6775 35.159 89.3489 34.8247 88.9409 34.598C88.5329 34.36 88.0909 34.241 87.6149 34.241C87.1389 34.241 86.6912 34.36 86.2719 34.598C85.8639 34.8247 85.5295 35.159 85.2689 35.601C85.0195 36.0317 84.8949 36.553 84.8949 37.165C84.8949 37.777 85.0195 38.304 85.2689 38.746C85.5295 39.1767 85.8639 39.511 86.2719 39.749C86.6912 39.9757 87.1389 40.089 87.6149 40.089ZM97.9078 41.772C97.0125 41.772 96.2248 41.568 95.5448 41.16C94.8648 40.752 94.3322 40.2023 93.9468 39.511C93.5615 38.8197 93.3688 38.0377 93.3688 37.165C93.3688 36.3037 93.5615 35.5273 93.9468 34.836C94.3322 34.1333 94.8648 33.578 95.5448 33.17C96.2248 32.762 97.0125 32.558 97.9078 32.558C98.7918 32.558 99.5738 32.762 100.254 33.17C100.934 33.578 101.467 34.1333 101.852 34.836C102.237 35.5273 102.43 36.3037 102.43 37.165C102.43 38.0377 102.237 38.8197 101.852 39.511C101.467 40.2023 100.934 40.752 100.254 41.16C99.5738 41.568 98.7918 41.772 97.9078 41.772ZM97.9078 40.089C98.3838 40.089 98.8258 39.9757 99.2338 39.749C99.6418 39.511 99.9705 39.1767 100.22 38.746C100.481 38.304 100.611 37.777 100.611 37.165C100.611 36.553 100.481 36.0317 100.22 35.601C99.9705 35.159 99.6418 34.8247 99.2338 34.598C98.8258 34.36 98.3838 34.241 97.9078 34.241C97.4318 34.241 96.9842 34.36 96.5648 34.598C96.1568 34.8247 95.8225 35.159 95.5618 35.601C95.3125 36.0317 95.1878 36.553 95.1878 37.165C95.1878 37.777 95.3125 38.304 95.5618 38.746C95.8225 39.1767 96.1568 39.511 96.5648 39.749C96.9842 39.9757 97.4318 40.089 97.9078 40.089ZM108.031 45.444C107.271 45.444 106.614 45.3193 106.059 45.07C105.515 44.832 105.073 44.5203 104.733 44.135C104.393 43.761 104.149 43.3757 104.002 42.979L105.702 42.265C105.883 42.7183 106.172 43.0867 106.569 43.37C106.977 43.6647 107.464 43.812 108.031 43.812C108.824 43.812 109.447 43.574 109.901 43.098C110.365 42.622 110.598 41.9477 110.598 41.075V40.242H110.496C110.224 40.65 109.844 40.9787 109.357 41.228C108.881 41.466 108.337 41.585 107.725 41.585C106.988 41.585 106.314 41.398 105.702 41.024C105.09 40.65 104.597 40.1287 104.223 39.46C103.849 38.78 103.662 37.9867 103.662 37.08C103.662 36.162 103.849 35.3687 104.223 34.7C104.597 34.02 105.09 33.493 105.702 33.119C106.314 32.745 106.988 32.558 107.725 32.558C108.337 32.558 108.881 32.6827 109.357 32.932C109.844 33.1813 110.224 33.51 110.496 33.918H110.598V32.83H112.349V41.041C112.349 41.9817 112.162 42.7807 111.788 43.438C111.425 44.0953 110.921 44.594 110.275 44.934C109.629 45.274 108.881 45.444 108.031 45.444ZM108.048 39.919C108.501 39.919 108.92 39.8113 109.306 39.596C109.691 39.3693 110.003 39.0463 110.241 38.627C110.479 38.1963 110.598 37.6807 110.598 37.08C110.598 36.4567 110.479 35.9353 110.241 35.516C110.003 35.0853 109.691 34.7623 109.306 34.547C108.92 34.3317 108.501 34.224 108.048 34.224C107.594 34.224 107.169 34.3373 106.773 34.564C106.387 34.7793 106.076 35.0967 105.838 35.516C105.6 35.9353 105.481 36.4567 105.481 37.08C105.481 37.692 105.6 38.2133 105.838 38.644C106.076 39.0633 106.387 39.3807 106.773 39.596C107.169 39.8113 107.594 39.919 108.048 39.919ZM114.514 41.5V29.328H116.35V41.5H114.514ZM122.392 41.772C121.542 41.772 120.783 41.5737 120.114 41.177C119.446 40.7803 118.919 40.2363 118.533 39.545C118.159 38.8537 117.972 38.066 117.972 37.182C117.972 36.3547 118.154 35.5897 118.516 34.887C118.879 34.1843 119.383 33.6233 120.029 33.204C120.687 32.7733 121.44 32.558 122.29 32.558C123.186 32.558 123.945 32.7507 124.568 33.136C125.203 33.5213 125.685 34.0483 126.013 34.717C126.342 35.3857 126.506 36.1393 126.506 36.978C126.506 37.1027 126.501 37.216 126.489 37.318C126.489 37.42 126.484 37.4993 126.472 37.556H119.774C119.865 38.4173 120.165 39.0633 120.675 39.494C121.197 39.9247 121.786 40.14 122.443 40.14C123.033 40.14 123.52 40.0097 123.905 39.749C124.291 39.477 124.597 39.1427 124.823 38.746L126.336 39.477C125.962 40.157 125.452 40.7123 124.806 41.143C124.16 41.5623 123.356 41.772 122.392 41.772ZM122.307 34.122C121.695 34.122 121.174 34.309 120.743 34.683C120.313 35.057 120.024 35.5557 119.876 36.179H124.687C124.665 35.8843 124.568 35.5783 124.398 35.261C124.228 34.9437 123.968 34.6773 123.616 34.462C123.276 34.2353 122.84 34.122 122.307 34.122ZM133.979 41.5L130.715 29.328H132.789L134.727 37.233L134.931 38.287H135.033L135.288 37.233L137.736 29.328H139.606L141.952 37.233L142.207 38.27H142.309L142.513 37.233L144.451 29.328H146.508L143.295 41.5H141.323L138.994 33.425L138.722 32.286H138.62L138.331 33.425L135.9 41.5H133.979ZM149.922 41.772C149.299 41.772 148.743 41.653 148.256 41.415C147.769 41.1657 147.389 40.82 147.117 40.378C146.845 39.936 146.709 39.4317 146.709 38.865C146.709 38.253 146.868 37.7317 147.185 37.301C147.514 36.859 147.95 36.5247 148.494 36.298C149.038 36.0713 149.639 35.958 150.296 35.958C150.84 35.958 151.316 36.009 151.724 36.111C152.143 36.213 152.461 36.3207 152.676 36.434V35.975C152.676 35.4083 152.472 34.955 152.064 34.615C151.656 34.275 151.129 34.105 150.483 34.105C150.041 34.105 149.622 34.207 149.225 34.411C148.828 34.6037 148.511 34.87 148.273 35.21L147.015 34.241C147.389 33.7197 147.882 33.3117 148.494 33.017C149.117 32.711 149.797 32.558 150.534 32.558C151.792 32.558 152.761 32.8697 153.441 33.493C154.121 34.105 154.461 34.9663 154.461 36.077V41.5H152.676V40.429H152.574C152.347 40.7803 152.007 41.092 151.554 41.364C151.101 41.636 150.557 41.772 149.922 41.772ZM150.245 40.276C150.721 40.276 151.14 40.1627 151.503 39.936C151.866 39.7093 152.149 39.4147 152.353 39.052C152.568 38.678 152.676 38.2757 152.676 37.845C152.415 37.6977 152.109 37.5787 151.758 37.488C151.407 37.386 151.033 37.335 150.636 37.335C149.888 37.335 149.355 37.488 149.038 37.794C148.721 38.0887 148.562 38.4513 148.562 38.882C148.562 39.29 148.715 39.6243 149.021 39.885C149.327 40.1457 149.735 40.276 150.245 40.276ZM156.499 41.5V29.328H158.335V41.5H156.499ZM160.517 41.5V29.328H162.353V41.5H160.517ZM168.395 41.772C167.545 41.772 166.786 41.5737 166.117 41.177C165.449 40.7803 164.922 40.2363 164.536 39.545C164.162 38.8537 163.975 38.066 163.975 37.182C163.975 36.3547 164.157 35.5897 164.519 34.887C164.882 34.1843 165.386 33.6233 166.032 33.204C166.69 32.7733 167.443 32.558 168.293 32.558C169.189 32.558 169.948 32.7507 170.571 33.136C171.206 33.5213 171.688 34.0483 172.016 34.717C172.345 35.3857 172.509 36.1393 172.509 36.978C172.509 37.1027 172.504 37.216 172.492 37.318C172.492 37.42 172.487 37.4993 172.475 37.556H165.777C165.868 38.4173 166.168 39.0633 166.678 39.494C167.2 39.9247 167.789 40.14 168.446 40.14C169.036 40.14 169.523 40.0097 169.908 39.749C170.294 39.477 170.6 39.1427 170.826 38.746L172.339 39.477C171.965 40.157 171.455 40.7123 170.809 41.143C170.163 41.5623 169.359 41.772 168.395 41.772ZM168.31 34.122C167.698 34.122 167.177 34.309 166.746 34.683C166.316 35.057 166.027 35.5557 165.879 36.179H170.69C170.668 35.8843 170.571 35.5783 170.401 35.261C170.231 34.9437 169.971 34.6773 169.619 34.462C169.279 34.2353 168.843 34.122 168.31 34.122ZM174.882 38.984V34.428H173.369V32.83H174.882V30.382H176.718V32.83H178.843V34.428H176.718V38.593C176.718 39.0237 176.803 39.3523 176.973 39.579C177.154 39.8057 177.454 39.919 177.874 39.919C178.089 39.919 178.27 39.8907 178.418 39.834C178.576 39.7773 178.735 39.698 178.894 39.596V41.381C178.701 41.4603 178.497 41.5227 178.282 41.568C178.066 41.6133 177.811 41.636 177.517 41.636C176.712 41.636 176.072 41.4037 175.596 40.939C175.12 40.463 174.882 39.8113 174.882 38.984Z" fill="white"/>
<rect x="0.5" y="0.5" width="198" height="54" rx="27" stroke="#747775"/>
<defs>
<linearGradient id="paint0_linear_1819_24472" x1="37.2843" y1="34.0448" x2="18.7823" y2="55.7227" gradientUnits="userSpaceOnUse">
<stop stop-color="#4285F4"/>
<stop offset="1" stop-color="#1B74E8"/>
</linearGradient>
</defs>
</svg>
