<svg width="199" height="55" viewBox="0 0 199 55" fill="none" xmlns="http://www.w3.org/2000/svg">
<rect x="0.5" y="0.5" width="198" height="54" rx="27" fill="#1F1F1F"/>
<path d="M57 23.791H21V18.1456C21 15.0809 23.6422 12.5001 26.7798 12.5001H51.2202C54.3578 12.5001 57 15.0809 57 18.1456V23.791Z" fill="#34A853"/>
<path d="M57 29H21V23C21 19.7429 23.6422 17 26.7798 17H51.2202C54.3578 17 57 19.7429 57 23V29Z" fill="#FBBC04"/>
<path d="M57 34H21V28C21 24.7429 23.6422 22 26.7798 22H51.2202C54.3578 22 57 24.7429 57 28V34Z" fill="#EA4335"/>
<path d="M21 25.2409L43.8493 30.4025C46.4795 31.0477 49.4384 30.4025 51.5753 28.7895L57 24.9183V37.0157C57 40.0804 54.3699 42.4999 51.2466 42.4999H26.7534C23.6301 42.4999 21 40.0804 21 37.0157V25.2409Z" fill="url(#paint0_linear_1819_24092)"/>
<path d="M71.951 21.5V13.544H69.338V12.192H75.968V13.544H73.368V21.5H71.951ZM79.1978 21.708C78.5131 21.708 77.9108 21.552 77.3908 21.24C76.8708 20.928 76.4635 20.5077 76.1688 19.979C75.8741 19.4503 75.7268 18.8523 75.7268 18.185C75.7268 17.5263 75.8741 16.9327 76.1688 16.404C76.4635 15.8667 76.8708 15.442 77.3908 15.13C77.9108 14.818 78.5131 14.662 79.1978 14.662C79.8738 14.662 80.4718 14.818 80.9918 15.13C81.5118 15.442 81.9191 15.8667 82.2138 16.404C82.5085 16.9327 82.6558 17.5263 82.6558 18.185C82.6558 18.8523 82.5085 19.4503 82.2138 19.979C81.9191 20.5077 81.5118 20.928 80.9918 21.24C80.4718 21.552 79.8738 21.708 79.1978 21.708ZM79.1978 20.421C79.5618 20.421 79.8998 20.3343 80.2118 20.161C80.5238 19.979 80.7751 19.7233 80.9658 19.394C81.1651 19.056 81.2648 18.653 81.2648 18.185C81.2648 17.717 81.1651 17.3183 80.9658 16.989C80.7751 16.651 80.5238 16.3953 80.2118 16.222C79.8998 16.04 79.5618 15.949 79.1978 15.949C78.8338 15.949 78.4915 16.04 78.1708 16.222C77.8588 16.3953 77.6031 16.651 77.4038 16.989C77.2131 17.3183 77.1178 17.717 77.1178 18.185C77.1178 18.653 77.2131 19.056 77.4038 19.394C77.6031 19.7233 77.8588 19.979 78.1708 20.161C78.4915 20.3343 78.8338 20.421 79.1978 20.421ZM86.9779 21.708C86.3279 21.708 85.7472 21.5563 85.2359 21.253C84.7245 20.9497 84.3215 20.5337 84.0269 20.005C83.7409 19.4763 83.5979 18.874 83.5979 18.198C83.5979 17.5653 83.7365 16.9803 84.0139 16.443C84.2912 15.9057 84.6769 15.4767 85.1709 15.156C85.6735 14.8267 86.2499 14.662 86.8999 14.662C87.5845 14.662 88.1652 14.8093 88.6419 15.104C89.1272 15.3987 89.4955 15.8017 89.7469 16.313C89.9982 16.8243 90.1239 17.4007 90.1239 18.042C90.1239 18.1373 90.1195 18.224 90.1109 18.302C90.1109 18.38 90.1065 18.4407 90.0979 18.484H84.9759C85.0452 19.1427 85.2749 19.6367 85.6649 19.966C86.0635 20.2953 86.5142 20.46 87.0169 20.46C87.4675 20.46 87.8402 20.3603 88.1349 20.161C88.4295 19.953 88.6635 19.6973 88.8369 19.394L89.9939 19.953C89.7079 20.473 89.3179 20.8977 88.8239 21.227C88.3299 21.5477 87.7145 21.708 86.9779 21.708ZM86.9129 15.858C86.4449 15.858 86.0462 16.001 85.7169 16.287C85.3875 16.573 85.1665 16.9543 85.0539 17.431H88.7329C88.7155 17.2057 88.6419 16.9717 88.5119 16.729C88.3819 16.4863 88.1825 16.2827 87.9139 16.118C87.6539 15.9447 87.3202 15.858 86.9129 15.858ZM93.3145 21.5L90.5715 14.87H92.1315L93.9905 19.693H94.0555L95.9535 14.87H97.4875L94.7185 21.5H93.3145ZM101.326 21.708C100.641 21.708 100.039 21.552 99.5187 21.24C98.9987 20.928 98.5914 20.5077 98.2967 19.979C98.0021 19.4503 97.8547 18.8523 97.8547 18.185C97.8547 17.5263 98.0021 16.9327 98.2967 16.404C98.5914 15.8667 98.9987 15.442 99.5187 15.13C100.039 14.818 100.641 14.662 101.326 14.662C102.002 14.662 102.6 14.818 103.12 15.13C103.64 15.442 104.047 15.8667 104.342 16.404C104.636 16.9327 104.784 17.5263 104.784 18.185C104.784 18.8523 104.636 19.4503 104.342 19.979C104.047 20.5077 103.64 20.928 103.12 21.24C102.6 21.552 102.002 21.708 101.326 21.708ZM101.326 20.421C101.69 20.421 102.028 20.3343 102.34 20.161C102.652 19.979 102.903 19.7233 103.094 19.394C103.293 19.056 103.393 18.653 103.393 18.185C103.393 17.717 103.293 17.3183 103.094 16.989C102.903 16.651 102.652 16.3953 102.34 16.222C102.028 16.04 101.69 15.949 101.326 15.949C100.962 15.949 100.619 16.04 100.299 16.222C99.9867 16.3953 99.7311 16.651 99.5317 16.989C99.3411 17.3183 99.2457 17.717 99.2457 18.185C99.2457 18.653 99.3411 19.056 99.5317 19.394C99.7311 19.7233 99.9867 19.979 100.299 20.161C100.619 20.3343 100.962 20.421 101.326 20.421ZM109.106 21.708C108.456 21.708 107.875 21.5563 107.364 21.253C106.852 20.9497 106.449 20.5337 106.155 20.005C105.869 19.4763 105.726 18.874 105.726 18.198C105.726 17.5653 105.864 16.9803 106.142 16.443C106.419 15.9057 106.805 15.4767 107.299 15.156C107.801 14.8267 108.378 14.662 109.028 14.662C109.712 14.662 110.293 14.8093 110.77 15.104C111.255 15.3987 111.623 15.8017 111.875 16.313C112.126 16.8243 112.252 17.4007 112.252 18.042C112.252 18.1373 112.247 18.224 112.239 18.302C112.239 18.38 112.234 18.4407 112.226 18.484H107.104C107.173 19.1427 107.403 19.6367 107.793 19.966C108.191 20.2953 108.642 20.46 109.145 20.46C109.595 20.46 109.968 20.3603 110.263 20.161C110.557 19.953 110.791 19.6973 110.965 19.394L112.122 19.953C111.836 20.473 111.446 20.8977 110.952 21.227C110.458 21.5477 109.842 21.708 109.106 21.708ZM109.041 15.858C108.573 15.858 108.174 16.001 107.845 16.287C107.515 16.573 107.294 16.9543 107.182 17.431H110.861C110.843 17.2057 110.77 16.9717 110.64 16.729C110.51 16.4863 110.31 16.2827 110.042 16.118C109.782 15.9447 109.448 15.858 109.041 15.858ZM116.608 24.516C116.027 24.516 115.524 24.4207 115.1 24.23C114.684 24.048 114.346 23.8097 114.086 23.515C113.826 23.229 113.639 22.9343 113.527 22.631L114.827 22.085C114.965 22.4317 115.186 22.7133 115.49 22.93C115.802 23.1553 116.174 23.268 116.608 23.268C117.214 23.268 117.691 23.086 118.038 22.722C118.393 22.358 118.571 21.8423 118.571 21.175V20.538H118.493C118.285 20.85 117.994 21.1013 117.622 21.292C117.258 21.474 116.842 21.565 116.374 21.565C115.81 21.565 115.295 21.422 114.827 21.136C114.359 20.85 113.982 20.4513 113.696 19.94C113.41 19.42 113.267 18.8133 113.267 18.12C113.267 17.418 113.41 16.8113 113.696 16.3C113.982 15.78 114.359 15.377 114.827 15.091C115.295 14.805 115.81 14.662 116.374 14.662C116.842 14.662 117.258 14.7573 117.622 14.948C117.994 15.1387 118.285 15.39 118.493 15.702H118.571V14.87H119.91V21.149C119.91 21.8683 119.767 22.4793 119.481 22.982C119.203 23.4847 118.818 23.866 118.324 24.126C117.83 24.386 117.258 24.516 116.608 24.516ZM116.621 20.291C116.967 20.291 117.288 20.2087 117.583 20.044C117.877 19.8707 118.116 19.6237 118.298 19.303C118.48 18.9737 118.571 18.5793 118.571 18.12C118.571 17.6433 118.48 17.2447 118.298 16.924C118.116 16.5947 117.877 16.3477 117.583 16.183C117.288 16.0183 116.967 15.936 116.621 15.936C116.274 15.936 115.949 16.0227 115.646 16.196C115.351 16.3607 115.113 16.6033 114.931 16.924C114.749 17.2447 114.658 17.6433 114.658 18.12C114.658 18.588 114.749 18.9867 114.931 19.316C115.113 19.6367 115.351 19.8793 115.646 20.044C115.949 20.2087 116.274 20.291 116.621 20.291ZM124.518 21.708C123.868 21.708 123.287 21.5563 122.776 21.253C122.265 20.9497 121.862 20.5337 121.567 20.005C121.281 19.4763 121.138 18.874 121.138 18.198C121.138 17.5653 121.277 16.9803 121.554 16.443C121.831 15.9057 122.217 15.4767 122.711 15.156C123.214 14.8267 123.79 14.662 124.44 14.662C125.125 14.662 125.705 14.8093 126.182 15.104C126.667 15.3987 127.036 15.8017 127.287 16.313C127.538 16.8243 127.664 17.4007 127.664 18.042C127.664 18.1373 127.66 18.224 127.651 18.302C127.651 18.38 127.647 18.4407 127.638 18.484H122.516C122.585 19.1427 122.815 19.6367 123.205 19.966C123.604 20.2953 124.054 20.46 124.557 20.46C125.008 20.46 125.38 20.3603 125.675 20.161C125.97 19.953 126.204 19.6973 126.377 19.394L127.534 19.953C127.248 20.473 126.858 20.8977 126.364 21.227C125.87 21.5477 125.255 21.708 124.518 21.708ZM124.453 15.858C123.985 15.858 123.586 16.001 123.257 16.287C122.928 16.573 122.707 16.9543 122.594 17.431H126.273C126.256 17.2057 126.182 16.9717 126.052 16.729C125.922 16.4863 125.723 16.2827 125.454 16.118C125.194 15.9447 124.86 15.858 124.453 15.858ZM128.966 21.5V14.87H130.292V15.78H130.37C130.561 15.4593 130.843 15.195 131.215 14.987C131.597 14.7703 132.013 14.662 132.463 14.662C133.278 14.662 133.889 14.9047 134.296 15.39C134.704 15.8753 134.907 16.5167 134.907 17.314V21.5H133.516V17.496C133.516 16.9587 133.382 16.5687 133.113 16.326C132.845 16.0747 132.494 15.949 132.06 15.949C131.722 15.949 131.428 16.0443 131.176 16.235C130.925 16.417 130.726 16.6597 130.578 16.963C130.44 17.2663 130.37 17.5913 130.37 17.938V21.5H128.966ZM141.622 21.708C141.145 21.708 140.72 21.617 140.348 21.435C139.975 21.2443 139.685 20.98 139.477 20.642C139.269 20.304 139.165 19.9183 139.165 19.485C139.165 19.017 139.286 18.6183 139.529 18.289C139.78 17.951 140.114 17.6953 140.53 17.522C140.946 17.3487 141.405 17.262 141.908 17.262C142.324 17.262 142.688 17.301 143 17.379C143.32 17.457 143.563 17.5393 143.728 17.626V17.275C143.728 16.8417 143.572 16.495 143.26 16.235C142.948 15.975 142.545 15.845 142.051 15.845C141.713 15.845 141.392 15.923 141.089 16.079C140.785 16.2263 140.543 16.43 140.361 16.69L139.399 15.949C139.685 15.5503 140.062 15.2383 140.53 15.013C141.006 14.779 141.526 14.662 142.09 14.662C143.052 14.662 143.793 14.9003 144.313 15.377C144.833 15.845 145.093 16.5037 145.093 17.353V21.5H143.728V20.681H143.65C143.476 20.9497 143.216 21.188 142.87 21.396C142.523 21.604 142.107 21.708 141.622 21.708ZM141.869 20.564C142.233 20.564 142.553 20.4773 142.831 20.304C143.108 20.1307 143.325 19.9053 143.481 19.628C143.645 19.342 143.728 19.0343 143.728 18.705C143.528 18.5923 143.294 18.5013 143.026 18.432C142.757 18.354 142.471 18.315 142.168 18.315C141.596 18.315 141.188 18.432 140.946 18.666C140.703 18.8913 140.582 19.1687 140.582 19.498C140.582 19.81 140.699 20.0657 140.933 20.265C141.167 20.4643 141.479 20.564 141.869 20.564ZM148.655 21.708C148.178 21.708 147.754 21.617 147.381 21.435C147.008 21.2443 146.718 20.98 146.51 20.642C146.302 20.304 146.198 19.9183 146.198 19.485C146.198 19.017 146.319 18.6183 146.562 18.289C146.813 17.951 147.147 17.6953 147.563 17.522C147.979 17.3487 148.438 17.262 148.941 17.262C149.357 17.262 149.721 17.301 150.033 17.379C150.354 17.457 150.596 17.5393 150.761 17.626V17.275C150.761 16.8417 150.605 16.495 150.293 16.235C149.981 15.975 149.578 15.845 149.084 15.845C148.746 15.845 148.425 15.923 148.122 16.079C147.819 16.2263 147.576 16.43 147.394 16.69L146.432 15.949C146.718 15.5503 147.095 15.2383 147.563 15.013C148.04 14.779 148.56 14.662 149.123 14.662C150.085 14.662 150.826 14.9003 151.346 15.377C151.866 15.845 152.126 16.5037 152.126 17.353V21.5H150.761V20.681H150.683C150.51 20.9497 150.25 21.188 149.903 21.396C149.556 21.604 149.14 21.708 148.655 21.708ZM148.902 20.564C149.266 20.564 149.587 20.4773 149.864 20.304C150.141 20.1307 150.358 19.9053 150.514 19.628C150.679 19.342 150.761 19.0343 150.761 18.705C150.562 18.5923 150.328 18.5013 150.059 18.432C149.79 18.354 149.504 18.315 149.201 18.315C148.629 18.315 148.222 18.432 147.979 18.666C147.736 18.8913 147.615 19.1687 147.615 19.498C147.615 19.81 147.732 20.0657 147.966 20.265C148.2 20.4643 148.512 20.564 148.902 20.564ZM153.672 21.5V14.87H154.998V15.78H155.076C155.266 15.4593 155.548 15.195 155.921 14.987C156.302 14.7703 156.718 14.662 157.169 14.662C157.983 14.662 158.594 14.9047 159.002 15.39C159.409 15.8753 159.613 16.5167 159.613 17.314V21.5H158.222V17.496C158.222 16.9587 158.087 16.5687 157.819 16.326C157.55 16.0747 157.199 15.949 156.766 15.949C156.428 15.949 156.133 16.0443 155.882 16.235C155.63 16.417 155.431 16.6597 155.284 16.963C155.145 17.2663 155.076 17.5913 155.076 17.938V21.5H153.672Z" fill="white"/>
<path d="M76.14 41.772C75.2673 41.772 74.4457 41.6133 73.675 41.296C72.9157 40.9787 72.2413 40.5367 71.652 39.97C71.0627 39.392 70.598 38.7177 70.258 37.947C69.9293 37.165 69.765 36.3207 69.765 35.414C69.765 34.5073 69.9293 33.6687 70.258 32.898C70.598 32.116 71.057 31.4417 71.635 30.875C72.2243 30.297 72.9043 29.8493 73.675 29.532C74.4457 29.2147 75.2673 29.056 76.14 29.056C77.0693 29.056 77.925 29.2203 78.707 29.549C79.5003 29.8777 80.1633 30.3367 80.696 30.926L79.404 32.201C79.0073 31.759 78.5313 31.419 77.976 31.181C77.432 30.943 76.82 30.824 76.14 30.824C75.3353 30.824 74.593 31.0167 73.913 31.402C73.233 31.776 72.6833 32.3087 72.264 33C71.856 33.68 71.652 34.4847 71.652 35.414C71.652 36.3433 71.8617 37.1537 72.281 37.845C72.7003 38.525 73.25 39.0577 73.93 39.443C74.61 39.817 75.3523 40.004 76.157 40.004C76.8937 40.004 77.5623 39.868 78.163 39.596C78.7637 39.3127 79.2453 38.916 79.608 38.406C79.982 37.896 80.2087 37.284 80.288 36.57H76.123V34.921H82.039C82.107 35.227 82.141 35.55 82.141 35.89V35.907C82.141 37.0857 81.8803 38.117 81.359 39.001C80.849 39.8737 80.1407 40.5537 79.234 41.041C78.3273 41.5283 77.296 41.772 76.14 41.772ZM87.6149 41.772C86.7195 41.772 85.9319 41.568 85.2519 41.16C84.5719 40.752 84.0392 40.2023 83.6539 39.511C83.2685 38.8197 83.0759 38.0377 83.0759 37.165C83.0759 36.3037 83.2685 35.5273 83.6539 34.836C84.0392 34.1333 84.5719 33.578 85.2519 33.17C85.9319 32.762 86.7195 32.558 87.6149 32.558C88.4989 32.558 89.2809 32.762 89.9609 33.17C90.6409 33.578 91.1735 34.1333 91.5589 34.836C91.9442 35.5273 92.1369 36.3037 92.1369 37.165C92.1369 38.0377 91.9442 38.8197 91.5589 39.511C91.1735 40.2023 90.6409 40.752 89.9609 41.16C89.2809 41.568 88.4989 41.772 87.6149 41.772ZM87.6149 40.089C88.0909 40.089 88.5329 39.9757 88.9409 39.749C89.3489 39.511 89.6775 39.1767 89.9269 38.746C90.1875 38.304 90.3179 37.777 90.3179 37.165C90.3179 36.553 90.1875 36.0317 89.9269 35.601C89.6775 35.159 89.3489 34.8247 88.9409 34.598C88.5329 34.36 88.0909 34.241 87.6149 34.241C87.1389 34.241 86.6912 34.36 86.2719 34.598C85.8639 34.8247 85.5295 35.159 85.2689 35.601C85.0195 36.0317 84.8949 36.553 84.8949 37.165C84.8949 37.777 85.0195 38.304 85.2689 38.746C85.5295 39.1767 85.8639 39.511 86.2719 39.749C86.6912 39.9757 87.1389 40.089 87.6149 40.089ZM97.9078 41.772C97.0125 41.772 96.2248 41.568 95.5448 41.16C94.8648 40.752 94.3322 40.2023 93.9468 39.511C93.5615 38.8197 93.3688 38.0377 93.3688 37.165C93.3688 36.3037 93.5615 35.5273 93.9468 34.836C94.3322 34.1333 94.8648 33.578 95.5448 33.17C96.2248 32.762 97.0125 32.558 97.9078 32.558C98.7918 32.558 99.5738 32.762 100.254 33.17C100.934 33.578 101.467 34.1333 101.852 34.836C102.237 35.5273 102.43 36.3037 102.43 37.165C102.43 38.0377 102.237 38.8197 101.852 39.511C101.467 40.2023 100.934 40.752 100.254 41.16C99.5738 41.568 98.7918 41.772 97.9078 41.772ZM97.9078 40.089C98.3838 40.089 98.8258 39.9757 99.2338 39.749C99.6418 39.511 99.9705 39.1767 100.22 38.746C100.481 38.304 100.611 37.777 100.611 37.165C100.611 36.553 100.481 36.0317 100.22 35.601C99.9705 35.159 99.6418 34.8247 99.2338 34.598C98.8258 34.36 98.3838 34.241 97.9078 34.241C97.4318 34.241 96.9842 34.36 96.5648 34.598C96.1568 34.8247 95.8225 35.159 95.5618 35.601C95.3125 36.0317 95.1878 36.553 95.1878 37.165C95.1878 37.777 95.3125 38.304 95.5618 38.746C95.8225 39.1767 96.1568 39.511 96.5648 39.749C96.9842 39.9757 97.4318 40.089 97.9078 40.089ZM108.031 45.444C107.271 45.444 106.614 45.3193 106.059 45.07C105.515 44.832 105.073 44.5203 104.733 44.135C104.393 43.761 104.149 43.3757 104.002 42.979L105.702 42.265C105.883 42.7183 106.172 43.0867 106.569 43.37C106.977 43.6647 107.464 43.812 108.031 43.812C108.824 43.812 109.447 43.574 109.901 43.098C110.365 42.622 110.598 41.9477 110.598 41.075V40.242H110.496C110.224 40.65 109.844 40.9787 109.357 41.228C108.881 41.466 108.337 41.585 107.725 41.585C106.988 41.585 106.314 41.398 105.702 41.024C105.09 40.65 104.597 40.1287 104.223 39.46C103.849 38.78 103.662 37.9867 103.662 37.08C103.662 36.162 103.849 35.3687 104.223 34.7C104.597 34.02 105.09 33.493 105.702 33.119C106.314 32.745 106.988 32.558 107.725 32.558C108.337 32.558 108.881 32.6827 109.357 32.932C109.844 33.1813 110.224 33.51 110.496 33.918H110.598V32.83H112.349V41.041C112.349 41.9817 112.162 42.7807 111.788 43.438C111.425 44.0953 110.921 44.594 110.275 44.934C109.629 45.274 108.881 45.444 108.031 45.444ZM108.048 39.919C108.501 39.919 108.92 39.8113 109.306 39.596C109.691 39.3693 110.003 39.0463 110.241 38.627C110.479 38.1963 110.598 37.6807 110.598 37.08C110.598 36.4567 110.479 35.9353 110.241 35.516C110.003 35.0853 109.691 34.7623 109.306 34.547C108.92 34.3317 108.501 34.224 108.048 34.224C107.594 34.224 107.169 34.3373 106.773 34.564C106.387 34.7793 106.076 35.0967 105.838 35.516C105.6 35.9353 105.481 36.4567 105.481 37.08C105.481 37.692 105.6 38.2133 105.838 38.644C106.076 39.0633 106.387 39.3807 106.773 39.596C107.169 39.8113 107.594 39.919 108.048 39.919ZM114.514 41.5V29.328H116.35V41.5H114.514ZM122.392 41.772C121.542 41.772 120.783 41.5737 120.114 41.177C119.446 40.7803 118.919 40.2363 118.533 39.545C118.159 38.8537 117.972 38.066 117.972 37.182C117.972 36.3547 118.154 35.5897 118.516 34.887C118.879 34.1843 119.383 33.6233 120.029 33.204C120.687 32.7733 121.44 32.558 122.29 32.558C123.186 32.558 123.945 32.7507 124.568 33.136C125.203 33.5213 125.685 34.0483 126.013 34.717C126.342 35.3857 126.506 36.1393 126.506 36.978C126.506 37.1027 126.501 37.216 126.489 37.318C126.489 37.42 126.484 37.4993 126.472 37.556H119.774C119.865 38.4173 120.165 39.0633 120.675 39.494C121.197 39.9247 121.786 40.14 122.443 40.14C123.033 40.14 123.52 40.0097 123.905 39.749C124.291 39.477 124.597 39.1427 124.823 38.746L126.336 39.477C125.962 40.157 125.452 40.7123 124.806 41.143C124.16 41.5623 123.356 41.772 122.392 41.772ZM122.307 34.122C121.695 34.122 121.174 34.309 120.743 34.683C120.313 35.057 120.024 35.5557 119.876 36.179H124.687C124.665 35.8843 124.568 35.5783 124.398 35.261C124.228 34.9437 123.968 34.6773 123.616 34.462C123.276 34.2353 122.84 34.122 122.307 34.122ZM133.979 41.5L130.715 29.328H132.789L134.727 37.233L134.931 38.287H135.033L135.288 37.233L137.736 29.328H139.606L141.952 37.233L142.207 38.27H142.309L142.513 37.233L144.451 29.328H146.508L143.295 41.5H141.323L138.994 33.425L138.722 32.286H138.62L138.331 33.425L135.9 41.5H133.979ZM149.922 41.772C149.299 41.772 148.743 41.653 148.256 41.415C147.769 41.1657 147.389 40.82 147.117 40.378C146.845 39.936 146.709 39.4317 146.709 38.865C146.709 38.253 146.868 37.7317 147.185 37.301C147.514 36.859 147.95 36.5247 148.494 36.298C149.038 36.0713 149.639 35.958 150.296 35.958C150.84 35.958 151.316 36.009 151.724 36.111C152.143 36.213 152.461 36.3207 152.676 36.434V35.975C152.676 35.4083 152.472 34.955 152.064 34.615C151.656 34.275 151.129 34.105 150.483 34.105C150.041 34.105 149.622 34.207 149.225 34.411C148.828 34.6037 148.511 34.87 148.273 35.21L147.015 34.241C147.389 33.7197 147.882 33.3117 148.494 33.017C149.117 32.711 149.797 32.558 150.534 32.558C151.792 32.558 152.761 32.8697 153.441 33.493C154.121 34.105 154.461 34.9663 154.461 36.077V41.5H152.676V40.429H152.574C152.347 40.7803 152.007 41.092 151.554 41.364C151.101 41.636 150.557 41.772 149.922 41.772ZM150.245 40.276C150.721 40.276 151.14 40.1627 151.503 39.936C151.866 39.7093 152.149 39.4147 152.353 39.052C152.568 38.678 152.676 38.2757 152.676 37.845C152.415 37.6977 152.109 37.5787 151.758 37.488C151.407 37.386 151.033 37.335 150.636 37.335C149.888 37.335 149.355 37.488 149.038 37.794C148.721 38.0887 148.562 38.4513 148.562 38.882C148.562 39.29 148.715 39.6243 149.021 39.885C149.327 40.1457 149.735 40.276 150.245 40.276ZM156.499 41.5V29.328H158.335V41.5H156.499ZM160.517 41.5V29.328H162.353V41.5H160.517ZM168.395 41.772C167.545 41.772 166.786 41.5737 166.117 41.177C165.449 40.7803 164.922 40.2363 164.536 39.545C164.162 38.8537 163.975 38.066 163.975 37.182C163.975 36.3547 164.157 35.5897 164.519 34.887C164.882 34.1843 165.386 33.6233 166.032 33.204C166.69 32.7733 167.443 32.558 168.293 32.558C169.189 32.558 169.948 32.7507 170.571 33.136C171.206 33.5213 171.688 34.0483 172.016 34.717C172.345 35.3857 172.509 36.1393 172.509 36.978C172.509 37.1027 172.504 37.216 172.492 37.318C172.492 37.42 172.487 37.4993 172.475 37.556H165.777C165.868 38.4173 166.168 39.0633 166.678 39.494C167.2 39.9247 167.789 40.14 168.446 40.14C169.036 40.14 169.523 40.0097 169.908 39.749C170.294 39.477 170.6 39.1427 170.826 38.746L172.339 39.477C171.965 40.157 171.455 40.7123 170.809 41.143C170.163 41.5623 169.359 41.772 168.395 41.772ZM168.31 34.122C167.698 34.122 167.177 34.309 166.746 34.683C166.316 35.057 166.027 35.5557 165.879 36.179H170.69C170.668 35.8843 170.571 35.5783 170.401 35.261C170.231 34.9437 169.971 34.6773 169.619 34.462C169.279 34.2353 168.843 34.122 168.31 34.122ZM174.882 38.984V34.428H173.369V32.83H174.882V30.382H176.718V32.83H178.843V34.428H176.718V38.593C176.718 39.0237 176.803 39.3523 176.973 39.579C177.154 39.8057 177.454 39.919 177.874 39.919C178.089 39.919 178.27 39.8907 178.418 39.834C178.576 39.7773 178.735 39.698 178.894 39.596V41.381C178.701 41.4603 178.497 41.5227 178.282 41.568C178.066 41.6133 177.811 41.636 177.517 41.636C176.712 41.636 176.072 41.4037 175.596 40.939C175.12 40.463 174.882 39.8113 174.882 38.984Z" fill="white"/>
<rect x="0.5" y="0.5" width="198" height="54" rx="27" stroke="#747775"/>
<defs>
<linearGradient id="paint0_linear_1819_24092" x1="37.2843" y1="34.0448" x2="18.7823" y2="55.7227" gradientUnits="userSpaceOnUse">
<stop stop-color="#4285F4"/>
<stop offset="1" stop-color="#1B74E8"/>
</linearGradient>
</defs>
</svg>
