<svg width="213" height="55" viewBox="0 0 213 55" fill="none" xmlns="http://www.w3.org/2000/svg">
<rect x="0.5" y="0.5" width="212" height="54" rx="27" fill="#1F1F1F"/>
<path d="M57 23.791H21V18.1456C21 15.0809 23.6422 12.5001 26.7798 12.5001H51.2202C54.3578 12.5001 57 15.0809 57 18.1456V23.791Z" fill="#34A853"/>
<path d="M57 29H21V23C21 19.7429 23.6422 17 26.7798 17H51.2202C54.3578 17 57 19.7429 57 23V29Z" fill="#FBBC04"/>
<path d="M57 34H21V28C21 24.7429 23.6422 22 26.7798 22H51.2202C54.3578 22 57 24.7429 57 28V34Z" fill="#EA4335"/>
<path d="M21 25.2409L43.8493 30.4025C46.4795 31.0477 49.4384 30.4025 51.5753 28.7895L57 24.9183V37.0157C57 40.0804 54.3699 42.4999 51.2466 42.4999H26.7534C23.6301 42.4999 21 40.0804 21 37.0157V25.2409Z" fill="url(#paint0_linear_1819_24548)"/>
<path d="M70.053 21.5V12.192H73.03C74.0093 12.192 74.85 12.3913 75.552 12.79C76.2627 13.18 76.8087 13.726 77.19 14.428C77.58 15.13 77.775 15.936 77.775 16.846C77.775 17.7647 77.58 18.575 77.19 19.277C76.8087 19.9703 76.2627 20.5163 75.552 20.915C74.85 21.305 74.0093 21.5 73.03 21.5H70.053ZM71.483 20.148H72.991C74.0483 20.148 74.8673 19.8533 75.448 19.264C76.0373 18.6747 76.332 17.8687 76.332 16.846C76.332 15.8233 76.0373 15.0173 75.448 14.428C74.8673 13.8387 74.0483 13.544 72.991 13.544H71.483V20.148ZM82.105 21.708C81.4203 21.708 80.818 21.552 80.298 21.24C79.778 20.928 79.3707 20.5077 79.076 19.979C78.7813 19.4503 78.634 18.8523 78.634 18.185C78.634 17.5263 78.7813 16.9327 79.076 16.404C79.3707 15.8667 79.778 15.442 80.298 15.13C80.818 14.818 81.4203 14.662 82.105 14.662C82.781 14.662 83.379 14.818 83.899 15.13C84.419 15.442 84.8263 15.8667 85.121 16.404C85.4157 16.9327 85.563 17.5263 85.563 18.185C85.563 18.8523 85.4157 19.4503 85.121 19.979C84.8263 20.5077 84.419 20.928 83.899 21.24C83.379 21.552 82.781 21.708 82.105 21.708ZM82.105 20.421C82.469 20.421 82.807 20.3343 83.119 20.161C83.431 19.979 83.6823 19.7233 83.873 19.394C84.0723 19.056 84.172 18.653 84.172 18.185C84.172 17.717 84.0723 17.3183 83.873 16.989C83.6823 16.651 83.431 16.3953 83.119 16.222C82.807 16.04 82.469 15.949 82.105 15.949C81.741 15.949 81.3987 16.04 81.078 16.222C80.766 16.3953 80.5103 16.651 80.311 16.989C80.1203 17.3183 80.025 17.717 80.025 18.185C80.025 18.653 80.1203 19.056 80.311 19.394C80.5103 19.7233 80.766 19.979 81.078 20.161C81.3987 20.3343 81.741 20.421 82.105 20.421ZM89.6901 21.708C89.0921 21.708 88.5504 21.5607 88.0651 21.266C87.5884 20.9627 87.2071 20.5467 86.9211 20.018C86.6438 19.4807 86.5051 18.8697 86.5051 18.185C86.5051 17.5003 86.6438 16.8937 86.9211 16.365C87.2071 15.8363 87.5884 15.4203 88.0651 15.117C88.5504 14.8137 89.0921 14.662 89.6901 14.662C90.2014 14.662 90.6391 14.7747 91.0031 15C91.3758 15.2253 91.6488 15.481 91.8221 15.767H91.9001L91.8221 14.844V12.192H93.2131V21.5H91.9001V20.616H91.8221C91.6488 20.902 91.3758 21.1577 91.0031 21.383C90.6391 21.5997 90.2014 21.708 89.6901 21.708ZM89.8981 20.421C90.2448 20.421 90.5698 20.33 90.8731 20.148C91.1851 19.966 91.4321 19.7103 91.6141 19.381C91.8048 19.043 91.9001 18.6443 91.9001 18.185C91.9001 17.7257 91.8048 17.3313 91.6141 17.002C91.4321 16.664 91.1851 16.404 90.8731 16.222C90.5698 16.04 90.2448 15.949 89.8981 15.949C89.5514 15.949 89.2264 16.04 88.9231 16.222C88.6198 16.404 88.3728 16.664 88.1821 17.002C87.9914 17.3313 87.8961 17.7257 87.8961 18.185C87.8961 18.6443 87.9914 19.043 88.1821 19.381C88.3728 19.7103 88.6198 19.966 88.9231 20.148C89.2264 20.33 89.5514 20.421 89.8981 20.421ZM96.8834 21.708C96.4067 21.708 95.982 21.617 95.6094 21.435C95.2367 21.2443 94.9464 20.98 94.7384 20.642C94.5304 20.304 94.4264 19.9183 94.4264 19.485C94.4264 19.017 94.5477 18.6183 94.7904 18.289C95.0417 17.951 95.3754 17.6953 95.7914 17.522C96.2074 17.3487 96.6667 17.262 97.1694 17.262C97.5854 17.262 97.9494 17.301 98.2614 17.379C98.582 17.457 98.8247 17.5393 98.9894 17.626V17.275C98.9894 16.8417 98.8334 16.495 98.5214 16.235C98.2094 15.975 97.8064 15.845 97.3124 15.845C96.9744 15.845 96.6537 15.923 96.3504 16.079C96.047 16.2263 95.8044 16.43 95.6224 16.69L94.6604 15.949C94.9464 15.5503 95.3234 15.2383 95.7914 15.013C96.268 14.779 96.788 14.662 97.3514 14.662C98.3134 14.662 99.0544 14.9003 99.5744 15.377C100.094 15.845 100.354 16.5037 100.354 17.353V21.5H98.9894V20.681H98.9114C98.738 20.9497 98.478 21.188 98.1314 21.396C97.7847 21.604 97.3687 21.708 96.8834 21.708ZM97.1304 20.564C97.4944 20.564 97.815 20.4773 98.0924 20.304C98.3697 20.1307 98.5864 19.9053 98.7424 19.628C98.907 19.342 98.9894 19.0343 98.9894 18.705C98.79 18.5923 98.556 18.5013 98.2874 18.432C98.0187 18.354 97.7327 18.315 97.4294 18.315C96.8574 18.315 96.45 18.432 96.2074 18.666C95.9647 18.8913 95.8434 19.1687 95.8434 19.498C95.8434 19.81 95.9604 20.0657 96.1944 20.265C96.4284 20.4643 96.7404 20.564 97.1304 20.564ZM102.706 13.895C102.446 13.895 102.221 13.804 102.03 13.622C101.848 13.4313 101.757 13.206 101.757 12.946C101.757 12.686 101.848 12.465 102.03 12.283C102.221 12.101 102.446 12.01 102.706 12.01C102.966 12.01 103.187 12.101 103.369 12.283C103.56 12.465 103.655 12.686 103.655 12.946C103.655 13.206 103.56 13.4313 103.369 13.622C103.187 13.804 102.966 13.895 102.706 13.895ZM101.445 24.438C101.176 24.438 100.934 24.4077 100.717 24.347V22.995C100.804 23.047 100.903 23.086 101.016 23.112C101.12 23.1467 101.224 23.164 101.328 23.164C101.579 23.164 101.753 23.086 101.848 22.93C101.952 22.7827 102.004 22.566 102.004 22.28V14.87H103.408V22.293C103.408 23.0557 103.222 23.6017 102.849 23.931C102.476 24.269 102.008 24.438 101.445 24.438ZM111.018 21.708C110.42 21.708 109.879 21.5607 109.393 21.266C108.917 20.9627 108.535 20.5467 108.249 20.018C107.972 19.4807 107.833 18.8697 107.833 18.185C107.833 17.5003 107.972 16.8937 108.249 16.365C108.535 15.8363 108.917 15.4203 109.393 15.117C109.879 14.8137 110.42 14.662 111.018 14.662C111.53 14.662 111.967 14.7747 112.331 15C112.704 15.2253 112.977 15.481 113.15 15.767H113.228L113.15 14.844V12.192H114.541V21.5H113.228V20.616H113.15C112.977 20.902 112.704 21.1577 112.331 21.383C111.967 21.5997 111.53 21.708 111.018 21.708ZM111.226 20.421C111.573 20.421 111.898 20.33 112.201 20.148C112.513 19.966 112.76 19.7103 112.942 19.381C113.133 19.043 113.228 18.6443 113.228 18.185C113.228 17.7257 113.133 17.3313 112.942 17.002C112.76 16.664 112.513 16.404 112.201 16.222C111.898 16.04 111.573 15.949 111.226 15.949C110.88 15.949 110.555 16.04 110.251 16.222C109.948 16.404 109.701 16.664 109.51 17.002C109.32 17.3313 109.224 17.7257 109.224 18.185C109.224 18.6443 109.32 19.043 109.51 19.381C109.701 19.7103 109.948 19.966 110.251 20.148C110.555 20.33 110.88 20.421 111.226 20.421ZM119.252 21.708C118.567 21.708 117.965 21.552 117.445 21.24C116.925 20.928 116.517 20.5077 116.223 19.979C115.928 19.4503 115.781 18.8523 115.781 18.185C115.781 17.5263 115.928 16.9327 116.223 16.404C116.517 15.8667 116.925 15.442 117.445 15.13C117.965 14.818 118.567 14.662 119.252 14.662C119.928 14.662 120.526 14.818 121.046 15.13C121.566 15.442 121.973 15.8667 122.268 16.404C122.562 16.9327 122.71 17.5263 122.71 18.185C122.71 18.8523 122.562 19.4503 122.268 19.979C121.973 20.5077 121.566 20.928 121.046 21.24C120.526 21.552 119.928 21.708 119.252 21.708ZM119.252 20.421C119.616 20.421 119.954 20.3343 120.266 20.161C120.578 19.979 120.829 19.7233 121.02 19.394C121.219 19.056 121.319 18.653 121.319 18.185C121.319 17.717 121.219 17.3183 121.02 16.989C120.829 16.651 120.578 16.3953 120.266 16.222C119.954 16.04 119.616 15.949 119.252 15.949C118.888 15.949 118.545 16.04 118.225 16.222C117.913 16.3953 117.657 16.651 117.458 16.989C117.267 17.3183 117.172 17.717 117.172 18.185C117.172 18.653 117.267 19.056 117.458 19.394C117.657 19.7233 117.913 19.979 118.225 20.161C118.545 20.3343 118.888 20.421 119.252 20.421Z" fill="white"/>
<path d="M70.377 41.5V29.328H74.559C75.2957 29.328 75.9643 29.4867 76.565 29.804C77.1657 30.1213 77.6417 30.5577 77.993 31.113C78.3557 31.6683 78.537 32.3143 78.537 33.051C78.537 33.7877 78.3557 34.4393 77.993 35.006C77.6417 35.5613 77.1657 35.9977 76.565 36.315C75.9643 36.621 75.2957 36.774 74.559 36.774H72.247V41.5H70.377ZM74.61 31.096H72.247V35.006H74.61C75.052 35.006 75.426 34.9153 75.732 34.734C76.038 34.5413 76.2703 34.2977 76.429 34.003C76.599 33.697 76.684 33.3797 76.684 33.051C76.684 32.7223 76.599 32.4107 76.429 32.116C76.2703 31.8213 76.038 31.5777 75.732 31.385C75.426 31.1923 75.052 31.096 74.61 31.096ZM83.6305 41.772C82.7352 41.772 81.9475 41.568 81.2675 41.16C80.5875 40.752 80.0548 40.2023 79.6695 39.511C79.2842 38.8197 79.0915 38.0377 79.0915 37.165C79.0915 36.3037 79.2842 35.5273 79.6695 34.836C80.0548 34.1333 80.5875 33.578 81.2675 33.17C81.9475 32.762 82.7352 32.558 83.6305 32.558C84.5145 32.558 85.2965 32.762 85.9765 33.17C86.6565 33.578 87.1892 34.1333 87.5745 34.836C87.9598 35.5273 88.1525 36.3037 88.1525 37.165C88.1525 38.0377 87.9598 38.8197 87.5745 39.511C87.1892 40.2023 86.6565 40.752 85.9765 41.16C85.2965 41.568 84.5145 41.772 83.6305 41.772ZM83.6305 40.089C84.1065 40.089 84.5485 39.9757 84.9565 39.749C85.3645 39.511 85.6932 39.1767 85.9425 38.746C86.2032 38.304 86.3335 37.777 86.3335 37.165C86.3335 36.553 86.2032 36.0317 85.9425 35.601C85.6932 35.159 85.3645 34.8247 84.9565 34.598C84.5485 34.36 84.1065 34.241 83.6305 34.241C83.1545 34.241 82.7068 34.36 82.2875 34.598C81.8795 34.8247 81.5452 35.159 81.2845 35.601C81.0352 36.0317 80.9105 36.553 80.9105 37.165C80.9105 37.777 81.0352 38.304 81.2845 38.746C81.5452 39.1767 81.8795 39.511 82.2875 39.749C82.7068 39.9757 83.1545 40.089 83.6305 40.089ZM97.4804 38.984V34.428H95.9674V32.83H97.4804V30.382H99.3164V32.83H101.441V34.428H99.3164V38.593C99.3164 39.0237 99.4014 39.3523 99.5714 39.579C99.7528 39.8057 100.053 39.919 100.472 39.919C100.688 39.919 100.869 39.8907 101.016 39.834C101.175 39.7773 101.334 39.698 101.492 39.596V41.381C101.3 41.4603 101.096 41.5227 100.88 41.568C100.665 41.6133 100.416 41.636 100.132 41.636C99.3164 41.636 98.6704 41.4037 98.1944 40.939C97.7184 40.463 97.4804 39.8113 97.4804 38.984ZM89.6774 41.5V32.83H91.4114V34.105H91.5134C91.7401 33.629 92.0914 33.2607 92.5674 33C93.0434 32.728 93.5591 32.592 94.1144 32.592C94.4318 32.592 94.6698 32.6147 94.8284 32.66V34.496C94.5791 34.4167 94.2731 34.377 93.9104 34.377C93.1851 34.377 92.6014 34.6093 92.1594 35.074C91.7288 35.5387 91.5134 36.1677 91.5134 36.961V41.5H89.6774ZM104.376 41.5V34.428H102.795V32.83H104.376V32.116C104.376 31.504 104.507 30.9827 104.767 30.552C105.028 30.11 105.379 29.7757 105.821 29.549C106.275 29.311 106.785 29.192 107.351 29.192C107.657 29.192 107.918 29.2147 108.133 29.26C108.36 29.294 108.547 29.3393 108.694 29.396V31.181C108.547 31.1243 108.377 31.0677 108.184 31.011C108.003 30.943 107.776 30.909 107.504 30.909C107.153 30.909 106.847 31.028 106.586 31.266C106.326 31.4927 106.195 31.827 106.195 32.269V32.83H108.371V34.428H106.195V41.5H104.376ZM113.56 41.772C112.71 41.772 111.951 41.5737 111.282 41.177C110.614 40.7803 110.087 40.2363 109.701 39.545C109.327 38.8537 109.14 38.066 109.14 37.182C109.14 36.3547 109.322 35.5897 109.684 34.887C110.047 34.1843 110.551 33.6233 111.197 33.204C111.855 32.7733 112.608 32.558 113.458 32.558C114.354 32.558 115.113 32.7507 115.736 33.136C116.371 33.5213 116.853 34.0483 117.181 34.717C117.51 35.3857 117.674 36.1393 117.674 36.978C117.674 37.1027 117.669 37.216 117.657 37.318C117.657 37.42 117.652 37.4993 117.64 37.556H110.942C111.033 38.4173 111.333 39.0633 111.843 39.494C112.365 39.9247 112.954 40.14 113.611 40.14C114.201 40.14 114.688 40.0097 115.073 39.749C115.459 39.477 115.765 39.1427 115.991 38.746L117.504 39.477C117.13 40.157 116.62 40.7123 115.974 41.143C115.328 41.5623 114.524 41.772 113.56 41.772ZM113.475 34.122C112.863 34.122 112.342 34.309 111.911 34.683C111.481 35.057 111.192 35.5557 111.044 36.179H115.855C115.833 35.8843 115.736 35.5783 115.566 35.261C115.396 34.9437 115.136 34.6773 114.784 34.462C114.444 34.2353 114.008 34.122 113.475 34.122ZM119.395 41.5V29.328H121.231V41.5H119.395ZM126.032 41.772C125.409 41.772 124.854 41.653 124.366 41.415C123.879 41.1657 123.499 40.82 123.227 40.378C122.955 39.936 122.819 39.4317 122.819 38.865C122.819 38.253 122.978 37.7317 123.295 37.301C123.624 36.859 124.06 36.5247 124.604 36.298C125.148 36.0713 125.749 35.958 126.406 35.958C126.95 35.958 127.426 36.009 127.834 36.111C128.254 36.213 128.571 36.3207 128.786 36.434V35.975C128.786 35.4083 128.582 34.955 128.174 34.615C127.766 34.275 127.239 34.105 126.593 34.105C126.151 34.105 125.732 34.207 125.335 34.411C124.939 34.6037 124.621 34.87 124.383 35.21L123.125 34.241C123.499 33.7197 123.992 33.3117 124.604 33.017C125.228 32.711 125.908 32.558 126.644 32.558C127.902 32.558 128.871 32.8697 129.551 33.493C130.231 34.105 130.571 34.9663 130.571 36.077V41.5H128.786V40.429H128.684C128.458 40.7803 128.118 41.092 127.664 41.364C127.211 41.636 126.667 41.772 126.032 41.772ZM126.355 40.276C126.831 40.276 127.251 40.1627 127.613 39.936C127.976 39.7093 128.259 39.4147 128.463 39.052C128.679 38.678 128.786 38.2757 128.786 37.845C128.526 37.6977 128.22 37.5787 127.868 37.488C127.517 37.386 127.143 37.335 126.746 37.335C125.998 37.335 125.466 37.488 125.148 37.794C124.831 38.0887 124.672 38.4513 124.672 38.882C124.672 39.29 124.825 39.6243 125.131 39.885C125.437 40.1457 125.845 40.276 126.355 40.276ZM142.297 41.772C141.425 41.772 140.603 41.6133 139.832 41.296C139.073 40.9787 138.399 40.5367 137.809 39.97C137.22 39.392 136.755 38.7177 136.415 37.947C136.087 37.165 135.922 36.3207 135.922 35.414C135.922 34.5073 136.087 33.6687 136.415 32.898C136.755 32.116 137.214 31.4417 137.792 30.875C138.382 30.297 139.062 29.8493 139.832 29.532C140.603 29.2147 141.425 29.056 142.297 29.056C143.227 29.056 144.082 29.2203 144.864 29.549C145.658 29.8777 146.321 30.3367 146.853 30.926L145.561 32.201C145.165 31.759 144.689 31.419 144.133 31.181C143.589 30.943 142.977 30.824 142.297 30.824C141.493 30.824 140.75 31.0167 140.07 31.402C139.39 31.776 138.841 32.3087 138.421 33C138.013 33.68 137.809 34.4847 137.809 35.414C137.809 36.3433 138.019 37.1537 138.438 37.845C138.858 38.525 139.407 39.0577 140.087 39.443C140.767 39.817 141.51 40.004 142.314 40.004C143.051 40.004 143.72 39.868 144.32 39.596C144.921 39.3127 145.403 38.916 145.765 38.406C146.139 37.896 146.366 37.284 146.445 36.57H142.28V34.921H148.196C148.264 35.227 148.298 35.55 148.298 35.89V35.907C148.298 37.0857 148.038 38.117 147.516 39.001C147.006 39.8737 146.298 40.5537 145.391 41.041C144.485 41.5283 143.453 41.772 142.297 41.772ZM153.772 41.772C152.877 41.772 152.089 41.568 151.409 41.16C150.729 40.752 150.196 40.2023 149.811 39.511C149.426 38.8197 149.233 38.0377 149.233 37.165C149.233 36.3037 149.426 35.5273 149.811 34.836C150.196 34.1333 150.729 33.578 151.409 33.17C152.089 32.762 152.877 32.558 153.772 32.558C154.656 32.558 155.438 32.762 156.118 33.17C156.798 33.578 157.331 34.1333 157.716 34.836C158.101 35.5273 158.294 36.3037 158.294 37.165C158.294 38.0377 158.101 38.8197 157.716 39.511C157.331 40.2023 156.798 40.752 156.118 41.16C155.438 41.568 154.656 41.772 153.772 41.772ZM153.772 40.089C154.248 40.089 154.69 39.9757 155.098 39.749C155.506 39.511 155.835 39.1767 156.084 38.746C156.345 38.304 156.475 37.777 156.475 37.165C156.475 36.553 156.345 36.0317 156.084 35.601C155.835 35.159 155.506 34.8247 155.098 34.598C154.69 34.36 154.248 34.241 153.772 34.241C153.296 34.241 152.848 34.36 152.429 34.598C152.021 34.8247 151.687 35.159 151.426 35.601C151.177 36.0317 151.052 36.553 151.052 37.165C151.052 37.777 151.177 38.304 151.426 38.746C151.687 39.1767 152.021 39.511 152.429 39.749C152.848 39.9757 153.296 40.089 153.772 40.089ZM164.065 41.772C163.17 41.772 162.382 41.568 161.702 41.16C161.022 40.752 160.489 40.2023 160.104 39.511C159.719 38.8197 159.526 38.0377 159.526 37.165C159.526 36.3037 159.719 35.5273 160.104 34.836C160.489 34.1333 161.022 33.578 161.702 33.17C162.382 32.762 163.17 32.558 164.065 32.558C164.949 32.558 165.731 32.762 166.411 33.17C167.091 33.578 167.624 34.1333 168.009 34.836C168.394 35.5273 168.587 36.3037 168.587 37.165C168.587 38.0377 168.394 38.8197 168.009 39.511C167.624 40.2023 167.091 40.752 166.411 41.16C165.731 41.568 164.949 41.772 164.065 41.772ZM164.065 40.089C164.541 40.089 164.983 39.9757 165.391 39.749C165.799 39.511 166.128 39.1767 166.377 38.746C166.638 38.304 166.768 37.777 166.768 37.165C166.768 36.553 166.638 36.0317 166.377 35.601C166.128 35.159 165.799 34.8247 165.391 34.598C164.983 34.36 164.541 34.241 164.065 34.241C163.589 34.241 163.141 34.36 162.722 34.598C162.314 34.8247 161.98 35.159 161.719 35.601C161.47 36.0317 161.345 36.553 161.345 37.165C161.345 37.777 161.47 38.304 161.719 38.746C161.98 39.1767 162.314 39.511 162.722 39.749C163.141 39.9757 163.589 40.089 164.065 40.089ZM174.188 45.444C173.429 45.444 172.771 45.3193 172.216 45.07C171.672 44.832 171.23 44.5203 170.89 44.135C170.55 43.761 170.306 43.3757 170.159 42.979L171.859 42.265C172.04 42.7183 172.329 43.0867 172.726 43.37C173.134 43.6647 173.621 43.812 174.188 43.812C174.981 43.812 175.605 43.574 176.058 43.098C176.523 42.622 176.755 41.9477 176.755 41.075V40.242H176.653C176.381 40.65 176.001 40.9787 175.514 41.228C175.038 41.466 174.494 41.585 173.882 41.585C173.145 41.585 172.471 41.398 171.859 41.024C171.247 40.65 170.754 40.1287 170.38 39.46C170.006 38.78 169.819 37.9867 169.819 37.08C169.819 36.162 170.006 35.3687 170.38 34.7C170.754 34.02 171.247 33.493 171.859 33.119C172.471 32.745 173.145 32.558 173.882 32.558C174.494 32.558 175.038 32.6827 175.514 32.932C176.001 33.1813 176.381 33.51 176.653 33.918H176.755V32.83H178.506V41.041C178.506 41.9817 178.319 42.7807 177.945 43.438C177.582 44.0953 177.078 44.594 176.432 44.934C175.786 45.274 175.038 45.444 174.188 45.444ZM174.205 39.919C174.658 39.919 175.078 39.8113 175.463 39.596C175.848 39.3693 176.16 39.0463 176.398 38.627C176.636 38.1963 176.755 37.6807 176.755 37.08C176.755 36.4567 176.636 35.9353 176.398 35.516C176.16 35.0853 175.848 34.7623 175.463 34.547C175.078 34.3317 174.658 34.224 174.205 34.224C173.752 34.224 173.327 34.3373 172.93 34.564C172.545 34.7793 172.233 35.0967 171.995 35.516C171.757 35.9353 171.638 36.4567 171.638 37.08C171.638 37.692 171.757 38.2133 171.995 38.644C172.233 39.0633 172.545 39.3807 172.93 39.596C173.327 39.8113 173.752 39.919 174.205 39.919ZM180.671 41.5V29.328H182.507V41.5H180.671ZM188.55 41.772C187.7 41.772 186.94 41.5737 186.272 41.177C185.603 40.7803 185.076 40.2363 184.691 39.545C184.317 38.8537 184.13 38.066 184.13 37.182C184.13 36.3547 184.311 35.5897 184.674 34.887C185.036 34.1843 185.541 33.6233 186.187 33.204C186.844 32.7733 187.598 32.558 188.448 32.558C189.343 32.558 190.102 32.7507 190.726 33.136C191.36 33.5213 191.842 34.0483 192.171 34.717C192.499 35.3857 192.664 36.1393 192.664 36.978C192.664 37.1027 192.658 37.216 192.647 37.318C192.647 37.42 192.641 37.4993 192.63 37.556H185.932C186.022 38.4173 186.323 39.0633 186.833 39.494C187.354 39.9247 187.943 40.14 188.601 40.14C189.19 40.14 189.677 40.0097 190.063 39.749C190.448 39.477 190.754 39.1427 190.981 38.746L192.494 39.477C192.12 40.157 191.61 40.7123 190.964 41.143C190.318 41.5623 189.513 41.772 188.55 41.772ZM188.465 34.122C187.853 34.122 187.331 34.309 186.901 34.683C186.47 35.057 186.181 35.5557 186.034 36.179H190.845C190.822 35.8843 190.726 35.5783 190.556 35.261C190.386 34.9437 190.125 34.6773 189.774 34.462C189.434 34.2353 188.997 34.122 188.465 34.122Z" fill="white"/>
<rect x="0.5" y="0.5" width="212" height="54" rx="27" stroke="#747775"/>
<defs>
<linearGradient id="paint0_linear_1819_24548" x1="37.2843" y1="34.0448" x2="18.7823" y2="55.7227" gradientUnits="userSpaceOnUse">
<stop stop-color="#4285F4"/>
<stop offset="1" stop-color="#1B74E8"/>
</linearGradient>
</defs>
</svg>
