<svg width="213" height="55" viewBox="0 0 213 55" fill="none" xmlns="http://www.w3.org/2000/svg">
<rect x="0.5" y="0.5" width="212" height="54" rx="27" fill="#1F1F1F"/>
<path d="M57 23.791H21V18.1456C21 15.0809 23.6422 12.5001 26.7798 12.5001H51.2202C54.3578 12.5001 57 15.0809 57 18.1456V23.791Z" fill="#34A853"/>
<path d="M57 29H21V23C21 19.7429 23.6422 17 26.7798 17H51.2202C54.3578 17 57 19.7429 57 23V29Z" fill="#FBBC04"/>
<path d="M57 34H21V28C21 24.7429 23.6422 22 26.7798 22H51.2202C54.3578 22 57 24.7429 57 28V34Z" fill="#EA4335"/>
<path d="M21 25.2409L43.8493 30.4025C46.4795 31.0477 49.4384 30.4025 51.5753 28.7895L57 24.9183V37.0157C57 40.0804 54.3699 42.4999 51.2466 42.4999H26.7534C23.6301 42.4999 21 40.0804 21 37.0157V25.2409Z" fill="url(#paint0_linear_1819_24605)"/>
<path d="M69.195 21.5L72.705 12.192H74.33L77.853 21.5H76.28L75.422 19.108H71.626L70.768 21.5H69.195ZM73.134 14.935L72.107 17.782H74.941L73.914 14.935L73.563 13.869H73.485L73.134 14.935ZM81.5143 21.708C80.9163 21.708 80.3747 21.5607 79.8893 21.266C79.4127 20.9627 79.0313 20.5467 78.7453 20.018C78.468 19.4807 78.3293 18.8697 78.3293 18.185C78.3293 17.5003 78.468 16.8937 78.7453 16.365C79.0313 15.8363 79.4127 15.4203 79.8893 15.117C80.3747 14.8137 80.9163 14.662 81.5143 14.662C82.0257 14.662 82.4633 14.7747 82.8273 15C83.2 15.2253 83.473 15.481 83.6463 15.767H83.7243L83.6463 14.844V12.192H85.0373V21.5H83.7243V20.616H83.6463C83.473 20.902 83.2 21.1577 82.8273 21.383C82.4633 21.5997 82.0257 21.708 81.5143 21.708ZM81.7223 20.421C82.069 20.421 82.394 20.33 82.6973 20.148C83.0093 19.966 83.2563 19.7103 83.4383 19.381C83.629 19.043 83.7243 18.6443 83.7243 18.185C83.7243 17.7257 83.629 17.3313 83.4383 17.002C83.2563 16.664 83.0093 16.404 82.6973 16.222C82.394 16.04 82.069 15.949 81.7223 15.949C81.3757 15.949 81.0507 16.04 80.7473 16.222C80.444 16.404 80.197 16.664 80.0063 17.002C79.8157 17.3313 79.7203 17.7257 79.7203 18.185C79.7203 18.6443 79.8157 19.043 80.0063 19.381C80.197 19.7103 80.444 19.966 80.7473 20.148C81.0507 20.33 81.3757 20.421 81.7223 20.421ZM88.7076 21.708C88.2309 21.708 87.8063 21.617 87.4336 21.435C87.0609 21.2443 86.7706 20.98 86.5626 20.642C86.3546 20.304 86.2506 19.9183 86.2506 19.485C86.2506 19.017 86.3719 18.6183 86.6146 18.289C86.8659 17.951 87.1996 17.6953 87.6156 17.522C88.0316 17.3487 88.4909 17.262 88.9936 17.262C89.4096 17.262 89.7736 17.301 90.0856 17.379C90.4063 17.457 90.6489 17.5393 90.8136 17.626V17.275C90.8136 16.8417 90.6576 16.495 90.3456 16.235C90.0336 15.975 89.6306 15.845 89.1366 15.845C88.7986 15.845 88.4779 15.923 88.1746 16.079C87.8713 16.2263 87.6286 16.43 87.4466 16.69L86.4846 15.949C86.7706 15.5503 87.1476 15.2383 87.6156 15.013C88.0923 14.779 88.6123 14.662 89.1756 14.662C90.1376 14.662 90.8786 14.9003 91.3986 15.377C91.9186 15.845 92.1786 16.5037 92.1786 17.353V21.5H90.8136V20.681H90.7356C90.5623 20.9497 90.3023 21.188 89.9556 21.396C89.6089 21.604 89.1929 21.708 88.7076 21.708ZM88.9546 20.564C89.3186 20.564 89.6393 20.4773 89.9166 20.304C90.1939 20.1307 90.4106 19.9053 90.5666 19.628C90.7313 19.342 90.8136 19.0343 90.8136 18.705C90.6143 18.5923 90.3803 18.5013 90.1116 18.432C89.8429 18.354 89.5569 18.315 89.2536 18.315C88.6816 18.315 88.2743 18.432 88.0316 18.666C87.7889 18.8913 87.6676 19.1687 87.6676 19.498C87.6676 19.81 87.7846 20.0657 88.0186 20.265C88.2526 20.4643 88.5646 20.564 88.9546 20.564ZM89.2406 13.622C88.9373 13.622 88.6556 13.5483 88.3956 13.401C88.1356 13.2537 87.9233 13.0543 87.7586 12.803C87.6026 12.543 87.5246 12.2527 87.5246 11.932H88.5646C88.5646 12.114 88.6253 12.2743 88.7466 12.413C88.8679 12.5517 89.0326 12.621 89.2406 12.621C89.4399 12.621 89.5959 12.5517 89.7086 12.413C89.8299 12.2743 89.8906 12.114 89.8906 11.932H90.9306C90.9306 12.2527 90.8483 12.543 90.6836 12.803C90.5276 13.0543 90.3196 13.2537 90.0596 13.401C89.8083 13.5483 89.5353 13.622 89.2406 13.622ZM96.1293 21.708C95.3146 21.708 94.6993 21.4653 94.2833 20.98C93.8759 20.486 93.6723 19.8187 93.6723 18.978V14.87H95.0763V18.783C95.0763 19.3463 95.2063 19.7623 95.4663 20.031C95.7349 20.291 96.0686 20.421 96.4673 20.421C96.8226 20.421 97.1303 20.33 97.3903 20.148C97.6589 19.9573 97.8626 19.7147 98.0013 19.42C98.1486 19.1167 98.2223 18.7873 98.2223 18.432V14.87H99.6133V21.5H98.3003V20.603H98.2223C98.0316 20.915 97.7456 21.1793 97.3643 21.396C96.9916 21.604 96.5799 21.708 96.1293 21.708ZM104.192 24.516C103.611 24.516 103.108 24.4207 102.684 24.23C102.268 24.048 101.93 23.8097 101.67 23.515C101.41 23.229 101.223 22.9343 101.111 22.631L102.411 22.085C102.549 22.4317 102.77 22.7133 103.074 22.93C103.386 23.1553 103.758 23.268 104.192 23.268C104.798 23.268 105.275 23.086 105.622 22.722C105.977 22.358 106.155 21.8423 106.155 21.175V20.538H106.077C105.869 20.85 105.578 21.1013 105.206 21.292C104.842 21.474 104.426 21.565 103.958 21.565C103.394 21.565 102.879 21.422 102.411 21.136C101.943 20.85 101.566 20.4513 101.28 19.94C100.994 19.42 100.851 18.8133 100.851 18.12C100.851 17.418 100.994 16.8113 101.28 16.3C101.566 15.78 101.943 15.377 102.411 15.091C102.879 14.805 103.394 14.662 103.958 14.662C104.426 14.662 104.842 14.7573 105.206 14.948C105.578 15.1387 105.869 15.39 106.077 15.702H106.155V14.87H107.494V21.149C107.494 21.8683 107.351 22.4793 107.065 22.982C106.787 23.4847 106.402 23.866 105.908 24.126C105.414 24.386 104.842 24.516 104.192 24.516ZM104.205 20.291C104.551 20.291 104.872 20.2087 105.167 20.044C105.461 19.8707 105.7 19.6237 105.882 19.303C106.064 18.9737 106.155 18.5793 106.155 18.12C106.155 17.6433 106.064 17.2447 105.882 16.924C105.7 16.5947 105.461 16.3477 105.167 16.183C104.872 16.0183 104.551 15.936 104.205 15.936C103.858 15.936 103.533 16.0227 103.23 16.196C102.935 16.3607 102.697 16.6033 102.515 16.924C102.333 17.2447 102.242 17.6433 102.242 18.12C102.242 18.588 102.333 18.9867 102.515 19.316C102.697 19.6367 102.935 19.8793 103.23 20.044C103.533 20.2087 103.858 20.291 104.205 20.291ZM111.153 21.708C110.676 21.708 110.252 21.617 109.879 21.435C109.506 21.2443 109.216 20.98 109.008 20.642C108.8 20.304 108.696 19.9183 108.696 19.485C108.696 19.017 108.817 18.6183 109.06 18.289C109.311 17.951 109.645 17.6953 110.061 17.522C110.477 17.3487 110.936 17.262 111.439 17.262C111.855 17.262 112.219 17.301 112.531 17.379C112.852 17.457 113.094 17.5393 113.259 17.626V17.275C113.259 16.8417 113.103 16.495 112.791 16.235C112.479 15.975 112.076 15.845 111.582 15.845C111.244 15.845 110.923 15.923 110.62 16.079C110.317 16.2263 110.074 16.43 109.892 16.69L108.93 15.949C109.216 15.5503 109.593 15.2383 110.061 15.013C110.538 14.779 111.058 14.662 111.621 14.662C112.583 14.662 113.324 14.9003 113.844 15.377C114.364 15.845 114.624 16.5037 114.624 17.353V21.5H113.259V20.681H113.181C113.008 20.9497 112.748 21.188 112.401 21.396C112.054 21.604 111.638 21.708 111.153 21.708ZM111.4 20.564C111.764 20.564 112.085 20.4773 112.362 20.304C112.639 20.1307 112.856 19.9053 113.012 19.628C113.177 19.342 113.259 19.0343 113.259 18.705C113.06 18.5923 112.826 18.5013 112.557 18.432C112.288 18.354 112.002 18.315 111.699 18.315C111.127 18.315 110.72 18.432 110.477 18.666C110.234 18.8913 110.113 19.1687 110.113 19.498C110.113 19.81 110.23 20.0657 110.464 20.265C110.698 20.4643 111.01 20.564 111.4 20.564ZM116.745 19.576V16.092H115.588V14.87H116.745V12.998H118.149V14.87H119.774V16.092H118.149V19.277C118.149 19.6063 118.214 19.8577 118.344 20.031C118.482 20.2043 118.712 20.291 119.033 20.291C119.197 20.291 119.336 20.2693 119.449 20.226C119.57 20.1827 119.691 20.122 119.813 20.044V21.409C119.665 21.4697 119.509 21.5173 119.345 21.552C119.18 21.5867 118.985 21.604 118.76 21.604C118.144 21.604 117.655 21.4263 117.291 21.071C116.927 20.707 116.745 20.2087 116.745 19.576ZM117.967 24.893L117.408 24.516L117.954 23.697C117.789 23.645 117.655 23.5497 117.551 23.411C117.455 23.2723 117.408 23.1163 117.408 22.943C117.408 22.735 117.486 22.5443 117.642 22.371C117.798 22.2063 117.993 22.124 118.227 22.124C118.469 22.124 118.669 22.2063 118.825 22.371C118.981 22.5357 119.059 22.735 119.059 22.969C119.059 23.177 118.981 23.3937 118.825 23.619L117.967 24.893ZM122.003 13.895C121.743 13.895 121.518 13.804 121.327 13.622C121.145 13.4313 121.054 13.206 121.054 12.946C121.054 12.686 121.145 12.465 121.327 12.283C121.518 12.101 121.743 12.01 122.003 12.01C122.263 12.01 122.484 12.101 122.666 12.283C122.857 12.465 122.952 12.686 122.952 12.946C122.952 13.206 122.857 13.4313 122.666 13.622C122.484 13.804 122.263 13.895 122.003 13.895ZM121.301 21.5V14.87H122.705V21.5H121.301ZM127.494 21.5V12.192H128.898V21.5H127.494ZM132.57 21.708C132.093 21.708 131.669 21.617 131.296 21.435C130.923 21.2443 130.633 20.98 130.425 20.642C130.217 20.304 130.113 19.9183 130.113 19.485C130.113 19.017 130.234 18.6183 130.477 18.289C130.728 17.951 131.062 17.6953 131.478 17.522C131.894 17.3487 132.353 17.262 132.856 17.262C133.272 17.262 133.636 17.301 133.948 17.379C134.269 17.457 134.511 17.5393 134.676 17.626V17.275C134.676 16.8417 134.52 16.495 134.208 16.235C133.896 15.975 133.493 15.845 132.999 15.845C132.661 15.845 132.34 15.923 132.037 16.079C131.734 16.2263 131.491 16.43 131.309 16.69L130.347 15.949C130.633 15.5503 131.01 15.2383 131.478 15.013C131.955 14.779 132.475 14.662 133.038 14.662C134 14.662 134.741 14.9003 135.261 15.377C135.781 15.845 136.041 16.5037 136.041 17.353V21.5H134.676V20.681H134.598C134.425 20.9497 134.165 21.188 133.818 21.396C133.471 21.604 133.055 21.708 132.57 21.708ZM132.817 20.564C133.181 20.564 133.502 20.4773 133.779 20.304C134.056 20.1307 134.273 19.9053 134.429 19.628C134.594 19.342 134.676 19.0343 134.676 18.705C134.477 18.5923 134.243 18.5013 133.974 18.432C133.705 18.354 133.419 18.315 133.116 18.315C132.544 18.315 132.137 18.432 131.894 18.666C131.651 18.8913 131.53 19.1687 131.53 19.498C131.53 19.81 131.647 20.0657 131.881 20.265C132.115 20.4643 132.427 20.564 132.817 20.564Z" fill="white"/>
<path d="M70.377 41.5V29.328H74.559C75.2957 29.328 75.9643 29.4867 76.565 29.804C77.1657 30.1213 77.6417 30.5577 77.993 31.113C78.3557 31.6683 78.537 32.3143 78.537 33.051C78.537 33.7877 78.3557 34.4393 77.993 35.006C77.6417 35.5613 77.1657 35.9977 76.565 36.315C75.9643 36.621 75.2957 36.774 74.559 36.774H72.247V41.5H70.377ZM74.61 31.096H72.247V35.006H74.61C75.052 35.006 75.426 34.9153 75.732 34.734C76.038 34.5413 76.2703 34.2977 76.429 34.003C76.599 33.697 76.684 33.3797 76.684 33.051C76.684 32.7223 76.599 32.4107 76.429 32.116C76.2703 31.8213 76.038 31.5777 75.732 31.385C75.426 31.1923 75.052 31.096 74.61 31.096ZM83.6305 41.772C82.7352 41.772 81.9475 41.568 81.2675 41.16C80.5875 40.752 80.0548 40.2023 79.6695 39.511C79.2842 38.8197 79.0915 38.0377 79.0915 37.165C79.0915 36.3037 79.2842 35.5273 79.6695 34.836C80.0548 34.1333 80.5875 33.578 81.2675 33.17C81.9475 32.762 82.7352 32.558 83.6305 32.558C84.5145 32.558 85.2965 32.762 85.9765 33.17C86.6565 33.578 87.1892 34.1333 87.5745 34.836C87.9598 35.5273 88.1525 36.3037 88.1525 37.165C88.1525 38.0377 87.9598 38.8197 87.5745 39.511C87.1892 40.2023 86.6565 40.752 85.9765 41.16C85.2965 41.568 84.5145 41.772 83.6305 41.772ZM83.6305 40.089C84.1065 40.089 84.5485 39.9757 84.9565 39.749C85.3645 39.511 85.6932 39.1767 85.9425 38.746C86.2032 38.304 86.3335 37.777 86.3335 37.165C86.3335 36.553 86.2032 36.0317 85.9425 35.601C85.6932 35.159 85.3645 34.8247 84.9565 34.598C84.5485 34.36 84.1065 34.241 83.6305 34.241C83.1545 34.241 82.7068 34.36 82.2875 34.598C81.8795 34.8247 81.5452 35.159 81.2845 35.601C81.0352 36.0317 80.9105 36.553 80.9105 37.165C80.9105 37.777 81.0352 38.304 81.2845 38.746C81.5452 39.1767 81.8795 39.511 82.2875 39.749C82.7068 39.9757 83.1545 40.089 83.6305 40.089ZM97.4804 38.984V34.428H95.9674V32.83H97.4804V30.382H99.3164V32.83H101.441V34.428H99.3164V38.593C99.3164 39.0237 99.4014 39.3523 99.5714 39.579C99.7528 39.8057 100.053 39.919 100.472 39.919C100.688 39.919 100.869 39.8907 101.016 39.834C101.175 39.7773 101.334 39.698 101.492 39.596V41.381C101.3 41.4603 101.096 41.5227 100.88 41.568C100.665 41.6133 100.416 41.636 100.132 41.636C99.3164 41.636 98.6704 41.4037 98.1944 40.939C97.7184 40.463 97.4804 39.8113 97.4804 38.984ZM89.6774 41.5V32.83H91.4114V34.105H91.5134C91.7401 33.629 92.0914 33.2607 92.5674 33C93.0434 32.728 93.5591 32.592 94.1144 32.592C94.4318 32.592 94.6698 32.6147 94.8284 32.66V34.496C94.5791 34.4167 94.2731 34.377 93.9104 34.377C93.1851 34.377 92.6014 34.6093 92.1594 35.074C91.7288 35.5387 91.5134 36.1677 91.5134 36.961V41.5H89.6774ZM106.972 41.772C106.077 41.772 105.289 41.568 104.609 41.16C103.929 40.752 103.397 40.2023 103.011 39.511C102.626 38.8197 102.433 38.0377 102.433 37.165C102.433 36.3037 102.626 35.5273 103.011 34.836C103.397 34.1333 103.929 33.578 104.609 33.17C105.289 32.762 106.077 32.558 106.972 32.558C107.856 32.558 108.638 32.762 109.318 33.17C109.998 33.578 110.531 34.1333 110.916 34.836C111.302 35.5273 111.494 36.3037 111.494 37.165C111.494 38.0377 111.302 38.8197 110.916 39.511C110.531 40.2023 109.998 40.752 109.318 41.16C108.638 41.568 107.856 41.772 106.972 41.772ZM106.972 40.089C107.448 40.089 107.89 39.9757 108.298 39.749C108.706 39.511 109.035 39.1767 109.284 38.746C109.545 38.304 109.675 37.777 109.675 37.165C109.675 36.553 109.545 36.0317 109.284 35.601C109.035 35.159 108.706 34.8247 108.298 34.598C107.89 34.36 107.448 34.241 106.972 34.241C106.496 34.241 106.049 34.36 105.629 34.598C105.221 34.8247 104.887 35.159 104.626 35.601C104.377 36.0317 104.252 36.553 104.252 37.165C104.252 37.777 104.377 38.304 104.626 38.746C104.887 39.1767 105.221 39.511 105.629 39.749C106.049 39.9757 106.496 40.089 106.972 40.089ZM113.922 41.5V34.428H112.341V32.83H113.922V32.116C113.922 31.504 114.053 30.9827 114.313 30.552C114.574 30.11 114.925 29.7757 115.367 29.549C115.821 29.311 116.331 29.192 116.897 29.192C117.203 29.192 117.464 29.2147 117.679 29.26C117.906 29.294 118.093 29.3393 118.24 29.396V31.181C118.093 31.1243 117.923 31.0677 117.73 31.011C117.549 30.943 117.322 30.909 117.05 30.909C116.699 30.909 116.393 31.028 116.132 31.266C115.872 31.4927 115.741 31.827 115.741 32.269V32.83H117.917V34.428H115.741V41.5H113.922ZM123.106 41.772C122.256 41.772 121.497 41.5737 120.828 41.177C120.16 40.7803 119.633 40.2363 119.247 39.545C118.873 38.8537 118.686 38.066 118.686 37.182C118.686 36.3547 118.868 35.5897 119.23 34.887C119.593 34.1843 120.097 33.6233 120.743 33.204C121.401 32.7733 122.154 32.558 123.004 32.558C123.9 32.558 124.659 32.7507 125.282 33.136C125.917 33.5213 126.399 34.0483 126.727 34.717C127.056 35.3857 127.22 36.1393 127.22 36.978C127.22 37.1027 127.215 37.216 127.203 37.318C127.203 37.42 127.198 37.4993 127.186 37.556H120.488C120.579 38.4173 120.879 39.0633 121.389 39.494C121.911 39.9247 122.5 40.14 123.157 40.14C123.747 40.14 124.234 40.0097 124.619 39.749C125.005 39.477 125.311 39.1427 125.537 38.746L127.05 39.477C126.676 40.157 126.166 40.7123 125.52 41.143C124.874 41.5623 124.07 41.772 123.106 41.772ZM123.021 34.122C122.409 34.122 121.888 34.309 121.457 34.683C121.027 35.057 120.738 35.5557 120.59 36.179H125.401C125.379 35.8843 125.282 35.5783 125.112 35.261C124.942 34.9437 124.682 34.6773 124.33 34.462C123.99 34.2353 123.554 34.122 123.021 34.122ZM128.941 41.5V29.328H130.777V41.5H128.941ZM142.646 41.772C141.773 41.772 140.952 41.6133 140.181 41.296C139.422 40.9787 138.747 40.5367 138.158 39.97C137.569 39.392 137.104 38.7177 136.764 37.947C136.435 37.165 136.271 36.3207 136.271 35.414C136.271 34.5073 136.435 33.6687 136.764 32.898C137.104 32.116 137.563 31.4417 138.141 30.875C138.73 30.297 139.41 29.8493 140.181 29.532C140.952 29.2147 141.773 29.056 142.646 29.056C143.575 29.056 144.431 29.2203 145.213 29.549C146.006 29.8777 146.669 30.3367 147.202 30.926L145.91 32.201C145.513 31.759 145.037 31.419 144.482 31.181C143.938 30.943 143.326 30.824 142.646 30.824C141.841 30.824 141.099 31.0167 140.419 31.402C139.739 31.776 139.189 32.3087 138.77 33C138.362 33.68 138.158 34.4847 138.158 35.414C138.158 36.3433 138.368 37.1537 138.787 37.845C139.206 38.525 139.756 39.0577 140.436 39.443C141.116 39.817 141.858 40.004 142.663 40.004C143.4 40.004 144.068 39.868 144.669 39.596C145.27 39.3127 145.751 38.916 146.114 38.406C146.488 37.896 146.715 37.284 146.794 36.57H142.629V34.921H148.545C148.613 35.227 148.647 35.55 148.647 35.89V35.907C148.647 37.0857 148.386 38.117 147.865 39.001C147.355 39.8737 146.647 40.5537 145.74 41.041C144.833 41.5283 143.802 41.772 142.646 41.772ZM154.121 41.772C153.225 41.772 152.438 41.568 151.758 41.16C151.078 40.752 150.545 40.2023 150.16 39.511C149.774 38.8197 149.582 38.0377 149.582 37.165C149.582 36.3037 149.774 35.5273 150.16 34.836C150.545 34.1333 151.078 33.578 151.758 33.17C152.438 32.762 153.225 32.558 154.121 32.558C155.005 32.558 155.787 32.762 156.467 33.17C157.147 33.578 157.679 34.1333 158.065 34.836C158.45 35.5273 158.643 36.3037 158.643 37.165C158.643 38.0377 158.45 38.8197 158.065 39.511C157.679 40.2023 157.147 40.752 156.467 41.16C155.787 41.568 155.005 41.772 154.121 41.772ZM154.121 40.089C154.597 40.089 155.039 39.9757 155.447 39.749C155.855 39.511 156.183 39.1767 156.433 38.746C156.693 38.304 156.824 37.777 156.824 37.165C156.824 36.553 156.693 36.0317 156.433 35.601C156.183 35.159 155.855 34.8247 155.447 34.598C155.039 34.36 154.597 34.241 154.121 34.241C153.645 34.241 153.197 34.36 152.778 34.598C152.37 34.8247 152.035 35.159 151.775 35.601C151.525 36.0317 151.401 36.553 151.401 37.165C151.401 37.777 151.525 38.304 151.775 38.746C152.035 39.1767 152.37 39.511 152.778 39.749C153.197 39.9757 153.645 40.089 154.121 40.089ZM164.414 41.772C163.518 41.772 162.731 41.568 162.051 41.16C161.371 40.752 160.838 40.2023 160.453 39.511C160.067 38.8197 159.875 38.0377 159.875 37.165C159.875 36.3037 160.067 35.5273 160.453 34.836C160.838 34.1333 161.371 33.578 162.051 33.17C162.731 32.762 163.518 32.558 164.414 32.558C165.298 32.558 166.08 32.762 166.76 33.17C167.44 33.578 167.972 34.1333 168.358 34.836C168.743 35.5273 168.936 36.3037 168.936 37.165C168.936 38.0377 168.743 38.8197 168.358 39.511C167.972 40.2023 167.44 40.752 166.76 41.16C166.08 41.568 165.298 41.772 164.414 41.772ZM164.414 40.089C164.89 40.089 165.332 39.9757 165.74 39.749C166.148 39.511 166.476 39.1767 166.726 38.746C166.986 38.304 167.117 37.777 167.117 37.165C167.117 36.553 166.986 36.0317 166.726 35.601C166.476 35.159 166.148 34.8247 165.74 34.598C165.332 34.36 164.89 34.241 164.414 34.241C163.938 34.241 163.49 34.36 163.071 34.598C162.663 34.8247 162.328 35.159 162.068 35.601C161.818 36.0317 161.694 36.553 161.694 37.165C161.694 37.777 161.818 38.304 162.068 38.746C162.328 39.1767 162.663 39.511 163.071 39.749C163.49 39.9757 163.938 40.089 164.414 40.089ZM174.537 45.444C173.777 45.444 173.12 45.3193 172.565 45.07C172.021 44.832 171.579 44.5203 171.239 44.135C170.899 43.761 170.655 43.3757 170.508 42.979L172.208 42.265C172.389 42.7183 172.678 43.0867 173.075 43.37C173.483 43.6647 173.97 43.812 174.537 43.812C175.33 43.812 175.953 43.574 176.407 43.098C176.871 42.622 177.104 41.9477 177.104 41.075V40.242H177.002C176.73 40.65 176.35 40.9787 175.863 41.228C175.387 41.466 174.843 41.585 174.231 41.585C173.494 41.585 172.82 41.398 172.208 41.024C171.596 40.65 171.103 40.1287 170.729 39.46C170.355 38.78 170.168 37.9867 170.168 37.08C170.168 36.162 170.355 35.3687 170.729 34.7C171.103 34.02 171.596 33.493 172.208 33.119C172.82 32.745 173.494 32.558 174.231 32.558C174.843 32.558 175.387 32.6827 175.863 32.932C176.35 33.1813 176.73 33.51 177.002 33.918H177.104V32.83H178.855V41.041C178.855 41.9817 178.668 42.7807 178.294 43.438C177.931 44.0953 177.427 44.594 176.781 44.934C176.135 45.274 175.387 45.444 174.537 45.444ZM174.554 39.919C175.007 39.919 175.426 39.8113 175.812 39.596C176.197 39.3693 176.509 39.0463 176.747 38.627C176.985 38.1963 177.104 37.6807 177.104 37.08C177.104 36.4567 176.985 35.9353 176.747 35.516C176.509 35.0853 176.197 34.7623 175.812 34.547C175.426 34.3317 175.007 34.224 174.554 34.224C174.1 34.224 173.675 34.3373 173.279 34.564C172.893 34.7793 172.582 35.0967 172.344 35.516C172.106 35.9353 171.987 36.4567 171.987 37.08C171.987 37.692 172.106 38.2133 172.344 38.644C172.582 39.0633 172.893 39.3807 173.279 39.596C173.675 39.8113 174.1 39.919 174.554 39.919ZM181.02 41.5V29.328H182.856V41.5H181.02ZM188.898 41.772C188.048 41.772 187.289 41.5737 186.62 41.177C185.952 40.7803 185.425 40.2363 185.039 39.545C184.665 38.8537 184.478 38.066 184.478 37.182C184.478 36.3547 184.66 35.5897 185.022 34.887C185.385 34.1843 185.889 33.6233 186.535 33.204C187.193 32.7733 187.946 32.558 188.796 32.558C189.692 32.558 190.451 32.7507 191.074 33.136C191.709 33.5213 192.191 34.0483 192.519 34.717C192.848 35.3857 193.012 36.1393 193.012 36.978C193.012 37.1027 193.007 37.216 192.995 37.318C192.995 37.42 192.99 37.4993 192.978 37.556H186.28C186.371 38.4173 186.671 39.0633 187.181 39.494C187.703 39.9247 188.292 40.14 188.949 40.14C189.539 40.14 190.026 40.0097 190.411 39.749C190.797 39.477 191.103 39.1427 191.329 38.746L192.842 39.477C192.468 40.157 191.958 40.7123 191.312 41.143C190.666 41.5623 189.862 41.772 188.898 41.772ZM188.813 34.122C188.201 34.122 187.68 34.309 187.249 34.683C186.819 35.057 186.53 35.5557 186.382 36.179H191.193C191.171 35.8843 191.074 35.5783 190.904 35.261C190.734 34.9437 190.474 34.6773 190.122 34.462C189.782 34.2353 189.346 34.122 188.813 34.122Z" fill="white"/>
<rect x="0.5" y="0.5" width="212" height="54" rx="27" stroke="#747775"/>
<defs>
<linearGradient id="paint0_linear_1819_24605" x1="37.2843" y1="34.0448" x2="18.7823" y2="55.7227" gradientUnits="userSpaceOnUse">
<stop stop-color="#4285F4"/>
<stop offset="1" stop-color="#1B74E8"/>
</linearGradient>
</defs>
</svg>
