<svg width="199" height="55" viewBox="0 0 199 55" fill="none" xmlns="http://www.w3.org/2000/svg">
<rect x="0.5" y="0.5" width="198" height="54" rx="27" fill="#1F1F1F"/>
<path d="M57 23.791H21V18.1456C21 15.0809 23.6422 12.5001 26.7798 12.5001H51.2202C54.3578 12.5001 57 15.0809 57 18.1456V23.791Z" fill="#34A853"/>
<path d="M57 29H21V23C21 19.7429 23.6422 17 26.7798 17H51.2202C54.3578 17 57 19.7429 57 23V29Z" fill="#FBBC04"/>
<path d="M57 34H21V28C21 24.7429 23.6422 22 26.7798 22H51.2202C54.3578 22 57 24.7429 57 28V34Z" fill="#EA4335"/>
<path d="M21 25.2409L43.8493 30.4025C46.4795 31.0477 49.4384 30.4025 51.5753 28.7895L57 24.9183V37.0157C57 40.0804 54.3699 42.4999 51.2466 42.4999H26.7534C23.6301 42.4999 21 40.0804 21 37.0157V25.2409Z" fill="url(#paint0_linear_1819_24738)"/>
<path d="M70.053 21.5V12.192H71.483V20.148H75.487V21.5H70.053ZM78.7926 21.708C78.3159 21.708 77.8912 21.617 77.5186 21.435C77.1459 21.2443 76.8556 20.98 76.6476 20.642C76.4396 20.304 76.3356 19.9183 76.3356 19.485C76.3356 19.017 76.4569 18.6183 76.6996 18.289C76.9509 17.951 77.2846 17.6953 77.7006 17.522C78.1166 17.3487 78.5759 17.262 79.0786 17.262C79.4946 17.262 79.8586 17.301 80.1706 17.379C80.4912 17.457 80.7339 17.5393 80.8986 17.626V17.275C80.8986 16.8417 80.7426 16.495 80.4306 16.235C80.1186 15.975 79.7156 15.845 79.2216 15.845C78.8836 15.845 78.5629 15.923 78.2596 16.079C77.9562 16.2263 77.7136 16.43 77.5316 16.69L76.5696 15.949C76.8556 15.5503 77.2326 15.2383 77.7006 15.013C78.1772 14.779 78.6972 14.662 79.2606 14.662C80.2226 14.662 80.9636 14.9003 81.4836 15.377C82.0036 15.845 82.2636 16.5037 82.2636 17.353V21.5H80.8986V20.681H80.8206C80.6472 20.9497 80.3872 21.188 80.0406 21.396C79.6939 21.604 79.2779 21.708 78.7926 21.708ZM79.0396 20.564C79.4036 20.564 79.7242 20.4773 80.0016 20.304C80.2789 20.1307 80.4956 19.9053 80.6516 19.628C80.8162 19.342 80.8986 19.0343 80.8986 18.705C80.6992 18.5923 80.4652 18.5013 80.1966 18.432C79.9279 18.354 79.6419 18.315 79.3386 18.315C78.7666 18.315 78.3592 18.432 78.1166 18.666C77.8739 18.8913 77.7526 19.1687 77.7526 19.498C77.7526 19.81 77.8696 20.0657 78.1036 20.265C78.3376 20.4643 78.6496 20.564 79.0396 20.564ZM80.4696 13.518C80.2529 13.518 80.0622 13.44 79.8976 13.284C79.7416 13.1193 79.6636 12.9243 79.6636 12.699C79.6636 12.4737 79.7416 12.2873 79.8976 12.14C80.0622 11.984 80.2529 11.906 80.4696 11.906C80.7036 11.906 80.8986 11.984 81.0546 12.14C81.2106 12.2873 81.2886 12.4737 81.2886 12.699C81.2886 12.9243 81.2106 13.1193 81.0546 13.284C80.8986 13.44 80.7036 13.518 80.4696 13.518ZM78.1686 13.518C77.9519 13.518 77.7612 13.44 77.5966 13.284C77.4406 13.1193 77.3626 12.9243 77.3626 12.699C77.3626 12.4737 77.4406 12.2873 77.5966 12.14C77.7612 11.984 77.9519 11.906 78.1686 11.906C78.4026 11.906 78.5932 11.984 78.7406 12.14C78.8966 12.2873 78.9746 12.4737 78.9746 12.699C78.9746 12.9243 78.8966 13.1193 78.7406 13.284C78.5932 13.44 78.4026 13.518 78.1686 13.518ZM86.7358 24.516C86.1551 24.516 85.6524 24.4207 85.2278 24.23C84.8118 24.048 84.4738 23.8097 84.2138 23.515C83.9538 23.229 83.7674 22.9343 83.6548 22.631L84.9548 22.085C85.0934 22.4317 85.3144 22.7133 85.6178 22.93C85.9298 23.1553 86.3024 23.268 86.7358 23.268C87.3424 23.268 87.8191 23.086 88.1658 22.722C88.5211 22.358 88.6988 21.8423 88.6988 21.175V20.538H88.6208C88.4128 20.85 88.1224 21.1013 87.7498 21.292C87.3858 21.474 86.9698 21.565 86.5018 21.565C85.9384 21.565 85.4228 21.422 84.9548 21.136C84.4868 20.85 84.1098 20.4513 83.8238 19.94C83.5378 19.42 83.3948 18.8133 83.3948 18.12C83.3948 17.418 83.5378 16.8113 83.8238 16.3C84.1098 15.78 84.4868 15.377 84.9548 15.091C85.4228 14.805 85.9384 14.662 86.5018 14.662C86.9698 14.662 87.3858 14.7573 87.7498 14.948C88.1224 15.1387 88.4128 15.39 88.6208 15.702H88.6988V14.87H90.0378V21.149C90.0378 21.8683 89.8948 22.4793 89.6088 22.982C89.3314 23.4847 88.9458 23.866 88.4518 24.126C87.9578 24.386 87.3858 24.516 86.7358 24.516ZM86.7488 20.291C87.0954 20.291 87.4161 20.2087 87.7108 20.044C88.0054 19.8707 88.2438 19.6237 88.4258 19.303C88.6078 18.9737 88.6988 18.5793 88.6988 18.12C88.6988 17.6433 88.6078 17.2447 88.4258 16.924C88.2438 16.5947 88.0054 16.3477 87.7108 16.183C87.4161 16.0183 87.0954 15.936 86.7488 15.936C86.4021 15.936 86.0771 16.0227 85.7738 16.196C85.4791 16.3607 85.2408 16.6033 85.0588 16.924C84.8768 17.2447 84.7858 17.6433 84.7858 18.12C84.7858 18.588 84.8768 18.9867 85.0588 19.316C85.2408 19.6367 85.4791 19.8793 85.7738 20.044C86.0771 20.2087 86.4021 20.291 86.7488 20.291ZM94.6069 24.516C94.0262 24.516 93.5235 24.4207 93.0989 24.23C92.6829 24.048 92.3449 23.8097 92.0849 23.515C91.8249 23.229 91.6385 22.9343 91.5259 22.631L92.8259 22.085C92.9645 22.4317 93.1855 22.7133 93.4889 22.93C93.8009 23.1553 94.1735 23.268 94.6069 23.268C95.2135 23.268 95.6902 23.086 96.0369 22.722C96.3922 22.358 96.5699 21.8423 96.5699 21.175V20.538H96.4919C96.2839 20.85 95.9935 21.1013 95.6209 21.292C95.2569 21.474 94.8409 21.565 94.3729 21.565C93.8095 21.565 93.2939 21.422 92.8259 21.136C92.3579 20.85 91.9809 20.4513 91.6949 19.94C91.4089 19.42 91.2659 18.8133 91.2659 18.12C91.2659 17.418 91.4089 16.8113 91.6949 16.3C91.9809 15.78 92.3579 15.377 92.8259 15.091C93.2939 14.805 93.8095 14.662 94.3729 14.662C94.8409 14.662 95.2569 14.7573 95.6209 14.948C95.9935 15.1387 96.2839 15.39 96.4919 15.702H96.5699V14.87H97.9089V21.149C97.9089 21.8683 97.7659 22.4793 97.4799 22.982C97.2025 23.4847 96.8169 23.866 96.3229 24.126C95.8289 24.386 95.2569 24.516 94.6069 24.516ZM94.6199 20.291C94.9665 20.291 95.2872 20.2087 95.5819 20.044C95.8765 19.8707 96.1149 19.6237 96.2969 19.303C96.4789 18.9737 96.5699 18.5793 96.5699 18.12C96.5699 17.6433 96.4789 17.2447 96.2969 16.924C96.1149 16.5947 95.8765 16.3477 95.5819 16.183C95.2872 16.0183 94.9665 15.936 94.6199 15.936C94.2732 15.936 93.9482 16.0227 93.6449 16.196C93.3502 16.3607 93.1119 16.6033 92.9299 16.924C92.7479 17.2447 92.6569 17.6433 92.6569 18.12C92.6569 18.588 92.7479 18.9867 92.9299 19.316C93.1119 19.6367 93.3502 19.8793 93.6449 20.044C93.9482 20.2087 94.2732 20.291 94.6199 20.291ZM103.288 19.576V16.092H102.131V14.87H103.288V12.998H104.692V14.87H106.317V16.092H104.692V19.277C104.692 19.6063 104.757 19.8577 104.887 20.031C105.025 20.2043 105.255 20.291 105.576 20.291C105.74 20.291 105.879 20.2693 105.992 20.226C106.113 20.1827 106.234 20.122 106.356 20.044V21.409C106.208 21.4697 106.052 21.5173 105.888 21.552C105.723 21.5867 105.528 21.604 105.303 21.604C104.687 21.604 104.198 21.4263 103.834 21.071C103.47 20.707 103.288 20.2087 103.288 19.576ZM108.533 13.895C108.273 13.895 108.048 13.804 107.857 13.622C107.675 13.4313 107.584 13.206 107.584 12.946C107.584 12.686 107.675 12.465 107.857 12.283C108.048 12.101 108.273 12.01 108.533 12.01C108.793 12.01 109.014 12.101 109.196 12.283C109.387 12.465 109.482 12.686 109.482 12.946C109.482 13.206 109.387 13.4313 109.196 13.622C109.014 13.804 108.793 13.895 108.533 13.895ZM107.831 21.5V14.87H109.235V21.5H107.831ZM110.99 21.5V12.192H112.394V21.5H110.99ZM114.062 21.5V12.192H115.466V21.5H114.062ZM120.962 13.895C120.702 13.895 120.477 13.804 120.286 13.622C120.104 13.4313 120.013 13.206 120.013 12.946C120.013 12.686 120.104 12.465 120.286 12.283C120.477 12.101 120.702 12.01 120.962 12.01C121.222 12.01 121.443 12.101 121.625 12.283C121.816 12.465 121.911 12.686 121.911 12.946C121.911 13.206 121.816 13.4313 121.625 13.622C121.443 13.804 121.222 13.895 120.962 13.895ZM120.26 21.5V14.87H121.664V21.5H120.26Z" fill="white"/>
<path d="M76.14 41.772C75.2673 41.772 74.4457 41.6133 73.675 41.296C72.9157 40.9787 72.2413 40.5367 71.652 39.97C71.0627 39.392 70.598 38.7177 70.258 37.947C69.9293 37.165 69.765 36.3207 69.765 35.414C69.765 34.5073 69.9293 33.6687 70.258 32.898C70.598 32.116 71.057 31.4417 71.635 30.875C72.2243 30.297 72.9043 29.8493 73.675 29.532C74.4457 29.2147 75.2673 29.056 76.14 29.056C77.0693 29.056 77.925 29.2203 78.707 29.549C79.5003 29.8777 80.1633 30.3367 80.696 30.926L79.404 32.201C79.0073 31.759 78.5313 31.419 77.976 31.181C77.432 30.943 76.82 30.824 76.14 30.824C75.3353 30.824 74.593 31.0167 73.913 31.402C73.233 31.776 72.6833 32.3087 72.264 33C71.856 33.68 71.652 34.4847 71.652 35.414C71.652 36.3433 71.8617 37.1537 72.281 37.845C72.7003 38.525 73.25 39.0577 73.93 39.443C74.61 39.817 75.3523 40.004 76.157 40.004C76.8937 40.004 77.5623 39.868 78.163 39.596C78.7637 39.3127 79.2453 38.916 79.608 38.406C79.982 37.896 80.2087 37.284 80.288 36.57H76.123V34.921H82.039C82.107 35.227 82.141 35.55 82.141 35.89V35.907C82.141 37.0857 81.8803 38.117 81.359 39.001C80.849 39.8737 80.1407 40.5537 79.234 41.041C78.3273 41.5283 77.296 41.772 76.14 41.772ZM87.6149 41.772C86.7195 41.772 85.9319 41.568 85.2519 41.16C84.5719 40.752 84.0392 40.2023 83.6539 39.511C83.2685 38.8197 83.0759 38.0377 83.0759 37.165C83.0759 36.3037 83.2685 35.5273 83.6539 34.836C84.0392 34.1333 84.5719 33.578 85.2519 33.17C85.9319 32.762 86.7195 32.558 87.6149 32.558C88.4989 32.558 89.2809 32.762 89.9609 33.17C90.6409 33.578 91.1735 34.1333 91.5589 34.836C91.9442 35.5273 92.1369 36.3037 92.1369 37.165C92.1369 38.0377 91.9442 38.8197 91.5589 39.511C91.1735 40.2023 90.6409 40.752 89.9609 41.16C89.2809 41.568 88.4989 41.772 87.6149 41.772ZM87.6149 40.089C88.0909 40.089 88.5329 39.9757 88.9409 39.749C89.3489 39.511 89.6775 39.1767 89.9269 38.746C90.1875 38.304 90.3179 37.777 90.3179 37.165C90.3179 36.553 90.1875 36.0317 89.9269 35.601C89.6775 35.159 89.3489 34.8247 88.9409 34.598C88.5329 34.36 88.0909 34.241 87.6149 34.241C87.1389 34.241 86.6912 34.36 86.2719 34.598C85.8639 34.8247 85.5295 35.159 85.2689 35.601C85.0195 36.0317 84.8949 36.553 84.8949 37.165C84.8949 37.777 85.0195 38.304 85.2689 38.746C85.5295 39.1767 85.8639 39.511 86.2719 39.749C86.6912 39.9757 87.1389 40.089 87.6149 40.089ZM97.9078 41.772C97.0125 41.772 96.2248 41.568 95.5448 41.16C94.8648 40.752 94.3322 40.2023 93.9468 39.511C93.5615 38.8197 93.3688 38.0377 93.3688 37.165C93.3688 36.3037 93.5615 35.5273 93.9468 34.836C94.3322 34.1333 94.8648 33.578 95.5448 33.17C96.2248 32.762 97.0125 32.558 97.9078 32.558C98.7918 32.558 99.5738 32.762 100.254 33.17C100.934 33.578 101.467 34.1333 101.852 34.836C102.237 35.5273 102.43 36.3037 102.43 37.165C102.43 38.0377 102.237 38.8197 101.852 39.511C101.467 40.2023 100.934 40.752 100.254 41.16C99.5738 41.568 98.7918 41.772 97.9078 41.772ZM97.9078 40.089C98.3838 40.089 98.8258 39.9757 99.2338 39.749C99.6418 39.511 99.9705 39.1767 100.22 38.746C100.481 38.304 100.611 37.777 100.611 37.165C100.611 36.553 100.481 36.0317 100.22 35.601C99.9705 35.159 99.6418 34.8247 99.2338 34.598C98.8258 34.36 98.3838 34.241 97.9078 34.241C97.4318 34.241 96.9842 34.36 96.5648 34.598C96.1568 34.8247 95.8225 35.159 95.5618 35.601C95.3125 36.0317 95.1878 36.553 95.1878 37.165C95.1878 37.777 95.3125 38.304 95.5618 38.746C95.8225 39.1767 96.1568 39.511 96.5648 39.749C96.9842 39.9757 97.4318 40.089 97.9078 40.089ZM108.031 45.444C107.271 45.444 106.614 45.3193 106.059 45.07C105.515 44.832 105.073 44.5203 104.733 44.135C104.393 43.761 104.149 43.3757 104.002 42.979L105.702 42.265C105.883 42.7183 106.172 43.0867 106.569 43.37C106.977 43.6647 107.464 43.812 108.031 43.812C108.824 43.812 109.447 43.574 109.901 43.098C110.365 42.622 110.598 41.9477 110.598 41.075V40.242H110.496C110.224 40.65 109.844 40.9787 109.357 41.228C108.881 41.466 108.337 41.585 107.725 41.585C106.988 41.585 106.314 41.398 105.702 41.024C105.09 40.65 104.597 40.1287 104.223 39.46C103.849 38.78 103.662 37.9867 103.662 37.08C103.662 36.162 103.849 35.3687 104.223 34.7C104.597 34.02 105.09 33.493 105.702 33.119C106.314 32.745 106.988 32.558 107.725 32.558C108.337 32.558 108.881 32.6827 109.357 32.932C109.844 33.1813 110.224 33.51 110.496 33.918H110.598V32.83H112.349V41.041C112.349 41.9817 112.162 42.7807 111.788 43.438C111.425 44.0953 110.921 44.594 110.275 44.934C109.629 45.274 108.881 45.444 108.031 45.444ZM108.048 39.919C108.501 39.919 108.92 39.8113 109.306 39.596C109.691 39.3693 110.003 39.0463 110.241 38.627C110.479 38.1963 110.598 37.6807 110.598 37.08C110.598 36.4567 110.479 35.9353 110.241 35.516C110.003 35.0853 109.691 34.7623 109.306 34.547C108.92 34.3317 108.501 34.224 108.048 34.224C107.594 34.224 107.169 34.3373 106.773 34.564C106.387 34.7793 106.076 35.0967 105.838 35.516C105.6 35.9353 105.481 36.4567 105.481 37.08C105.481 37.692 105.6 38.2133 105.838 38.644C106.076 39.0633 106.387 39.3807 106.773 39.596C107.169 39.8113 107.594 39.919 108.048 39.919ZM114.514 41.5V29.328H116.35V41.5H114.514ZM122.392 41.772C121.542 41.772 120.783 41.5737 120.114 41.177C119.446 40.7803 118.919 40.2363 118.533 39.545C118.159 38.8537 117.972 38.066 117.972 37.182C117.972 36.3547 118.154 35.5897 118.516 34.887C118.879 34.1843 119.383 33.6233 120.029 33.204C120.687 32.7733 121.44 32.558 122.29 32.558C123.186 32.558 123.945 32.7507 124.568 33.136C125.203 33.5213 125.685 34.0483 126.013 34.717C126.342 35.3857 126.506 36.1393 126.506 36.978C126.506 37.1027 126.501 37.216 126.489 37.318C126.489 37.42 126.484 37.4993 126.472 37.556H119.774C119.865 38.4173 120.165 39.0633 120.675 39.494C121.197 39.9247 121.786 40.14 122.443 40.14C123.033 40.14 123.52 40.0097 123.905 39.749C124.291 39.477 124.597 39.1427 124.823 38.746L126.336 39.477C125.962 40.157 125.452 40.7123 124.806 41.143C124.16 41.5623 123.356 41.772 122.392 41.772ZM122.307 34.122C121.695 34.122 121.174 34.309 120.743 34.683C120.313 35.057 120.024 35.5557 119.876 36.179H124.687C124.665 35.8843 124.568 35.5783 124.398 35.261C124.228 34.9437 123.968 34.6773 123.616 34.462C123.276 34.2353 122.84 34.122 122.307 34.122ZM133.979 41.5L130.715 29.328H132.789L134.727 37.233L134.931 38.287H135.033L135.288 37.233L137.736 29.328H139.606L141.952 37.233L142.207 38.27H142.309L142.513 37.233L144.451 29.328H146.508L143.295 41.5H141.323L138.994 33.425L138.722 32.286H138.62L138.331 33.425L135.9 41.5H133.979ZM149.922 41.772C149.299 41.772 148.743 41.653 148.256 41.415C147.769 41.1657 147.389 40.82 147.117 40.378C146.845 39.936 146.709 39.4317 146.709 38.865C146.709 38.253 146.868 37.7317 147.185 37.301C147.514 36.859 147.95 36.5247 148.494 36.298C149.038 36.0713 149.639 35.958 150.296 35.958C150.84 35.958 151.316 36.009 151.724 36.111C152.143 36.213 152.461 36.3207 152.676 36.434V35.975C152.676 35.4083 152.472 34.955 152.064 34.615C151.656 34.275 151.129 34.105 150.483 34.105C150.041 34.105 149.622 34.207 149.225 34.411C148.828 34.6037 148.511 34.87 148.273 35.21L147.015 34.241C147.389 33.7197 147.882 33.3117 148.494 33.017C149.117 32.711 149.797 32.558 150.534 32.558C151.792 32.558 152.761 32.8697 153.441 33.493C154.121 34.105 154.461 34.9663 154.461 36.077V41.5H152.676V40.429H152.574C152.347 40.7803 152.007 41.092 151.554 41.364C151.101 41.636 150.557 41.772 149.922 41.772ZM150.245 40.276C150.721 40.276 151.14 40.1627 151.503 39.936C151.866 39.7093 152.149 39.4147 152.353 39.052C152.568 38.678 152.676 38.2757 152.676 37.845C152.415 37.6977 152.109 37.5787 151.758 37.488C151.407 37.386 151.033 37.335 150.636 37.335C149.888 37.335 149.355 37.488 149.038 37.794C148.721 38.0887 148.562 38.4513 148.562 38.882C148.562 39.29 148.715 39.6243 149.021 39.885C149.327 40.1457 149.735 40.276 150.245 40.276ZM156.499 41.5V29.328H158.335V41.5H156.499ZM160.517 41.5V29.328H162.353V41.5H160.517ZM168.395 41.772C167.545 41.772 166.786 41.5737 166.117 41.177C165.449 40.7803 164.922 40.2363 164.536 39.545C164.162 38.8537 163.975 38.066 163.975 37.182C163.975 36.3547 164.157 35.5897 164.519 34.887C164.882 34.1843 165.386 33.6233 166.032 33.204C166.69 32.7733 167.443 32.558 168.293 32.558C169.189 32.558 169.948 32.7507 170.571 33.136C171.206 33.5213 171.688 34.0483 172.016 34.717C172.345 35.3857 172.509 36.1393 172.509 36.978C172.509 37.1027 172.504 37.216 172.492 37.318C172.492 37.42 172.487 37.4993 172.475 37.556H165.777C165.868 38.4173 166.168 39.0633 166.678 39.494C167.2 39.9247 167.789 40.14 168.446 40.14C169.036 40.14 169.523 40.0097 169.908 39.749C170.294 39.477 170.6 39.1427 170.826 38.746L172.339 39.477C171.965 40.157 171.455 40.7123 170.809 41.143C170.163 41.5623 169.359 41.772 168.395 41.772ZM168.31 34.122C167.698 34.122 167.177 34.309 166.746 34.683C166.316 35.057 166.027 35.5557 165.879 36.179H170.69C170.668 35.8843 170.571 35.5783 170.401 35.261C170.231 34.9437 169.971 34.6773 169.619 34.462C169.279 34.2353 168.843 34.122 168.31 34.122ZM174.882 38.984V34.428H173.369V32.83H174.882V30.382H176.718V32.83H178.843V34.428H176.718V38.593C176.718 39.0237 176.803 39.3523 176.973 39.579C177.154 39.8057 177.454 39.919 177.874 39.919C178.089 39.919 178.27 39.8907 178.418 39.834C178.576 39.7773 178.735 39.698 178.894 39.596V41.381C178.701 41.4603 178.497 41.5227 178.282 41.568C178.066 41.6133 177.811 41.636 177.517 41.636C176.712 41.636 176.072 41.4037 175.596 40.939C175.12 40.463 174.882 39.8113 174.882 38.984Z" fill="white"/>
<rect x="0.5" y="0.5" width="198" height="54" rx="27" stroke="#747775"/>
<defs>
<linearGradient id="paint0_linear_1819_24738" x1="37.2843" y1="34.0448" x2="18.7823" y2="55.7227" gradientUnits="userSpaceOnUse">
<stop stop-color="#4285F4"/>
<stop offset="1" stop-color="#1B74E8"/>
</linearGradient>
</defs>
</svg>
