<svg width="235" height="55" viewBox="0 0 235 55" fill="none" xmlns="http://www.w3.org/2000/svg">
<rect x="0.5" y="0.5" width="234" height="54" rx="27" fill="#1F1F1F"/>
<path d="M57 23.791H21V18.1456C21 15.0809 23.6422 12.5001 26.7798 12.5001H51.2202C54.3578 12.5001 57 15.0809 57 18.1456V23.791Z" fill="#34A853"/>
<path d="M57 29H21V23C21 19.7429 23.6422 17 26.7798 17H51.2202C54.3578 17 57 19.7429 57 23V29Z" fill="#FBBC04"/>
<path d="M57 34H21V28C21 24.7429 23.6422 22 26.7798 22H51.2202C54.3578 22 57 24.7429 57 28V34Z" fill="#EA4335"/>
<path d="M21 25.2409L43.8493 30.4025C46.4795 31.0477 49.4384 30.4025 51.5753 28.7895L57 24.9183V37.0157C57 40.0804 54.3699 42.4999 51.2466 42.4999H26.7534C23.6301 42.4999 21 40.0804 21 37.0157V25.2409Z" fill="url(#paint0_linear_1819_24662)"/>
<path d="M70.053 21.5V12.192H73.251C73.8143 12.192 74.3257 12.3133 74.785 12.556C75.2443 12.7987 75.6083 13.1323 75.877 13.557C76.1543 13.9817 76.293 14.4757 76.293 15.039C76.293 15.6023 76.1543 16.1007 75.877 16.534C75.6083 16.9587 75.2443 17.2923 74.785 17.535C74.3257 17.769 73.8143 17.886 73.251 17.886H71.483V21.5H70.053ZM73.29 13.544H71.483V16.534H73.29C73.628 16.534 73.914 16.4647 74.148 16.326C74.382 16.1787 74.5597 15.9923 74.681 15.767C74.811 15.533 74.876 15.2903 74.876 15.039C74.876 14.7877 74.811 14.5493 74.681 14.324C74.5597 14.0987 74.382 13.9123 74.148 13.765C73.914 13.6177 73.628 13.544 73.29 13.544ZM77.5251 21.5V14.87H78.8511V15.845H78.9291C79.0764 15.507 79.3277 15.2297 79.6831 15.013C80.0471 14.7877 80.4371 14.675 80.8531 14.675C81.0351 14.675 81.1867 14.688 81.3081 14.714C81.4381 14.74 81.5551 14.7703 81.6591 14.805V16.261C81.4944 16.1917 81.3254 16.1353 81.1521 16.092C80.9874 16.0487 80.8141 16.027 80.6321 16.027C80.3027 16.027 80.0081 16.118 79.7481 16.3C79.4967 16.4733 79.2974 16.7117 79.1501 17.015C79.0027 17.3097 78.9291 17.6347 78.9291 17.99V21.5H77.5251ZM83.5488 13.895C83.2888 13.895 83.0635 13.804 82.8728 13.622C82.6908 13.4313 82.5998 13.206 82.5998 12.946C82.5998 12.686 82.6908 12.465 82.8728 12.283C83.0635 12.101 83.2888 12.01 83.5488 12.01C83.8088 12.01 84.0298 12.101 84.2118 12.283C84.4025 12.465 84.4978 12.686 84.4978 12.946C84.4978 13.206 84.4025 13.4313 84.2118 13.622C84.0298 13.804 83.8088 13.895 83.5488 13.895ZM82.8468 21.5V14.87H84.2508V21.5H82.8468ZM88.7634 21.708C88.1654 21.708 87.6237 21.5607 87.1384 21.266C86.6617 20.9627 86.2804 20.5467 85.9944 20.018C85.717 19.4807 85.5784 18.8697 85.5784 18.185C85.5784 17.5003 85.717 16.8937 85.9944 16.365C86.2804 15.8363 86.6617 15.4203 87.1384 15.117C87.6237 14.8137 88.1654 14.662 88.7634 14.662C89.2747 14.662 89.7124 14.7747 90.0764 15C90.449 15.2253 90.722 15.481 90.8954 15.767H90.9734L90.8954 14.844V12.192H92.2864V21.5H90.9734V20.616H90.8954C90.722 20.902 90.449 21.1577 90.0764 21.383C89.7124 21.5997 89.2747 21.708 88.7634 21.708ZM88.9714 20.421C89.318 20.421 89.643 20.33 89.9464 20.148C90.2584 19.966 90.5054 19.7103 90.6874 19.381C90.878 19.043 90.9734 18.6443 90.9734 18.185C90.9734 17.7257 90.878 17.3313 90.6874 17.002C90.5054 16.664 90.2584 16.404 89.9464 16.222C89.643 16.04 89.318 15.949 88.9714 15.949C88.6247 15.949 88.2997 16.04 87.9964 16.222C87.693 16.404 87.446 16.664 87.2554 17.002C87.0647 17.3313 86.9694 17.7257 86.9694 18.185C86.9694 18.6443 87.0647 19.043 87.2554 19.381C87.446 19.7103 87.693 19.966 87.9964 20.148C88.2997 20.33 88.6247 20.421 88.9714 20.421ZM95.9566 21.708C95.48 21.708 95.0553 21.617 94.6826 21.435C94.31 21.2443 94.0196 20.98 93.8116 20.642C93.6036 20.304 93.4996 19.9183 93.4996 19.485C93.4996 19.017 93.621 18.6183 93.8636 18.289C94.115 17.951 94.4486 17.6953 94.8646 17.522C95.2806 17.3487 95.74 17.262 96.2426 17.262C96.6586 17.262 97.0226 17.301 97.3346 17.379C97.6553 17.457 97.898 17.5393 98.0626 17.626V17.275C98.0626 16.8417 97.9066 16.495 97.5946 16.235C97.2826 15.975 96.8796 15.845 96.3856 15.845C96.0476 15.845 95.727 15.923 95.4236 16.079C95.1203 16.2263 94.8776 16.43 94.6956 16.69L93.7336 15.949C94.0196 15.5503 94.3966 15.2383 94.8646 15.013C95.3413 14.779 95.8613 14.662 96.4246 14.662C97.3866 14.662 98.1276 14.9003 98.6476 15.377C99.1676 15.845 99.4276 16.5037 99.4276 17.353V21.5H98.0626V20.681H97.9846C97.8113 20.9497 97.5513 21.188 97.2046 21.396C96.858 21.604 96.442 21.708 95.9566 21.708ZM96.2036 20.564C96.5676 20.564 96.8883 20.4773 97.1656 20.304C97.443 20.1307 97.6596 19.9053 97.8156 19.628C97.9803 19.342 98.0626 19.0343 98.0626 18.705C97.8633 18.5923 97.6293 18.5013 97.3606 18.432C97.092 18.354 96.806 18.315 96.5026 18.315C95.9306 18.315 95.5233 18.432 95.2806 18.666C95.038 18.8913 94.9166 19.1687 94.9166 19.498C94.9166 19.81 95.0336 20.0657 95.2676 20.265C95.5016 20.4643 95.8136 20.564 96.2036 20.564ZM101.548 19.576V16.092H100.391V14.87H101.548V12.998H102.952V14.87H104.577V16.092H102.952V19.277C102.952 19.6063 103.017 19.8577 103.147 20.031C103.286 20.2043 103.516 20.291 103.836 20.291C104.001 20.291 104.14 20.2693 104.252 20.226C104.374 20.1827 104.495 20.122 104.616 20.044V21.409C104.469 21.4697 104.313 21.5173 104.148 21.552C103.984 21.5867 103.789 21.604 103.563 21.604C102.948 21.604 102.458 21.4263 102.094 21.071C101.73 20.707 101.548 20.2087 101.548 19.576ZM103.68 14.103V12.192H104.993L104.668 14.103H103.68ZM111.704 21.708C111.106 21.708 110.564 21.5607 110.079 21.266C109.602 20.9627 109.221 20.5467 108.935 20.018C108.657 19.4807 108.519 18.8697 108.519 18.185C108.519 17.5003 108.657 16.8937 108.935 16.365C109.221 15.8363 109.602 15.4203 110.079 15.117C110.564 14.8137 111.106 14.662 111.704 14.662C112.215 14.662 112.653 14.7747 113.017 15C113.389 15.2253 113.662 15.481 113.836 15.767H113.914L113.836 14.844V12.192H115.227V21.5H113.914V20.616H113.836C113.662 20.902 113.389 21.1577 113.017 21.383C112.653 21.5997 112.215 21.708 111.704 21.708ZM111.912 20.421C112.258 20.421 112.583 20.33 112.887 20.148C113.199 19.966 113.446 19.7103 113.628 19.381C113.818 19.043 113.914 18.6443 113.914 18.185C113.914 17.7257 113.818 17.3313 113.628 17.002C113.446 16.664 113.199 16.404 112.887 16.222C112.583 16.04 112.258 15.949 111.912 15.949C111.565 15.949 111.24 16.04 110.937 16.222C110.633 16.404 110.386 16.664 110.196 17.002C110.005 17.3313 109.91 17.7257 109.91 18.185C109.91 18.6443 110.005 19.043 110.196 19.381C110.386 19.7103 110.633 19.966 110.937 20.148C111.24 20.33 111.565 20.421 111.912 20.421ZM119.937 21.708C119.252 21.708 118.65 21.552 118.13 21.24C117.61 20.928 117.203 20.5077 116.908 19.979C116.613 19.4503 116.466 18.8523 116.466 18.185C116.466 17.5263 116.613 16.9327 116.908 16.404C117.203 15.8667 117.61 15.442 118.13 15.13C118.65 14.818 119.252 14.662 119.937 14.662C120.613 14.662 121.211 14.818 121.731 15.13C122.251 15.442 122.658 15.8667 122.953 16.404C123.248 16.9327 123.395 17.5263 123.395 18.185C123.395 18.8523 123.248 19.4503 122.953 19.979C122.658 20.5077 122.251 20.928 121.731 21.24C121.211 21.552 120.613 21.708 119.937 21.708ZM119.937 20.421C120.301 20.421 120.639 20.3343 120.951 20.161C121.263 19.979 121.514 19.7233 121.705 19.394C121.904 19.056 122.004 18.653 122.004 18.185C122.004 17.717 121.904 17.3183 121.705 16.989C121.514 16.651 121.263 16.3953 120.951 16.222C120.639 16.04 120.301 15.949 119.937 15.949C119.573 15.949 119.231 16.04 118.91 16.222C118.598 16.3953 118.342 16.651 118.143 16.989C117.952 17.3183 117.857 17.717 117.857 18.185C117.857 18.653 117.952 19.056 118.143 19.394C118.342 19.7233 118.598 19.979 118.91 20.161C119.231 20.3343 119.573 20.421 119.937 20.421ZM130.14 21.708C129.343 21.708 128.706 21.5347 128.229 21.188C127.753 20.8327 127.423 20.4123 127.241 19.927L128.502 19.381C128.658 19.7363 128.884 20.0093 129.178 20.2C129.473 20.382 129.807 20.473 130.179 20.473C130.526 20.473 130.825 20.4123 131.076 20.291C131.328 20.161 131.453 19.953 131.453 19.667C131.453 19.3897 131.328 19.186 131.076 19.056C130.825 18.926 130.513 18.8133 130.14 18.718L129.347 18.536C129.027 18.458 128.728 18.3367 128.45 18.172C128.173 18.0073 127.948 17.795 127.774 17.535C127.601 17.2663 127.514 16.9543 127.514 16.599C127.514 16.209 127.631 15.871 127.865 15.585C128.099 15.2903 128.407 15.065 128.788 14.909C129.178 14.7443 129.599 14.662 130.049 14.662C130.665 14.662 131.202 14.7833 131.661 15.026C132.129 15.26 132.472 15.6153 132.688 16.092L131.479 16.638C131.323 16.3433 131.12 16.1397 130.868 16.027C130.626 15.9057 130.357 15.845 130.062 15.845C129.733 15.845 129.456 15.9143 129.23 16.053C129.014 16.1917 128.905 16.365 128.905 16.573C128.905 16.7983 129.001 16.976 129.191 17.106C129.391 17.236 129.633 17.34 129.919 17.418L130.881 17.652C131.54 17.8167 132.034 18.068 132.363 18.406C132.693 18.7353 132.857 19.1383 132.857 19.615C132.857 20.0397 132.736 20.4123 132.493 20.733C132.251 21.045 131.921 21.2877 131.505 21.461C131.098 21.6257 130.643 21.708 130.14 21.708ZM134.096 21.5V12.192H135.5V21.5H134.096ZM139.56 21.708C138.745 21.708 138.13 21.4653 137.714 20.98C137.307 20.486 137.103 19.8187 137.103 18.978V14.87H138.507V18.783C138.507 19.3463 138.637 19.7623 138.897 20.031C139.166 20.291 139.499 20.421 139.898 20.421C140.253 20.421 140.561 20.33 140.821 20.148C141.09 19.9573 141.293 19.7147 141.432 19.42C141.579 19.1167 141.653 18.7873 141.653 18.432V14.87H143.044V21.5H141.731V20.603H141.653C141.462 20.915 141.176 21.1793 140.795 21.396C140.422 21.604 140.011 21.708 139.56 21.708ZM144.548 21.5V20.33L148.24 16.092H144.665V14.87H149.956V16.04L146.277 20.278H150.06V21.5H144.548ZM146.706 13.596L145.315 12.023V11.932H146.654L147.252 12.738H147.382L147.993 11.932H149.345V12.023L147.941 13.596H146.706ZM155.037 21.708C154.525 21.708 154.083 21.5997 153.711 21.383C153.347 21.1577 153.078 20.902 152.905 20.616H152.827V21.5H151.501V12.192H152.905V14.844L152.827 15.767H152.905C153.078 15.481 153.347 15.2253 153.711 15C154.083 14.7747 154.525 14.662 155.037 14.662C155.643 14.662 156.185 14.8137 156.662 15.117C157.138 15.4203 157.515 15.8363 157.793 16.365C158.079 16.8937 158.222 17.5003 158.222 18.185C158.222 18.8697 158.079 19.4807 157.793 20.018C157.515 20.5467 157.138 20.9627 156.662 21.266C156.185 21.5607 155.643 21.708 155.037 21.708ZM154.829 20.421C155.175 20.421 155.5 20.33 155.804 20.148C156.107 19.966 156.354 19.7103 156.545 19.381C156.735 19.043 156.831 18.6443 156.831 18.185C156.831 17.7257 156.735 17.3313 156.545 17.002C156.354 16.664 156.107 16.404 155.804 16.222C155.5 16.04 155.175 15.949 154.829 15.949C154.482 15.949 154.157 16.04 153.854 16.222C153.55 16.404 153.303 16.664 153.113 17.002C152.922 17.3313 152.827 17.7257 152.827 18.185C152.827 18.6443 152.922 19.043 153.113 19.381C153.303 19.7103 153.55 19.966 153.854 20.148C154.157 20.33 154.482 20.421 154.829 20.421ZM161.519 23.983C161.493 24.0523 161.463 24.1173 161.428 24.178C161.402 24.2387 161.385 24.282 161.376 24.308H159.881C159.925 24.2127 159.985 24.074 160.063 23.892C160.15 23.7187 160.232 23.5497 160.31 23.385C160.388 23.2203 160.471 23.034 160.557 22.826C160.653 22.618 160.748 22.4143 160.843 22.215L161.337 21.136L158.568 14.87H160.128L162.026 19.394H162.091L163.924 14.87H165.471L162.039 22.774C161.944 22.9993 161.84 23.2333 161.727 23.476C161.623 23.7273 161.554 23.8963 161.519 23.983Z" fill="white"/>
<path d="M76.14 41.772C75.2673 41.772 74.4457 41.6133 73.675 41.296C72.9157 40.9787 72.2413 40.5367 71.652 39.97C71.0627 39.392 70.598 38.7177 70.258 37.947C69.9293 37.165 69.765 36.3207 69.765 35.414C69.765 34.5073 69.9293 33.6687 70.258 32.898C70.598 32.116 71.057 31.4417 71.635 30.875C72.2243 30.297 72.9043 29.8493 73.675 29.532C74.4457 29.2147 75.2673 29.056 76.14 29.056C77.0693 29.056 77.925 29.2203 78.707 29.549C79.5003 29.8777 80.1633 30.3367 80.696 30.926L79.404 32.201C79.0073 31.759 78.5313 31.419 77.976 31.181C77.432 30.943 76.82 30.824 76.14 30.824C75.3353 30.824 74.593 31.0167 73.913 31.402C73.233 31.776 72.6833 32.3087 72.264 33C71.856 33.68 71.652 34.4847 71.652 35.414C71.652 36.3433 71.8617 37.1537 72.281 37.845C72.7003 38.525 73.25 39.0577 73.93 39.443C74.61 39.817 75.3523 40.004 76.157 40.004C76.8937 40.004 77.5623 39.868 78.163 39.596C78.7637 39.3127 79.2453 38.916 79.608 38.406C79.982 37.896 80.2087 37.284 80.288 36.57H76.123V34.921H82.039C82.107 35.227 82.141 35.55 82.141 35.89V35.907C82.141 37.0857 81.8803 38.117 81.359 39.001C80.849 39.8737 80.1407 40.5537 79.234 41.041C78.3273 41.5283 77.296 41.772 76.14 41.772ZM87.6149 41.772C86.7195 41.772 85.9319 41.568 85.2519 41.16C84.5719 40.752 84.0392 40.2023 83.6539 39.511C83.2685 38.8197 83.0759 38.0377 83.0759 37.165C83.0759 36.3037 83.2685 35.5273 83.6539 34.836C84.0392 34.1333 84.5719 33.578 85.2519 33.17C85.9319 32.762 86.7195 32.558 87.6149 32.558C88.4989 32.558 89.2809 32.762 89.9609 33.17C90.6409 33.578 91.1735 34.1333 91.5589 34.836C91.9442 35.5273 92.1369 36.3037 92.1369 37.165C92.1369 38.0377 91.9442 38.8197 91.5589 39.511C91.1735 40.2023 90.6409 40.752 89.9609 41.16C89.2809 41.568 88.4989 41.772 87.6149 41.772ZM87.6149 40.089C88.0909 40.089 88.5329 39.9757 88.9409 39.749C89.3489 39.511 89.6775 39.1767 89.9269 38.746C90.1875 38.304 90.3179 37.777 90.3179 37.165C90.3179 36.553 90.1875 36.0317 89.9269 35.601C89.6775 35.159 89.3489 34.8247 88.9409 34.598C88.5329 34.36 88.0909 34.241 87.6149 34.241C87.1389 34.241 86.6912 34.36 86.2719 34.598C85.8639 34.8247 85.5295 35.159 85.2689 35.601C85.0195 36.0317 84.8949 36.553 84.8949 37.165C84.8949 37.777 85.0195 38.304 85.2689 38.746C85.5295 39.1767 85.8639 39.511 86.2719 39.749C86.6912 39.9757 87.1389 40.089 87.6149 40.089ZM97.9078 41.772C97.0125 41.772 96.2248 41.568 95.5448 41.16C94.8648 40.752 94.3322 40.2023 93.9468 39.511C93.5615 38.8197 93.3688 38.0377 93.3688 37.165C93.3688 36.3037 93.5615 35.5273 93.9468 34.836C94.3322 34.1333 94.8648 33.578 95.5448 33.17C96.2248 32.762 97.0125 32.558 97.9078 32.558C98.7918 32.558 99.5738 32.762 100.254 33.17C100.934 33.578 101.467 34.1333 101.852 34.836C102.237 35.5273 102.43 36.3037 102.43 37.165C102.43 38.0377 102.237 38.8197 101.852 39.511C101.467 40.2023 100.934 40.752 100.254 41.16C99.5738 41.568 98.7918 41.772 97.9078 41.772ZM97.9078 40.089C98.3838 40.089 98.8258 39.9757 99.2338 39.749C99.6418 39.511 99.9705 39.1767 100.22 38.746C100.481 38.304 100.611 37.777 100.611 37.165C100.611 36.553 100.481 36.0317 100.22 35.601C99.9705 35.159 99.6418 34.8247 99.2338 34.598C98.8258 34.36 98.3838 34.241 97.9078 34.241C97.4318 34.241 96.9842 34.36 96.5648 34.598C96.1568 34.8247 95.8225 35.159 95.5618 35.601C95.3125 36.0317 95.1878 36.553 95.1878 37.165C95.1878 37.777 95.3125 38.304 95.5618 38.746C95.8225 39.1767 96.1568 39.511 96.5648 39.749C96.9842 39.9757 97.4318 40.089 97.9078 40.089ZM108.031 45.444C107.271 45.444 106.614 45.3193 106.059 45.07C105.515 44.832 105.073 44.5203 104.733 44.135C104.393 43.761 104.149 43.3757 104.002 42.979L105.702 42.265C105.883 42.7183 106.172 43.0867 106.569 43.37C106.977 43.6647 107.464 43.812 108.031 43.812C108.824 43.812 109.447 43.574 109.901 43.098C110.365 42.622 110.598 41.9477 110.598 41.075V40.242H110.496C110.224 40.65 109.844 40.9787 109.357 41.228C108.881 41.466 108.337 41.585 107.725 41.585C106.988 41.585 106.314 41.398 105.702 41.024C105.09 40.65 104.597 40.1287 104.223 39.46C103.849 38.78 103.662 37.9867 103.662 37.08C103.662 36.162 103.849 35.3687 104.223 34.7C104.597 34.02 105.09 33.493 105.702 33.119C106.314 32.745 106.988 32.558 107.725 32.558C108.337 32.558 108.881 32.6827 109.357 32.932C109.844 33.1813 110.224 33.51 110.496 33.918H110.598V32.83H112.349V41.041C112.349 41.9817 112.162 42.7807 111.788 43.438C111.425 44.0953 110.921 44.594 110.275 44.934C109.629 45.274 108.881 45.444 108.031 45.444ZM108.048 39.919C108.501 39.919 108.92 39.8113 109.306 39.596C109.691 39.3693 110.003 39.0463 110.241 38.627C110.479 38.1963 110.598 37.6807 110.598 37.08C110.598 36.4567 110.479 35.9353 110.241 35.516C110.003 35.0853 109.691 34.7623 109.306 34.547C108.92 34.3317 108.501 34.224 108.048 34.224C107.594 34.224 107.169 34.3373 106.773 34.564C106.387 34.7793 106.076 35.0967 105.838 35.516C105.6 35.9353 105.481 36.4567 105.481 37.08C105.481 37.692 105.6 38.2133 105.838 38.644C106.076 39.0633 106.387 39.3807 106.773 39.596C107.169 39.8113 107.594 39.919 108.048 39.919ZM114.514 41.5V29.328H116.35V41.5H114.514ZM122.392 41.772C121.542 41.772 120.783 41.5737 120.114 41.177C119.446 40.7803 118.919 40.2363 118.533 39.545C118.159 38.8537 117.972 38.066 117.972 37.182C117.972 36.3547 118.154 35.5897 118.516 34.887C118.879 34.1843 119.383 33.6233 120.029 33.204C120.687 32.7733 121.44 32.558 122.29 32.558C123.186 32.558 123.945 32.7507 124.568 33.136C125.203 33.5213 125.685 34.0483 126.013 34.717C126.342 35.3857 126.506 36.1393 126.506 36.978C126.506 37.1027 126.501 37.216 126.489 37.318C126.489 37.42 126.484 37.4993 126.472 37.556H119.774C119.865 38.4173 120.165 39.0633 120.675 39.494C121.197 39.9247 121.786 40.14 122.443 40.14C123.033 40.14 123.52 40.0097 123.905 39.749C124.291 39.477 124.597 39.1427 124.823 38.746L126.336 39.477C125.962 40.157 125.452 40.7123 124.806 41.143C124.16 41.5623 123.356 41.772 122.392 41.772ZM122.307 34.122C121.695 34.122 121.174 34.309 120.743 34.683C120.313 35.057 120.024 35.5557 119.876 36.179H124.687C124.665 35.8843 124.568 35.5783 124.398 35.261C124.228 34.9437 123.968 34.6773 123.616 34.462C123.276 34.2353 122.84 34.122 122.307 34.122ZM132.483 41.5V29.328H136.665C137.402 29.328 138.071 29.4867 138.671 29.804C139.272 30.1213 139.748 30.5577 140.099 31.113C140.462 31.6683 140.643 32.3143 140.643 33.051C140.643 33.7877 140.462 34.4393 140.099 35.006C139.748 35.5613 139.272 35.9977 138.671 36.315C138.071 36.621 137.402 36.774 136.665 36.774H134.353V41.5H132.483ZM136.716 31.096H134.353V35.006H136.716C137.158 35.006 137.532 34.9153 137.838 34.734C138.144 34.5413 138.377 34.2977 138.535 34.003C138.705 33.697 138.79 33.3797 138.79 33.051C138.79 32.7223 138.705 32.4107 138.535 32.116C138.377 31.8213 138.144 31.5777 137.838 31.385C137.532 31.1923 137.158 31.096 136.716 31.096ZM145.618 41.772C144.768 41.772 144.009 41.5737 143.34 41.177C142.671 40.7803 142.144 40.2363 141.759 39.545C141.385 38.8537 141.198 38.066 141.198 37.182C141.198 36.3547 141.379 35.5897 141.742 34.887C142.105 34.1843 142.609 33.6233 143.255 33.204C143.912 32.7733 144.666 32.558 145.516 32.558C146.411 32.558 147.171 32.7507 147.794 33.136C148.429 33.5213 148.91 34.0483 149.239 34.717C149.568 35.3857 149.732 36.1393 149.732 36.978C149.732 37.1027 149.726 37.216 149.715 37.318C149.715 37.42 149.709 37.4993 149.698 37.556H143C143.091 38.4173 143.391 39.0633 143.901 39.494C144.422 39.9247 145.012 40.14 145.669 40.14C146.258 40.14 146.746 40.0097 147.131 39.749C147.516 39.477 147.822 39.1427 148.049 38.746L149.562 39.477C149.188 40.157 148.678 40.7123 148.032 41.143C147.386 41.5623 146.581 41.772 145.618 41.772ZM145.533 34.122C144.921 34.122 144.4 34.309 143.969 34.683C143.538 35.057 143.249 35.5557 143.102 36.179H147.913C147.89 35.8843 147.794 35.5783 147.624 35.261C147.454 34.9437 147.193 34.6773 146.842 34.462C146.502 34.2353 146.066 34.122 145.533 34.122ZM151.435 41.5V32.83H153.169V34.02H153.271C153.521 33.6007 153.889 33.255 154.376 32.983C154.875 32.6997 155.419 32.558 156.008 32.558C157.074 32.558 157.873 32.8753 158.405 33.51C158.938 34.1447 159.204 34.9833 159.204 36.026V41.5H157.385V36.264C157.385 35.5613 157.21 35.0513 156.858 34.734C156.507 34.4053 156.048 34.241 155.481 34.241C155.039 34.241 154.654 34.3657 154.325 34.615C153.997 34.853 153.736 35.1703 153.543 35.567C153.362 35.9637 153.271 36.3887 153.271 36.842V41.5H151.435ZM154.716 31.164L152.897 29.107V28.988H154.648L155.43 30.042H155.6L156.399 28.988H158.167V29.107L156.331 31.164H154.716ZM163.934 41.772C163.31 41.772 162.755 41.653 162.268 41.415C161.78 41.1657 161.401 40.82 161.129 40.378C160.857 39.936 160.721 39.4317 160.721 38.865C160.721 38.253 160.879 37.7317 161.197 37.301C161.525 36.859 161.962 36.5247 162.506 36.298C163.05 36.0713 163.65 35.958 164.308 35.958C164.852 35.958 165.328 36.009 165.736 36.111C166.155 36.213 166.472 36.3207 166.688 36.434V35.975C166.688 35.4083 166.484 34.955 166.076 34.615C165.668 34.275 165.141 34.105 164.495 34.105C164.053 34.105 163.633 34.207 163.237 34.411C162.84 34.6037 162.523 34.87 162.285 35.21L161.027 34.241C161.401 33.7197 161.894 33.3117 162.506 33.017C163.129 32.711 163.809 32.558 164.546 32.558C165.804 32.558 166.773 32.8697 167.453 33.493C168.133 34.105 168.473 34.9663 168.473 36.077V41.5H166.688V40.429H166.586C166.359 40.7803 166.019 41.092 165.566 41.364C165.112 41.636 164.568 41.772 163.934 41.772ZM164.257 40.276C164.733 40.276 165.152 40.1627 165.515 39.936C165.877 39.7093 166.161 39.4147 166.365 39.052C166.58 38.678 166.688 38.2757 166.688 37.845C166.427 37.6977 166.121 37.5787 165.77 37.488C165.418 37.386 165.044 37.335 164.648 37.335C163.9 37.335 163.367 37.488 163.05 37.794C162.732 38.0887 162.574 38.4513 162.574 38.882C162.574 39.29 162.727 39.6243 163.033 39.885C163.339 40.1457 163.747 40.276 164.257 40.276ZM170.035 41.5V39.97L174.863 34.428H170.188V32.83H177.107V34.36L172.296 39.902H177.243V41.5H170.035ZM172.857 31.164L171.038 29.107V28.988H172.789L173.571 30.042H173.741L174.54 28.988H176.308V29.107L174.472 31.164H172.857ZM182.756 41.772C181.906 41.772 181.146 41.5737 180.478 41.177C179.809 40.7803 179.282 40.2363 178.897 39.545C178.523 38.8537 178.336 38.066 178.336 37.182C178.336 36.3547 178.517 35.5897 178.88 34.887C179.242 34.1843 179.747 33.6233 180.393 33.204C181.05 32.7733 181.804 32.558 182.654 32.558C183.549 32.558 184.308 32.7507 184.932 33.136C185.566 33.5213 186.048 34.0483 186.377 34.717C186.705 35.3857 186.87 36.1393 186.87 36.978C186.87 37.1027 186.864 37.216 186.853 37.318C186.853 37.42 186.847 37.4993 186.836 37.556H180.138C180.228 38.4173 180.529 39.0633 181.039 39.494C181.56 39.9247 182.149 40.14 182.807 40.14C183.396 40.14 183.883 40.0097 184.269 39.749C184.654 39.477 184.96 39.1427 185.187 38.746L186.7 39.477C186.326 40.157 185.816 40.7123 185.17 41.143C184.524 41.5623 183.719 41.772 182.756 41.772ZM182.671 34.122C182.059 34.122 181.537 34.309 181.107 34.683C180.676 35.057 180.387 35.5557 180.24 36.179H185.051C185.028 35.8843 184.932 35.5783 184.762 35.261C184.592 34.9437 184.331 34.6773 183.98 34.462C183.64 34.2353 183.203 34.122 182.671 34.122ZM188.573 41.5V32.83H190.307V34.02H190.409C190.658 33.6007 191.027 33.255 191.514 32.983C192.013 32.6997 192.557 32.558 193.146 32.558C194.211 32.558 195.01 32.8753 195.543 33.51C196.076 34.1447 196.342 34.9833 196.342 36.026V41.5H194.523V36.264C194.523 35.5613 194.347 35.0513 193.996 34.734C193.645 34.4053 193.186 34.241 192.619 34.241C192.177 34.241 191.792 34.3657 191.463 34.615C191.134 34.853 190.874 35.1703 190.681 35.567C190.5 35.9637 190.409 36.3887 190.409 36.842V41.5H188.573ZM198.434 41.5V29.328H200.27V36.502L203.942 32.83H206.22V32.932L202.871 36.247L206.339 41.398V41.5H204.163L201.579 37.522L200.27 38.814V41.5H198.434ZM210.036 41.772C209.413 41.772 208.857 41.653 208.37 41.415C207.883 41.1657 207.503 40.82 207.231 40.378C206.959 39.936 206.823 39.4317 206.823 38.865C206.823 38.253 206.982 37.7317 207.299 37.301C207.628 36.859 208.064 36.5247 208.608 36.298C209.152 36.0713 209.753 35.958 210.41 35.958C210.954 35.958 211.43 36.009 211.838 36.111C212.257 36.213 212.575 36.3207 212.79 36.434V35.975C212.79 35.4083 212.586 34.955 212.178 34.615C211.77 34.275 211.243 34.105 210.597 34.105C210.155 34.105 209.736 34.207 209.339 34.411C208.942 34.6037 208.625 34.87 208.387 35.21L207.129 34.241C207.503 33.7197 207.996 33.3117 208.608 33.017C209.231 32.711 209.911 32.558 210.648 32.558C211.906 32.558 212.875 32.8697 213.555 33.493C214.235 34.105 214.575 34.9663 214.575 36.077V41.5H212.79V40.429H212.688C212.461 40.7803 212.121 41.092 211.668 41.364C211.215 41.636 210.671 41.772 210.036 41.772ZM210.359 40.276C210.835 40.276 211.254 40.1627 211.617 39.936C211.98 39.7093 212.263 39.4147 212.467 39.052C212.682 38.678 212.79 38.2757 212.79 37.845C212.529 37.6977 212.223 37.5787 211.872 37.488C211.521 37.386 211.147 37.335 210.75 37.335C210.002 37.335 209.469 37.488 209.152 37.794C208.835 38.0887 208.676 38.4513 208.676 38.882C208.676 39.29 208.829 39.6243 209.135 39.885C209.441 40.1457 209.849 40.276 210.359 40.276Z" fill="white"/>
<rect x="0.5" y="0.5" width="234" height="54" rx="27" stroke="#747775"/>
<defs>
<linearGradient id="paint0_linear_1819_24662" x1="37.2843" y1="34.0448" x2="18.7823" y2="55.7227" gradientUnits="userSpaceOnUse">
<stop stop-color="#4285F4"/>
<stop offset="1" stop-color="#1B74E8"/>
</linearGradient>
</defs>
</svg>
