<svg width="226" height="55" viewBox="0 0 226 55" fill="none" xmlns="http://www.w3.org/2000/svg">
<rect x="0.5" y="0.5" width="225" height="54" rx="27" fill="#1F1F1F"/>
<path d="M57 23.791H21V18.1456C21 15.0809 23.6422 12.5001 26.7798 12.5001H51.2202C54.3578 12.5001 57 15.0809 57 18.1456V23.791Z" fill="#34A853"/>
<path d="M57 29H21V23C21 19.7429 23.6422 17 26.7798 17H51.2202C54.3578 17 57 19.7429 57 23V29Z" fill="#FBBC04"/>
<path d="M57 34H21V28C21 24.7429 23.6422 22 26.7798 22H51.2202C54.3578 22 57 24.7429 57 28V34Z" fill="#EA4335"/>
<path d="M21 25.2409L43.8493 30.4025C46.4795 31.0477 49.4384 30.4025 51.5753 28.7895L57 24.9183V37.0157C57 40.0804 54.3699 42.4999 51.2466 42.4999H26.7534C23.6301 42.4999 21 40.0804 21 37.0157V25.2409Z" fill="url(#paint0_linear_1819_24966)"/>
<path d="M72.757 21.708C72.263 21.708 71.7907 21.6127 71.34 21.422C70.8893 21.2227 70.4907 20.9323 70.144 20.551C69.806 20.1697 69.5547 19.6973 69.39 19.134L70.742 18.588C70.8807 19.0907 71.1233 19.511 71.47 19.849C71.8167 20.187 72.25 20.356 72.77 20.356C73.0647 20.356 73.3377 20.304 73.589 20.2C73.849 20.096 74.057 19.9443 74.213 19.745C74.369 19.537 74.447 19.2857 74.447 18.991C74.447 18.5837 74.2953 18.2587 73.992 18.016C73.6887 17.7647 73.2033 17.5177 72.536 17.275L71.951 17.067C71.613 16.9457 71.2707 16.781 70.924 16.573C70.586 16.3563 70.3043 16.0833 70.079 15.754C69.8537 15.416 69.741 15.0043 69.741 14.519C69.741 14.0597 69.8623 13.6393 70.105 13.258C70.3563 12.868 70.6987 12.5603 71.132 12.335C71.574 12.101 72.0853 11.984 72.666 11.984C73.264 11.984 73.7623 12.0923 74.161 12.309C74.5683 12.517 74.8847 12.7727 75.11 13.076C75.344 13.3707 75.5043 13.648 75.591 13.908L74.304 14.454C74.252 14.2807 74.1567 14.1073 74.018 13.934C73.888 13.752 73.7103 13.6047 73.485 13.492C73.2683 13.3707 72.9997 13.31 72.679 13.31C72.263 13.31 71.9033 13.4227 71.6 13.648C71.3053 13.8647 71.158 14.1507 71.158 14.506C71.158 14.844 71.2967 15.117 71.574 15.325C71.8513 15.533 72.2543 15.728 72.783 15.91L73.381 16.118C73.7797 16.248 74.1697 16.4257 74.551 16.651C74.941 16.8763 75.2573 17.1753 75.5 17.548C75.7513 17.912 75.877 18.3843 75.877 18.965C75.877 19.4417 75.7817 19.8533 75.591 20.2C75.409 20.5467 75.162 20.8327 74.85 21.058C74.5467 21.2747 74.2087 21.435 73.836 21.539C73.472 21.6517 73.1123 21.708 72.757 21.708ZM77.2965 21.5V12.192H78.7005V14.74L78.6225 15.78H78.7005C78.8825 15.4593 79.1599 15.195 79.5325 14.987C79.9139 14.7703 80.3342 14.662 80.7935 14.662C81.6169 14.662 82.2365 14.909 82.6525 15.403C83.0685 15.8883 83.2765 16.5253 83.2765 17.314V21.5H81.8855V17.496C81.8855 16.9587 81.7425 16.5687 81.4565 16.326C81.1792 16.0747 80.8369 15.949 80.4295 15.949C80.0915 15.949 79.7925 16.0443 79.5325 16.235C79.2725 16.4257 79.0689 16.677 78.9215 16.989C78.7742 17.2923 78.7005 17.6173 78.7005 17.964V21.5H77.2965ZM85.2476 19.576V16.092H84.0906V14.87H85.2476V12.998H86.6516V14.87H88.2766V16.092H86.6516V19.277C86.6516 19.6063 86.7166 19.8577 86.8466 20.031C86.9852 20.2043 87.2149 20.291 87.5356 20.291C87.7002 20.291 87.8389 20.2693 87.9516 20.226C88.0729 20.1827 88.1942 20.122 88.3156 20.044V21.409C88.1682 21.4697 88.0122 21.5173 87.8476 21.552C87.6829 21.5867 87.4879 21.604 87.2626 21.604C86.6472 21.604 86.1576 21.4263 85.7936 21.071C85.4296 20.707 85.2476 20.2087 85.2476 19.576ZM92.4898 21.708C91.8051 21.708 91.2028 21.552 90.6828 21.24C90.1628 20.928 89.7554 20.5077 89.4608 19.979C89.1661 19.4503 89.0188 18.8523 89.0188 18.185C89.0188 17.5263 89.1661 16.9327 89.4608 16.404C89.7554 15.8667 90.1628 15.442 90.6828 15.13C91.2028 14.818 91.8051 14.662 92.4898 14.662C93.1658 14.662 93.7638 14.818 94.2838 15.13C94.8038 15.442 95.2111 15.8667 95.5058 16.404C95.8004 16.9327 95.9478 17.5263 95.9478 18.185C95.9478 18.8523 95.8004 19.4503 95.5058 19.979C95.2111 20.5077 94.8038 20.928 94.2838 21.24C93.7638 21.552 93.1658 21.708 92.4898 21.708ZM92.4898 20.421C92.8538 20.421 93.1918 20.3343 93.5038 20.161C93.8158 19.979 94.0671 19.7233 94.2578 19.394C94.4571 19.056 94.5568 18.653 94.5568 18.185C94.5568 17.717 94.4571 17.3183 94.2578 16.989C94.0671 16.651 93.8158 16.3953 93.5038 16.222C93.1918 16.04 92.8538 15.949 92.4898 15.949C92.1258 15.949 91.7834 16.04 91.4628 16.222C91.1508 16.3953 90.8951 16.651 90.6958 16.989C90.5051 17.3183 90.4098 17.717 90.4098 18.185C90.4098 18.653 90.5051 19.056 90.6958 19.394C90.8951 19.7233 91.1508 19.979 91.4628 20.161C91.7834 20.3343 92.1258 20.421 92.4898 20.421ZM100.977 19.576V16.092H99.8201V14.87H100.977V12.998H102.381V14.87H104.006V16.092H102.381V19.277C102.381 19.6063 102.446 19.8577 102.576 20.031C102.715 20.2043 102.944 20.291 103.265 20.291C103.43 20.291 103.568 20.2693 103.681 20.226C103.802 20.1827 103.924 20.122 104.045 20.044V21.409C103.898 21.4697 103.742 21.5173 103.577 21.552C103.412 21.5867 103.217 21.604 102.992 21.604C102.377 21.604 101.887 21.4263 101.523 21.071C101.159 20.707 100.977 20.2087 100.977 19.576ZM108.128 21.708C107.478 21.708 106.898 21.5563 106.386 21.253C105.875 20.9497 105.472 20.5337 105.177 20.005C104.891 19.4763 104.748 18.874 104.748 18.198C104.748 17.5653 104.887 16.9803 105.164 16.443C105.442 15.9057 105.827 15.4767 106.321 15.156C106.824 14.8267 107.4 14.662 108.05 14.662C108.735 14.662 109.316 14.8093 109.792 15.104C110.278 15.3987 110.646 15.8017 110.897 16.313C111.149 16.8243 111.274 17.4007 111.274 18.042C111.274 18.1373 111.27 18.224 111.261 18.302C111.261 18.38 111.257 18.4407 111.248 18.484H106.126C106.196 19.1427 106.425 19.6367 106.815 19.966C107.214 20.2953 107.665 20.46 108.167 20.46C108.618 20.46 108.991 20.3603 109.285 20.161C109.58 19.953 109.814 19.6973 109.987 19.394L111.144 19.953C110.858 20.473 110.468 20.8977 109.974 21.227C109.48 21.5477 108.865 21.708 108.128 21.708ZM108.063 15.858C107.595 15.858 107.197 16.001 106.867 16.287C106.538 16.573 106.317 16.9543 106.204 17.431H109.883C109.866 17.2057 109.792 16.9717 109.662 16.729C109.532 16.4863 109.333 16.2827 109.064 16.118C108.804 15.9447 108.471 15.858 108.063 15.858Z" fill="white"/>
<path d="M70.377 41.5V29.328H74.559C75.2957 29.328 75.9643 29.4867 76.565 29.804C77.1657 30.1213 77.6417 30.5577 77.993 31.113C78.3557 31.6683 78.537 32.3143 78.537 33.051C78.537 33.7877 78.3557 34.4393 77.993 35.006C77.6417 35.5613 77.1657 35.9977 76.565 36.315C75.9643 36.621 75.2957 36.774 74.559 36.774H72.247V41.5H70.377ZM74.61 31.096H72.247V35.006H74.61C75.052 35.006 75.426 34.9153 75.732 34.734C76.038 34.5413 76.2703 34.2977 76.429 34.003C76.599 33.697 76.684 33.3797 76.684 33.051C76.684 32.7223 76.599 32.4107 76.429 32.116C76.2703 31.8213 76.038 31.5777 75.732 31.385C75.426 31.1923 75.052 31.096 74.61 31.096ZM83.6305 41.772C82.7352 41.772 81.9475 41.568 81.2675 41.16C80.5875 40.752 80.0548 40.2023 79.6695 39.511C79.2842 38.8197 79.0915 38.0377 79.0915 37.165C79.0915 36.3037 79.2842 35.5273 79.6695 34.836C80.0548 34.1333 80.5875 33.578 81.2675 33.17C81.9475 32.762 82.7352 32.558 83.6305 32.558C84.5145 32.558 85.2965 32.762 85.9765 33.17C86.6565 33.578 87.1892 34.1333 87.5745 34.836C87.9598 35.5273 88.1525 36.3037 88.1525 37.165C88.1525 38.0377 87.9598 38.8197 87.5745 39.511C87.1892 40.2023 86.6565 40.752 85.9765 41.16C85.2965 41.568 84.5145 41.772 83.6305 41.772ZM83.6305 40.089C84.1065 40.089 84.5485 39.9757 84.9565 39.749C85.3645 39.511 85.6932 39.1767 85.9425 38.746C86.2032 38.304 86.3335 37.777 86.3335 37.165C86.3335 36.553 86.2032 36.0317 85.9425 35.601C85.6932 35.159 85.3645 34.8247 84.9565 34.598C84.5485 34.36 84.1065 34.241 83.6305 34.241C83.1545 34.241 82.7068 34.36 82.2875 34.598C81.8795 34.8247 81.5452 35.159 81.2845 35.601C81.0352 36.0317 80.9105 36.553 80.9105 37.165C80.9105 37.777 81.0352 38.304 81.2845 38.746C81.5452 39.1767 81.8795 39.511 82.2875 39.749C82.7068 39.9757 83.1545 40.089 83.6305 40.089ZM97.4804 38.984V34.428H95.9674V32.83H97.4804V30.382H99.3164V32.83H101.441V34.428H99.3164V38.593C99.3164 39.0237 99.4014 39.3523 99.5714 39.579C99.7528 39.8057 100.053 39.919 100.472 39.919C100.688 39.919 100.869 39.8907 101.016 39.834C101.175 39.7773 101.334 39.698 101.492 39.596V41.381C101.3 41.4603 101.096 41.5227 100.88 41.568C100.665 41.6133 100.416 41.636 100.132 41.636C99.3164 41.636 98.6704 41.4037 98.1944 40.939C97.7184 40.463 97.4804 39.8113 97.4804 38.984ZM89.6774 41.5V32.83H91.4114V34.105H91.5134C91.7401 33.629 92.0914 33.2607 92.5674 33C93.0434 32.728 93.5591 32.592 94.1144 32.592C94.4318 32.592 94.6698 32.6147 94.8284 32.66V34.496C94.5791 34.4167 94.2731 34.377 93.9104 34.377C93.1851 34.377 92.6014 34.6093 92.1594 35.074C91.7288 35.5387 91.5134 36.1677 91.5134 36.961V41.5H89.6774ZM106.972 41.772C106.077 41.772 105.289 41.568 104.609 41.16C103.929 40.752 103.397 40.2023 103.011 39.511C102.626 38.8197 102.433 38.0377 102.433 37.165C102.433 36.3037 102.626 35.5273 103.011 34.836C103.397 34.1333 103.929 33.578 104.609 33.17C105.289 32.762 106.077 32.558 106.972 32.558C107.856 32.558 108.638 32.762 109.318 33.17C109.998 33.578 110.531 34.1333 110.916 34.836C111.302 35.5273 111.494 36.3037 111.494 37.165C111.494 38.0377 111.302 38.8197 110.916 39.511C110.531 40.2023 109.998 40.752 109.318 41.16C108.638 41.568 107.856 41.772 106.972 41.772ZM106.972 40.089C107.448 40.089 107.89 39.9757 108.298 39.749C108.706 39.511 109.035 39.1767 109.284 38.746C109.545 38.304 109.675 37.777 109.675 37.165C109.675 36.553 109.545 36.0317 109.284 35.601C109.035 35.159 108.706 34.8247 108.298 34.598C107.89 34.36 107.448 34.241 106.972 34.241C106.496 34.241 106.049 34.36 105.629 34.598C105.221 34.8247 104.887 35.159 104.626 35.601C104.377 36.0317 104.252 36.553 104.252 37.165C104.252 37.777 104.377 38.304 104.626 38.746C104.887 39.1767 105.221 39.511 105.629 39.749C106.049 39.9757 106.496 40.089 106.972 40.089ZM113.922 41.5V34.428H112.341V32.83H113.922V32.116C113.922 31.504 114.053 30.9827 114.313 30.552C114.574 30.11 114.925 29.7757 115.367 29.549C115.821 29.311 116.331 29.192 116.897 29.192C117.203 29.192 117.464 29.2147 117.679 29.26C117.906 29.294 118.093 29.3393 118.24 29.396V31.181C118.093 31.1243 117.923 31.0677 117.73 31.011C117.549 30.943 117.322 30.909 117.05 30.909C116.699 30.909 116.393 31.028 116.132 31.266C115.872 31.4927 115.741 31.827 115.741 32.269V32.83H117.917V34.428H115.741V41.5H113.922ZM123.225 41.772C122.33 41.772 121.542 41.568 120.862 41.16C120.182 40.752 119.65 40.2023 119.264 39.511C118.879 38.8197 118.686 38.0377 118.686 37.165C118.686 36.3037 118.879 35.5273 119.264 34.836C119.65 34.1333 120.182 33.578 120.862 33.17C121.542 32.762 122.33 32.558 123.225 32.558C124.109 32.558 124.891 32.762 125.571 33.17C126.251 33.578 126.784 34.1333 127.169 34.836C127.555 35.5273 127.747 36.3037 127.747 37.165C127.747 38.0377 127.555 38.8197 127.169 39.511C126.784 40.2023 126.251 40.752 125.571 41.16C124.891 41.568 124.109 41.772 123.225 41.772ZM123.225 40.089C123.701 40.089 124.143 39.9757 124.551 39.749C124.959 39.511 125.288 39.1767 125.537 38.746C125.798 38.304 125.928 37.777 125.928 37.165C125.928 36.553 125.798 36.0317 125.537 35.601C125.288 35.159 124.959 34.8247 124.551 34.598C124.143 34.36 123.701 34.241 123.225 34.241C122.749 34.241 122.302 34.36 121.882 34.598C121.474 34.8247 121.14 35.159 120.879 35.601C120.63 36.0317 120.505 36.553 120.505 37.165C120.505 37.777 120.63 38.304 120.879 38.746C121.14 39.1767 121.474 39.511 121.882 39.749C122.302 39.9757 122.749 40.089 123.225 40.089ZM129.372 41.5V29.328H131.208V41.5H129.372ZM134.427 31.555C134.087 31.555 133.792 31.436 133.543 31.198C133.305 30.9487 133.186 30.654 133.186 30.314C133.186 29.974 133.305 29.685 133.543 29.447C133.792 29.209 134.087 29.09 134.427 29.09C134.767 29.09 135.056 29.209 135.294 29.447C135.543 29.685 135.668 29.974 135.668 30.314C135.668 30.654 135.543 30.9487 135.294 31.198C135.056 31.436 134.767 31.555 134.427 31.555ZM133.509 41.5V32.83H135.345V41.5H133.509ZM142.645 31.555C142.305 31.555 142.01 31.436 141.761 31.198C141.523 30.9487 141.404 30.654 141.404 30.314C141.404 29.974 141.523 29.685 141.761 29.447C142.01 29.209 142.305 29.09 142.645 29.09C142.985 29.09 143.274 29.209 143.512 29.447C143.761 29.685 143.886 29.974 143.886 30.314C143.886 30.654 143.761 30.9487 143.512 31.198C143.274 31.436 142.985 31.555 142.645 31.555ZM141.727 41.5V32.83H143.563V41.5H141.727ZM155.545 41.772C154.673 41.772 153.851 41.6133 153.08 41.296C152.321 40.9787 151.647 40.5367 151.057 39.97C150.468 39.392 150.003 38.7177 149.663 37.947C149.335 37.165 149.17 36.3207 149.17 35.414C149.17 34.5073 149.335 33.6687 149.663 32.898C150.003 32.116 150.462 31.4417 151.04 30.875C151.63 30.297 152.31 29.8493 153.08 29.532C153.851 29.2147 154.673 29.056 155.545 29.056C156.475 29.056 157.33 29.2203 158.112 29.549C158.906 29.8777 159.569 30.3367 160.101 30.926L158.809 32.201C158.413 31.759 157.937 31.419 157.381 31.181C156.837 30.943 156.225 30.824 155.545 30.824C154.741 30.824 153.998 31.0167 153.318 31.402C152.638 31.776 152.089 32.3087 151.669 33C151.261 33.68 151.057 34.4847 151.057 35.414C151.057 36.3433 151.267 37.1537 151.686 37.845C152.106 38.525 152.655 39.0577 153.335 39.443C154.015 39.817 154.758 40.004 155.562 40.004C156.299 40.004 156.968 39.868 157.568 39.596C158.169 39.3127 158.651 38.916 159.013 38.406C159.387 37.896 159.614 37.284 159.693 36.57H155.528V34.921H161.444C161.512 35.227 161.546 35.55 161.546 35.89V35.907C161.546 37.0857 161.286 38.117 160.764 39.001C160.254 39.8737 159.546 40.5537 158.639 41.041C157.733 41.5283 156.701 41.772 155.545 41.772ZM167.02 41.772C166.125 41.772 165.337 41.568 164.657 41.16C163.977 40.752 163.444 40.2023 163.059 39.511C162.674 38.8197 162.481 38.0377 162.481 37.165C162.481 36.3037 162.674 35.5273 163.059 34.836C163.444 34.1333 163.977 33.578 164.657 33.17C165.337 32.762 166.125 32.558 167.02 32.558C167.904 32.558 168.686 32.762 169.366 33.17C170.046 33.578 170.579 34.1333 170.964 34.836C171.349 35.5273 171.542 36.3037 171.542 37.165C171.542 38.0377 171.349 38.8197 170.964 39.511C170.579 40.2023 170.046 40.752 169.366 41.16C168.686 41.568 167.904 41.772 167.02 41.772ZM167.02 40.089C167.496 40.089 167.938 39.9757 168.346 39.749C168.754 39.511 169.083 39.1767 169.332 38.746C169.593 38.304 169.723 37.777 169.723 37.165C169.723 36.553 169.593 36.0317 169.332 35.601C169.083 35.159 168.754 34.8247 168.346 34.598C167.938 34.36 167.496 34.241 167.02 34.241C166.544 34.241 166.096 34.36 165.677 34.598C165.269 34.8247 164.935 35.159 164.674 35.601C164.425 36.0317 164.3 36.553 164.3 37.165C164.3 37.777 164.425 38.304 164.674 38.746C164.935 39.1767 165.269 39.511 165.677 39.749C166.096 39.9757 166.544 40.089 167.02 40.089ZM177.313 41.772C176.418 41.772 175.63 41.568 174.95 41.16C174.27 40.752 173.737 40.2023 173.352 39.511C172.967 38.8197 172.774 38.0377 172.774 37.165C172.774 36.3037 172.967 35.5273 173.352 34.836C173.737 34.1333 174.27 33.578 174.95 33.17C175.63 32.762 176.418 32.558 177.313 32.558C178.197 32.558 178.979 32.762 179.659 33.17C180.339 33.578 180.872 34.1333 181.257 34.836C181.642 35.5273 181.835 36.3037 181.835 37.165C181.835 38.0377 181.642 38.8197 181.257 39.511C180.872 40.2023 180.339 40.752 179.659 41.16C178.979 41.568 178.197 41.772 177.313 41.772ZM177.313 40.089C177.789 40.089 178.231 39.9757 178.639 39.749C179.047 39.511 179.376 39.1767 179.625 38.746C179.886 38.304 180.016 37.777 180.016 37.165C180.016 36.553 179.886 36.0317 179.625 35.601C179.376 35.159 179.047 34.8247 178.639 34.598C178.231 34.36 177.789 34.241 177.313 34.241C176.837 34.241 176.389 34.36 175.97 34.598C175.562 34.8247 175.228 35.159 174.967 35.601C174.718 36.0317 174.593 36.553 174.593 37.165C174.593 37.777 174.718 38.304 174.967 38.746C175.228 39.1767 175.562 39.511 175.97 39.749C176.389 39.9757 176.837 40.089 177.313 40.089ZM187.436 45.444C186.677 45.444 186.019 45.3193 185.464 45.07C184.92 44.832 184.478 44.5203 184.138 44.135C183.798 43.761 183.554 43.3757 183.407 42.979L185.107 42.265C185.288 42.7183 185.577 43.0867 185.974 43.37C186.382 43.6647 186.869 43.812 187.436 43.812C188.229 43.812 188.853 43.574 189.306 43.098C189.771 42.622 190.003 41.9477 190.003 41.075V40.242H189.901C189.629 40.65 189.249 40.9787 188.762 41.228C188.286 41.466 187.742 41.585 187.13 41.585C186.393 41.585 185.719 41.398 185.107 41.024C184.495 40.65 184.002 40.1287 183.628 39.46C183.254 38.78 183.067 37.9867 183.067 37.08C183.067 36.162 183.254 35.3687 183.628 34.7C184.002 34.02 184.495 33.493 185.107 33.119C185.719 32.745 186.393 32.558 187.13 32.558C187.742 32.558 188.286 32.6827 188.762 32.932C189.249 33.1813 189.629 33.51 189.901 33.918H190.003V32.83H191.754V41.041C191.754 41.9817 191.567 42.7807 191.193 43.438C190.83 44.0953 190.326 44.594 189.68 44.934C189.034 45.274 188.286 45.444 187.436 45.444ZM187.453 39.919C187.906 39.919 188.326 39.8113 188.711 39.596C189.096 39.3693 189.408 39.0463 189.646 38.627C189.884 38.1963 190.003 37.6807 190.003 37.08C190.003 36.4567 189.884 35.9353 189.646 35.516C189.408 35.0853 189.096 34.7623 188.711 34.547C188.326 34.3317 187.906 34.224 187.453 34.224C187 34.224 186.575 34.3373 186.178 34.564C185.793 34.7793 185.481 35.0967 185.243 35.516C185.005 35.9353 184.886 36.4567 184.886 37.08C184.886 37.692 185.005 38.2133 185.243 38.644C185.481 39.0633 185.793 39.3807 186.178 39.596C186.575 39.8113 187 39.919 187.453 39.919ZM193.919 41.5V29.328H195.755V41.5H193.919ZM201.798 41.772C200.948 41.772 200.188 41.5737 199.52 41.177C198.851 40.7803 198.324 40.2363 197.939 39.545C197.565 38.8537 197.378 38.066 197.378 37.182C197.378 36.3547 197.559 35.5897 197.922 34.887C198.284 34.1843 198.789 33.6233 199.435 33.204C200.092 32.7733 200.846 32.558 201.696 32.558C202.591 32.558 203.35 32.7507 203.974 33.136C204.608 33.5213 205.09 34.0483 205.419 34.717C205.747 35.3857 205.912 36.1393 205.912 36.978C205.912 37.1027 205.906 37.216 205.895 37.318C205.895 37.42 205.889 37.4993 205.878 37.556H199.18C199.27 38.4173 199.571 39.0633 200.081 39.494C200.602 39.9247 201.191 40.14 201.849 40.14C202.438 40.14 202.925 40.0097 203.311 39.749C203.696 39.477 204.002 39.1427 204.229 38.746L205.742 39.477C205.368 40.157 204.858 40.7123 204.212 41.143C203.566 41.5623 202.761 41.772 201.798 41.772ZM201.713 34.122C201.101 34.122 200.579 34.309 200.149 34.683C199.718 35.057 199.429 35.5557 199.282 36.179H204.093C204.07 35.8843 203.974 35.5783 203.804 35.261C203.634 34.9437 203.373 34.6773 203.022 34.462C202.682 34.2353 202.245 34.122 201.713 34.122Z" fill="white"/>
<rect x="0.5" y="0.5" width="225" height="54" rx="27" stroke="#747775"/>
<defs>
<linearGradient id="paint0_linear_1819_24966" x1="37.2843" y1="34.0448" x2="18.7823" y2="55.7227" gradientUnits="userSpaceOnUse">
<stop stop-color="#4285F4"/>
<stop offset="1" stop-color="#1B74E8"/>
</linearGradient>
</defs>
</svg>
