<svg width="199" height="55" viewBox="0 0 199 55" fill="none" xmlns="http://www.w3.org/2000/svg">
<rect x="0.5" y="0.5" width="198" height="54" rx="27" fill="#1F1F1F"/>
<path d="M57 23.791H21V18.1456C21 15.0809 23.6422 12.5001 26.7798 12.5001H51.2202C54.3578 12.5001 57 15.0809 57 18.1456V23.791Z" fill="#34A853"/>
<path d="M57 29H21V23C21 19.7429 23.6422 17 26.7798 17H51.2202C54.3578 17 57 19.7429 57 23V29Z" fill="#FBBC04"/>
<path d="M57 34H21V28C21 24.7429 23.6422 22 26.7798 22H51.2202C54.3578 22 57 24.7429 57 28V34Z" fill="#EA4335"/>
<path d="M21 25.2409L43.8493 30.4025C46.4795 31.0477 49.4384 30.4025 51.5753 28.7895L57 24.9183V37.0157C57 40.0804 54.3699 42.4999 51.2466 42.4999H26.7534C23.6301 42.4999 21 40.0804 21 37.0157V25.2409Z" fill="url(#paint0_linear_1819_24871)"/>
<path d="M71.444 21.656C71.002 21.656 70.6467 21.5217 70.378 21.253C70.118 20.9843 69.988 20.629 69.988 20.187V14.48H71.353V18.952C71.4223 18.9347 71.496 18.926 71.574 18.926C71.964 18.926 72.2847 19.056 72.536 19.316C72.7873 19.5673 72.913 19.888 72.913 20.278C72.913 20.6853 72.7743 21.019 72.497 21.279C72.2197 21.5303 71.8687 21.656 71.444 21.656ZM71.457 20.811C71.6217 20.811 71.7517 20.7633 71.847 20.668C71.951 20.564 72.003 20.434 72.003 20.278C72.003 20.1133 71.951 19.9833 71.847 19.888C71.7517 19.784 71.6217 19.732 71.457 19.732C71.301 19.732 71.171 19.784 71.067 19.888C70.9717 19.9833 70.924 20.1133 70.924 20.278C70.924 20.434 70.9717 20.564 71.067 20.668C71.171 20.7633 71.301 20.811 71.457 20.811ZM74.6262 21.5V17.054C74.5655 17.0627 74.5005 17.067 74.4312 17.067C74.0325 17.067 73.7032 16.9413 73.4432 16.69C73.1832 16.43 73.0532 16.105 73.0532 15.715C73.0532 15.3163 73.1875 14.987 73.4562 14.727C73.7335 14.467 74.0845 14.337 74.5092 14.337C74.9425 14.337 75.2892 14.4713 75.5492 14.74C75.8178 15 75.9522 15.351 75.9522 15.793V17.951L75.9132 19.342L76.2902 18.302L77.4342 15.481H78.1492L79.2932 18.302L79.6572 19.303L79.6312 17.951V14.48H80.9572V21.5H79.5142L78.0972 18.029L77.7982 17.21L77.4992 18.029L76.0822 21.5H74.6262ZM74.4832 16.261C74.6392 16.261 74.7648 16.2133 74.8602 16.118C74.9642 16.014 75.0162 15.8797 75.0162 15.715C75.0162 15.559 74.9642 15.4333 74.8602 15.338C74.7648 15.234 74.6392 15.182 74.4832 15.182C74.3272 15.182 74.1972 15.234 74.0932 15.338C73.9978 15.4333 73.9502 15.559 73.9502 15.715C73.9502 15.8797 73.9978 16.014 74.0932 16.118C74.1972 16.2133 74.3272 16.261 74.4832 16.261ZM74.984 13.596V13.505C75.1053 12.8117 75.439 12.2613 75.985 11.854C76.5223 11.438 77.181 11.23 77.961 11.23C78.7496 11.23 79.417 11.438 79.963 11.854C80.5003 12.2613 80.8296 12.8117 80.951 13.505V13.596H74.984ZM76.414 12.842H79.521C79.4343 12.5993 79.2523 12.4043 78.975 12.257C78.689 12.1097 78.351 12.036 77.961 12.036C77.5796 12.036 77.2503 12.1097 76.973 12.257C76.687 12.4043 76.5006 12.5993 76.414 12.842ZM79.6637 11.307L79.5337 9.383H80.8727L80.7427 11.307H79.6637ZM83.954 21.643C83.512 21.643 83.148 21.5043 82.862 21.227C82.576 20.9497 82.433 20.59 82.433 20.148C82.433 19.7147 82.5716 19.3593 82.849 19.082C83.135 18.8047 83.4946 18.666 83.928 18.666C83.954 18.666 83.9756 18.666 83.993 18.666V17.054C83.9236 17.0627 83.8543 17.067 83.785 17.067C83.3863 17.067 83.057 16.9413 82.797 16.69C82.537 16.43 82.407 16.105 82.407 15.715C82.407 15.3163 82.5456 14.987 82.823 14.727C83.1003 14.467 83.4513 14.337 83.876 14.337C84.318 14.337 84.669 14.4713 84.929 14.74C85.189 15.0087 85.319 15.364 85.319 15.806V18.9L87.581 20.2V14.48H88.946V21.5H87.685L85.475 20.226C85.4576 20.642 85.306 20.9843 85.02 21.253C84.7426 21.513 84.3873 21.643 83.954 21.643ZM83.85 16.261C84.006 16.261 84.1316 16.2133 84.227 16.118C84.331 16.014 84.383 15.8797 84.383 15.715C84.383 15.559 84.331 15.4333 84.227 15.338C84.1316 15.234 84.006 15.182 83.85 15.182C83.694 15.182 83.564 15.234 83.46 15.338C83.3646 15.4333 83.317 15.559 83.317 15.715C83.317 15.8797 83.3646 16.014 83.46 16.118C83.564 16.2133 83.694 16.261 83.85 16.261ZM83.954 20.759C84.1186 20.759 84.2573 20.7027 84.37 20.59C84.4826 20.4773 84.539 20.33 84.539 20.148C84.539 19.966 84.4826 19.8187 84.37 19.706C84.2573 19.5933 84.1186 19.537 83.954 19.537C83.7806 19.537 83.6376 19.5933 83.525 19.706C83.421 19.8187 83.369 19.966 83.369 20.148C83.369 20.33 83.421 20.4773 83.525 20.59C83.6376 20.7027 83.7806 20.759 83.954 20.759ZM92.862 21.656C92.42 21.656 92.0647 21.5217 91.796 21.253C91.5273 20.9843 91.393 20.629 91.393 20.187V15.052C91.393 14.688 91.4493 14.3543 91.562 14.051C91.6833 13.739 91.8307 13.4487 92.004 13.18C92.1773 12.9113 92.3507 12.6557 92.524 12.413C92.6973 12.1703 92.8403 11.9407 92.953 11.724C93.0743 11.4987 93.135 11.2777 93.135 11.061C93.135 10.8703 93.0873 10.723 92.992 10.619C92.9053 10.515 92.797 10.4587 92.667 10.45L91.393 12.088H90.47L89.105 9.54V9.41H90.366L91.068 10.879L92.147 9.41H92.628C93.174 9.41 93.59 9.57033 93.876 9.891C94.1707 10.203 94.318 10.593 94.318 11.061C94.318 11.4423 94.24 11.7933 94.084 12.114C93.928 12.426 93.746 12.7337 93.538 13.037C93.33 13.3403 93.148 13.6567 92.992 13.986C92.836 14.3067 92.758 14.6663 92.758 15.065V18.952C92.836 18.9347 92.914 18.926 92.992 18.926C93.382 18.926 93.6983 19.056 93.941 19.316C94.1923 19.5673 94.318 19.888 94.318 20.278C94.318 20.6853 94.1793 21.019 93.902 21.279C93.6333 21.5303 93.2867 21.656 92.862 21.656ZM92.875 20.811C93.031 20.811 93.161 20.7633 93.265 20.668C93.369 20.564 93.421 20.434 93.421 20.278C93.421 20.1133 93.369 19.9833 93.265 19.888C93.161 19.784 93.031 19.732 92.875 19.732C92.719 19.732 92.589 19.784 92.485 19.888C92.3897 19.9833 92.342 20.1133 92.342 20.278C92.342 20.434 92.3897 20.564 92.485 20.668C92.589 20.7633 92.719 20.811 92.875 20.811ZM96.0428 21.5V17.054C95.9822 17.0627 95.9215 17.067 95.8608 17.067C95.4622 17.067 95.1328 16.9413 94.8728 16.69C94.6128 16.43 94.4828 16.105 94.4828 15.715C94.4828 15.3163 94.6215 14.987 94.8988 14.727C95.1762 14.467 95.5272 14.337 95.9518 14.337C96.3938 14.337 96.7448 14.4713 97.0048 14.74C97.2648 15.0087 97.3948 15.364 97.3948 15.806V20.356H100.268V12.14H101.633V21.5H96.0428ZM95.9258 16.261C96.0818 16.261 96.2075 16.2133 96.3028 16.118C96.4068 16.014 96.4588 15.8797 96.4588 15.715C96.4588 15.559 96.4068 15.4333 96.3028 15.338C96.2075 15.234 96.0818 15.182 95.9258 15.182C95.7698 15.182 95.6398 15.234 95.5358 15.338C95.4405 15.4333 95.3928 15.559 95.3928 15.715C95.3928 15.8797 95.4405 16.014 95.5358 16.118C95.6398 16.2133 95.7698 16.261 95.9258 16.261ZM103.595 21.5V19.498C103.595 18.8393 103.863 18.4233 104.401 18.25V18.198C104.037 18.0767 103.738 17.8253 103.504 17.444C103.27 17.0627 103.153 16.6423 103.153 16.183C103.153 15.637 103.313 15.195 103.634 14.857C103.963 14.519 104.383 14.35 104.895 14.35C105.337 14.35 105.692 14.4757 105.961 14.727C106.238 14.9783 106.377 15.299 106.377 15.689C106.377 16.0617 106.26 16.3693 106.026 16.612C105.792 16.846 105.484 16.963 105.103 16.963C104.869 16.963 104.669 16.9067 104.505 16.794C104.583 17.0713 104.717 17.2707 104.908 17.392C105.107 17.5047 105.389 17.561 105.753 17.561H106.715V18.562H105.961C105.285 18.562 104.947 18.8957 104.947 19.563V20.356H108.002V14.48H109.367V21.5H103.595ZM104.934 16.235C105.09 16.235 105.215 16.1873 105.311 16.092C105.415 15.988 105.467 15.8537 105.467 15.689C105.467 15.533 105.415 15.4073 105.311 15.312C105.215 15.208 105.09 15.156 104.934 15.156C104.778 15.156 104.648 15.208 104.544 15.312C104.448 15.4073 104.401 15.533 104.401 15.689C104.401 15.8537 104.448 15.988 104.544 16.092C104.648 16.1873 104.778 16.235 104.934 16.235ZM108.18 13.687C107.478 13.687 106.915 13.5483 106.49 13.271C106.065 12.9937 105.853 12.621 105.853 12.153C105.853 11.8063 105.966 11.5247 106.191 11.308C106.416 11.0913 106.707 10.983 107.062 10.983C107.409 10.983 107.695 11.087 107.92 11.295C108.145 11.4943 108.258 11.75 108.258 12.062C108.258 12.348 108.163 12.5733 107.972 12.738C108.033 12.7467 108.098 12.751 108.167 12.751C109.077 12.751 109.705 12.2397 110.052 11.217L111.183 11.672C110.958 12.322 110.589 12.8203 110.078 13.167C109.567 13.5137 108.934 13.687 108.18 13.687ZM107.062 12.569C107.183 12.569 107.287 12.5257 107.374 12.439C107.461 12.3523 107.504 12.244 107.504 12.114C107.504 11.984 107.461 11.88 107.374 11.802C107.287 11.7153 107.183 11.672 107.062 11.672C106.932 11.672 106.824 11.7153 106.737 11.802C106.65 11.88 106.607 11.984 106.607 12.114C106.607 12.244 106.65 12.3523 106.737 12.439C106.824 12.5257 106.932 12.569 107.062 12.569ZM112.483 21.5L110.455 16.976L111.729 16.482L113.393 20.356H114.511V17.054C114.451 17.0627 114.39 17.067 114.329 17.067C113.922 17.067 113.588 16.9413 113.328 16.69C113.068 16.43 112.938 16.105 112.938 15.715C112.938 15.3163 113.077 14.987 113.354 14.727C113.632 14.467 113.983 14.337 114.407 14.337C114.849 14.337 115.2 14.4713 115.46 14.74C115.72 15 115.85 15.351 115.85 15.793V21.5H112.483ZM114.381 16.261C114.537 16.261 114.663 16.2133 114.758 16.118C114.862 16.014 114.914 15.8797 114.914 15.715C114.914 15.559 114.862 15.4333 114.758 15.338C114.663 15.234 114.537 15.182 114.381 15.182C114.225 15.182 114.095 15.234 113.991 15.338C113.896 15.4333 113.848 15.559 113.848 15.715C113.848 15.8797 113.896 16.014 113.991 16.118C114.095 16.2133 114.225 16.261 114.381 16.261Z" fill="white"/>
<path d="M76.14 41.772C75.2673 41.772 74.4457 41.6133 73.675 41.296C72.9157 40.9787 72.2413 40.5367 71.652 39.97C71.0627 39.392 70.598 38.7177 70.258 37.947C69.9293 37.165 69.765 36.3207 69.765 35.414C69.765 34.5073 69.9293 33.6687 70.258 32.898C70.598 32.116 71.057 31.4417 71.635 30.875C72.2243 30.297 72.9043 29.8493 73.675 29.532C74.4457 29.2147 75.2673 29.056 76.14 29.056C77.0693 29.056 77.925 29.2203 78.707 29.549C79.5003 29.8777 80.1633 30.3367 80.696 30.926L79.404 32.201C79.0073 31.759 78.5313 31.419 77.976 31.181C77.432 30.943 76.82 30.824 76.14 30.824C75.3353 30.824 74.593 31.0167 73.913 31.402C73.233 31.776 72.6833 32.3087 72.264 33C71.856 33.68 71.652 34.4847 71.652 35.414C71.652 36.3433 71.8617 37.1537 72.281 37.845C72.7003 38.525 73.25 39.0577 73.93 39.443C74.61 39.817 75.3523 40.004 76.157 40.004C76.8937 40.004 77.5623 39.868 78.163 39.596C78.7637 39.3127 79.2453 38.916 79.608 38.406C79.982 37.896 80.2087 37.284 80.288 36.57H76.123V34.921H82.039C82.107 35.227 82.141 35.55 82.141 35.89V35.907C82.141 37.0857 81.8803 38.117 81.359 39.001C80.849 39.8737 80.1407 40.5537 79.234 41.041C78.3273 41.5283 77.296 41.772 76.14 41.772ZM87.6149 41.772C86.7195 41.772 85.9319 41.568 85.2519 41.16C84.5719 40.752 84.0392 40.2023 83.6539 39.511C83.2685 38.8197 83.0759 38.0377 83.0759 37.165C83.0759 36.3037 83.2685 35.5273 83.6539 34.836C84.0392 34.1333 84.5719 33.578 85.2519 33.17C85.9319 32.762 86.7195 32.558 87.6149 32.558C88.4989 32.558 89.2809 32.762 89.9609 33.17C90.6409 33.578 91.1735 34.1333 91.5589 34.836C91.9442 35.5273 92.1369 36.3037 92.1369 37.165C92.1369 38.0377 91.9442 38.8197 91.5589 39.511C91.1735 40.2023 90.6409 40.752 89.9609 41.16C89.2809 41.568 88.4989 41.772 87.6149 41.772ZM87.6149 40.089C88.0909 40.089 88.5329 39.9757 88.9409 39.749C89.3489 39.511 89.6775 39.1767 89.9269 38.746C90.1875 38.304 90.3179 37.777 90.3179 37.165C90.3179 36.553 90.1875 36.0317 89.9269 35.601C89.6775 35.159 89.3489 34.8247 88.9409 34.598C88.5329 34.36 88.0909 34.241 87.6149 34.241C87.1389 34.241 86.6912 34.36 86.2719 34.598C85.8639 34.8247 85.5295 35.159 85.2689 35.601C85.0195 36.0317 84.8949 36.553 84.8949 37.165C84.8949 37.777 85.0195 38.304 85.2689 38.746C85.5295 39.1767 85.8639 39.511 86.2719 39.749C86.6912 39.9757 87.1389 40.089 87.6149 40.089ZM97.9078 41.772C97.0125 41.772 96.2248 41.568 95.5448 41.16C94.8648 40.752 94.3322 40.2023 93.9468 39.511C93.5615 38.8197 93.3688 38.0377 93.3688 37.165C93.3688 36.3037 93.5615 35.5273 93.9468 34.836C94.3322 34.1333 94.8648 33.578 95.5448 33.17C96.2248 32.762 97.0125 32.558 97.9078 32.558C98.7918 32.558 99.5738 32.762 100.254 33.17C100.934 33.578 101.467 34.1333 101.852 34.836C102.237 35.5273 102.43 36.3037 102.43 37.165C102.43 38.0377 102.237 38.8197 101.852 39.511C101.467 40.2023 100.934 40.752 100.254 41.16C99.5738 41.568 98.7918 41.772 97.9078 41.772ZM97.9078 40.089C98.3838 40.089 98.8258 39.9757 99.2338 39.749C99.6418 39.511 99.9705 39.1767 100.22 38.746C100.481 38.304 100.611 37.777 100.611 37.165C100.611 36.553 100.481 36.0317 100.22 35.601C99.9705 35.159 99.6418 34.8247 99.2338 34.598C98.8258 34.36 98.3838 34.241 97.9078 34.241C97.4318 34.241 96.9842 34.36 96.5648 34.598C96.1568 34.8247 95.8225 35.159 95.5618 35.601C95.3125 36.0317 95.1878 36.553 95.1878 37.165C95.1878 37.777 95.3125 38.304 95.5618 38.746C95.8225 39.1767 96.1568 39.511 96.5648 39.749C96.9842 39.9757 97.4318 40.089 97.9078 40.089ZM108.031 45.444C107.271 45.444 106.614 45.3193 106.059 45.07C105.515 44.832 105.073 44.5203 104.733 44.135C104.393 43.761 104.149 43.3757 104.002 42.979L105.702 42.265C105.883 42.7183 106.172 43.0867 106.569 43.37C106.977 43.6647 107.464 43.812 108.031 43.812C108.824 43.812 109.447 43.574 109.901 43.098C110.365 42.622 110.598 41.9477 110.598 41.075V40.242H110.496C110.224 40.65 109.844 40.9787 109.357 41.228C108.881 41.466 108.337 41.585 107.725 41.585C106.988 41.585 106.314 41.398 105.702 41.024C105.09 40.65 104.597 40.1287 104.223 39.46C103.849 38.78 103.662 37.9867 103.662 37.08C103.662 36.162 103.849 35.3687 104.223 34.7C104.597 34.02 105.09 33.493 105.702 33.119C106.314 32.745 106.988 32.558 107.725 32.558C108.337 32.558 108.881 32.6827 109.357 32.932C109.844 33.1813 110.224 33.51 110.496 33.918H110.598V32.83H112.349V41.041C112.349 41.9817 112.162 42.7807 111.788 43.438C111.425 44.0953 110.921 44.594 110.275 44.934C109.629 45.274 108.881 45.444 108.031 45.444ZM108.048 39.919C108.501 39.919 108.92 39.8113 109.306 39.596C109.691 39.3693 110.003 39.0463 110.241 38.627C110.479 38.1963 110.598 37.6807 110.598 37.08C110.598 36.4567 110.479 35.9353 110.241 35.516C110.003 35.0853 109.691 34.7623 109.306 34.547C108.92 34.3317 108.501 34.224 108.048 34.224C107.594 34.224 107.169 34.3373 106.773 34.564C106.387 34.7793 106.076 35.0967 105.838 35.516C105.6 35.9353 105.481 36.4567 105.481 37.08C105.481 37.692 105.6 38.2133 105.838 38.644C106.076 39.0633 106.387 39.3807 106.773 39.596C107.169 39.8113 107.594 39.919 108.048 39.919ZM114.514 41.5V29.328H116.35V41.5H114.514ZM122.392 41.772C121.542 41.772 120.783 41.5737 120.114 41.177C119.446 40.7803 118.919 40.2363 118.533 39.545C118.159 38.8537 117.972 38.066 117.972 37.182C117.972 36.3547 118.154 35.5897 118.516 34.887C118.879 34.1843 119.383 33.6233 120.029 33.204C120.687 32.7733 121.44 32.558 122.29 32.558C123.186 32.558 123.945 32.7507 124.568 33.136C125.203 33.5213 125.685 34.0483 126.013 34.717C126.342 35.3857 126.506 36.1393 126.506 36.978C126.506 37.1027 126.501 37.216 126.489 37.318C126.489 37.42 126.484 37.4993 126.472 37.556H119.774C119.865 38.4173 120.165 39.0633 120.675 39.494C121.197 39.9247 121.786 40.14 122.443 40.14C123.033 40.14 123.52 40.0097 123.905 39.749C124.291 39.477 124.597 39.1427 124.823 38.746L126.336 39.477C125.962 40.157 125.452 40.7123 124.806 41.143C124.16 41.5623 123.356 41.772 122.392 41.772ZM122.307 34.122C121.695 34.122 121.174 34.309 120.743 34.683C120.313 35.057 120.024 35.5557 119.876 36.179H124.687C124.665 35.8843 124.568 35.5783 124.398 35.261C124.228 34.9437 123.968 34.6773 123.616 34.462C123.276 34.2353 122.84 34.122 122.307 34.122ZM133.979 41.5L130.715 29.328H132.789L134.727 37.233L134.931 38.287H135.033L135.288 37.233L137.736 29.328H139.606L141.952 37.233L142.207 38.27H142.309L142.513 37.233L144.451 29.328H146.508L143.295 41.5H141.323L138.994 33.425L138.722 32.286H138.62L138.331 33.425L135.9 41.5H133.979ZM149.922 41.772C149.299 41.772 148.743 41.653 148.256 41.415C147.769 41.1657 147.389 40.82 147.117 40.378C146.845 39.936 146.709 39.4317 146.709 38.865C146.709 38.253 146.868 37.7317 147.185 37.301C147.514 36.859 147.95 36.5247 148.494 36.298C149.038 36.0713 149.639 35.958 150.296 35.958C150.84 35.958 151.316 36.009 151.724 36.111C152.143 36.213 152.461 36.3207 152.676 36.434V35.975C152.676 35.4083 152.472 34.955 152.064 34.615C151.656 34.275 151.129 34.105 150.483 34.105C150.041 34.105 149.622 34.207 149.225 34.411C148.828 34.6037 148.511 34.87 148.273 35.21L147.015 34.241C147.389 33.7197 147.882 33.3117 148.494 33.017C149.117 32.711 149.797 32.558 150.534 32.558C151.792 32.558 152.761 32.8697 153.441 33.493C154.121 34.105 154.461 34.9663 154.461 36.077V41.5H152.676V40.429H152.574C152.347 40.7803 152.007 41.092 151.554 41.364C151.101 41.636 150.557 41.772 149.922 41.772ZM150.245 40.276C150.721 40.276 151.14 40.1627 151.503 39.936C151.866 39.7093 152.149 39.4147 152.353 39.052C152.568 38.678 152.676 38.2757 152.676 37.845C152.415 37.6977 152.109 37.5787 151.758 37.488C151.407 37.386 151.033 37.335 150.636 37.335C149.888 37.335 149.355 37.488 149.038 37.794C148.721 38.0887 148.562 38.4513 148.562 38.882C148.562 39.29 148.715 39.6243 149.021 39.885C149.327 40.1457 149.735 40.276 150.245 40.276ZM156.499 41.5V29.328H158.335V41.5H156.499ZM160.517 41.5V29.328H162.353V41.5H160.517ZM168.395 41.772C167.545 41.772 166.786 41.5737 166.117 41.177C165.449 40.7803 164.922 40.2363 164.536 39.545C164.162 38.8537 163.975 38.066 163.975 37.182C163.975 36.3547 164.157 35.5897 164.519 34.887C164.882 34.1843 165.386 33.6233 166.032 33.204C166.69 32.7733 167.443 32.558 168.293 32.558C169.189 32.558 169.948 32.7507 170.571 33.136C171.206 33.5213 171.688 34.0483 172.016 34.717C172.345 35.3857 172.509 36.1393 172.509 36.978C172.509 37.1027 172.504 37.216 172.492 37.318C172.492 37.42 172.487 37.4993 172.475 37.556H165.777C165.868 38.4173 166.168 39.0633 166.678 39.494C167.2 39.9247 167.789 40.14 168.446 40.14C169.036 40.14 169.523 40.0097 169.908 39.749C170.294 39.477 170.6 39.1427 170.826 38.746L172.339 39.477C171.965 40.157 171.455 40.7123 170.809 41.143C170.163 41.5623 169.359 41.772 168.395 41.772ZM168.31 34.122C167.698 34.122 167.177 34.309 166.746 34.683C166.316 35.057 166.027 35.5557 165.879 36.179H170.69C170.668 35.8843 170.571 35.5783 170.401 35.261C170.231 34.9437 169.971 34.6773 169.619 34.462C169.279 34.2353 168.843 34.122 168.31 34.122ZM174.882 38.984V34.428H173.369V32.83H174.882V30.382H176.718V32.83H178.843V34.428H176.718V38.593C176.718 39.0237 176.803 39.3523 176.973 39.579C177.154 39.8057 177.454 39.919 177.874 39.919C178.089 39.919 178.27 39.8907 178.418 39.834C178.576 39.7773 178.735 39.698 178.894 39.596V41.381C178.701 41.4603 178.497 41.5227 178.282 41.568C178.066 41.6133 177.811 41.636 177.517 41.636C176.712 41.636 176.072 41.4037 175.596 40.939C175.12 40.463 174.882 39.8113 174.882 38.984Z" fill="white"/>
<rect x="0.5" y="0.5" width="198" height="54" rx="27" stroke="#747775"/>
<defs>
<linearGradient id="paint0_linear_1819_24871" x1="37.2843" y1="34.0448" x2="18.7823" y2="55.7227" gradientUnits="userSpaceOnUse">
<stop stop-color="#4285F4"/>
<stop offset="1" stop-color="#1B74E8"/>
</linearGradient>
</defs>
</svg>
