<svg width="189" height="55" viewBox="0 0 189 55" fill="none" xmlns="http://www.w3.org/2000/svg">
<rect x="0.5" y="0.5" width="188" height="54" rx="27" fill="#1F1F1F"/>
<path d="M57 23.791H21V18.1456C21 15.0809 23.6422 12.5001 26.7798 12.5001H51.2202C54.3578 12.5001 57 15.0809 57 18.1456V23.791Z" fill="#34A853"/>
<path d="M57 29H21V23C21 19.7429 23.6422 17 26.7798 17H51.2202C54.3578 17 57 19.7429 57 23V29Z" fill="#FBBC04"/>
<path d="M57 34H21V28C21 24.7429 23.6422 22 26.7798 22H51.2202C54.3578 22 57 24.7429 57 28V34Z" fill="#EA4335"/>
<path d="M21 25.2409L43.8493 30.4025C46.4795 31.0477 49.4384 30.4025 51.5753 28.7895L57 24.9183V37.0157C57 40.0804 54.3699 42.4999 51.2466 42.4999H26.7534C23.6301 42.4999 21 40.0804 21 37.0157V25.2409Z" fill="url(#paint0_linear_1819_24757)"/>
<path d="M74.46 21.708C73.7927 21.708 73.1643 21.5867 72.575 21.344C71.9943 21.1013 71.4787 20.7633 71.028 20.33C70.5773 19.888 70.222 19.3723 69.962 18.783C69.7107 18.185 69.585 17.5393 69.585 16.846C69.585 16.1527 69.7107 15.5113 69.962 14.922C70.222 14.324 70.573 13.8083 71.015 13.375C71.4657 12.933 71.9857 12.5907 72.575 12.348C73.1643 12.1053 73.7927 11.984 74.46 11.984C75.1707 11.984 75.825 12.1097 76.423 12.361C77.0297 12.6123 77.5367 12.9633 77.944 13.414L76.956 14.389C76.6527 14.051 76.2887 13.791 75.864 13.609C75.448 13.427 74.98 13.336 74.46 13.336C73.8447 13.336 73.277 13.4833 72.757 13.778C72.237 14.064 71.8167 14.4713 71.496 15C71.184 15.52 71.028 16.1353 71.028 16.846C71.028 17.5567 71.1883 18.1763 71.509 18.705C71.8297 19.225 72.25 19.6323 72.77 19.927C73.29 20.213 73.8577 20.356 74.473 20.356C75.0363 20.356 75.5477 20.252 76.007 20.044C76.4663 19.8273 76.8347 19.524 77.112 19.134C77.398 18.744 77.5713 18.276 77.632 17.73H74.447V16.469H78.971C79.023 16.703 79.049 16.95 79.049 17.21V17.223C79.049 18.1243 78.8497 18.913 78.451 19.589C78.061 20.2563 77.5193 20.7763 76.826 21.149C76.1327 21.5217 75.344 21.708 74.46 21.708ZM83.2349 21.708C82.5502 21.708 81.9479 21.552 81.4279 21.24C80.9079 20.928 80.5006 20.5077 80.2059 19.979C79.9112 19.4503 79.7639 18.8523 79.7639 18.185C79.7639 17.5263 79.9112 16.9327 80.2059 16.404C80.5006 15.8667 80.9079 15.442 81.4279 15.13C81.9479 14.818 82.5502 14.662 83.2349 14.662C83.9109 14.662 84.5089 14.818 85.0289 15.13C85.5489 15.442 85.9562 15.8667 86.2509 16.404C86.5456 16.9327 86.6929 17.5263 86.6929 18.185C86.6929 18.8523 86.5456 19.4503 86.2509 19.979C85.9562 20.5077 85.5489 20.928 85.0289 21.24C84.5089 21.552 83.9109 21.708 83.2349 21.708ZM83.2349 20.421C83.5989 20.421 83.9369 20.3343 84.2489 20.161C84.5609 19.979 84.8122 19.7233 85.0029 19.394C85.2022 19.056 85.3019 18.653 85.3019 18.185C85.3019 17.717 85.2022 17.3183 85.0029 16.989C84.8122 16.651 84.5609 16.3953 84.2489 16.222C83.9369 16.04 83.5989 15.949 83.2349 15.949C82.8709 15.949 82.5286 16.04 82.2079 16.222C81.8959 16.3953 81.6402 16.651 81.4409 16.989C81.2502 17.3183 81.1549 17.717 81.1549 18.185C81.1549 18.653 81.2502 19.056 81.4409 19.394C81.6402 19.7233 81.8959 19.979 82.2079 20.161C82.5286 20.3343 82.8709 20.421 83.2349 20.421ZM91.106 21.708C90.4213 21.708 89.819 21.552 89.299 21.24C88.779 20.928 88.3717 20.5077 88.077 19.979C87.7823 19.4503 87.635 18.8523 87.635 18.185C87.635 17.5263 87.7823 16.9327 88.077 16.404C88.3717 15.8667 88.779 15.442 89.299 15.13C89.819 14.818 90.4213 14.662 91.106 14.662C91.782 14.662 92.38 14.818 92.9 15.13C93.42 15.442 93.8273 15.8667 94.122 16.404C94.4167 16.9327 94.564 17.5263 94.564 18.185C94.564 18.8523 94.4167 19.4503 94.122 19.979C93.8273 20.5077 93.42 20.928 92.9 21.24C92.38 21.552 91.782 21.708 91.106 21.708ZM91.106 20.421C91.47 20.421 91.808 20.3343 92.12 20.161C92.432 19.979 92.6833 19.7233 92.874 19.394C93.0733 19.056 93.173 18.653 93.173 18.185C93.173 17.717 93.0733 17.3183 92.874 16.989C92.6833 16.651 92.432 16.3953 92.12 16.222C91.808 16.04 91.47 15.949 91.106 15.949C90.742 15.949 90.3997 16.04 90.079 16.222C89.767 16.3953 89.5113 16.651 89.312 16.989C89.1213 17.3183 89.026 17.717 89.026 18.185C89.026 18.653 89.1213 19.056 89.312 19.394C89.5113 19.7233 89.767 19.979 90.079 20.161C90.3997 20.3343 90.742 20.421 91.106 20.421ZM98.8471 24.516C98.2664 24.516 97.7638 24.4207 97.3391 24.23C96.9231 24.048 96.5851 23.8097 96.3251 23.515C96.0651 23.229 95.8788 22.9343 95.7661 22.631L97.0661 22.085C97.2048 22.4317 97.4258 22.7133 97.7291 22.93C98.0411 23.1553 98.4138 23.268 98.8471 23.268C99.4538 23.268 99.9304 23.086 100.277 22.722C100.632 22.358 100.81 21.8423 100.81 21.175V20.538H100.732C100.524 20.85 100.234 21.1013 99.8611 21.292C99.4971 21.474 99.0811 21.565 98.6131 21.565C98.0498 21.565 97.5341 21.422 97.0661 21.136C96.5981 20.85 96.2211 20.4513 95.9351 19.94C95.6491 19.42 95.5061 18.8133 95.5061 18.12C95.5061 17.418 95.6491 16.8113 95.9351 16.3C96.2211 15.78 96.5981 15.377 97.0661 15.091C97.5341 14.805 98.0498 14.662 98.6131 14.662C99.0811 14.662 99.4971 14.7573 99.8611 14.948C100.234 15.1387 100.524 15.39 100.732 15.702H100.81V14.87H102.149V21.149C102.149 21.8683 102.006 22.4793 101.72 22.982C101.443 23.4847 101.057 23.866 100.563 24.126C100.069 24.386 99.4971 24.516 98.8471 24.516ZM98.8601 20.291C99.2068 20.291 99.5274 20.2087 99.8221 20.044C100.117 19.8707 100.355 19.6237 100.537 19.303C100.719 18.9737 100.81 18.5793 100.81 18.12C100.81 17.6433 100.719 17.2447 100.537 16.924C100.355 16.5947 100.117 16.3477 99.8221 16.183C99.5274 16.0183 99.2068 15.936 98.8601 15.936C98.5134 15.936 98.1884 16.0227 97.8851 16.196C97.5904 16.3607 97.3521 16.6033 97.1701 16.924C96.9881 17.2447 96.8971 17.6433 96.8971 18.12C96.8971 18.588 96.9881 18.9867 97.1701 19.316C97.3521 19.6367 97.5904 19.8793 97.8851 20.044C98.1884 20.2087 98.5134 20.291 98.8601 20.291ZM103.805 21.5V12.192H105.209V21.5H103.805ZM109.829 21.708C109.179 21.708 108.599 21.5563 108.087 21.253C107.576 20.9497 107.173 20.5337 106.878 20.005C106.592 19.4763 106.449 18.874 106.449 18.198C106.449 17.5653 106.588 16.9803 106.865 16.443C107.143 15.9057 107.528 15.4767 108.022 15.156C108.525 14.8267 109.101 14.662 109.751 14.662C110.436 14.662 111.017 14.8093 111.493 15.104C111.979 15.3987 112.347 15.8017 112.598 16.313C112.85 16.8243 112.975 17.4007 112.975 18.042C112.975 18.1373 112.971 18.224 112.962 18.302C112.962 18.38 112.958 18.4407 112.949 18.484H107.827C107.897 19.1427 108.126 19.6367 108.516 19.966C108.915 20.2953 109.366 20.46 109.868 20.46C110.319 20.46 110.692 20.3603 110.986 20.161C111.281 19.953 111.515 19.6973 111.688 19.394L112.845 19.953C112.559 20.473 112.169 20.8977 111.675 21.227C111.181 21.5477 110.566 21.708 109.829 21.708ZM109.764 15.858C109.296 15.858 108.898 16.001 108.568 16.287C108.239 16.573 108.018 16.9543 107.905 17.431H111.584C111.567 17.2057 111.493 16.9717 111.363 16.729C111.233 16.4863 111.034 16.2827 110.765 16.118C110.505 15.9447 110.172 15.858 109.764 15.858ZM121.673 21.708C120.989 21.708 120.352 21.5867 119.762 21.344C119.173 21.0927 118.657 20.746 118.215 20.304C117.782 19.862 117.44 19.3463 117.188 18.757C116.946 18.1677 116.824 17.5307 116.824 16.846C116.824 16.1613 116.946 15.5243 117.188 14.935C117.44 14.3457 117.782 13.83 118.215 13.388C118.657 12.946 119.173 12.6037 119.762 12.361C120.352 12.1097 120.989 11.984 121.673 11.984C122.401 11.984 123.051 12.1183 123.623 12.387C124.195 12.647 124.694 13.0197 125.118 13.505L124.117 14.48C123.805 14.1073 123.45 13.8257 123.051 13.635C122.661 13.4357 122.206 13.336 121.686 13.336C121.062 13.336 120.49 13.4833 119.97 13.778C119.45 14.064 119.034 14.4713 118.722 15C118.419 15.52 118.267 16.1353 118.267 16.846C118.267 17.5567 118.419 18.1763 118.722 18.705C119.034 19.225 119.45 19.6323 119.97 19.927C120.49 20.213 121.062 20.356 121.686 20.356C122.25 20.356 122.748 20.239 123.181 20.005C123.623 19.771 124.013 19.4503 124.351 19.043L125.378 20.031C124.945 20.5423 124.412 20.9497 123.779 21.253C123.155 21.5563 122.453 21.708 121.673 21.708ZM128.959 21.708C128.145 21.708 127.529 21.4653 127.113 20.98C126.706 20.486 126.502 19.8187 126.502 18.978V14.87H127.906V18.783C127.906 19.3463 128.036 19.7623 128.296 20.031C128.565 20.291 128.899 20.421 129.297 20.421C129.653 20.421 129.96 20.33 130.22 20.148C130.489 19.9573 130.693 19.7147 130.831 19.42C130.979 19.1167 131.052 18.7873 131.052 18.432V14.87H132.443V21.5H131.13V20.603H131.052C130.862 20.915 130.576 21.1793 130.194 21.396C129.822 21.604 129.41 21.708 128.959 21.708ZM130.623 13.518C130.407 13.518 130.216 13.44 130.051 13.284C129.895 13.1193 129.817 12.9243 129.817 12.699C129.817 12.4737 129.895 12.2873 130.051 12.14C130.216 11.984 130.407 11.906 130.623 11.906C130.857 11.906 131.052 11.984 131.208 12.14C131.364 12.2873 131.442 12.4737 131.442 12.699C131.442 12.9243 131.364 13.1193 131.208 13.284C131.052 13.44 130.857 13.518 130.623 13.518ZM128.322 13.518C128.106 13.518 127.915 13.44 127.75 13.284C127.594 13.1193 127.516 12.9243 127.516 12.699C127.516 12.4737 127.594 12.2873 127.75 12.14C127.915 11.984 128.106 11.906 128.322 11.906C128.556 11.906 128.747 11.984 128.894 12.14C129.05 12.2873 129.128 12.4737 129.128 12.699C129.128 12.9243 129.05 13.1193 128.894 13.284C128.747 13.44 128.556 13.518 128.322 13.518ZM133.948 21.5V20.33L137.64 16.092H134.065V14.87H139.356V16.04L135.677 20.278H139.46V21.5H133.948ZM143.48 21.708C142.882 21.708 142.34 21.5607 141.855 21.266C141.378 20.9627 140.997 20.5467 140.711 20.018C140.434 19.4807 140.295 18.8697 140.295 18.185C140.295 17.5003 140.434 16.8937 140.711 16.365C140.997 15.8363 141.378 15.4203 141.855 15.117C142.34 14.8137 142.882 14.662 143.48 14.662C143.991 14.662 144.429 14.7747 144.793 15C145.166 15.2253 145.439 15.481 145.612 15.767H145.69L145.612 14.844V12.192H147.003V21.5H145.69V20.616H145.612C145.439 20.902 145.166 21.1577 144.793 21.383C144.429 21.5997 143.991 21.708 143.48 21.708ZM143.688 20.421C144.035 20.421 144.36 20.33 144.663 20.148C144.975 19.966 145.222 19.7103 145.404 19.381C145.595 19.043 145.69 18.6443 145.69 18.185C145.69 17.7257 145.595 17.3313 145.404 17.002C145.222 16.664 144.975 16.404 144.663 16.222C144.36 16.04 144.035 15.949 143.688 15.949C143.341 15.949 143.016 16.04 142.713 16.222C142.41 16.404 142.163 16.664 141.972 17.002C141.781 17.3313 141.686 17.7257 141.686 18.185C141.686 18.6443 141.781 19.043 141.972 19.381C142.163 19.7103 142.41 19.966 142.713 20.148C143.016 20.33 143.341 20.421 143.688 20.421ZM150.673 21.708C150.197 21.708 149.772 21.617 149.399 21.435C149.027 21.2443 148.736 20.98 148.528 20.642C148.32 20.304 148.216 19.9183 148.216 19.485C148.216 19.017 148.338 18.6183 148.58 18.289C148.832 17.951 149.165 17.6953 149.581 17.522C149.997 17.3487 150.457 17.262 150.959 17.262C151.375 17.262 151.739 17.301 152.051 17.379C152.372 17.457 152.615 17.5393 152.779 17.626V17.275C152.779 16.8417 152.623 16.495 152.311 16.235C151.999 15.975 151.596 15.845 151.102 15.845C150.764 15.845 150.444 15.923 150.14 16.079C149.837 16.2263 149.594 16.43 149.412 16.69L148.45 15.949C148.736 15.5503 149.113 15.2383 149.581 15.013C150.058 14.779 150.578 14.662 151.141 14.662C152.103 14.662 152.844 14.9003 153.364 15.377C153.884 15.845 154.144 16.5037 154.144 17.353V21.5H152.779V20.681H152.701C152.528 20.9497 152.268 21.188 151.921 21.396C151.575 21.604 151.159 21.708 150.673 21.708ZM150.92 20.564C151.284 20.564 151.605 20.4773 151.882 20.304C152.16 20.1307 152.376 19.9053 152.532 19.628C152.697 19.342 152.779 19.0343 152.779 18.705C152.58 18.5923 152.346 18.5013 152.077 18.432C151.809 18.354 151.523 18.315 151.219 18.315C150.647 18.315 150.24 18.432 149.997 18.666C149.755 18.8913 149.633 19.1687 149.633 19.498C149.633 19.81 149.75 20.0657 149.984 20.265C150.218 20.4643 150.53 20.564 150.92 20.564ZM155.69 21.5V14.87H157.016V15.78H157.094C157.285 15.4593 157.566 15.195 157.939 14.987C158.32 14.7703 158.736 14.662 159.187 14.662C160.002 14.662 160.613 14.9047 161.02 15.39C161.427 15.8753 161.631 16.5167 161.631 17.314V21.5H160.24V17.496C160.24 16.9587 160.106 16.5687 159.837 16.326C159.568 16.0747 159.217 15.949 158.784 15.949C158.446 15.949 158.151 16.0443 157.9 16.235C157.649 16.417 157.449 16.6597 157.302 16.963C157.163 17.2663 157.094 17.5913 157.094 17.938V21.5H155.69ZM165.248 21.708C164.771 21.708 164.346 21.617 163.974 21.435C163.601 21.2443 163.311 20.98 163.103 20.642C162.895 20.304 162.791 19.9183 162.791 19.485C162.791 19.017 162.912 18.6183 163.155 18.289C163.406 17.951 163.74 17.6953 164.156 17.522C164.572 17.3487 165.031 17.262 165.534 17.262C165.95 17.262 166.314 17.301 166.626 17.379C166.946 17.457 167.189 17.5393 167.354 17.626V17.275C167.354 16.8417 167.198 16.495 166.886 16.235C166.574 15.975 166.171 15.845 165.677 15.845C165.339 15.845 165.018 15.923 164.715 16.079C164.411 16.2263 164.169 16.43 163.987 16.69L163.025 15.949C163.311 15.5503 163.688 15.2383 164.156 15.013C164.632 14.779 165.152 14.662 165.716 14.662C166.678 14.662 167.419 14.9003 167.939 15.377C168.459 15.845 168.719 16.5037 168.719 17.353V21.5H167.354V20.681H167.276C167.102 20.9497 166.842 21.188 166.496 21.396C166.149 21.604 165.733 21.708 165.248 21.708ZM165.495 20.564C165.859 20.564 166.179 20.4773 166.457 20.304C166.734 20.1307 166.951 19.9053 167.107 19.628C167.271 19.342 167.354 19.0343 167.354 18.705C167.154 18.5923 166.92 18.5013 166.652 18.432C166.383 18.354 166.097 18.315 165.794 18.315C165.222 18.315 164.814 18.432 164.572 18.666C164.329 18.8913 164.208 19.1687 164.208 19.498C164.208 19.81 164.325 20.0657 164.559 20.265C164.793 20.4643 165.105 20.564 165.495 20.564Z" fill="white"/>
<path d="M74.032 41.772C73.182 41.772 72.4227 41.5737 71.754 41.177C71.0853 40.7803 70.5583 40.2363 70.173 39.545C69.799 38.8537 69.612 38.066 69.612 37.182C69.612 36.3547 69.7933 35.5897 70.156 34.887C70.5187 34.1843 71.023 33.6233 71.669 33.204C72.3263 32.7733 73.08 32.558 73.93 32.558C74.8253 32.558 75.5847 32.7507 76.208 33.136C76.8427 33.5213 77.3243 34.0483 77.653 34.717C77.9817 35.3857 78.146 36.1393 78.146 36.978C78.146 37.1027 78.1403 37.216 78.129 37.318C78.129 37.42 78.1233 37.4993 78.112 37.556H71.414C71.5047 38.4173 71.805 39.0633 72.315 39.494C72.8363 39.9247 73.4257 40.14 74.083 40.14C74.6723 40.14 75.1597 40.0097 75.545 39.749C75.9303 39.477 76.2363 39.1427 76.463 38.746L77.976 39.477C77.602 40.157 77.092 40.7123 76.446 41.143C75.8 41.5623 74.9953 41.772 74.032 41.772ZM73.947 34.122C73.335 34.122 72.8137 34.309 72.383 34.683C71.9523 35.057 71.6633 35.5557 71.516 36.179H76.327C76.3043 35.8843 76.208 35.5783 76.038 35.261C75.868 34.9437 75.6073 34.6773 75.256 34.462C74.916 34.2353 74.4797 34.122 73.947 34.122ZM79.8493 41.5V29.328H81.6853V36.502L85.3573 32.83H87.6353V32.932L84.2863 36.247L87.7543 41.398V41.5H85.5783L82.9943 37.522L81.6853 38.814V41.5H79.8493ZM88.9142 41.5V29.328H90.7502V41.5H88.9142ZM96.7927 41.772C95.9427 41.772 95.1834 41.5737 94.5147 41.177C93.8461 40.7803 93.3191 40.2363 92.9337 39.545C92.5597 38.8537 92.3727 38.066 92.3727 37.182C92.3727 36.3547 92.5541 35.5897 92.9167 34.887C93.2794 34.1843 93.7837 33.6233 94.4297 33.204C95.0871 32.7733 95.8407 32.558 96.6907 32.558C97.5861 32.558 98.3454 32.7507 98.9687 33.136C99.6034 33.5213 100.085 34.0483 100.414 34.717C100.742 35.3857 100.907 36.1393 100.907 36.978C100.907 37.1027 100.901 37.216 100.89 37.318C100.89 37.42 100.884 37.4993 100.873 37.556H94.1747C94.2654 38.4173 94.5657 39.0633 95.0757 39.494C95.5971 39.9247 96.1864 40.14 96.8437 40.14C97.4331 40.14 97.9204 40.0097 98.3057 39.749C98.6911 39.477 98.9971 39.1427 99.2237 38.746L100.737 39.477C100.363 40.157 99.8527 40.7123 99.2067 41.143C98.5607 41.5623 97.7561 41.772 96.7927 41.772ZM96.7077 34.122C96.0957 34.122 95.5744 34.309 95.1437 34.683C94.7131 35.057 94.4241 35.5557 94.2767 36.179H99.0877C99.0651 35.8843 98.9687 35.5783 98.7987 35.261C98.6287 34.9437 98.3681 34.6773 98.0167 34.462C97.6767 34.2353 97.2404 34.122 96.7077 34.122Z" fill="white"/>
<rect x="0.5" y="0.5" width="188" height="54" rx="27" stroke="#747775"/>
<defs>
<linearGradient id="paint0_linear_1819_24757" x1="37.2843" y1="34.0448" x2="18.7823" y2="55.7227" gradientUnits="userSpaceOnUse">
<stop stop-color="#4285F4"/>
<stop offset="1" stop-color="#1B74E8"/>
</linearGradient>
</defs>
</svg>
