<svg width="227" height="55" viewBox="0 0 227 55" fill="none" xmlns="http://www.w3.org/2000/svg">
<rect x="0.5" y="0.5" width="226" height="54" rx="27" fill="#1F1F1F"/>
<path d="M57 23.791H21V18.1456C21 15.0809 23.6422 12.5001 26.7798 12.5001H51.2202C54.3578 12.5001 57 15.0809 57 18.1456V23.791Z" fill="#34A853"/>
<path d="M57 29H21V23C21 19.7429 23.6422 17 26.7798 17H51.2202C54.3578 17 57 19.7429 57 23V29Z" fill="#FBBC04"/>
<path d="M57 34H21V28C21 24.7429 23.6422 22 26.7798 22H51.2202C54.3578 22 57 24.7429 57 28V34Z" fill="#EA4335"/>
<path d="M21 25.2409L43.8493 30.4025C46.4795 31.0477 49.4384 30.4025 51.5753 28.7895L57 24.9183V37.0157C57 40.0804 54.3699 42.4999 51.2466 42.4999H26.7534C23.6301 42.4999 21 40.0804 21 37.0157V25.2409Z" fill="url(#paint0_linear_1819_24776)"/>
<path d="M69.481 23.476V20.148H70.3C70.4993 19.8187 70.6597 19.394 70.781 18.874C70.911 18.3453 71.002 17.7647 71.054 17.132C71.1147 16.4993 71.145 15.8623 71.145 15.221V12.192H77.112V20.148H78.204V23.476H76.813V21.5H70.872V23.476H69.481ZM71.86 20.148H75.682V13.544H72.536V15.429C72.536 16.3737 72.4753 17.2447 72.354 18.042C72.2413 18.8393 72.0767 19.5153 71.86 20.07V20.148ZM82.4859 21.708C81.8012 21.708 81.1989 21.552 80.6789 21.24C80.1589 20.928 79.7515 20.5077 79.4569 19.979C79.1622 19.4503 79.0149 18.8523 79.0149 18.185C79.0149 17.5263 79.1622 16.9327 79.4569 16.404C79.7515 15.8667 80.1589 15.442 80.6789 15.13C81.1989 14.818 81.8012 14.662 82.4859 14.662C83.1619 14.662 83.7599 14.818 84.2799 15.13C84.7999 15.442 85.2072 15.8667 85.5019 16.404C85.7965 16.9327 85.9439 17.5263 85.9439 18.185C85.9439 18.8523 85.7965 19.4503 85.5019 19.979C85.2072 20.5077 84.7999 20.928 84.2799 21.24C83.7599 21.552 83.1619 21.708 82.4859 21.708ZM82.4859 20.421C82.8499 20.421 83.1879 20.3343 83.4999 20.161C83.8119 19.979 84.0632 19.7233 84.2539 19.394C84.4532 19.056 84.5529 18.653 84.5529 18.185C84.5529 17.717 84.4532 17.3183 84.2539 16.989C84.0632 16.651 83.8119 16.3953 83.4999 16.222C83.1879 16.04 82.8499 15.949 82.4859 15.949C82.1219 15.949 81.7795 16.04 81.4589 16.222C81.1469 16.3953 80.8912 16.651 80.6919 16.989C80.5012 17.3183 80.4059 17.717 80.4059 18.185C80.4059 18.653 80.5012 19.056 80.6919 19.394C80.8912 19.7233 81.1469 19.979 81.4589 20.161C81.7795 20.3343 82.1219 20.421 82.4859 20.421ZM86.438 23.476V20.278H87.166C87.3046 20.1133 87.426 19.8793 87.53 19.576C87.6426 19.264 87.7293 18.913 87.79 18.523C87.8593 18.133 87.894 17.7387 87.894 17.34V14.87H92.86V20.278H93.822V23.476H92.535V21.5H87.738V23.476H86.438ZM88.674 20.278H91.469V16.092H89.22V17.457C89.22 18.0637 89.1766 18.588 89.09 19.03C89.0033 19.4633 88.8646 19.8533 88.674 20.2V20.278ZM97.15 21.708C96.6733 21.708 96.2486 21.617 95.876 21.435C95.5033 21.2443 95.213 20.98 95.005 20.642C94.797 20.304 94.693 19.9183 94.693 19.485C94.693 19.017 94.8143 18.6183 95.057 18.289C95.3083 17.951 95.642 17.6953 96.058 17.522C96.474 17.3487 96.9333 17.262 97.436 17.262C97.852 17.262 98.216 17.301 98.528 17.379C98.8486 17.457 99.0913 17.5393 99.256 17.626V17.275C99.256 16.8417 99.1 16.495 98.788 16.235C98.476 15.975 98.073 15.845 97.579 15.845C97.241 15.845 96.9203 15.923 96.617 16.079C96.3136 16.2263 96.071 16.43 95.889 16.69L94.927 15.949C95.213 15.5503 95.59 15.2383 96.058 15.013C96.5346 14.779 97.0546 14.662 97.618 14.662C98.58 14.662 99.321 14.9003 99.841 15.377C100.361 15.845 100.621 16.5037 100.621 17.353V21.5H99.256V20.681H99.178C99.0046 20.9497 98.7446 21.188 98.398 21.396C98.0513 21.604 97.6353 21.708 97.15 21.708ZM97.397 20.564C97.761 20.564 98.0816 20.4773 98.359 20.304C98.6363 20.1307 98.853 19.9053 99.009 19.628C99.1736 19.342 99.256 19.0343 99.256 18.705C99.0566 18.5923 98.8226 18.5013 98.554 18.432C98.2853 18.354 97.9993 18.315 97.696 18.315C97.124 18.315 96.7166 18.432 96.474 18.666C96.2313 18.8913 96.11 19.1687 96.11 19.498C96.11 19.81 96.227 20.0657 96.461 20.265C96.695 20.4643 97.007 20.564 97.397 20.564ZM103.628 21.5V16.092H101.444V14.87H107.203V16.092H105.019V21.5H103.628ZM108.349 21.5V14.87H109.753V18.263L109.675 19.511H109.753L113.068 14.87H114.459V21.5H113.068V18.12L113.146 16.872H113.068L109.753 21.5H108.349ZM119.14 21.5V14.87H122.429C122.819 14.87 123.166 14.948 123.469 15.104C123.781 15.2513 124.024 15.455 124.197 15.715C124.379 15.975 124.47 16.2653 124.47 16.586C124.47 16.9327 124.392 17.2317 124.236 17.483C124.089 17.7343 123.894 17.9207 123.651 18.042V18.12C123.981 18.25 124.241 18.445 124.431 18.705C124.631 18.965 124.73 19.264 124.73 19.602C124.73 19.992 124.626 20.33 124.418 20.616C124.219 20.902 123.959 21.123 123.638 21.279C123.318 21.4263 122.975 21.5 122.611 21.5H119.14ZM120.544 16.014V17.574H122.26C122.494 17.574 122.689 17.5003 122.845 17.353C123.001 17.2057 123.079 17.0193 123.079 16.794C123.079 16.56 123.001 16.3737 122.845 16.235C122.689 16.0877 122.494 16.014 122.26 16.014H120.544ZM120.544 20.33H122.468C122.72 20.33 122.928 20.252 123.092 20.096C123.266 19.9313 123.352 19.7233 123.352 19.472C123.352 19.2293 123.266 19.0257 123.092 18.861C122.928 18.6963 122.72 18.614 122.468 18.614H120.544V20.33Z" fill="white"/>
<path d="M76.14 41.772C75.2673 41.772 74.4457 41.6133 73.675 41.296C72.9157 40.9787 72.2413 40.5367 71.652 39.97C71.0627 39.392 70.598 38.7177 70.258 37.947C69.9293 37.165 69.765 36.3207 69.765 35.414C69.765 34.5073 69.9293 33.6687 70.258 32.898C70.598 32.116 71.057 31.4417 71.635 30.875C72.2243 30.297 72.9043 29.8493 73.675 29.532C74.4457 29.2147 75.2673 29.056 76.14 29.056C77.0693 29.056 77.925 29.2203 78.707 29.549C79.5003 29.8777 80.1633 30.3367 80.696 30.926L79.404 32.201C79.0073 31.759 78.5313 31.419 77.976 31.181C77.432 30.943 76.82 30.824 76.14 30.824C75.3353 30.824 74.593 31.0167 73.913 31.402C73.233 31.776 72.6833 32.3087 72.264 33C71.856 33.68 71.652 34.4847 71.652 35.414C71.652 36.3433 71.8617 37.1537 72.281 37.845C72.7003 38.525 73.25 39.0577 73.93 39.443C74.61 39.817 75.3523 40.004 76.157 40.004C76.8937 40.004 77.5623 39.868 78.163 39.596C78.7637 39.3127 79.2453 38.916 79.608 38.406C79.982 37.896 80.2087 37.284 80.288 36.57H76.123V34.921H82.039C82.107 35.227 82.141 35.55 82.141 35.89V35.907C82.141 37.0857 81.8803 38.117 81.359 39.001C80.849 39.8737 80.1407 40.5537 79.234 41.041C78.3273 41.5283 77.296 41.772 76.14 41.772ZM87.6149 41.772C86.7195 41.772 85.9319 41.568 85.2519 41.16C84.5719 40.752 84.0392 40.2023 83.6539 39.511C83.2685 38.8197 83.0759 38.0377 83.0759 37.165C83.0759 36.3037 83.2685 35.5273 83.6539 34.836C84.0392 34.1333 84.5719 33.578 85.2519 33.17C85.9319 32.762 86.7195 32.558 87.6149 32.558C88.4989 32.558 89.2809 32.762 89.9609 33.17C90.6409 33.578 91.1735 34.1333 91.5589 34.836C91.9442 35.5273 92.1369 36.3037 92.1369 37.165C92.1369 38.0377 91.9442 38.8197 91.5589 39.511C91.1735 40.2023 90.6409 40.752 89.9609 41.16C89.2809 41.568 88.4989 41.772 87.6149 41.772ZM87.6149 40.089C88.0909 40.089 88.5329 39.9757 88.9409 39.749C89.3489 39.511 89.6775 39.1767 89.9269 38.746C90.1875 38.304 90.3179 37.777 90.3179 37.165C90.3179 36.553 90.1875 36.0317 89.9269 35.601C89.6775 35.159 89.3489 34.8247 88.9409 34.598C88.5329 34.36 88.0909 34.241 87.6149 34.241C87.1389 34.241 86.6912 34.36 86.2719 34.598C85.8639 34.8247 85.5295 35.159 85.2689 35.601C85.0195 36.0317 84.8949 36.553 84.8949 37.165C84.8949 37.777 85.0195 38.304 85.2689 38.746C85.5295 39.1767 85.8639 39.511 86.2719 39.749C86.6912 39.9757 87.1389 40.089 87.6149 40.089ZM97.9078 41.772C97.0125 41.772 96.2248 41.568 95.5448 41.16C94.8648 40.752 94.3322 40.2023 93.9468 39.511C93.5615 38.8197 93.3688 38.0377 93.3688 37.165C93.3688 36.3037 93.5615 35.5273 93.9468 34.836C94.3322 34.1333 94.8648 33.578 95.5448 33.17C96.2248 32.762 97.0125 32.558 97.9078 32.558C98.7918 32.558 99.5738 32.762 100.254 33.17C100.934 33.578 101.467 34.1333 101.852 34.836C102.237 35.5273 102.43 36.3037 102.43 37.165C102.43 38.0377 102.237 38.8197 101.852 39.511C101.467 40.2023 100.934 40.752 100.254 41.16C99.5738 41.568 98.7918 41.772 97.9078 41.772ZM97.9078 40.089C98.3838 40.089 98.8258 39.9757 99.2338 39.749C99.6418 39.511 99.9705 39.1767 100.22 38.746C100.481 38.304 100.611 37.777 100.611 37.165C100.611 36.553 100.481 36.0317 100.22 35.601C99.9705 35.159 99.6418 34.8247 99.2338 34.598C98.8258 34.36 98.3838 34.241 97.9078 34.241C97.4318 34.241 96.9842 34.36 96.5648 34.598C96.1568 34.8247 95.8225 35.159 95.5618 35.601C95.3125 36.0317 95.1878 36.553 95.1878 37.165C95.1878 37.777 95.3125 38.304 95.5618 38.746C95.8225 39.1767 96.1568 39.511 96.5648 39.749C96.9842 39.9757 97.4318 40.089 97.9078 40.089ZM108.031 45.444C107.271 45.444 106.614 45.3193 106.059 45.07C105.515 44.832 105.073 44.5203 104.733 44.135C104.393 43.761 104.149 43.3757 104.002 42.979L105.702 42.265C105.883 42.7183 106.172 43.0867 106.569 43.37C106.977 43.6647 107.464 43.812 108.031 43.812C108.824 43.812 109.447 43.574 109.901 43.098C110.365 42.622 110.598 41.9477 110.598 41.075V40.242H110.496C110.224 40.65 109.844 40.9787 109.357 41.228C108.881 41.466 108.337 41.585 107.725 41.585C106.988 41.585 106.314 41.398 105.702 41.024C105.09 40.65 104.597 40.1287 104.223 39.46C103.849 38.78 103.662 37.9867 103.662 37.08C103.662 36.162 103.849 35.3687 104.223 34.7C104.597 34.02 105.09 33.493 105.702 33.119C106.314 32.745 106.988 32.558 107.725 32.558C108.337 32.558 108.881 32.6827 109.357 32.932C109.844 33.1813 110.224 33.51 110.496 33.918H110.598V32.83H112.349V41.041C112.349 41.9817 112.162 42.7807 111.788 43.438C111.425 44.0953 110.921 44.594 110.275 44.934C109.629 45.274 108.881 45.444 108.031 45.444ZM108.048 39.919C108.501 39.919 108.92 39.8113 109.306 39.596C109.691 39.3693 110.003 39.0463 110.241 38.627C110.479 38.1963 110.598 37.6807 110.598 37.08C110.598 36.4567 110.479 35.9353 110.241 35.516C110.003 35.0853 109.691 34.7623 109.306 34.547C108.92 34.3317 108.501 34.224 108.048 34.224C107.594 34.224 107.169 34.3373 106.773 34.564C106.387 34.7793 106.076 35.0967 105.838 35.516C105.6 35.9353 105.481 36.4567 105.481 37.08C105.481 37.692 105.6 38.2133 105.838 38.644C106.076 39.0633 106.387 39.3807 106.773 39.596C107.169 39.8113 107.594 39.919 108.048 39.919ZM114.514 41.5V29.328H116.35V41.5H114.514ZM122.392 41.772C121.542 41.772 120.783 41.5737 120.114 41.177C119.446 40.7803 118.919 40.2363 118.533 39.545C118.159 38.8537 117.972 38.066 117.972 37.182C117.972 36.3547 118.154 35.5897 118.516 34.887C118.879 34.1843 119.383 33.6233 120.029 33.204C120.687 32.7733 121.44 32.558 122.29 32.558C123.186 32.558 123.945 32.7507 124.568 33.136C125.203 33.5213 125.685 34.0483 126.013 34.717C126.342 35.3857 126.506 36.1393 126.506 36.978C126.506 37.1027 126.501 37.216 126.489 37.318C126.489 37.42 126.484 37.4993 126.472 37.556H119.774C119.865 38.4173 120.165 39.0633 120.675 39.494C121.197 39.9247 121.786 40.14 122.443 40.14C123.033 40.14 123.52 40.0097 123.905 39.749C124.291 39.477 124.597 39.1427 124.823 38.746L126.336 39.477C125.962 40.157 125.452 40.7123 124.806 41.143C124.16 41.5623 123.356 41.772 122.392 41.772ZM122.307 34.122C121.695 34.122 121.174 34.309 120.743 34.683C120.313 35.057 120.024 35.5557 119.876 36.179H124.687C124.665 35.8843 124.568 35.5783 124.398 35.261C124.228 34.9437 123.968 34.6773 123.616 34.462C123.276 34.2353 122.84 34.122 122.307 34.122ZM132.483 41.5V29.328H139.589V31.096H134.353V41.5H132.483ZM142.269 41.772C141.645 41.772 141.09 41.653 140.603 41.415C140.115 41.1657 139.736 40.82 139.464 40.378C139.192 39.936 139.056 39.4317 139.056 38.865C139.056 38.253 139.214 37.7317 139.532 37.301C139.86 36.859 140.297 36.5247 140.841 36.298C141.385 36.0713 141.985 35.958 142.643 35.958C143.187 35.958 143.663 36.009 144.071 36.111C144.49 36.213 144.807 36.3207 145.023 36.434V35.975C145.023 35.4083 144.819 34.955 144.411 34.615C144.003 34.275 143.476 34.105 142.83 34.105C142.388 34.105 141.968 34.207 141.572 34.411C141.175 34.6037 140.858 34.87 140.62 35.21L139.362 34.241C139.736 33.7197 140.229 33.3117 140.841 33.017C141.464 32.711 142.144 32.558 142.881 32.558C144.139 32.558 145.108 32.8697 145.788 33.493C146.468 34.105 146.808 34.9663 146.808 36.077V41.5H145.023V40.429H144.921C144.694 40.7803 144.354 41.092 143.901 41.364C143.447 41.636 142.903 41.772 142.269 41.772ZM142.592 40.276C143.068 40.276 143.487 40.1627 143.85 39.936C144.212 39.7093 144.496 39.4147 144.7 39.052C144.915 38.678 145.023 38.2757 145.023 37.845C144.762 37.6977 144.456 37.5787 144.105 37.488C143.753 37.386 143.379 37.335 142.983 37.335C142.235 37.335 141.702 37.488 141.385 37.794C141.067 38.0887 140.909 38.4513 140.909 38.882C140.909 39.29 141.062 39.6243 141.368 39.885C141.674 40.1457 142.082 40.276 142.592 40.276ZM148.829 41.5V32.83H151.005L153.674 38.134H153.759L156.445 32.83H158.57V41.5H156.819V37.284L156.904 35.618H156.802L154.303 40.395H153.096L150.597 35.618H150.495L150.58 37.284V41.5H148.829ZM163.353 41.772C162.729 41.772 162.174 41.653 161.687 41.415C161.199 41.1657 160.82 40.82 160.548 40.378C160.276 39.936 160.14 39.4317 160.14 38.865C160.14 38.253 160.298 37.7317 160.616 37.301C160.944 36.859 161.381 36.5247 161.925 36.298C162.469 36.0713 163.069 35.958 163.727 35.958C164.271 35.958 164.747 36.009 165.155 36.111C165.574 36.213 165.891 36.3207 166.107 36.434V35.975C166.107 35.4083 165.903 34.955 165.495 34.615C165.087 34.275 164.56 34.105 163.914 34.105C163.472 34.105 163.052 34.207 162.656 34.411C162.259 34.6037 161.942 34.87 161.704 35.21L160.446 34.241C160.82 33.7197 161.313 33.3117 161.925 33.017C162.548 32.711 163.228 32.558 163.965 32.558C165.223 32.558 166.192 32.8697 166.872 33.493C167.552 34.105 167.892 34.9663 167.892 36.077V41.5H166.107V40.429H166.005C165.778 40.7803 165.438 41.092 164.985 41.364C164.531 41.636 163.987 41.772 163.353 41.772ZM163.676 40.276C164.152 40.276 164.571 40.1627 164.934 39.936C165.296 39.7093 165.58 39.4147 165.784 39.052C165.999 38.678 166.107 38.2757 166.107 37.845C165.846 37.6977 165.54 37.5787 165.189 37.488C164.837 37.386 164.463 37.335 164.067 37.335C163.319 37.335 162.786 37.488 162.469 37.794C162.151 38.0887 161.993 38.4513 161.993 38.882C161.993 39.29 162.146 39.6243 162.452 39.885C162.758 40.1457 163.166 40.276 163.676 40.276ZM169.913 41.5V32.83H171.749V36.315H175.863V32.83H177.699V41.5H175.863V37.913H171.749V41.5H169.913ZM183.719 41.772C182.869 41.772 182.109 41.5737 181.441 41.177C180.772 40.7803 180.245 40.2363 179.86 39.545C179.486 38.8537 179.299 38.066 179.299 37.182C179.299 36.3547 179.48 35.5897 179.843 34.887C180.205 34.1843 180.71 33.6233 181.356 33.204C182.013 32.7733 182.767 32.558 183.617 32.558C184.512 32.558 185.271 32.7507 185.895 33.136C186.529 33.5213 187.011 34.0483 187.34 34.717C187.668 35.3857 187.833 36.1393 187.833 36.978C187.833 37.1027 187.827 37.216 187.816 37.318C187.816 37.42 187.81 37.4993 187.799 37.556H181.101C181.191 38.4173 181.492 39.0633 182.002 39.494C182.523 39.9247 183.112 40.14 183.77 40.14C184.359 40.14 184.846 40.0097 185.232 39.749C185.617 39.477 185.923 39.1427 186.15 38.746L187.663 39.477C187.289 40.157 186.779 40.7123 186.133 41.143C185.487 41.5623 184.682 41.772 183.719 41.772ZM183.634 34.122C183.022 34.122 182.5 34.309 182.07 34.683C181.639 35.057 181.35 35.5557 181.203 36.179H186.014C185.991 35.8843 185.895 35.5783 185.725 35.261C185.555 34.9437 185.294 34.6773 184.943 34.462C184.603 34.2353 184.166 34.122 183.634 34.122ZM196.557 44.084V41.5H189.536V32.83H191.372V39.902H195.146V32.83H196.982V39.902H198.24V44.084H196.557ZM201.715 32.83V35.72H203.704C204.293 35.72 204.82 35.8447 205.285 36.094C205.761 36.3433 206.135 36.689 206.407 37.131C206.679 37.5617 206.815 38.0547 206.815 38.61C206.815 39.1653 206.679 39.6583 206.407 40.089C206.135 40.5197 205.761 40.8653 205.285 41.126C204.82 41.3753 204.293 41.5 203.704 41.5H199.879V32.83H201.715ZM201.715 39.97H203.551C203.959 39.97 204.299 39.8397 204.571 39.579C204.843 39.3183 204.979 38.9953 204.979 38.61C204.979 38.2247 204.843 37.9017 204.571 37.641C204.299 37.369 203.959 37.233 203.551 37.233H201.715V39.97Z" fill="white"/>
<rect x="0.5" y="0.5" width="226" height="54" rx="27" stroke="#747775"/>
<defs>
<linearGradient id="paint0_linear_1819_24776" x1="37.2843" y1="34.0448" x2="18.7823" y2="55.7227" gradientUnits="userSpaceOnUse">
<stop stop-color="#4285F4"/>
<stop offset="1" stop-color="#1B74E8"/>
</linearGradient>
</defs>
</svg>
